<?xml version="1.0" encoding="UTF-8" standalone="no"?><svg xmlns="http://www.w3.org/2000/svg" xmlns:xlink="http://www.w3.org/1999/xlink" clip-rule="evenodd" stroke-miterlimit="10" viewBox="0 0 274 507"><desc>SVG generated by Keynote</desc><defs><linearGradient id="gradSh1.17" x1="0.0" y1="0.0" x2="100.0" y2="0.0" gradientUnits="userSpaceOnUse" gradientTransform="matrix(0.00, -1.06, -2.51, 0.00, 137.0, 501.5)"><stop offset="0.00000" stop-color="#FBFBFB"></stop><stop offset="0.00953" stop-color="#FBFAFA"></stop><stop offset="1.00000" stop-color="#E59A9B"></stop></linearGradient><linearGradient id="gradSh2.18" x1="0.0" y1="0.0" x2="100.0" y2="0.0" gradientUnits="userSpaceOnUse" gradientTransform="matrix(0.00, -1.08, -2.53, 0.00, 137.0, 348.5)"><stop offset="0.00000" stop-color="#FBFBFB"></stop><stop offset="0.00953" stop-color="#FAFBFB"></stop><stop offset="1.00000" stop-color="#9AC0E5"></stop></linearGradient><linearGradient id="gradSh3.19" x1="0.0" y1="0.0" x2="100.0" y2="0.0" gradientUnits="userSpaceOnUse" gradientTransform="matrix(0.00, -1.08, -2.53, 0.00, 137.0, 193.5)"><stop offset="0.00000" stop-color="#FFFFFF"></stop><stop offset="0.00513" stop-color="#FFFFFE"></stop><stop offset="1.00000" stop-color="#C0E59A"></stop></linearGradient></defs><g transform="matrix(1.00, 0.00, -0.00, -1.00, 0.0, 507.0)"><g><clipPath id="clip0x608002eb2480"><path d="M 150.0 396.8 L 150.0 343.8 L 124.0 343.8 L 124.0 396.8 Z M 150.0 396.8 "></path></clipPath><g clip-path="url(#clip0x608002eb2480)"><path d="M -0.2 0.0 L 27.0 0.0 L 29.8 0.0 " fill="none" stroke="#003F7F" stroke-width="6.00" transform="matrix(0.00, -1.00, -1.00, 0.00, 137.0, 395.8)"></path><path d="M 125.0 369.0 L 137.0 345.0 L 149.0 369.0 Z M 125.0 369.0 " fill="#003F7F"></path></g></g><g><clipPath id="clip0x608003ab2480"><path d="M 150.0 245.2 L 150.0 191.3 L 124.0 191.3 L 124.0 245.2 Z M 150.0 245.2 "></path></clipPath><g clip-path="url(#clip0x608003ab2480)"><path d="M 0.2 0.0 L 27.9 0.0 L 31.2 0.0 " fill="none" stroke="#003F7F" stroke-width="6.00" transform="matrix(0.00, -1.00, -1.00, 0.00, 137.0, 244.2)"></path><path d="M 125.0 216.0 L 137.0 192.0 L 149.0 216.0 Z M 125.0 216.0 " fill="#003F7F"></path></g></g><g><clipPath id="clip0x608003ab2780"><path d="M 1.8 381.6 L 272.3 381.6 L 272.3 506.7 L 1.8 506.7 Z M 1.8 381.6 "></path></clipPath><g clip-path="url(#clip0x608003ab2780)"><image xlink:href="../../F2DF23E3-081D-49BE-9044-9CC0FF40AB84/assets/B2AFF4F1755325A141F9FF713CF1038A.png" width="269.00" height="123.00" transform="matrix(1.00, 0.00, -0.00, -1.00, 2.8, 505.7)" opacity="0.50"></image></g></g><g><clipPath id="clip0x618003ca0120"><path d="M 12.5 411.0 L 12.5 485.2 C 12.5 493.4 19.0 500.5 27.3 500.5 L 246.8 500.5 C 255.1 500.5 261.5 493.4 261.5 485.2 L 261.5 411.1 C 261.5 402.8 255.1 396.5 246.8 396.5 L 27.3 396.5 C 19.0 396.5 12.5 402.7 12.5 411.0 Z M 12.3 411.1 "></path></clipPath><g clip-path="url(#clip0x618003ca0120)"><g><clipPath id="clip0x618003ca0a80"><path d="M 1.8 381.6 L 272.3 381.6 L 272.3 506.7 L 1.8 506.7 Z M 1.8 381.6 "></path></clipPath><g clip-path="url(#clip0x618003ca0a80)"><path d="M 1.8 381.6 L 272.3 381.6 L 272.3 506.7 L 1.8 506.7 Z M 1.8 381.6 " fill="url(#gradSh1.17)"></path></g></g></g></g><g><clipPath id="clip0x618003ea0d80"><path d="M 1.8 381.6 L 272.3 381.6 L 272.3 506.7 L 1.8 506.7 Z M 1.8 381.6 "></path></clipPath><g clip-path="url(#clip0x618003ea0d80)"><path d="M 0.2 89.2 L 0.2 15.0 C 0.2 6.7 6.7 -0.3 15.0 -0.3 L 234.5 -0.3 C 242.8 -0.3 249.2 6.7 249.2 15.0 L 249.2 89.0 C 249.2 97.3 242.8 103.7 234.5 103.7 L 15.0 103.7 C 6.7 103.7 0.2 97.4 0.2 89.2 Z M 0.0 89.0 " fill="none" stroke="#7F3F40" stroke-width="3.00" transform="matrix(1.00, 0.00, 0.00, -1.00, 12.3, 500.2)"></path></g></g><g><clipPath id="clip0x618003ea0fc0"><path d="M 5.4 396.1 L 268.7 396.1 L 268.7 500.2 L 5.4 500.2 Z M 5.4 396.1 "></path></clipPath><g clip-path="url(#clip0x618003ea0fc0)"><text xml:space="preserve" font-family="FiraSans-Regular,Fira Sans" font-size="32.0" fill="#000000" transform="matrix(1.00, 0.00, -0.00, -1.00, 54.5, 439.6)">P</text><text xml:space="preserve" font-family="FiraSans-Regular,Fira Sans" font-size="32.0" fill="#000000" transform="matrix(1.00, 0.00, -0.00, -1.00, 72.2, 439.6)">a</text><text xml:space="preserve" font-family="FiraSans-Regular,Fira Sans" font-size="32.0" fill="#000000" transform="matrix(1.00, 0.00, -0.00, -1.00, 89.6, 439.6)">r</text><text xml:space="preserve" font-family="FiraSans-Regular,Fira Sans" font-size="32.0" fill="#000000" transform="matrix(1.00, 0.00, -0.00, -1.00, 101.3, 439.6)">a</text><text xml:space="preserve" font-family="FiraSans-Regular,Fira Sans" font-size="32.0" fill="#000000" transform="matrix(1.00, 0.00, -0.00, -1.00, 118.7, 439.6)">m</text><text xml:space="preserve" font-family="FiraSans-Regular,Fira Sans" font-size="32.0" fill="#000000" transform="matrix(1.00, 0.00, -0.00, -1.00, 146.1, 439.6)">e</text><text xml:space="preserve" font-family="FiraSans-Regular,Fira Sans" font-size="32.0" fill="#000000" transform="matrix(1.00, 0.00, -0.00, -1.00, 163.7, 439.6)">t</text><text xml:space="preserve" font-family="FiraSans-Regular,Fira Sans" font-size="32.0" fill="#000000" transform="matrix(1.00, 0.00, -0.00, -1.00, 174.9, 439.6)">e</text><text xml:space="preserve" font-family="FiraSans-Regular,Fira Sans" font-size="32.0" fill="#000000" transform="matrix(1.00, 0.00, -0.00, -1.00, 192.5, 439.6)">r</text><text xml:space="preserve" font-family="FiraSans-Regular,Fira Sans" font-size="32.0" fill="#000000" transform="matrix(1.00, 0.00, -0.00, -1.00, 204.6, 439.6)">s</text></g></g><g><clipPath id="clip0x618003ea1560"><path d="M 0.8 227.0 L 273.3 227.0 L 273.3 354.1 L 0.8 354.1 Z M 0.8 227.0 "></path></clipPath><g clip-path="url(#clip0x618003ea1560)"><image xlink:href="../../F2DF23E3-081D-49BE-9044-9CC0FF40AB84/assets/6955CB76A4411F2E9EA6E0980E070EF6.png" width="271.00" height="125.00" transform="matrix(1.00, 0.00, -0.00, -1.00, 1.8, 353.1)" opacity="0.50"></image></g></g><g><clipPath id="clip0x608003ab27e0"><path d="M 11.5 347.5 L 262.5 347.5 L 262.5 241.5 L 11.5 241.5 Z M 11.3 347.6 "></path></clipPath><g clip-path="url(#clip0x608003ab27e0)"><g><clipPath id="clip0x608003ab2b40"><path d="M 0.8 227.0 L 273.3 227.0 L 273.3 354.1 L 0.8 354.1 Z M 0.8 227.0 "></path></clipPath><g clip-path="url(#clip0x608003ab2b40)"><path d="M 0.8 227.0 L 273.3 227.0 L 273.3 354.1 L 0.8 354.1 Z M 0.8 227.0 " fill="url(#gradSh2.18)"></path></g></g></g></g><g><clipPath id="clip0x608003cb2e40"><path d="M 0.8 227.0 L 273.3 227.0 L 273.3 354.1 L 0.8 354.1 Z M 0.8 227.0 "></path></clipPath><g clip-path="url(#clip0x608003cb2e40)"><path d="M 0.2 0.1 L 251.2 0.1 L 251.2 106.1 L 0.2 106.1 Z M 0.0 0.0 " fill="none" stroke="#3F5F7F" stroke-width="3.00" transform="matrix(1.00, 0.00, 0.00, -1.00, 11.3, 347.6)"></path></g></g><g><clipPath id="clip0x608003cb3080"><path d="M 4.9 243.5 L 269.2 243.5 L 269.2 345.6 L 4.9 345.6 Z M 4.9 243.5 "></path></clipPath><g clip-path="url(#clip0x608003cb3080)"><text xml:space="preserve" font-family="FiraSans-Regular,Fira Sans" font-size="32.0" fill="#000000" transform="matrix(1.00, 0.00, -0.00, -1.00, 75.8, 285.6)">P</text><text xml:space="preserve" font-family="FiraSans-Regular,Fira Sans" font-size="32.0" fill="#000000" transform="matrix(1.00, 0.00, -0.00, -1.00, 94.4, 285.6)">r</text><text xml:space="preserve" font-family="FiraSans-Regular,Fira Sans" font-size="32.0" fill="#000000" transform="matrix(1.00, 0.00, -0.00, -1.00, 106.4, 285.6)">o</text><text xml:space="preserve" font-family="FiraSans-Regular,Fira Sans" font-size="32.0" fill="#000000" transform="matrix(1.00, 0.00, -0.00, -1.00, 125.1, 285.6)">g</text><text xml:space="preserve" font-family="FiraSans-Regular,Fira Sans" font-size="32.0" fill="#000000" transform="matrix(1.00, 0.00, -0.00, -1.00, 141.7, 285.6)">r</text><text xml:space="preserve" font-family="FiraSans-Regular,Fira Sans" font-size="32.0" fill="#000000" transform="matrix(1.00, 0.00, -0.00, -1.00, 153.4, 285.6)">a</text><text xml:space="preserve" font-family="FiraSans-Regular,Fira Sans" font-size="32.0" fill="#000000" transform="matrix(1.00, 0.00, -0.00, -1.00, 170.9, 285.6)">m</text></g></g><g><clipPath id="clip0x608003cb3500"><path d="M 0.8 72.4 L 273.3 72.4 L 273.3 199.5 L 0.8 199.5 Z M 0.8 72.4 "></path></clipPath><g clip-path="url(#clip0x608003cb3500)"><image xlink:href="../../F2DF23E3-081D-49BE-9044-9CC0FF40AB84/assets/4CDBFCCC1CFA11F93F216843D13CADFA.png" width="271.00" height="125.00" transform="matrix(1.00, 0.00, -0.00, -1.00, 1.8, 198.5)" opacity="0.50"></image></g></g><g><clipPath id="clip0x600005ca3a80"><path d="M 11.5 192.5 L 262.5 192.5 L 262.5 86.5 L 11.5 86.5 Z M 11.3 193.0 "></path></clipPath><g clip-path="url(#clip0x600005ca3a80)"><g><clipPath id="clip0x600005cae040"><path d="M 0.8 72.4 L 273.3 72.4 L 273.3 199.5 L 0.8 199.5 Z M 0.8 72.4 "></path></clipPath><g clip-path="url(#clip0x600005cae040)"><path d="M 0.8 72.4 L 273.3 72.4 L 273.3 199.5 L 0.8 199.5 Z M 0.8 72.4 " fill="url(#gradSh3.19)"></path></g></g></g></g><g><clipPath id="clip0x600005eae340"><path d="M 0.8 72.4 L 273.3 72.4 L 273.3 199.5 L 0.8 199.5 Z M 0.8 72.4 "></path></clipPath><g clip-path="url(#clip0x600005eae340)"><path d="M 0.2 0.5 L 251.2 0.5 L 251.2 106.5 L 0.2 106.5 Z M 0.0 0.0 " fill="none" stroke="#5F7F3F" stroke-width="3.00" transform="matrix(1.00, 0.00, 0.00, -1.00, 11.3, 193.0)"></path></g></g><g><clipPath id="clip0x600005eae580"><path d="M 4.9 88.9 L 269.2 88.9 L 269.2 191.0 L 4.9 191.0 Z M 4.9 88.9 "></path></clipPath><g clip-path="url(#clip0x600005eae580)"><text xml:space="preserve" font-family="FiraSans-Regular,Fira Sans" font-size="32.0" fill="#000000" transform="matrix(1.00, 0.00, -0.00, -1.00, 86.3, 131.0)">O</text><text xml:space="preserve" font-family="FiraSans-Regular,Fira Sans" font-size="32.0" fill="#000000" transform="matrix(1.00, 0.00, -0.00, -1.00, 108.4, 131.0)">u</text><text xml:space="preserve" font-family="FiraSans-Regular,Fira Sans" font-size="32.0" fill="#000000" transform="matrix(1.00, 0.00, -0.00, -1.00, 127.0, 131.0)">t</text><text xml:space="preserve" font-family="FiraSans-Regular,Fira Sans" font-size="32.0" fill="#000000" transform="matrix(1.00, 0.00, -0.00, -1.00, 138.6, 131.0)">p</text><text xml:space="preserve" font-family="FiraSans-Regular,Fira Sans" font-size="32.0" fill="#000000" transform="matrix(1.00, 0.00, -0.00, -1.00, 157.6, 131.0)">u</text><text xml:space="preserve" font-family="FiraSans-Regular,Fira Sans" font-size="32.0" fill="#000000" transform="matrix(1.00, 0.00, -0.00, -1.00, 176.2, 131.0)">t</text></g></g><g><clipPath id="clip0x600005eae9a0"><path d="M 106.4 -7.1 L 167.6 -7.1 L 167.6 67.7 L 106.4 67.7 Z M 106.4 -7.1 "></path></clipPath><g clip-path="url(#clip0x600005eae9a0)"><text xml:space="preserve" font-family="FiraSans-Regular,Fira Sans" font-size="32.0" fill="#20313F" transform="matrix(1.00, 0.00, -0.00, -1.00, 119.3, 21.3)">C</text><text xml:space="preserve" font-family="FiraSans-Regular,Fira Sans" font-size="32.0" fill="#20313F" transform="matrix(1.00, 0.00, -0.00, -1.00, 137.3, 21.3)">S</text></g></g></g></svg>