<?xml version="1.0" encoding="UTF-8" standalone="no"?><svg xmlns="http://www.w3.org/2000/svg" xmlns:xlink="http://www.w3.org/1999/xlink" clip-rule="evenodd" stroke-miterlimit="10" viewBox="0 0 190 34"><desc>SVG generated by Keynote</desc><defs></defs><g transform="matrix(1.00, 0.00, -0.00, -1.00, 0.0, 34.0)"><text xml:space="preserve" font-family="FiraSans-Medium,Fira Sans" font-size="32.0" fill="#2A4054" transform="matrix(1.00, 0.00, -0.00, -1.00, 2.0, 9.7)">T</text><text xml:space="preserve" font-family="FiraSans-Medium,Fira Sans" font-size="32.0" fill="#2A4054" transform="matrix(1.00, 0.00, -0.00, -1.00, 16.4, 9.7)">a</text><text xml:space="preserve" font-family="FiraSans-Medium,Fira Sans" font-size="32.0" fill="#2A4054" transform="matrix(1.00, 0.00, -0.00, -1.00, 33.8, 9.7)">r</text><text xml:space="preserve" font-family="FiraSans-Medium,Fira Sans" font-size="32.0" fill="#2A4054" transform="matrix(1.00, 0.00, -0.00, -1.00, 46.5, 9.7)">g</text><text xml:space="preserve" font-family="FiraSans-Medium,Fira Sans" font-size="32.0" fill="#2A4054" transform="matrix(1.00, 0.00, -0.00, -1.00, 63.2, 9.7)">e</text><text xml:space="preserve" font-family="FiraSans-Medium,Fira Sans" font-size="32.0" fill="#2A4054" transform="matrix(1.00, 0.00, -0.00, -1.00, 80.8, 9.7)">t</text><text xml:space="preserve" font-family="FiraSans-Medium,Fira Sans" font-size="32.0" fill="#2A4054" transform="matrix(1.00, 0.00, -0.00, -1.00, 92.8, 9.7)"> </text><text xml:space="preserve" font-family="FiraSans-Medium,Fira Sans" font-size="32.0" fill="#2A4054" transform="matrix(1.00, 0.00, -0.00, -1.00, 100.8, 9.7)">I</text><text xml:space="preserve" font-family="FiraSans-Medium,Fira Sans" font-size="32.0" fill="#2A4054" transform="matrix(1.00, 0.00, -0.00, -1.00, 110.3, 9.7)">m</text><text xml:space="preserve" font-family="FiraSans-Medium,Fira Sans" font-size="32.0" fill="#2A4054" transform="matrix(1.00, 0.00, -0.00, -1.00, 137.5, 9.7)">a</text><text xml:space="preserve" font-family="FiraSans-Medium,Fira Sans" font-size="32.0" fill="#2A4054" transform="matrix(1.00, 0.00, -0.00, -1.00, 154.9, 9.7)">g</text><text xml:space="preserve" font-family="FiraSans-Medium,Fira Sans" font-size="32.0" fill="#2A4054" transform="matrix(1.00, 0.00, -0.00, -1.00, 171.6, 9.7)">e</text></g></svg>