<?xml version="1.0" encoding="UTF-8" standalone="no"?><svg xmlns="http://www.w3.org/2000/svg" xmlns:xlink="http://www.w3.org/1999/xlink" clip-rule="evenodd" stroke-miterlimit="10" viewBox="0 0 376 36"><desc>SVG generated by Keynote</desc><defs></defs><g transform="matrix(1.00, 0.00, -0.00, -1.00, 0.0, 36.0)"><text xml:space="preserve" font-family="FiraSans-Medium,Fira Sans" font-size="32.0" fill="#2A4054" transform="matrix(1.00, 0.00, -0.00, -1.00, 1.0, 9.7)">M</text><text xml:space="preserve" font-family="FiraSans-Medium,Fira Sans" font-size="32.0" fill="#2A4054" transform="matrix(1.00, 0.00, -0.00, -1.00, 26.2, 9.7)">o</text><text xml:space="preserve" font-family="FiraSans-Medium,Fira Sans" font-size="32.0" fill="#2A4054" transform="matrix(1.00, 0.00, -0.00, -1.00, 44.9, 9.7)">d</text><text xml:space="preserve" font-family="FiraSans-Medium,Fira Sans" font-size="32.0" fill="#2A4054" transform="matrix(1.00, 0.00, -0.00, -1.00, 63.8, 9.7)">e</text><text xml:space="preserve" font-family="FiraSans-Medium,Fira Sans" font-size="32.0" fill="#2A4054" transform="matrix(1.00, 0.00, -0.00, -1.00, 81.4, 9.7)">l</text><text xml:space="preserve" font-family="FiraSans-Medium,Fira Sans" font-size="32.0" fill="#2A4054" transform="matrix(1.00, 0.00, -0.00, -1.00, 90.9, 9.7)"> </text><text xml:space="preserve" font-family="FiraSans-Medium,Fira Sans" font-size="32.0" fill="#2A4054" transform="matrix(1.00, 0.00, -0.00, -1.00, 98.9, 9.7)">f</text><text xml:space="preserve" font-family="FiraSans-Medium,Fira Sans" font-size="32.0" fill="#2A4054" transform="matrix(1.00, 0.00, -0.00, -1.00, 109.6, 9.7)">o</text><text xml:space="preserve" font-family="FiraSans-Medium,Fira Sans" font-size="32.0" fill="#2A4054" transform="matrix(1.00, 0.00, -0.00, -1.00, 128.3, 9.7)">r</text><text xml:space="preserve" font-family="FiraSans-Medium,Fira Sans" font-size="32.0" fill="#2A4054" transform="matrix(1.00, 0.00, -0.00, -1.00, 140.9, 9.7)"> </text><text xml:space="preserve" font-family="FiraSans-Medium,Fira Sans" font-size="32.0" fill="#2A4054" transform="matrix(1.00, 0.00, -0.00, -1.00, 148.9, 9.7)">C</text><text xml:space="preserve" font-family="FiraSans-Medium,Fira Sans" font-size="32.0" fill="#2A4054" transform="matrix(1.00, 0.00, -0.00, -1.00, 167.1, 9.7)">A</text><text xml:space="preserve" font-family="FiraSans-Medium,Fira Sans" font-size="32.0" fill="#2A4054" transform="matrix(1.00, 0.00, -0.00, -1.00, 185.8, 9.7)">P</text><text xml:space="preserve" font-family="FiraSans-Medium,Fira Sans" font-size="32.0" fill="#2A4054" transform="matrix(1.00, 0.00, -0.00, -1.00, 204.4, 9.7)">T</text><text xml:space="preserve" font-family="FiraSans-Medium,Fira Sans" font-size="32.0" fill="#2A4054" transform="matrix(1.00, 0.00, -0.00, -1.00, 220.2, 9.7)">C</text><text xml:space="preserve" font-family="FiraSans-Medium,Fira Sans" font-size="32.0" fill="#2A4054" transform="matrix(1.00, 0.00, -0.00, -1.00, 238.4, 9.7)">H</text><text xml:space="preserve" font-family="FiraSans-Medium,Fira Sans" font-size="32.0" fill="#2A4054" transform="matrix(1.00, 0.00, -0.00, -1.00, 259.9, 9.7)">A</text><text xml:space="preserve" font-family="FiraSans-Medium,Fira Sans" font-size="32.0" fill="#2A4054" transform="matrix(1.00, 0.00, -0.00, -1.00, 278.6, 9.7)"> </text><text xml:space="preserve" font-family="FiraSans-Medium,Fira Sans" font-size="32.0" fill="#2A4054" transform="matrix(1.00, 0.00, -0.00, -1.00, 286.6, 9.7)">I</text><text xml:space="preserve" font-family="FiraSans-Medium,Fira Sans" font-size="32.0" fill="#2A4054" transform="matrix(1.00, 0.00, -0.00, -1.00, 296.0, 9.7)">m</text><text xml:space="preserve" font-family="FiraSans-Medium,Fira Sans" font-size="32.0" fill="#2A4054" transform="matrix(1.00, 0.00, -0.00, -1.00, 323.2, 9.7)">a</text><text xml:space="preserve" font-family="FiraSans-Medium,Fira Sans" font-size="32.0" fill="#2A4054" transform="matrix(1.00, 0.00, -0.00, -1.00, 340.7, 9.7)">g</text><text xml:space="preserve" font-family="FiraSans-Medium,Fira Sans" font-size="32.0" fill="#2A4054" transform="matrix(1.00, 0.00, -0.00, -1.00, 357.4, 9.7)">e</text></g></svg>