<?xml version="1.0" encoding="UTF-8" standalone="no"?><svg xmlns="http://www.w3.org/2000/svg" xmlns:xlink="http://www.w3.org/1999/xlink" clip-rule="evenodd" stroke-miterlimit="10" viewBox="0 0 1024 768"><desc>SVG generated by Keynote</desc><defs><linearGradient id="gradSh1.220" x1="0.0" y1="0.0" x2="100.0" y2="0.0" gradientUnits="userSpaceOnUse" gradientTransform="matrix(0.00, -7.70, -10.26, 0.00, 512.0, 769.0)"><stop offset="0.00000" stop-color="#FFFFFF"></stop><stop offset="0.01906" stop-color="#FEFFFF"></stop><stop offset="1.00000" stop-color="#E5F3FF"></stop></linearGradient></defs><g transform="matrix(1.00, 0.00, -0.00, -1.00, 0.0, 768.0)"><g><clipPath id="clip0x6080160b4dc0"><path d="M 0.0 768.0 L 1024.0 768.0 L 1024.0 0.0 L 0.0 0.0 Z M 0.0 768.0 "></path></clipPath><g clip-path="url(#clip0x6080160b4dc0)"><path d="M 0.0 768.0 L 1024.0 768.0 L 1024.0 0.0 L 0.0 0.0 Z M 0.0 768.0 " fill="url(#gradSh1.220)"></path></g></g><image xlink:href="../../D2E94072-5A18-4E1C-888E-188105002B29/assets/BB5CA69B134B165A9000704F67C375B2.jpeg" width="1001.00" height="640.00" transform="matrix(0.66, 0.00, -0.00, -0.66, 179.9, 606.3)"></image><text xml:space="preserve" font-family="FiraSans-BookItalic,Fira Sans" font-style="italic" font-size="28.0" fill="#20313F" transform="matrix(1.00, 0.00, -0.00, -1.00, 285.3, 68.9)">Y</text><text xml:space="preserve" font-family="FiraSans-BookItalic,Fira Sans" font-style="italic" font-size="28.0" fill="#20313F" transform="matrix(1.00, 0.00, -0.00, -1.00, 298.2, 68.9)">e</text><text xml:space="preserve" font-family="FiraSans-BookItalic,Fira Sans" font-style="italic" font-size="28.0" fill="#20313F" transform="matrix(1.00, 0.00, -0.00, -1.00, 312.8, 68.9)">s</text><text xml:space="preserve" font-family="FiraSans-Book,Fira Sans" font-size="28.0" fill="#20313F" transform="matrix(1.00, 0.00, -0.00, -1.00, 325.7, 68.9)">:</text><text xml:space="preserve" font-family="FiraSans-Book,Fira Sans" font-size="28.0" fill="#20313F" transform="matrix(1.00, 0.00, -0.00, -1.00, 332.2, 68.9)"> </text><text xml:space="preserve" font-family="FiraSans-Book,Fira Sans" font-size="28.0" fill="#20313F" transform="matrix(1.00, 0.00, -0.00, -1.00, 339.7, 68.9)">5</text><text xml:space="preserve" font-family="FiraSans-Book,Fira Sans" font-size="28.0" fill="#20313F" transform="matrix(1.00, 0.00, -0.00, -1.00, 353.6, 68.9)"> </text><text xml:space="preserve" font-family="FiraSans-Book,Fira Sans" font-size="28.0" fill="#20313F" transform="matrix(1.00, 0.00, -0.00, -1.00, 361.1, 68.9)">c</text><text xml:space="preserve" font-family="FiraSans-Book,Fira Sans" font-size="28.0" fill="#20313F" transform="matrix(1.00, 0.00, -0.00, -1.00, 374.5, 68.9)">a</text><text xml:space="preserve" font-family="FiraSans-Book,Fira Sans" font-size="28.0" fill="#20313F" transform="matrix(1.00, 0.00, -0.00, -1.00, 389.6, 68.9)">n</text><text xml:space="preserve" font-family="FiraSans-Book,Fira Sans" font-size="28.0" fill="#20313F" transform="matrix(1.00, 0.00, -0.00, -1.00, 406.0, 68.9)">d</text><text xml:space="preserve" font-family="FiraSans-Book,Fira Sans" font-size="28.0" fill="#20313F" transform="matrix(1.00, 0.00, -0.00, -1.00, 422.7, 68.9)">i</text><text xml:space="preserve" font-family="FiraSans-Book,Fira Sans" font-size="28.0" fill="#20313F" transform="matrix(1.00, 0.00, -0.00, -1.00, 430.5, 68.9)">d</text><text xml:space="preserve" font-family="FiraSans-Book,Fira Sans" font-size="28.0" fill="#20313F" transform="matrix(1.00, 0.00, -0.00, -1.00, 447.1, 68.9)">a</text><text xml:space="preserve" font-family="FiraSans-Book,Fira Sans" font-size="28.0" fill="#20313F" transform="matrix(1.00, 0.00, -0.00, -1.00, 462.3, 68.9)">t</text><text xml:space="preserve" font-family="FiraSans-Book,Fira Sans" font-size="28.0" fill="#20313F" transform="matrix(1.00, 0.00, -0.00, -1.00, 472.0, 68.9)">e</text><text xml:space="preserve" font-family="FiraSans-Book,Fira Sans" font-size="28.0" fill="#20313F" transform="matrix(1.00, 0.00, -0.00, -1.00, 487.3, 68.9)">s</text><text xml:space="preserve" font-family="FiraSans-Book,Fira Sans" font-size="28.0" fill="#20313F" transform="matrix(1.00, 0.00, -0.00, -1.00, 500.4, 68.9)">,</text><text xml:space="preserve" font-family="FiraSans-Book,Fira Sans" font-size="28.0" fill="#20313F" transform="matrix(1.00, 0.00, -0.00, -1.00, 506.9, 68.9)"> </text><text xml:space="preserve" font-family="FiraSans-BookItalic,Fira Sans" font-style="italic" font-size="28.0" fill="#20313F" transform="matrix(1.00, 0.00, -0.00, -1.00, 514.4, 68.9)">N</text><text xml:space="preserve" font-family="FiraSans-BookItalic,Fira Sans" font-style="italic" font-size="28.0" fill="#20313F" transform="matrix(1.00, 0.00, -0.00, -1.00, 533.3, 68.9)">o</text><text xml:space="preserve" font-family="FiraSans-BookItalic,Fira Sans" font-style="italic" font-size="28.0" fill="#20313F" transform="matrix(1.00, 0.00, -0.00, -1.00, 549.4, 68.9)">:</text><text xml:space="preserve" font-family="FiraSans-BookItalic,Fira Sans" font-style="italic" font-size="28.0" fill="#20313F" transform="matrix(1.00, 0.00, -0.00, -1.00, 555.9, 68.9)"> </text><text xml:space="preserve" font-family="FiraSans-Book,Fira Sans" font-size="28.0" fill="#20313F" transform="matrix(1.00, 0.00, -0.00, -1.00, 563.3, 68.9)">1</text><text xml:space="preserve" font-family="FiraSans-Book,Fira Sans" font-size="28.0" fill="#20313F" transform="matrix(1.00, 0.00, -0.00, -1.00, 575.3, 68.9)">9</text><text xml:space="preserve" font-family="FiraSans-Book,Fira Sans" font-size="28.0" fill="#20313F" transform="matrix(1.00, 0.00, -0.00, -1.00, 589.9, 68.9)"> </text><text xml:space="preserve" font-family="FiraSans-Book,Fira Sans" font-size="28.0" fill="#20313F" transform="matrix(1.00, 0.00, -0.00, -1.00, 597.4, 68.9)">c</text><text xml:space="preserve" font-family="FiraSans-Book,Fira Sans" font-size="28.0" fill="#20313F" transform="matrix(1.00, 0.00, -0.00, -1.00, 610.8, 68.9)">a</text><text xml:space="preserve" font-family="FiraSans-Book,Fira Sans" font-size="28.0" fill="#20313F" transform="matrix(1.00, 0.00, -0.00, -1.00, 625.9, 68.9)">n</text><text xml:space="preserve" font-family="FiraSans-Book,Fira Sans" font-size="28.0" fill="#20313F" transform="matrix(1.00, 0.00, -0.00, -1.00, 642.3, 68.9)">d</text><text xml:space="preserve" font-family="FiraSans-Book,Fira Sans" font-size="28.0" fill="#20313F" transform="matrix(1.00, 0.00, -0.00, -1.00, 659.0, 68.9)">i</text><text xml:space="preserve" font-family="FiraSans-Book,Fira Sans" font-size="28.0" fill="#20313F" transform="matrix(1.00, 0.00, -0.00, -1.00, 666.8, 68.9)">d</text><text xml:space="preserve" font-family="FiraSans-Book,Fira Sans" font-size="28.0" fill="#20313F" transform="matrix(1.00, 0.00, -0.00, -1.00, 683.4, 68.9)">a</text><text xml:space="preserve" font-family="FiraSans-Book,Fira Sans" font-size="28.0" fill="#20313F" transform="matrix(1.00, 0.00, -0.00, -1.00, 698.6, 68.9)">t</text><text xml:space="preserve" font-family="FiraSans-Book,Fira Sans" font-size="28.0" fill="#20313F" transform="matrix(1.00, 0.00, -0.00, -1.00, 708.3, 68.9)">e</text><text xml:space="preserve" font-family="FiraSans-Book,Fira Sans" font-size="28.0" fill="#20313F" transform="matrix(1.00, 0.00, -0.00, -1.00, 723.6, 68.9)">s</text><path d="M 353.0 595.0 L 428.0 595.0 L 428.0 467.0 L 353.0 467.0 Z M 352.8 594.7 " fill="#666B57"></path><path d="M 270.0 456.0 L 345.0 456.0 L 345.0 328.0 L 270.0 328.0 Z M 269.8 455.7 " fill="#666B57"></path><path d="M 190.0 456.0 L 265.0 456.0 L 265.0 328.0 L 190.0 328.0 Z M 189.8 455.7 " fill="#666B57"></path><path d="M 596.0 456.0 L 671.0 456.0 L 671.0 328.0 L 596.0 328.0 Z M 595.8 455.7 " fill="#666B57"></path><path d="M 677.0 595.0 L 752.0 595.0 L 752.0 467.0 L 677.0 467.0 Z M 676.8 594.7 " fill="#666B57"></path><text xml:space="preserve" font-family="FiraSans-BookItalic,Fira Sans" font-style="italic" font-size="28.0" fill="#20313F" transform="matrix(1.00, 0.00, -0.00, -1.00, 226.9, 128.9)">Q</text><text xml:space="preserve" font-family="FiraSans-BookItalic,Fira Sans" font-style="italic" font-size="28.0" fill="#20313F" transform="matrix(1.00, 0.00, -0.00, -1.00, 246.0, 128.9)">u</text><text xml:space="preserve" font-family="FiraSans-BookItalic,Fira Sans" font-style="italic" font-size="28.0" fill="#20313F" transform="matrix(1.00, 0.00, -0.00, -1.00, 262.1, 128.9)">e</text><text xml:space="preserve" font-family="FiraSans-BookItalic,Fira Sans" font-style="italic" font-size="28.0" fill="#20313F" transform="matrix(1.00, 0.00, -0.00, -1.00, 276.7, 128.9)">s</text><text xml:space="preserve" font-family="FiraSans-BookItalic,Fira Sans" font-style="italic" font-size="28.0" fill="#20313F" transform="matrix(1.00, 0.00, -0.00, -1.00, 289.6, 128.9)">t</text><text xml:space="preserve" font-family="FiraSans-BookItalic,Fira Sans" font-style="italic" font-size="28.0" fill="#20313F" transform="matrix(1.00, 0.00, -0.00, -1.00, 299.4, 128.9)">i</text><text xml:space="preserve" font-family="FiraSans-BookItalic,Fira Sans" font-style="italic" font-size="28.0" fill="#20313F" transform="matrix(1.00, 0.00, -0.00, -1.00, 307.2, 128.9)">o</text><text xml:space="preserve" font-family="FiraSans-BookItalic,Fira Sans" font-style="italic" font-size="28.0" fill="#20313F" transform="matrix(1.00, 0.00, -0.00, -1.00, 323.3, 128.9)">n</text><text xml:space="preserve" font-family="FiraSans-Book,Fira Sans" font-size="28.0" fill="#20313F" transform="matrix(1.00, 0.00, -0.00, -1.00, 339.6, 128.9)">:</text><text xml:space="preserve" font-family="FiraSans-Book,Fira Sans" font-size="28.0" fill="#20313F" transform="matrix(1.00, 0.00, -0.00, -1.00, 346.1, 128.9)"> </text><text xml:space="preserve" font-family="FiraSans-Book,Fira Sans" font-size="28.0" fill="#20313F" transform="matrix(1.00, 0.00, -0.00, -1.00, 353.6, 128.9)">D</text><text xml:space="preserve" font-family="FiraSans-Book,Fira Sans" font-size="28.0" fill="#20313F" transform="matrix(1.00, 0.00, -0.00, -1.00, 371.5, 128.9)">o</text><text xml:space="preserve" font-family="FiraSans-Book,Fira Sans" font-size="28.0" fill="#20313F" transform="matrix(1.00, 0.00, -0.00, -1.00, 387.8, 128.9)">e</text><text xml:space="preserve" font-family="FiraSans-Book,Fira Sans" font-size="28.0" fill="#20313F" transform="matrix(1.00, 0.00, -0.00, -1.00, 403.1, 128.9)">s</text><text xml:space="preserve" font-family="FiraSans-Book,Fira Sans" font-size="28.0" fill="#20313F" transform="matrix(1.00, 0.00, -0.00, -1.00, 416.1, 128.9)"> </text><text xml:space="preserve" font-family="FiraSans-Book,Fira Sans" font-size="28.0" fill="#20313F" transform="matrix(1.00, 0.00, -0.00, -1.00, 423.6, 128.9)">t</text><text xml:space="preserve" font-family="FiraSans-Book,Fira Sans" font-size="28.0" fill="#20313F" transform="matrix(1.00, 0.00, -0.00, -1.00, 433.6, 128.9)">h</text><text xml:space="preserve" font-family="FiraSans-Book,Fira Sans" font-size="28.0" fill="#20313F" transform="matrix(1.00, 0.00, -0.00, -1.00, 450.0, 128.9)">e</text><text xml:space="preserve" font-family="FiraSans-Book,Fira Sans" font-size="28.0" fill="#20313F" transform="matrix(1.00, 0.00, -0.00, -1.00, 465.3, 128.9)"> </text><text xml:space="preserve" font-family="FiraSans-Book,Fira Sans" font-size="28.0" fill="#20313F" transform="matrix(1.00, 0.00, -0.00, -1.00, 472.8, 128.9)">p</text><text xml:space="preserve" font-family="FiraSans-Book,Fira Sans" font-size="28.0" fill="#20313F" transform="matrix(1.00, 0.00, -0.00, -1.00, 489.4, 128.9)">e</text><text xml:space="preserve" font-family="FiraSans-Book,Fira Sans" font-size="28.0" fill="#20313F" transform="matrix(1.00, 0.00, -0.00, -1.00, 504.7, 128.9)">r</text><text xml:space="preserve" font-family="FiraSans-Book,Fira Sans" font-size="28.0" fill="#20313F" transform="matrix(1.00, 0.00, -0.00, -1.00, 515.1, 128.9)">s</text><text xml:space="preserve" font-family="FiraSans-Book,Fira Sans" font-size="28.0" fill="#20313F" transform="matrix(1.00, 0.00, -0.00, -1.00, 528.2, 128.9)">o</text><text xml:space="preserve" font-family="FiraSans-Book,Fira Sans" font-size="28.0" fill="#20313F" transform="matrix(1.00, 0.00, -0.00, -1.00, 544.4, 128.9)">n</text><text xml:space="preserve" font-family="FiraSans-Book,Fira Sans" font-size="28.0" fill="#20313F" transform="matrix(1.00, 0.00, -0.00, -1.00, 560.8, 128.9)"> </text><text xml:space="preserve" font-family="FiraSans-Book,Fira Sans" font-size="28.0" fill="#20313F" transform="matrix(1.00, 0.00, -0.00, -1.00, 568.3, 128.9)">h</text><text xml:space="preserve" font-family="FiraSans-Book,Fira Sans" font-size="28.0" fill="#20313F" transform="matrix(1.00, 0.00, -0.00, -1.00, 584.7, 128.9)">a</text><text xml:space="preserve" font-family="FiraSans-Book,Fira Sans" font-size="28.0" fill="#20313F" transform="matrix(1.00, 0.00, -0.00, -1.00, 599.6, 128.9)">v</text><text xml:space="preserve" font-family="FiraSans-Book,Fira Sans" font-size="28.0" fill="#20313F" transform="matrix(1.00, 0.00, -0.00, -1.00, 612.9, 128.9)">e</text><text xml:space="preserve" font-family="FiraSans-Book,Fira Sans" font-size="28.0" fill="#20313F" transform="matrix(1.00, 0.00, -0.00, -1.00, 628.3, 128.9)"> </text><text xml:space="preserve" font-family="FiraSans-SemiBold,Fira Sans" font-weight="bold" font-size="28.0" fill="#20313F" transform="matrix(1.00, 0.00, -0.00, -1.00, 635.8, 128.9)">b</text><text xml:space="preserve" font-family="FiraSans-SemiBold,Fira Sans" font-weight="bold" font-size="28.0" fill="#20313F" transform="matrix(1.00, 0.00, -0.00, -1.00, 652.5, 128.9)">l</text><text xml:space="preserve" font-family="FiraSans-SemiBold,Fira Sans" font-weight="bold" font-size="28.0" fill="#20313F" transform="matrix(1.00, 0.00, -0.00, -1.00, 660.5, 128.9)">o</text><text xml:space="preserve" font-family="FiraSans-SemiBold,Fira Sans" font-weight="bold" font-size="28.0" fill="#20313F" transform="matrix(1.00, 0.00, -0.00, -1.00, 676.8, 128.9)">n</text><text xml:space="preserve" font-family="FiraSans-SemiBold,Fira Sans" font-weight="bold" font-size="28.0" fill="#20313F" transform="matrix(1.00, 0.00, -0.00, -1.00, 693.0, 128.9)">d</text><text xml:space="preserve" font-family="FiraSans-SemiBold,Fira Sans" font-weight="bold" font-size="28.0" fill="#20313F" transform="matrix(1.00, 0.00, -0.00, -1.00, 709.5, 128.9)">e</text><text xml:space="preserve" font-family="FiraSans-SemiBold,Fira Sans" font-weight="bold" font-size="28.0" fill="#20313F" transform="matrix(1.00, 0.00, -0.00, -1.00, 725.0, 128.9)"> </text><text xml:space="preserve" font-family="FiraSans-SemiBold,Fira Sans" font-weight="bold" font-size="28.0" fill="#20313F" transform="matrix(1.00, 0.00, -0.00, -1.00, 731.8, 128.9)">h</text><text xml:space="preserve" font-family="FiraSans-SemiBold,Fira Sans" font-weight="bold" font-size="28.0" fill="#20313F" transform="matrix(1.00, 0.00, -0.00, -1.00, 748.0, 128.9)">a</text><text xml:space="preserve" font-family="FiraSans-SemiBold,Fira Sans" font-weight="bold" font-size="28.0" fill="#20313F" transform="matrix(1.00, 0.00, -0.00, -1.00, 763.4, 128.9)">i</text><text xml:space="preserve" font-family="FiraSans-SemiBold,Fira Sans" font-weight="bold" font-size="28.0" fill="#20313F" transform="matrix(1.00, 0.00, -0.00, -1.00, 771.3, 128.9)">r</text><text xml:space="preserve" font-family="FiraSans-Book,Fira Sans" font-size="28.0" fill="#20313F" transform="matrix(1.00, 0.00, -0.00, -1.00, 782.4, 128.9)">?</text><text xml:space="preserve" font-family="FiraSans-Light,Fira Sans" font-size="49.8" fill="#20313F" transform="matrix(1.00, 0.00, -0.00, -1.00, 76.7, 667.9)">G</text><text xml:space="preserve" font-family="FiraSans-Light,Fira Sans" font-size="49.8" fill="#20313F" transform="matrix(1.00, 0.00, -0.00, -1.00, 107.5, 667.9)">u</text><text xml:space="preserve" font-family="FiraSans-Light,Fira Sans" font-size="49.8" fill="#20313F" transform="matrix(1.00, 0.00, -0.00, -1.00, 136.3, 667.9)">e</text><text xml:space="preserve" font-family="FiraSans-Light,Fira Sans" font-size="49.8" fill="#20313F" transform="matrix(1.00, 0.00, -0.00, -1.00, 163.1, 667.9)">s</text><text xml:space="preserve" font-family="FiraSans-Light,Fira Sans" font-size="49.8" fill="#20313F" transform="matrix(1.00, 0.00, -0.00, -1.00, 186.2, 667.9)">s</text><text xml:space="preserve" font-family="FiraSans-Light,Fira Sans" font-size="49.8" fill="#20313F" transform="matrix(1.00, 0.00, -0.00, -1.00, 209.3, 667.9)"> </text><text xml:space="preserve" font-family="FiraSans-Light,Fira Sans" font-size="49.8" fill="#20313F" transform="matrix(1.00, 0.00, -0.00, -1.00, 223.2, 667.9)">W</text><text xml:space="preserve" font-family="FiraSans-Light,Fira Sans" font-size="49.8" fill="#20313F" transform="matrix(1.00, 0.00, -0.00, -1.00, 263.6, 667.9)">h</text><text xml:space="preserve" font-family="FiraSans-Light,Fira Sans" font-size="49.8" fill="#20313F" transform="matrix(1.00, 0.00, -0.00, -1.00, 292.7, 667.9)">o</text><text xml:space="preserve" font-family="FiraSans-Light,Fira Sans" font-size="49.8" fill="#20313F" transform="matrix(1.00, 0.00, -0.00, -1.00, 321.1, 667.9)">:</text><text xml:space="preserve" font-family="FiraSans-Light,Fira Sans" font-size="49.8" fill="#20313F" transform="matrix(1.00, 0.00, -0.00, -1.00, 331.4, 667.9)"> </text><text xml:space="preserve" font-family="FiraSans-Light,Fira Sans" font-size="49.8" fill="#20313F" transform="matrix(1.00, 0.00, -0.00, -1.00, 345.3, 667.9)">O</text><text xml:space="preserve" font-family="FiraSans-Light,Fira Sans" font-size="49.8" fill="#20313F" transform="matrix(1.00, 0.00, -0.00, -1.00, 379.7, 667.9)">n</text><text xml:space="preserve" font-family="FiraSans-Light,Fira Sans" font-size="49.8" fill="#20313F" transform="matrix(1.00, 0.00, -0.00, -1.00, 408.8, 667.9)">t</text><text xml:space="preserve" font-family="FiraSans-Light,Fira Sans" font-size="49.8" fill="#20313F" transform="matrix(1.00, 0.00, -0.00, -1.00, 425.3, 667.9)">o</text><text xml:space="preserve" font-family="FiraSans-Light,Fira Sans" font-size="49.8" fill="#20313F" transform="matrix(1.00, 0.00, -0.00, -1.00, 453.7, 667.9)">l</text><text xml:space="preserve" font-family="FiraSans-Light,Fira Sans" font-size="49.8" fill="#20313F" transform="matrix(1.00, 0.00, -0.00, -1.00, 467.4, 667.9)">o</text><text xml:space="preserve" font-family="FiraSans-Light,Fira Sans" font-size="49.8" fill="#20313F" transform="matrix(1.00, 0.00, -0.00, -1.00, 495.8, 667.9)">g</text><text xml:space="preserve" font-family="FiraSans-Light,Fira Sans" font-size="49.8" fill="#20313F" transform="matrix(1.00, 0.00, -0.00, -1.00, 520.8, 667.9)">y</text><text xml:space="preserve" font-family="FiraSans-Light,Fira Sans" font-size="49.8" fill="#20313F" transform="matrix(1.00, 0.00, -0.00, -1.00, 544.2, 667.9)"> </text><text xml:space="preserve" font-family="FiraSans-Light,Fira Sans" font-size="49.8" fill="#20313F" transform="matrix(1.00, 0.00, -0.00, -1.00, 558.0, 667.9)">B</text><text xml:space="preserve" font-family="FiraSans-Light,Fira Sans" font-size="49.8" fill="#20313F" transform="matrix(1.00, 0.00, -0.00, -1.00, 587.8, 667.9)">a</text><text xml:space="preserve" font-family="FiraSans-Light,Fira Sans" font-size="49.8" fill="#20313F" transform="matrix(1.00, 0.00, -0.00, -1.00, 614.5, 667.9)">s</text><text xml:space="preserve" font-family="FiraSans-Light,Fira Sans" font-size="49.8" fill="#20313F" transform="matrix(1.00, 0.00, -0.00, -1.00, 637.6, 667.9)">e</text><text xml:space="preserve" font-family="FiraSans-Light,Fira Sans" font-size="49.8" fill="#20313F" transform="matrix(1.00, 0.00, -0.00, -1.00, 664.4, 667.9)">d</text><text xml:space="preserve" font-family="FiraSans-Light,Fira Sans" font-size="49.8" fill="#20313F" transform="matrix(1.00, 0.00, -0.00, -1.00, 693.6, 667.9)"> </text><text xml:space="preserve" font-family="FiraSans-Light,Fira Sans" font-size="49.8" fill="#20313F" transform="matrix(1.00, 0.00, -0.00, -1.00, 707.4, 667.9)">R</text><text xml:space="preserve" font-family="FiraSans-Light,Fira Sans" font-size="49.8" fill="#20313F" transform="matrix(1.00, 0.00, -0.00, -1.00, 735.6, 667.9)">e</text><text xml:space="preserve" font-family="FiraSans-Light,Fira Sans" font-size="49.8" fill="#20313F" transform="matrix(1.00, 0.00, -0.00, -1.00, 762.4, 667.9)">a</text><text xml:space="preserve" font-family="FiraSans-Light,Fira Sans" font-size="49.8" fill="#20313F" transform="matrix(1.00, 0.00, -0.00, -1.00, 789.1, 667.9)">s</text><text xml:space="preserve" font-family="FiraSans-Light,Fira Sans" font-size="49.8" fill="#20313F" transform="matrix(1.00, 0.00, -0.00, -1.00, 812.2, 667.9)">o</text><text xml:space="preserve" font-family="FiraSans-Light,Fira Sans" font-size="49.8" fill="#20313F" transform="matrix(1.00, 0.00, -0.00, -1.00, 840.6, 667.9)">n</text><text xml:space="preserve" font-family="FiraSans-Light,Fira Sans" font-size="49.8" fill="#20313F" transform="matrix(1.00, 0.00, -0.00, -1.00, 869.7, 667.9)">i</text><text xml:space="preserve" font-family="FiraSans-Light,Fira Sans" font-size="49.8" fill="#20313F" transform="matrix(1.00, 0.00, -0.00, -1.00, 883.1, 667.9)">n</text><text xml:space="preserve" font-family="FiraSans-Light,Fira Sans" font-size="49.8" fill="#20313F" transform="matrix(1.00, 0.00, -0.00, -1.00, 912.2, 667.9)">g</text></g></svg>