<?xml version="1.0" encoding="UTF-8" standalone="no"?><svg xmlns="http://www.w3.org/2000/svg" xmlns:xlink="http://www.w3.org/1999/xlink" clip-rule="evenodd" stroke-miterlimit="10" viewBox="0 0 381 142"><desc>SVG generated by Keynote</desc><defs></defs><g transform="matrix(1.00, 0.00, -0.00, -1.00, 0.0, 142.0)"><g><clipPath id="clip0x6100024ab9a0"><path d="M 77.0 0.4 L 380.9 0.4 L 380.9 141.9 L 77.0 141.9 Z M 77.0 0.4 "></path></clipPath><g clip-path="url(#clip0x6100024ab9a0)"><image xlink:href="6E667BD801D7BE5A3837DA6B62711777.png" width="302.00" height="140.00" transform="matrix(1.00, 0.00, -0.00, -1.00, 78.0, 140.9)" opacity="0.50"></image><path d="M 81.0 26.4 L 81.0 119.9 C 81.0 130.9 90.0 140.0 101.0 140.0 L 356.9 140.0 C 368.0 140.0 377.0 130.9 377.0 119.9 L 377.0 26.4 C 377.0 15.3 368.0 6.0 356.9 6.0 L 101.0 6.0 C 90.0 6.0 81.0 15.3 81.0 26.4 Z M 81.0 26.4 " fill="#FEFFFE"></path></g></g><g><clipPath id="clip0x600003caae60"><path d="M 88.0 117.0 L 377.0 117.0 L 377.0 19.0 L 88.0 19.0 Z M 88.0 117.4 "></path></clipPath><g clip-path="url(#clip0x600003caae60)"><g><clipPath id="clip0x600003caafe0"><path d="M 88.1 19.7 L 377.0 19.7 L 377.0 117.4 L 88.1 117.4 Z M 88.1 19.7 "></path></clipPath><g clip-path="url(#clip0x600003caafe0)"><path d="M 102.1 111.3 L 101.1 106.2 C 100.8 105.0 100.6 103.6 100.6 102.6 C 100.6 101.7 100.8 101.0 101.5 101.0 C 102.9 101.0 103.2 102.5 103.5 104.1 L 104.7 104.1 C 104.3 101.8 103.3 99.8 101.2 99.8 C 99.8 99.8 98.9 100.7 98.9 102.1 C 98.9 102.4 98.9 102.6 99.0 102.9 C 97.8 100.7 96.0 99.8 93.7 99.8 C 91.7 99.8 90.2 101.1 90.1 103.0 C 90.1 102.8 90.1 102.7 90.1 102.5 C 90.1 100.9 91.2 97.5 90.6 96.2 C 90.3 95.6 89.7 95.3 89.2 95.3 C 88.6 95.3 88.1 95.6 88.1 96.3 C 88.1 96.4 88.1 96.4 88.2 96.5 L 91.0 111.3 L 93.9 111.3 L 92.8 106.2 C 92.7 105.1 92.6 104.2 92.6 103.5 C 92.6 101.9 93.0 101.0 93.9 101.0 C 96.0 101.0 97.6 102.8 98.2 106.2 L 99.2 111.3 L 102.1 111.3 " fill="#52A700"></path><path d="M 108.8 106.6 L 106.3 106.2 L 106.3 105.7 L 107.7 105.7 L 105.6 94.9 L 106.9 94.9 L 107.4 98.0 L 108.3 98.8 L 109.7 96.1 C 110.1 95.3 110.5 94.9 111.2 94.9 C 111.5 94.9 112.1 95.0 113.0 95.3 L 113.0 95.7 C 112.7 95.7 112.4 95.6 112.2 95.6 C 111.1 95.6 110.5 97.0 109.2 99.7 C 110.0 100.4 110.6 100.9 111.3 101.4 L 111.9 100.8 C 112.5 101.0 112.8 101.4 112.8 101.8 C 112.8 102.3 112.4 102.6 111.8 102.6 C 111.5 102.6 111.0 102.3 110.5 101.8 L 107.5 98.7 L 109.2 106.6 L 108.8 106.6 " fill="#000000"></path><path d="M 115.8 96.2 C 118.1 96.5 119.7 98.3 119.7 100.2 C 119.7 101.7 119.0 102.5 117.8 102.5 C 117.1 102.5 116.5 102.0 116.5 101.2 C 116.5 100.8 116.6 100.5 116.8 100.2 L 118.3 100.2 C 118.3 100.1 118.3 100.1 118.3 100.0 C 118.3 98.3 117.5 97.3 115.8 97.0 L 115.8 96.2 " fill="#000000"></path><path d="M 125.7 115.3 L 125.7 114.2 L 131.7 107.4 L 125.7 100.1 L 139.7 100.1 L 139.7 105.8 L 138.4 105.8 L 137.9 102.4 L 137.1 101.7 L 129.3 101.7 L 134.9 108.5 L 129.8 114.2 L 129.8 114.1 L 137.2 114.1 L 137.9 113.3 L 138.4 110.0 L 139.7 110.0 L 139.7 115.3 L 125.7 115.3 " fill="#52A700"></path><path d="M 147.3 106.6 L 144.8 106.2 L 144.8 105.7 L 146.3 105.7 L 144.1 94.9 L 145.4 94.9 L 145.9 98.0 L 146.8 98.8 L 148.2 96.1 C 148.6 95.3 149.0 94.9 149.7 94.9 C 150.0 94.9 150.6 95.0 151.5 95.3 L 151.5 95.7 C 151.2 95.7 151.0 95.6 150.7 95.6 C 149.6 95.6 149.0 97.0 147.8 99.7 C 148.5 100.4 149.1 100.9 149.8 101.4 L 150.4 100.8 C 151.0 101.0 151.3 101.4 151.3 101.8 C 151.3 102.3 150.9 102.6 150.4 102.6 C 150.0 102.6 149.5 102.3 149.0 101.8 L 146.0 98.7 L 147.7 106.6 L 147.3 106.6 " fill="#000000"></path><path d="M 161.0 104.6 C 161.0 105.8 162.0 107.7 163.9 107.7 C 166.7 107.7 168.2 103.7 171.5 103.7 C 173.6 103.7 175.3 105.6 175.3 108.6 L 174.4 108.6 C 174.4 107.4 173.4 105.6 171.5 105.6 C 168.7 105.6 167.2 109.6 163.9 109.6 C 161.8 109.6 160.1 107.6 160.1 104.6 L 161.0 104.6 " fill="#000000"></path><path d="M 182.6 100.1 L 187.5 100.1 L 187.5 101.0 L 186.1 101.2 L 185.7 101.6 L 185.7 113.0 L 194.4 100.1 L 195.8 100.1 L 195.8 113.8 L 196.3 114.2 L 197.6 114.4 L 197.6 115.3 L 192.8 115.3 L 192.8 114.4 L 194.2 114.2 L 194.6 113.8 L 194.6 103.1 L 186.9 114.7 L 186.9 115.3 L 182.6 115.3 L 182.6 114.4 L 184.1 114.3 L 184.5 114.0 L 184.5 101.6 L 184.1 101.2 L 182.6 101.0 L 182.6 100.1 " fill="#000000"></path><path d="M 204.8 111.2 C 201.8 111.2 199.6 108.9 199.6 105.5 C 199.6 102.2 201.8 99.9 204.8 99.9 C 207.9 99.9 210.1 102.2 210.1 105.5 C 210.1 108.9 207.9 111.2 204.8 111.2 Z M 204.8 110.3 C 206.7 110.3 208.0 108.5 208.0 105.5 C 208.0 102.6 206.7 100.8 204.8 100.8 C 203.0 100.8 201.7 102.6 201.7 105.5 C 201.7 108.5 203.0 110.3 204.8 110.3 " fill="#000000"></path><path d="M 211.7 100.1 L 217.2 100.1 L 217.2 100.9 L 215.6 101.0 L 215.2 101.4 L 215.2 107.9 C 216.1 109.0 216.9 109.5 217.7 109.5 C 218.1 109.5 218.5 109.3 218.8 109.0 L 219.5 109.0 L 219.5 110.9 C 219.1 111.1 218.6 111.2 218.2 111.2 C 218.0 111.2 217.8 111.2 217.6 111.2 C 216.8 110.5 216.0 109.8 215.2 109.0 L 215.2 111.1 L 214.3 111.1 L 211.7 110.3 L 211.7 109.6 L 213.3 109.6 L 213.3 101.4 L 212.9 101.0 L 211.7 100.9 L 211.7 100.1 " fill="#000000"></path><path d="M 230.0 109.7 C 229.5 110.7 228.6 111.2 227.5 111.2 C 226.6 111.2 225.4 110.7 223.9 109.9 L 223.9 111.1 L 223.0 111.1 L 220.4 110.3 L 220.4 109.6 L 222.0 109.6 L 222.0 101.4 L 221.6 101.0 L 220.4 100.9 L 220.4 100.1 L 225.4 100.1 L 225.4 100.9 L 224.3 101.0 L 223.9 101.4 L 223.9 109.0 C 224.9 109.5 225.7 109.7 226.5 109.7 C 227.8 109.7 228.5 109.0 228.5 107.4 L 228.5 101.4 L 228.1 101.0 L 227.0 100.9 L 227.0 100.1 L 231.8 100.1 L 231.8 100.9 L 230.8 101.0 L 230.4 101.4 L 230.4 109.0 C 231.3 109.5 232.2 109.7 232.9 109.7 C 234.4 109.7 235.0 109.0 235.0 107.4 L 235.0 101.4 L 234.6 101.0 L 233.5 100.9 L 233.5 100.1 L 238.4 100.1 L 238.4 100.9 L 237.2 101.0 L 236.9 101.4 L 236.9 107.8 C 236.9 110.0 235.7 111.2 233.9 111.2 C 233.0 111.2 231.7 110.7 230.0 109.7 " fill="#000000"></path><path d="M 246.5 101.4 L 246.8 100.1 L 250.0 100.1 L 250.0 100.9 L 248.8 101.0 L 248.4 101.4 L 248.4 108.0 C 248.4 110.3 247.4 111.2 245.0 111.2 C 242.1 111.2 240.4 110.1 240.4 108.7 C 240.4 108.1 240.6 108.0 241.1 108.0 L 242.7 108.0 L 242.7 109.9 C 243.3 110.1 243.8 110.2 244.4 110.2 C 246.0 110.2 246.5 109.5 246.5 107.7 L 246.5 107.0 C 241.9 105.9 239.8 105.2 239.8 102.8 C 239.8 101.1 241.0 99.9 242.7 99.9 C 243.8 99.9 245.0 100.4 246.5 101.4 Z M 246.5 102.2 C 245.3 101.5 244.4 101.1 243.7 101.1 C 242.5 101.1 241.8 101.9 241.8 103.0 C 241.8 104.7 243.3 105.3 246.5 106.2 L 246.5 102.2 " fill="#000000"></path><path d="M 251.0 100.1 L 256.4 100.1 L 256.4 100.9 L 255.1 101.0 L 254.7 101.4 L 254.7 116.8 L 253.8 116.8 L 251.0 116.0 L 251.0 115.3 L 252.8 115.3 L 252.8 101.4 L 252.4 101.0 L 251.0 100.9 L 251.0 100.1 " fill="#000000"></path><path d="M 262.1 100.1 L 263.7 100.1 L 267.4 112.5 L 271.3 100.1 L 272.8 100.1 L 276.4 114.1 L 278.0 114.4 L 278.0 115.3 L 273.2 115.3 L 273.2 114.4 L 274.8 114.1 L 275.0 113.8 L 272.3 103.2 L 268.5 115.3 L 267.0 115.3 L 263.3 103.4 L 260.4 113.9 L 260.5 114.2 L 262.0 114.4 L 262.0 115.3 L 256.9 115.3 L 256.9 114.4 L 258.3 114.1 L 262.1 100.1 " fill="#000000"></path><path d="M 281.7 116.2 C 280.9 116.2 280.3 115.6 280.3 114.8 C 280.3 114.1 280.9 113.5 281.7 113.5 C 282.4 113.5 283.0 114.1 283.0 114.8 C 283.0 115.6 282.4 116.2 281.7 116.2 Z M 281.6 111.1 L 278.9 110.3 L 278.9 109.6 L 280.5 109.6 L 280.5 101.4 L 280.2 101.0 L 278.9 100.9 L 278.9 100.1 L 284.1 100.1 L 284.1 100.9 L 282.8 101.0 L 282.4 101.4 L 282.4 111.1 L 281.6 111.1 " fill="#000000"></path><path d="M 292.3 110.7 C 291.5 111.1 290.6 111.2 289.6 111.2 C 287.0 111.2 285.6 110.1 285.6 108.1 C 285.6 106.5 286.6 105.8 288.5 104.9 C 290.1 104.3 290.9 103.8 290.9 102.7 C 290.9 101.6 290.1 100.8 288.7 100.8 C 288.1 100.8 287.4 101.0 286.8 101.4 L 286.5 103.3 L 285.4 103.3 L 285.4 100.4 C 286.2 100.1 287.2 99.9 288.4 99.9 C 291.1 99.9 292.6 101.2 292.6 103.3 C 292.6 104.1 292.3 104.8 291.8 105.2 C 291.0 105.8 290.2 106.2 289.4 106.5 C 288.1 107.2 287.4 107.6 287.4 108.6 C 287.4 109.6 288.1 110.3 289.3 110.3 C 289.9 110.3 290.4 110.1 291.0 109.8 L 291.2 108.2 L 292.3 108.2 L 292.3 110.7 " fill="#000000"></path><path d="M 296.8 116.8 L 294.1 116.0 L 294.1 115.3 L 295.8 115.3 L 295.8 101.4 L 295.4 101.0 L 294.2 100.9 L 294.2 100.1 L 299.2 100.1 L 299.2 100.9 L 298.1 101.0 L 297.7 101.4 L 297.7 109.0 C 298.7 109.5 299.5 109.7 300.2 109.7 C 301.9 109.7 302.5 109.0 302.5 107.4 L 302.5 101.4 L 302.2 101.0 L 301.1 100.9 L 301.1 100.1 L 306.0 100.1 L 306.0 100.9 L 304.8 101.0 L 304.4 101.4 L 304.4 107.8 C 304.4 110.1 303.4 111.2 301.4 111.2 C 300.4 111.2 299.2 110.7 297.7 109.9 L 297.7 116.8 L 296.8 116.8 " fill="#000000"></path><path d="M 314.0 101.4 L 314.3 100.1 L 317.5 100.1 L 317.5 100.9 L 316.3 101.0 L 315.9 101.4 L 315.9 108.0 C 315.9 110.3 314.9 111.2 312.5 111.2 C 309.6 111.2 307.9 110.1 307.9 108.7 C 307.9 108.1 308.1 108.0 308.6 108.0 L 310.2 108.0 L 310.2 109.9 C 310.8 110.1 311.3 110.2 311.9 110.2 C 313.6 110.2 314.0 109.5 314.0 107.7 L 314.0 107.0 C 309.5 105.9 307.4 105.2 307.4 102.8 C 307.4 101.1 308.5 99.9 310.3 99.9 C 311.4 99.9 312.6 100.4 314.0 101.4 Z M 314.0 102.2 C 312.9 101.5 311.9 101.1 311.2 101.1 C 310.1 101.1 309.4 101.9 309.4 103.0 C 309.4 104.7 310.8 105.3 314.0 106.2 L 314.0 102.2 " fill="#000000"></path><path d="M 318.7 100.1 L 324.2 100.1 L 324.2 100.9 L 322.6 101.0 L 322.2 101.4 L 322.2 107.9 C 323.1 109.0 323.9 109.5 324.7 109.5 C 325.1 109.5 325.5 109.3 325.8 109.0 L 326.6 109.0 L 326.6 110.9 C 326.1 111.1 325.7 111.2 325.2 111.2 C 325.0 111.2 324.8 111.2 324.6 111.2 C 323.8 110.5 323.0 109.8 322.2 109.0 L 322.2 111.1 L 321.3 111.1 L 318.7 110.3 L 318.7 109.6 L 320.3 109.6 L 320.3 101.4 L 319.9 101.0 L 318.7 100.9 L 318.7 100.1 " fill="#000000"></path><path d="M 328.6 109.6 L 328.6 102.3 C 328.6 100.7 329.1 100.0 331.0 100.0 C 331.9 100.0 332.9 100.2 334.0 100.5 L 334.0 101.3 C 333.5 101.2 332.9 101.2 332.4 101.2 C 330.8 101.2 330.5 101.9 330.5 103.6 L 330.5 109.6 L 334.0 109.6 L 334.0 110.7 L 330.5 110.7 L 330.5 113.1 L 329.7 113.1 L 328.7 111.0 L 327.2 110.4 L 327.2 109.6 L 328.6 109.6 " fill="#000000"></path><path d="M 337.5 106.6 C 337.5 112.8 339.3 115.9 341.9 116.4 L 341.9 117.4 C 338.2 117.0 335.6 113.5 335.6 106.6 C 335.6 99.8 338.2 96.3 341.9 95.8 L 341.9 96.8 C 339.3 97.3 337.5 100.4 337.5 106.6 " fill="#000000"></path><path d="M 354.2 101.1 L 356.7 116.8 L 355.5 116.8 L 351.8 101.1 C 350.2 101.4 349.4 102.3 349.4 103.6 C 349.4 103.9 349.4 104.1 349.5 104.4 C 349.7 105.5 350.1 106.6 350.3 107.7 C 350.4 107.9 350.4 108.1 350.4 108.4 C 350.4 110.1 348.9 111.3 346.9 111.3 C 345.0 111.3 344.0 109.0 343.6 106.8 L 344.7 106.8 C 345.1 108.3 345.3 110.1 346.7 110.1 C 347.3 110.1 347.6 109.5 347.6 108.7 C 347.6 108.5 347.6 108.4 347.6 108.1 C 347.4 107.0 346.9 105.9 346.7 104.7 C 346.6 104.5 346.6 104.2 346.6 103.9 C 346.6 101.7 348.4 100.1 351.5 99.9 L 350.4 95.1 L 353.3 95.1 L 354.1 100.0 C 357.1 100.5 359.8 102.7 360.4 105.7 C 360.6 106.7 360.7 107.7 360.7 108.6 C 360.7 110.1 360.3 111.3 358.9 111.3 C 358.4 111.3 357.9 110.9 357.8 110.4 C 357.8 110.2 357.8 110.1 357.8 109.9 C 357.8 108.4 359.2 107.3 359.2 105.7 C 359.2 105.5 359.2 105.2 359.2 105.0 C 358.7 103.0 356.6 101.5 354.2 101.1 " fill="#000000"></path><path d="M 368.9 106.6 C 368.9 100.4 367.0 97.3 364.4 96.8 L 364.4 95.8 C 368.2 96.3 370.8 99.8 370.8 106.6 C 370.8 113.5 368.2 117.0 364.4 117.4 L 364.4 116.4 C 367.0 115.9 368.9 112.8 368.9 106.6 " fill="#000000"></path><path d="M 498.9 100.1 L 504.1 100.1 L 504.1 100.9 L 502.7 101.0 L 502.4 101.4 L 502.4 109.6 L 505.5 109.6 L 505.5 110.7 L 502.4 110.7 L 502.4 112.4 C 502.4 114.3 502.9 115.5 503.9 115.9 L 505.9 114.5 C 506.5 114.7 506.9 115.1 506.9 115.7 C 506.9 116.4 506.1 117.0 505.1 117.0 C 502.4 117.0 500.5 114.7 500.5 111.0 C 500.5 110.9 500.5 110.8 500.5 110.7 L 499.0 110.4 L 499.0 109.6 L 500.5 109.6 L 500.5 101.4 L 500.1 101.0 L 498.9 100.9 L 498.9 100.1 " fill="#000000"></path><path d="M 511.6 111.2 C 508.5 111.2 506.3 108.9 506.3 105.5 C 506.3 102.2 508.6 99.9 511.6 99.9 C 514.6 99.9 516.9 102.2 516.9 105.5 C 516.9 108.9 514.7 111.2 511.6 111.2 Z M 511.6 110.3 C 513.4 110.3 514.8 108.5 514.8 105.5 C 514.8 102.6 513.4 100.8 511.6 100.8 C 509.8 100.8 508.5 102.6 508.5 105.5 C 508.5 108.5 509.8 110.3 511.6 110.3 " fill="#000000"></path><path d="M 518.4 100.1 L 523.9 100.1 L 523.9 100.9 L 522.3 101.0 L 521.9 101.4 L 521.9 107.9 C 522.9 109.0 523.7 109.5 524.4 109.5 C 524.9 109.5 525.3 109.3 525.6 109.0 L 526.3 109.0 L 526.3 110.9 C 525.8 111.1 525.4 111.2 524.9 111.2 C 524.8 111.2 524.6 111.2 524.4 111.2 C 523.6 110.5 522.7 109.8 521.9 109.0 L 521.9 111.1 L 521.1 111.1 L 518.4 110.3 L 518.4 109.6 L 520.0 109.6 L 520.0 101.4 L 519.6 101.0 L 518.4 100.9 L 518.4 100.1 " fill="#000000"></path><path d="M 538.5 116.8 L 534.9 116.1 L 534.9 115.5 L 537.0 115.4 L 533.9 100.1 L 535.8 100.1 L 536.6 104.4 L 537.8 105.6 L 539.8 101.7 C 540.4 100.5 541.0 100.0 541.9 100.0 C 542.3 100.0 543.3 100.1 544.6 100.6 L 544.6 101.2 C 544.1 101.1 543.7 101.0 543.4 101.0 C 541.8 101.0 540.9 103.0 539.2 106.9 C 540.2 107.8 541.2 108.6 542.1 109.3 L 542.9 108.4 C 543.8 108.8 544.2 109.3 544.2 109.9 C 544.2 110.5 543.6 111.0 542.9 111.0 C 542.3 111.0 541.7 110.6 540.9 109.8 L 536.7 105.5 L 539.1 116.8 L 538.5 116.8 " fill="#000000"></path><path d="M 552.2 108.4 L 567.5 108.4 L 567.5 109.8 L 552.2 109.8 L 552.2 108.4 Z M 552.2 103.5 L 567.5 103.5 L 567.5 104.8 L 552.2 104.8 L 552.2 103.5 " fill="#000000"></path><path d="M 581.2 115.6 L 576.3 114.1 L 576.3 113.2 L 579.8 113.8 L 579.8 101.6 L 579.5 101.2 L 576.9 101.0 L 576.9 100.1 L 584.6 100.1 L 584.6 101.0 L 582.1 101.1 L 581.8 101.5 L 581.8 115.6 L 581.2 115.6 " fill="#000000"></path><path d="M 587.6 96.2 C 589.9 96.5 591.5 98.3 591.5 100.2 C 591.5 101.7 590.8 102.5 589.7 102.5 C 588.9 102.5 588.3 102.0 588.3 101.2 C 588.3 100.8 588.5 100.5 588.7 100.2 L 590.2 100.2 C 590.2 100.1 590.2 100.1 590.2 100.0 C 590.2 98.3 589.3 97.3 587.6 97.0 L 587.6 96.2 " fill="#000000"></path><path d="M 599.5 101.9 C 604.5 105.9 607.3 108.4 607.3 111.3 C 607.3 113.9 605.5 115.6 602.5 115.6 C 599.7 115.6 597.7 114.0 597.7 112.4 C 597.7 111.6 598.2 111.1 599.0 111.1 C 599.3 111.1 599.7 111.2 600.0 111.5 L 600.0 113.9 C 600.7 114.3 601.4 114.4 602.0 114.4 C 603.9 114.4 605.1 113.2 605.1 111.0 C 605.1 108.0 602.2 105.5 597.2 101.5 L 597.2 100.1 L 607.8 100.1 L 607.8 103.8 L 606.7 103.8 L 606.3 101.9 L 599.5 101.9 " fill="#000000"></path><path d="M 609.8 96.2 C 612.1 96.5 613.6 98.3 613.6 100.2 C 613.6 101.7 613.0 102.5 611.8 102.5 C 611.1 102.5 610.5 102.0 610.5 101.2 C 610.5 100.8 610.6 100.5 610.9 100.2 L 612.3 100.2 C 612.3 100.1 612.3 100.1 612.3 100.0 C 612.3 98.3 611.5 97.3 609.8 97.0 L 609.8 96.2 " fill="#000000"></path><path d="M 625.6 108.1 C 627.9 108.7 629.0 110.0 629.0 111.8 C 629.0 114.1 627.3 115.6 624.6 115.6 C 621.7 115.6 619.8 114.1 619.8 112.6 C 619.8 111.8 620.3 111.3 621.0 111.3 C 621.3 111.3 621.6 111.4 621.9 111.6 L 621.9 113.8 C 622.6 114.2 623.3 114.4 624.1 114.4 C 625.8 114.4 627.0 113.3 627.0 111.5 C 627.0 109.6 625.7 108.5 623.4 108.5 C 623.3 108.5 623.1 108.6 623.0 108.6 L 623.0 107.2 C 623.4 107.3 623.8 107.3 624.2 107.3 C 626.4 107.3 627.5 106.3 627.5 104.5 C 627.5 102.4 626.0 100.9 624.0 100.9 C 623.3 100.9 622.7 101.1 622.0 101.4 L 621.3 103.4 C 621.1 103.5 620.9 103.5 620.7 103.5 C 619.9 103.5 619.4 103.0 619.4 102.3 C 619.4 101.2 621.2 99.8 623.9 99.8 C 627.4 99.8 629.6 101.9 629.6 104.4 C 629.6 106.5 628.2 107.9 625.6 108.1 " fill="#000000"></path><path d="M 138.1 75.6 L 137.7 74.5 C 137.4 74.4 137.2 74.3 137.0 74.3 C 136.5 74.3 136.1 74.5 135.5 74.8 C 134.8 75.1 134.3 75.4 133.6 75.4 C 132.0 75.4 130.5 73.8 130.5 72.3 C 130.5 71.4 131.0 70.9 131.6 70.9 C 132.1 70.9 132.4 71.1 132.7 71.6 L 131.5 73.1 C 131.8 73.6 132.3 73.8 132.9 73.8 C 133.4 73.8 134.1 73.6 134.9 73.1 L 137.1 73.7 L 129.3 64.9 L 130.6 64.2 L 131.1 65.2 C 131.4 65.3 131.6 65.4 131.9 65.4 C 132.9 65.4 134.1 64.4 135.4 64.4 C 137.1 64.4 138.6 66.0 138.6 67.6 C 138.6 68.4 138.1 68.9 137.4 68.9 C 137.1 68.9 136.7 68.7 136.4 68.1 L 137.6 66.7 C 137.2 66.2 136.8 65.9 136.2 65.9 C 135.8 65.9 135.0 66.2 133.9 66.7 L 131.7 66.1 L 139.5 74.9 L 138.1 75.6 " fill="#52A700"></path><path d="M 146.3 67.0 L 143.9 66.5 L 143.9 66.1 L 145.2 65.8 L 143.9 59.3 L 145.3 59.3 L 146.3 64.7 C 147.2 65.6 148.1 66.0 148.6 66.0 C 149.2 66.0 149.5 65.7 149.5 65.0 C 149.5 64.8 149.4 64.4 149.3 64.0 L 148.6 61.0 C 148.6 60.7 148.5 60.4 148.5 60.2 C 148.5 59.5 148.9 59.2 149.7 59.2 C 150.1 59.2 150.7 59.4 151.6 59.7 L 151.6 60.1 C 151.2 60.1 150.9 60.0 150.7 60.0 C 150.2 60.0 149.9 60.3 149.9 60.8 C 149.9 61.0 150.0 61.4 150.1 61.8 L 150.6 64.3 C 150.7 64.9 150.8 65.3 150.8 65.7 C 150.8 66.5 150.3 67.0 149.5 67.0 C 148.6 67.0 147.7 66.5 146.4 65.5 L 146.7 67.0 L 146.3 67.0 " fill="#000000"></path><path d="M 161.0 69.0 C 161.0 70.2 162.0 72.0 163.9 72.0 C 166.7 72.0 168.2 68.0 171.5 68.0 C 173.6 68.0 175.3 70.0 175.3 73.0 L 174.4 73.0 C 174.4 71.8 173.4 70.0 171.5 70.0 C 168.7 70.0 167.2 74.0 163.9 74.0 C 161.8 74.0 160.1 72.0 160.1 69.0 L 161.0 69.0 " fill="#000000"></path><path d="M 188.4 79.7 L 182.7 79.7 L 182.7 78.8 L 184.1 78.6 L 184.4 78.3 L 184.4 65.8 L 184.1 65.5 L 182.7 65.4 L 182.7 64.5 L 188.4 64.5 C 190.6 64.5 192.4 64.7 193.9 65.9 C 195.8 67.3 196.7 69.4 196.7 72.1 C 196.7 76.9 193.8 79.7 188.4 79.7 Z M 186.5 78.6 L 188.3 78.6 C 192.4 78.6 194.5 76.5 194.5 72.1 C 194.5 67.7 192.4 65.5 188.3 65.5 L 186.5 65.5 L 186.5 78.6 " fill="#000000"></path><path d="M 201.3 80.5 C 200.5 80.5 200.0 80.0 200.0 79.2 C 200.0 78.5 200.5 77.9 201.3 77.9 C 202.0 77.9 202.6 78.5 202.6 79.2 C 202.6 80.0 202.0 80.5 201.3 80.5 Z M 201.2 75.5 L 198.6 74.7 L 198.6 74.0 L 200.2 74.0 L 200.2 65.7 L 199.8 65.4 L 198.6 65.3 L 198.6 64.5 L 203.7 64.5 L 203.7 65.3 L 202.5 65.4 L 202.0 65.7 L 202.0 75.5 L 201.2 75.5 " fill="#000000"></path><path d="M 212.0 75.1 C 211.2 75.4 210.3 75.6 209.3 75.6 C 206.7 75.6 205.3 74.4 205.3 72.4 C 205.3 70.9 206.3 70.2 208.2 69.3 C 209.7 68.6 210.5 68.2 210.5 67.0 C 210.5 66.0 209.7 65.2 208.4 65.2 C 207.8 65.2 207.1 65.4 206.5 65.7 L 206.2 67.7 L 205.1 67.7 L 205.1 64.7 C 205.9 64.4 206.9 64.2 208.1 64.2 C 210.7 64.2 212.3 65.5 212.3 67.7 C 212.3 68.5 212.0 69.2 211.5 69.6 C 210.7 70.2 209.8 70.5 209.0 70.9 C 207.8 71.5 207.1 72.0 207.1 73.0 C 207.1 74.0 207.8 74.6 209.0 74.6 C 209.5 74.6 210.1 74.5 210.7 74.2 L 210.9 72.5 L 212.0 72.5 L 212.0 75.1 " fill="#000000"></path><path d="M 222.9 65.4 L 222.9 66.6 C 221.9 66.0 221.0 65.6 220.0 65.6 C 217.6 65.6 216.1 67.3 216.1 70.1 C 216.1 72.9 217.5 74.7 219.5 74.7 C 219.9 74.7 220.2 74.6 220.6 74.4 L 220.6 72.5 C 220.9 72.3 221.3 72.2 221.6 72.2 C 222.4 72.2 222.9 72.6 222.9 73.4 C 222.9 74.7 221.6 75.6 219.5 75.6 C 216.3 75.6 214.1 73.3 214.1 69.9 C 214.1 66.6 216.1 64.3 219.2 64.3 C 220.4 64.3 221.6 64.7 222.9 65.4 " fill="#000000"></path><path d="M 224.1 64.5 L 229.6 64.5 L 229.6 65.3 L 228.0 65.4 L 227.6 65.7 L 227.6 72.3 C 228.5 73.3 229.3 73.9 230.1 73.9 C 230.5 73.9 230.9 73.7 231.2 73.4 L 232.0 73.4 L 232.0 75.3 C 231.5 75.5 231.1 75.6 230.6 75.6 C 230.4 75.6 230.2 75.6 230.0 75.6 C 229.2 74.9 228.4 74.2 227.6 73.4 L 227.6 75.5 L 226.7 75.5 L 224.1 74.7 L 224.1 74.0 L 225.7 74.0 L 225.7 65.7 L 225.3 65.4 L 224.1 65.3 L 224.1 64.5 " fill="#000000"></path><path d="M 242.2 66.9 C 240.9 66.0 239.8 65.5 238.7 65.5 C 236.4 65.5 234.8 67.3 234.8 70.2 C 234.8 70.3 234.8 70.3 234.8 70.4 L 242.2 70.4 C 242.2 70.7 242.2 70.9 242.2 71.1 C 242.2 73.9 240.6 75.6 238.1 75.6 C 235.1 75.6 232.9 73.3 232.9 69.8 C 232.9 66.5 235.0 64.2 238.0 64.2 C 239.4 64.2 240.9 64.7 242.2 65.6 L 242.2 66.9 Z M 240.2 71.4 L 235.0 71.4 C 235.1 73.3 236.4 74.6 237.8 74.6 C 239.4 74.6 240.2 73.6 240.2 71.7 C 240.2 71.6 240.2 71.5 240.2 71.4 " fill="#000000"></path><path d="M 245.3 74.0 L 245.3 66.7 C 245.3 65.1 245.8 64.4 247.6 64.4 C 248.5 64.4 249.6 64.5 250.6 64.9 L 250.6 65.7 C 250.1 65.6 249.6 65.5 249.0 65.5 C 247.5 65.5 247.2 66.3 247.2 68.0 L 247.2 74.0 L 250.6 74.0 L 250.6 75.1 L 247.2 75.1 L 247.2 77.5 L 246.3 77.5 L 245.3 75.4 L 243.8 74.7 L 243.8 74.0 L 245.3 74.0 " fill="#000000"></path><path d="M 261.0 66.9 C 259.8 66.0 258.6 65.5 257.5 65.5 C 255.2 65.5 253.7 67.3 253.7 70.2 C 253.7 70.3 253.7 70.3 253.7 70.4 L 261.0 70.4 C 261.0 70.7 261.0 70.9 261.0 71.1 C 261.0 73.9 259.4 75.6 256.9 75.6 C 253.9 75.6 251.7 73.3 251.7 69.8 C 251.7 66.5 253.8 64.2 256.8 64.2 C 258.2 64.2 259.7 64.7 261.0 65.6 L 261.0 66.9 Z M 259.0 71.4 L 253.8 71.4 C 253.9 73.3 255.2 74.6 256.7 74.6 C 258.2 74.6 259.0 73.6 259.0 71.7 C 259.0 71.6 259.0 71.5 259.0 71.4 " fill="#000000"></path><path d="M 265.2 71.0 C 265.2 77.2 267.0 80.3 269.7 80.8 L 269.7 81.8 C 265.9 81.4 263.3 77.9 263.3 71.0 C 263.3 64.1 265.9 60.6 269.7 60.2 L 269.7 61.2 C 267.0 61.7 265.2 64.8 265.2 71.0 " fill="#000000"></path><path d="M 276.0 73.2 L 276.6 73.2 C 276.5 72.2 276.4 71.1 276.2 70.1 C 275.9 68.8 275.1 67.6 273.9 66.8 C 273.4 66.5 273.2 66.0 273.2 65.5 C 273.2 64.8 273.7 64.2 274.7 64.2 C 275.4 64.2 276.0 64.8 276.2 65.6 L 278.2 73.2 L 281.6 73.2 L 281.1 70.1 C 281.0 69.0 280.8 67.9 280.8 66.9 C 280.8 65.4 281.2 64.2 282.7 64.2 C 284.2 64.2 285.1 66.0 285.5 67.8 L 284.4 68.1 C 284.3 67.4 283.8 66.7 283.1 66.7 C 282.3 66.7 282.1 67.3 282.1 68.2 C 282.1 68.7 282.2 69.4 282.3 70.1 L 283.1 73.2 L 285.6 73.2 L 286.1 75.7 L 276.5 75.7 C 275.1 75.7 273.8 73.2 272.8 71.3 C 272.8 71.2 272.7 71.1 272.7 71.0 C 272.7 70.7 273.0 70.5 273.3 70.5 C 273.5 70.5 273.7 70.6 273.9 70.9 C 274.5 71.9 275.0 73.2 276.0 73.2 " fill="#000000"></path><path d="M 293.0 71.0 C 293.0 64.8 291.2 61.7 288.6 61.2 L 288.6 60.2 C 292.3 60.6 294.9 64.1 294.9 71.0 C 294.9 77.9 292.3 81.4 288.6 81.8 L 288.6 80.8 C 291.2 80.3 293.0 77.2 293.0 71.0 " fill="#000000"></path><path d="M 130.6 40.1 L 127.1 39.3 L 127.1 38.6 L 129.1 38.4 C 129.3 37.9 129.5 37.3 129.6 36.7 L 131.0 29.5 L 131.9 29.5 C 130.7 27.1 129.5 25.9 128.5 25.8 L 127.0 27.3 C 126.1 27.1 125.6 26.5 125.6 25.7 C 125.6 24.8 126.5 24.0 127.6 24.0 C 129.4 24.0 131.3 25.8 133.3 29.4 C 135.0 32.5 136.0 35.8 137.7 38.2 L 139.1 38.9 L 139.1 39.5 L 137.3 40.1 L 136.6 40.1 C 135.2 36.8 134.0 34.0 133.1 31.7 L 132.3 36.6 C 132.0 38.8 131.6 40.0 130.6 40.1 " fill="#B30000"></path><path d="M 146.3 31.4 L 143.9 30.9 L 143.9 30.5 L 145.2 30.3 L 143.9 23.8 L 145.3 23.8 L 146.3 29.1 C 147.2 30.0 148.1 30.5 148.6 30.5 C 149.2 30.5 149.5 30.2 149.5 29.4 C 149.5 29.2 149.4 28.9 149.3 28.4 L 148.6 25.5 C 148.6 25.1 148.5 24.8 148.5 24.6 C 148.5 24.0 148.9 23.7 149.7 23.7 C 150.1 23.7 150.7 23.8 151.6 24.2 L 151.6 24.6 C 151.2 24.5 150.9 24.5 150.7 24.5 C 150.2 24.5 149.9 24.7 149.9 25.2 C 149.9 25.5 150.0 25.8 150.1 26.3 L 150.6 28.7 C 150.7 29.3 150.8 29.8 150.8 30.2 C 150.8 30.9 150.3 31.4 149.5 31.4 C 148.6 31.4 147.7 30.9 146.4 29.9 L 146.7 31.4 L 146.3 31.4 " fill="#000000"></path><path d="M 161.0 33.4 C 161.0 34.6 162.0 36.5 163.9 36.5 C 166.7 36.5 168.2 32.5 171.5 32.5 C 173.6 32.5 175.3 34.5 175.3 37.4 L 174.4 37.4 C 174.4 36.2 173.4 34.4 171.5 34.4 C 168.7 34.4 167.2 38.4 163.9 38.4 C 161.8 38.4 160.1 36.5 160.1 33.4 L 161.0 33.4 " fill="#000000"></path><path d="M 182.6 28.9 L 187.5 28.9 L 187.5 29.8 L 186.1 30.0 L 185.7 30.5 L 185.7 41.8 L 194.4 28.9 L 195.8 28.9 L 195.8 42.6 L 196.3 43.0 L 197.6 43.2 L 197.6 44.2 L 192.8 44.2 L 192.8 43.2 L 194.2 43.0 L 194.6 42.6 L 194.6 31.9 L 186.9 43.6 L 186.9 44.2 L 182.6 44.2 L 182.6 43.2 L 184.1 43.1 L 184.5 42.8 L 184.5 30.5 L 184.1 30.0 L 182.6 29.8 L 182.6 28.9 " fill="#000000"></path><path d="M 204.8 40.1 C 201.8 40.1 199.6 37.8 199.6 34.4 C 199.6 31.0 201.8 28.7 204.8 28.7 C 207.9 28.7 210.1 31.0 210.1 34.4 C 210.1 37.7 207.9 40.1 204.8 40.1 Z M 204.8 39.1 C 206.7 39.1 208.0 37.3 208.0 34.4 C 208.0 31.4 206.7 29.7 204.8 29.7 C 203.0 29.7 201.7 31.4 201.7 34.4 C 201.7 37.3 203.0 39.1 204.8 39.1 " fill="#000000"></path><path d="M 211.7 28.9 L 217.2 28.9 L 217.2 29.7 L 215.6 29.8 L 215.2 30.2 L 215.2 36.7 C 216.1 37.8 216.9 38.4 217.7 38.4 C 218.1 38.4 218.5 38.2 218.8 37.8 L 219.5 37.8 L 219.5 39.8 C 219.1 40.0 218.6 40.1 218.2 40.1 C 218.0 40.1 217.8 40.1 217.6 40.0 C 216.8 39.4 216.0 38.6 215.2 37.8 L 215.2 40.0 L 214.3 40.0 L 211.7 39.1 L 211.7 38.4 L 213.3 38.4 L 213.3 30.2 L 212.9 29.8 L 211.7 29.7 L 211.7 28.9 " fill="#000000"></path><path d="M 230.0 38.5 C 229.5 39.5 228.6 40.1 227.5 40.1 C 226.6 40.1 225.4 39.6 223.9 38.7 L 223.9 40.0 L 223.0 40.0 L 220.4 39.1 L 220.4 38.4 L 222.0 38.4 L 222.0 30.2 L 221.6 29.8 L 220.4 29.7 L 220.4 28.9 L 225.4 28.9 L 225.4 29.7 L 224.3 29.8 L 223.9 30.2 L 223.9 37.8 C 224.9 38.3 225.7 38.6 226.5 38.6 C 227.8 38.6 228.5 37.8 228.5 36.2 L 228.5 30.2 L 228.1 29.8 L 227.0 29.7 L 227.0 28.9 L 231.8 28.9 L 231.8 29.7 L 230.8 29.8 L 230.4 30.2 L 230.4 37.8 C 231.3 38.3 232.2 38.6 232.9 38.6 C 234.4 38.6 235.0 37.8 235.0 36.2 L 235.0 30.2 L 234.6 29.8 L 233.5 29.7 L 233.5 28.9 L 238.4 28.9 L 238.4 29.7 L 237.2 29.8 L 236.9 30.2 L 236.9 36.6 C 236.9 38.8 235.7 40.1 233.9 40.1 C 233.0 40.1 231.7 39.5 230.0 38.5 " fill="#000000"></path><path d="M 246.5 30.2 L 246.8 28.9 L 250.0 28.9 L 250.0 29.7 L 248.8 29.8 L 248.4 30.2 L 248.4 36.8 C 248.4 39.1 247.4 40.1 245.0 40.1 C 242.1 40.1 240.4 38.9 240.4 37.5 C 240.4 36.9 240.6 36.8 241.1 36.8 L 242.7 36.8 L 242.7 38.7 C 243.3 38.9 243.8 39.1 244.4 39.1 C 246.0 39.1 246.5 38.3 246.5 36.5 L 246.5 35.8 C 241.9 34.7 239.8 34.0 239.8 31.7 C 239.8 29.9 241.0 28.7 242.7 28.7 C 243.8 28.7 245.0 29.2 246.5 30.2 Z M 246.5 31.0 C 245.3 30.3 244.4 30.0 243.7 30.0 C 242.5 30.0 241.8 30.7 241.8 31.8 C 241.8 33.5 243.3 34.1 246.5 35.0 L 246.5 31.0 " fill="#000000"></path><path d="M 251.0 28.9 L 256.4 28.9 L 256.4 29.7 L 255.1 29.8 L 254.7 30.2 L 254.7 45.6 L 253.8 45.6 L 251.0 44.8 L 251.0 44.1 L 252.8 44.1 L 252.8 30.2 L 252.4 29.8 L 251.0 29.7 L 251.0 28.9 " fill="#000000"></path><path d="M 260.1 35.4 C 260.1 41.7 261.9 44.8 264.5 45.2 L 264.5 46.3 C 260.7 45.8 258.2 42.3 258.2 35.4 C 258.2 28.6 260.7 25.1 264.5 24.6 L 264.5 25.7 C 261.9 26.1 260.1 29.2 260.1 35.4 " fill="#000000"></path><path d="M 280.3 40.1 L 279.3 35.0 C 279.1 33.8 278.8 32.5 278.8 31.4 C 278.8 30.5 279.0 29.8 279.7 29.8 C 281.1 29.8 281.4 31.3 281.8 33.0 L 283.0 33.0 C 282.5 30.6 281.6 28.6 279.5 28.6 C 278.0 28.6 277.2 29.5 277.2 30.9 C 277.2 31.2 277.2 31.4 277.2 31.7 C 276.1 29.6 274.3 28.6 271.9 28.6 C 270.0 28.6 268.5 29.9 268.3 31.8 C 268.3 31.7 268.3 31.5 268.3 31.4 C 268.3 29.7 269.4 26.3 268.8 25.0 C 268.5 24.4 268.0 24.1 267.4 24.1 C 266.9 24.1 266.4 24.5 266.4 25.1 C 266.4 25.2 266.4 25.3 266.4 25.4 L 269.3 40.1 L 272.1 40.1 L 271.1 35.0 C 270.9 33.9 270.8 33.0 270.8 32.3 C 270.8 30.7 271.3 29.8 272.2 29.8 C 274.3 29.8 275.8 31.7 276.4 35.0 L 277.4 40.1 L 280.3 40.1 " fill="#52A700"></path><path d="M 286.8 31.6 L 286.5 30.8 C 286.3 30.7 286.1 30.6 286.0 30.6 C 285.7 30.6 285.3 30.8 284.9 31.0 C 284.5 31.2 284.1 31.5 283.6 31.5 C 282.5 31.5 281.5 30.3 281.5 29.2 C 281.5 28.6 281.8 28.3 282.2 28.3 C 282.5 28.3 282.8 28.5 282.9 28.8 L 282.1 29.8 C 282.3 30.2 282.7 30.3 283.1 30.3 C 283.4 30.3 283.9 30.2 284.5 29.9 L 286.1 30.2 L 280.6 24.1 L 281.5 23.6 L 281.9 24.3 C 282.0 24.4 282.2 24.4 282.4 24.4 C 283.1 24.4 284.0 23.7 284.9 23.7 C 286.0 23.7 287.1 24.9 287.1 26.0 C 287.1 26.5 286.7 26.9 286.3 26.9 C 286.0 26.9 285.8 26.7 285.5 26.4 L 286.4 25.4 C 286.2 25.0 285.8 24.8 285.4 24.8 C 285.1 24.8 284.6 25.0 283.8 25.3 L 282.3 24.9 L 287.7 31.1 L 286.8 31.6 " fill="#52A700"></path><path d="M 290.9 25.7 L 289.2 25.3 L 289.2 25.0 L 290.2 24.8 L 289.2 20.2 L 290.2 20.2 L 290.9 24.0 C 291.6 24.7 292.2 25.0 292.6 25.0 C 293.0 25.0 293.2 24.7 293.2 24.3 C 293.2 24.1 293.2 23.9 293.1 23.5 L 292.6 21.4 C 292.5 21.2 292.5 21.0 292.5 20.8 C 292.5 20.4 292.8 20.1 293.3 20.1 C 293.7 20.1 294.1 20.3 294.7 20.5 L 294.7 20.8 C 294.4 20.7 294.2 20.7 294.1 20.7 C 293.7 20.7 293.5 20.9 293.5 21.2 C 293.5 21.4 293.5 21.7 293.6 22.0 L 294.0 23.8 C 294.1 24.2 294.2 24.5 294.2 24.8 C 294.2 25.3 293.8 25.7 293.2 25.7 C 292.6 25.7 291.9 25.3 291.0 24.6 L 291.2 25.7 L 290.9 25.7 " fill="#000000"></path><path d="M 298.4 25.1 C 300.7 25.3 302.3 27.1 302.3 29.0 C 302.3 30.5 301.6 31.3 300.5 31.3 C 299.7 31.3 299.1 30.8 299.1 30.1 C 299.1 29.7 299.2 29.3 299.5 29.1 L 300.9 29.1 C 300.9 29.0 300.9 28.9 300.9 28.8 C 300.9 27.1 300.1 26.1 298.4 25.8 L 298.4 25.1 " fill="#000000"></path><path d="M 308.3 44.2 L 308.3 43.1 L 314.4 36.2 L 308.3 28.9 L 322.3 28.9 L 322.3 34.6 L 321.0 34.6 L 320.5 31.3 L 319.8 30.5 L 312.0 30.5 L 317.5 37.3 L 312.4 43.1 L 312.4 42.9 L 319.8 42.9 L 320.5 42.2 L 321.0 38.8 L 322.3 38.8 L 322.3 44.2 L 308.3 44.2 " fill="#52A700"></path><path d="M 329.7 31.6 L 329.4 30.8 C 329.2 30.7 329.0 30.6 328.9 30.6 C 328.6 30.6 328.2 30.8 327.8 31.0 C 327.4 31.2 327.0 31.5 326.5 31.5 C 325.4 31.5 324.4 30.3 324.4 29.2 C 324.4 28.6 324.7 28.3 325.1 28.3 C 325.4 28.3 325.7 28.5 325.9 28.8 L 325.0 29.8 C 325.3 30.2 325.6 30.3 326.0 30.3 C 326.3 30.3 326.8 30.2 327.4 29.9 L 329.0 30.2 L 323.5 24.1 L 324.4 23.6 L 324.8 24.3 C 324.9 24.4 325.1 24.4 325.3 24.4 C 326.1 24.4 326.9 23.7 327.8 23.7 C 328.9 23.7 330.0 24.9 330.0 26.0 C 330.0 26.5 329.6 26.9 329.2 26.9 C 328.9 26.9 328.7 26.7 328.4 26.4 L 329.3 25.4 C 329.1 25.0 328.7 24.8 328.3 24.8 C 328.0 24.8 327.5 25.0 326.7 25.3 L 325.2 24.9 L 330.6 31.1 L 329.7 31.6 " fill="#52A700"></path><path d="M 333.9 25.7 L 332.2 25.3 L 332.2 25.0 L 333.2 24.8 L 332.2 20.2 L 333.2 20.2 L 333.9 24.0 C 334.6 24.7 335.2 25.0 335.6 25.0 C 336.0 25.0 336.2 24.7 336.2 24.3 C 336.2 24.1 336.2 23.9 336.1 23.5 L 335.6 21.4 C 335.5 21.2 335.5 21.0 335.5 20.8 C 335.5 20.4 335.8 20.1 336.3 20.1 C 336.6 20.1 337.1 20.3 337.7 20.5 L 337.7 20.8 C 337.4 20.7 337.2 20.7 337.1 20.7 C 336.7 20.7 336.5 20.9 336.5 21.2 C 336.5 21.4 336.5 21.7 336.6 22.0 L 337.0 23.8 C 337.1 24.2 337.1 24.5 337.1 24.8 C 337.1 25.3 336.8 25.7 336.2 25.7 C 335.6 25.7 334.9 25.3 334.0 24.6 L 334.2 25.7 L 333.9 25.7 " fill="#000000"></path><path d="M 346.2 35.4 C 346.2 29.2 344.4 26.1 341.8 25.7 L 341.8 24.6 C 345.6 25.1 348.2 28.6 348.2 35.4 C 348.2 42.3 345.6 45.8 341.8 46.3 L 341.8 45.2 C 344.4 44.8 346.2 41.7 346.2 35.4 " fill="#000000"></path><path d="M 498.9 28.9 L 504.1 28.9 L 504.1 29.7 L 502.7 29.8 L 502.4 30.2 L 502.4 38.5 L 505.5 38.5 L 505.5 39.5 L 502.4 39.5 L 502.4 41.2 C 502.4 43.1 502.9 44.3 503.9 44.7 L 505.9 43.4 C 506.5 43.5 506.9 44.0 506.9 44.5 C 506.9 45.2 506.1 45.8 505.1 45.8 C 502.4 45.8 500.5 43.6 500.5 39.8 C 500.5 39.7 500.5 39.6 500.5 39.5 L 499.0 39.2 L 499.0 38.5 L 500.5 38.5 L 500.5 30.2 L 500.1 29.8 L 498.9 29.7 L 498.9 28.9 " fill="#000000"></path><path d="M 511.6 40.1 C 508.5 40.1 506.3 37.8 506.3 34.4 C 506.3 31.0 508.6 28.7 511.6 28.7 C 514.6 28.7 516.9 31.0 516.9 34.4 C 516.9 37.7 514.7 40.1 511.6 40.1 Z M 511.6 39.1 C 513.4 39.1 514.8 37.3 514.8 34.4 C 514.8 31.4 513.4 29.7 511.6 29.7 C 509.8 29.7 508.5 31.4 508.5 34.4 C 508.5 37.3 509.8 39.1 511.6 39.1 " fill="#000000"></path><path d="M 518.4 28.9 L 523.9 28.9 L 523.9 29.7 L 522.3 29.8 L 521.9 30.2 L 521.9 36.7 C 522.9 37.8 523.7 38.4 524.4 38.4 C 524.9 38.4 525.3 38.2 525.6 37.8 L 526.3 37.8 L 526.3 39.8 C 525.8 40.0 525.4 40.1 524.9 40.1 C 524.8 40.1 524.6 40.1 524.4 40.0 C 523.6 39.4 522.7 38.6 521.9 37.8 L 521.9 40.0 L 521.1 40.0 L 518.4 39.1 L 518.4 38.4 L 520.0 38.4 L 520.0 30.2 L 519.6 29.8 L 518.4 29.7 L 518.4 28.9 " fill="#000000"></path><path d="M 537.5 39.9 L 534.1 39.1 L 534.1 38.5 L 536.0 38.2 L 534.1 28.9 L 536.0 28.9 L 537.5 36.6 C 538.8 37.9 540.0 38.5 540.8 38.5 C 541.7 38.5 542.0 38.0 542.0 37.0 C 542.0 36.7 542.0 36.2 541.8 35.6 L 540.9 31.4 C 540.7 30.8 540.7 30.4 540.7 30.1 C 540.7 29.2 541.2 28.8 542.3 28.8 C 543.0 28.8 543.9 29.0 545.1 29.4 L 545.1 30.1 C 544.5 29.9 544.1 29.9 543.8 29.9 C 543.1 29.9 542.6 30.3 542.6 31.0 C 542.6 31.3 542.7 31.8 542.9 32.5 L 543.6 36.0 C 543.8 36.8 544.0 37.5 544.0 38.0 C 544.0 39.1 543.2 39.9 542.1 39.9 C 540.9 39.9 539.5 39.1 537.6 37.7 L 538.1 39.9 L 537.5 39.9 " fill="#000000"></path><path d="M 552.6 37.2 L 567.8 37.2 L 567.8 38.6 L 552.6 38.6 L 552.6 37.2 Z M 552.6 32.3 L 567.8 32.3 L 567.8 33.7 L 552.6 33.7 L 552.6 32.3 " fill="#000000"></path><path d="M 581.6 44.4 L 576.6 42.9 L 576.6 42.0 L 580.2 42.6 L 580.2 30.4 L 579.9 30.0 L 577.3 29.9 L 577.3 28.9 L 584.9 28.9 L 584.9 29.9 L 582.5 30.0 L 582.2 30.3 L 582.2 44.4 L 581.6 44.4 " fill="#000000"></path><path d="M 588.1 25.1 C 590.4 25.3 591.9 27.1 591.9 29.0 C 591.9 30.5 591.3 31.3 590.1 31.3 C 589.4 31.3 588.8 30.8 588.8 30.1 C 588.8 29.7 588.9 29.3 589.2 29.1 L 590.6 29.1 C 590.6 29.0 590.6 28.9 590.6 28.8 C 590.6 27.1 589.8 26.1 588.1 25.8 L 588.1 25.1 " fill="#000000"></path><path d="M 599.8 31.6 C 599.0 31.6 598.4 30.9 598.4 30.1 C 598.4 29.3 599.0 28.7 599.8 28.7 C 600.6 28.7 601.2 29.3 601.2 30.1 C 601.2 30.9 600.6 31.6 599.8 31.6 " fill="#000000"></path><path d="M 609.3 31.6 C 608.5 31.6 607.9 30.9 607.9 30.1 C 607.9 29.3 608.5 28.7 609.3 28.7 C 610.1 28.7 610.8 29.3 610.8 30.1 C 610.8 30.9 610.1 31.6 609.3 31.6 " fill="#000000"></path><path d="M 618.9 31.6 C 618.1 31.6 617.4 30.9 617.4 30.1 C 617.4 29.3 618.1 28.7 618.9 28.7 C 619.6 28.7 620.3 29.3 620.3 30.1 C 620.3 30.9 619.6 31.6 618.9 31.6 " fill="#000000"></path><path d="M 626.1 25.1 C 628.4 25.3 629.9 27.1 629.9 29.0 C 629.9 30.5 629.3 31.3 628.1 31.3 C 627.4 31.3 626.8 30.8 626.8 30.1 C 626.8 29.7 626.9 29.3 627.2 29.1 L 628.6 29.1 C 628.6 29.0 628.6 28.9 628.6 28.8 C 628.6 27.1 627.8 26.1 626.1 25.8 L 626.1 25.1 " fill="#000000"></path><path d="M 637.1 44.2 L 637.1 43.3 L 638.6 43.2 L 638.8 42.8 L 636.4 30.2 L 636.0 29.9 L 634.6 29.8 L 634.6 28.9 L 639.3 28.9 L 639.3 29.8 L 637.9 29.9 L 637.6 30.2 L 639.8 41.5 L 645.8 28.9 L 647.1 28.9 L 649.8 42.8 L 650.2 43.2 L 651.6 43.3 L 651.6 44.2 L 646.9 44.2 L 646.9 43.3 L 648.3 43.2 L 648.5 42.8 L 646.4 32.1 L 641.0 43.6 L 641.0 44.2 L 637.1 44.2 " fill="#000000"></path></g></g></g></g><g><clipPath id="clip0x600003cad020"><path d="M 0.3 60.1 L 51.1 60.1 L 51.1 86.1 L 0.3 86.1 Z M 0.3 60.1 "></path></clipPath><g clip-path="url(#clip0x600003cad020)"><path d="M 0.0 0.4 C 10.3 0.3 20.5 0.4 30.8 0.3 L 33.7 0.3 " fill="none" stroke="#003F7F" stroke-width="6.00" transform="matrix(1.00, 0.00, 0.00, -1.00, 1.3, 73.3)"></path><path d="M 26.1 60.9 L 50.0 73.1 L 25.9 84.9 L 32.0 73.0 Z M 26.1 60.9 " fill="#003F7F"></path></g></g></g></svg>