<?xml version="1.0" encoding="UTF-8" standalone="no"?><svg xmlns="http://www.w3.org/2000/svg" xmlns:xlink="http://www.w3.org/1999/xlink" clip-rule="evenodd" stroke-miterlimit="10" viewBox="0 0 1024 768"><desc>SVG generated by Keynote</desc><defs><linearGradient id="gradSh1.150" x1="0.0" y1="0.0" x2="100.0" y2="0.0" gradientUnits="userSpaceOnUse" gradientTransform="matrix(0.00, -7.70, -10.26, 0.00, 512.0, 769.0)"><stop offset="0.00000" stop-color="#FFFFFF"></stop><stop offset="0.01906" stop-color="#FEFFFF"></stop><stop offset="1.00000" stop-color="#E5F3FF"></stop></linearGradient></defs><g transform="matrix(1.00, 0.00, -0.00, -1.00, 0.0, 768.0)"><g><clipPath id="clip0x6000166b5900"><path d="M 0.0 768.0 L 1024.0 768.0 L 1024.0 0.0 L 0.0 0.0 Z M 0.0 768.0 "></path></clipPath><g clip-path="url(#clip0x6000166b5900)"><path d="M 0.0 768.0 L 1024.0 768.0 L 1024.0 0.0 L 0.0 0.0 Z M 0.0 768.0 " fill="url(#gradSh1.150)"></path></g></g><text xml:space="preserve" font-family="FiraSans-Medium,Fira Sans" font-size="30.0" fill="#2A4054" transform="matrix(1.00, 0.00, -0.00, -1.00, 52.6, 599.5)">P</text><text xml:space="preserve" font-family="FiraSans-Medium,Fira Sans" font-size="30.0" fill="#2A4054" transform="matrix(1.00, 0.00, -0.00, -1.00, 70.3, 599.5)">r</text><text xml:space="preserve" font-family="FiraSans-Medium,Fira Sans" font-size="30.0" fill="#2A4054" transform="matrix(1.00, 0.00, -0.00, -1.00, 81.9, 599.5)">o</text><text xml:space="preserve" font-family="FiraSans-Medium,Fira Sans" font-size="30.0" fill="#2A4054" transform="matrix(1.00, 0.00, -0.00, -1.00, 99.4, 599.5)">g</text><text xml:space="preserve" font-family="FiraSans-Medium,Fira Sans" font-size="30.0" fill="#2A4054" transform="matrix(1.00, 0.00, -0.00, -1.00, 115.5, 599.5)">r</text><text xml:space="preserve" font-family="FiraSans-Medium,Fira Sans" font-size="30.0" fill="#2A4054" transform="matrix(1.00, 0.00, -0.00, -1.00, 126.7, 599.5)">a</text><text xml:space="preserve" font-family="FiraSans-Medium,Fira Sans" font-size="30.0" fill="#2A4054" transform="matrix(1.00, 0.00, -0.00, -1.00, 143.1, 599.5)">m</text><text xml:space="preserve" font-family="FiraSans-Light,Fira Sans" font-size="60.0" fill="#20313F" transform="matrix(1.00, 0.00, -0.00, -1.00, 212.8, 665.0)">I</text><text xml:space="preserve" font-family="FiraSans-Light,Fira Sans" font-size="60.0" fill="#20313F" transform="matrix(1.00, 0.00, -0.00, -1.00, 229.8, 665.0)">n</text><text xml:space="preserve" font-family="FiraSans-Light,Fira Sans" font-size="60.0" fill="#20313F" transform="matrix(1.00, 0.00, -0.00, -1.00, 264.8, 665.0)">t</text><text xml:space="preserve" font-family="FiraSans-Light,Fira Sans" font-size="60.0" fill="#20313F" transform="matrix(1.00, 0.00, -0.00, -1.00, 284.7, 665.0)">e</text><text xml:space="preserve" font-family="FiraSans-Light,Fira Sans" font-size="60.0" fill="#20313F" transform="matrix(1.00, 0.00, -0.00, -1.00, 316.9, 665.0)">r</text><text xml:space="preserve" font-family="FiraSans-Light,Fira Sans" font-size="60.0" fill="#20313F" transform="matrix(1.00, 0.00, -0.00, -1.00, 339.3, 665.0)">f</text><text xml:space="preserve" font-family="FiraSans-Light,Fira Sans" font-size="60.0" fill="#20313F" transform="matrix(1.00, 0.00, -0.00, -1.00, 358.6, 665.0)">a</text><text xml:space="preserve" font-family="FiraSans-Light,Fira Sans" font-size="60.0" fill="#20313F" transform="matrix(1.00, 0.00, -0.00, -1.00, 390.7, 665.0)">c</text><text xml:space="preserve" font-family="FiraSans-Light,Fira Sans" font-size="60.0" fill="#20313F" transform="matrix(1.00, 0.00, -0.00, -1.00, 418.3, 665.0)">e</text><text xml:space="preserve" font-family="FiraSans-Light,Fira Sans" font-size="60.0" fill="#20313F" transform="matrix(1.00, 0.00, -0.00, -1.00, 450.6, 665.0)"> </text><text xml:space="preserve" font-family="FiraSans-Light,Fira Sans" font-size="60.0" fill="#20313F" transform="matrix(1.00, 0.00, -0.00, -1.00, 467.3, 665.0)">f</text><text xml:space="preserve" font-family="FiraSans-Light,Fira Sans" font-size="60.0" fill="#20313F" transform="matrix(1.00, 0.00, -0.00, -1.00, 486.0, 665.0)">o</text><text xml:space="preserve" font-family="FiraSans-Light,Fira Sans" font-size="60.0" fill="#20313F" transform="matrix(1.00, 0.00, -0.00, -1.00, 520.2, 665.0)">r</text><text xml:space="preserve" font-family="FiraSans-Light,Fira Sans" font-size="60.0" fill="#20313F" transform="matrix(1.00, 0.00, -0.00, -1.00, 542.6, 665.0)"> </text><text xml:space="preserve" font-family="FiraSans-Light,Fira Sans" font-size="60.0" fill="#20313F" transform="matrix(1.00, 0.00, -0.00, -1.00, 559.3, 665.0)">I</text><text xml:space="preserve" font-family="FiraSans-Light,Fira Sans" font-size="60.0" fill="#20313F" transform="matrix(1.00, 0.00, -0.00, -1.00, 576.3, 665.0)">n</text><text xml:space="preserve" font-family="FiraSans-Light,Fira Sans" font-size="60.0" fill="#20313F" transform="matrix(1.00, 0.00, -0.00, -1.00, 611.3, 665.0)">f</text><text xml:space="preserve" font-family="FiraSans-Light,Fira Sans" font-size="60.0" fill="#20313F" transform="matrix(1.00, 0.00, -0.00, -1.00, 630.0, 665.0)">e</text><text xml:space="preserve" font-family="FiraSans-Light,Fira Sans" font-size="60.0" fill="#20313F" transform="matrix(1.00, 0.00, -0.00, -1.00, 662.2, 665.0)">r</text><text xml:space="preserve" font-family="FiraSans-Light,Fira Sans" font-size="60.0" fill="#20313F" transform="matrix(1.00, 0.00, -0.00, -1.00, 684.0, 665.0)">e</text><text xml:space="preserve" font-family="FiraSans-Light,Fira Sans" font-size="60.0" fill="#20313F" transform="matrix(1.00, 0.00, -0.00, -1.00, 716.3, 665.0)">n</text><text xml:space="preserve" font-family="FiraSans-Light,Fira Sans" font-size="60.0" fill="#20313F" transform="matrix(1.00, 0.00, -0.00, -1.00, 751.3, 665.0)">c</text><text xml:space="preserve" font-family="FiraSans-Light,Fira Sans" font-size="60.0" fill="#20313F" transform="matrix(1.00, 0.00, -0.00, -1.00, 778.9, 665.0)">e</text><image xlink:href="../../753AE95F-3AAA-4C21-B610-40456023A3F6/assets/CC3352CB4E4FA407E75CBD377DCB7E27.png" width="442.00" height="140.00" transform="matrix(1.00, 0.00, -0.00, -1.00, 46.6, 570.1)" opacity="0.50"></image><path d="M 50.0 569.0 L 485.0 569.0 L 485.0 435.0 L 50.0 435.0 Z M 49.6 569.1 " fill="#FEFFFE"></path><g><clipPath id="clip0x610011eab940"><path d="M 43.9 432.4 L 491.0 432.4 L 491.0 571.9 L 43.9 571.9 Z M 43.9 432.4 "></path></clipPath><g clip-path="url(#clip0x610011eab940)"><text xml:space="preserve" font-family="FiraMono-Regular,Fira Mono" font-size="20.0" fill="#323232" transform="matrix(1.00, 0.00, -0.00, -1.00, 51.6, 543.1)">(</text><text xml:space="preserve" font-family="FiraMono-Regular,Fira Mono" font-size="20.0" fill="#0085B3" transform="matrix(1.00, 0.00, -0.00, -1.00, 63.6, 543.1)">f</text><text xml:space="preserve" font-family="FiraMono-Regular,Fira Mono" font-size="20.0" fill="#0085B3" transform="matrix(1.00, 0.00, -0.00, -1.00, 75.6, 543.1)">n</text><text xml:space="preserve" font-family="FiraMono-Regular,Fira Mono" font-size="20.0" fill="#323232" transform="matrix(1.00, 0.00, -0.00, -1.00, 87.6, 543.1)"> </text><text xml:space="preserve" font-family="FiraMono-Regular,Fira Mono" font-size="20.0" fill="#323232" transform="matrix(1.00, 0.00, -0.00, -1.00, 99.6, 543.1)">b</text><text xml:space="preserve" font-family="FiraMono-Regular,Fira Mono" font-size="20.0" fill="#323232" transform="matrix(1.00, 0.00, -0.00, -1.00, 111.6, 543.1)">i</text><text xml:space="preserve" font-family="FiraMono-Regular,Fira Mono" font-size="20.0" fill="#323232" transform="matrix(1.00, 0.00, -0.00, -1.00, 123.6, 543.1)">a</text><text xml:space="preserve" font-family="FiraMono-Regular,Fira Mono" font-size="20.0" fill="#323232" transform="matrix(1.00, 0.00, -0.00, -1.00, 135.6, 543.1)">s</text><text xml:space="preserve" font-family="FiraMono-Regular,Fira Mono" font-size="20.0" fill="#323232" transform="matrix(1.00, 0.00, -0.00, -1.00, 147.6, 543.1)">e</text><text xml:space="preserve" font-family="FiraMono-Regular,Fira Mono" font-size="20.0" fill="#323232" transform="matrix(1.00, 0.00, -0.00, -1.00, 159.6, 543.1)">d</text><text xml:space="preserve" font-family="FiraMono-Regular,Fira Mono" font-size="20.0" fill="#323232" transform="matrix(1.00, 0.00, -0.00, -1.00, 171.6, 543.1)">-</text><text xml:space="preserve" font-family="FiraMono-Regular,Fira Mono" font-size="20.0" fill="#323232" transform="matrix(1.00, 0.00, -0.00, -1.00, 183.6, 543.1)">c</text><text xml:space="preserve" font-family="FiraMono-Regular,Fira Mono" font-size="20.0" fill="#323232" transform="matrix(1.00, 0.00, -0.00, -1.00, 195.6, 543.1)">o</text><text xml:space="preserve" font-family="FiraMono-Regular,Fira Mono" font-size="20.0" fill="#323232" transform="matrix(1.00, 0.00, -0.00, -1.00, 207.6, 543.1)">i</text><text xml:space="preserve" font-family="FiraMono-Regular,Fira Mono" font-size="20.0" fill="#323232" transform="matrix(1.00, 0.00, -0.00, -1.00, 219.6, 543.1)">n</text><text xml:space="preserve" font-family="FiraMono-Regular,Fira Mono" font-size="20.0" fill="#323232" transform="matrix(1.00, 0.00, -0.00, -1.00, 231.6, 543.1)"> </text><text xml:space="preserve" font-family="FiraMono-Regular,Fira Mono" font-size="20.0" fill="#323232" transform="matrix(1.00, 0.00, -0.00, -1.00, 243.6, 543.1)">[</text><text xml:space="preserve" font-family="FiraMono-Regular,Fira Mono" font-size="20.0" fill="#323232" transform="matrix(1.00, 0.00, -0.00, -1.00, 255.6, 543.1)">o</text><text xml:space="preserve" font-family="FiraMono-Regular,Fira Mono" font-size="20.0" fill="#323232" transform="matrix(1.00, 0.00, -0.00, -1.00, 267.6, 543.1)">u</text><text xml:space="preserve" font-family="FiraMono-Regular,Fira Mono" font-size="20.0" fill="#323232" transform="matrix(1.00, 0.00, -0.00, -1.00, 279.6, 543.1)">t</text><text xml:space="preserve" font-family="FiraMono-Regular,Fira Mono" font-size="20.0" fill="#323232" transform="matrix(1.00, 0.00, -0.00, -1.00, 291.6, 543.1)">c</text><text xml:space="preserve" font-family="FiraMono-Regular,Fira Mono" font-size="20.0" fill="#323232" transform="matrix(1.00, 0.00, -0.00, -1.00, 303.6, 543.1)">o</text><text xml:space="preserve" font-family="FiraMono-Regular,Fira Mono" font-size="20.0" fill="#323232" transform="matrix(1.00, 0.00, -0.00, -1.00, 315.6, 543.1)">m</text><text xml:space="preserve" font-family="FiraMono-Regular,Fira Mono" font-size="20.0" fill="#323232" transform="matrix(1.00, 0.00, -0.00, -1.00, 327.6, 543.1)">e</text><text xml:space="preserve" font-family="FiraMono-Regular,Fira Mono" font-size="20.0" fill="#323232" transform="matrix(1.00, 0.00, -0.00, -1.00, 339.6, 543.1)">]</text><text xml:space="preserve" font-family="FiraMono-Regular,Fira Mono" font-size="20.0" fill="#323232" transform="matrix(1.00, 0.00, -0.00, -1.00, 351.6, 543.1)"> </text><text xml:space="preserve" font-family="FiraMono-Regular,Fira Mono" font-size="20.0" fill="#323232" transform="matrix(1.00, 0.00, -0.00, -1.00, 51.6, 512.1)"> </text><text xml:space="preserve" font-family="FiraMono-Regular,Fira Mono" font-size="20.0" fill="#323232" transform="matrix(1.00, 0.00, -0.00, -1.00, 63.6, 512.1)">(</text><text xml:space="preserve" font-family="FiraMono-Regular,Fira Mono" font-size="20.0" fill="#0085B3" transform="matrix(1.00, 0.00, -0.00, -1.00, 75.6, 512.1)">l</text><text xml:space="preserve" font-family="FiraMono-Regular,Fira Mono" font-size="20.0" fill="#0085B3" transform="matrix(1.00, 0.00, -0.00, -1.00, 87.6, 512.1)">e</text><text xml:space="preserve" font-family="FiraMono-Regular,Fira Mono" font-size="20.0" fill="#0085B3" transform="matrix(1.00, 0.00, -0.00, -1.00, 99.6, 512.1)">t</text><text xml:space="preserve" font-family="FiraMono-Regular,Fira Mono" font-size="20.0" fill="#323232" transform="matrix(1.00, 0.00, -0.00, -1.00, 111.6, 512.1)"> </text><text xml:space="preserve" font-family="FiraMono-Regular,Fira Mono" font-size="20.0" fill="#323232" transform="matrix(1.00, 0.00, -0.00, -1.00, 123.6, 512.1)">[</text><text xml:space="preserve" font-family="FiraMono-Regular,Fira Mono" font-size="20.0" fill="#323232" transform="matrix(1.00, 0.00, -0.00, -1.00, 135.6, 512.1)">b</text><text xml:space="preserve" font-family="FiraMono-Regular,Fira Mono" font-size="20.0" fill="#323232" transform="matrix(1.00, 0.00, -0.00, -1.00, 147.6, 512.1)">i</text><text xml:space="preserve" font-family="FiraMono-Regular,Fira Mono" font-size="20.0" fill="#323232" transform="matrix(1.00, 0.00, -0.00, -1.00, 159.6, 512.1)">a</text><text xml:space="preserve" font-family="FiraMono-Regular,Fira Mono" font-size="20.0" fill="#323232" transform="matrix(1.00, 0.00, -0.00, -1.00, 171.6, 512.1)">s</text><text xml:space="preserve" font-family="FiraMono-Regular,Fira Mono" font-size="20.0" fill="#323232" transform="matrix(1.00, 0.00, -0.00, -1.00, 183.6, 512.1)"> </text><text xml:space="preserve" font-family="FiraMono-Regular,Fira Mono" font-size="20.0" fill="#323232" transform="matrix(1.00, 0.00, -0.00, -1.00, 195.6, 512.1)">(</text><text xml:space="preserve" font-family="FiraMono-Bold,Fira Mono" font-weight="bold" font-size="20.0" fill="#54A800" transform="matrix(1.00, 0.00, -0.00, -1.00, 207.6, 512.1)">s</text><text xml:space="preserve" font-family="FiraMono-Bold,Fira Mono" font-weight="bold" font-size="20.0" fill="#54A800" transform="matrix(1.00, 0.00, -0.00, -1.00, 219.6, 512.1)">a</text><text xml:space="preserve" font-family="FiraMono-Bold,Fira Mono" font-weight="bold" font-size="20.0" fill="#54A800" transform="matrix(1.00, 0.00, -0.00, -1.00, 231.6, 512.1)">m</text><text xml:space="preserve" font-family="FiraMono-Bold,Fira Mono" font-weight="bold" font-size="20.0" fill="#54A800" transform="matrix(1.00, 0.00, -0.00, -1.00, 243.6, 512.1)">p</text><text xml:space="preserve" font-family="FiraMono-Bold,Fira Mono" font-weight="bold" font-size="20.0" fill="#54A800" transform="matrix(1.00, 0.00, -0.00, -1.00, 255.6, 512.1)">l</text><text xml:space="preserve" font-family="FiraMono-Bold,Fira Mono" font-weight="bold" font-size="20.0" fill="#54A800" transform="matrix(1.00, 0.00, -0.00, -1.00, 267.6, 512.1)">e</text><text xml:space="preserve" font-family="FiraMono-Bold,Fira Mono" font-weight="bold" font-size="20.0" fill="#54A800" transform="matrix(1.00, 0.00, -0.00, -1.00, 279.6, 512.1)"> </text><text xml:space="preserve" font-family="FiraMono-Regular,Fira Mono" font-size="20.0" fill="#323232" transform="matrix(1.00, 0.00, -0.00, -1.00, 291.6, 512.1)">(</text><text xml:space="preserve" font-family="FiraMono-Regular,Fira Mono" font-size="20.0" fill="#0085B3" transform="matrix(1.00, 0.00, -0.00, -1.00, 303.6, 512.1)">b</text><text xml:space="preserve" font-family="FiraMono-Regular,Fira Mono" font-size="20.0" fill="#0085B3" transform="matrix(1.00, 0.00, -0.00, -1.00, 315.6, 512.1)">e</text><text xml:space="preserve" font-family="FiraMono-Regular,Fira Mono" font-size="20.0" fill="#0085B3" transform="matrix(1.00, 0.00, -0.00, -1.00, 327.6, 512.1)">t</text><text xml:space="preserve" font-family="FiraMono-Regular,Fira Mono" font-size="20.0" fill="#0085B3" transform="matrix(1.00, 0.00, -0.00, -1.00, 339.6, 512.1)">a</text><text xml:space="preserve" font-family="FiraMono-Regular,Fira Mono" font-size="20.0" fill="#323232" transform="matrix(1.00, 0.00, -0.00, -1.00, 351.6, 512.1)"> </text><text xml:space="preserve" font-family="FiraMono-Regular,Fira Mono" font-size="20.0" fill="#323232" transform="matrix(1.00, 0.00, -0.00, -1.00, 363.6, 512.1)">1</text><text xml:space="preserve" font-family="FiraMono-Regular,Fira Mono" font-size="20.0" fill="#323232" transform="matrix(1.00, 0.00, -0.00, -1.00, 375.6, 512.1)"> </text><text xml:space="preserve" font-family="FiraMono-Regular,Fira Mono" font-size="20.0" fill="#323232" transform="matrix(1.00, 0.00, -0.00, -1.00, 387.6, 512.1)">1</text><text xml:space="preserve" font-family="FiraMono-Regular,Fira Mono" font-size="20.0" fill="#323232" transform="matrix(1.00, 0.00, -0.00, -1.00, 399.6, 512.1)">)</text><text xml:space="preserve" font-family="FiraMono-Regular,Fira Mono" font-size="20.0" fill="#323232" transform="matrix(1.00, 0.00, -0.00, -1.00, 411.6, 512.1)">)</text><text xml:space="preserve" font-family="FiraMono-Regular,Fira Mono" font-size="20.0" fill="#323232" transform="matrix(1.00, 0.00, -0.00, -1.00, 423.6, 512.1)">]</text><text xml:space="preserve" font-family="FiraMono-Regular,Fira Mono" font-size="20.0" fill="#323232" transform="matrix(1.00, 0.00, -0.00, -1.00, 435.6, 512.1)"> </text><text xml:space="preserve" font-family="FiraMono-Regular,Fira Mono" font-size="20.0" fill="#323232" transform="matrix(1.00, 0.00, -0.00, -1.00, 51.6, 481.1)"> </text><text xml:space="preserve" font-family="FiraMono-Regular,Fira Mono" font-size="20.0" fill="#323232" transform="matrix(1.00, 0.00, -0.00, -1.00, 63.6, 481.1)"> </text><text xml:space="preserve" font-family="FiraMono-Regular,Fira Mono" font-size="20.0" fill="#323232" transform="matrix(1.00, 0.00, -0.00, -1.00, 75.6, 481.1)">(</text><text xml:space="preserve" font-family="FiraMono-Bold,Fira Mono" font-weight="bold" font-size="20.0" fill="#B30002" transform="matrix(1.00, 0.00, -0.00, -1.00, 87.6, 481.1)">o</text><text xml:space="preserve" font-family="FiraMono-Bold,Fira Mono" font-weight="bold" font-size="20.0" fill="#B30002" transform="matrix(1.00, 0.00, -0.00, -1.00, 99.6, 481.1)">b</text><text xml:space="preserve" font-family="FiraMono-Bold,Fira Mono" font-weight="bold" font-size="20.0" fill="#B30002" transform="matrix(1.00, 0.00, -0.00, -1.00, 111.6, 481.1)">s</text><text xml:space="preserve" font-family="FiraMono-Bold,Fira Mono" font-weight="bold" font-size="20.0" fill="#B30002" transform="matrix(1.00, 0.00, -0.00, -1.00, 123.6, 481.1)">e</text><text xml:space="preserve" font-family="FiraMono-Bold,Fira Mono" font-weight="bold" font-size="20.0" fill="#B30002" transform="matrix(1.00, 0.00, -0.00, -1.00, 135.6, 481.1)">r</text><text xml:space="preserve" font-family="FiraMono-Bold,Fira Mono" font-weight="bold" font-size="20.0" fill="#B30002" transform="matrix(1.00, 0.00, -0.00, -1.00, 147.6, 481.1)">v</text><text xml:space="preserve" font-family="FiraMono-Bold,Fira Mono" font-weight="bold" font-size="20.0" fill="#B30002" transform="matrix(1.00, 0.00, -0.00, -1.00, 159.6, 481.1)">e</text><text xml:space="preserve" font-family="FiraMono-Bold,Fira Mono" font-weight="bold" font-size="20.0" fill="#B30002" transform="matrix(1.00, 0.00, -0.00, -1.00, 171.6, 481.1)"> </text><text xml:space="preserve" font-family="FiraMono-Regular,Fira Mono" font-size="20.0" fill="#323232" transform="matrix(1.00, 0.00, -0.00, -1.00, 183.6, 481.1)">(</text><text xml:space="preserve" font-family="FiraMono-Regular,Fira Mono" font-size="20.0" fill="#0085B3" transform="matrix(1.00, 0.00, -0.00, -1.00, 195.6, 481.1)">f</text><text xml:space="preserve" font-family="FiraMono-Regular,Fira Mono" font-size="20.0" fill="#0085B3" transform="matrix(1.00, 0.00, -0.00, -1.00, 207.6, 481.1)">l</text><text xml:space="preserve" font-family="FiraMono-Regular,Fira Mono" font-size="20.0" fill="#0085B3" transform="matrix(1.00, 0.00, -0.00, -1.00, 219.6, 481.1)">i</text><text xml:space="preserve" font-family="FiraMono-Regular,Fira Mono" font-size="20.0" fill="#0085B3" transform="matrix(1.00, 0.00, -0.00, -1.00, 231.6, 481.1)">p</text><text xml:space="preserve" font-family="FiraMono-Regular,Fira Mono" font-size="20.0" fill="#323232" transform="matrix(1.00, 0.00, -0.00, -1.00, 243.6, 481.1)"> </text><text xml:space="preserve" font-family="FiraMono-Regular,Fira Mono" font-size="20.0" fill="#323232" transform="matrix(1.00, 0.00, -0.00, -1.00, 255.6, 481.1)">b</text><text xml:space="preserve" font-family="FiraMono-Regular,Fira Mono" font-size="20.0" fill="#323232" transform="matrix(1.00, 0.00, -0.00, -1.00, 267.6, 481.1)">i</text><text xml:space="preserve" font-family="FiraMono-Regular,Fira Mono" font-size="20.0" fill="#323232" transform="matrix(1.00, 0.00, -0.00, -1.00, 279.6, 481.1)">a</text><text xml:space="preserve" font-family="FiraMono-Regular,Fira Mono" font-size="20.0" fill="#323232" transform="matrix(1.00, 0.00, -0.00, -1.00, 291.6, 481.1)">s</text><text xml:space="preserve" font-family="FiraMono-Regular,Fira Mono" font-size="20.0" fill="#323232" transform="matrix(1.00, 0.00, -0.00, -1.00, 303.6, 481.1)">)</text><text xml:space="preserve" font-family="FiraMono-Regular,Fira Mono" font-size="20.0" fill="#323232" transform="matrix(1.00, 0.00, -0.00, -1.00, 315.6, 481.1)"> </text><text xml:space="preserve" font-family="FiraMono-Regular,Fira Mono" font-size="20.0" fill="#323232" transform="matrix(1.00, 0.00, -0.00, -1.00, 327.6, 481.1)">o</text><text xml:space="preserve" font-family="FiraMono-Regular,Fira Mono" font-size="20.0" fill="#323232" transform="matrix(1.00, 0.00, -0.00, -1.00, 339.6, 481.1)">u</text><text xml:space="preserve" font-family="FiraMono-Regular,Fira Mono" font-size="20.0" fill="#323232" transform="matrix(1.00, 0.00, -0.00, -1.00, 351.6, 481.1)">t</text><text xml:space="preserve" font-family="FiraMono-Regular,Fira Mono" font-size="20.0" fill="#323232" transform="matrix(1.00, 0.00, -0.00, -1.00, 363.6, 481.1)">c</text><text xml:space="preserve" font-family="FiraMono-Regular,Fira Mono" font-size="20.0" fill="#323232" transform="matrix(1.00, 0.00, -0.00, -1.00, 375.6, 481.1)">o</text><text xml:space="preserve" font-family="FiraMono-Regular,Fira Mono" font-size="20.0" fill="#323232" transform="matrix(1.00, 0.00, -0.00, -1.00, 387.6, 481.1)">m</text><text xml:space="preserve" font-family="FiraMono-Regular,Fira Mono" font-size="20.0" fill="#323232" transform="matrix(1.00, 0.00, -0.00, -1.00, 399.6, 481.1)">e</text><text xml:space="preserve" font-family="FiraMono-Regular,Fira Mono" font-size="20.0" fill="#323232" transform="matrix(1.00, 0.00, -0.00, -1.00, 411.6, 481.1)">)</text><text xml:space="preserve" font-family="FiraMono-Regular,Fira Mono" font-size="20.0" fill="#323232" transform="matrix(1.00, 0.00, -0.00, -1.00, 423.6, 481.1)"> </text><text xml:space="preserve" font-family="FiraMono-Regular,Fira Mono" font-size="20.0" fill="#323232" transform="matrix(1.00, 0.00, -0.00, -1.00, 51.6, 450.1)"> </text><text xml:space="preserve" font-family="FiraMono-Regular,Fira Mono" font-size="20.0" fill="#323232" transform="matrix(1.00, 0.00, -0.00, -1.00, 63.6, 450.1)"> </text><text xml:space="preserve" font-family="FiraMono-Regular,Fira Mono" font-size="20.0" fill="#323232" transform="matrix(1.00, 0.00, -0.00, -1.00, 75.6, 450.1)">(</text><text xml:space="preserve" font-family="FiraMono-Bold,Fira Mono" font-weight="bold" font-size="20.0" fill="#003F7F" transform="matrix(1.00, 0.00, -0.00, -1.00, 87.6, 450.1)">p</text><text xml:space="preserve" font-family="FiraMono-Bold,Fira Mono" font-weight="bold" font-size="20.0" fill="#003F7F" transform="matrix(1.00, 0.00, -0.00, -1.00, 99.6, 450.1)">r</text><text xml:space="preserve" font-family="FiraMono-Bold,Fira Mono" font-weight="bold" font-size="20.0" fill="#003F7F" transform="matrix(1.00, 0.00, -0.00, -1.00, 111.6, 450.1)">e</text><text xml:space="preserve" font-family="FiraMono-Bold,Fira Mono" font-weight="bold" font-size="20.0" fill="#003F7F" transform="matrix(1.00, 0.00, -0.00, -1.00, 123.6, 450.1)">d</text><text xml:space="preserve" font-family="FiraMono-Bold,Fira Mono" font-weight="bold" font-size="20.0" fill="#003F7F" transform="matrix(1.00, 0.00, -0.00, -1.00, 135.6, 450.1)">i</text><text xml:space="preserve" font-family="FiraMono-Bold,Fira Mono" font-weight="bold" font-size="20.0" fill="#003F7F" transform="matrix(1.00, 0.00, -0.00, -1.00, 147.6, 450.1)">c</text><text xml:space="preserve" font-family="FiraMono-Bold,Fira Mono" font-weight="bold" font-size="20.0" fill="#003F7F" transform="matrix(1.00, 0.00, -0.00, -1.00, 159.6, 450.1)">t</text><text xml:space="preserve" font-family="FiraMono-Regular,Fira Mono" font-size="20.0" fill="#323232" transform="matrix(1.00, 0.00, -0.00, -1.00, 171.6, 450.1)"> </text><text xml:space="preserve" font-family="FiraMono-Regular,Fira Mono" font-size="20.0" fill="#323232" transform="matrix(1.00, 0.00, -0.00, -1.00, 183.6, 450.1)">b</text><text xml:space="preserve" font-family="FiraMono-Regular,Fira Mono" font-size="20.0" fill="#323232" transform="matrix(1.00, 0.00, -0.00, -1.00, 195.6, 450.1)">i</text><text xml:space="preserve" font-family="FiraMono-Regular,Fira Mono" font-size="20.0" fill="#323232" transform="matrix(1.00, 0.00, -0.00, -1.00, 207.6, 450.1)">a</text><text xml:space="preserve" font-family="FiraMono-Regular,Fira Mono" font-size="20.0" fill="#323232" transform="matrix(1.00, 0.00, -0.00, -1.00, 219.6, 450.1)">s</text><text xml:space="preserve" font-family="FiraMono-Regular,Fira Mono" font-size="20.0" fill="#323232" transform="matrix(1.00, 0.00, -0.00, -1.00, 231.6, 450.1)">)</text><text xml:space="preserve" font-family="FiraMono-Regular,Fira Mono" font-size="20.0" fill="#323232" transform="matrix(1.00, 0.00, -0.00, -1.00, 243.6, 450.1)">)</text><text xml:space="preserve" font-family="FiraMono-Regular,Fira Mono" font-size="20.0" fill="#323232" transform="matrix(1.00, 0.00, -0.00, -1.00, 255.6, 450.1)">)</text></g></g><text xml:space="preserve" font-family="FiraSans-Medium,Fira Sans" font-size="30.0" fill="#2A4054" transform="matrix(1.00, 0.00, -0.00, -1.00, 541.3, 599.5)">I</text><text xml:space="preserve" font-family="FiraSans-Medium,Fira Sans" font-size="30.0" fill="#2A4054" transform="matrix(1.00, 0.00, -0.00, -1.00, 550.1, 599.5)">n</text><text xml:space="preserve" font-family="FiraSans-Medium,Fira Sans" font-size="30.0" fill="#2A4054" transform="matrix(1.00, 0.00, -0.00, -1.00, 567.6, 599.5)">t</text><text xml:space="preserve" font-family="FiraSans-Medium,Fira Sans" font-size="30.0" fill="#2A4054" transform="matrix(1.00, 0.00, -0.00, -1.00, 578.5, 599.5)">e</text><text xml:space="preserve" font-family="FiraSans-Medium,Fira Sans" font-size="30.0" fill="#2A4054" transform="matrix(1.00, 0.00, -0.00, -1.00, 595.1, 599.5)">r</text><text xml:space="preserve" font-family="FiraSans-Medium,Fira Sans" font-size="30.0" fill="#2A4054" transform="matrix(1.00, 0.00, -0.00, -1.00, 606.9, 599.5)">f</text><text xml:space="preserve" font-family="FiraSans-Medium,Fira Sans" font-size="30.0" fill="#2A4054" transform="matrix(1.00, 0.00, -0.00, -1.00, 617.3, 599.5)">a</text><text xml:space="preserve" font-family="FiraSans-Medium,Fira Sans" font-size="30.0" fill="#2A4054" transform="matrix(1.00, 0.00, -0.00, -1.00, 633.7, 599.5)">c</text><text xml:space="preserve" font-family="FiraSans-Medium,Fira Sans" font-size="30.0" fill="#2A4054" transform="matrix(1.00, 0.00, -0.00, -1.00, 647.7, 599.5)">e</text><text xml:space="preserve" font-family="FiraSans-Book,Fira Sans" font-size="18.0" fill="#20313F" transform="matrix(1.00, 0.00, -0.00, -1.00, 544.4, 545.7)">•</text><text xml:space="preserve" font-family="FiraSans-BookItalic,Fira Sans" font-style="italic" font-size="24.0" fill="#20313F" transform="matrix(1.00, 0.00, -0.00, -1.00, 571.7, 544.2)">L</text><text xml:space="preserve" font-family="FiraSans-BookItalic,Fira Sans" font-style="italic" font-size="24.0" fill="#20313F" transform="matrix(1.00, 0.00, -0.00, -1.00, 583.4, 544.2)">a</text><text xml:space="preserve" font-family="FiraSans-BookItalic,Fira Sans" font-style="italic" font-size="24.0" fill="#20313F" transform="matrix(1.00, 0.00, -0.00, -1.00, 597.0, 544.2)">n</text><text xml:space="preserve" font-family="FiraSans-BookItalic,Fira Sans" font-style="italic" font-size="24.0" fill="#20313F" transform="matrix(1.00, 0.00, -0.00, -1.00, 610.9, 544.2)">g</text><text xml:space="preserve" font-family="FiraSans-BookItalic,Fira Sans" font-style="italic" font-size="24.0" fill="#20313F" transform="matrix(1.00, 0.00, -0.00, -1.00, 624.7, 544.2)">u</text><text xml:space="preserve" font-family="FiraSans-BookItalic,Fira Sans" font-style="italic" font-size="24.0" fill="#20313F" transform="matrix(1.00, 0.00, -0.00, -1.00, 638.5, 544.2)">a</text><text xml:space="preserve" font-family="FiraSans-BookItalic,Fira Sans" font-style="italic" font-size="24.0" fill="#20313F" transform="matrix(1.00, 0.00, -0.00, -1.00, 652.1, 544.2)">g</text><text xml:space="preserve" font-family="FiraSans-BookItalic,Fira Sans" font-style="italic" font-size="24.0" fill="#20313F" transform="matrix(1.00, 0.00, -0.00, -1.00, 665.5, 544.2)">e</text><text xml:space="preserve" font-family="FiraSans-BookItalic,Fira Sans" font-style="italic" font-size="24.0" fill="#20313F" transform="matrix(1.00, 0.00, -0.00, -1.00, 678.0, 544.2)"> </text><text xml:space="preserve" font-family="FiraSans-BookItalic,Fira Sans" font-style="italic" font-size="24.0" fill="#20313F" transform="matrix(1.00, 0.00, -0.00, -1.00, 684.3, 544.2)">R</text><text xml:space="preserve" font-family="FiraSans-BookItalic,Fira Sans" font-style="italic" font-size="24.0" fill="#20313F" transform="matrix(1.00, 0.00, -0.00, -1.00, 698.7, 544.2)">u</text><text xml:space="preserve" font-family="FiraSans-BookItalic,Fira Sans" font-style="italic" font-size="24.0" fill="#20313F" transform="matrix(1.00, 0.00, -0.00, -1.00, 712.5, 544.2)">n</text><text xml:space="preserve" font-family="FiraSans-BookItalic,Fira Sans" font-style="italic" font-size="24.0" fill="#20313F" transform="matrix(1.00, 0.00, -0.00, -1.00, 726.4, 544.2)">t</text><text xml:space="preserve" font-family="FiraSans-BookItalic,Fira Sans" font-style="italic" font-size="24.0" fill="#20313F" transform="matrix(1.00, 0.00, -0.00, -1.00, 734.8, 544.2)">i</text><text xml:space="preserve" font-family="FiraSans-BookItalic,Fira Sans" font-style="italic" font-size="24.0" fill="#20313F" transform="matrix(1.00, 0.00, -0.00, -1.00, 741.5, 544.2)">m</text><text xml:space="preserve" font-family="FiraSans-BookItalic,Fira Sans" font-style="italic" font-size="24.0" fill="#20313F" transform="matrix(1.00, 0.00, -0.00, -1.00, 761.8, 544.2)">e</text><text xml:space="preserve" font-family="FiraSans-Book,Fira Sans" font-size="24.0" fill="#20313F" transform="matrix(1.00, 0.00, -0.00, -1.00, 774.3, 544.2)"> </text><text xml:space="preserve" font-family="LucidaGrande,Lucida Grande" font-size="24.0" fill="#20313F" transform="matrix(1.00, 0.00, -0.00, -1.00, 780.8, 544.2)"> </text><text xml:space="preserve" font-family="FiraSans-Book,Fira Sans" font-size="24.0" fill="#20313F" transform="matrix(1.00, 0.00, -0.00, -1.00, 571.7, 510.9)">A</text><text xml:space="preserve" font-family="FiraSans-Book,Fira Sans" font-size="24.0" fill="#20313F" transform="matrix(1.00, 0.00, -0.00, -1.00, 585.4, 510.9)">l</text><text xml:space="preserve" font-family="FiraSans-Book,Fira Sans" font-size="24.0" fill="#20313F" transform="matrix(1.00, 0.00, -0.00, -1.00, 592.4, 510.9)">l</text><text xml:space="preserve" font-family="FiraSans-Book,Fira Sans" font-size="24.0" fill="#20313F" transform="matrix(1.00, 0.00, -0.00, -1.00, 599.3, 510.9)"> </text><text xml:space="preserve" font-family="FiraSans-Book,Fira Sans" font-size="24.0" fill="#20313F" transform="matrix(1.00, 0.00, -0.00, -1.00, 605.8, 510.9)">d</text><text xml:space="preserve" font-family="FiraSans-Book,Fira Sans" font-size="24.0" fill="#20313F" transform="matrix(1.00, 0.00, -0.00, -1.00, 619.8, 510.9)">e</text><text xml:space="preserve" font-family="FiraSans-Book,Fira Sans" font-size="24.0" fill="#20313F" transform="matrix(1.00, 0.00, -0.00, -1.00, 632.9, 510.9)">t</text><text xml:space="preserve" font-family="FiraSans-Book,Fira Sans" font-size="24.0" fill="#20313F" transform="matrix(1.00, 0.00, -0.00, -1.00, 641.2, 510.9)">e</text><text xml:space="preserve" font-family="FiraSans-Book,Fira Sans" font-size="24.0" fill="#20313F" transform="matrix(1.00, 0.00, -0.00, -1.00, 654.4, 510.9)">r</text><text xml:space="preserve" font-family="FiraSans-Book,Fira Sans" font-size="24.0" fill="#20313F" transform="matrix(1.00, 0.00, -0.00, -1.00, 663.6, 510.9)">m</text><text xml:space="preserve" font-family="FiraSans-Book,Fira Sans" font-size="24.0" fill="#20313F" transform="matrix(1.00, 0.00, -0.00, -1.00, 684.1, 510.9)">i</text><text xml:space="preserve" font-family="FiraSans-Book,Fira Sans" font-size="24.0" fill="#20313F" transform="matrix(1.00, 0.00, -0.00, -1.00, 690.8, 510.9)">n</text><text xml:space="preserve" font-family="FiraSans-Book,Fira Sans" font-size="24.0" fill="#20313F" transform="matrix(1.00, 0.00, -0.00, -1.00, 704.8, 510.9)">i</text><text xml:space="preserve" font-family="FiraSans-Book,Fira Sans" font-size="24.0" fill="#20313F" transform="matrix(1.00, 0.00, -0.00, -1.00, 711.5, 510.9)">s</text><text xml:space="preserve" font-family="FiraSans-Book,Fira Sans" font-size="24.0" fill="#20313F" transform="matrix(1.00, 0.00, -0.00, -1.00, 722.7, 510.9)">t</text><text xml:space="preserve" font-family="FiraSans-Book,Fira Sans" font-size="24.0" fill="#20313F" transform="matrix(1.00, 0.00, -0.00, -1.00, 731.3, 510.9)">i</text><text xml:space="preserve" font-family="FiraSans-Book,Fira Sans" font-size="24.0" fill="#20313F" transform="matrix(1.00, 0.00, -0.00, -1.00, 738.0, 510.9)">c</text><text xml:space="preserve" font-family="FiraSans-Book,Fira Sans" font-size="24.0" fill="#20313F" transform="matrix(1.00, 0.00, -0.00, -1.00, 749.4, 510.9)"> </text><text xml:space="preserve" font-family="FiraSans-Book,Fira Sans" font-size="24.0" fill="#20313F" transform="matrix(1.00, 0.00, -0.00, -1.00, 755.8, 510.9)">s</text><text xml:space="preserve" font-family="FiraSans-Book,Fira Sans" font-size="24.0" fill="#20313F" transform="matrix(1.00, 0.00, -0.00, -1.00, 767.0, 510.9)">t</text><text xml:space="preserve" font-family="FiraSans-Book,Fira Sans" font-size="24.0" fill="#20313F" transform="matrix(1.00, 0.00, -0.00, -1.00, 775.3, 510.9)">e</text><text xml:space="preserve" font-family="FiraSans-Book,Fira Sans" font-size="24.0" fill="#20313F" transform="matrix(1.00, 0.00, -0.00, -1.00, 788.4, 510.9)">p</text><text xml:space="preserve" font-family="FiraSans-Book,Fira Sans" font-size="24.0" fill="#20313F" transform="matrix(1.00, 0.00, -0.00, -1.00, 802.6, 510.9)">s</text><text xml:space="preserve" font-family="FiraSans-Book,Fira Sans" font-size="24.0" fill="#20313F" transform="matrix(1.00, 0.00, -0.00, -1.00, 813.8, 510.9)"> </text><text xml:space="preserve" font-family="FiraSans-Book,Fira Sans" font-size="18.0" fill="#20313F" transform="matrix(1.00, 0.00, -0.00, -1.00, 544.4, 469.1)">•</text><text xml:space="preserve" font-family="FiraSans-BookItalic,Fira Sans" font-style="italic" font-size="24.0" fill="#20313F" transform="matrix(1.00, 0.00, -0.00, -1.00, 571.7, 467.6)">I</text><text xml:space="preserve" font-family="FiraSans-BookItalic,Fira Sans" font-style="italic" font-size="24.0" fill="#20313F" transform="matrix(1.00, 0.00, -0.00, -1.00, 578.7, 467.6)">n</text><text xml:space="preserve" font-family="FiraSans-BookItalic,Fira Sans" font-style="italic" font-size="24.0" fill="#20313F" transform="matrix(1.00, 0.00, -0.00, -1.00, 592.6, 467.6)">f</text><text xml:space="preserve" font-family="FiraSans-BookItalic,Fira Sans" font-style="italic" font-size="24.0" fill="#20313F" transform="matrix(1.00, 0.00, -0.00, -1.00, 600.2, 467.6)">e</text><text xml:space="preserve" font-family="FiraSans-BookItalic,Fira Sans" font-style="italic" font-size="24.0" fill="#20313F" transform="matrix(1.00, 0.00, -0.00, -1.00, 612.7, 467.6)">r</text><text xml:space="preserve" font-family="FiraSans-BookItalic,Fira Sans" font-style="italic" font-size="24.0" fill="#20313F" transform="matrix(1.00, 0.00, -0.00, -1.00, 621.6, 467.6)">e</text><text xml:space="preserve" font-family="FiraSans-BookItalic,Fira Sans" font-style="italic" font-size="24.0" fill="#20313F" transform="matrix(1.00, 0.00, -0.00, -1.00, 634.1, 467.6)">n</text><text xml:space="preserve" font-family="FiraSans-BookItalic,Fira Sans" font-style="italic" font-size="24.0" fill="#20313F" transform="matrix(1.00, 0.00, -0.00, -1.00, 648.0, 467.6)">c</text><text xml:space="preserve" font-family="FiraSans-BookItalic,Fira Sans" font-style="italic" font-size="24.0" fill="#20313F" transform="matrix(1.00, 0.00, -0.00, -1.00, 659.1, 467.6)">e</text><text xml:space="preserve" font-family="FiraSans-Book,Fira Sans" font-size="24.0" fill="#20313F" transform="matrix(1.00, 0.00, -0.00, -1.00, 671.6, 467.6)"> </text><text xml:space="preserve" font-family="FiraSans-BookItalic,Fira Sans" font-style="italic" font-size="24.0" fill="#20313F" transform="matrix(1.00, 0.00, -0.00, -1.00, 678.0, 467.6)">B</text><text xml:space="preserve" font-family="FiraSans-BookItalic,Fira Sans" font-style="italic" font-size="24.0" fill="#20313F" transform="matrix(1.00, 0.00, -0.00, -1.00, 692.4, 467.6)">a</text><text xml:space="preserve" font-family="FiraSans-BookItalic,Fira Sans" font-style="italic" font-size="24.0" fill="#20313F" transform="matrix(1.00, 0.00, -0.00, -1.00, 706.0, 467.6)">c</text><text xml:space="preserve" font-family="FiraSans-BookItalic,Fira Sans" font-style="italic" font-size="24.0" fill="#20313F" transform="matrix(1.00, 0.00, -0.00, -1.00, 717.3, 467.6)">k</text><text xml:space="preserve" font-family="FiraSans-BookItalic,Fira Sans" font-style="italic" font-size="24.0" fill="#20313F" transform="matrix(1.00, 0.00, -0.00, -1.00, 730.3, 467.6)"> </text><text xml:space="preserve" font-family="FiraSans-BookItalic,Fira Sans" font-style="italic" font-size="24.0" fill="#20313F" transform="matrix(1.00, 0.00, -0.00, -1.00, 736.6, 467.6)">e</text><text xml:space="preserve" font-family="FiraSans-BookItalic,Fira Sans" font-style="italic" font-size="24.0" fill="#20313F" transform="matrix(1.00, 0.00, -0.00, -1.00, 749.1, 467.6)">n</text><text xml:space="preserve" font-family="FiraSans-BookItalic,Fira Sans" font-style="italic" font-size="24.0" fill="#20313F" transform="matrix(1.00, 0.00, -0.00, -1.00, 763.1, 467.6)">d</text><text xml:space="preserve" font-family="LucidaGrande,Lucida Grande" font-size="24.0" fill="#20313F" transform="matrix(1.00, 0.00, -0.00, -1.00, 777.3, 467.6)"> </text><text xml:space="preserve" font-family="FiraSans-Book,Fira Sans" font-size="24.0" fill="#20313F" transform="matrix(1.00, 0.00, -0.00, -1.00, 571.7, 434.3)">I</text><text xml:space="preserve" font-family="FiraSans-Book,Fira Sans" font-size="24.0" fill="#20313F" transform="matrix(1.00, 0.00, -0.00, -1.00, 578.7, 434.3)">m</text><text xml:space="preserve" font-family="FiraSans-Book,Fira Sans" font-size="24.0" fill="#20313F" transform="matrix(1.00, 0.00, -0.00, -1.00, 599.2, 434.3)">p</text><text xml:space="preserve" font-family="FiraSans-Book,Fira Sans" font-size="24.0" fill="#20313F" transform="matrix(1.00, 0.00, -0.00, -1.00, 613.4, 434.3)">l</text><text xml:space="preserve" font-family="FiraSans-Book,Fira Sans" font-size="24.0" fill="#20313F" transform="matrix(1.00, 0.00, -0.00, -1.00, 620.2, 434.3)">e</text><text xml:space="preserve" font-family="FiraSans-Book,Fira Sans" font-size="24.0" fill="#20313F" transform="matrix(1.00, 0.00, -0.00, -1.00, 633.3, 434.3)">m</text><text xml:space="preserve" font-family="FiraSans-Book,Fira Sans" font-size="24.0" fill="#20313F" transform="matrix(1.00, 0.00, -0.00, -1.00, 653.8, 434.3)">e</text><text xml:space="preserve" font-family="FiraSans-Book,Fira Sans" font-size="24.0" fill="#20313F" transform="matrix(1.00, 0.00, -0.00, -1.00, 667.0, 434.3)">n</text><text xml:space="preserve" font-family="FiraSans-Book,Fira Sans" font-size="24.0" fill="#20313F" transform="matrix(1.00, 0.00, -0.00, -1.00, 681.0, 434.3)">t</text><text xml:space="preserve" font-family="FiraSans-Book,Fira Sans" font-size="24.0" fill="#20313F" transform="matrix(1.00, 0.00, -0.00, -1.00, 689.6, 434.3)">s</text><text xml:space="preserve" font-family="FiraSans-Book,Fira Sans" font-size="24.0" fill="#20313F" transform="matrix(1.00, 0.00, -0.00, -1.00, 700.7, 434.3)"> </text><text xml:space="preserve" font-family="FiraSans-SemiBold,Fira Sans" font-weight="bold" font-size="24.0" fill="#54A800" transform="matrix(1.00, 0.00, -0.00, -1.00, 707.2, 434.3)">s</text><text xml:space="preserve" font-family="FiraSans-SemiBold,Fira Sans" font-weight="bold" font-size="24.0" fill="#54A800" transform="matrix(1.00, 0.00, -0.00, -1.00, 718.7, 434.3)">a</text><text xml:space="preserve" font-family="FiraSans-SemiBold,Fira Sans" font-weight="bold" font-size="24.0" fill="#54A800" transform="matrix(1.00, 0.00, -0.00, -1.00, 731.8, 434.3)">m</text><text xml:space="preserve" font-family="FiraSans-SemiBold,Fira Sans" font-weight="bold" font-size="24.0" fill="#54A800" transform="matrix(1.00, 0.00, -0.00, -1.00, 752.1, 434.3)">p</text><text xml:space="preserve" font-family="FiraSans-SemiBold,Fira Sans" font-weight="bold" font-size="24.0" fill="#54A800" transform="matrix(1.00, 0.00, -0.00, -1.00, 766.5, 434.3)">l</text><text xml:space="preserve" font-family="FiraSans-SemiBold,Fira Sans" font-weight="bold" font-size="24.0" fill="#54A800" transform="matrix(1.00, 0.00, -0.00, -1.00, 773.3, 434.3)">e</text><text xml:space="preserve" font-family="FiraSans-SemiBold,Fira Sans" font-weight="bold" font-size="24.0" fill="#54A800" transform="matrix(1.00, 0.00, -0.00, -1.00, 786.6, 434.3)"> </text><text xml:space="preserve" font-family="FiraSans-Book,Fira Sans" font-size="24.0" fill="#20313F" transform="matrix(1.00, 0.00, -0.00, -1.00, 792.4, 434.3)">a</text><text xml:space="preserve" font-family="FiraSans-Book,Fira Sans" font-size="24.0" fill="#20313F" transform="matrix(1.00, 0.00, -0.00, -1.00, 805.5, 434.3)">n</text><text xml:space="preserve" font-family="FiraSans-Book,Fira Sans" font-size="24.0" fill="#20313F" transform="matrix(1.00, 0.00, -0.00, -1.00, 819.5, 434.3)">d</text><text xml:space="preserve" font-family="FiraSans-Book,Fira Sans" font-size="24.0" fill="#20313F" transform="matrix(1.00, 0.00, -0.00, -1.00, 833.8, 434.3)"> </text><text xml:space="preserve" font-family="FiraSans-SemiBold,Fira Sans" font-weight="bold" font-size="24.0" fill="#B30002" transform="matrix(1.00, 0.00, -0.00, -1.00, 840.2, 434.3)">o</text><text xml:space="preserve" font-family="FiraSans-SemiBold,Fira Sans" font-weight="bold" font-size="24.0" fill="#B30002" transform="matrix(1.00, 0.00, -0.00, -1.00, 854.2, 434.3)">b</text><text xml:space="preserve" font-family="FiraSans-SemiBold,Fira Sans" font-weight="bold" font-size="24.0" fill="#B30002" transform="matrix(1.00, 0.00, -0.00, -1.00, 868.5, 434.3)">s</text><text xml:space="preserve" font-family="FiraSans-SemiBold,Fira Sans" font-weight="bold" font-size="24.0" fill="#B30002" transform="matrix(1.00, 0.00, -0.00, -1.00, 880.0, 434.3)">e</text><text xml:space="preserve" font-family="FiraSans-SemiBold,Fira Sans" font-weight="bold" font-size="24.0" fill="#B30002" transform="matrix(1.00, 0.00, -0.00, -1.00, 893.3, 434.3)">r</text><text xml:space="preserve" font-family="FiraSans-SemiBold,Fira Sans" font-weight="bold" font-size="24.0" fill="#B30002" transform="matrix(1.00, 0.00, -0.00, -1.00, 903.3, 434.3)">v</text><text xml:space="preserve" font-family="FiraSans-SemiBold,Fira Sans" font-weight="bold" font-size="24.0" fill="#B30002" transform="matrix(1.00, 0.00, -0.00, -1.00, 915.2, 434.3)">e</text></g></svg>