<?xml version="1.0" encoding="UTF-8" standalone="no"?><svg xmlns="http://www.w3.org/2000/svg" xmlns:xlink="http://www.w3.org/1999/xlink" clip-rule="evenodd" stroke-miterlimit="10" viewBox="0 0 1024 768"><desc>SVG generated by Keynote</desc><defs><linearGradient id="gradSh1.100" x1="0.0" y1="0.0" x2="100.0" y2="0.0" gradientUnits="userSpaceOnUse" gradientTransform="matrix(0.00, -7.70, -10.26, 0.00, 512.0, 769.0)"><stop offset="0.00000" stop-color="#FFFFFF"></stop><stop offset="0.01906" stop-color="#FEFFFF"></stop><stop offset="1.00000" stop-color="#E5F3FF"></stop></linearGradient></defs><g transform="matrix(1.00, 0.00, -0.00, -1.00, 0.0, 768.0)"><g><clipPath id="clip0x60800b2abc40"><path d="M 0.0 768.0 L 1024.0 768.0 L 1024.0 0.0 L 0.0 0.0 Z M 0.0 768.0 "></path></clipPath><g clip-path="url(#clip0x60800b2abc40)"><path d="M 0.0 768.0 L 1024.0 768.0 L 1024.0 0.0 L 0.0 0.0 Z M 0.0 768.0 " fill="url(#gradSh1.100)"></path></g></g><text xml:space="preserve" font-family="FiraSans-Light,Fira Sans" font-size="60.0" fill="#20313F" transform="matrix(1.00, 0.00, -0.00, -1.00, 258.8, 665.0)">B</text><text xml:space="preserve" font-family="FiraSans-Light,Fira Sans" font-size="60.0" fill="#20313F" transform="matrix(1.00, 0.00, -0.00, -1.00, 294.7, 665.0)">a</text><text xml:space="preserve" font-family="FiraSans-Light,Fira Sans" font-size="60.0" fill="#20313F" transform="matrix(1.00, 0.00, -0.00, -1.00, 326.3, 665.0)">y</text><text xml:space="preserve" font-family="FiraSans-Light,Fira Sans" font-size="60.0" fill="#20313F" transform="matrix(1.00, 0.00, -0.00, -1.00, 353.4, 665.0)">e</text><text xml:space="preserve" font-family="FiraSans-Light,Fira Sans" font-size="60.0" fill="#20313F" transform="matrix(1.00, 0.00, -0.00, -1.00, 385.7, 665.0)">s</text><text xml:space="preserve" font-family="FiraSans-Light,Fira Sans" font-size="60.0" fill="#20313F" transform="matrix(1.00, 0.00, -0.00, -1.00, 413.6, 665.0)">i</text><text xml:space="preserve" font-family="FiraSans-Light,Fira Sans" font-size="60.0" fill="#20313F" transform="matrix(1.00, 0.00, -0.00, -1.00, 429.8, 665.0)">a</text><text xml:space="preserve" font-family="FiraSans-Light,Fira Sans" font-size="60.0" fill="#20313F" transform="matrix(1.00, 0.00, -0.00, -1.00, 461.9, 665.0)">n</text><text xml:space="preserve" font-family="FiraSans-Light,Fira Sans" font-size="60.0" fill="#20313F" transform="matrix(1.00, 0.00, -0.00, -1.00, 497.0, 665.0)"> </text><text xml:space="preserve" font-family="FiraSans-Light,Fira Sans" font-size="60.0" fill="#20313F" transform="matrix(1.00, 0.00, -0.00, -1.00, 513.7, 665.0)">I</text><text xml:space="preserve" font-family="FiraSans-Light,Fira Sans" font-size="60.0" fill="#20313F" transform="matrix(1.00, 0.00, -0.00, -1.00, 530.6, 665.0)">n</text><text xml:space="preserve" font-family="FiraSans-Light,Fira Sans" font-size="60.0" fill="#20313F" transform="matrix(1.00, 0.00, -0.00, -1.00, 565.7, 665.0)">f</text><text xml:space="preserve" font-family="FiraSans-Light,Fira Sans" font-size="60.0" fill="#20313F" transform="matrix(1.00, 0.00, -0.00, -1.00, 584.3, 665.0)">e</text><text xml:space="preserve" font-family="FiraSans-Light,Fira Sans" font-size="60.0" fill="#20313F" transform="matrix(1.00, 0.00, -0.00, -1.00, 616.6, 665.0)">r</text><text xml:space="preserve" font-family="FiraSans-Light,Fira Sans" font-size="60.0" fill="#20313F" transform="matrix(1.00, 0.00, -0.00, -1.00, 638.4, 665.0)">e</text><text xml:space="preserve" font-family="FiraSans-Light,Fira Sans" font-size="60.0" fill="#20313F" transform="matrix(1.00, 0.00, -0.00, -1.00, 670.7, 665.0)">n</text><text xml:space="preserve" font-family="FiraSans-Light,Fira Sans" font-size="60.0" fill="#20313F" transform="matrix(1.00, 0.00, -0.00, -1.00, 705.7, 665.0)">c</text><text xml:space="preserve" font-family="FiraSans-Light,Fira Sans" font-size="60.0" fill="#20313F" transform="matrix(1.00, 0.00, -0.00, -1.00, 733.2, 665.0)">e</text><g><clipPath id="clip0x60800b8ac600"><path d="M 167.0 530.0 L 260.0 530.0 L 260.0 430.0 L 167.0 430.0 Z M 167.2 529.7 "></path></clipPath><g clip-path="url(#clip0x60800b8ac600)"><image xlink:href="../../E036354C-45F9-49EF-A44E-38E45C76C8A9/assets/A7824EB60E7B37FF1FA79F367EC85489.png" width="304.00" height="326.00" transform="matrix(0.48, 0.00, -0.00, -0.48, 138.6, 530.6)"></image></g></g><image xlink:href="../../E036354C-45F9-49EF-A44E-38E45C76C8A9/assets/12F5562B95BE4D448F9A73BF306637F2.png" width="103.00" height="113.00" transform="matrix(1.00, 0.00, -0.00, 1.00, 162.2, 420.0)"></image><image xlink:href="../../E036354C-45F9-49EF-A44E-38E45C76C8A9/assets/A2206BBA809CF0994CD01C04E0871326.png" width="612.00" height="108.00" transform="matrix(1.00, 0.00, -0.00, -1.00, 260.3, 531.4)" opacity="0.50"></image><path d="M 333.0 528.5 C 322.0 529.0 313.5 520.0 313.5 509.0 L 313.5 496.4 L 262.0 485.8 L 313.5 475.1 L 313.5 452.0 C 313.5 441.0 322.0 431.5 333.0 431.5 L 844.0 431.5 C 855.0 431.5 864.5 441.0 864.5 452.0 L 864.5 509.0 C 864.5 520.0 855.0 528.5 844.0 528.5 L 333.0 528.5 Z M 333.0 529.0 " fill="#FFFFFF"></path><path d="M 20.0 0.5 C 9.0 0.0 0.5 9.0 0.5 20.0 L 0.5 32.6 L -51.0 43.2 L 0.5 53.9 L 0.5 77.0 C 0.5 88.0 9.0 97.5 20.0 97.5 L 531.0 97.5 C 542.0 97.5 551.5 88.0 551.5 77.0 L 551.5 20.0 C 551.5 9.0 542.0 0.5 531.0 0.5 L 20.0 0.5 Z M 20.0 0.0 " fill="none" stroke="#2B3E56" stroke-width="3.00" transform="matrix(1.00, 0.00, 0.00, -1.00, 313.0, 529.0)"></path><g><clipPath id="clip0x618009cb6da0"><path d="M 347.1 463.9 L 822.2 463.9 L 822.2 502.3 L 347.1 502.3 Z M 347.1 463.9 "></path></clipPath><g clip-path="url(#clip0x618009cb6da0)"><path d="M 357.1 491.1 L 351.7 489.9 L 351.7 489.0 L 354.6 488.6 L 350.6 466.4 L 350.2 465.9 L 348.0 465.5 L 348.0 464.3 L 357.2 464.3 L 357.2 465.5 L 353.5 466.1 L 354.8 473.2 C 355.8 472.8 356.7 472.5 357.7 472.5 C 360.3 472.5 363.1 473.8 365.0 475.9 C 367.2 478.3 368.2 481.1 368.2 484.4 C 368.2 488.8 366.4 491.1 363.4 491.1 C 361.7 491.1 359.8 490.3 357.6 488.8 L 358.1 491.1 L 357.1 491.1 Z M 355.2 475.2 L 357.4 487.1 C 359.1 488.4 360.5 489.1 361.6 489.1 C 363.7 489.1 365.1 487.4 365.1 484.4 C 365.1 481.3 364.0 478.2 362.7 476.5 C 361.6 475.0 360.1 474.2 358.5 474.2 C 357.4 474.2 356.3 474.5 355.2 475.2 " fill="#000000"></path><path d="M 376.7 483.7 C 376.7 494.1 379.8 499.3 384.2 500.1 L 384.2 501.9 C 377.8 501.1 373.5 495.2 373.5 483.7 C 373.5 472.1 377.8 466.2 384.2 465.5 L 384.2 467.2 C 379.8 468.0 376.7 473.2 376.7 483.7 " fill="#000000"></path><path d="M 394.5 491.5 L 389.3 489.8 L 389.3 488.5 L 392.8 488.3 C 393.5 487.3 394.3 485.0 395.4 481.5 C 394.1 478.8 392.5 476.9 391.0 475.8 L 389.3 477.8 C 387.8 477.4 386.9 476.3 386.9 475.1 C 386.9 473.8 388.1 472.6 389.6 472.6 C 391.8 472.6 393.8 474.9 396.3 479.5 C 397.3 474.6 398.5 472.4 401.4 472.4 C 402.6 472.4 404.3 472.8 406.5 473.5 L 406.5 475.0 C 405.7 474.8 405.0 474.7 404.4 474.7 C 401.8 474.7 401.3 477.3 399.7 482.8 C 401.0 485.6 402.5 487.3 403.9 487.9 L 405.4 485.9 C 407.0 486.4 407.8 487.5 407.8 488.8 C 407.8 490.2 406.9 491.3 405.4 491.3 C 403.3 491.3 401.1 489.0 398.8 484.7 C 397.6 489.4 396.9 491.5 394.8 491.5 C 394.7 491.5 394.6 491.5 394.5 491.5 " fill="#52A700"></path><path d="M 422.1 465.5 L 424.4 465.5 L 424.4 501.9 L 422.1 501.9 Z M 422.1 465.5 " fill="#000000"></path><path d="M 442.3 491.5 L 436.4 490.2 L 436.4 488.9 L 439.7 488.6 C 440.1 487.8 440.5 486.8 440.7 485.8 L 443.0 473.7 L 444.4 473.7 C 442.3 469.7 440.4 467.7 438.7 467.5 L 436.2 469.9 C 434.8 469.6 434.0 468.7 434.0 467.3 C 434.0 465.8 435.3 464.4 437.2 464.4 C 440.3 464.4 443.5 467.4 446.8 473.5 C 449.8 478.7 451.3 484.2 454.3 488.2 L 456.5 489.5 L 456.5 490.5 L 453.5 491.5 L 452.3 491.5 C 450.0 486.0 448.0 481.2 446.5 477.3 L 445.2 485.6 C 444.6 489.3 443.9 491.2 442.3 491.5 " fill="#B30000"></path><path d="M 469.0 483.7 C 469.0 473.2 466.0 468.0 461.6 467.2 L 461.6 465.5 C 467.9 466.2 472.3 472.1 472.3 483.7 C 472.3 495.2 467.9 501.1 461.6 501.9 L 461.6 500.1 C 466.0 499.3 469.0 494.1 469.0 483.7 " fill="#000000"></path><path d="M 485.5 486.7 L 511.2 486.7 L 511.2 488.9 L 485.5 488.9 L 485.5 486.7 Z M 485.5 478.4 L 511.2 478.4 L 511.2 480.7 L 485.5 480.7 L 485.5 478.4 " fill="#000000"></path><path d="M 530.7 491.1 L 525.3 489.9 L 525.3 489.0 L 528.2 488.6 L 524.2 466.4 L 523.9 465.9 L 521.6 465.5 L 521.6 464.3 L 530.8 464.3 L 530.8 465.5 L 527.1 466.1 L 528.4 473.2 C 529.3 472.8 530.4 472.5 531.3 472.5 C 533.9 472.5 536.6 473.8 538.6 475.9 C 540.8 478.3 541.8 481.1 541.8 484.4 C 541.8 488.8 540.0 491.1 537.0 491.1 C 535.4 491.1 533.4 490.3 531.2 488.8 L 531.7 491.1 L 530.7 491.1 Z M 528.8 475.2 L 531.0 487.1 C 532.7 488.4 534.1 489.1 535.2 489.1 C 537.3 489.1 538.7 487.4 538.7 484.4 C 538.7 481.3 537.6 478.2 536.3 476.5 C 535.1 475.0 533.7 474.2 532.1 474.2 C 531.0 474.2 529.9 474.5 528.8 475.2 " fill="#000000"></path><path d="M 550.3 483.7 C 550.3 494.1 553.4 499.3 557.8 500.1 L 557.8 501.9 C 551.4 501.1 547.1 495.2 547.1 483.7 C 547.1 472.1 551.4 466.2 557.8 465.5 L 557.8 467.2 C 553.4 468.0 550.3 473.2 550.3 483.7 " fill="#000000"></path><path d="M 568.2 491.5 L 562.3 490.2 L 562.3 488.9 L 565.6 488.6 C 566.0 487.8 566.4 486.8 566.6 485.8 L 568.9 473.7 L 570.3 473.7 C 568.2 469.7 566.4 467.7 564.6 467.5 L 562.1 469.9 C 560.7 469.6 559.9 468.7 559.9 467.3 C 559.9 465.8 561.2 464.4 563.0 464.4 C 566.2 464.4 569.4 467.4 572.7 473.5 C 575.7 478.7 577.2 484.2 580.2 488.2 L 582.4 489.5 L 582.4 490.5 L 579.4 491.5 L 578.2 491.5 C 575.9 486.0 573.9 481.2 572.4 477.3 L 571.1 485.6 C 570.5 489.3 569.8 491.2 568.2 491.5 " fill="#B30000"></path><path d="M 594.9 465.5 L 597.2 465.5 L 597.2 501.9 L 594.9 501.9 Z M 594.9 465.5 " fill="#000000"></path><path d="M 614.9 491.5 L 609.7 489.8 L 609.7 488.5 L 613.2 488.3 C 613.9 487.3 614.7 485.0 615.8 481.5 C 614.5 478.8 612.9 476.9 611.4 475.8 L 609.7 477.8 C 608.2 477.4 607.3 476.3 607.3 475.1 C 607.3 473.8 608.5 472.6 610.0 472.6 C 612.2 472.6 614.2 474.9 616.7 479.5 C 617.7 474.6 618.9 472.4 621.8 472.4 C 623.0 472.4 624.7 472.8 626.9 473.5 L 626.9 475.0 C 626.1 474.8 625.4 474.7 624.8 474.7 C 622.2 474.7 621.7 477.3 620.1 482.8 C 621.4 485.6 622.9 487.3 624.3 487.9 L 625.8 485.9 C 627.4 486.4 628.3 487.5 628.3 488.8 C 628.3 490.2 627.2 491.3 625.8 491.3 C 623.7 491.3 621.5 489.0 619.2 484.7 C 618.0 489.4 617.3 491.5 615.2 491.5 C 615.1 491.5 615.0 491.5 614.9 491.5 " fill="#52A700"></path><path d="M 642.6 483.7 C 642.6 473.2 639.5 468.0 635.2 467.2 L 635.2 465.5 C 641.5 466.2 645.9 472.1 645.9 483.7 C 645.9 495.2 641.5 501.1 635.2 501.9 L 635.2 500.1 C 639.5 499.3 642.6 494.1 642.6 483.7 " fill="#000000"></path><path d="M 656.5 491.1 L 651.1 489.9 L 651.1 489.0 L 654.0 488.6 L 650.0 466.4 L 649.6 465.9 L 647.4 465.5 L 647.4 464.3 L 656.6 464.3 L 656.6 465.5 L 652.9 466.1 L 654.2 473.2 C 655.2 472.8 656.1 472.5 657.1 472.5 C 659.7 472.5 662.4 473.8 664.4 475.9 C 666.6 478.3 667.6 481.1 667.6 484.4 C 667.6 488.8 665.8 491.1 662.8 491.1 C 661.1 491.1 659.2 490.3 657.0 488.8 L 657.5 491.1 L 656.5 491.1 Z M 654.6 475.2 L 656.8 487.1 C 658.5 488.4 659.9 489.1 661.0 489.1 C 663.1 489.1 664.5 487.4 664.5 484.4 C 664.5 481.3 663.4 478.2 662.1 476.5 C 661.0 475.0 659.5 474.2 657.9 474.2 C 656.8 474.2 655.7 474.5 654.6 475.2 " fill="#000000"></path><path d="M 676.0 483.7 C 676.0 494.1 679.1 499.3 683.5 500.1 L 683.5 501.9 C 677.1 501.1 672.8 495.2 672.8 483.7 C 672.8 472.1 677.1 466.2 683.5 465.5 L 683.5 467.2 C 679.1 468.0 676.0 473.2 676.0 483.7 " fill="#000000"></path><path d="M 693.8 491.5 L 688.6 489.8 L 688.6 488.5 L 692.1 488.3 C 692.8 487.3 693.6 485.0 694.7 481.5 C 693.4 478.8 691.8 476.9 690.3 475.8 L 688.6 477.8 C 687.1 477.4 686.2 476.3 686.2 475.1 C 686.2 473.8 687.4 472.6 688.9 472.6 C 691.1 472.6 693.1 474.9 695.6 479.5 C 696.6 474.6 697.8 472.4 700.7 472.4 C 701.9 472.4 703.6 472.8 705.8 473.5 L 705.8 475.0 C 705.0 474.8 704.3 474.7 703.7 474.7 C 701.1 474.7 700.6 477.3 699.0 482.8 C 700.3 485.6 701.8 487.3 703.2 487.9 L 704.7 485.9 C 706.3 486.4 707.2 487.5 707.2 488.8 C 707.2 490.2 706.1 491.3 704.7 491.3 C 702.6 491.3 700.4 489.0 698.1 484.7 C 696.9 489.4 696.2 491.5 694.1 491.5 C 694.0 491.5 693.9 491.5 693.8 491.5 " fill="#52A700"></path><path d="M 721.5 483.7 C 721.5 473.2 718.4 468.0 714.1 467.2 L 714.1 465.5 C 720.4 466.2 724.8 472.1 724.8 483.7 C 724.8 495.2 720.4 501.1 714.1 501.9 L 714.1 500.1 C 718.4 499.3 721.5 494.1 721.5 483.7 " fill="#000000"></path><path d="M 744.1 501.9 L 741.7 501.9 L 729.2 465.5 L 731.6 465.5 L 744.1 501.9 " fill="#000000"></path><path d="M 754.7 491.1 L 749.3 489.9 L 749.3 489.0 L 752.2 488.6 L 748.2 466.4 L 747.8 465.9 L 745.6 465.5 L 745.6 464.3 L 754.8 464.3 L 754.8 465.5 L 751.1 466.1 L 752.4 473.2 C 753.4 472.8 754.3 472.5 755.3 472.5 C 757.9 472.5 760.7 473.8 762.6 475.9 C 764.8 478.3 765.8 481.1 765.8 484.4 C 765.8 488.8 764.0 491.1 761.0 491.1 C 759.3 491.1 757.4 490.3 755.2 488.8 L 755.7 491.1 L 754.7 491.1 Z M 752.8 475.2 L 755.0 487.1 C 756.7 488.4 758.1 489.1 759.2 489.1 C 761.3 489.1 762.7 487.4 762.7 484.4 C 762.7 481.3 761.6 478.2 760.3 476.5 C 759.2 475.0 757.7 474.2 756.1 474.2 C 755.0 474.2 753.9 474.5 752.8 475.2 " fill="#000000"></path><path d="M 774.3 483.7 C 774.3 494.1 777.4 499.3 781.8 500.1 L 781.8 501.9 C 775.4 501.1 771.1 495.2 771.1 483.7 C 771.1 472.1 775.4 466.2 781.8 465.5 L 781.8 467.2 C 777.4 468.0 774.3 473.2 774.3 483.7 " fill="#000000"></path><path d="M 792.2 491.5 L 786.3 490.2 L 786.3 488.9 L 789.6 488.6 C 790.0 487.8 790.4 486.8 790.6 485.8 L 792.9 473.7 L 794.3 473.7 C 792.3 469.7 790.3 467.7 788.6 467.5 L 786.1 469.9 C 784.7 469.6 783.8 468.7 783.8 467.3 C 783.8 465.8 785.2 464.4 787.1 464.4 C 790.2 464.4 793.4 467.4 796.7 473.5 C 799.7 478.7 801.2 484.2 804.2 488.2 L 806.4 489.5 L 806.4 490.5 L 803.4 491.5 L 802.2 491.5 C 799.8 486.0 798.0 481.2 796.4 477.3 L 795.1 485.6 C 794.5 489.3 793.8 491.2 792.2 491.5 " fill="#B30000"></path><path d="M 818.9 483.7 C 818.9 473.2 815.9 468.0 811.5 467.2 L 811.5 465.5 C 817.8 466.2 822.2 472.1 822.2 483.7 C 822.2 495.2 817.8 501.1 811.5 501.9 L 811.5 500.1 C 815.9 499.3 818.9 494.1 818.9 483.7 " fill="#000000"></path></g></g><text xml:space="preserve" font-family="FiraSans-Book,Fira Sans" font-size="28.0" fill="#20313F" transform="matrix(1.00, 0.00, -0.00, -1.00, 373.0, 391.8)">P</text><text xml:space="preserve" font-family="FiraSans-Book,Fira Sans" font-size="28.0" fill="#20313F" transform="matrix(1.00, 0.00, -0.00, -1.00, 388.6, 391.8)">o</text><text xml:space="preserve" font-family="FiraSans-Book,Fira Sans" font-size="28.0" fill="#20313F" transform="matrix(1.00, 0.00, -0.00, -1.00, 404.9, 391.8)">s</text><text xml:space="preserve" font-family="FiraSans-Book,Fira Sans" font-size="28.0" fill="#20313F" transform="matrix(1.00, 0.00, -0.00, -1.00, 417.9, 391.8)">t</text><text xml:space="preserve" font-family="FiraSans-Book,Fira Sans" font-size="28.0" fill="#20313F" transform="matrix(1.00, 0.00, -0.00, -1.00, 427.6, 391.8)">e</text><text xml:space="preserve" font-family="FiraSans-Book,Fira Sans" font-size="28.0" fill="#20313F" transform="matrix(1.00, 0.00, -0.00, -1.00, 442.9, 391.8)">r</text><text xml:space="preserve" font-family="FiraSans-Book,Fira Sans" font-size="28.0" fill="#20313F" transform="matrix(1.00, 0.00, -0.00, -1.00, 453.7, 391.8)">i</text><text xml:space="preserve" font-family="FiraSans-Book,Fira Sans" font-size="28.0" fill="#20313F" transform="matrix(1.00, 0.00, -0.00, -1.00, 461.5, 391.8)">o</text><text xml:space="preserve" font-family="FiraSans-Book,Fira Sans" font-size="28.0" fill="#20313F" transform="matrix(1.00, 0.00, -0.00, -1.00, 477.7, 391.8)">r</text><text xml:space="preserve" font-family="FiraSans-Book,Fira Sans" font-size="28.0" fill="#20313F" transform="matrix(1.00, 0.00, -0.00, -1.00, 552.8, 391.1)">L</text><text xml:space="preserve" font-family="FiraSans-Book,Fira Sans" font-size="28.0" fill="#20313F" transform="matrix(1.00, 0.00, -0.00, -1.00, 566.6, 391.1)">i</text><text xml:space="preserve" font-family="FiraSans-Book,Fira Sans" font-size="28.0" fill="#20313F" transform="matrix(1.00, 0.00, -0.00, -1.00, 574.4, 391.1)">k</text><text xml:space="preserve" font-family="FiraSans-Book,Fira Sans" font-size="28.0" fill="#20313F" transform="matrix(1.00, 0.00, -0.00, -1.00, 588.3, 391.1)">e</text><text xml:space="preserve" font-family="FiraSans-Book,Fira Sans" font-size="28.0" fill="#20313F" transform="matrix(1.00, 0.00, -0.00, -1.00, 603.6, 391.1)">l</text><text xml:space="preserve" font-family="FiraSans-Book,Fira Sans" font-size="28.0" fill="#20313F" transform="matrix(1.00, 0.00, -0.00, -1.00, 611.7, 391.1)">i</text><text xml:space="preserve" font-family="FiraSans-Book,Fira Sans" font-size="28.0" fill="#20313F" transform="matrix(1.00, 0.00, -0.00, -1.00, 619.6, 391.1)">h</text><text xml:space="preserve" font-family="FiraSans-Book,Fira Sans" font-size="28.0" fill="#20313F" transform="matrix(1.00, 0.00, -0.00, -1.00, 635.9, 391.1)">o</text><text xml:space="preserve" font-family="FiraSans-Book,Fira Sans" font-size="28.0" fill="#20313F" transform="matrix(1.00, 0.00, -0.00, -1.00, 652.2, 391.1)">o</text><text xml:space="preserve" font-family="FiraSans-Book,Fira Sans" font-size="28.0" fill="#20313F" transform="matrix(1.00, 0.00, -0.00, -1.00, 668.5, 391.1)">d</text><text xml:space="preserve" font-family="FiraSans-Book,Fira Sans" font-size="28.0" fill="#20313F" transform="matrix(1.00, 0.00, -0.00, -1.00, 731.7, 390.3)">P</text><text xml:space="preserve" font-family="FiraSans-Book,Fira Sans" font-size="28.0" fill="#20313F" transform="matrix(1.00, 0.00, -0.00, -1.00, 747.9, 390.3)">r</text><text xml:space="preserve" font-family="FiraSans-Book,Fira Sans" font-size="28.0" fill="#20313F" transform="matrix(1.00, 0.00, -0.00, -1.00, 758.6, 390.3)">i</text><text xml:space="preserve" font-family="FiraSans-Book,Fira Sans" font-size="28.0" fill="#20313F" transform="matrix(1.00, 0.00, -0.00, -1.00, 766.4, 390.3)">o</text><text xml:space="preserve" font-family="FiraSans-Book,Fira Sans" font-size="28.0" fill="#20313F" transform="matrix(1.00, 0.00, -0.00, -1.00, 782.7, 390.3)">r</text><path d="M 14.2 50.8 L 0.2 50.8 L 0.2 -0.2 " fill="none" stroke="#000000" stroke-width="2.00" transform="matrix(1.00, 0.00, 0.00, -1.00, 352.8, 453.8)"></path><path d="M 14.2 51.8 L 0.2 51.8 L 0.2 -0.2 " fill="none" stroke="#000000" stroke-width="2.00" transform="matrix(1.00, 0.00, 0.00, -1.00, 527.8, 453.8)"></path><path d="M 14.8 45.1 L -0.2 45.1 L -0.2 0.1 " fill="none" stroke="#000000" stroke-width="2.00" transform="matrix(1.00, 0.00, 0.00, -1.00, 711.2, 445.1)"></path><image xlink:href="../../259CD4A6-BB19-4B3D-86C7-0971C42D71A5/assets/640C432AE54A3286D24AF68DCAAFC99D.png" width="640.00" height="430.00" transform="matrix(0.26, 0.00, -0.00, -0.26, 130.0, 242.0)"></image><text xml:space="preserve" font-family="FiraSans-MediumItalic,Fira Sans" font-style="italic" font-size="28.0" fill="#2A4054" transform="matrix(1.00, 0.00, -0.00, -1.00, 493.0, 286.2)">E</text><text xml:space="preserve" font-family="FiraSans-MediumItalic,Fira Sans" font-style="italic" font-size="28.0" fill="#2A4054" transform="matrix(1.00, 0.00, -0.00, -1.00, 507.6, 286.2)">x</text><text xml:space="preserve" font-family="FiraSans-MediumItalic,Fira Sans" font-style="italic" font-size="28.0" fill="#2A4054" transform="matrix(1.00, 0.00, -0.00, -1.00, 520.8, 286.2)">a</text><text xml:space="preserve" font-family="FiraSans-MediumItalic,Fira Sans" font-style="italic" font-size="28.0" fill="#2A4054" transform="matrix(1.00, 0.00, -0.00, -1.00, 536.8, 286.2)">m</text><text xml:space="preserve" font-family="FiraSans-MediumItalic,Fira Sans" font-style="italic" font-size="28.0" fill="#2A4054" transform="matrix(1.00, 0.00, -0.00, -1.00, 560.3, 286.2)">p</text><text xml:space="preserve" font-family="FiraSans-MediumItalic,Fira Sans" font-style="italic" font-size="28.0" fill="#2A4054" transform="matrix(1.00, 0.00, -0.00, -1.00, 576.8, 286.2)">l</text><text xml:space="preserve" font-family="FiraSans-MediumItalic,Fira Sans" font-style="italic" font-size="28.0" fill="#2A4054" transform="matrix(1.00, 0.00, -0.00, -1.00, 584.6, 286.2)">e</text><text xml:space="preserve" font-family="FiraSans-MediumItalic,Fira Sans" font-style="italic" font-size="28.0" fill="#2A4054" transform="matrix(1.00, 0.00, -0.00, -1.00, 599.5, 286.2)">:</text><text xml:space="preserve" font-family="FiraSans-MediumItalic,Fira Sans" font-style="italic" font-size="28.0" fill="#2A4054" transform="matrix(1.00, 0.00, -0.00, -1.00, 606.2, 286.2)"> </text><text xml:space="preserve" font-family="FiraSans-MediumItalic,Fira Sans" font-style="italic" font-size="28.0" fill="#2A4054" transform="matrix(1.00, 0.00, -0.00, -1.00, 613.0, 286.2)">B</text><text xml:space="preserve" font-family="FiraSans-MediumItalic,Fira Sans" font-style="italic" font-size="28.0" fill="#2A4054" transform="matrix(1.00, 0.00, -0.00, -1.00, 629.9, 286.2)">i</text><text xml:space="preserve" font-family="FiraSans-MediumItalic,Fira Sans" font-style="italic" font-size="28.0" fill="#2A4054" transform="matrix(1.00, 0.00, -0.00, -1.00, 637.7, 286.2)">a</text><text xml:space="preserve" font-family="FiraSans-MediumItalic,Fira Sans" font-style="italic" font-size="28.0" fill="#2A4054" transform="matrix(1.00, 0.00, -0.00, -1.00, 653.7, 286.2)">s</text><text xml:space="preserve" font-family="FiraSans-MediumItalic,Fira Sans" font-style="italic" font-size="28.0" fill="#2A4054" transform="matrix(1.00, 0.00, -0.00, -1.00, 666.8, 286.2)">e</text><text xml:space="preserve" font-family="FiraSans-MediumItalic,Fira Sans" font-style="italic" font-size="28.0" fill="#2A4054" transform="matrix(1.00, 0.00, -0.00, -1.00, 681.6, 286.2)">d</text><text xml:space="preserve" font-family="FiraSans-MediumItalic,Fira Sans" font-style="italic" font-size="28.0" fill="#2A4054" transform="matrix(1.00, 0.00, -0.00, -1.00, 698.2, 286.2)"> </text><text xml:space="preserve" font-family="FiraSans-MediumItalic,Fira Sans" font-style="italic" font-size="28.0" fill="#2A4054" transform="matrix(1.00, 0.00, -0.00, -1.00, 705.0, 286.2)">C</text><text xml:space="preserve" font-family="FiraSans-MediumItalic,Fira Sans" font-style="italic" font-size="28.0" fill="#2A4054" transform="matrix(1.00, 0.00, -0.00, -1.00, 720.4, 286.2)">o</text><text xml:space="preserve" font-family="FiraSans-MediumItalic,Fira Sans" font-style="italic" font-size="28.0" fill="#2A4054" transform="matrix(1.00, 0.00, -0.00, -1.00, 736.5, 286.2)">i</text><text xml:space="preserve" font-family="FiraSans-MediumItalic,Fira Sans" font-style="italic" font-size="28.0" fill="#2A4054" transform="matrix(1.00, 0.00, -0.00, -1.00, 744.4, 286.2)">n</text><g><clipPath id="clip0x61000c2ac6c0"><path d="M 585.8 33.3 L 603.4 33.3 L 603.4 49.0 L 585.8 49.0 Z M 585.8 33.3 "></path></clipPath><g clip-path="url(#clip0x61000c2ac6c0)"><path d="M 592.4 48.9 L 588.2 47.5 L 588.2 46.5 L 591.0 46.3 C 591.5 45.4 592.2 43.6 593.1 40.8 C 592.0 38.6 590.8 37.1 589.5 36.3 L 588.2 37.9 C 587.0 37.6 586.2 36.7 586.2 35.7 C 586.2 34.6 587.2 33.7 588.4 33.7 C 590.2 33.7 591.8 35.6 593.8 39.2 C 594.6 35.3 595.5 33.6 597.9 33.6 C 598.8 33.6 600.2 33.9 601.9 34.4 L 601.9 35.6 C 601.3 35.5 600.8 35.4 600.3 35.4 C 598.2 35.4 597.8 37.4 596.5 41.9 C 597.6 44.1 598.7 45.5 599.9 46.0 L 601.1 44.4 C 602.3 44.7 603.0 45.6 603.0 46.7 C 603.0 47.8 602.2 48.7 601.1 48.7 C 599.4 48.7 597.7 46.9 595.8 43.4 C 594.8 47.1 594.3 48.9 592.6 48.9 C 592.5 48.9 592.4 48.9 592.4 48.9 " fill="#52A700"></path></g></g><text xml:space="preserve" font-family="FiraSans-Book,Fira Sans" font-size="24.0" fill="#2A4054" transform="matrix(1.00, 0.00, -0.00, -1.00, 625.0, 33.2)">(</text><text xml:space="preserve" font-family="FiraSans-Book,Fira Sans" font-size="24.0" fill="#2A4054" transform="matrix(1.00, 0.00, -0.00, -1.00, 632.7, 33.2)">b</text><text xml:space="preserve" font-family="FiraSans-Book,Fira Sans" font-size="24.0" fill="#2A4054" transform="matrix(1.00, 0.00, -0.00, -1.00, 646.9, 33.2)">i</text><text xml:space="preserve" font-family="FiraSans-Book,Fira Sans" font-size="24.0" fill="#2A4054" transform="matrix(1.00, 0.00, -0.00, -1.00, 653.6, 33.2)">a</text><text xml:space="preserve" font-family="FiraSans-Book,Fira Sans" font-size="24.0" fill="#2A4054" transform="matrix(1.00, 0.00, -0.00, -1.00, 666.6, 33.2)">s</text><text xml:space="preserve" font-family="FiraSans-Book,Fira Sans" font-size="24.0" fill="#2A4054" transform="matrix(1.00, 0.00, -0.00, -1.00, 677.8, 33.2)">)</text><g><clipPath id="clip0x61000c2acba0"><path d="M 389.2 120.1 L 389.2 220.1 L 358.2 220.1 L 358.2 120.1 Z M 389.2 120.1 "></path></clipPath><g clip-path="url(#clip0x61000c2acba0)"><g><clipPath id="clip0x61000c2acd20"><path d="M 389.0 120.4 L 389.0 220.4 L 358.0 220.4 L 358.0 120.4 Z M 389.0 120.4 "></path></clipPath><g clip-path="url(#clip0x61000c2acd20)"><path d="M 367.4 127.9 L 368.3 123.6 L 369.0 123.6 L 369.3 126.0 L 387.1 122.8 L 387.5 122.5 L 387.8 120.7 L 388.7 120.7 L 388.7 128.0 L 387.8 128.0 L 387.3 125.1 L 381.6 126.1 C 382.0 126.9 382.2 127.7 382.2 128.5 C 382.2 130.5 381.2 132.7 379.5 134.3 C 377.6 136.0 375.3 136.8 372.7 136.8 C 369.2 136.8 367.4 135.4 367.4 133.0 C 367.4 131.7 368.0 130.1 369.2 128.4 L 367.4 128.7 L 367.4 127.9 Z M 380.0 126.4 L 370.5 128.1 C 369.5 129.5 368.9 130.6 368.9 131.6 C 368.9 133.2 370.3 134.3 372.7 134.3 C 375.2 134.3 377.6 133.5 379.0 132.5 C 380.2 131.5 380.9 130.4 380.9 129.0 C 380.9 128.2 380.6 127.3 380.0 126.4 " fill="#000000"></path><path d="M 373.3 143.6 C 364.9 143.6 360.7 146.0 360.1 149.5 L 358.7 149.5 C 359.3 144.5 364.0 141.0 373.3 141.0 C 382.5 141.0 387.2 144.5 387.8 149.5 L 386.4 149.5 C 385.8 146.0 381.7 143.6 373.3 143.6 " fill="#000000"></path><path d="M 367.0 157.8 L 368.3 153.6 L 369.3 153.6 L 369.6 156.4 C 370.4 157.0 372.2 157.7 375.0 158.5 C 377.2 157.5 378.7 156.2 379.6 155.0 L 377.9 153.7 C 378.2 152.4 379.1 151.7 380.1 151.7 C 381.2 151.7 382.1 152.7 382.1 153.9 C 382.1 155.6 380.3 157.2 376.6 159.2 C 380.5 160.1 382.3 161.0 382.3 163.3 C 382.3 164.3 381.9 165.6 381.4 167.4 L 380.2 167.4 C 380.4 166.8 380.4 166.2 380.4 165.7 C 380.4 163.7 378.4 163.2 374.0 161.9 C 371.7 163.0 370.4 164.2 369.9 165.3 L 371.5 166.5 C 371.1 167.8 370.2 168.5 369.1 168.5 C 368.0 168.5 367.2 167.7 367.2 166.6 C 367.2 164.8 368.9 163.1 372.4 161.2 C 368.7 160.3 367.0 159.7 367.0 158.0 C 367.0 158.0 367.0 157.9 367.0 157.8 " fill="#52A700"></path><path d="M 387.8 180.0 L 387.8 181.9 L 358.7 181.9 L 358.7 180.0 Z M 387.8 180.0 " fill="#000000"></path><path d="M 367.0 196.0 L 368.0 191.3 L 369.1 191.3 L 369.3 194.0 C 369.9 194.3 370.7 194.6 371.6 194.8 L 381.3 196.6 L 381.3 197.7 C 384.4 196.1 386.1 194.6 386.2 193.2 L 384.3 191.1 C 384.5 190.1 385.3 189.4 386.3 189.4 C 387.5 189.4 388.7 190.5 388.7 191.9 C 388.7 194.4 386.3 197.0 381.4 199.7 C 377.2 202.0 372.8 203.3 369.6 205.7 L 368.6 207.4 L 367.8 207.4 L 367.0 205.0 L 367.0 204.1 C 371.4 202.2 375.2 200.6 378.3 199.4 L 371.7 198.4 C 368.7 197.9 367.2 197.4 367.0 196.0 " fill="#B30000"></path><path d="M 373.3 217.4 C 381.7 217.4 385.8 215.0 386.4 211.5 L 387.8 211.5 C 387.2 216.5 382.5 220.0 373.3 220.0 C 364.0 220.0 359.3 216.5 358.7 211.5 L 360.1 211.5 C 360.7 215.0 364.9 217.4 373.3 217.4 " fill="#000000"></path></g></g></g></g><g><clipPath id="clip0x61000c2ad1a0"><path d="M 411.0 258.0 L 869.0 258.0 L 869.0 65.0 L 411.0 65.0 Z M 411.5 258.0 "></path></clipPath><g clip-path="url(#clip0x61000c2ad1a0)"><image xlink:href="../../6E1EE2D7-88E9-47B7-9C9E-D5260F2D5D67/assets/9ED8154EB17DCC1CE2A82FA2A0A6DC91.png" width="820.00" height="378.00" transform="matrix(0.59, 0.00, -0.00, -0.59, 385.0, 258.0)"></image></g></g></g></svg>