<?xml version="1.0" encoding="UTF-8" standalone="no"?><svg xmlns="http://www.w3.org/2000/svg" xmlns:xlink="http://www.w3.org/1999/xlink" clip-rule="evenodd" stroke-miterlimit="10" viewBox="0 0 1024 768"><desc>SVG generated by Keynote</desc><defs><linearGradient id="gradSh1.112" x1="0.0" y1="0.0" x2="100.0" y2="0.0" gradientUnits="userSpaceOnUse" gradientTransform="matrix(0.00, -7.70, -10.26, 0.00, 512.0, 769.0)"><stop offset="0.00000" stop-color="#FFFFFF"></stop><stop offset="0.01906" stop-color="#FEFFFF"></stop><stop offset="1.00000" stop-color="#E5F3FF"></stop></linearGradient></defs><g transform="matrix(1.00, 0.00, -0.00, -1.00, 0.0, 768.0)"><g><clipPath id="clip0x61000e2abe80"><path d="M 0.0 768.0 L 1024.0 768.0 L 1024.0 0.0 L 0.0 0.0 Z M 0.0 768.0 "></path></clipPath><g clip-path="url(#clip0x61000e2abe80)"><path d="M 0.0 768.0 L 1024.0 768.0 L 1024.0 0.0 L 0.0 0.0 Z M 0.0 768.0 " fill="url(#gradSh1.112)"></path></g></g><g><clipPath id="clip0x61000e8ac180"><path d="M 52.0 633.0 L 972.0 633.0 L 972.0 146.0 L 52.0 146.0 Z M 51.6 633.4 "></path></clipPath><g clip-path="url(#clip0x61000e8ac180)"><image xlink:href="../../C7786225-8F31-4B01-8912-E60135139446/assets/8F3505D66CD166785FEFAB2F7F2572D1.png" width="1700.00" height="900.00" transform="matrix(0.54, 0.00, -0.00, -0.54, 51.6, 633.4)"></image></g></g><image xlink:href="../../D6489DBF-8732-4CD3-A46A-3E6047F13E16/assets/5A033879404E1D73527B527EF27D220A.png" width="927.00" height="497.00" transform="matrix(1.00, 0.00, -0.00, 1.00, 48.6, 137.9)"></image><g><clipPath id="clip0x60800c4be540"><path d="M 58.3 81.6 L 205.8 81.6 L 205.8 121.2 L 58.3 121.2 Z M 58.3 81.6 "></path></clipPath><g clip-path="url(#clip0x60800c4be540)"><path d="M 65.0 107.6 L 60.8 106.3 L 60.8 105.3 L 63.6 105.1 C 64.2 104.2 64.8 102.4 65.7 99.6 C 64.7 97.4 63.4 95.9 62.2 95.1 L 60.8 96.7 C 59.6 96.4 58.9 95.5 58.9 94.5 C 58.9 93.4 59.9 92.5 61.1 92.5 C 62.8 92.5 64.4 94.4 66.4 98.0 C 67.3 94.1 68.2 92.4 70.5 92.4 C 71.5 92.4 72.8 92.7 74.6 93.2 L 74.6 94.4 C 73.9 94.3 73.4 94.2 72.9 94.2 C 70.8 94.2 70.4 96.2 69.1 100.6 C 70.2 102.9 71.4 104.3 72.5 104.8 L 73.7 103.1 C 75.0 103.5 75.7 104.4 75.7 105.5 C 75.7 106.6 74.9 107.4 73.7 107.4 C 72.0 107.4 70.3 105.7 68.4 102.2 C 67.5 105.9 66.9 107.6 65.2 107.6 C 65.2 107.6 65.1 107.6 65.0 107.6 " fill="#52A700"></path><path d="M 84.6 121.3 L 81.3 120.7 L 81.3 120.1 L 83.2 119.9 L 81.2 109.4 C 80.9 108.1 80.8 107.2 80.8 107.0 C 80.8 105.9 81.3 105.4 82.4 105.4 C 83.0 105.4 84.0 105.6 85.2 106.1 L 85.2 106.7 C 84.5 106.5 84.0 106.4 83.7 106.4 C 82.9 106.4 82.5 106.7 82.5 107.4 C 82.5 107.7 82.6 108.3 82.7 109.1 L 84.9 119.9 C 84.9 120.0 85.0 120.5 85.2 121.3 L 84.6 121.3 " fill="#000000"></path><path d="M 86.2 96.6 L 81.6 95.2 L 81.6 94.3 L 84.9 94.9 L 84.9 83.4 L 84.7 83.0 L 82.2 82.9 L 82.2 82.0 L 89.4 82.0 L 89.4 82.9 L 87.0 83.0 L 86.8 83.3 L 86.8 96.6 L 86.2 96.6 " fill="#000000"></path><path d="M 103.1 98.7 C 103.1 100.3 104.4 102.8 107.0 102.8 C 110.7 102.8 112.8 97.4 117.3 97.4 C 120.0 97.4 122.4 100.0 122.4 104.1 L 121.1 104.1 C 121.1 102.4 119.8 100.0 117.3 100.0 C 113.5 100.0 111.4 105.3 107.0 105.3 C 104.3 105.3 101.9 102.7 101.9 98.7 L 103.1 98.7 " fill="#000000"></path><path d="M 138.1 107.3 L 133.8 106.4 L 133.8 105.6 L 136.2 105.3 L 133.0 87.5 L 132.6 87.2 L 130.8 86.8 L 130.8 85.9 L 138.2 85.9 L 138.2 86.8 L 135.3 87.3 L 136.3 93.0 C 137.0 92.7 137.8 92.4 138.6 92.4 C 140.7 92.4 142.9 93.4 144.4 95.2 C 146.2 97.1 147.0 99.3 147.0 102.0 C 147.0 105.4 145.6 107.3 143.2 107.3 C 141.8 107.3 140.3 106.7 138.5 105.4 L 138.9 107.3 L 138.1 107.3 Z M 136.6 94.6 L 138.3 104.1 C 139.7 105.1 140.8 105.7 141.7 105.7 C 143.4 105.7 144.5 104.3 144.5 101.9 C 144.5 99.5 143.6 97.0 142.6 95.6 C 141.7 94.4 140.5 93.8 139.2 93.8 C 138.4 93.8 137.5 94.0 136.6 94.6 " fill="#000000"></path><path d="M 153.8 101.4 C 153.8 109.7 156.2 113.9 159.7 114.5 L 159.7 115.9 C 154.6 115.3 151.2 110.6 151.2 101.4 C 151.2 92.1 154.6 87.4 159.7 86.8 L 159.7 88.2 C 156.2 88.8 153.8 93.0 153.8 101.4 " fill="#000000"></path><path d="M 168.0 107.6 L 163.8 106.3 L 163.8 105.3 L 166.6 105.1 C 167.2 104.2 167.8 102.4 168.7 99.6 C 167.7 97.4 166.4 95.9 165.1 95.1 L 163.8 96.7 C 162.6 96.4 161.9 95.5 161.9 94.5 C 161.9 93.4 162.9 92.5 164.1 92.5 C 165.8 92.5 167.4 94.4 169.4 98.0 C 170.3 94.1 171.2 92.4 173.5 92.4 C 174.5 92.4 175.8 92.7 177.6 93.2 L 177.6 94.4 C 176.9 94.3 176.4 94.2 175.9 94.2 C 173.8 94.2 173.4 96.2 172.1 100.6 C 173.2 102.9 174.4 104.3 175.5 104.8 L 176.7 103.1 C 178.0 103.5 178.7 104.4 178.7 105.5 C 178.7 106.6 177.9 107.4 176.7 107.4 C 175.0 107.4 173.3 105.7 171.4 102.2 C 170.5 105.9 169.9 107.6 168.2 107.6 C 168.2 107.6 168.1 107.6 168.0 107.6 " fill="#52A700"></path><path d="M 189.1 100.2 L 184.5 98.8 L 184.5 97.9 L 187.8 98.5 L 187.8 87.0 L 187.6 86.6 L 185.1 86.5 L 185.1 85.5 L 192.3 85.5 L 192.3 86.5 L 190.0 86.6 L 189.7 86.9 L 189.7 100.2 L 189.1 100.2 " fill="#000000"></path><path d="M 203.6 101.4 C 203.6 93.0 201.2 88.8 197.7 88.2 L 197.7 86.8 C 202.7 87.4 206.2 92.1 206.2 101.4 C 206.2 110.6 202.7 115.3 197.7 115.9 L 197.7 114.5 C 201.2 113.9 203.6 109.7 203.6 101.4 " fill="#000000"></path></g></g><g><clipPath id="clip0x60800c4becc0"><path d="M 56.8 31.0 L 264.8 31.0 L 264.8 70.7 L 56.8 70.7 Z M 56.8 31.0 "></path></clipPath><g clip-path="url(#clip0x60800c4becc0)"><path d="M 60.3 56.9 L 56.8 55.8 L 56.8 55.1 L 59.0 54.8 L 59.9 42.7 L 59.6 42.0 L 61.6 42.0 C 64.7 47.4 66.6 50.9 67.4 52.7 L 68.2 42.0 L 69.9 42.0 C 75.0 48.7 77.8 52.8 77.8 55.1 C 77.8 56.2 77.2 56.8 76.2 56.8 C 75.5 56.8 75.0 56.6 74.6 56.1 L 75.3 52.5 C 74.6 50.4 72.8 47.7 70.3 44.3 C 69.9 49.5 69.6 53.5 69.5 56.3 L 67.6 56.1 C 66.0 52.3 64.0 48.6 62.0 44.7 L 61.4 56.8 L 60.3 56.9 " fill="#000000"></path><path d="M 83.6 70.8 L 80.3 70.1 L 80.3 69.6 L 82.3 69.4 L 80.2 58.9 C 79.9 57.5 79.8 56.7 79.8 56.4 C 79.8 55.3 80.3 54.8 81.4 54.8 C 82.0 54.8 83.0 55.0 84.2 55.5 L 84.2 56.2 C 83.6 56.0 83.1 55.9 82.7 55.9 C 81.9 55.9 81.5 56.2 81.5 56.9 C 81.5 57.2 81.6 57.8 81.7 58.6 L 83.9 69.4 C 83.9 69.5 84.0 70.0 84.2 70.8 L 83.6 70.8 " fill="#000000"></path><path d="M 86.0 46.0 L 81.4 44.7 L 81.4 43.8 L 84.7 44.3 L 84.7 32.8 L 84.5 32.5 L 82.0 32.4 L 82.0 31.4 L 89.2 31.4 L 89.2 32.3 L 86.9 32.4 L 86.6 32.8 L 86.6 46.0 L 86.0 46.0 " fill="#000000"></path><path d="M 129.1 51.7 L 105.3 51.7 L 109.0 55.6 L 107.8 56.9 L 101.7 51.1 L 101.7 50.6 L 107.8 44.7 L 109.0 46.1 L 105.3 49.9 L 129.1 49.9 L 129.1 51.7 " fill="#000000"></path><path d="M 144.7 56.7 L 140.4 55.8 L 140.4 55.1 L 142.8 54.8 L 139.6 37.0 L 139.3 36.6 L 137.5 36.3 L 137.5 35.4 L 144.8 35.4 L 144.8 36.3 L 141.9 36.8 L 142.9 42.5 C 143.7 42.1 144.5 41.9 145.3 41.9 C 147.3 41.9 149.5 42.9 151.1 44.6 C 152.8 46.5 153.6 48.8 153.6 51.4 C 153.6 54.9 152.2 56.7 149.8 56.7 C 148.5 56.7 146.9 56.1 145.1 54.9 L 145.5 56.7 L 144.7 56.7 Z M 143.2 44.1 L 144.9 53.6 C 146.3 54.6 147.4 55.2 148.4 55.2 C 150.0 55.2 151.1 53.8 151.1 51.4 C 151.1 48.9 150.3 46.5 149.2 45.1 C 148.3 43.9 147.2 43.2 145.8 43.2 C 145.0 43.2 144.1 43.5 143.2 44.1 " fill="#000000"></path><path d="M 160.5 50.8 C 160.5 59.2 162.9 63.3 166.4 64.0 L 166.4 65.4 C 161.4 64.8 157.9 60.0 157.9 50.8 C 157.9 41.6 161.4 36.9 166.4 36.3 L 166.4 37.7 C 162.9 38.3 160.5 42.4 160.5 50.8 " fill="#000000"></path><path d="M 174.7 57.1 L 170.0 56.1 L 170.0 55.0 L 172.7 54.8 C 173.0 54.2 173.3 53.4 173.5 52.5 L 175.3 42.8 L 176.5 42.8 C 174.8 39.7 173.3 38.0 171.9 37.9 L 169.9 39.8 C 168.7 39.6 168.1 38.8 168.1 37.8 C 168.1 36.6 169.2 35.4 170.6 35.4 C 173.2 35.4 175.7 37.8 178.4 42.7 C 180.7 46.9 181.9 51.3 184.3 54.5 L 186.1 55.5 L 186.1 56.3 L 183.7 57.1 L 182.8 57.1 C 180.9 52.7 179.4 48.9 178.1 45.7 L 177.1 52.4 C 176.6 55.4 176.1 56.9 174.7 57.1 " fill="#B30000"></path><path d="M 195.1 49.6 L 190.5 48.3 L 190.5 47.3 L 193.8 48.0 L 193.8 36.4 L 193.6 36.1 L 191.1 36.0 L 191.1 35.0 L 198.3 35.0 L 198.3 35.9 L 196.0 36.0 L 195.7 36.3 L 195.7 49.6 L 195.1 49.6 " fill="#000000"></path><path d="M 209.5 36.3 L 211.3 36.3 L 211.3 65.4 L 209.5 65.4 Z M 209.5 36.3 " fill="#000000"></path><path d="M 225.5 57.1 L 221.3 55.8 L 221.3 54.7 L 224.1 54.5 C 224.7 53.7 225.4 51.9 226.3 49.1 C 225.2 46.9 223.9 45.4 222.7 44.5 L 221.4 46.1 C 220.1 45.9 219.4 45.0 219.4 44.0 C 219.4 42.9 220.4 42.0 221.6 42.0 C 223.3 42.0 224.9 43.8 226.9 47.5 C 227.8 43.5 228.7 41.8 231.0 41.8 C 232.0 41.8 233.3 42.2 235.1 42.7 L 235.1 43.9 C 234.5 43.7 233.9 43.7 233.4 43.7 C 231.3 43.7 230.9 45.7 229.6 50.1 C 230.7 52.4 231.9 53.7 233.0 54.2 L 234.2 52.6 C 235.5 53.0 236.2 53.9 236.2 55.0 C 236.2 56.1 235.4 56.9 234.2 56.9 C 232.5 56.9 230.8 55.1 228.9 51.7 C 228.0 55.4 227.4 57.1 225.7 57.1 C 225.7 57.1 225.6 57.1 225.5 57.1 " fill="#52A700"></path><path d="M 246.7 49.6 L 242.1 48.3 L 242.1 47.3 L 245.4 48.0 L 245.4 36.4 L 245.2 36.1 L 242.7 36.0 L 242.7 35.0 L 249.9 35.0 L 249.9 35.9 L 247.6 36.0 L 247.3 36.3 L 247.3 49.6 L 246.7 49.6 " fill="#000000"></path><path d="M 261.2 50.8 C 261.2 42.4 258.8 38.3 255.3 37.7 L 255.3 36.3 C 260.3 36.9 263.8 41.6 263.8 50.8 C 263.8 60.0 260.3 64.8 255.3 65.4 L 255.3 64.0 C 258.8 63.3 261.2 59.2 261.2 50.8 " fill="#000000"></path></g></g><g><clipPath id="clip0x60800c4bf380"><path d="M 330.4 82.5 L 585.2 82.5 L 585.2 122.1 L 330.4 122.1 Z M 330.4 82.5 "></path></clipPath><g clip-path="url(#clip0x60800c4bf380)"><path d="M 342.8 108.2 L 342.2 107.5 C 341.2 108.0 340.3 108.2 339.4 108.2 C 336.4 108.2 333.9 106.8 332.4 104.2 C 331.3 102.5 330.8 100.6 330.8 98.6 C 330.8 95.2 332.4 93.2 335.0 93.2 C 336.5 93.2 337.9 94.1 339.5 95.8 C 339.5 95.7 339.5 95.6 339.5 95.5 C 339.5 93.9 340.1 93.2 341.4 93.2 C 342.2 93.2 343.5 93.6 345.2 94.3 L 345.2 95.2 C 344.3 95.0 343.8 94.9 343.4 94.9 C 342.3 94.9 341.8 95.3 341.8 96.3 C 341.8 96.7 341.9 97.4 342.1 98.4 L 343.2 103.8 C 343.7 106.1 344.0 107.6 344.4 108.2 L 342.8 108.2 Z M 339.9 107.0 L 341.1 105.2 L 339.6 97.1 C 338.3 95.7 337.1 95.1 336.0 95.1 C 334.2 95.1 333.3 96.3 333.3 98.7 C 333.3 103.6 335.9 107.0 339.5 107.0 C 339.7 107.0 339.8 107.0 339.9 107.0 " fill="#000000"></path><path d="M 352.1 122.2 L 348.8 121.6 L 348.8 121.0 L 350.7 120.8 L 348.7 110.3 C 348.4 109.0 348.3 108.2 348.3 107.9 C 348.3 106.8 348.8 106.3 349.9 106.3 C 350.5 106.3 351.5 106.5 352.7 107.0 L 352.7 107.7 C 352.1 107.4 351.5 107.3 351.2 107.3 C 350.4 107.3 350.0 107.7 350.0 108.3 C 350.0 108.6 350.1 109.2 350.2 110.1 L 352.4 120.8 C 352.4 121.0 352.5 121.4 352.7 122.2 L 352.1 122.2 " fill="#000000"></path><path d="M 352.9 97.5 L 348.3 96.1 L 348.3 95.2 L 351.6 95.8 L 351.6 84.3 L 351.3 83.9 L 348.9 83.8 L 348.9 82.9 L 356.1 82.9 L 356.1 83.8 L 353.7 83.9 L 353.5 84.2 L 353.5 97.5 L 352.9 97.5 " fill="#000000"></path><path d="M 369.9 99.6 C 369.9 101.2 371.2 103.7 373.8 103.7 C 377.5 103.7 379.6 98.3 384.1 98.3 C 386.8 98.3 389.2 100.9 389.2 105.0 L 387.9 105.0 C 387.9 103.3 386.6 100.9 384.1 100.9 C 380.3 100.9 378.2 106.3 373.8 106.3 C 371.1 106.3 368.7 103.6 368.7 99.6 L 369.9 99.6 " fill="#000000"></path><path d="M 399.1 114.0 L 399.1 112.7 L 400.9 112.6 L 401.4 112.1 L 401.4 95.3 L 400.9 94.9 L 399.1 94.7 L 399.1 93.5 L 406.4 93.5 L 406.4 94.7 L 404.7 94.9 L 404.2 95.3 L 404.2 102.6 C 404.7 102.6 405.2 102.6 405.7 102.6 C 408.5 102.6 409.7 101.9 410.5 99.4 C 411.1 97.4 411.3 95.4 412.7 94.1 C 413.4 93.5 414.4 93.2 415.8 93.2 C 416.5 93.2 417.3 93.3 418.2 93.5 L 418.2 94.7 C 418.1 94.7 418.0 94.7 417.9 94.7 C 415.6 94.7 414.6 95.0 413.9 96.8 C 413.4 98.3 413.4 99.9 412.5 101.4 C 411.9 102.4 410.9 103.0 409.4 103.4 C 412.7 104.1 414.3 105.9 414.3 108.5 C 414.3 112.2 411.9 114.0 406.9 114.0 L 399.1 114.0 Z M 404.2 112.6 L 405.6 112.6 C 409.4 112.6 411.3 111.4 411.3 108.2 C 411.3 105.2 409.5 104.0 405.9 104.0 C 405.7 104.0 405.1 104.0 404.2 104.0 L 404.2 112.6 " fill="#000000"></path><path d="M 428.9 96.7 C 427.2 95.5 425.7 94.9 424.1 94.9 C 421.1 94.9 419.0 97.3 419.0 101.2 C 419.0 101.3 419.0 101.4 419.0 101.5 L 428.9 101.5 C 428.9 101.9 428.9 102.2 428.9 102.5 C 428.9 106.2 426.8 108.5 423.4 108.5 C 419.3 108.5 416.4 105.3 416.4 100.7 C 416.4 96.2 419.2 93.2 423.2 93.2 C 425.1 93.2 427.1 93.8 428.9 95.0 L 428.9 96.7 Z M 426.2 102.8 L 419.2 102.8 C 419.3 105.4 421.1 107.1 423.0 107.1 C 425.1 107.1 426.2 105.8 426.2 103.3 C 426.2 103.1 426.2 102.9 426.2 102.8 " fill="#000000"></path><path d="M 440.8 107.8 C 439.7 108.3 438.5 108.5 437.2 108.5 C 433.7 108.5 431.8 106.9 431.8 104.2 C 431.8 102.2 433.1 101.2 435.7 100.0 C 437.7 99.1 438.8 98.6 438.8 97.0 C 438.8 95.5 437.7 94.5 436.0 94.5 C 435.1 94.5 434.2 94.7 433.4 95.2 L 433.0 97.8 L 431.5 97.8 L 431.5 93.8 C 432.6 93.4 433.9 93.2 435.5 93.2 C 439.1 93.2 441.2 94.9 441.2 97.8 C 441.2 98.9 440.8 99.8 440.0 100.4 C 439.1 101.2 437.9 101.7 436.8 102.2 C 435.1 103.0 434.2 103.6 434.2 105.0 C 434.2 106.3 435.1 107.2 436.8 107.2 C 437.5 107.2 438.2 106.9 439.0 106.5 L 439.3 104.4 L 440.8 104.4 L 440.8 107.8 " fill="#000000"></path><path d="M 452.7 95.3 L 453.0 93.5 L 457.3 93.5 L 457.3 94.6 L 455.7 94.7 L 455.2 95.2 L 455.2 104.1 C 455.2 107.2 453.8 108.5 450.6 108.5 C 446.8 108.5 444.5 106.9 444.5 105.0 C 444.5 104.3 444.7 104.1 445.4 104.1 L 447.5 104.1 L 447.5 106.7 C 448.3 107.0 449.1 107.1 449.8 107.1 C 452.1 107.1 452.7 106.1 452.7 103.7 L 452.7 102.7 C 446.5 101.3 443.7 100.3 443.7 97.2 C 443.7 94.9 445.2 93.3 447.6 93.3 C 449.1 93.3 450.7 93.9 452.7 95.3 Z M 452.7 96.3 C 451.1 95.4 449.9 94.9 448.9 94.9 C 447.3 94.9 446.4 95.9 446.4 97.4 C 446.4 99.6 448.3 100.5 452.7 101.7 L 452.7 96.3 " fill="#000000"></path><path d="M 471.9 106.4 C 471.2 107.8 470.1 108.5 468.6 108.5 C 467.3 108.5 465.7 107.8 463.7 106.7 L 463.7 108.3 L 462.5 108.3 L 458.9 107.2 L 458.9 106.3 L 461.1 106.3 L 461.1 95.2 L 460.6 94.7 L 458.9 94.6 L 458.9 93.5 L 465.7 93.5 L 465.7 94.6 L 464.2 94.7 L 463.7 95.2 L 463.7 105.5 C 465.0 106.1 466.1 106.5 467.1 106.5 C 469.0 106.5 469.8 105.5 469.8 103.3 L 469.8 95.2 L 469.3 94.7 L 467.8 94.6 L 467.8 93.5 L 474.4 93.5 L 474.4 94.6 L 472.9 94.7 L 472.4 95.2 L 472.4 105.5 C 473.7 106.1 474.8 106.5 475.8 106.5 C 477.7 106.5 478.6 105.5 478.6 103.3 L 478.6 95.2 L 478.0 94.7 L 476.6 94.6 L 476.6 93.5 L 483.3 93.5 L 483.3 94.6 L 481.6 94.7 L 481.1 95.2 L 481.1 103.8 C 481.1 106.9 479.6 108.5 477.2 108.5 C 476.0 108.5 474.2 107.8 471.9 106.4 " fill="#000000"></path><path d="M 484.5 86.8 L 491.7 86.8 L 491.7 87.9 L 489.8 88.1 L 489.2 88.5 L 489.2 93.7 C 490.4 93.5 491.3 93.4 492.1 93.4 C 496.6 93.4 499.6 96.5 499.6 101.3 C 499.6 105.6 497.1 108.5 493.7 108.5 C 492.3 108.5 490.9 107.9 489.2 106.7 L 489.2 108.3 L 488.1 108.3 L 484.5 107.2 L 484.5 106.3 L 486.7 106.3 L 486.7 88.5 L 486.2 88.1 L 484.5 87.9 L 484.5 86.8 Z M 489.2 95.3 L 489.2 105.5 C 490.4 106.2 491.4 106.5 492.5 106.5 C 495.1 106.5 496.9 104.4 496.9 100.9 C 496.9 97.2 494.8 94.7 491.9 94.7 C 491.1 94.7 490.3 94.9 489.2 95.3 " fill="#000000"></path><path d="M 501.5 93.5 L 508.7 93.5 L 508.7 94.6 L 506.9 94.7 L 506.4 95.2 L 506.4 116.0 L 505.2 116.0 L 501.5 114.9 L 501.5 113.9 L 503.8 113.9 L 503.8 95.2 L 503.3 94.7 L 501.5 94.6 L 501.5 93.5 " fill="#000000"></path><path d="M 523.0 96.7 C 521.3 95.5 519.8 94.9 518.2 94.9 C 515.2 94.9 513.1 97.3 513.1 101.2 C 513.1 101.3 513.1 101.4 513.1 101.5 L 523.0 101.5 C 523.0 101.9 523.0 102.2 523.0 102.5 C 523.0 106.2 520.9 108.5 517.5 108.5 C 513.4 108.5 510.5 105.3 510.5 100.7 C 510.5 96.2 513.3 93.2 517.3 93.2 C 519.2 93.2 521.2 93.8 523.0 95.0 L 523.0 96.7 Z M 520.3 102.8 L 513.3 102.8 C 513.4 105.4 515.2 107.1 517.1 107.1 C 519.2 107.1 520.3 105.8 520.3 103.3 C 520.3 103.1 520.3 102.9 520.3 102.8 " fill="#000000"></path><path d="M 528.7 102.3 C 528.7 110.6 531.1 114.8 534.6 115.4 L 534.6 116.8 C 529.5 116.2 526.0 111.5 526.0 102.3 C 526.0 93.0 529.5 88.3 534.6 87.7 L 534.6 89.1 C 531.1 89.7 528.7 93.9 528.7 102.3 " fill="#000000"></path><path d="M 542.2 108.6 L 537.8 107.4 L 537.8 106.4 L 540.3 106.0 L 541.0 94.4 L 540.7 93.5 L 543.6 93.5 C 545.5 96.9 547.4 100.4 549.3 104.0 L 549.9 93.5 L 552.5 93.5 C 557.6 99.8 560.5 103.9 560.5 106.4 C 560.5 107.7 559.7 108.5 558.5 108.5 C 557.7 108.5 557.1 108.3 556.6 107.7 L 557.3 103.2 C 556.6 101.5 555.2 99.2 553.0 96.4 C 552.7 101.4 552.5 105.3 552.3 108.1 L 549.5 107.9 C 547.9 104.4 546.1 101.0 544.2 97.4 L 543.6 108.6 L 542.2 108.6 " fill="#000000"></path><path d="M 568.0 101.1 L 563.4 99.7 L 563.4 98.8 L 566.7 99.4 L 566.7 87.9 L 566.5 87.5 L 564.0 87.4 L 564.0 86.5 L 571.2 86.5 L 571.2 87.4 L 568.8 87.5 L 568.6 87.8 L 568.6 101.1 L 568.0 101.1 " fill="#000000"></path><path d="M 582.5 102.3 C 582.5 93.9 580.1 89.7 576.6 89.1 L 576.6 87.7 C 581.6 88.3 585.1 93.0 585.1 102.3 C 585.1 111.5 581.6 116.2 576.6 116.8 L 576.6 115.4 C 580.1 114.8 582.5 110.6 582.5 102.3 " fill="#000000"></path></g></g><text xml:space="preserve" font-family="FiraSans-Light,Fira Sans" font-size="28.0" fill="#2A4054" transform="matrix(1.00, 0.00, -0.00, -1.00, 640.0, 91.2)">S</text><text xml:space="preserve" font-family="FiraSans-Light,Fira Sans" font-size="28.0" fill="#2A4054" transform="matrix(1.00, 0.00, -0.00, -1.00, 655.1, 91.2)">e</text><text xml:space="preserve" font-family="FiraSans-Light,Fira Sans" font-size="28.0" fill="#2A4054" transform="matrix(1.00, 0.00, -0.00, -1.00, 670.1, 91.2)">l</text><text xml:space="preserve" font-family="FiraSans-Light,Fira Sans" font-size="28.0" fill="#2A4054" transform="matrix(1.00, 0.00, -0.00, -1.00, 677.8, 91.2)">e</text><text xml:space="preserve" font-family="FiraSans-Light,Fira Sans" font-size="28.0" fill="#2A4054" transform="matrix(1.00, 0.00, -0.00, -1.00, 692.9, 91.2)">c</text><text xml:space="preserve" font-family="FiraSans-Light,Fira Sans" font-size="28.0" fill="#2A4054" transform="matrix(1.00, 0.00, -0.00, -1.00, 706.0, 91.2)">t</text><text xml:space="preserve" font-family="FiraSans-Light,Fira Sans" font-size="28.0" fill="#2A4054" transform="matrix(1.00, 0.00, -0.00, -1.00, 715.5, 91.2)"> </text><text xml:space="preserve" font-family="FiraSans-Light,Fira Sans" font-size="28.0" fill="#2A4054" transform="matrix(1.00, 0.00, -0.00, -1.00, 723.4, 91.2)">a</text><text xml:space="preserve" font-family="FiraSans-Light,Fira Sans" font-size="28.0" fill="#2A4054" transform="matrix(1.00, 0.00, -0.00, -1.00, 738.4, 91.2)">n</text><text xml:space="preserve" font-family="FiraSans-Light,Fira Sans" font-size="28.0" fill="#2A4054" transform="matrix(1.00, 0.00, -0.00, -1.00, 754.7, 91.2)">c</text><text xml:space="preserve" font-family="FiraSans-Light,Fira Sans" font-size="28.0" fill="#2A4054" transform="matrix(1.00, 0.00, -0.00, -1.00, 767.6, 91.2)">e</text><text xml:space="preserve" font-family="FiraSans-Light,Fira Sans" font-size="28.0" fill="#2A4054" transform="matrix(1.00, 0.00, -0.00, -1.00, 782.6, 91.2)">s</text><text xml:space="preserve" font-family="FiraSans-Light,Fira Sans" font-size="28.0" fill="#2A4054" transform="matrix(1.00, 0.00, -0.00, -1.00, 795.6, 91.2)">t</text><text xml:space="preserve" font-family="FiraSans-Light,Fira Sans" font-size="28.0" fill="#2A4054" transform="matrix(1.00, 0.00, -0.00, -1.00, 804.9, 91.2)">o</text><text xml:space="preserve" font-family="FiraSans-Light,Fira Sans" font-size="28.0" fill="#2A4054" transform="matrix(1.00, 0.00, -0.00, -1.00, 820.9, 91.2)">r</text><text xml:space="preserve" font-family="FiraSans-Light,Fira Sans" font-size="28.0" fill="#2A4054" transform="matrix(1.00, 0.00, -0.00, -1.00, 831.3, 91.2)"> </text><text xml:space="preserve" font-family="FiraSans-Light,Fira Sans" font-size="28.0" fill="#2A4054" transform="matrix(1.00, 0.00, -0.00, -1.00, 839.1, 91.2)">i</text><text xml:space="preserve" font-family="FiraSans-Light,Fira Sans" font-size="28.0" fill="#2A4054" transform="matrix(1.00, 0.00, -0.00, -1.00, 846.7, 91.2)">n</text><text xml:space="preserve" font-family="FiraSans-Light,Fira Sans" font-size="28.0" fill="#2A4054" transform="matrix(1.00, 0.00, -0.00, -1.00, 863.0, 91.2)">d</text><text xml:space="preserve" font-family="FiraSans-Light,Fira Sans" font-size="28.0" fill="#2A4054" transform="matrix(1.00, 0.00, -0.00, -1.00, 879.4, 91.2)">i</text><text xml:space="preserve" font-family="FiraSans-Light,Fira Sans" font-size="28.0" fill="#2A4054" transform="matrix(1.00, 0.00, -0.00, -1.00, 887.0, 91.2)">c</text><text xml:space="preserve" font-family="FiraSans-Light,Fira Sans" font-size="28.0" fill="#2A4054" transform="matrix(1.00, 0.00, -0.00, -1.00, 899.8, 91.2)">e</text><text xml:space="preserve" font-family="FiraSans-Light,Fira Sans" font-size="28.0" fill="#2A4054" transform="matrix(1.00, 0.00, -0.00, -1.00, 914.9, 91.2)">s</text><g><clipPath id="clip0x60800c6a0420"><path d="M 325.8 30.5 L 535.2 30.5 L 535.2 80.7 L 325.8 80.7 Z M 325.8 30.5 "></path></clipPath><g clip-path="url(#clip0x60800c6a0420)"><path d="M 332.5 57.0 L 328.3 55.6 L 328.3 54.6 L 331.1 54.4 C 331.6 53.6 332.3 51.7 333.2 48.9 C 332.1 46.8 330.9 45.2 329.6 44.4 L 328.3 46.0 C 327.1 45.7 326.3 44.8 326.3 43.8 C 326.3 42.8 327.3 41.8 328.5 41.8 C 330.3 41.8 331.9 43.7 333.9 47.3 C 334.7 43.4 335.6 41.7 338.0 41.7 C 338.9 41.7 340.2 42.0 342.0 42.5 L 342.0 43.7 C 341.4 43.6 340.9 43.5 340.4 43.5 C 338.3 43.5 337.9 45.6 336.6 50.0 C 337.7 52.2 338.8 53.6 340.0 54.1 L 341.2 52.5 C 342.4 52.8 343.1 53.8 343.1 54.8 C 343.1 55.9 342.3 56.8 341.2 56.8 C 339.5 56.8 337.7 55.0 335.9 51.5 C 334.9 55.2 334.4 57.0 332.7 57.0 C 332.6 57.0 332.5 57.0 332.5 57.0 " fill="#52A700"></path><path d="M 352.0 70.6 L 348.8 70.0 L 348.8 69.4 L 350.7 69.2 L 348.7 58.7 C 348.4 57.4 348.3 56.6 348.3 56.3 C 348.3 55.2 348.8 54.7 349.8 54.7 C 350.5 54.7 351.5 54.9 352.7 55.4 L 352.7 56.1 C 352.0 55.9 351.5 55.7 351.2 55.7 C 350.4 55.7 350.0 56.1 350.0 56.7 C 350.0 57.0 350.0 57.6 350.2 58.5 L 352.4 69.2 C 352.4 69.4 352.5 69.8 352.6 70.6 L 352.0 70.6 " fill="#000000"></path><path d="M 350.0 33.0 C 354.8 36.7 357.3 39.2 357.3 41.8 C 357.3 44.3 355.7 45.9 352.9 45.9 C 350.3 45.9 348.4 44.4 348.4 42.9 C 348.4 42.1 348.8 41.7 349.6 41.7 C 349.9 41.7 350.2 41.8 350.5 42.0 L 350.5 44.3 C 351.2 44.6 351.8 44.8 352.4 44.8 C 354.2 44.8 355.3 43.6 355.3 41.6 C 355.3 38.8 352.6 36.4 347.9 32.6 L 347.9 31.3 L 357.8 31.3 L 357.8 34.8 L 356.9 34.8 L 356.5 33.0 L 350.0 33.0 " fill="#000000"></path><path d="M 370.6 48.0 C 370.6 49.6 371.9 52.1 374.5 52.1 C 378.2 52.1 380.3 46.7 384.7 46.7 C 387.5 46.7 389.9 49.3 389.9 53.4 L 388.6 53.4 C 388.6 51.8 387.3 49.3 384.7 49.3 C 381.0 49.3 378.9 54.7 374.5 54.7 C 371.7 54.7 369.3 52.0 369.3 48.0 L 370.6 48.0 " fill="#000000"></path><path d="M 405.6 56.6 L 401.2 55.7 L 401.2 54.9 L 403.6 54.6 L 400.4 36.8 L 400.1 36.5 L 398.3 36.1 L 398.3 35.2 L 405.6 35.2 L 405.6 36.1 L 402.7 36.7 L 403.8 42.3 C 404.5 42.0 405.3 41.8 406.1 41.8 C 408.2 41.8 410.4 42.8 411.9 44.5 C 413.7 46.4 414.5 48.6 414.5 51.3 C 414.5 54.7 413.0 56.6 410.6 56.6 C 409.3 56.6 407.8 56.0 406.0 54.7 L 406.4 56.6 L 405.6 56.6 Z M 404.0 43.9 L 405.8 53.4 C 407.2 54.5 408.3 55.0 409.2 55.0 C 410.9 55.0 412.0 53.6 412.0 51.2 C 412.0 48.8 411.1 46.3 410.1 45.0 C 409.2 43.7 408.0 43.1 406.7 43.1 C 405.8 43.1 405.0 43.4 404.0 43.9 " fill="#000000"></path><path d="M 421.2 50.7 C 421.2 59.1 423.7 63.2 427.2 63.8 L 427.2 65.2 C 422.1 64.6 418.6 59.9 418.6 50.7 C 418.6 41.5 422.1 36.7 427.2 36.1 L 427.2 37.5 C 423.7 38.1 421.2 42.3 421.2 50.7 " fill="#000000"></path><path d="M 435.5 57.0 L 431.3 55.6 L 431.3 54.6 L 434.1 54.4 C 434.6 53.6 435.3 51.7 436.2 48.9 C 435.1 46.8 433.9 45.2 432.6 44.4 L 431.3 46.0 C 430.1 45.7 429.3 44.8 429.3 43.8 C 429.3 42.8 430.3 41.8 431.5 41.8 C 433.3 41.8 434.9 43.7 436.9 47.3 C 437.7 43.4 438.6 41.7 441.0 41.7 C 441.9 41.7 443.3 42.0 445.0 42.5 L 445.0 43.7 C 444.4 43.6 443.9 43.5 443.3 43.5 C 441.3 43.5 440.9 45.6 439.6 50.0 C 440.7 52.2 441.8 53.6 443.0 54.1 L 444.2 52.5 C 445.4 52.8 446.1 53.8 446.1 54.8 C 446.1 55.9 445.3 56.8 444.2 56.8 C 442.5 56.8 440.8 55.0 438.9 51.5 C 437.9 55.2 437.4 57.0 435.7 57.0 C 435.6 57.0 435.5 57.0 435.5 57.0 " fill="#52A700"></path><path d="M 455.0 70.6 L 451.8 70.0 L 451.8 69.4 L 453.7 69.2 L 451.7 58.7 C 451.4 57.4 451.3 56.6 451.3 56.3 C 451.3 55.2 451.8 54.7 452.8 54.7 C 453.5 54.7 454.5 54.9 455.7 55.4 L 455.7 56.1 C 455.0 55.9 454.5 55.7 454.2 55.7 C 453.4 55.7 453.0 56.1 453.0 56.7 C 453.0 57.0 453.0 57.6 453.2 58.5 L 455.4 69.2 C 455.4 69.4 455.5 69.8 455.6 70.6 L 455.0 70.6 " fill="#000000"></path><path d="M 452.9 33.0 C 457.6 36.7 460.3 39.2 460.3 41.8 C 460.3 44.3 458.6 45.9 455.8 45.9 C 453.1 45.9 451.3 44.4 451.3 42.9 C 451.3 42.1 451.7 41.7 452.5 41.7 C 452.8 41.7 453.1 41.8 453.4 42.0 L 453.4 44.3 C 454.1 44.6 454.7 44.8 455.3 44.8 C 457.1 44.8 458.2 43.6 458.2 41.6 C 458.2 38.8 455.5 36.4 450.8 32.6 L 450.8 31.3 L 460.7 31.3 L 460.7 34.8 L 459.7 34.8 L 459.4 33.0 L 452.9 33.0 " fill="#000000"></path><path d="M 471.1 36.1 L 472.9 36.1 L 472.9 65.2 L 471.1 65.2 Z M 471.1 36.1 " fill="#000000"></path><path d="M 487.1 57.0 L 482.9 55.6 L 482.9 54.6 L 485.7 54.4 C 486.2 53.6 486.9 51.7 487.8 48.9 C 486.7 46.8 485.5 45.2 484.2 44.4 L 482.9 46.0 C 481.7 45.7 480.9 44.8 480.9 43.8 C 480.9 42.8 481.9 41.8 483.1 41.8 C 484.9 41.8 486.5 43.7 488.5 47.3 C 489.3 43.4 490.2 41.7 492.6 41.7 C 493.5 41.7 494.9 42.0 496.6 42.5 L 496.6 43.7 C 496.0 43.6 495.5 43.5 495.0 43.5 C 492.9 43.5 492.5 45.6 491.2 50.0 C 492.3 52.2 493.4 53.6 494.6 54.1 L 495.8 52.5 C 497.0 52.8 497.7 53.8 497.7 54.8 C 497.7 55.9 496.9 56.8 495.8 56.8 C 494.1 56.8 492.3 55.0 490.5 51.5 C 489.5 55.2 489.0 57.0 487.3 57.0 C 487.2 57.0 487.1 57.0 487.1 57.0 " fill="#52A700"></path><path d="M 510.9 71.6 L 510.4 71.1 C 509.8 71.4 509.1 71.6 508.5 71.6 C 506.4 71.6 504.7 70.6 503.6 68.8 C 502.9 67.6 502.5 66.3 502.5 64.8 C 502.5 62.5 503.6 61.1 505.4 61.1 C 506.5 61.1 507.5 61.7 508.6 62.9 C 508.6 62.8 508.6 62.8 508.6 62.7 C 508.6 61.6 509.0 61.1 509.9 61.1 C 510.5 61.1 511.4 61.3 512.6 61.8 L 512.6 62.5 C 512.0 62.4 511.6 62.3 511.4 62.3 C 510.6 62.3 510.2 62.6 510.2 63.3 C 510.2 63.6 510.3 64.0 510.4 64.7 L 511.2 68.5 C 511.5 70.1 511.8 71.1 512.0 71.6 L 510.9 71.6 Z M 508.9 70.8 L 509.8 69.5 L 508.6 63.8 C 507.8 62.9 506.9 62.4 506.1 62.4 C 504.9 62.4 504.2 63.3 504.2 65.0 C 504.2 68.4 506.1 70.8 508.6 70.8 C 508.7 70.8 508.8 70.8 508.9 70.8 " fill="#000000"></path><path d="M 517.6 81.1 L 515.2 80.7 L 515.2 80.3 L 516.6 80.1 L 515.1 72.6 C 514.9 71.7 514.8 71.1 514.8 70.9 C 514.8 70.1 515.2 69.8 516.0 69.8 C 516.4 69.8 517.1 69.9 518.0 70.3 L 518.0 70.7 C 517.5 70.6 517.2 70.5 516.9 70.5 C 516.4 70.5 516.1 70.7 516.1 71.2 C 516.1 71.4 516.1 71.8 516.2 72.4 L 517.8 80.1 C 517.8 80.2 517.9 80.6 518.0 81.1 L 517.6 81.1 " fill="#000000"></path><path d="M 516.5 61.2 L 514.2 60.8 L 514.2 60.4 L 515.5 60.1 L 514.2 53.9 L 515.5 53.9 L 516.4 59.1 C 517.4 59.9 518.2 60.3 518.7 60.3 C 519.3 60.3 519.5 60.0 519.5 59.3 C 519.5 59.1 519.5 58.8 519.4 58.4 L 518.7 55.5 C 518.7 55.2 518.6 54.9 518.6 54.7 C 518.6 54.1 519.0 53.8 519.7 53.8 C 520.2 53.8 520.8 53.9 521.6 54.3 L 521.6 54.7 C 521.2 54.6 520.9 54.5 520.7 54.5 C 520.2 54.5 519.9 54.8 519.9 55.3 C 519.9 55.5 520.0 55.9 520.1 56.3 L 520.6 58.7 C 520.8 59.2 520.8 59.6 520.8 60.0 C 520.8 60.8 520.4 61.2 519.6 61.2 C 518.7 61.2 517.8 60.8 516.6 59.8 L 516.9 61.2 L 516.5 61.2 " fill="#000000"></path><path d="M 508.3 46.3 L 503.6 44.9 L 503.6 44.0 L 507.0 44.6 L 507.0 33.1 L 506.7 32.7 L 504.3 32.6 L 504.3 31.7 L 511.4 31.7 L 511.4 32.6 L 509.1 32.7 L 508.9 33.0 L 508.9 46.3 L 508.3 46.3 " fill="#000000"></path><path d="M 533.1 50.7 C 533.1 42.3 530.6 38.1 527.1 37.5 L 527.1 36.1 C 532.2 36.7 535.7 41.5 535.7 50.7 C 535.7 59.9 532.2 64.6 527.1 65.2 L 527.1 63.8 C 530.6 63.2 533.1 59.1 533.1 50.7 " fill="#000000"></path></g></g><text xml:space="preserve" font-family="FiraSans-Light,Fira Sans" font-size="28.0" fill="#2A4054" transform="matrix(1.00, 0.00, -0.00, -1.00, 641.0, 39.2)">C</text><text xml:space="preserve" font-family="FiraSans-Light,Fira Sans" font-size="28.0" fill="#2A4054" transform="matrix(1.00, 0.00, -0.00, -1.00, 656.1, 39.2)">o</text><text xml:space="preserve" font-family="FiraSans-Light,Fira Sans" font-size="28.0" fill="#2A4054" transform="matrix(1.00, 0.00, -0.00, -1.00, 672.1, 39.2)">n</text><text xml:space="preserve" font-family="FiraSans-Light,Fira Sans" font-size="28.0" fill="#2A4054" transform="matrix(1.00, 0.00, -0.00, -1.00, 688.4, 39.2)">t</text><text xml:space="preserve" font-family="FiraSans-Light,Fira Sans" font-size="28.0" fill="#2A4054" transform="matrix(1.00, 0.00, -0.00, -1.00, 698.0, 39.2)">i</text><text xml:space="preserve" font-family="FiraSans-Light,Fira Sans" font-size="28.0" fill="#2A4054" transform="matrix(1.00, 0.00, -0.00, -1.00, 705.5, 39.2)">n</text><text xml:space="preserve" font-family="FiraSans-Light,Fira Sans" font-size="28.0" fill="#2A4054" transform="matrix(1.00, 0.00, -0.00, -1.00, 721.9, 39.2)">u</text><text xml:space="preserve" font-family="FiraSans-Light,Fira Sans" font-size="28.0" fill="#2A4054" transform="matrix(1.00, 0.00, -0.00, -1.00, 738.1, 39.2)">e</text><text xml:space="preserve" font-family="FiraSans-Light,Fira Sans" font-size="28.0" fill="#2A4054" transform="matrix(1.00, 0.00, -0.00, -1.00, 753.2, 39.2)"> </text><text xml:space="preserve" font-family="FiraSans-Light,Fira Sans" font-size="28.0" fill="#2A4054" transform="matrix(1.00, 0.00, -0.00, -1.00, 761.0, 39.2)">e</text><text xml:space="preserve" font-family="FiraSans-Light,Fira Sans" font-size="28.0" fill="#2A4054" transform="matrix(1.00, 0.00, -0.00, -1.00, 775.8, 39.2)">x</text><text xml:space="preserve" font-family="FiraSans-Light,Fira Sans" font-size="28.0" fill="#2A4054" transform="matrix(1.00, 0.00, -0.00, -1.00, 788.1, 39.2)">e</text><text xml:space="preserve" font-family="FiraSans-Light,Fira Sans" font-size="28.0" fill="#2A4054" transform="matrix(1.00, 0.00, -0.00, -1.00, 803.1, 39.2)">c</text><text xml:space="preserve" font-family="FiraSans-Light,Fira Sans" font-size="28.0" fill="#2A4054" transform="matrix(1.00, 0.00, -0.00, -1.00, 816.3, 39.2)">u</text><text xml:space="preserve" font-family="FiraSans-Light,Fira Sans" font-size="28.0" fill="#2A4054" transform="matrix(1.00, 0.00, -0.00, -1.00, 832.5, 39.2)">t</text><text xml:space="preserve" font-family="FiraSans-Light,Fira Sans" font-size="28.0" fill="#2A4054" transform="matrix(1.00, 0.00, -0.00, -1.00, 842.0, 39.2)">i</text><text xml:space="preserve" font-family="FiraSans-Light,Fira Sans" font-size="28.0" fill="#2A4054" transform="matrix(1.00, 0.00, -0.00, -1.00, 849.6, 39.2)">o</text><text xml:space="preserve" font-family="FiraSans-Light,Fira Sans" font-size="28.0" fill="#2A4054" transform="matrix(1.00, 0.00, -0.00, -1.00, 865.6, 39.2)">n</text><text xml:space="preserve" font-family="FiraSans-Light,Fira Sans" font-size="60.0" fill="#20313F" transform="matrix(1.00, 0.00, -0.00, -1.00, 198.6, 665.0)">S</text><text xml:space="preserve" font-family="FiraSans-Light,Fira Sans" font-size="60.0" fill="#20313F" transform="matrix(1.00, 0.00, -0.00, -1.00, 230.9, 665.0)">e</text><text xml:space="preserve" font-family="FiraSans-Light,Fira Sans" font-size="60.0" fill="#20313F" transform="matrix(1.00, 0.00, -0.00, -1.00, 263.2, 665.0)">q</text><text xml:space="preserve" font-family="FiraSans-Light,Fira Sans" font-size="60.0" fill="#20313F" transform="matrix(1.00, 0.00, -0.00, -1.00, 298.0, 665.0)">u</text><text xml:space="preserve" font-family="FiraSans-Light,Fira Sans" font-size="60.0" fill="#20313F" transform="matrix(1.00, 0.00, -0.00, -1.00, 332.7, 665.0)">e</text><text xml:space="preserve" font-family="FiraSans-Light,Fira Sans" font-size="60.0" fill="#20313F" transform="matrix(1.00, 0.00, -0.00, -1.00, 365.0, 665.0)">n</text><text xml:space="preserve" font-family="FiraSans-Light,Fira Sans" font-size="60.0" fill="#20313F" transform="matrix(1.00, 0.00, -0.00, -1.00, 400.0, 665.0)">t</text><text xml:space="preserve" font-family="FiraSans-Light,Fira Sans" font-size="60.0" fill="#20313F" transform="matrix(1.00, 0.00, -0.00, -1.00, 420.5, 665.0)">i</text><text xml:space="preserve" font-family="FiraSans-Light,Fira Sans" font-size="60.0" fill="#20313F" transform="matrix(1.00, 0.00, -0.00, -1.00, 436.7, 665.0)">a</text><text xml:space="preserve" font-family="FiraSans-Light,Fira Sans" font-size="60.0" fill="#20313F" transform="matrix(1.00, 0.00, -0.00, -1.00, 468.9, 665.0)">l</text><text xml:space="preserve" font-family="FiraSans-Light,Fira Sans" font-size="60.0" fill="#20313F" transform="matrix(1.00, 0.00, -0.00, -1.00, 485.9, 665.0)"> </text><text xml:space="preserve" font-family="FiraSans-Light,Fira Sans" font-size="60.0" fill="#20313F" transform="matrix(1.00, 0.00, -0.00, -1.00, 502.6, 665.0)">M</text><text xml:space="preserve" font-family="FiraSans-Light,Fira Sans" font-size="60.0" fill="#20313F" transform="matrix(1.00, 0.00, -0.00, -1.00, 549.0, 665.0)">o</text><text xml:space="preserve" font-family="FiraSans-Light,Fira Sans" font-size="60.0" fill="#20313F" transform="matrix(1.00, 0.00, -0.00, -1.00, 583.3, 665.0)">n</text><text xml:space="preserve" font-family="FiraSans-Light,Fira Sans" font-size="60.0" fill="#20313F" transform="matrix(1.00, 0.00, -0.00, -1.00, 618.3, 665.0)">t</text><text xml:space="preserve" font-family="FiraSans-Light,Fira Sans" font-size="60.0" fill="#20313F" transform="matrix(1.00, 0.00, -0.00, -1.00, 638.2, 665.0)">e</text><text xml:space="preserve" font-family="FiraSans-Light,Fira Sans" font-size="60.0" fill="#20313F" transform="matrix(1.00, 0.00, -0.00, -1.00, 670.5, 665.0)"> </text><text xml:space="preserve" font-family="FiraSans-Light,Fira Sans" font-size="60.0" fill="#20313F" transform="matrix(1.00, 0.00, -0.00, -1.00, 687.2, 665.0)">C</text><text xml:space="preserve" font-family="FiraSans-Light,Fira Sans" font-size="60.0" fill="#20313F" transform="matrix(1.00, 0.00, -0.00, -1.00, 720.2, 665.0)">a</text><text xml:space="preserve" font-family="FiraSans-Light,Fira Sans" font-size="60.0" fill="#20313F" transform="matrix(1.00, 0.00, -0.00, -1.00, 752.4, 665.0)">r</text><text xml:space="preserve" font-family="FiraSans-Light,Fira Sans" font-size="60.0" fill="#20313F" transform="matrix(1.00, 0.00, -0.00, -1.00, 774.7, 665.0)">l</text><text xml:space="preserve" font-family="FiraSans-Light,Fira Sans" font-size="60.0" fill="#20313F" transform="matrix(1.00, 0.00, -0.00, -1.00, 791.2, 665.0)">o</text></g></svg>