<?xml version="1.0" encoding="UTF-8" standalone="no"?><svg xmlns="http://www.w3.org/2000/svg" xmlns:xlink="http://www.w3.org/1999/xlink" clip-rule="evenodd" stroke-miterlimit="10" viewBox="0 0 1024 768"><desc>SVG generated by Keynote</desc><defs><linearGradient id="gradSh1.225" x1="0.0" y1="0.0" x2="100.0" y2="0.0" gradientUnits="userSpaceOnUse" gradientTransform="matrix(0.00, -7.70, -10.26, 0.00, 512.0, 769.0)"><stop offset="0.00000" stop-color="#FFFFFF"></stop><stop offset="0.01906" stop-color="#FEFFFF"></stop><stop offset="1.00000" stop-color="#E5F3FF"></stop></linearGradient></defs><g transform="matrix(1.00, 0.00, -0.00, -1.00, 0.0, 768.0)"><g><clipPath id="clip0x6080168be5a0"><path d="M 0.0 768.0 L 1024.0 768.0 L 1024.0 0.0 L 0.0 0.0 Z M 0.0 768.0 "></path></clipPath><g clip-path="url(#clip0x6080168be5a0)"><path d="M 0.0 768.0 L 1024.0 768.0 L 1024.0 0.0 L 0.0 0.0 Z M 0.0 768.0 " fill="url(#gradSh1.225)"></path></g></g><image xlink:href="../../D2E94072-5A18-4E1C-888E-188105002B29/assets/BB5CA69B134B165A9000704F67C375B2.jpeg" width="1001.00" height="640.00" transform="matrix(0.66, 0.00, -0.00, -0.66, 179.9, 606.3)"></image><g opacity="0.80"><g><clipPath id="clip0x6180150bd8e0"><path d="M 186.0 465.0 L 264.0 465.0 L 264.0 596.0 L 186.0 596.0 Z M 186.0 465.0 "></path></clipPath><g clip-path="url(#clip0x6180150bd8e0)"><path d="M 188.0 595.0 L 263.0 595.0 L 263.0 467.0 L 188.0 467.0 Z M 187.8 594.7 " fill="#666B57"></path></g></g></g><g opacity="0.80"><g><clipPath id="clip0x6180150bdb80"><path d="M 268.0 326.0 L 346.0 326.0 L 346.0 457.0 L 268.0 457.0 Z M 268.0 326.0 "></path></clipPath><g clip-path="url(#clip0x6180150bdb80)"><path d="M 270.0 456.0 L 345.0 456.0 L 345.0 328.0 L 270.0 328.0 Z M 269.8 455.7 " fill="#666B57"></path></g></g></g><g opacity="0.80"><g><clipPath id="clip0x6180150bde20"><path d="M 188.0 326.0 L 266.0 326.0 L 266.0 457.0 L 188.0 457.0 Z M 188.0 326.0 "></path></clipPath><g clip-path="url(#clip0x6180150bde20)"><path d="M 190.0 456.0 L 265.0 456.0 L 265.0 328.0 L 190.0 328.0 Z M 189.8 455.7 " fill="#666B57"></path></g></g></g><g opacity="0.80"><g><clipPath id="clip0x6180150be0c0"><path d="M 350.0 326.0 L 428.0 326.0 L 428.0 457.0 L 350.0 457.0 Z M 350.0 326.0 "></path></clipPath><g clip-path="url(#clip0x6180150be0c0)"><path d="M 352.0 456.0 L 427.0 456.0 L 427.0 328.0 L 352.0 328.0 Z M 351.8 455.7 " fill="#666B57"></path></g></g></g><g opacity="0.80"><g><clipPath id="clip0x6180150be360"><path d="M 269.0 189.0 L 347.0 189.0 L 347.0 320.0 L 269.0 320.0 Z M 269.0 189.0 "></path></clipPath><g clip-path="url(#clip0x6180150be360)"><path d="M 271.0 319.0 L 346.0 319.0 L 346.0 191.0 L 271.0 191.0 Z M 270.8 318.7 " fill="#666B57"></path></g></g></g><g opacity="0.80"><g><clipPath id="clip0x6180150be600"><path d="M 188.0 189.0 L 266.0 189.0 L 266.0 320.0 L 188.0 320.0 Z M 188.0 189.0 "></path></clipPath><g clip-path="url(#clip0x6180150be600)"><path d="M 190.0 319.0 L 265.0 319.0 L 265.0 191.0 L 190.0 191.0 Z M 189.8 318.7 " fill="#666B57"></path></g></g></g><g opacity="0.80"><g><clipPath id="clip0x6180150be8a0"><path d="M 350.0 189.0 L 428.0 189.0 L 428.0 320.0 L 350.0 320.0 Z M 350.0 189.0 "></path></clipPath><g clip-path="url(#clip0x6180150be8a0)"><path d="M 352.0 319.0 L 427.0 319.0 L 427.0 191.0 L 352.0 191.0 Z M 351.8 318.7 " fill="#666B57"></path></g></g></g><g opacity="0.80"><g><clipPath id="clip0x6180150beb40"><path d="M 513.0 465.0 L 591.0 465.0 L 591.0 596.0 L 513.0 596.0 Z M 513.0 465.0 "></path></clipPath><g clip-path="url(#clip0x6180150beb40)"><path d="M 515.0 595.0 L 590.0 595.0 L 590.0 467.0 L 515.0 467.0 Z M 514.8 594.7 " fill="#666B57"></path></g></g></g><g opacity="0.80"><g><clipPath id="clip0x6180150bede0"><path d="M 432.0 465.0 L 510.0 465.0 L 510.0 596.0 L 432.0 596.0 Z M 432.0 465.0 "></path></clipPath><g clip-path="url(#clip0x6180150bede0)"><path d="M 434.0 595.0 L 509.0 595.0 L 509.0 467.0 L 434.0 467.0 Z M 433.8 594.7 " fill="#666B57"></path></g></g></g><g opacity="0.80"><g><clipPath id="clip0x6180150bf080"><path d="M 432.0 326.0 L 510.0 326.0 L 510.0 457.0 L 432.0 457.0 Z M 432.0 326.0 "></path></clipPath><g clip-path="url(#clip0x6180150bf080)"><path d="M 434.0 456.0 L 509.0 456.0 L 509.0 328.0 L 434.0 328.0 Z M 433.8 455.7 " fill="#666B57"></path></g></g></g><g opacity="0.80"><g><clipPath id="clip0x6180150bf320"><path d="M 594.0 326.0 L 672.0 326.0 L 672.0 457.0 L 594.0 457.0 Z M 594.0 326.0 "></path></clipPath><g clip-path="url(#clip0x6180150bf320)"><path d="M 596.0 456.0 L 671.0 456.0 L 671.0 328.0 L 596.0 328.0 Z M 595.8 455.7 " fill="#666B57"></path></g></g></g><g opacity="0.80"><g><clipPath id="clip0x6180150bf5c0"><path d="M 513.0 189.0 L 591.0 189.0 L 591.0 320.0 L 513.0 320.0 Z M 513.0 189.0 "></path></clipPath><g clip-path="url(#clip0x6180150bf5c0)"><path d="M 515.0 319.0 L 590.0 319.0 L 590.0 191.0 L 515.0 191.0 Z M 514.8 318.7 " fill="#666B57"></path></g></g></g><g opacity="0.80"><g><clipPath id="clip0x6180150bf860"><path d="M 758.0 465.0 L 836.0 465.0 L 836.0 596.0 L 758.0 596.0 Z M 758.0 465.0 "></path></clipPath><g clip-path="url(#clip0x6180150bf860)"><path d="M 760.0 595.0 L 835.0 595.0 L 835.0 467.0 L 760.0 467.0 Z M 759.8 594.7 " fill="#666B57"></path></g></g></g><g opacity="0.80"><g><clipPath id="clip0x6180150bfb00"><path d="M 675.0 465.0 L 753.0 465.0 L 753.0 596.0 L 675.0 596.0 Z M 675.0 465.0 "></path></clipPath><g clip-path="url(#clip0x6180150bfb00)"><path d="M 677.0 595.0 L 752.0 595.0 L 752.0 467.0 L 677.0 467.0 Z M 676.8 594.7 " fill="#666B57"></path></g></g></g><g opacity="0.80"><g><clipPath id="clip0x6180150bfda0"><path d="M 757.0 326.0 L 835.0 326.0 L 835.0 457.0 L 757.0 457.0 Z M 757.0 326.0 "></path></clipPath><g clip-path="url(#clip0x6180150bfda0)"><path d="M 759.0 456.0 L 834.0 456.0 L 834.0 328.0 L 759.0 328.0 Z M 758.8 455.7 " fill="#666B57"></path></g></g></g><text xml:space="preserve" font-family="FiraSans-Book,Fira Sans" font-size="28.0" fill="#20313F" transform="matrix(1.00, 0.00, -0.00, -1.00, 267.0, 128.9)">W</text><text xml:space="preserve" font-family="FiraSans-Book,Fira Sans" font-size="28.0" fill="#20313F" transform="matrix(1.00, 0.00, -0.00, -1.00, 290.0, 128.9)">h</text><text xml:space="preserve" font-family="FiraSans-Book,Fira Sans" font-size="28.0" fill="#20313F" transform="matrix(1.00, 0.00, -0.00, -1.00, 306.4, 128.9)">a</text><text xml:space="preserve" font-family="FiraSans-Book,Fira Sans" font-size="28.0" fill="#20313F" transform="matrix(1.00, 0.00, -0.00, -1.00, 321.6, 128.9)">t</text><text xml:space="preserve" font-family="FiraSans-Book,Fira Sans" font-size="28.0" fill="#20313F" transform="matrix(1.00, 0.00, -0.00, -1.00, 331.5, 128.9)"> </text><text xml:space="preserve" font-family="FiraSans-Book,Fira Sans" font-size="28.0" fill="#20313F" transform="matrix(1.00, 0.00, -0.00, -1.00, 339.0, 128.9)">i</text><text xml:space="preserve" font-family="FiraSans-Book,Fira Sans" font-size="28.0" fill="#20313F" transform="matrix(1.00, 0.00, -0.00, -1.00, 346.8, 128.9)">f</text><text xml:space="preserve" font-family="FiraSans-Book,Fira Sans" font-size="28.0" fill="#20313F" transform="matrix(1.00, 0.00, -0.00, -1.00, 356.1, 128.9)"> </text><text xml:space="preserve" font-family="FiraSans-Book,Fira Sans" font-size="28.0" fill="#20313F" transform="matrix(1.00, 0.00, -0.00, -1.00, 363.6, 128.9)">a</text><text xml:space="preserve" font-family="FiraSans-Book,Fira Sans" font-size="28.0" fill="#20313F" transform="matrix(1.00, 0.00, -0.00, -1.00, 378.8, 128.9)">n</text><text xml:space="preserve" font-family="FiraSans-Book,Fira Sans" font-size="28.0" fill="#20313F" transform="matrix(1.00, 0.00, -0.00, -1.00, 395.2, 128.9)">s</text><text xml:space="preserve" font-family="FiraSans-Book,Fira Sans" font-size="28.0" fill="#20313F" transform="matrix(1.00, 0.00, -0.00, -1.00, 408.0, 128.9)">w</text><text xml:space="preserve" font-family="FiraSans-Book,Fira Sans" font-size="28.0" fill="#20313F" transform="matrix(1.00, 0.00, -0.00, -1.00, 427.6, 128.9)">e</text><text xml:space="preserve" font-family="FiraSans-Book,Fira Sans" font-size="28.0" fill="#20313F" transform="matrix(1.00, 0.00, -0.00, -1.00, 443.0, 128.9)">r</text><text xml:space="preserve" font-family="FiraSans-Book,Fira Sans" font-size="28.0" fill="#20313F" transform="matrix(1.00, 0.00, -0.00, -1.00, 453.4, 128.9)">s</text><text xml:space="preserve" font-family="FiraSans-Book,Fira Sans" font-size="28.0" fill="#20313F" transform="matrix(1.00, 0.00, -0.00, -1.00, 466.5, 128.9)"> </text><text xml:space="preserve" font-family="FiraSans-Book,Fira Sans" font-size="28.0" fill="#20313F" transform="matrix(1.00, 0.00, -0.00, -1.00, 474.0, 128.9)">a</text><text xml:space="preserve" font-family="FiraSans-Book,Fira Sans" font-size="28.0" fill="#20313F" transform="matrix(1.00, 0.00, -0.00, -1.00, 489.1, 128.9)">r</text><text xml:space="preserve" font-family="FiraSans-Book,Fira Sans" font-size="28.0" fill="#20313F" transform="matrix(1.00, 0.00, -0.00, -1.00, 499.6, 128.9)">e</text><text xml:space="preserve" font-family="FiraSans-Book,Fira Sans" font-size="28.0" fill="#20313F" transform="matrix(1.00, 0.00, -0.00, -1.00, 514.9, 128.9)"> </text><text xml:space="preserve" font-family="FiraSans-Book,Fira Sans" font-size="28.0" fill="#20313F" transform="matrix(1.00, 0.00, -0.00, -1.00, 522.4, 128.9)">o</text><text xml:space="preserve" font-family="FiraSans-Book,Fira Sans" font-size="28.0" fill="#20313F" transform="matrix(1.00, 0.00, -0.00, -1.00, 538.7, 128.9)">n</text><text xml:space="preserve" font-family="FiraSans-Book,Fira Sans" font-size="28.0" fill="#20313F" transform="matrix(1.00, 0.00, -0.00, -1.00, 555.0, 128.9)">l</text><text xml:space="preserve" font-family="FiraSans-Book,Fira Sans" font-size="28.0" fill="#20313F" transform="matrix(1.00, 0.00, -0.00, -1.00, 563.2, 128.9)">y</text><text xml:space="preserve" font-family="FiraSans-Book,Fira Sans" font-size="28.0" fill="#20313F" transform="matrix(1.00, 0.00, -0.00, -1.00, 576.8, 128.9)"> </text><text xml:space="preserve" font-family="FiraSans-Book,Fira Sans" font-size="28.0" fill="#20313F" transform="matrix(1.00, 0.00, -0.00, -1.00, 584.3, 128.9)">8</text><text xml:space="preserve" font-family="FiraSans-Book,Fira Sans" font-size="28.0" fill="#20313F" transform="matrix(1.00, 0.00, -0.00, -1.00, 599.6, 128.9)">0</text><text xml:space="preserve" font-family="FiraSans-Book,Fira Sans" font-size="28.0" fill="#20313F" transform="matrix(1.00, 0.00, -0.00, -1.00, 615.2, 128.9)">%</text><text xml:space="preserve" font-family="FiraSans-Book,Fira Sans" font-size="28.0" fill="#20313F" transform="matrix(1.00, 0.00, -0.00, -1.00, 638.1, 128.9)"> </text><text xml:space="preserve" font-family="FiraSans-Book,Fira Sans" font-size="28.0" fill="#20313F" transform="matrix(1.00, 0.00, -0.00, -1.00, 645.6, 128.9)">r</text><text xml:space="preserve" font-family="FiraSans-Book,Fira Sans" font-size="28.0" fill="#20313F" transform="matrix(1.00, 0.00, -0.00, -1.00, 656.1, 128.9)">e</text><text xml:space="preserve" font-family="FiraSans-Book,Fira Sans" font-size="28.0" fill="#20313F" transform="matrix(1.00, 0.00, -0.00, -1.00, 671.4, 128.9)">l</text><text xml:space="preserve" font-family="FiraSans-Book,Fira Sans" font-size="28.0" fill="#20313F" transform="matrix(1.00, 0.00, -0.00, -1.00, 679.5, 128.9)">i</text><text xml:space="preserve" font-family="FiraSans-Book,Fira Sans" font-size="28.0" fill="#20313F" transform="matrix(1.00, 0.00, -0.00, -1.00, 687.3, 128.9)">a</text><text xml:space="preserve" font-family="FiraSans-Book,Fira Sans" font-size="28.0" fill="#20313F" transform="matrix(1.00, 0.00, -0.00, -1.00, 702.5, 128.9)">b</text><text xml:space="preserve" font-family="FiraSans-Book,Fira Sans" font-size="28.0" fill="#20313F" transform="matrix(1.00, 0.00, -0.00, -1.00, 719.1, 128.9)">l</text><text xml:space="preserve" font-family="FiraSans-Book,Fira Sans" font-size="28.0" fill="#20313F" transform="matrix(1.00, 0.00, -0.00, -1.00, 726.9, 128.9)">e</text><text xml:space="preserve" font-family="FiraSans-Book,Fira Sans" font-size="28.0" fill="#20313F" transform="matrix(1.00, 0.00, -0.00, -1.00, 742.3, 128.9)">?</text><g opacity="0.20"><g><clipPath id="clip0x6180152a0f00"><path d="M 269.0 465.0 L 347.0 465.0 L 347.0 596.0 L 269.0 596.0 Z M 269.0 465.0 "></path></clipPath><g clip-path="url(#clip0x6180152a0f00)"><path d="M 271.0 595.0 L 346.0 595.0 L 346.0 467.0 L 271.0 467.0 Z M 270.8 594.7 " fill="#666B57"></path></g></g></g><g opacity="0.20"><g><clipPath id="clip0x6180152a11a0"><path d="M 351.0 465.0 L 429.0 465.0 L 429.0 596.0 L 351.0 596.0 Z M 351.0 465.0 "></path></clipPath><g clip-path="url(#clip0x6180152a11a0)"><path d="M 353.0 595.0 L 428.0 595.0 L 428.0 467.0 L 353.0 467.0 Z M 352.8 594.7 " fill="#666B57"></path></g></g></g><g opacity="0.20"><g><clipPath id="clip0x6180152a1440"><path d="M 595.0 465.0 L 673.0 465.0 L 673.0 596.0 L 595.0 596.0 Z M 595.0 465.0 "></path></clipPath><g clip-path="url(#clip0x6180152a1440)"><path d="M 597.0 595.0 L 672.0 595.0 L 672.0 467.0 L 597.0 467.0 Z M 596.8 594.7 " fill="#666B57"></path></g></g></g><g opacity="0.20"><g><clipPath id="clip0x6180152a16e0"><path d="M 512.0 326.0 L 590.0 326.0 L 590.0 457.0 L 512.0 457.0 Z M 512.0 326.0 "></path></clipPath><g clip-path="url(#clip0x6180152a16e0)"><path d="M 514.0 456.0 L 589.0 456.0 L 589.0 328.0 L 514.0 328.0 Z M 513.8 455.7 " fill="#666B57"></path></g></g></g><g opacity="0.20"><g><clipPath id="clip0x6180152a1980"><path d="M 432.0 189.0 L 510.0 189.0 L 510.0 320.0 L 432.0 320.0 Z M 432.0 189.0 "></path></clipPath><g clip-path="url(#clip0x6180152a1980)"><path d="M 434.0 319.0 L 509.0 319.0 L 509.0 191.0 L 434.0 191.0 Z M 433.8 318.7 " fill="#666B57"></path></g></g></g><g opacity="0.20"><g><clipPath id="clip0x6180152a1c20"><path d="M 594.0 189.0 L 672.0 189.0 L 672.0 320.0 L 594.0 320.0 Z M 594.0 189.0 "></path></clipPath><g clip-path="url(#clip0x6180152a1c20)"><path d="M 596.0 319.0 L 671.0 319.0 L 671.0 191.0 L 596.0 191.0 Z M 595.8 318.7 " fill="#666B57"></path></g></g></g><g opacity="0.20"><g><clipPath id="clip0x6180152a1ec0"><path d="M 677.0 326.0 L 755.0 326.0 L 755.0 457.0 L 677.0 457.0 Z M 677.0 326.0 "></path></clipPath><g clip-path="url(#clip0x6180152a1ec0)"><path d="M 679.0 456.0 L 754.0 456.0 L 754.0 328.0 L 679.0 328.0 Z M 678.8 455.7 " fill="#666B57"></path></g></g></g><g opacity="0.20"><g><clipPath id="clip0x6180152a2160"><path d="M 758.0 189.0 L 836.0 189.0 L 836.0 320.0 L 758.0 320.0 Z M 758.0 189.0 "></path></clipPath><g clip-path="url(#clip0x6180152a2160)"><path d="M 760.0 319.0 L 835.0 319.0 L 835.0 191.0 L 760.0 191.0 Z M 759.8 318.7 " fill="#666B57"></path></g></g></g><g opacity="0.20"><g><clipPath id="clip0x6180152a2400"><path d="M 677.0 189.0 L 755.0 189.0 L 755.0 320.0 L 677.0 320.0 Z M 677.0 189.0 "></path></clipPath><g clip-path="url(#clip0x6180152a2400)"><path d="M 679.0 319.0 L 754.0 319.0 L 754.0 191.0 L 679.0 191.0 Z M 678.8 318.7 " fill="#666B57"></path></g></g></g><text xml:space="preserve" font-family="FiraSans-Light,Fira Sans" font-size="49.8" fill="#20313F" transform="matrix(1.00, 0.00, -0.00, -1.00, 76.7, 667.9)">G</text><text xml:space="preserve" font-family="FiraSans-Light,Fira Sans" font-size="49.8" fill="#20313F" transform="matrix(1.00, 0.00, -0.00, -1.00, 107.5, 667.9)">u</text><text xml:space="preserve" font-family="FiraSans-Light,Fira Sans" font-size="49.8" fill="#20313F" transform="matrix(1.00, 0.00, -0.00, -1.00, 136.3, 667.9)">e</text><text xml:space="preserve" font-family="FiraSans-Light,Fira Sans" font-size="49.8" fill="#20313F" transform="matrix(1.00, 0.00, -0.00, -1.00, 163.1, 667.9)">s</text><text xml:space="preserve" font-family="FiraSans-Light,Fira Sans" font-size="49.8" fill="#20313F" transform="matrix(1.00, 0.00, -0.00, -1.00, 186.2, 667.9)">s</text><text xml:space="preserve" font-family="FiraSans-Light,Fira Sans" font-size="49.8" fill="#20313F" transform="matrix(1.00, 0.00, -0.00, -1.00, 209.3, 667.9)"> </text><text xml:space="preserve" font-family="FiraSans-Light,Fira Sans" font-size="49.8" fill="#20313F" transform="matrix(1.00, 0.00, -0.00, -1.00, 223.2, 667.9)">W</text><text xml:space="preserve" font-family="FiraSans-Light,Fira Sans" font-size="49.8" fill="#20313F" transform="matrix(1.00, 0.00, -0.00, -1.00, 263.6, 667.9)">h</text><text xml:space="preserve" font-family="FiraSans-Light,Fira Sans" font-size="49.8" fill="#20313F" transform="matrix(1.00, 0.00, -0.00, -1.00, 292.7, 667.9)">o</text><text xml:space="preserve" font-family="FiraSans-Light,Fira Sans" font-size="49.8" fill="#20313F" transform="matrix(1.00, 0.00, -0.00, -1.00, 321.1, 667.9)">:</text><text xml:space="preserve" font-family="FiraSans-Light,Fira Sans" font-size="49.8" fill="#20313F" transform="matrix(1.00, 0.00, -0.00, -1.00, 331.4, 667.9)"> </text><text xml:space="preserve" font-family="FiraSans-Light,Fira Sans" font-size="49.8" fill="#20313F" transform="matrix(1.00, 0.00, -0.00, -1.00, 345.3, 667.9)">O</text><text xml:space="preserve" font-family="FiraSans-Light,Fira Sans" font-size="49.8" fill="#20313F" transform="matrix(1.00, 0.00, -0.00, -1.00, 379.7, 667.9)">n</text><text xml:space="preserve" font-family="FiraSans-Light,Fira Sans" font-size="49.8" fill="#20313F" transform="matrix(1.00, 0.00, -0.00, -1.00, 408.8, 667.9)">t</text><text xml:space="preserve" font-family="FiraSans-Light,Fira Sans" font-size="49.8" fill="#20313F" transform="matrix(1.00, 0.00, -0.00, -1.00, 425.3, 667.9)">o</text><text xml:space="preserve" font-family="FiraSans-Light,Fira Sans" font-size="49.8" fill="#20313F" transform="matrix(1.00, 0.00, -0.00, -1.00, 453.7, 667.9)">l</text><text xml:space="preserve" font-family="FiraSans-Light,Fira Sans" font-size="49.8" fill="#20313F" transform="matrix(1.00, 0.00, -0.00, -1.00, 467.4, 667.9)">o</text><text xml:space="preserve" font-family="FiraSans-Light,Fira Sans" font-size="49.8" fill="#20313F" transform="matrix(1.00, 0.00, -0.00, -1.00, 495.8, 667.9)">g</text><text xml:space="preserve" font-family="FiraSans-Light,Fira Sans" font-size="49.8" fill="#20313F" transform="matrix(1.00, 0.00, -0.00, -1.00, 520.8, 667.9)">y</text><text xml:space="preserve" font-family="FiraSans-Light,Fira Sans" font-size="49.8" fill="#20313F" transform="matrix(1.00, 0.00, -0.00, -1.00, 544.2, 667.9)"> </text><text xml:space="preserve" font-family="FiraSans-Light,Fira Sans" font-size="49.8" fill="#20313F" transform="matrix(1.00, 0.00, -0.00, -1.00, 558.0, 667.9)">B</text><text xml:space="preserve" font-family="FiraSans-Light,Fira Sans" font-size="49.8" fill="#20313F" transform="matrix(1.00, 0.00, -0.00, -1.00, 587.8, 667.9)">a</text><text xml:space="preserve" font-family="FiraSans-Light,Fira Sans" font-size="49.8" fill="#20313F" transform="matrix(1.00, 0.00, -0.00, -1.00, 614.5, 667.9)">s</text><text xml:space="preserve" font-family="FiraSans-Light,Fira Sans" font-size="49.8" fill="#20313F" transform="matrix(1.00, 0.00, -0.00, -1.00, 637.6, 667.9)">e</text><text xml:space="preserve" font-family="FiraSans-Light,Fira Sans" font-size="49.8" fill="#20313F" transform="matrix(1.00, 0.00, -0.00, -1.00, 664.4, 667.9)">d</text><text xml:space="preserve" font-family="FiraSans-Light,Fira Sans" font-size="49.8" fill="#20313F" transform="matrix(1.00, 0.00, -0.00, -1.00, 693.6, 667.9)"> </text><text xml:space="preserve" font-family="FiraSans-Light,Fira Sans" font-size="49.8" fill="#20313F" transform="matrix(1.00, 0.00, -0.00, -1.00, 707.4, 667.9)">R</text><text xml:space="preserve" font-family="FiraSans-Light,Fira Sans" font-size="49.8" fill="#20313F" transform="matrix(1.00, 0.00, -0.00, -1.00, 735.6, 667.9)">e</text><text xml:space="preserve" font-family="FiraSans-Light,Fira Sans" font-size="49.8" fill="#20313F" transform="matrix(1.00, 0.00, -0.00, -1.00, 762.4, 667.9)">a</text><text xml:space="preserve" font-family="FiraSans-Light,Fira Sans" font-size="49.8" fill="#20313F" transform="matrix(1.00, 0.00, -0.00, -1.00, 789.1, 667.9)">s</text><text xml:space="preserve" font-family="FiraSans-Light,Fira Sans" font-size="49.8" fill="#20313F" transform="matrix(1.00, 0.00, -0.00, -1.00, 812.2, 667.9)">o</text><text xml:space="preserve" font-family="FiraSans-Light,Fira Sans" font-size="49.8" fill="#20313F" transform="matrix(1.00, 0.00, -0.00, -1.00, 840.6, 667.9)">n</text><text xml:space="preserve" font-family="FiraSans-Light,Fira Sans" font-size="49.8" fill="#20313F" transform="matrix(1.00, 0.00, -0.00, -1.00, 869.7, 667.9)">i</text><text xml:space="preserve" font-family="FiraSans-Light,Fira Sans" font-size="49.8" fill="#20313F" transform="matrix(1.00, 0.00, -0.00, -1.00, 883.1, 667.9)">n</text><text xml:space="preserve" font-family="FiraSans-Light,Fira Sans" font-size="49.8" fill="#20313F" transform="matrix(1.00, 0.00, -0.00, -1.00, 912.2, 667.9)">g</text></g></svg>