<?xml version="1.0" encoding="UTF-8" standalone="no"?><svg xmlns="http://www.w3.org/2000/svg" xmlns:xlink="http://www.w3.org/1999/xlink" clip-rule="evenodd" stroke-miterlimit="10" viewBox="0 0 905 57"><desc>SVG generated by Keynote</desc><defs></defs><g transform="matrix(1.00, 0.00, -0.00, -1.00, 0.0, 57.0)"><text xml:space="preserve" font-family="FiraSans-Light,Fira Sans" font-size="56.4" fill="#20313F" transform="matrix(1.00, 0.00, -0.00, -1.00, -5.0, 13.2)">E</text><text xml:space="preserve" font-family="FiraSans-Light,Fira Sans" font-size="56.4" fill="#20313F" transform="matrix(1.00, 0.00, -0.00, -1.00, 23.9, 13.2)">x</text><text xml:space="preserve" font-family="FiraSans-Light,Fira Sans" font-size="56.4" fill="#20313F" transform="matrix(1.00, 0.00, -0.00, -1.00, 49.8, 13.2)">a</text><text xml:space="preserve" font-family="FiraSans-Light,Fira Sans" font-size="56.4" fill="#20313F" transform="matrix(1.00, 0.00, -0.00, -1.00, 80.0, 13.2)">m</text><text xml:space="preserve" font-family="FiraSans-Light,Fira Sans" font-size="56.4" fill="#20313F" transform="matrix(1.00, 0.00, -0.00, -1.00, 128.1, 13.2)">p</text><text xml:space="preserve" font-family="FiraSans-Light,Fira Sans" font-size="56.4" fill="#20313F" transform="matrix(1.00, 0.00, -0.00, -1.00, 160.9, 13.2)">l</text><text xml:space="preserve" font-family="FiraSans-Light,Fira Sans" font-size="56.4" fill="#20313F" transform="matrix(1.00, 0.00, -0.00, -1.00, 176.3, 13.2)">e</text><text xml:space="preserve" font-family="FiraSans-Light,Fira Sans" font-size="56.4" fill="#20313F" transform="matrix(1.00, 0.00, -0.00, -1.00, 206.7, 13.2)">:</text><text xml:space="preserve" font-family="FiraSans-Light,Fira Sans" font-size="56.4" fill="#20313F" transform="matrix(1.00, 0.00, -0.00, -1.00, 218.4, 13.2)"> </text><text xml:space="preserve" font-family="FiraSans-Light,Fira Sans" font-size="56.4" fill="#20313F" transform="matrix(1.00, 0.00, -0.00, -1.00, 234.1, 13.2)">C</text><text xml:space="preserve" font-family="FiraSans-Light,Fira Sans" font-size="56.4" fill="#20313F" transform="matrix(1.00, 0.00, -0.00, -1.00, 265.1, 13.2)">a</text><text xml:space="preserve" font-family="FiraSans-Light,Fira Sans" font-size="56.4" fill="#20313F" transform="matrix(1.00, 0.00, -0.00, -1.00, 295.3, 13.2)">n</text><text xml:space="preserve" font-family="FiraSans-Light,Fira Sans" font-size="56.4" fill="#20313F" transform="matrix(1.00, 0.00, -0.00, -1.00, 328.3, 13.2)">a</text><text xml:space="preserve" font-family="FiraSans-Light,Fira Sans" font-size="56.4" fill="#20313F" transform="matrix(1.00, 0.00, -0.00, -1.00, 358.5, 13.2)">d</text><text xml:space="preserve" font-family="FiraSans-Light,Fira Sans" font-size="56.4" fill="#20313F" transform="matrix(1.00, 0.00, -0.00, -1.00, 391.5, 13.2)">i</text><text xml:space="preserve" font-family="FiraSans-Light,Fira Sans" font-size="56.4" fill="#20313F" transform="matrix(1.00, 0.00, -0.00, -1.00, 406.7, 13.2)">a</text><text xml:space="preserve" font-family="FiraSans-Light,Fira Sans" font-size="56.4" fill="#20313F" transform="matrix(1.00, 0.00, -0.00, -1.00, 437.0, 13.2)">n</text><text xml:space="preserve" font-family="FiraSans-Light,Fira Sans" font-size="56.4" fill="#20313F" transform="matrix(1.00, 0.00, -0.00, -1.00, 469.9, 13.2)"> </text><text xml:space="preserve" font-family="FiraSans-Light,Fira Sans" font-size="56.4" fill="#20313F" transform="matrix(1.00, 0.00, -0.00, -1.00, 485.6, 13.2)">T</text><text xml:space="preserve" font-family="FiraSans-Light,Fira Sans" font-size="56.4" fill="#20313F" transform="matrix(1.00, 0.00, -0.00, -1.00, 509.0, 13.2)">r</text><text xml:space="preserve" font-family="FiraSans-Light,Fira Sans" font-size="56.4" fill="#20313F" transform="matrix(1.00, 0.00, -0.00, -1.00, 529.0, 13.2)">a</text><text xml:space="preserve" font-family="FiraSans-Light,Fira Sans" font-size="56.4" fill="#20313F" transform="matrix(1.00, 0.00, -0.00, -1.00, 558.6, 13.2)">v</text><text xml:space="preserve" font-family="FiraSans-Light,Fira Sans" font-size="56.4" fill="#20313F" transform="matrix(1.00, 0.00, -0.00, -1.00, 584.6, 13.2)">e</text><text xml:space="preserve" font-family="FiraSans-Light,Fira Sans" font-size="56.4" fill="#20313F" transform="matrix(1.00, 0.00, -0.00, -1.00, 614.9, 13.2)">l</text><text xml:space="preserve" font-family="FiraSans-Light,Fira Sans" font-size="56.4" fill="#20313F" transform="matrix(1.00, 0.00, -0.00, -1.00, 630.4, 13.2)">e</text><text xml:space="preserve" font-family="FiraSans-Light,Fira Sans" font-size="56.4" fill="#20313F" transform="matrix(1.00, 0.00, -0.00, -1.00, 660.7, 13.2)">r</text><text xml:space="preserve" font-family="FiraSans-Light,Fira Sans" font-size="56.4" fill="#20313F" transform="matrix(1.00, 0.00, -0.00, -1.00, 681.7, 13.2)"> </text><text xml:space="preserve" font-family="FiraSans-Light,Fira Sans" font-size="56.4" fill="#20313F" transform="matrix(1.00, 0.00, -0.00, -1.00, 697.5, 13.2)">P</text><text xml:space="preserve" font-family="FiraSans-Light,Fira Sans" font-size="56.4" fill="#20313F" transform="matrix(1.00, 0.00, -0.00, -1.00, 729.6, 13.2)">r</text><text xml:space="preserve" font-family="FiraSans-Light,Fira Sans" font-size="56.4" fill="#20313F" transform="matrix(1.00, 0.00, -0.00, -1.00, 750.1, 13.2)">o</text><text xml:space="preserve" font-family="FiraSans-Light,Fira Sans" font-size="56.4" fill="#20313F" transform="matrix(1.00, 0.00, -0.00, -1.00, 782.3, 13.2)">b</text><text xml:space="preserve" font-family="FiraSans-Light,Fira Sans" font-size="56.4" fill="#20313F" transform="matrix(1.00, 0.00, -0.00, -1.00, 815.1, 13.2)">l</text><text xml:space="preserve" font-family="FiraSans-Light,Fira Sans" font-size="56.4" fill="#20313F" transform="matrix(1.00, 0.00, -0.00, -1.00, 830.5, 13.2)">e</text><text xml:space="preserve" font-family="FiraSans-Light,Fira Sans" font-size="56.4" fill="#20313F" transform="matrix(1.00, 0.00, -0.00, -1.00, 860.9, 13.2)">m</text></g></svg>