<?xml version="1.0" encoding="UTF-8" standalone="no"?><svg xmlns="http://www.w3.org/2000/svg" xmlns:xlink="http://www.w3.org/1999/xlink" clip-rule="evenodd" stroke-miterlimit="10" viewBox="0 0 809 61"><desc>SVG generated by Keynote</desc><defs></defs><g transform="matrix(1.00, 0.00, -0.00, -1.00, 0.0, 61.0)"><text xml:space="preserve" font-family="FiraSans-SemiBold,Fira Sans" font-weight="bold" font-size="22.0" fill="#000000" transform="matrix(1.00, 0.00, -0.00, -1.00, 3.0, 40.3)">v</text><text xml:space="preserve" font-family="FiraSans-SemiBold,Fira Sans" font-weight="bold" font-size="22.0" fill="#000000" transform="matrix(1.00, 0.00, -0.00, -1.00, 14.1, 40.3)">a</text><text xml:space="preserve" font-family="FiraSans-SemiBold,Fira Sans" font-weight="bold" font-size="22.0" fill="#000000" transform="matrix(1.00, 0.00, -0.00, -1.00, 26.2, 40.3)">n</text><text xml:space="preserve" font-family="FiraSans-SemiBold,Fira Sans" font-weight="bold" font-size="22.0" fill="#000000" transform="matrix(1.00, 0.00, -0.00, -1.00, 38.9, 40.3)"> </text><text xml:space="preserve" font-family="FiraSans-SemiBold,Fira Sans" font-weight="bold" font-size="22.0" fill="#000000" transform="matrix(1.00, 0.00, -0.00, -1.00, 44.3, 40.3)">d</text><text xml:space="preserve" font-family="FiraSans-SemiBold,Fira Sans" font-weight="bold" font-size="22.0" fill="#000000" transform="matrix(1.00, 0.00, -0.00, -1.00, 57.2, 40.3)">e</text><text xml:space="preserve" font-family="FiraSans-SemiBold,Fira Sans" font-weight="bold" font-size="22.0" fill="#000000" transform="matrix(1.00, 0.00, -0.00, -1.00, 69.4, 40.3)"> </text><text xml:space="preserve" font-family="FiraSans-SemiBold,Fira Sans" font-weight="bold" font-size="22.0" fill="#000000" transform="matrix(1.00, 0.00, -0.00, -1.00, 74.8, 40.3)">M</text><text xml:space="preserve" font-family="FiraSans-SemiBold,Fira Sans" font-weight="bold" font-size="22.0" fill="#000000" transform="matrix(1.00, 0.00, -0.00, -1.00, 92.1, 40.3)">e</text><text xml:space="preserve" font-family="FiraSans-SemiBold,Fira Sans" font-weight="bold" font-size="22.0" fill="#000000" transform="matrix(1.00, 0.00, -0.00, -1.00, 104.3, 40.3)">e</text><text xml:space="preserve" font-family="FiraSans-SemiBold,Fira Sans" font-weight="bold" font-size="22.0" fill="#000000" transform="matrix(1.00, 0.00, -0.00, -1.00, 116.5, 40.3)">n</text><text xml:space="preserve" font-family="FiraSans-SemiBold,Fira Sans" font-weight="bold" font-size="22.0" fill="#000000" transform="matrix(1.00, 0.00, -0.00, -1.00, 129.2, 40.3)">t</text><text xml:space="preserve" font-family="FiraSans-SemiBold,Fira Sans" font-weight="bold" font-size="22.0" fill="#000000" transform="matrix(1.00, 0.00, -0.00, -1.00, 137.6, 40.3)">,</text><text xml:space="preserve" font-family="FiraSans-SemiBold,Fira Sans" font-weight="bold" font-size="22.0" fill="#000000" transform="matrix(1.00, 0.00, -0.00, -1.00, 142.8, 40.3)"> </text><text xml:space="preserve" font-family="FiraSans-SemiBold,Fira Sans" font-weight="bold" font-size="22.0" fill="#000000" transform="matrix(1.00, 0.00, -0.00, -1.00, 148.2, 40.3)">J</text><text xml:space="preserve" font-family="FiraSans-SemiBold,Fira Sans" font-weight="bold" font-size="22.0" fill="#000000" transform="matrix(1.00, 0.00, -0.00, -1.00, 155.1, 40.3)">.</text><text xml:space="preserve" font-family="FiraSans-SemiBold,Fira Sans" font-weight="bold" font-size="22.0" fill="#000000" transform="matrix(1.00, 0.00, -0.00, -1.00, 160.4, 40.3)">-</text><text xml:space="preserve" font-family="FiraSans-SemiBold,Fira Sans" font-weight="bold" font-size="22.0" fill="#000000" transform="matrix(1.00, 0.00, -0.00, -1.00, 168.9, 40.3)">W</text><text xml:space="preserve" font-family="FiraSans-SemiBold,Fira Sans" font-weight="bold" font-size="22.0" fill="#000000" transform="matrix(1.00, 0.00, -0.00, -1.00, 187.0, 40.3)">.</text><text xml:space="preserve" font-family="FiraSans-Light,Fira Sans" font-size="22.0" fill="#000000" transform="matrix(1.00, 0.00, -0.00, -1.00, 192.3, 40.3)">,</text><text xml:space="preserve" font-family="FiraSans-Light,Fira Sans" font-size="22.0" fill="#000000" transform="matrix(1.00, 0.00, -0.00, -1.00, 196.8, 40.3)"> </text><text xml:space="preserve" font-family="FiraSans-Light,Fira Sans" font-size="22.0" fill="#000000" transform="matrix(1.00, 0.00, -0.00, -1.00, 202.9, 40.3)">T</text><text xml:space="preserve" font-family="FiraSans-Light,Fira Sans" font-size="22.0" fill="#000000" transform="matrix(1.00, 0.00, -0.00, -1.00, 212.1, 40.3)">o</text><text xml:space="preserve" font-family="FiraSans-Light,Fira Sans" font-size="22.0" fill="#000000" transform="matrix(1.00, 0.00, -0.00, -1.00, 224.6, 40.3)">l</text><text xml:space="preserve" font-family="FiraSans-Light,Fira Sans" font-size="22.0" fill="#000000" transform="matrix(1.00, 0.00, -0.00, -1.00, 230.9, 40.3)">p</text><text xml:space="preserve" font-family="FiraSans-Light,Fira Sans" font-size="22.0" fill="#000000" transform="matrix(1.00, 0.00, -0.00, -1.00, 243.7, 40.3)">i</text><text xml:space="preserve" font-family="FiraSans-Light,Fira Sans" font-size="22.0" fill="#000000" transform="matrix(1.00, 0.00, -0.00, -1.00, 249.6, 40.3)">n</text><text xml:space="preserve" font-family="FiraSans-Light,Fira Sans" font-size="22.0" fill="#000000" transform="matrix(1.00, 0.00, -0.00, -1.00, 262.5, 40.3)">,</text><text xml:space="preserve" font-family="FiraSans-Light,Fira Sans" font-size="22.0" fill="#000000" transform="matrix(1.00, 0.00, -0.00, -1.00, 267.0, 40.3)"> </text><text xml:space="preserve" font-family="FiraSans-Light,Fira Sans" font-size="22.0" fill="#000000" transform="matrix(1.00, 0.00, -0.00, -1.00, 273.1, 40.3)">D</text><text xml:space="preserve" font-family="FiraSans-Light,Fira Sans" font-size="22.0" fill="#000000" transform="matrix(1.00, 0.00, -0.00, -1.00, 286.6, 40.3)">.</text><text xml:space="preserve" font-family="FiraSans-Light,Fira Sans" font-size="22.0" fill="#000000" transform="matrix(1.00, 0.00, -0.00, -1.00, 291.2, 40.3)">,</text><text xml:space="preserve" font-family="FiraSans-Light,Fira Sans" font-size="22.0" fill="#000000" transform="matrix(1.00, 0.00, -0.00, -1.00, 295.7, 40.3)"> </text><text xml:space="preserve" font-family="FiraSans-Light,Fira Sans" font-size="22.0" fill="#000000" transform="matrix(1.00, 0.00, -0.00, -1.00, 301.9, 40.3)">P</text><text xml:space="preserve" font-family="FiraSans-Light,Fira Sans" font-size="22.0" fill="#000000" transform="matrix(1.00, 0.00, -0.00, -1.00, 313.7, 40.3)">a</text><text xml:space="preserve" font-family="FiraSans-Light,Fira Sans" font-size="22.0" fill="#000000" transform="matrix(1.00, 0.00, -0.00, -1.00, 325.5, 40.3)">i</text><text xml:space="preserve" font-family="FiraSans-Light,Fira Sans" font-size="22.0" fill="#000000" transform="matrix(1.00, 0.00, -0.00, -1.00, 331.5, 40.3)">g</text><text xml:space="preserve" font-family="FiraSans-Light,Fira Sans" font-size="22.0" fill="#000000" transform="matrix(1.00, 0.00, -0.00, -1.00, 342.2, 40.3)">e</text><text xml:space="preserve" font-family="FiraSans-Light,Fira Sans" font-size="22.0" fill="#000000" transform="matrix(1.00, 0.00, -0.00, -1.00, 354.0, 40.3)">,</text><text xml:space="preserve" font-family="FiraSans-Light,Fira Sans" font-size="22.0" fill="#000000" transform="matrix(1.00, 0.00, -0.00, -1.00, 358.6, 40.3)"> </text><text xml:space="preserve" font-family="FiraSans-Light,Fira Sans" font-size="22.0" fill="#000000" transform="matrix(1.00, 0.00, -0.00, -1.00, 364.7, 40.3)">B</text><text xml:space="preserve" font-family="FiraSans-Light,Fira Sans" font-size="22.0" fill="#000000" transform="matrix(1.00, 0.00, -0.00, -1.00, 377.9, 40.3)">.</text><text xml:space="preserve" font-family="FiraSans-Light,Fira Sans" font-size="22.0" fill="#000000" transform="matrix(1.00, 0.00, -0.00, -1.00, 382.4, 40.3)">,</text><text xml:space="preserve" font-family="FiraSans-Light,Fira Sans" font-size="22.0" fill="#000000" transform="matrix(1.00, 0.00, -0.00, -1.00, 387.0, 40.3)"> </text><text xml:space="preserve" font-family="FiraSans-Light,Fira Sans" font-size="22.0" fill="#000000" transform="matrix(1.00, 0.00, -0.00, -1.00, 393.1, 40.3)">&amp;</text><text xml:space="preserve" font-family="FiraSans-Light,Fira Sans" font-size="22.0" fill="#000000" transform="matrix(1.00, 0.00, -0.00, -1.00, 409.5, 40.3)"> </text><text xml:space="preserve" font-family="FiraSans-Light,Fira Sans" font-size="22.0" fill="#000000" transform="matrix(1.00, 0.00, -0.00, -1.00, 415.6, 40.3)">W</text><text xml:space="preserve" font-family="FiraSans-Light,Fira Sans" font-size="22.0" fill="#000000" transform="matrix(1.00, 0.00, -0.00, -1.00, 432.8, 40.3)">o</text><text xml:space="preserve" font-family="FiraSans-Light,Fira Sans" font-size="22.0" fill="#000000" transform="matrix(1.00, 0.00, -0.00, -1.00, 445.3, 40.3)">o</text><text xml:space="preserve" font-family="FiraSans-Light,Fira Sans" font-size="22.0" fill="#000000" transform="matrix(1.00, 0.00, -0.00, -1.00, 457.9, 40.3)">d</text><text xml:space="preserve" font-family="FiraSans-Light,Fira Sans" font-size="22.0" fill="#000000" transform="matrix(1.00, 0.00, -0.00, -1.00, 470.8, 40.3)">,</text><text xml:space="preserve" font-family="FiraSans-Light,Fira Sans" font-size="22.0" fill="#000000" transform="matrix(1.00, 0.00, -0.00, -1.00, 475.3, 40.3)"> </text><text xml:space="preserve" font-family="FiraSans-Light,Fira Sans" font-size="22.0" fill="#000000" transform="matrix(1.00, 0.00, -0.00, -1.00, 481.5, 40.3)">F</text><text xml:space="preserve" font-family="FiraSans-Light,Fira Sans" font-size="22.0" fill="#000000" transform="matrix(1.00, 0.00, -0.00, -1.00, 490.3, 40.3)">.</text><text xml:space="preserve" font-family="FiraSans-Light,Fira Sans" font-size="22.0" fill="#000000" transform="matrix(1.00, 0.00, -0.00, -1.00, 494.8, 40.3)"> </text><text xml:space="preserve" font-family="FiraSans-Light,Fira Sans" font-size="22.0" fill="#000000" transform="matrix(1.00, 0.00, -0.00, -1.00, 501.0, 40.3)">(</text><text xml:space="preserve" font-family="FiraSans-Light,Fira Sans" font-size="22.0" fill="#000000" transform="matrix(1.00, 0.00, -0.00, -1.00, 508.1, 40.3)">2</text><text xml:space="preserve" font-family="FiraSans-Light,Fira Sans" font-size="22.0" fill="#000000" transform="matrix(1.00, 0.00, -0.00, -1.00, 518.6, 40.3)">0</text><text xml:space="preserve" font-family="FiraSans-Light,Fira Sans" font-size="22.0" fill="#000000" transform="matrix(1.00, 0.00, -0.00, -1.00, 530.5, 40.3)">1</text><text xml:space="preserve" font-family="FiraSans-Light,Fira Sans" font-size="22.0" fill="#000000" transform="matrix(1.00, 0.00, -0.00, -1.00, 539.6, 40.3)">6</text><text xml:space="preserve" font-family="FiraSans-Light,Fira Sans" font-size="22.0" fill="#000000" transform="matrix(1.00, 0.00, -0.00, -1.00, 551.1, 40.3)">)</text><text xml:space="preserve" font-family="FiraSans-Light,Fira Sans" font-size="22.0" fill="#000000" transform="matrix(1.00, 0.00, -0.00, -1.00, 558.3, 40.3)">.</text><text xml:space="preserve" font-family="FiraSans-Light,Fira Sans" font-size="22.0" fill="#000000" transform="matrix(1.00, 0.00, -0.00, -1.00, 562.8, 40.3)"> </text><text xml:space="preserve" font-family="FiraSans-LightItalic,Fira Sans" font-style="italic" font-size="22.0" fill="#000000" transform="matrix(1.00, 0.00, -0.00, -1.00, 569.0, 40.3)">B</text><text xml:space="preserve" font-family="FiraSans-LightItalic,Fira Sans" font-style="italic" font-size="22.0" fill="#000000" transform="matrix(1.00, 0.00, -0.00, -1.00, 582.0, 40.3)">l</text><text xml:space="preserve" font-family="FiraSans-LightItalic,Fira Sans" font-style="italic" font-size="22.0" fill="#000000" transform="matrix(1.00, 0.00, -0.00, -1.00, 588.0, 40.3)">a</text><text xml:space="preserve" font-family="FiraSans-LightItalic,Fira Sans" font-style="italic" font-size="22.0" fill="#000000" transform="matrix(1.00, 0.00, -0.00, -1.00, 600.3, 40.3)">c</text><text xml:space="preserve" font-family="FiraSans-LightItalic,Fira Sans" font-style="italic" font-size="22.0" fill="#000000" transform="matrix(1.00, 0.00, -0.00, -1.00, 610.6, 40.3)">k</text><text xml:space="preserve" font-family="FiraSans-LightItalic,Fira Sans" font-style="italic" font-size="22.0" fill="#000000" transform="matrix(1.00, 0.00, -0.00, -1.00, 621.6, 40.3)">-</text><text xml:space="preserve" font-family="FiraSans-LightItalic,Fira Sans" font-style="italic" font-size="22.0" fill="#000000" transform="matrix(1.00, 0.00, -0.00, -1.00, 630.4, 40.3)">B</text><text xml:space="preserve" font-family="FiraSans-LightItalic,Fira Sans" font-style="italic" font-size="22.0" fill="#000000" transform="matrix(1.00, 0.00, -0.00, -1.00, 643.5, 40.3)">o</text><text xml:space="preserve" font-family="FiraSans-LightItalic,Fira Sans" font-style="italic" font-size="22.0" fill="#000000" transform="matrix(1.00, 0.00, -0.00, -1.00, 655.6, 40.3)">x</text><text xml:space="preserve" font-family="FiraSans-LightItalic,Fira Sans" font-style="italic" font-size="22.0" fill="#000000" transform="matrix(1.00, 0.00, -0.00, -1.00, 665.6, 40.3)"> </text><text xml:space="preserve" font-family="FiraSans-LightItalic,Fira Sans" font-style="italic" font-size="22.0" fill="#000000" transform="matrix(1.00, 0.00, -0.00, -1.00, 671.7, 40.3)">P</text><text xml:space="preserve" font-family="FiraSans-LightItalic,Fira Sans" font-style="italic" font-size="22.0" fill="#000000" transform="matrix(1.00, 0.00, -0.00, -1.00, 683.7, 40.3)">o</text><text xml:space="preserve" font-family="FiraSans-LightItalic,Fira Sans" font-style="italic" font-size="22.0" fill="#000000" transform="matrix(1.00, 0.00, -0.00, -1.00, 696.2, 40.3)">l</text><text xml:space="preserve" font-family="FiraSans-LightItalic,Fira Sans" font-style="italic" font-size="22.0" fill="#000000" transform="matrix(1.00, 0.00, -0.00, -1.00, 702.4, 40.3)">i</text><text xml:space="preserve" font-family="FiraSans-LightItalic,Fira Sans" font-style="italic" font-size="22.0" fill="#000000" transform="matrix(1.00, 0.00, -0.00, -1.00, 708.3, 40.3)">c</text><text xml:space="preserve" font-family="FiraSans-LightItalic,Fira Sans" font-style="italic" font-size="22.0" fill="#000000" transform="matrix(1.00, 0.00, -0.00, -1.00, 718.6, 40.3)">y</text><text xml:space="preserve" font-family="FiraSans-LightItalic,Fira Sans" font-style="italic" font-size="22.0" fill="#000000" transform="matrix(1.00, 0.00, -0.00, -1.00, 728.8, 40.3)"> </text><text xml:space="preserve" font-family="FiraSans-LightItalic,Fira Sans" font-style="italic" font-size="22.0" fill="#000000" transform="matrix(1.00, 0.00, -0.00, -1.00, 734.9, 40.3)">S</text><text xml:space="preserve" font-family="FiraSans-LightItalic,Fira Sans" font-style="italic" font-size="22.0" fill="#000000" transform="matrix(1.00, 0.00, -0.00, -1.00, 746.7, 40.3)">e</text><text xml:space="preserve" font-family="FiraSans-LightItalic,Fira Sans" font-style="italic" font-size="22.0" fill="#000000" transform="matrix(1.00, 0.00, -0.00, -1.00, 758.1, 40.3)">a</text><text xml:space="preserve" font-family="FiraSans-LightItalic,Fira Sans" font-style="italic" font-size="22.0" fill="#000000" transform="matrix(1.00, 0.00, -0.00, -1.00, 770.5, 40.3)">r</text><text xml:space="preserve" font-family="FiraSans-LightItalic,Fira Sans" font-style="italic" font-size="22.0" fill="#000000" transform="matrix(1.00, 0.00, -0.00, -1.00, 778.4, 40.3)">c</text><text xml:space="preserve" font-family="FiraSans-LightItalic,Fira Sans" font-style="italic" font-size="22.0" fill="#000000" transform="matrix(1.00, 0.00, -0.00, -1.00, 788.7, 40.3)">h</text><text xml:space="preserve" font-family="FiraSans-LightItalic,Fira Sans" font-style="italic" font-size="22.0" fill="#000000" transform="matrix(1.00, 0.00, -0.00, -1.00, 801.5, 40.3)"> </text><text xml:space="preserve" font-family="LucidaGrande,Lucida Grande" font-size="22.0" fill="#000000" transform="matrix(1.00, 0.00, -0.00, -1.00, 807.5, 40.3)"> </text><text xml:space="preserve" font-family="FiraSans-LightItalic,Fira Sans" font-style="italic" font-size="22.0" fill="#000000" transform="matrix(1.00, 0.00, -0.00, -1.00, 3.0, 6.3)">w</text><text xml:space="preserve" font-family="FiraSans-LightItalic,Fira Sans" font-style="italic" font-size="22.0" fill="#000000" transform="matrix(1.00, 0.00, -0.00, -1.00, 18.3, 6.3)">i</text><text xml:space="preserve" font-family="FiraSans-LightItalic,Fira Sans" font-style="italic" font-size="22.0" fill="#000000" transform="matrix(1.00, 0.00, -0.00, -1.00, 24.2, 6.3)">t</text><text xml:space="preserve" font-family="FiraSans-LightItalic,Fira Sans" font-style="italic" font-size="22.0" fill="#000000" transform="matrix(1.00, 0.00, -0.00, -1.00, 31.7, 6.3)">h</text><text xml:space="preserve" font-family="FiraSans-LightItalic,Fira Sans" font-style="italic" font-size="22.0" fill="#000000" transform="matrix(1.00, 0.00, -0.00, -1.00, 44.4, 6.3)"> </text><text xml:space="preserve" font-family="FiraSans-LightItalic,Fira Sans" font-style="italic" font-size="22.0" fill="#000000" transform="matrix(1.00, 0.00, -0.00, -1.00, 50.5, 6.3)">P</text><text xml:space="preserve" font-family="FiraSans-LightItalic,Fira Sans" font-style="italic" font-size="22.0" fill="#000000" transform="matrix(1.00, 0.00, -0.00, -1.00, 63.0, 6.3)">r</text><text xml:space="preserve" font-family="FiraSans-LightItalic,Fira Sans" font-style="italic" font-size="22.0" fill="#000000" transform="matrix(1.00, 0.00, -0.00, -1.00, 70.9, 6.3)">o</text><text xml:space="preserve" font-family="FiraSans-LightItalic,Fira Sans" font-style="italic" font-size="22.0" fill="#000000" transform="matrix(1.00, 0.00, -0.00, -1.00, 83.4, 6.3)">b</text><text xml:space="preserve" font-family="FiraSans-LightItalic,Fira Sans" font-style="italic" font-size="22.0" fill="#000000" transform="matrix(1.00, 0.00, -0.00, -1.00, 96.0, 6.3)">a</text><text xml:space="preserve" font-family="FiraSans-LightItalic,Fira Sans" font-style="italic" font-size="22.0" fill="#000000" transform="matrix(1.00, 0.00, -0.00, -1.00, 108.3, 6.3)">b</text><text xml:space="preserve" font-family="FiraSans-LightItalic,Fira Sans" font-style="italic" font-size="22.0" fill="#000000" transform="matrix(1.00, 0.00, -0.00, -1.00, 120.9, 6.3)">i</text><text xml:space="preserve" font-family="FiraSans-LightItalic,Fira Sans" font-style="italic" font-size="22.0" fill="#000000" transform="matrix(1.00, 0.00, -0.00, -1.00, 126.8, 6.3)">l</text><text xml:space="preserve" font-family="FiraSans-LightItalic,Fira Sans" font-style="italic" font-size="22.0" fill="#000000" transform="matrix(1.00, 0.00, -0.00, -1.00, 133.0, 6.3)">i</text><text xml:space="preserve" font-family="FiraSans-LightItalic,Fira Sans" font-style="italic" font-size="22.0" fill="#000000" transform="matrix(1.00, 0.00, -0.00, -1.00, 138.9, 6.3)">s</text><text xml:space="preserve" font-family="FiraSans-LightItalic,Fira Sans" font-style="italic" font-size="22.0" fill="#000000" transform="matrix(1.00, 0.00, -0.00, -1.00, 149.0, 6.3)">t</text><text xml:space="preserve" font-family="FiraSans-LightItalic,Fira Sans" font-style="italic" font-size="22.0" fill="#000000" transform="matrix(1.00, 0.00, -0.00, -1.00, 156.5, 6.3)">i</text><text xml:space="preserve" font-family="FiraSans-LightItalic,Fira Sans" font-style="italic" font-size="22.0" fill="#000000" transform="matrix(1.00, 0.00, -0.00, -1.00, 162.4, 6.3)">c</text><text xml:space="preserve" font-family="FiraSans-LightItalic,Fira Sans" font-style="italic" font-size="22.0" fill="#000000" transform="matrix(1.00, 0.00, -0.00, -1.00, 172.7, 6.3)"> </text><text xml:space="preserve" font-family="FiraSans-LightItalic,Fira Sans" font-style="italic" font-size="22.0" fill="#000000" transform="matrix(1.00, 0.00, -0.00, -1.00, 178.8, 6.3)">P</text><text xml:space="preserve" font-family="FiraSans-LightItalic,Fira Sans" font-style="italic" font-size="22.0" fill="#000000" transform="matrix(1.00, 0.00, -0.00, -1.00, 191.2, 6.3)">r</text><text xml:space="preserve" font-family="FiraSans-LightItalic,Fira Sans" font-style="italic" font-size="22.0" fill="#000000" transform="matrix(1.00, 0.00, -0.00, -1.00, 199.2, 6.3)">o</text><text xml:space="preserve" font-family="FiraSans-LightItalic,Fira Sans" font-style="italic" font-size="22.0" fill="#000000" transform="matrix(1.00, 0.00, -0.00, -1.00, 211.7, 6.3)">g</text><text xml:space="preserve" font-family="FiraSans-LightItalic,Fira Sans" font-style="italic" font-size="22.0" fill="#000000" transform="matrix(1.00, 0.00, -0.00, -1.00, 224.1, 6.3)">r</text><text xml:space="preserve" font-family="FiraSans-LightItalic,Fira Sans" font-style="italic" font-size="22.0" fill="#000000" transform="matrix(1.00, 0.00, -0.00, -1.00, 232.1, 6.3)">a</text><text xml:space="preserve" font-family="FiraSans-LightItalic,Fira Sans" font-style="italic" font-size="22.0" fill="#000000" transform="matrix(1.00, 0.00, -0.00, -1.00, 244.4, 6.3)">m</text><text xml:space="preserve" font-family="FiraSans-LightItalic,Fira Sans" font-style="italic" font-size="22.0" fill="#000000" transform="matrix(1.00, 0.00, -0.00, -1.00, 263.1, 6.3)">s</text><text xml:space="preserve" font-family="FiraSans-Light,Fira Sans" font-size="22.0" fill="#000000" transform="matrix(1.00, 0.00, -0.00, -1.00, 273.2, 6.3)">.</text><text xml:space="preserve" font-family="FiraSans-Light,Fira Sans" font-size="22.0" fill="#000000" transform="matrix(1.00, 0.00, -0.00, -1.00, 277.8, 6.3)"> </text><text xml:space="preserve" font-family="FiraSans-Light,Fira Sans" font-size="22.0" fill="#000000" transform="matrix(1.00, 0.00, -0.00, -1.00, 283.9, 6.3)">A</text><text xml:space="preserve" font-family="FiraSans-Light,Fira Sans" font-size="22.0" fill="#000000" transform="matrix(1.00, 0.00, -0.00, -1.00, 296.3, 6.3)">r</text><text xml:space="preserve" font-family="FiraSans-Light,Fira Sans" font-size="22.0" fill="#000000" transform="matrix(1.00, 0.00, -0.00, -1.00, 304.8, 6.3)">t</text><text xml:space="preserve" font-family="FiraSans-Light,Fira Sans" font-size="22.0" fill="#000000" transform="matrix(1.00, 0.00, -0.00, -1.00, 312.3, 6.3)">i</text><text xml:space="preserve" font-family="FiraSans-Light,Fira Sans" font-size="22.0" fill="#000000" transform="matrix(1.00, 0.00, -0.00, -1.00, 318.2, 6.3)">ﬁ</text><text xml:space="preserve" font-family="FiraSans-Light,Fira Sans" font-size="22.0" fill="#000000" transform="matrix(1.00, 0.00, -0.00, -1.00, 330.7, 6.3)">c</text><text xml:space="preserve" font-family="FiraSans-Light,Fira Sans" font-size="22.0" fill="#000000" transform="matrix(1.00, 0.00, -0.00, -1.00, 341.0, 6.3)">i</text><text xml:space="preserve" font-family="FiraSans-Light,Fira Sans" font-size="22.0" fill="#000000" transform="matrix(1.00, 0.00, -0.00, -1.00, 346.9, 6.3)">a</text><text xml:space="preserve" font-family="FiraSans-Light,Fira Sans" font-size="22.0" fill="#000000" transform="matrix(1.00, 0.00, -0.00, -1.00, 358.7, 6.3)">l</text><text xml:space="preserve" font-family="FiraSans-Light,Fira Sans" font-size="22.0" fill="#000000" transform="matrix(1.00, 0.00, -0.00, -1.00, 365.0, 6.3)"> </text><text xml:space="preserve" font-family="FiraSans-Light,Fira Sans" font-size="22.0" fill="#000000" transform="matrix(1.00, 0.00, -0.00, -1.00, 371.1, 6.3)">I</text><text xml:space="preserve" font-family="FiraSans-Light,Fira Sans" font-size="22.0" fill="#000000" transform="matrix(1.00, 0.00, -0.00, -1.00, 377.3, 6.3)">n</text><text xml:space="preserve" font-family="FiraSans-Light,Fira Sans" font-size="22.0" fill="#000000" transform="matrix(1.00, 0.00, -0.00, -1.00, 390.2, 6.3)">t</text><text xml:space="preserve" font-family="FiraSans-Light,Fira Sans" font-size="22.0" fill="#000000" transform="matrix(1.00, 0.00, -0.00, -1.00, 397.4, 6.3)">e</text><text xml:space="preserve" font-family="FiraSans-Light,Fira Sans" font-size="22.0" fill="#000000" transform="matrix(1.00, 0.00, -0.00, -1.00, 409.3, 6.3)">l</text><text xml:space="preserve" font-family="FiraSans-Light,Fira Sans" font-size="22.0" fill="#000000" transform="matrix(1.00, 0.00, -0.00, -1.00, 415.5, 6.3)">l</text><text xml:space="preserve" font-family="FiraSans-Light,Fira Sans" font-size="22.0" fill="#000000" transform="matrix(1.00, 0.00, -0.00, -1.00, 421.8, 6.3)">i</text><text xml:space="preserve" font-family="FiraSans-Light,Fira Sans" font-size="22.0" fill="#000000" transform="matrix(1.00, 0.00, -0.00, -1.00, 427.7, 6.3)">g</text><text xml:space="preserve" font-family="FiraSans-Light,Fira Sans" font-size="22.0" fill="#000000" transform="matrix(1.00, 0.00, -0.00, -1.00, 438.5, 6.3)">e</text><text xml:space="preserve" font-family="FiraSans-Light,Fira Sans" font-size="22.0" fill="#000000" transform="matrix(1.00, 0.00, -0.00, -1.00, 450.3, 6.3)">n</text><text xml:space="preserve" font-family="FiraSans-Light,Fira Sans" font-size="22.0" fill="#000000" transform="matrix(1.00, 0.00, -0.00, -1.00, 463.1, 6.3)">c</text><text xml:space="preserve" font-family="FiraSans-Light,Fira Sans" font-size="22.0" fill="#000000" transform="matrix(1.00, 0.00, -0.00, -1.00, 473.2, 6.3)">e</text><text xml:space="preserve" font-family="FiraSans-Light,Fira Sans" font-size="22.0" fill="#000000" transform="matrix(1.00, 0.00, -0.00, -1.00, 485.1, 6.3)"> </text><text xml:space="preserve" font-family="FiraSans-Light,Fira Sans" font-size="22.0" fill="#000000" transform="matrix(1.00, 0.00, -0.00, -1.00, 491.2, 6.3)">a</text><text xml:space="preserve" font-family="FiraSans-Light,Fira Sans" font-size="22.0" fill="#000000" transform="matrix(1.00, 0.00, -0.00, -1.00, 503.0, 6.3)">n</text><text xml:space="preserve" font-family="FiraSans-Light,Fira Sans" font-size="22.0" fill="#000000" transform="matrix(1.00, 0.00, -0.00, -1.00, 515.9, 6.3)">d</text><text xml:space="preserve" font-family="FiraSans-Light,Fira Sans" font-size="22.0" fill="#000000" transform="matrix(1.00, 0.00, -0.00, -1.00, 528.7, 6.3)"> </text><text xml:space="preserve" font-family="FiraSans-Light,Fira Sans" font-size="22.0" fill="#000000" transform="matrix(1.00, 0.00, -0.00, -1.00, 534.9, 6.3)">S</text><text xml:space="preserve" font-family="FiraSans-Light,Fira Sans" font-size="22.0" fill="#000000" transform="matrix(1.00, 0.00, -0.00, -1.00, 546.7, 6.3)">t</text><text xml:space="preserve" font-family="FiraSans-Light,Fira Sans" font-size="22.0" fill="#000000" transform="matrix(1.00, 0.00, -0.00, -1.00, 554.2, 6.3)">a</text><text xml:space="preserve" font-family="FiraSans-Light,Fira Sans" font-size="22.0" fill="#000000" transform="matrix(1.00, 0.00, -0.00, -1.00, 566.0, 6.3)">t</text><text xml:space="preserve" font-family="FiraSans-Light,Fira Sans" font-size="22.0" fill="#000000" transform="matrix(1.00, 0.00, -0.00, -1.00, 573.5, 6.3)">i</text><text xml:space="preserve" font-family="FiraSans-Light,Fira Sans" font-size="22.0" fill="#000000" transform="matrix(1.00, 0.00, -0.00, -1.00, 579.5, 6.3)">s</text><text xml:space="preserve" font-family="FiraSans-Light,Fira Sans" font-size="22.0" fill="#000000" transform="matrix(1.00, 0.00, -0.00, -1.00, 589.7, 6.3)">t</text><text xml:space="preserve" font-family="FiraSans-Light,Fira Sans" font-size="22.0" fill="#000000" transform="matrix(1.00, 0.00, -0.00, -1.00, 597.2, 6.3)">i</text><text xml:space="preserve" font-family="FiraSans-Light,Fira Sans" font-size="22.0" fill="#000000" transform="matrix(1.00, 0.00, -0.00, -1.00, 603.1, 6.3)">c</text><text xml:space="preserve" font-family="FiraSans-Light,Fira Sans" font-size="22.0" fill="#000000" transform="matrix(1.00, 0.00, -0.00, -1.00, 613.4, 6.3)">s</text><text xml:space="preserve" font-family="FiraSans-Light,Fira Sans" font-size="22.0" fill="#000000" transform="matrix(1.00, 0.00, -0.00, -1.00, 623.6, 6.3)"> </text><text xml:space="preserve" font-family="FiraSans-Light,Fira Sans" font-size="22.0" fill="#000000" transform="matrix(1.00, 0.00, -0.00, -1.00, 629.8, 6.3)">(</text><text xml:space="preserve" font-family="FiraSans-Light,Fira Sans" font-size="22.0" fill="#000000" transform="matrix(1.00, 0.00, -0.00, -1.00, 636.9, 6.3)">t</text><text xml:space="preserve" font-family="FiraSans-Light,Fira Sans" font-size="22.0" fill="#000000" transform="matrix(1.00, 0.00, -0.00, -1.00, 644.2, 6.3)">o</text><text xml:space="preserve" font-family="FiraSans-Light,Fira Sans" font-size="22.0" fill="#000000" transform="matrix(1.00, 0.00, -0.00, -1.00, 656.7, 6.3)"> </text><text xml:space="preserve" font-family="FiraSans-Light,Fira Sans" font-size="22.0" fill="#000000" transform="matrix(1.00, 0.00, -0.00, -1.00, 662.9, 6.3)">a</text><text xml:space="preserve" font-family="FiraSans-Light,Fira Sans" font-size="22.0" fill="#000000" transform="matrix(1.00, 0.00, -0.00, -1.00, 674.7, 6.3)">p</text><text xml:space="preserve" font-family="FiraSans-Light,Fira Sans" font-size="22.0" fill="#000000" transform="matrix(1.00, 0.00, -0.00, -1.00, 687.5, 6.3)">p</text><text xml:space="preserve" font-family="FiraSans-Light,Fira Sans" font-size="22.0" fill="#000000" transform="matrix(1.00, 0.00, -0.00, -1.00, 700.2, 6.3)">e</text><text xml:space="preserve" font-family="FiraSans-Light,Fira Sans" font-size="22.0" fill="#000000" transform="matrix(1.00, 0.00, -0.00, -1.00, 712.1, 6.3)">a</text><text xml:space="preserve" font-family="FiraSans-Light,Fira Sans" font-size="22.0" fill="#000000" transform="matrix(1.00, 0.00, -0.00, -1.00, 723.9, 6.3)">r</text><text xml:space="preserve" font-family="FiraSans-Light,Fira Sans" font-size="22.0" fill="#000000" transform="matrix(1.00, 0.00, -0.00, -1.00, 732.1, 6.3)">)</text><text xml:space="preserve" font-family="FiraSans-Light,Fira Sans" font-size="22.0" fill="#000000" transform="matrix(1.00, 0.00, -0.00, -1.00, 739.2, 6.3)">.</text></g></svg>