<?xml version="1.0" encoding="UTF-8" standalone="no"?><svg xmlns="http://www.w3.org/2000/svg" xmlns:xlink="http://www.w3.org/1999/xlink" clip-rule="evenodd" stroke-miterlimit="10" viewBox="0 0 1024 768"><desc>SVG generated by Keynote</desc><defs><linearGradient id="gradSh1.208" x1="0.0" y1="0.0" x2="100.0" y2="0.0" gradientUnits="userSpaceOnUse" gradientTransform="matrix(0.00, -7.70, -10.26, 0.00, 512.0, 769.0)"><stop offset="0.00000" stop-color="#FFFFFF"></stop><stop offset="0.01906" stop-color="#FEFFFF"></stop><stop offset="1.00000" stop-color="#E5F3FF"></stop></linearGradient></defs><g transform="matrix(1.00, 0.00, -0.00, -1.00, 0.0, 768.0)"><g><clipPath id="clip0x6180138a80a0"><path d="M 0.0 768.0 L 1024.0 768.0 L 1024.0 0.0 L 0.0 0.0 Z M 0.0 768.0 "></path></clipPath><g clip-path="url(#clip0x6180138a80a0)"><path d="M 0.0 768.0 L 1024.0 768.0 L 1024.0 0.0 L 0.0 0.0 Z M 0.0 768.0 " fill="url(#gradSh1.208)"></path></g></g><g><clipPath id="clip0x618013ea9720"><path d="M 49.3 301.0 L 974.3 301.0 L 974.3 417.6 L 49.3 417.6 Z M 49.3 301.0 "></path></clipPath><g clip-path="url(#clip0x618013ea9720)"><path d="M 905.0 325.0 L 905.0 302.0 L 973.3 359.3 L 905.0 416.6 L 905.0 394.0 L 50.0 394.0 L 50.0 325.0 Z M 905.5 324.8 " fill="#003F7F"></path></g></g><g><clipPath id="clip0x618013ea9960"><path d="M 58.0 331.5 L 128.9 331.5 L 128.9 387.1 L 58.0 387.1 Z M 58.0 331.5 "></path></clipPath><g clip-path="url(#clip0x618013ea9960)"><text xml:space="preserve" font-family="FiraSans-SemiBold,Fira Sans" font-weight="bold" font-size="24.0" fill="#FEFFFE" transform="matrix(1.00, 0.00, -0.00, -1.00, 67.3, 352.8)">1</text><text xml:space="preserve" font-family="FiraSans-SemiBold,Fira Sans" font-weight="bold" font-size="24.0" fill="#FEFFFE" transform="matrix(1.00, 0.00, -0.00, -1.00, 78.2, 352.8)">9</text><text xml:space="preserve" font-family="FiraSans-SemiBold,Fira Sans" font-weight="bold" font-size="24.0" fill="#FEFFFE" transform="matrix(1.00, 0.00, -0.00, -1.00, 91.5, 352.8)">9</text><text xml:space="preserve" font-family="FiraSans-SemiBold,Fira Sans" font-weight="bold" font-size="24.0" fill="#FEFFFE" transform="matrix(1.00, 0.00, -0.00, -1.00, 104.7, 352.8)">0</text></g></g><g><clipPath id="clip0x618013ea9c60"><path d="M 835.9 331.5 L 909.0 331.5 L 909.0 387.1 L 835.9 387.1 Z M 835.9 331.5 "></path></clipPath><g clip-path="url(#clip0x618013ea9c60)"><text xml:space="preserve" font-family="FiraSans-SemiBold,Fira Sans" font-weight="bold" font-size="24.0" fill="#FEFFFE" transform="matrix(1.00, 0.00, -0.00, -1.00, 845.2, 352.8)">2</text><text xml:space="preserve" font-family="FiraSans-SemiBold,Fira Sans" font-weight="bold" font-size="24.0" fill="#FEFFFE" transform="matrix(1.00, 0.00, -0.00, -1.00, 857.5, 352.8)">0</text><text xml:space="preserve" font-family="FiraSans-SemiBold,Fira Sans" font-weight="bold" font-size="24.0" fill="#FEFFFE" transform="matrix(1.00, 0.00, -0.00, -1.00, 871.4, 352.8)">4</text><text xml:space="preserve" font-family="FiraSans-SemiBold,Fira Sans" font-weight="bold" font-size="24.0" fill="#FEFFFE" transform="matrix(1.00, 0.00, -0.00, -1.00, 884.8, 352.8)">0</text></g></g><g><clipPath id="clip0x618013ea9fc0"><path d="M 525.2 331.5 L 597.1 331.5 L 597.1 387.1 L 525.2 387.1 Z M 525.2 331.5 "></path></clipPath><g clip-path="url(#clip0x618013ea9fc0)"><text xml:space="preserve" font-family="FiraSans-SemiBold,Fira Sans" font-weight="bold" font-size="24.0" fill="#FEFFFE" transform="matrix(1.00, 0.00, -0.00, -1.00, 534.5, 352.8)">2</text><text xml:space="preserve" font-family="FiraSans-SemiBold,Fira Sans" font-weight="bold" font-size="24.0" fill="#FEFFFE" transform="matrix(1.00, 0.00, -0.00, -1.00, 546.7, 352.8)">0</text><text xml:space="preserve" font-family="FiraSans-SemiBold,Fira Sans" font-weight="bold" font-size="24.0" fill="#FEFFFE" transform="matrix(1.00, 0.00, -0.00, -1.00, 560.6, 352.8)">2</text><text xml:space="preserve" font-family="FiraSans-SemiBold,Fira Sans" font-weight="bold" font-size="24.0" fill="#FEFFFE" transform="matrix(1.00, 0.00, -0.00, -1.00, 572.9, 352.8)">0</text></g></g><g><clipPath id="clip0x618013eaa320"><path d="M 370.7 331.5 L 441.1 331.5 L 441.1 387.1 L 370.7 387.1 Z M 370.7 331.5 "></path></clipPath><g clip-path="url(#clip0x618013eaa320)"><text xml:space="preserve" font-family="FiraSans-SemiBold,Fira Sans" font-weight="bold" font-size="24.0" fill="#FEFFFE" transform="matrix(1.00, 0.00, -0.00, -1.00, 380.0, 352.8)">2</text><text xml:space="preserve" font-family="FiraSans-SemiBold,Fira Sans" font-weight="bold" font-size="24.0" fill="#FEFFFE" transform="matrix(1.00, 0.00, -0.00, -1.00, 392.3, 352.8)">0</text><text xml:space="preserve" font-family="FiraSans-SemiBold,Fira Sans" font-weight="bold" font-size="24.0" fill="#FEFFFE" transform="matrix(1.00, 0.00, -0.00, -1.00, 405.9, 352.8)">1</text><text xml:space="preserve" font-family="FiraSans-SemiBold,Fira Sans" font-weight="bold" font-size="24.0" fill="#FEFFFE" transform="matrix(1.00, 0.00, -0.00, -1.00, 416.9, 352.8)">0</text></g></g><g><clipPath id="clip0x618013eaa680"><path d="M 213.8 331.5 L 287.3 331.5 L 287.3 387.1 L 213.8 387.1 Z M 213.8 331.5 "></path></clipPath><g clip-path="url(#clip0x618013eaa680)"><text xml:space="preserve" font-family="FiraSans-SemiBold,Fira Sans" font-weight="bold" font-size="24.0" fill="#FEFFFE" transform="matrix(1.00, 0.00, -0.00, -1.00, 223.1, 352.8)">2</text><text xml:space="preserve" font-family="FiraSans-SemiBold,Fira Sans" font-weight="bold" font-size="24.0" fill="#FEFFFE" transform="matrix(1.00, 0.00, -0.00, -1.00, 235.3, 352.8)">0</text><text xml:space="preserve" font-family="FiraSans-SemiBold,Fira Sans" font-weight="bold" font-size="24.0" fill="#FEFFFE" transform="matrix(1.00, 0.00, -0.00, -1.00, 249.2, 352.8)">0</text><text xml:space="preserve" font-family="FiraSans-SemiBold,Fira Sans" font-weight="bold" font-size="24.0" fill="#FEFFFE" transform="matrix(1.00, 0.00, -0.00, -1.00, 263.1, 352.8)">0</text></g></g><g><clipPath id="clip0x618013eaa9e0"><path d="M 681.3 331.5 L 753.4 331.5 L 753.4 387.1 L 681.3 387.1 Z M 681.3 331.5 "></path></clipPath><g clip-path="url(#clip0x618013eaa9e0)"><text xml:space="preserve" font-family="FiraSans-SemiBold,Fira Sans" font-weight="bold" font-size="24.0" fill="#FEFFFE" transform="matrix(1.00, 0.00, -0.00, -1.00, 690.6, 352.8)">2</text><text xml:space="preserve" font-family="FiraSans-SemiBold,Fira Sans" font-weight="bold" font-size="24.0" fill="#FEFFFE" transform="matrix(1.00, 0.00, -0.00, -1.00, 702.9, 352.8)">0</text><text xml:space="preserve" font-family="FiraSans-SemiBold,Fira Sans" font-weight="bold" font-size="24.0" fill="#FEFFFE" transform="matrix(1.00, 0.00, -0.00, -1.00, 716.8, 352.8)">3</text><text xml:space="preserve" font-family="FiraSans-SemiBold,Fira Sans" font-weight="bold" font-size="24.0" fill="#FEFFFE" transform="matrix(1.00, 0.00, -0.00, -1.00, 729.2, 352.8)">0</text></g></g><text xml:space="preserve" font-family="FiraSans-Book,Fira Sans" font-size="28.0" fill="#2A4054" transform="matrix(1.00, 0.00, -0.00, -1.00, 737.5, 260.5)">P</text><text xml:space="preserve" font-family="FiraSans-Book,Fira Sans" font-size="28.0" fill="#2A4054" transform="matrix(1.00, 0.00, -0.00, -1.00, 753.7, 260.5)">r</text><text xml:space="preserve" font-family="FiraSans-Book,Fira Sans" font-size="28.0" fill="#2A4054" transform="matrix(1.00, 0.00, -0.00, -1.00, 764.2, 260.5)">o</text><text xml:space="preserve" font-family="FiraSans-Book,Fira Sans" font-size="28.0" fill="#2A4054" transform="matrix(1.00, 0.00, -0.00, -1.00, 780.4, 260.5)">g</text><text xml:space="preserve" font-family="FiraSans-Book,Fira Sans" font-size="28.0" fill="#2A4054" transform="matrix(1.00, 0.00, -0.00, -1.00, 794.9, 260.5)">r</text><text xml:space="preserve" font-family="FiraSans-Book,Fira Sans" font-size="28.0" fill="#2A4054" transform="matrix(1.00, 0.00, -0.00, -1.00, 805.1, 260.5)">a</text><text xml:space="preserve" font-family="FiraSans-Book,Fira Sans" font-size="28.0" fill="#2A4054" transform="matrix(1.00, 0.00, -0.00, -1.00, 820.2, 260.5)">m</text><text xml:space="preserve" font-family="FiraSans-Book,Fira Sans" font-size="28.0" fill="#2A4054" transform="matrix(1.00, 0.00, -0.00, -1.00, 844.2, 260.5)"> </text><text xml:space="preserve" font-family="FiraSans-Book,Fira Sans" font-size="28.0" fill="#2A4054" transform="matrix(1.00, 0.00, -0.00, -1.00, 851.7, 260.5)">I</text><text xml:space="preserve" font-family="FiraSans-Book,Fira Sans" font-size="28.0" fill="#2A4054" transform="matrix(1.00, 0.00, -0.00, -1.00, 859.9, 260.5)">n</text><text xml:space="preserve" font-family="FiraSans-Book,Fira Sans" font-size="28.0" fill="#2A4054" transform="matrix(1.00, 0.00, -0.00, -1.00, 876.3, 260.5)">d</text><text xml:space="preserve" font-family="FiraSans-Book,Fira Sans" font-size="28.0" fill="#2A4054" transform="matrix(1.00, 0.00, -0.00, -1.00, 892.9, 260.5)">u</text><text xml:space="preserve" font-family="FiraSans-Book,Fira Sans" font-size="28.0" fill="#2A4054" transform="matrix(1.00, 0.00, -0.00, -1.00, 909.2, 260.5)">c</text><text xml:space="preserve" font-family="FiraSans-Book,Fira Sans" font-size="28.0" fill="#2A4054" transform="matrix(1.00, 0.00, -0.00, -1.00, 922.5, 260.5)">t</text><text xml:space="preserve" font-family="FiraSans-Book,Fira Sans" font-size="28.0" fill="#2A4054" transform="matrix(1.00, 0.00, -0.00, -1.00, 932.5, 260.5)">i</text><text xml:space="preserve" font-family="FiraSans-Book,Fira Sans" font-size="28.0" fill="#2A4054" transform="matrix(1.00, 0.00, -0.00, -1.00, 940.3, 260.5)">o</text><text xml:space="preserve" font-family="FiraSans-Book,Fira Sans" font-size="28.0" fill="#2A4054" transform="matrix(1.00, 0.00, -0.00, -1.00, 956.6, 260.5)">n</text><text xml:space="preserve" font-family="FiraSans-Book,Fira Sans" font-size="28.0" fill="#2A4054" transform="matrix(1.00, 0.00, -0.00, -1.00, 973.0, 260.5)">,</text><text xml:space="preserve" font-family="FiraSans-Book,Fira Sans" font-size="28.0" fill="#2A4054" transform="matrix(1.00, 0.00, -0.00, -1.00, 979.5, 260.5)"> </text><text xml:space="preserve" font-family="FiraSans-Book,Fira Sans" font-size="28.0" fill="#2A4054" transform="matrix(1.00, 0.00, -0.00, -1.00, 737.5, 229.4)">M</text><text xml:space="preserve" font-family="FiraSans-Book,Fira Sans" font-size="28.0" fill="#2A4054" transform="matrix(1.00, 0.00, -0.00, -1.00, 759.6, 229.4)">e</text><text xml:space="preserve" font-family="FiraSans-Book,Fira Sans" font-size="28.0" fill="#2A4054" transform="matrix(1.00, 0.00, -0.00, -1.00, 774.9, 229.4)">t</text><text xml:space="preserve" font-family="FiraSans-Book,Fira Sans" font-size="28.0" fill="#2A4054" transform="matrix(1.00, 0.00, -0.00, -1.00, 784.9, 229.4)">a</text><text xml:space="preserve" font-family="FiraSans-Book,Fira Sans" font-size="28.0" fill="#2A4054" transform="matrix(1.00, 0.00, -0.00, -1.00, 800.0, 229.4)">r</text><text xml:space="preserve" font-family="FiraSans-Book,Fira Sans" font-size="28.0" fill="#2A4054" transform="matrix(1.00, 0.00, -0.00, -1.00, 810.5, 229.4)">e</text><text xml:space="preserve" font-family="FiraSans-Book,Fira Sans" font-size="28.0" fill="#2A4054" transform="matrix(1.00, 0.00, -0.00, -1.00, 825.8, 229.4)">a</text><text xml:space="preserve" font-family="FiraSans-Book,Fira Sans" font-size="28.0" fill="#2A4054" transform="matrix(1.00, 0.00, -0.00, -1.00, 841.0, 229.4)">s</text><text xml:space="preserve" font-family="FiraSans-Book,Fira Sans" font-size="28.0" fill="#2A4054" transform="matrix(1.00, 0.00, -0.00, -1.00, 854.0, 229.4)">o</text><text xml:space="preserve" font-family="FiraSans-Book,Fira Sans" font-size="28.0" fill="#2A4054" transform="matrix(1.00, 0.00, -0.00, -1.00, 870.3, 229.4)">n</text><text xml:space="preserve" font-family="FiraSans-Book,Fira Sans" font-size="28.0" fill="#2A4054" transform="matrix(1.00, 0.00, -0.00, -1.00, 886.7, 229.4)">i</text><text xml:space="preserve" font-family="FiraSans-Book,Fira Sans" font-size="28.0" fill="#2A4054" transform="matrix(1.00, 0.00, -0.00, -1.00, 894.5, 229.4)">n</text><text xml:space="preserve" font-family="FiraSans-Book,Fira Sans" font-size="28.0" fill="#2A4054" transform="matrix(1.00, 0.00, -0.00, -1.00, 910.9, 229.4)">g</text><text xml:space="preserve" font-family="FiraSans-Book,Fira Sans" font-size="28.0" fill="#2A4054" transform="matrix(1.00, 0.00, -0.00, -1.00, 925.3, 229.4)"> </text><text xml:space="preserve" font-family="FiraSans-Book,Fira Sans" font-size="28.0" fill="#2A4054" transform="matrix(1.00, 0.00, -0.00, -1.00, 583.5, 459.5)">I</text><text xml:space="preserve" font-family="FiraSans-Book,Fira Sans" font-size="28.0" fill="#2A4054" transform="matrix(1.00, 0.00, -0.00, -1.00, 591.7, 459.5)">n</text><text xml:space="preserve" font-family="FiraSans-Book,Fira Sans" font-size="28.0" fill="#2A4054" transform="matrix(1.00, 0.00, -0.00, -1.00, 608.1, 459.5)">f</text><text xml:space="preserve" font-family="FiraSans-Book,Fira Sans" font-size="28.0" fill="#2A4054" transform="matrix(1.00, 0.00, -0.00, -1.00, 617.1, 459.5)">e</text><text xml:space="preserve" font-family="FiraSans-Book,Fira Sans" font-size="28.0" fill="#2A4054" transform="matrix(1.00, 0.00, -0.00, -1.00, 632.5, 459.5)">r</text><text xml:space="preserve" font-family="FiraSans-Book,Fira Sans" font-size="28.0" fill="#2A4054" transform="matrix(1.00, 0.00, -0.00, -1.00, 642.9, 459.5)">e</text><text xml:space="preserve" font-family="FiraSans-Book,Fira Sans" font-size="28.0" fill="#2A4054" transform="matrix(1.00, 0.00, -0.00, -1.00, 658.2, 459.5)">n</text><text xml:space="preserve" font-family="FiraSans-Book,Fira Sans" font-size="28.0" fill="#2A4054" transform="matrix(1.00, 0.00, -0.00, -1.00, 674.6, 459.5)">c</text><text xml:space="preserve" font-family="FiraSans-Book,Fira Sans" font-size="28.0" fill="#2A4054" transform="matrix(1.00, 0.00, -0.00, -1.00, 687.6, 459.5)">e</text><text xml:space="preserve" font-family="FiraSans-Book,Fira Sans" font-size="28.0" fill="#2A4054" transform="matrix(1.00, 0.00, -0.00, -1.00, 703.0, 459.5)"> </text><text xml:space="preserve" font-family="FiraSans-Book,Fira Sans" font-size="28.0" fill="#2A4054" transform="matrix(1.00, 0.00, -0.00, -1.00, 710.5, 459.5)">C</text><text xml:space="preserve" font-family="FiraSans-Book,Fira Sans" font-size="28.0" fill="#2A4054" transform="matrix(1.00, 0.00, -0.00, -1.00, 725.8, 459.5)">o</text><text xml:space="preserve" font-family="FiraSans-Book,Fira Sans" font-size="28.0" fill="#2A4054" transform="matrix(1.00, 0.00, -0.00, -1.00, 742.1, 459.5)">m</text><text xml:space="preserve" font-family="FiraSans-Book,Fira Sans" font-size="28.0" fill="#2A4054" transform="matrix(1.00, 0.00, -0.00, -1.00, 766.0, 459.5)">p</text><text xml:space="preserve" font-family="FiraSans-Book,Fira Sans" font-size="28.0" fill="#2A4054" transform="matrix(1.00, 0.00, -0.00, -1.00, 782.6, 459.5)">o</text><text xml:space="preserve" font-family="FiraSans-Book,Fira Sans" font-size="28.0" fill="#2A4054" transform="matrix(1.00, 0.00, -0.00, -1.00, 798.9, 459.5)">s</text><text xml:space="preserve" font-family="FiraSans-Book,Fira Sans" font-size="28.0" fill="#2A4054" transform="matrix(1.00, 0.00, -0.00, -1.00, 811.9, 459.5)">i</text><text xml:space="preserve" font-family="FiraSans-Book,Fira Sans" font-size="28.0" fill="#2A4054" transform="matrix(1.00, 0.00, -0.00, -1.00, 819.7, 459.5)">t</text><text xml:space="preserve" font-family="FiraSans-Book,Fira Sans" font-size="28.0" fill="#2A4054" transform="matrix(1.00, 0.00, -0.00, -1.00, 829.7, 459.5)">i</text><text xml:space="preserve" font-family="FiraSans-Book,Fira Sans" font-size="28.0" fill="#2A4054" transform="matrix(1.00, 0.00, -0.00, -1.00, 837.5, 459.5)">o</text><text xml:space="preserve" font-family="FiraSans-Book,Fira Sans" font-size="28.0" fill="#2A4054" transform="matrix(1.00, 0.00, -0.00, -1.00, 853.8, 459.5)">n</text><text xml:space="preserve" font-family="FiraSans-Book,Fira Sans" font-size="28.0" fill="#2A4054" transform="matrix(1.00, 0.00, -0.00, -1.00, 870.2, 459.5)"> </text><text xml:space="preserve" font-family="FiraSans-Book,Fira Sans" font-size="28.0" fill="#2A4054" transform="matrix(1.00, 0.00, -0.00, -1.00, 583.5, 428.4)">a</text><text xml:space="preserve" font-family="FiraSans-Book,Fira Sans" font-size="28.0" fill="#2A4054" transform="matrix(1.00, 0.00, -0.00, -1.00, 598.7, 428.4)">n</text><text xml:space="preserve" font-family="FiraSans-Book,Fira Sans" font-size="28.0" fill="#2A4054" transform="matrix(1.00, 0.00, -0.00, -1.00, 615.1, 428.4)">d</text><text xml:space="preserve" font-family="FiraSans-Book,Fira Sans" font-size="28.0" fill="#2A4054" transform="matrix(1.00, 0.00, -0.00, -1.00, 631.8, 428.4)"> </text><text xml:space="preserve" font-family="FiraSans-Book,Fira Sans" font-size="28.0" fill="#2A4054" transform="matrix(1.00, 0.00, -0.00, -1.00, 639.3, 428.4)">T</text><text xml:space="preserve" font-family="FiraSans-Book,Fira Sans" font-size="28.0" fill="#2A4054" transform="matrix(1.00, 0.00, -0.00, -1.00, 651.4, 428.4)">r</text><text xml:space="preserve" font-family="FiraSans-Book,Fira Sans" font-size="28.0" fill="#2A4054" transform="matrix(1.00, 0.00, -0.00, -1.00, 661.5, 428.4)">a</text><text xml:space="preserve" font-family="FiraSans-Book,Fira Sans" font-size="28.0" fill="#2A4054" transform="matrix(1.00, 0.00, -0.00, -1.00, 676.7, 428.4)">n</text><text xml:space="preserve" font-family="FiraSans-Book,Fira Sans" font-size="28.0" fill="#2A4054" transform="matrix(1.00, 0.00, -0.00, -1.00, 693.1, 428.4)">s</text><text xml:space="preserve" font-family="FiraSans-Book,Fira Sans" font-size="28.0" fill="#2A4054" transform="matrix(1.00, 0.00, -0.00, -1.00, 706.1, 428.4)">f</text><text xml:space="preserve" font-family="FiraSans-Book,Fira Sans" font-size="28.0" fill="#2A4054" transform="matrix(1.00, 0.00, -0.00, -1.00, 715.1, 428.4)">o</text><text xml:space="preserve" font-family="FiraSans-Book,Fira Sans" font-size="28.0" fill="#2A4054" transform="matrix(1.00, 0.00, -0.00, -1.00, 731.4, 428.4)">r</text><text xml:space="preserve" font-family="FiraSans-Book,Fira Sans" font-size="28.0" fill="#2A4054" transform="matrix(1.00, 0.00, -0.00, -1.00, 742.1, 428.4)">m</text><text xml:space="preserve" font-family="FiraSans-Book,Fira Sans" font-size="28.0" fill="#2A4054" transform="matrix(1.00, 0.00, -0.00, -1.00, 766.1, 428.4)">a</text><text xml:space="preserve" font-family="FiraSans-Book,Fira Sans" font-size="28.0" fill="#2A4054" transform="matrix(1.00, 0.00, -0.00, -1.00, 781.3, 428.4)">t</text><text xml:space="preserve" font-family="FiraSans-Book,Fira Sans" font-size="28.0" fill="#2A4054" transform="matrix(1.00, 0.00, -0.00, -1.00, 791.2, 428.4)">i</text><text xml:space="preserve" font-family="FiraSans-Book,Fira Sans" font-size="28.0" fill="#2A4054" transform="matrix(1.00, 0.00, -0.00, -1.00, 799.1, 428.4)">o</text><text xml:space="preserve" font-family="FiraSans-Book,Fira Sans" font-size="28.0" fill="#2A4054" transform="matrix(1.00, 0.00, -0.00, -1.00, 815.3, 428.4)">n</text><text xml:space="preserve" font-family="FiraSans-Book,Fira Sans" font-size="28.0" fill="#2A4054" transform="matrix(1.00, 0.00, -0.00, -1.00, 831.7, 428.4)">s</text><text xml:space="preserve" font-family="FiraSans-Book,Fira Sans" font-size="28.0" fill="#2A4054" transform="matrix(1.00, 0.00, -0.00, -1.00, 427.5, 270.5)">A</text><text xml:space="preserve" font-family="FiraSans-Book,Fira Sans" font-size="28.0" fill="#2A4054" transform="matrix(1.00, 0.00, -0.00, -1.00, 443.3, 270.5)">u</text><text xml:space="preserve" font-family="FiraSans-Book,Fira Sans" font-size="28.0" fill="#2A4054" transform="matrix(1.00, 0.00, -0.00, -1.00, 459.5, 270.5)">t</text><text xml:space="preserve" font-family="FiraSans-Book,Fira Sans" font-size="28.0" fill="#2A4054" transform="matrix(1.00, 0.00, -0.00, -1.00, 469.2, 270.5)">o</text><text xml:space="preserve" font-family="FiraSans-Book,Fira Sans" font-size="28.0" fill="#2A4054" transform="matrix(1.00, 0.00, -0.00, -1.00, 485.5, 270.5)">d</text><text xml:space="preserve" font-family="FiraSans-Book,Fira Sans" font-size="28.0" fill="#2A4054" transform="matrix(1.00, 0.00, -0.00, -1.00, 502.1, 270.5)">i</text><text xml:space="preserve" font-family="FiraSans-Book,Fira Sans" font-size="28.0" fill="#2A4054" transform="matrix(1.00, 0.00, -0.00, -1.00, 509.9, 270.5)">f</text><text xml:space="preserve" font-family="FiraSans-Book,Fira Sans" font-size="28.0" fill="#2A4054" transform="matrix(1.00, 0.00, -0.00, -1.00, 519.2, 270.5)">f</text><text xml:space="preserve" font-family="FiraSans-Book,Fira Sans" font-size="28.0" fill="#2A4054" transform="matrix(1.00, 0.00, -0.00, -1.00, 527.4, 270.5)">,</text><text xml:space="preserve" font-family="FiraSans-Book,Fira Sans" font-size="28.0" fill="#2A4054" transform="matrix(1.00, 0.00, -0.00, -1.00, 533.9, 270.5)"> </text><text xml:space="preserve" font-family="FiraSans-Book,Fira Sans" font-size="28.0" fill="#2A4054" transform="matrix(1.00, 0.00, -0.00, -1.00, 427.5, 239.4)">(</text><text xml:space="preserve" font-family="FiraSans-Book,Fira Sans" font-size="28.0" fill="#2A4054" transform="matrix(1.00, 0.00, -0.00, -1.00, 436.6, 239.4)">H</text><text xml:space="preserve" font-family="FiraSans-Book,Fira Sans" font-size="28.0" fill="#2A4054" transform="matrix(1.00, 0.00, -0.00, -1.00, 455.6, 239.4)">M</text><text xml:space="preserve" font-family="FiraSans-Book,Fira Sans" font-size="28.0" fill="#2A4054" transform="matrix(1.00, 0.00, -0.00, -1.00, 477.5, 239.4)">C</text><text xml:space="preserve" font-family="FiraSans-Book,Fira Sans" font-size="28.0" fill="#2A4054" transform="matrix(1.00, 0.00, -0.00, -1.00, 493.3, 239.4)">,</text><text xml:space="preserve" font-family="FiraSans-Book,Fira Sans" font-size="28.0" fill="#2A4054" transform="matrix(1.00, 0.00, -0.00, -1.00, 499.8, 239.4)"> </text><text xml:space="preserve" font-family="FiraSans-Book,Fira Sans" font-size="28.0" fill="#2A4054" transform="matrix(1.00, 0.00, -0.00, -1.00, 507.3, 239.4)">S</text><text xml:space="preserve" font-family="FiraSans-Book,Fira Sans" font-size="28.0" fill="#2A4054" transform="matrix(1.00, 0.00, -0.00, -1.00, 522.5, 239.4)">G</text><text xml:space="preserve" font-family="FiraSans-Book,Fira Sans" font-size="28.0" fill="#2A4054" transform="matrix(1.00, 0.00, -0.00, -1.00, 540.1, 239.4)">D</text><text xml:space="preserve" font-family="FiraSans-Book,Fira Sans" font-size="28.0" fill="#2A4054" transform="matrix(1.00, 0.00, -0.00, -1.00, 558.0, 239.4)">)</text><text xml:space="preserve" font-family="FiraSans-Book,Fira Sans" font-size="28.0" fill="#2A4054" transform="matrix(1.00, 0.00, -0.00, -1.00, 274.5, 459.5)">F</text><text xml:space="preserve" font-family="FiraSans-Book,Fira Sans" font-size="28.0" fill="#2A4054" transform="matrix(1.00, 0.00, -0.00, -1.00, 287.3, 459.5)">a</text><text xml:space="preserve" font-family="FiraSans-Book,Fira Sans" font-size="28.0" fill="#2A4054" transform="matrix(1.00, 0.00, -0.00, -1.00, 302.4, 459.5)">c</text><text xml:space="preserve" font-family="FiraSans-Book,Fira Sans" font-size="28.0" fill="#2A4054" transform="matrix(1.00, 0.00, -0.00, -1.00, 315.8, 459.5)">t</text><text xml:space="preserve" font-family="FiraSans-Book,Fira Sans" font-size="28.0" fill="#2A4054" transform="matrix(1.00, 0.00, -0.00, -1.00, 325.4, 459.5)">o</text><text xml:space="preserve" font-family="FiraSans-Book,Fira Sans" font-size="28.0" fill="#2A4054" transform="matrix(1.00, 0.00, -0.00, -1.00, 341.7, 459.5)">r</text><text xml:space="preserve" font-family="FiraSans-Book,Fira Sans" font-size="28.0" fill="#2A4054" transform="matrix(1.00, 0.00, -0.00, -1.00, 352.4, 459.5)"> </text><text xml:space="preserve" font-family="FiraSans-Book,Fira Sans" font-size="28.0" fill="#2A4054" transform="matrix(1.00, 0.00, -0.00, -1.00, 359.9, 459.5)">G</text><text xml:space="preserve" font-family="FiraSans-Book,Fira Sans" font-size="28.0" fill="#2A4054" transform="matrix(1.00, 0.00, -0.00, -1.00, 377.5, 459.5)">r</text><text xml:space="preserve" font-family="FiraSans-Book,Fira Sans" font-size="28.0" fill="#2A4054" transform="matrix(1.00, 0.00, -0.00, -1.00, 387.7, 459.5)">a</text><text xml:space="preserve" font-family="FiraSans-Book,Fira Sans" font-size="28.0" fill="#2A4054" transform="matrix(1.00, 0.00, -0.00, -1.00, 402.9, 459.5)">p</text><text xml:space="preserve" font-family="FiraSans-Book,Fira Sans" font-size="28.0" fill="#2A4054" transform="matrix(1.00, 0.00, -0.00, -1.00, 419.4, 459.5)">h</text><text xml:space="preserve" font-family="FiraSans-Book,Fira Sans" font-size="28.0" fill="#2A4054" transform="matrix(1.00, 0.00, -0.00, -1.00, 435.8, 459.5)">s</text><text xml:space="preserve" font-family="FiraSans-Book,Fira Sans" font-size="28.0" fill="#2A4054" transform="matrix(1.00, 0.00, -0.00, -1.00, 448.8, 459.5)">,</text><text xml:space="preserve" font-family="FiraSans-Book,Fira Sans" font-size="28.0" fill="#2A4054" transform="matrix(1.00, 0.00, -0.00, -1.00, 455.3, 459.5)"> </text><text xml:space="preserve" font-family="FiraSans-Book,Fira Sans" font-size="28.0" fill="#2A4054" transform="matrix(1.00, 0.00, -0.00, -1.00, 274.5, 428.4)">(</text><text xml:space="preserve" font-family="FiraSans-Book,Fira Sans" font-size="28.0" fill="#2A4054" transform="matrix(1.00, 0.00, -0.00, -1.00, 283.6, 428.4)">E</text><text xml:space="preserve" font-family="FiraSans-Book,Fira Sans" font-size="28.0" fill="#2A4054" transform="matrix(1.00, 0.00, -0.00, -1.00, 298.5, 428.4)">P</text><text xml:space="preserve" font-family="FiraSans-Book,Fira Sans" font-size="28.0" fill="#2A4054" transform="matrix(1.00, 0.00, -0.00, -1.00, 311.0, 428.4)">,</text><text xml:space="preserve" font-family="FiraSans-Book,Fira Sans" font-size="28.0" fill="#2A4054" transform="matrix(1.00, 0.00, -0.00, -1.00, 317.5, 428.4)"> </text><text xml:space="preserve" font-family="FiraSans-Book,Fira Sans" font-size="28.0" fill="#2A4054" transform="matrix(1.00, 0.00, -0.00, -1.00, 325.0, 428.4)">V</text><text xml:space="preserve" font-family="FiraSans-Book,Fira Sans" font-size="28.0" fill="#2A4054" transform="matrix(1.00, 0.00, -0.00, -1.00, 340.2, 428.4)">M</text><text xml:space="preserve" font-family="FiraSans-Book,Fira Sans" font-size="28.0" fill="#2A4054" transform="matrix(1.00, 0.00, -0.00, -1.00, 362.4, 428.4)">P</text><text xml:space="preserve" font-family="FiraSans-Book,Fira Sans" font-size="28.0" fill="#2A4054" transform="matrix(1.00, 0.00, -0.00, -1.00, 378.6, 428.4)">)</text><path d="M 0.0 0.0 C 0.0 6.0 0.0 12.0 0.0 17.9 C 0.0 23.9 0.0 29.6 0.0 35.6 L 16.2 35.6 " fill="none" stroke="#000000" stroke-width="2.00" transform="matrix(1.00, 0.00, 0.00, 1.00, 248.8, 410.4)"></path><text xml:space="preserve" font-family="FiraSans-Book,Fira Sans" font-size="28.0" fill="#2A4054" transform="matrix(1.00, 0.00, -0.00, -1.00, 116.5, 270.5)">F</text><text xml:space="preserve" font-family="FiraSans-Book,Fira Sans" font-size="28.0" fill="#2A4054" transform="matrix(1.00, 0.00, -0.00, -1.00, 131.1, 270.5)">i</text><text xml:space="preserve" font-family="FiraSans-Book,Fira Sans" font-size="28.0" fill="#2A4054" transform="matrix(1.00, 0.00, -0.00, -1.00, 138.9, 270.5)">r</text><text xml:space="preserve" font-family="FiraSans-Book,Fira Sans" font-size="28.0" fill="#2A4054" transform="matrix(1.00, 0.00, -0.00, -1.00, 149.3, 270.5)">s</text><text xml:space="preserve" font-family="FiraSans-Book,Fira Sans" font-size="28.0" fill="#2A4054" transform="matrix(1.00, 0.00, -0.00, -1.00, 162.4, 270.5)">t</text><text xml:space="preserve" font-family="FiraSans-Book,Fira Sans" font-size="28.0" fill="#2A4054" transform="matrix(1.00, 0.00, -0.00, -1.00, 172.3, 270.5)"> </text><text xml:space="preserve" font-family="FiraSans-Book,Fira Sans" font-size="28.0" fill="#2A4054" transform="matrix(1.00, 0.00, -0.00, -1.00, 179.8, 270.5)">P</text><text xml:space="preserve" font-family="FiraSans-Book,Fira Sans" font-size="28.0" fill="#2A4054" transform="matrix(1.00, 0.00, -0.00, -1.00, 196.0, 270.5)">P</text><text xml:space="preserve" font-family="FiraSans-Book,Fira Sans" font-size="28.0" fill="#2A4054" transform="matrix(1.00, 0.00, -0.00, -1.00, 212.2, 270.5)"> </text><text xml:space="preserve" font-family="FiraSans-Book,Fira Sans" font-size="28.0" fill="#2A4054" transform="matrix(1.00, 0.00, -0.00, -1.00, 219.7, 270.5)">S</text><text xml:space="preserve" font-family="FiraSans-Book,Fira Sans" font-size="28.0" fill="#2A4054" transform="matrix(1.00, 0.00, -0.00, -1.00, 234.4, 270.5)">y</text><text xml:space="preserve" font-family="FiraSans-Book,Fira Sans" font-size="28.0" fill="#2A4054" transform="matrix(1.00, 0.00, -0.00, -1.00, 248.0, 270.5)">s</text><text xml:space="preserve" font-family="FiraSans-Book,Fira Sans" font-size="28.0" fill="#2A4054" transform="matrix(1.00, 0.00, -0.00, -1.00, 261.0, 270.5)">t</text><text xml:space="preserve" font-family="FiraSans-Book,Fira Sans" font-size="28.0" fill="#2A4054" transform="matrix(1.00, 0.00, -0.00, -1.00, 270.7, 270.5)">e</text><text xml:space="preserve" font-family="FiraSans-Book,Fira Sans" font-size="28.0" fill="#2A4054" transform="matrix(1.00, 0.00, -0.00, -1.00, 286.1, 270.5)">m</text><text xml:space="preserve" font-family="FiraSans-Book,Fira Sans" font-size="28.0" fill="#2A4054" transform="matrix(1.00, 0.00, -0.00, -1.00, 310.0, 270.5)">s</text><text xml:space="preserve" font-family="FiraSans-Book,Fira Sans" font-size="28.0" fill="#2A4054" transform="matrix(1.00, 0.00, -0.00, -1.00, 323.1, 270.5)"> </text><text xml:space="preserve" font-family="FiraSans-Book,Fira Sans" font-size="28.0" fill="#2A4054" transform="matrix(1.00, 0.00, -0.00, -1.00, 116.5, 239.4)">(</text><text xml:space="preserve" font-family="FiraSans-Book,Fira Sans" font-size="28.0" fill="#2A4054" transform="matrix(1.00, 0.00, -0.00, -1.00, 125.6, 239.4)">M</text><text xml:space="preserve" font-family="FiraSans-Book,Fira Sans" font-size="28.0" fill="#2A4054" transform="matrix(1.00, 0.00, -0.00, -1.00, 147.5, 239.4)">C</text><text xml:space="preserve" font-family="FiraSans-Book,Fira Sans" font-size="28.0" fill="#2A4054" transform="matrix(1.00, 0.00, -0.00, -1.00, 163.1, 239.4)">M</text><text xml:space="preserve" font-family="FiraSans-Book,Fira Sans" font-size="28.0" fill="#2A4054" transform="matrix(1.00, 0.00, -0.00, -1.00, 185.0, 239.4)">C</text><text xml:space="preserve" font-family="FiraSans-Book,Fira Sans" font-size="28.0" fill="#2A4054" transform="matrix(1.00, 0.00, -0.00, -1.00, 200.7, 239.4)">)</text><path d="M 0.0 0.0 C 0.0 6.0 0.0 12.0 0.0 17.9 C 0.0 23.9 0.0 29.6 0.0 35.6 L 16.2 35.6 " fill="none" stroke="#000000" stroke-width="2.00" transform="matrix(1.00, 0.00, 0.00, 1.00, 558.8, 410.4)"></path><path d="M 0.0 0.0 C 0.0 6.0 0.0 12.0 0.0 17.9 C 0.0 23.9 0.0 29.5 0.0 35.5 L 16.2 35.5 " fill="none" stroke="#000000" stroke-width="2.00" transform="matrix(1.00, 0.00, 0.00, -1.00, 89.8, 303.5)"></path><path d="M 0.0 0.0 C 0.0 6.0 0.0 12.0 0.0 17.9 C 0.0 23.9 0.0 29.5 0.0 35.5 L 16.2 35.5 " fill="none" stroke="#000000" stroke-width="2.00" transform="matrix(1.00, 0.00, 0.00, -1.00, 402.8, 303.5)"></path><path d="M 0.0 0.0 C 0.0 6.0 0.0 12.0 0.0 17.9 C 0.0 23.9 0.0 29.5 0.0 35.5 L 16.2 35.5 " fill="none" stroke="#000000" stroke-width="2.00" transform="matrix(1.00, 0.00, 0.00, -1.00, 712.8, 303.5)"></path><text xml:space="preserve" font-family="FiraSans-Light,Fira Sans" font-size="60.0" fill="#20313F" transform="matrix(1.00, 0.00, -0.00, -1.00, 54.0, 665.0)">C</text><text xml:space="preserve" font-family="FiraSans-Light,Fira Sans" font-size="60.0" fill="#20313F" transform="matrix(1.00, 0.00, -0.00, -1.00, 86.4, 665.0)">o</text><text xml:space="preserve" font-family="FiraSans-Light,Fira Sans" font-size="60.0" fill="#20313F" transform="matrix(1.00, 0.00, -0.00, -1.00, 120.7, 665.0)">m</text><text xml:space="preserve" font-family="FiraSans-Light,Fira Sans" font-size="60.0" fill="#20313F" transform="matrix(1.00, 0.00, -0.00, -1.00, 171.9, 665.0)">p</text><text xml:space="preserve" font-family="FiraSans-Light,Fira Sans" font-size="60.0" fill="#20313F" transform="matrix(1.00, 0.00, -0.00, -1.00, 206.7, 665.0)">i</text><text xml:space="preserve" font-family="FiraSans-Light,Fira Sans" font-size="60.0" fill="#20313F" transform="matrix(1.00, 0.00, -0.00, -1.00, 222.9, 665.0)">l</text><text xml:space="preserve" font-family="FiraSans-Light,Fira Sans" font-size="60.0" fill="#20313F" transform="matrix(1.00, 0.00, -0.00, -1.00, 239.4, 665.0)">e</text><text xml:space="preserve" font-family="FiraSans-Light,Fira Sans" font-size="60.0" fill="#20313F" transform="matrix(1.00, 0.00, -0.00, -1.00, 271.6, 665.0)">r</text><text xml:space="preserve" font-family="FiraSans-Light,Fira Sans" font-size="60.0" fill="#20313F" transform="matrix(1.00, 0.00, -0.00, -1.00, 294.0, 665.0)"> </text><text xml:space="preserve" font-family="FiraSans-Light,Fira Sans" font-size="60.0" fill="#20313F" transform="matrix(1.00, 0.00, -0.00, -1.00, 310.8, 665.0)">T</text><text xml:space="preserve" font-family="FiraSans-Light,Fira Sans" font-size="60.0" fill="#20313F" transform="matrix(1.00, 0.00, -0.00, -1.00, 335.7, 665.0)">e</text><text xml:space="preserve" font-family="FiraSans-Light,Fira Sans" font-size="60.0" fill="#20313F" transform="matrix(1.00, 0.00, -0.00, -1.00, 367.9, 665.0)">c</text><text xml:space="preserve" font-family="FiraSans-Light,Fira Sans" font-size="60.0" fill="#20313F" transform="matrix(1.00, 0.00, -0.00, -1.00, 396.1, 665.0)">h</text><text xml:space="preserve" font-family="FiraSans-Light,Fira Sans" font-size="60.0" fill="#20313F" transform="matrix(1.00, 0.00, -0.00, -1.00, 431.1, 665.0)">n</text><text xml:space="preserve" font-family="FiraSans-Light,Fira Sans" font-size="60.0" fill="#20313F" transform="matrix(1.00, 0.00, -0.00, -1.00, 466.2, 665.0)">o</text><text xml:space="preserve" font-family="FiraSans-Light,Fira Sans" font-size="60.0" fill="#20313F" transform="matrix(1.00, 0.00, -0.00, -1.00, 500.4, 665.0)">l</text><text xml:space="preserve" font-family="FiraSans-Light,Fira Sans" font-size="60.0" fill="#20313F" transform="matrix(1.00, 0.00, -0.00, -1.00, 516.9, 665.0)">o</text><text xml:space="preserve" font-family="FiraSans-Light,Fira Sans" font-size="60.0" fill="#20313F" transform="matrix(1.00, 0.00, -0.00, -1.00, 551.1, 665.0)">g</text><text xml:space="preserve" font-family="FiraSans-Light,Fira Sans" font-size="60.0" fill="#20313F" transform="matrix(1.00, 0.00, -0.00, -1.00, 581.3, 665.0)">y</text><text xml:space="preserve" font-family="FiraSans-Light,Fira Sans" font-size="60.0" fill="#20313F" transform="matrix(1.00, 0.00, -0.00, -1.00, 609.4, 665.0)"> </text><text xml:space="preserve" font-family="FiraSans-Light,Fira Sans" font-size="60.0" fill="#20313F" transform="matrix(1.00, 0.00, -0.00, -1.00, 626.1, 665.0)">f</text><text xml:space="preserve" font-family="FiraSans-Light,Fira Sans" font-size="60.0" fill="#20313F" transform="matrix(1.00, 0.00, -0.00, -1.00, 644.8, 665.0)">o</text><text xml:space="preserve" font-family="FiraSans-Light,Fira Sans" font-size="60.0" fill="#20313F" transform="matrix(1.00, 0.00, -0.00, -1.00, 679.0, 665.0)">r</text><text xml:space="preserve" font-family="FiraSans-Light,Fira Sans" font-size="60.0" fill="#20313F" transform="matrix(1.00, 0.00, -0.00, -1.00, 701.4, 665.0)"> </text><text xml:space="preserve" font-family="FiraSans-Light,Fira Sans" font-size="60.0" fill="#20313F" transform="matrix(1.00, 0.00, -0.00, -1.00, 718.2, 665.0)">I</text><text xml:space="preserve" font-family="FiraSans-Light,Fira Sans" font-size="60.0" fill="#20313F" transform="matrix(1.00, 0.00, -0.00, -1.00, 735.1, 665.0)">n</text><text xml:space="preserve" font-family="FiraSans-Light,Fira Sans" font-size="60.0" fill="#20313F" transform="matrix(1.00, 0.00, -0.00, -1.00, 770.1, 665.0)">f</text><text xml:space="preserve" font-family="FiraSans-Light,Fira Sans" font-size="60.0" fill="#20313F" transform="matrix(1.00, 0.00, -0.00, -1.00, 788.8, 665.0)">e</text><text xml:space="preserve" font-family="FiraSans-Light,Fira Sans" font-size="60.0" fill="#20313F" transform="matrix(1.00, 0.00, -0.00, -1.00, 821.1, 665.0)">r</text><text xml:space="preserve" font-family="FiraSans-Light,Fira Sans" font-size="60.0" fill="#20313F" transform="matrix(1.00, 0.00, -0.00, -1.00, 842.8, 665.0)">e</text><text xml:space="preserve" font-family="FiraSans-Light,Fira Sans" font-size="60.0" fill="#20313F" transform="matrix(1.00, 0.00, -0.00, -1.00, 875.1, 665.0)">n</text><text xml:space="preserve" font-family="FiraSans-Light,Fira Sans" font-size="60.0" fill="#20313F" transform="matrix(1.00, 0.00, -0.00, -1.00, 910.2, 665.0)">c</text><text xml:space="preserve" font-family="FiraSans-Light,Fira Sans" font-size="60.0" fill="#20313F" transform="matrix(1.00, 0.00, -0.00, -1.00, 937.7, 665.0)">e</text></g></svg>