<?xml version="1.0" encoding="UTF-8" standalone="no"?><svg xmlns="http://www.w3.org/2000/svg" xmlns:xlink="http://www.w3.org/1999/xlink" clip-rule="evenodd" stroke-miterlimit="10" viewBox="0 0 1024 768"><desc>SVG generated by Keynote</desc><defs><linearGradient id="gradSh1.209" x1="0.0" y1="0.0" x2="100.0" y2="0.0" gradientUnits="userSpaceOnUse" gradientTransform="matrix(0.00, -7.70, -10.26, 0.00, 512.0, 769.0)"><stop offset="0.00000" stop-color="#FFFFFF"></stop><stop offset="0.01906" stop-color="#FEFFFF"></stop><stop offset="1.00000" stop-color="#E5F3FF"></stop></linearGradient></defs><g transform="matrix(1.00, 0.00, -0.00, -1.00, 0.0, 768.0)"><g><clipPath id="clip0x60001c8b73a0"><path d="M 0.0 768.0 L 1024.0 768.0 L 1024.0 0.0 L 0.0 0.0 Z M 0.0 768.0 "></path></clipPath><g clip-path="url(#clip0x60001c8b73a0)"><path d="M 0.0 768.0 L 1024.0 768.0 L 1024.0 0.0 L 0.0 0.0 Z M 0.0 768.0 " fill="url(#gradSh1.209)"></path></g></g><text xml:space="preserve" font-family="FiraSans-Light,Fira Sans" font-size="55.8" fill="#20313F" transform="matrix(1.00, 0.00, -0.00, -1.00, 55.8, 665.9)">P</text><text xml:space="preserve" font-family="FiraSans-Light,Fira Sans" font-size="55.8" fill="#20313F" transform="matrix(1.00, 0.00, -0.00, -1.00, 87.6, 665.9)">r</text><text xml:space="preserve" font-family="FiraSans-Light,Fira Sans" font-size="55.8" fill="#20313F" transform="matrix(1.00, 0.00, -0.00, -1.00, 107.9, 665.9)">o</text><text xml:space="preserve" font-family="FiraSans-Light,Fira Sans" font-size="55.8" fill="#20313F" transform="matrix(1.00, 0.00, -0.00, -1.00, 139.7, 665.9)">b</text><text xml:space="preserve" font-family="FiraSans-Light,Fira Sans" font-size="55.8" fill="#20313F" transform="matrix(1.00, 0.00, -0.00, -1.00, 172.2, 665.9)">a</text><text xml:space="preserve" font-family="FiraSans-Light,Fira Sans" font-size="55.8" fill="#20313F" transform="matrix(1.00, 0.00, -0.00, -1.00, 202.1, 665.9)">b</text><text xml:space="preserve" font-family="FiraSans-Light,Fira Sans" font-size="55.8" fill="#20313F" transform="matrix(1.00, 0.00, -0.00, -1.00, 234.5, 665.9)">i</text><text xml:space="preserve" font-family="FiraSans-Light,Fira Sans" font-size="55.8" fill="#20313F" transform="matrix(1.00, 0.00, -0.00, -1.00, 249.6, 665.9)">l</text><text xml:space="preserve" font-family="FiraSans-Light,Fira Sans" font-size="55.8" fill="#20313F" transform="matrix(1.00, 0.00, -0.00, -1.00, 265.4, 665.9)">i</text><text xml:space="preserve" font-family="FiraSans-Light,Fira Sans" font-size="55.8" fill="#20313F" transform="matrix(1.00, 0.00, -0.00, -1.00, 280.5, 665.9)">s</text><text xml:space="preserve" font-family="FiraSans-Light,Fira Sans" font-size="55.8" fill="#20313F" transform="matrix(1.00, 0.00, -0.00, -1.00, 306.4, 665.9)">t</text><text xml:space="preserve" font-family="FiraSans-Light,Fira Sans" font-size="55.8" fill="#20313F" transform="matrix(1.00, 0.00, -0.00, -1.00, 325.4, 665.9)">i</text><text xml:space="preserve" font-family="FiraSans-Light,Fira Sans" font-size="55.8" fill="#20313F" transform="matrix(1.00, 0.00, -0.00, -1.00, 340.4, 665.9)">c</text><text xml:space="preserve" font-family="FiraSans-Light,Fira Sans" font-size="55.8" fill="#20313F" transform="matrix(1.00, 0.00, -0.00, -1.00, 366.6, 665.9)"> </text><text xml:space="preserve" font-family="FiraSans-Light,Fira Sans" font-size="55.8" fill="#20313F" transform="matrix(1.00, 0.00, -0.00, -1.00, 382.2, 665.9)">P</text><text xml:space="preserve" font-family="FiraSans-Light,Fira Sans" font-size="55.8" fill="#20313F" transform="matrix(1.00, 0.00, -0.00, -1.00, 414.0, 665.9)">r</text><text xml:space="preserve" font-family="FiraSans-Light,Fira Sans" font-size="55.8" fill="#20313F" transform="matrix(1.00, 0.00, -0.00, -1.00, 434.2, 665.9)">o</text><text xml:space="preserve" font-family="FiraSans-Light,Fira Sans" font-size="55.8" fill="#20313F" transform="matrix(1.00, 0.00, -0.00, -1.00, 466.1, 665.9)">g</text><text xml:space="preserve" font-family="FiraSans-Light,Fira Sans" font-size="55.8" fill="#20313F" transform="matrix(1.00, 0.00, -0.00, -1.00, 494.2, 665.9)">r</text><text xml:space="preserve" font-family="FiraSans-Light,Fira Sans" font-size="55.8" fill="#20313F" transform="matrix(1.00, 0.00, -0.00, -1.00, 513.9, 665.9)">a</text><text xml:space="preserve" font-family="FiraSans-Light,Fira Sans" font-size="55.8" fill="#20313F" transform="matrix(1.00, 0.00, -0.00, -1.00, 543.8, 665.9)">m</text><text xml:space="preserve" font-family="FiraSans-Light,Fira Sans" font-size="55.8" fill="#20313F" transform="matrix(1.00, 0.00, -0.00, -1.00, 591.4, 665.9)">m</text><text xml:space="preserve" font-family="FiraSans-Light,Fira Sans" font-size="55.8" fill="#20313F" transform="matrix(1.00, 0.00, -0.00, -1.00, 639.0, 665.9)">i</text><text xml:space="preserve" font-family="FiraSans-Light,Fira Sans" font-size="55.8" fill="#20313F" transform="matrix(1.00, 0.00, -0.00, -1.00, 654.0, 665.9)">n</text><text xml:space="preserve" font-family="FiraSans-Light,Fira Sans" font-size="55.8" fill="#20313F" transform="matrix(1.00, 0.00, -0.00, -1.00, 686.6, 665.9)">g</text><text xml:space="preserve" font-family="FiraSans-Light,Fira Sans" font-size="55.8" fill="#20313F" transform="matrix(1.00, 0.00, -0.00, -1.00, 714.7, 665.9)"> </text><text xml:space="preserve" font-family="FiraSans-Light,Fira Sans" font-size="55.8" fill="#20313F" transform="matrix(1.00, 0.00, -0.00, -1.00, 730.3, 665.9)">i</text><text xml:space="preserve" font-family="FiraSans-Light,Fira Sans" font-size="55.8" fill="#20313F" transform="matrix(1.00, 0.00, -0.00, -1.00, 745.3, 665.9)">n</text><text xml:space="preserve" font-family="FiraSans-Light,Fira Sans" font-size="55.8" fill="#20313F" transform="matrix(1.00, 0.00, -0.00, -1.00, 777.9, 665.9)"> </text><text xml:space="preserve" font-family="FiraSans-Light,Fira Sans" font-size="55.8" fill="#20313F" transform="matrix(1.00, 0.00, -0.00, -1.00, 793.5, 665.9)">B</text><text xml:space="preserve" font-family="FiraSans-Light,Fira Sans" font-size="55.8" fill="#20313F" transform="matrix(1.00, 0.00, -0.00, -1.00, 826.9, 665.9)">o</text><text xml:space="preserve" font-family="FiraSans-Light,Fira Sans" font-size="55.8" fill="#20313F" transform="matrix(1.00, 0.00, -0.00, -1.00, 858.7, 665.9)">s</text><text xml:space="preserve" font-family="FiraSans-Light,Fira Sans" font-size="55.8" fill="#20313F" transform="matrix(1.00, 0.00, -0.00, -1.00, 884.6, 665.9)">t</text><text xml:space="preserve" font-family="FiraSans-Light,Fira Sans" font-size="55.8" fill="#20313F" transform="matrix(1.00, 0.00, -0.00, -1.00, 903.1, 665.9)">o</text><text xml:space="preserve" font-family="FiraSans-Light,Fira Sans" font-size="55.8" fill="#20313F" transform="matrix(1.00, 0.00, -0.00, -1.00, 934.9, 665.9)">n</text><text xml:space="preserve" font-family="FiraSans-Light,Fira Sans" font-size="55.8" fill="#20313F" transform="matrix(1.00, 0.00, -0.00, -1.00, 967.5, 665.9)"> </text><g><clipPath id="clip0x60001ceb7be0"><path d="M 97.0 608.0 L 927.0 608.0 L 927.0 51.0 L 97.0 51.0 Z M 97.1 608.1 "></path></clipPath><g clip-path="url(#clip0x60001ceb7be0)"><image xlink:href="755BE0D4ABF6F927F4F7D351E69BB70D.png" width="2680.00" height="1800.00" transform="matrix(0.31, 0.00, -0.00, -0.31, 97.1, 608.1)"></image></g></g><image xlink:href="427ADC28C2291FE99A81ACC4E18B32A1.png" width="836.00" height="567.00" transform="matrix(1.00, 0.00, -0.00, 1.00, 94.1, 42.8)"></image><image xlink:href="DF2E171013C2B44A8CF83606EA0ECC72.png" width="210.00" height="353.00" transform="matrix(1.00, 0.00, -0.00, -1.00, 48.3, 377.2)" opacity="0.50"></image><path d="M 255.6 376.2 L 182.5 298.0 C 182.1 298.0 181.7 298.0 181.3 298.0 L 63.6 298.0 C 56.8 298.0 51.0 292.6 51.0 285.8 L 51.0 41.2 C 51.0 34.4 56.8 29.0 63.6 29.0 L 181.3 29.0 C 188.1 29.0 194.0 34.4 194.0 41.2 L 194.0 285.8 C 194.0 287.0 193.4 288.2 193.0 289.3 L 255.6 376.2 Z M 255.6 376.2 " fill="#FEFFFE"></path><g><clipPath id="clip0x60001ceb7e80"><path d="M 65.0 257.0 L 175.0 257.0 L 175.0 97.0 L 65.0 97.0 Z M 64.8 257.1 "></path></clipPath><g clip-path="url(#clip0x60001ceb7e80)"><g><clipPath id="clip0x60001ceb8000"><path d="M 61.8 89.1 L 177.8 89.1 L 177.8 259.1 L 61.8 259.1 Z M 61.8 89.1 "></path></clipPath><g clip-path="url(#clip0x60001ceb8000)"><image xlink:href="F42AB49AB004890463B9780CC86284AF.png" width="120.00" height="160.00" transform="matrix(1.00, 0.00, -0.00, -1.00, 59.8, 257.1)"></image></g></g></g></g><g><clipPath id="clip0x60001ceb80c0"><path d="M 61.8 89.1 L 177.8 89.1 L 177.8 259.1 L 61.8 259.1 Z M 61.8 89.1 "></path></clipPath><g clip-path="url(#clip0x60001ceb80c0)"><image xlink:href="052FD2DB342553D26A84CD819BAC68E2.png" width="116.00" height="170.00" transform="matrix(1.00, 0.00, -0.00, 1.00, 61.8, 89.1)"></image></g></g><g><clipPath id="clip0x60001ceb82a0"><path d="M 44.6 23.9 L 195.0 23.9 L 195.0 102.1 L 44.6 102.1 Z M 44.6 23.9 "></path></clipPath><g clip-path="url(#clip0x60001ceb82a0)"><text xml:space="preserve" font-family="FiraSans-Book,Fira Sans" font-size="22.0" fill="#2A4054" transform="matrix(1.00, 0.00, -0.00, -1.00, 105.5, 70.6)">A</text><text xml:space="preserve" font-family="FiraSans-Book,Fira Sans" font-size="22.0" fill="#2A4054" transform="matrix(1.00, 0.00, -0.00, -1.00, 117.2, 70.6)">v</text><text xml:space="preserve" font-family="FiraSans-Book,Fira Sans" font-size="22.0" fill="#2A4054" transform="matrix(1.00, 0.00, -0.00, -1.00, 127.9, 70.6)">i</text><text xml:space="preserve" font-family="FiraSans-Book,Fira Sans" font-size="22.0" fill="#2A4054" transform="matrix(1.00, 0.00, -0.00, -1.00, 134.1, 70.6)"> </text><text xml:space="preserve" font-family="FiraSans-Book,Fira Sans" font-size="22.0" fill="#2A4054" transform="matrix(1.00, 0.00, -0.00, -1.00, 86.4, 43.4)">P</text><text xml:space="preserve" font-family="FiraSans-Book,Fira Sans" font-size="22.0" fill="#2A4054" transform="matrix(1.00, 0.00, -0.00, -1.00, 99.3, 43.4)">f</text><text xml:space="preserve" font-family="FiraSans-Book,Fira Sans" font-size="22.0" fill="#2A4054" transform="matrix(1.00, 0.00, -0.00, -1.00, 106.3, 43.4)">e</text><text xml:space="preserve" font-family="FiraSans-Book,Fira Sans" font-size="22.0" fill="#2A4054" transform="matrix(1.00, 0.00, -0.00, -1.00, 118.4, 43.4)">f</text><text xml:space="preserve" font-family="FiraSans-Book,Fira Sans" font-size="22.0" fill="#2A4054" transform="matrix(1.00, 0.00, -0.00, -1.00, 125.7, 43.4)">f</text><text xml:space="preserve" font-family="FiraSans-Book,Fira Sans" font-size="22.0" fill="#2A4054" transform="matrix(1.00, 0.00, -0.00, -1.00, 132.8, 43.4)">e</text><text xml:space="preserve" font-family="FiraSans-Book,Fira Sans" font-size="22.0" fill="#2A4054" transform="matrix(1.00, 0.00, -0.00, -1.00, 144.8, 43.4)">r</text></g></g><g><clipPath id="clip0x60001ceb89c0"><path d="M 44.6 250.0 L 195.0 250.0 L 195.0 301.1 L 44.6 301.1 Z M 44.6 250.0 "></path></clipPath><g clip-path="url(#clip0x60001ceb89c0)"><text xml:space="preserve" font-family="FiraSans-SemiBold,Fira Sans" font-weight="bold" font-size="22.0" fill="#2A4054" transform="matrix(1.00, 0.00, -0.00, -1.00, 100.3, 269.6)">C</text><text xml:space="preserve" font-family="FiraSans-SemiBold,Fira Sans" font-weight="bold" font-size="22.0" fill="#2A4054" transform="matrix(1.00, 0.00, -0.00, -1.00, 112.9, 269.6)">R</text><text xml:space="preserve" font-family="FiraSans-SemiBold,Fira Sans" font-weight="bold" font-size="22.0" fill="#2A4054" transform="matrix(1.00, 0.00, -0.00, -1.00, 126.4, 269.6)">A</text></g></g><image xlink:href="EEEBC996139C338B70C1CDFC9AADABE9.png" width="411.00" height="275.00" transform="matrix(1.00, 0.00, -0.00, -1.00, 48.3, 628.0)" opacity="0.50"></image><path d="M 63.6 627.0 C 56.8 627.0 51.0 621.5 51.0 614.6 L 51.0 370.1 C 51.0 363.3 56.8 358.0 63.6 358.0 L 285.5 358.0 C 292.3 358.0 298.0 363.3 298.0 370.1 L 298.0 558.5 L 456.3 566.9 L 298.0 575.3 L 298.0 614.6 C 298.0 621.5 292.3 627.0 285.5 627.0 L 63.6 627.0 Z M 63.6 627.0 " fill="#FEFFFE"></path><image xlink:href="74219EAF3BAA6CE827DF32EE49D4EB21.png" width="400.00" height="275.00" transform="matrix(1.00, 0.00, -0.00, -1.00, 577.5, 299.1)" opacity="0.50"></image><path d="M 727.7 298.0 C 720.9 298.1 715.0 292.6 715.0 285.8 L 715.0 112.7 L 580.5 104.3 L 715.0 95.8 L 715.0 41.2 C 715.0 34.4 720.9 29.0 727.7 29.0 L 962.5 29.0 C 969.3 29.0 975.0 34.4 975.0 41.2 L 975.0 285.8 C 975.0 292.6 969.3 298.0 962.5 298.0 L 727.7 298.0 Z M 727.7 298.1 " fill="#FEFFFE"></path><g><clipPath id="clip0x618013eaf900"><path d="M 731.0 258.0 L 835.0 258.0 L 835.0 98.0 L 731.0 98.0 Z M 731.2 257.6 "></path></clipPath><g clip-path="url(#clip0x618013eaf900)"><g><clipPath id="clip0x618013eafa80"><path d="M 728.2 89.6 L 837.6 89.6 L 837.6 259.6 L 728.2 259.6 Z M 728.2 89.6 "></path></clipPath><g clip-path="url(#clip0x618013eafa80)"><image xlink:href="88656A8F9AEECCC769075A83666C7965.png" width="140.00" height="162.00" transform="matrix(1.06, 0.00, -0.00, -1.06, 708.4, 255.8)"></image></g></g></g></g><g><clipPath id="clip0x6100140a26a0"><path d="M 728.2 89.6 L 837.6 89.6 L 837.6 259.6 L 728.2 259.6 Z M 728.2 89.6 "></path></clipPath><g clip-path="url(#clip0x6100140a26a0)"><image xlink:href="9EA4076F6C424E6AB82E249000085A77.png" width="109.00" height="170.00" transform="matrix(1.00, 0.00, -0.00, 1.00, 728.2, 89.6)"></image></g></g><g><clipPath id="clip0x60001ceb8f00"><path d="M 707.8 24.4 L 858.3 24.4 L 858.3 102.6 L 707.8 102.6 Z M 707.8 24.4 "></path></clipPath><g clip-path="url(#clip0x60001ceb8f00)"><text xml:space="preserve" font-family="FiraSans-Book,Fira Sans" font-size="22.0" fill="#2A4054" transform="matrix(1.00, 0.00, -0.00, -1.00, 755.8, 71.1)">M</text><text xml:space="preserve" font-family="FiraSans-Book,Fira Sans" font-size="22.0" fill="#2A4054" transform="matrix(1.00, 0.00, -0.00, -1.00, 773.2, 71.1)">i</text><text xml:space="preserve" font-family="FiraSans-Book,Fira Sans" font-size="22.0" fill="#2A4054" transform="matrix(1.00, 0.00, -0.00, -1.00, 779.3, 71.1)">t</text><text xml:space="preserve" font-family="FiraSans-Book,Fira Sans" font-size="22.0" fill="#2A4054" transform="matrix(1.00, 0.00, -0.00, -1.00, 786.9, 71.1)">c</text><text xml:space="preserve" font-family="FiraSans-Book,Fira Sans" font-size="22.0" fill="#2A4054" transform="matrix(1.00, 0.00, -0.00, -1.00, 797.4, 71.1)">h</text><text xml:space="preserve" font-family="FiraSans-Book,Fira Sans" font-size="22.0" fill="#2A4054" transform="matrix(1.00, 0.00, -0.00, -1.00, 810.3, 71.1)"> </text><text xml:space="preserve" font-family="FiraSans-Book,Fira Sans" font-size="22.0" fill="#2A4054" transform="matrix(1.00, 0.00, -0.00, -1.00, 755.4, 43.9)">W</text><text xml:space="preserve" font-family="FiraSans-Book,Fira Sans" font-size="22.0" fill="#2A4054" transform="matrix(1.00, 0.00, -0.00, -1.00, 772.8, 43.9)">a</text><text xml:space="preserve" font-family="FiraSans-Book,Fira Sans" font-size="22.0" fill="#2A4054" transform="matrix(1.00, 0.00, -0.00, -1.00, 784.7, 43.9)">n</text><text xml:space="preserve" font-family="FiraSans-Book,Fira Sans" font-size="22.0" fill="#2A4054" transform="matrix(1.00, 0.00, -0.00, -1.00, 797.6, 43.9)">d</text></g></g><g><clipPath id="clip0x60001ceb94a0"><path d="M 764.3 251.5 L 931.5 251.5 L 931.5 302.6 L 764.3 302.6 Z M 764.3 251.5 "></path></clipPath><g clip-path="url(#clip0x60001ceb94a0)"><text xml:space="preserve" font-family="FiraSans-SemiBold,Fira Sans" font-weight="bold" font-size="22.0" fill="#2A4054" transform="matrix(1.00, 0.00, -0.00, -1.00, 780.8, 271.0)">N</text><text xml:space="preserve" font-family="FiraSans-SemiBold,Fira Sans" font-weight="bold" font-size="22.0" fill="#2A4054" transform="matrix(1.00, 0.00, -0.00, -1.00, 795.5, 271.0)">o</text><text xml:space="preserve" font-family="FiraSans-SemiBold,Fira Sans" font-weight="bold" font-size="22.0" fill="#2A4054" transform="matrix(1.00, 0.00, -0.00, -1.00, 808.3, 271.0)">r</text><text xml:space="preserve" font-family="FiraSans-SemiBold,Fira Sans" font-weight="bold" font-size="22.0" fill="#2A4054" transform="matrix(1.00, 0.00, -0.00, -1.00, 817.4, 271.0)">t</text><text xml:space="preserve" font-family="FiraSans-SemiBold,Fira Sans" font-weight="bold" font-size="22.0" fill="#2A4054" transform="matrix(1.00, 0.00, -0.00, -1.00, 825.8, 271.0)">h</text><text xml:space="preserve" font-family="FiraSans-SemiBold,Fira Sans" font-weight="bold" font-size="22.0" fill="#2A4054" transform="matrix(1.00, 0.00, -0.00, -1.00, 838.5, 271.0)">e</text><text xml:space="preserve" font-family="FiraSans-SemiBold,Fira Sans" font-weight="bold" font-size="22.0" fill="#2A4054" transform="matrix(1.00, 0.00, -0.00, -1.00, 850.7, 271.0)">a</text><text xml:space="preserve" font-family="FiraSans-SemiBold,Fira Sans" font-weight="bold" font-size="22.0" fill="#2A4054" transform="matrix(1.00, 0.00, -0.00, -1.00, 862.7, 271.0)">s</text><text xml:space="preserve" font-family="FiraSans-SemiBold,Fira Sans" font-weight="bold" font-size="22.0" fill="#2A4054" transform="matrix(1.00, 0.00, -0.00, -1.00, 873.3, 271.0)">t</text><text xml:space="preserve" font-family="FiraSans-SemiBold,Fira Sans" font-weight="bold" font-size="22.0" fill="#2A4054" transform="matrix(1.00, 0.00, -0.00, -1.00, 881.4, 271.0)">e</text><text xml:space="preserve" font-family="FiraSans-SemiBold,Fira Sans" font-weight="bold" font-size="22.0" fill="#2A4054" transform="matrix(1.00, 0.00, -0.00, -1.00, 893.6, 271.0)">r</text><text xml:space="preserve" font-family="FiraSans-SemiBold,Fira Sans" font-weight="bold" font-size="22.0" fill="#2A4054" transform="matrix(1.00, 0.00, -0.00, -1.00, 902.3, 271.0)">n</text></g></g><g><clipPath id="clip0x60001ceb9b00"><path d="M 855.0 258.0 L 958.0 258.0 L 958.0 98.0 L 855.0 98.0 Z M 854.9 257.6 "></path></clipPath><g clip-path="url(#clip0x60001ceb9b00)"><g><clipPath id="clip0x60001ceb9c80"><path d="M 851.9 89.6 L 960.8 89.6 L 960.8 259.6 L 851.9 259.6 Z M 851.9 89.6 "></path></clipPath><g clip-path="url(#clip0x60001ceb9c80)"><image xlink:href="3F0A66A41913AC0C08FEC193C23D7105.png" width="227.00" height="340.00" transform="matrix(0.58, 0.00, -0.00, -0.58, 846.1, 257.6)"></image></g></g></g></g><g><clipPath id="clip0x6100140a25e0"><path d="M 851.9 89.6 L 960.8 89.6 L 960.8 259.6 L 851.9 259.6 Z M 851.9 89.6 "></path></clipPath><g clip-path="url(#clip0x6100140a25e0)"><image xlink:href="../../D87DE3D3-FE3A-4F15-B22C-F6EFAE66DDEC/assets/9EA4076F6C424E6AB82E249000085A77.png" width="109.00" height="170.00" transform="matrix(1.00, 0.00, -0.00, 1.00, 851.9, 89.6)"></image></g></g><g><clipPath id="clip0x60001ceb9ce0"><path d="M 831.2 24.4 L 981.7 24.4 L 981.7 102.6 L 831.2 102.6 Z M 831.2 24.4 "></path></clipPath><g clip-path="url(#clip0x60001ceb9ce0)"><text xml:space="preserve" font-family="FiraSans-Book,Fira Sans" font-size="22.0" fill="#2A4054" transform="matrix(1.00, 0.00, -0.00, -1.00, 882.1, 71.1)">R</text><text xml:space="preserve" font-family="FiraSans-Book,Fira Sans" font-size="22.0" fill="#2A4054" transform="matrix(1.00, 0.00, -0.00, -1.00, 895.3, 71.1)">y</text><text xml:space="preserve" font-family="FiraSans-Book,Fira Sans" font-size="22.0" fill="#2A4054" transform="matrix(1.00, 0.00, -0.00, -1.00, 906.0, 71.1)">a</text><text xml:space="preserve" font-family="FiraSans-Book,Fira Sans" font-size="22.0" fill="#2A4054" transform="matrix(1.00, 0.00, -0.00, -1.00, 917.9, 71.1)">n</text><text xml:space="preserve" font-family="FiraSans-Book,Fira Sans" font-size="22.0" fill="#2A4054" transform="matrix(1.00, 0.00, -0.00, -1.00, 930.8, 71.1)"> </text><text xml:space="preserve" font-family="FiraSans-Book,Fira Sans" font-size="22.0" fill="#2A4054" transform="matrix(1.00, 0.00, -0.00, -1.00, 855.0, 43.9)">C</text><text xml:space="preserve" font-family="FiraSans-Book,Fira Sans" font-size="22.0" fill="#2A4054" transform="matrix(1.00, 0.00, -0.00, -1.00, 867.3, 43.9)">u</text><text xml:space="preserve" font-family="FiraSans-Book,Fira Sans" font-size="22.0" fill="#2A4054" transform="matrix(1.00, 0.00, -0.00, -1.00, 880.0, 43.9)">l</text><text xml:space="preserve" font-family="FiraSans-Book,Fira Sans" font-size="22.0" fill="#2A4054" transform="matrix(1.00, 0.00, -0.00, -1.00, 886.4, 43.9)">p</text><text xml:space="preserve" font-family="FiraSans-Book,Fira Sans" font-size="22.0" fill="#2A4054" transform="matrix(1.00, 0.00, -0.00, -1.00, 899.4, 43.9)">e</text><text xml:space="preserve" font-family="FiraSans-Book,Fira Sans" font-size="22.0" fill="#2A4054" transform="matrix(1.00, 0.00, -0.00, -1.00, 911.5, 43.9)">p</text><text xml:space="preserve" font-family="FiraSans-Book,Fira Sans" font-size="22.0" fill="#2A4054" transform="matrix(1.00, 0.00, -0.00, -1.00, 924.5, 43.9)">p</text><text xml:space="preserve" font-family="FiraSans-Book,Fira Sans" font-size="22.0" fill="#2A4054" transform="matrix(1.00, 0.00, -0.00, -1.00, 937.5, 43.9)">e</text><text xml:space="preserve" font-family="FiraSans-Book,Fira Sans" font-size="22.0" fill="#2A4054" transform="matrix(1.00, 0.00, -0.00, -1.00, 949.5, 43.9)">r</text></g></g><g><clipPath id="clip0x60001ceba5e0"><path d="M 96.1 580.1 L 263.3 580.1 L 263.3 631.2 L 96.1 631.2 Z M 96.1 580.1 "></path></clipPath><g clip-path="url(#clip0x60001ceba5e0)"><text xml:space="preserve" font-family="FiraSans-SemiBold,Fira Sans" font-weight="bold" font-size="22.0" fill="#2A4054" transform="matrix(1.00, 0.00, -0.00, -1.00, 155.0, 599.6)">T</text><text xml:space="preserve" font-family="FiraSans-SemiBold,Fira Sans" font-weight="bold" font-size="22.0" fill="#2A4054" transform="matrix(1.00, 0.00, -0.00, -1.00, 165.2, 599.6)">u</text><text xml:space="preserve" font-family="FiraSans-SemiBold,Fira Sans" font-weight="bold" font-size="22.0" fill="#2A4054" transform="matrix(1.00, 0.00, -0.00, -1.00, 177.8, 599.6)">f</text><text xml:space="preserve" font-family="FiraSans-SemiBold,Fira Sans" font-weight="bold" font-size="22.0" fill="#2A4054" transform="matrix(1.00, 0.00, -0.00, -1.00, 185.5, 599.6)">t</text><text xml:space="preserve" font-family="FiraSans-SemiBold,Fira Sans" font-weight="bold" font-size="22.0" fill="#2A4054" transform="matrix(1.00, 0.00, -0.00, -1.00, 193.9, 599.6)">s</text></g></g><g><clipPath id="clip0x60001ceba9a0"><path d="M 65.0 584.0 L 168.0 584.0 L 168.0 424.0 L 65.0 424.0 Z M 64.5 584.2 "></path></clipPath><g clip-path="url(#clip0x60001ceba9a0)"><g><clipPath id="clip0x60001cebab20"><path d="M 61.5 416.2 L 170.7 416.2 L 170.7 586.2 L 61.5 586.2 Z M 61.5 416.2 "></path></clipPath><g clip-path="url(#clip0x60001cebab20)"><image xlink:href="35552BEA2C9B9446860B0CC79C401408.png" width="160.00" height="208.00" transform="matrix(0.77, 0.00, -0.00, -0.77, 54.6, 584.2)"></image></g></g></g></g><g><clipPath id="clip0x6100090a2160"><path d="M 61.5 416.2 L 170.7 416.2 L 170.7 586.2 L 61.5 586.2 Z M 61.5 416.2 "></path></clipPath><g clip-path="url(#clip0x6100090a2160)"><image xlink:href="../../D87DE3D3-FE3A-4F15-B22C-F6EFAE66DDEC/assets/9EA4076F6C424E6AB82E249000085A77.png" width="109.00" height="170.00" transform="matrix(1.00, 0.00, -0.00, 1.00, 61.5, 416.2)"></image></g></g><g><clipPath id="clip0x6080148bff80"><path d="M 62.4 350.0 L 171.9 350.0 L 171.9 428.2 L 62.4 428.2 Z M 62.4 350.0 "></path></clipPath><g clip-path="url(#clip0x6080148bff80)"><text xml:space="preserve" font-family="FiraSans-Book,Fira Sans" font-size="22.0" fill="#2A4054" transform="matrix(1.00, 0.00, -0.00, -1.00, 76.3, 396.7)">N</text><text xml:space="preserve" font-family="FiraSans-Book,Fira Sans" font-size="22.0" fill="#2A4054" transform="matrix(1.00, 0.00, -0.00, -1.00, 91.3, 396.7)">o</text><text xml:space="preserve" font-family="FiraSans-Book,Fira Sans" font-size="22.0" fill="#2A4054" transform="matrix(1.00, 0.00, -0.00, -1.00, 104.1, 396.7)">r</text><text xml:space="preserve" font-family="FiraSans-Book,Fira Sans" font-size="22.0" fill="#2A4054" transform="matrix(1.00, 0.00, -0.00, -1.00, 112.5, 396.7)">m</text><text xml:space="preserve" font-family="FiraSans-Book,Fira Sans" font-size="22.0" fill="#2A4054" transform="matrix(1.00, 0.00, -0.00, -1.00, 131.4, 396.7)">a</text><text xml:space="preserve" font-family="FiraSans-Book,Fira Sans" font-size="22.0" fill="#2A4054" transform="matrix(1.00, 0.00, -0.00, -1.00, 143.3, 396.7)">n</text><text xml:space="preserve" font-family="FiraSans-Book,Fira Sans" font-size="22.0" fill="#2A4054" transform="matrix(1.00, 0.00, -0.00, -1.00, 156.2, 396.7)"> </text><text xml:space="preserve" font-family="FiraSans-Book,Fira Sans" font-size="22.0" fill="#2A4054" transform="matrix(1.00, 0.00, -0.00, -1.00, 78.0, 369.5)">R</text><text xml:space="preserve" font-family="FiraSans-Book,Fira Sans" font-size="22.0" fill="#2A4054" transform="matrix(1.00, 0.00, -0.00, -1.00, 91.0, 369.5)">a</text><text xml:space="preserve" font-family="FiraSans-Book,Fira Sans" font-size="22.0" fill="#2A4054" transform="matrix(1.00, 0.00, -0.00, -1.00, 102.9, 369.5)">m</text><text xml:space="preserve" font-family="FiraSans-Book,Fira Sans" font-size="22.0" fill="#2A4054" transform="matrix(1.00, 0.00, -0.00, -1.00, 121.8, 369.5)">s</text><text xml:space="preserve" font-family="FiraSans-Book,Fira Sans" font-size="22.0" fill="#2A4054" transform="matrix(1.00, 0.00, -0.00, -1.00, 132.0, 369.5)">e</text><text xml:space="preserve" font-family="FiraSans-Book,Fira Sans" font-size="22.0" fill="#2A4054" transform="matrix(1.00, 0.00, -0.00, -1.00, 143.8, 369.5)">y</text></g></g><g><clipPath id="clip0x608014aa0660"><path d="M 189.0 584.0 L 281.0 584.0 L 281.0 424.0 L 189.0 424.0 Z M 188.7 584.2 "></path></clipPath><g clip-path="url(#clip0x608014aa0660)"><g><clipPath id="clip0x608014aa07e0"><path d="M 185.7 416.2 L 284.4 416.2 L 284.4 586.2 L 185.7 586.2 Z M 185.7 416.2 "></path></clipPath><g clip-path="url(#clip0x608014aa07e0)"><image xlink:href="9FFB9190E39D9767D233AAF757B0AD6F.png" width="160.00" height="208.00" transform="matrix(0.81, 0.00, -0.00, -0.81, 167.0, 591.8)"></image></g></g></g></g><g><clipPath id="clip0x608014aa08a0"><path d="M 185.7 416.2 L 284.4 416.2 L 284.4 586.2 L 185.7 586.2 Z M 185.7 416.2 "></path></clipPath><g clip-path="url(#clip0x608014aa08a0)"><image xlink:href="D864D5C984015B03F04559EB427BA7BE.png" width="99.00" height="170.00" transform="matrix(1.00, 0.00, -0.00, 1.00, 185.7, 416.2)"></image></g></g><g><clipPath id="clip0x60001cebab80"><path d="M 181.3 350.0 L 295.1 350.0 L 295.1 428.2 L 181.3 428.2 Z M 181.3 350.0 "></path></clipPath><g clip-path="url(#clip0x60001cebab80)"><text xml:space="preserve" font-family="FiraSans-Book,Fira Sans" font-size="22.0" fill="#2A4054" transform="matrix(1.00, 0.00, -0.00, -1.00, 191.0, 396.7)">K</text><text xml:space="preserve" font-family="FiraSans-Book,Fira Sans" font-size="22.0" fill="#2A4054" transform="matrix(1.00, 0.00, -0.00, -1.00, 203.7, 396.7)">a</text><text xml:space="preserve" font-family="FiraSans-Book,Fira Sans" font-size="22.0" fill="#2A4054" transform="matrix(1.00, 0.00, -0.00, -1.00, 215.6, 396.7)">t</text><text xml:space="preserve" font-family="FiraSans-Book,Fira Sans" font-size="22.0" fill="#2A4054" transform="matrix(1.00, 0.00, -0.00, -1.00, 223.4, 396.7)">h</text><text xml:space="preserve" font-family="FiraSans-Book,Fira Sans" font-size="22.0" fill="#2A4054" transform="matrix(1.00, 0.00, -0.00, -1.00, 236.3, 396.7)">l</text><text xml:space="preserve" font-family="FiraSans-Book,Fira Sans" font-size="22.0" fill="#2A4054" transform="matrix(1.00, 0.00, -0.00, -1.00, 242.5, 396.7)">e</text><text xml:space="preserve" font-family="FiraSans-Book,Fira Sans" font-size="22.0" fill="#2A4054" transform="matrix(1.00, 0.00, -0.00, -1.00, 254.5, 396.7)">e</text><text xml:space="preserve" font-family="FiraSans-Book,Fira Sans" font-size="22.0" fill="#2A4054" transform="matrix(1.00, 0.00, -0.00, -1.00, 266.5, 396.7)">n</text><text xml:space="preserve" font-family="FiraSans-Book,Fira Sans" font-size="22.0" fill="#2A4054" transform="matrix(1.00, 0.00, -0.00, -1.00, 279.4, 396.7)"> </text><text xml:space="preserve" font-family="FiraSans-Book,Fira Sans" font-size="22.0" fill="#2A4054" transform="matrix(1.00, 0.00, -0.00, -1.00, 204.6, 369.5)">F</text><text xml:space="preserve" font-family="FiraSans-Book,Fira Sans" font-size="22.0" fill="#2A4054" transform="matrix(1.00, 0.00, -0.00, -1.00, 216.1, 369.5)">i</text><text xml:space="preserve" font-family="FiraSans-Book,Fira Sans" font-size="22.0" fill="#2A4054" transform="matrix(1.00, 0.00, -0.00, -1.00, 222.2, 369.5)">s</text><text xml:space="preserve" font-family="FiraSans-Book,Fira Sans" font-size="22.0" fill="#2A4054" transform="matrix(1.00, 0.00, -0.00, -1.00, 232.5, 369.5)">h</text><text xml:space="preserve" font-family="FiraSans-Book,Fira Sans" font-size="22.0" fill="#2A4054" transform="matrix(1.00, 0.00, -0.00, -1.00, 245.3, 369.5)">e</text><text xml:space="preserve" font-family="FiraSans-Book,Fira Sans" font-size="22.0" fill="#2A4054" transform="matrix(1.00, 0.00, -0.00, -1.00, 257.4, 369.5)">r</text></g></g><image xlink:href="A8F8608B36902ABB615D89C089E39816.png" width="271.00" height="345.00" transform="matrix(1.00, 0.00, -0.00, -1.00, 466.4, 628.0)" opacity="0.50"></image><path d="M 481.7 627.0 C 474.9 627.0 469.0 621.5 469.0 614.6 L 469.0 370.1 C 469.0 363.3 474.9 358.0 481.7 358.0 L 575.9 358.0 L 583.4 287.5 L 591.1 358.0 L 721.9 358.0 C 728.7 358.0 734.0 363.3 734.0 370.1 L 734.0 614.6 C 734.0 621.5 728.7 627.0 721.9 627.0 L 481.7 627.0 Z M 481.7 627.0 " fill="#FEFFFE"></path><g><clipPath id="clip0x618013eafd80"><path d="M 483.0 586.0 L 597.0 586.0 L 597.0 426.0 L 483.0 426.0 Z M 482.8 586.2 "></path></clipPath><g clip-path="url(#clip0x618013eafd80)"><g><clipPath id="clip0x618013eaff00"><path d="M 479.8 418.2 L 599.6 418.2 L 599.6 588.2 L 479.8 588.2 Z M 479.8 418.2 "></path></clipPath><g clip-path="url(#clip0x618013eaff00)"><image xlink:href="657E934AC1D2C161DE408F4092674A8C.png" width="150.00" height="228.00" transform="matrix(0.76, 0.00, -0.00, -0.76, 482.8, 599.2)"></image></g></g></g></g><g><clipPath id="clip0x60001cebb3c0"><path d="M 479.8 418.2 L 599.6 418.2 L 599.6 588.2 L 479.8 588.2 Z M 479.8 418.2 "></path></clipPath><g clip-path="url(#clip0x60001cebb3c0)"><image xlink:href="28062F6BEDB42B11269EFB8CF906C4FF.png" width="120.00" height="170.00" transform="matrix(1.00, 0.00, -0.00, 1.00, 479.8, 418.2)"></image></g></g><g><clipPath id="clip0x608014aa0a80"><path d="M 618.0 586.0 L 718.0 586.0 L 718.0 426.0 L 618.0 426.0 Z M 618.0 586.2 "></path></clipPath><g clip-path="url(#clip0x608014aa0a80)"><g><clipPath id="clip0x608014aa0d20"><path d="M 615.0 418.2 L 720.8 418.2 L 720.8 588.2 L 615.0 588.2 Z M 615.0 418.2 "></path></clipPath><g clip-path="url(#clip0x608014aa0d20)"><image xlink:href="1002C253C9C020E7184371CA9BF7E57D.png" width="183.00" height="275.00" transform="matrix(0.80, 0.00, -0.00, -0.80, 595.1, 595.2)"></image></g></g></g></g><g><clipPath id="clip0x61000eebb2a0"><path d="M 615.0 418.2 L 720.8 418.2 L 720.8 588.2 L 615.0 588.2 Z M 615.0 418.2 "></path></clipPath><g clip-path="url(#clip0x61000eebb2a0)"><image xlink:href="AA88D99C615C21C9AD60C139F0BC11BC.png" width="106.00" height="170.00" transform="matrix(1.00, 0.00, -0.00, 1.00, 615.0, 418.2)"></image></g></g><g><clipPath id="clip0x60001cebb600"><path d="M 464.6 353.0 L 615.0 353.0 L 615.0 431.2 L 464.6 431.2 Z M 464.6 353.0 "></path></clipPath><g clip-path="url(#clip0x60001cebb600)"><text xml:space="preserve" font-family="FiraSans-Book,Fira Sans" font-size="22.0" fill="#2A4054" transform="matrix(1.00, 0.00, -0.00, -1.00, 518.5, 399.7)">J</text><text xml:space="preserve" font-family="FiraSans-Book,Fira Sans" font-size="22.0" fill="#2A4054" transform="matrix(1.00, 0.00, -0.00, -1.00, 525.2, 399.7)">o</text><text xml:space="preserve" font-family="FiraSans-Book,Fira Sans" font-size="22.0" fill="#2A4054" transform="matrix(1.00, 0.00, -0.00, -1.00, 538.0, 399.7)">s</text><text xml:space="preserve" font-family="FiraSans-Book,Fira Sans" font-size="22.0" fill="#2A4054" transform="matrix(1.00, 0.00, -0.00, -1.00, 548.2, 399.7)">h</text><text xml:space="preserve" font-family="FiraSans-Book,Fira Sans" font-size="22.0" fill="#2A4054" transform="matrix(1.00, 0.00, -0.00, -1.00, 561.1, 399.7)"> </text><text xml:space="preserve" font-family="FiraSans-Book,Fira Sans" font-size="22.0" fill="#2A4054" transform="matrix(1.00, 0.00, -0.00, -1.00, 481.9, 372.5)">T</text><text xml:space="preserve" font-family="FiraSans-Book,Fira Sans" font-size="22.0" fill="#2A4054" transform="matrix(1.00, 0.00, -0.00, -1.00, 491.4, 372.5)">e</text><text xml:space="preserve" font-family="FiraSans-Book,Fira Sans" font-size="22.0" fill="#2A4054" transform="matrix(1.00, 0.00, -0.00, -1.00, 503.4, 372.5)">n</text><text xml:space="preserve" font-family="FiraSans-Book,Fira Sans" font-size="22.0" fill="#2A4054" transform="matrix(1.00, 0.00, -0.00, -1.00, 516.3, 372.5)">e</text><text xml:space="preserve" font-family="FiraSans-Book,Fira Sans" font-size="22.0" fill="#2A4054" transform="matrix(1.00, 0.00, -0.00, -1.00, 528.3, 372.5)">n</text><text xml:space="preserve" font-family="FiraSans-Book,Fira Sans" font-size="22.0" fill="#2A4054" transform="matrix(1.00, 0.00, -0.00, -1.00, 541.2, 372.5)">b</text><text xml:space="preserve" font-family="FiraSans-Book,Fira Sans" font-size="22.0" fill="#2A4054" transform="matrix(1.00, 0.00, -0.00, -1.00, 554.2, 372.5)">a</text><text xml:space="preserve" font-family="FiraSans-Book,Fira Sans" font-size="22.0" fill="#2A4054" transform="matrix(1.00, 0.00, -0.00, -1.00, 566.1, 372.5)">u</text><text xml:space="preserve" font-family="FiraSans-Book,Fira Sans" font-size="22.0" fill="#2A4054" transform="matrix(1.00, 0.00, -0.00, -1.00, 578.9, 372.5)">m</text></g></g><g><clipPath id="clip0x60001cebbf00"><path d="M 593.3 353.0 L 743.7 353.0 L 743.7 431.2 L 593.3 431.2 Z M 593.3 353.0 "></path></clipPath><g clip-path="url(#clip0x60001cebbf00)"><text xml:space="preserve" font-family="FiraSans-Book,Fira Sans" font-size="22.0" fill="#2A4054" transform="matrix(1.00, 0.00, -0.00, -1.00, 636.3, 399.7)">V</text><text xml:space="preserve" font-family="FiraSans-Book,Fira Sans" font-size="22.0" fill="#2A4054" transform="matrix(1.00, 0.00, -0.00, -1.00, 648.5, 399.7)">i</text><text xml:space="preserve" font-family="FiraSans-Book,Fira Sans" font-size="22.0" fill="#2A4054" transform="matrix(1.00, 0.00, -0.00, -1.00, 654.6, 399.7)">k</text><text xml:space="preserve" font-family="FiraSans-Book,Fira Sans" font-size="22.0" fill="#2A4054" transform="matrix(1.00, 0.00, -0.00, -1.00, 665.6, 399.7)">a</text><text xml:space="preserve" font-family="FiraSans-Book,Fira Sans" font-size="22.0" fill="#2A4054" transform="matrix(1.00, 0.00, -0.00, -1.00, 677.6, 399.7)">s</text><text xml:space="preserve" font-family="FiraSans-Book,Fira Sans" font-size="22.0" fill="#2A4054" transform="matrix(1.00, 0.00, -0.00, -1.00, 687.8, 399.7)">h</text><text xml:space="preserve" font-family="FiraSans-Book,Fira Sans" font-size="22.0" fill="#2A4054" transform="matrix(1.00, 0.00, -0.00, -1.00, 700.7, 399.7)"> </text><text xml:space="preserve" font-family="FiraSans-Book,Fira Sans" font-size="22.0" fill="#2A4054" transform="matrix(1.00, 0.00, -0.00, -1.00, 609.2, 372.5)">M</text><text xml:space="preserve" font-family="FiraSans-Book,Fira Sans" font-size="22.0" fill="#2A4054" transform="matrix(1.00, 0.00, -0.00, -1.00, 626.6, 372.5)">a</text><text xml:space="preserve" font-family="FiraSans-Book,Fira Sans" font-size="22.0" fill="#2A4054" transform="matrix(1.00, 0.00, -0.00, -1.00, 638.5, 372.5)">n</text><text xml:space="preserve" font-family="FiraSans-Book,Fira Sans" font-size="22.0" fill="#2A4054" transform="matrix(1.00, 0.00, -0.00, -1.00, 651.4, 372.5)">s</text><text xml:space="preserve" font-family="FiraSans-Book,Fira Sans" font-size="22.0" fill="#2A4054" transform="matrix(1.00, 0.00, -0.00, -1.00, 661.6, 372.5)">i</text><text xml:space="preserve" font-family="FiraSans-Book,Fira Sans" font-size="22.0" fill="#2A4054" transform="matrix(1.00, 0.00, -0.00, -1.00, 667.8, 372.5)">n</text><text xml:space="preserve" font-family="FiraSans-Book,Fira Sans" font-size="22.0" fill="#2A4054" transform="matrix(1.00, 0.00, -0.00, -1.00, 680.6, 372.5)">g</text><text xml:space="preserve" font-family="FiraSans-Book,Fira Sans" font-size="22.0" fill="#2A4054" transform="matrix(1.00, 0.00, -0.00, -1.00, 692.0, 372.5)">h</text><text xml:space="preserve" font-family="FiraSans-Book,Fira Sans" font-size="22.0" fill="#2A4054" transform="matrix(1.00, 0.00, -0.00, -1.00, 704.9, 372.5)">k</text><text xml:space="preserve" font-family="FiraSans-Book,Fira Sans" font-size="22.0" fill="#2A4054" transform="matrix(1.00, 0.00, -0.00, -1.00, 715.9, 372.5)">a</text></g></g><g><clipPath id="clip0x60001cebc740"><path d="M 529.7 582.1 L 680.1 582.1 L 680.1 633.2 L 529.7 633.2 Z M 529.7 582.1 "></path></clipPath><g clip-path="url(#clip0x60001cebc740)"><text xml:space="preserve" font-family="FiraSans-SemiBold,Fira Sans" font-weight="bold" font-size="22.0" fill="#2A4054" transform="matrix(1.00, 0.00, -0.00, -1.00, 587.1, 601.7)">M</text><text xml:space="preserve" font-family="FiraSans-SemiBold,Fira Sans" font-weight="bold" font-size="22.0" fill="#2A4054" transform="matrix(1.00, 0.00, -0.00, -1.00, 604.5, 601.7)">I</text><text xml:space="preserve" font-family="FiraSans-SemiBold,Fira Sans" font-weight="bold" font-size="22.0" fill="#2A4054" transform="matrix(1.00, 0.00, -0.00, -1.00, 611.0, 601.7)">T</text></g></g><image xlink:href="8FAAA0488F9AF3F99F11192C5F8ECDC8.png" width="343.00" height="344.00" transform="matrix(1.00, 0.00, -0.00, -1.00, 634.6, 628.0)" opacity="0.50"></image><path d="M 841.8 627.0 C 835.0 627.0 829.0 621.5 829.0 614.6 L 829.0 373.2 L 637.6 288.9 L 835.7 359.5 C 837.6 358.5 839.6 358.0 841.8 358.0 L 962.5 358.0 C 969.3 358.0 975.0 363.3 975.0 370.1 L 975.0 614.6 C 975.0 621.5 969.3 627.0 962.5 627.0 L 841.8 627.0 Z M 841.8 627.0 " fill="#FEFFFE"></path><g><clipPath id="clip0x6100114b1f40"><path d="M 824.7 350.4 L 975.2 350.4 L 975.2 428.7 L 824.7 428.7 Z M 824.7 350.4 "></path></clipPath><g clip-path="url(#clip0x6100114b1f40)"><text xml:space="preserve" font-family="FiraSans-Book,Fira Sans" font-size="22.0" fill="#2A4054" transform="matrix(1.00, 0.00, -0.00, -1.00, 880.9, 397.1)">B</text><text xml:space="preserve" font-family="FiraSans-Book,Fira Sans" font-size="22.0" fill="#2A4054" transform="matrix(1.00, 0.00, -0.00, -1.00, 894.2, 397.1)">e</text><text xml:space="preserve" font-family="FiraSans-Book,Fira Sans" font-size="22.0" fill="#2A4054" transform="matrix(1.00, 0.00, -0.00, -1.00, 906.2, 397.1)">n</text><text xml:space="preserve" font-family="FiraSans-Book,Fira Sans" font-size="22.0" fill="#2A4054" transform="matrix(1.00, 0.00, -0.00, -1.00, 919.1, 397.1)"> </text><text xml:space="preserve" font-family="FiraSans-Book,Fira Sans" font-size="22.0" fill="#2A4054" transform="matrix(1.00, 0.00, -0.00, -1.00, 866.4, 369.9)">V</text><text xml:space="preserve" font-family="FiraSans-Book,Fira Sans" font-size="22.0" fill="#2A4054" transform="matrix(1.00, 0.00, -0.00, -1.00, 878.6, 369.9)">i</text><text xml:space="preserve" font-family="FiraSans-Book,Fira Sans" font-size="22.0" fill="#2A4054" transform="matrix(1.00, 0.00, -0.00, -1.00, 884.7, 369.9)">g</text><text xml:space="preserve" font-family="FiraSans-Book,Fira Sans" font-size="22.0" fill="#2A4054" transform="matrix(1.00, 0.00, -0.00, -1.00, 895.7, 369.9)">o</text><text xml:space="preserve" font-family="FiraSans-Book,Fira Sans" font-size="22.0" fill="#2A4054" transform="matrix(1.00, 0.00, -0.00, -1.00, 908.5, 369.9)">d</text><text xml:space="preserve" font-family="FiraSans-Book,Fira Sans" font-size="22.0" fill="#2A4054" transform="matrix(1.00, 0.00, -0.00, -1.00, 921.6, 369.9)">a</text></g></g><g><clipPath id="clip0x6100116ba160"><path d="M 824.7 580.6 L 975.2 580.6 L 975.2 631.6 L 824.7 631.6 Z M 824.7 580.6 "></path></clipPath><g clip-path="url(#clip0x6100116ba160)"><text xml:space="preserve" font-family="FiraSans-SemiBold,Fira Sans" font-weight="bold" font-size="22.0" fill="#2A4054" transform="matrix(1.00, 0.00, -0.00, -1.00, 855.6, 600.1)">G</text><text xml:space="preserve" font-family="FiraSans-SemiBold,Fira Sans" font-weight="bold" font-size="22.0" fill="#2A4054" transform="matrix(1.00, 0.00, -0.00, -1.00, 869.7, 600.1)">a</text><text xml:space="preserve" font-family="FiraSans-SemiBold,Fira Sans" font-weight="bold" font-size="22.0" fill="#2A4054" transform="matrix(1.00, 0.00, -0.00, -1.00, 881.8, 600.1)">m</text><text xml:space="preserve" font-family="FiraSans-SemiBold,Fira Sans" font-weight="bold" font-size="22.0" fill="#2A4054" transform="matrix(1.00, 0.00, -0.00, -1.00, 900.4, 600.1)">a</text><text xml:space="preserve" font-family="FiraSans-SemiBold,Fira Sans" font-weight="bold" font-size="22.0" fill="#2A4054" transform="matrix(1.00, 0.00, -0.00, -1.00, 912.4, 600.1)">l</text><text xml:space="preserve" font-family="FiraSans-SemiBold,Fira Sans" font-weight="bold" font-size="22.0" fill="#2A4054" transform="matrix(1.00, 0.00, -0.00, -1.00, 918.7, 600.1)">o</text><text xml:space="preserve" font-family="FiraSans-SemiBold,Fira Sans" font-weight="bold" font-size="22.0" fill="#2A4054" transform="matrix(1.00, 0.00, -0.00, -1.00, 931.6, 600.1)">n</text></g></g><g><clipPath id="clip0x6100116ba220"><path d="M 848.0 584.0 L 956.0 584.0 L 956.0 424.0 L 848.0 424.0 Z M 847.9 583.6 "></path></clipPath><g clip-path="url(#clip0x6100116ba220)"><g><clipPath id="clip0x6100116ba100"><path d="M 844.9 415.6 L 958.5 415.6 L 958.5 585.6 L 844.9 585.6 Z M 844.9 415.6 "></path></clipPath><g clip-path="url(#clip0x6100116ba100)"><image xlink:href="65B4B26C17EC67B75F54357A6FC1C51D.png" width="368.00" height="333.00" transform="matrix(0.48, 0.00, -0.00, -0.48, 802.2, 583.6)"></image></g></g></g></g><g><clipPath id="clip0x608014aa0fc0"><path d="M 844.9 415.6 L 958.5 415.6 L 958.5 585.6 L 844.9 585.6 Z M 844.9 415.6 "></path></clipPath><g clip-path="url(#clip0x608014aa0fc0)"><image xlink:href="1177FD9A553213E36FA32A57BF12FC7A.png" width="114.00" height="170.00" transform="matrix(1.00, 0.00, -0.00, 1.00, 844.9, 415.6)"></image></g></g></g></svg>