<?xml version="1.0" encoding="UTF-8" standalone="no"?><svg xmlns="http://www.w3.org/2000/svg" xmlns:xlink="http://www.w3.org/1999/xlink" clip-rule="evenodd" stroke-miterlimit="10" viewBox="0 0 441 154"><desc>SVG generated by Keynote</desc><defs></defs><g transform="matrix(1.00, 0.00, -0.00, -1.00, 0.0, 154.0)"><path d="M 5.0 150.0 L 436.0 150.0 L 436.0 10.0 L 5.0 10.0 Z M 5.0 150.1 " fill="#FEFFFE"></path><image xlink:href="../../ACDFC217-1253-4982-A167-47D212B486E1/assets/D36CCB4BB44DCD0881C42D5DB9A6320E.png" width="437.00" height="150.00" transform="matrix(1.00, 0.00, -0.00, 1.00, 2.0, 1.9)"></image><g><clipPath id="clip0x6100080ba640"><path d="M -0.1 10.0 L 441.4 10.0 L 441.4 150.2 L -0.1 150.2 Z M -0.1 10.0 "></path></clipPath><g clip-path="url(#clip0x6100080ba640)"><text xml:space="preserve" font-family="FiraMono-Regular,Fira Mono" font-size="26.0" fill="#000000" transform="matrix(1.00, 0.00, -0.00, -1.00, 10.0, 113.1)"> </text><text xml:space="preserve" font-family="FiraMono-Regular,Fira Mono" font-size="26.0" fill="#000000" transform="matrix(1.00, 0.00, -0.00, -1.00, 20.0, 113.1)">1</text><text xml:space="preserve" font-family="FiraMono-Regular,Fira Mono" font-size="26.0" fill="#000000" transform="matrix(1.00, 0.00, -0.00, -1.00, 35.6, 113.1)"> </text><text xml:space="preserve" font-family="FiraMono-Bold,Fira Mono" font-weight="bold" font-size="26.0" fill="#52A500" transform="matrix(1.00, 0.00, -0.00, -1.00, 51.2, 113.1)">s</text><text xml:space="preserve" font-family="FiraMono-Bold,Fira Mono" font-weight="bold" font-size="26.0" fill="#52A500" transform="matrix(1.00, 0.00, -0.00, -1.00, 66.8, 113.1)">a</text><text xml:space="preserve" font-family="FiraMono-Bold,Fira Mono" font-weight="bold" font-size="26.0" fill="#52A500" transform="matrix(1.00, 0.00, -0.00, -1.00, 82.4, 113.1)">m</text><text xml:space="preserve" font-family="FiraMono-Bold,Fira Mono" font-weight="bold" font-size="26.0" fill="#52A500" transform="matrix(1.00, 0.00, -0.00, -1.00, 98.0, 113.1)">p</text><text xml:space="preserve" font-family="FiraMono-Bold,Fira Mono" font-weight="bold" font-size="26.0" fill="#52A500" transform="matrix(1.00, 0.00, -0.00, -1.00, 113.6, 113.1)">l</text><text xml:space="preserve" font-family="FiraMono-Bold,Fira Mono" font-weight="bold" font-size="26.0" fill="#52A500" transform="matrix(1.00, 0.00, -0.00, -1.00, 129.2, 113.1)">e</text><text xml:space="preserve" font-family="FiraMono-Bold,Fira Mono" font-weight="bold" font-size="26.0" fill="#000000" transform="matrix(1.00, 0.00, -0.00, -1.00, 144.8, 113.1)"> </text><text xml:space="preserve" font-family="FiraSans-LightItalic,Fira Sans" font-style="italic" font-size="26.0" fill="#000000" transform="matrix(1.00, 0.00, -0.00, -1.00, 160.4, 113.1)">r</text><text xml:space="preserve" font-family="FiraSans-LightItalic,Fira Sans" font-style="italic" font-size="26.0" fill="#000000" transform="matrix(1.00, 0.00, -0.00, -1.00, 169.8, 113.1)">a</text><text xml:space="preserve" font-family="FiraSans-LightItalic,Fira Sans" font-style="italic" font-size="26.0" fill="#000000" transform="matrix(1.00, 0.00, -0.00, -1.00, 184.3, 113.1)">n</text><text xml:space="preserve" font-family="FiraSans-LightItalic,Fira Sans" font-style="italic" font-size="26.0" fill="#000000" transform="matrix(1.00, 0.00, -0.00, -1.00, 199.4, 113.1)">d</text><text xml:space="preserve" font-family="FiraSans-LightItalic,Fira Sans" font-style="italic" font-size="26.0" fill="#000000" transform="matrix(1.00, 0.00, -0.00, -1.00, 214.3, 113.1)">o</text><text xml:space="preserve" font-family="FiraSans-LightItalic,Fira Sans" font-style="italic" font-size="26.0" fill="#000000" transform="matrix(1.00, 0.00, -0.00, -1.00, 229.1, 113.1)">m</text><text xml:space="preserve" font-family="FiraSans-Light,Fira Sans" font-size="26.0" fill="#000000" transform="matrix(1.00, 0.00, -0.00, -1.00, 251.2, 113.1)"> </text><text xml:space="preserve" font-family="FiraSans-Light,Fira Sans" font-size="26.0" fill="#000000" transform="matrix(1.00, 0.00, -0.00, -1.00, 258.4, 113.1)">v</text><text xml:space="preserve" font-family="FiraSans-Light,Fira Sans" font-size="26.0" fill="#000000" transform="matrix(1.00, 0.00, -0.00, -1.00, 270.7, 113.1)">a</text><text xml:space="preserve" font-family="FiraSans-Light,Fira Sans" font-size="26.0" fill="#000000" transform="matrix(1.00, 0.00, -0.00, -1.00, 284.6, 113.1)">l</text><text xml:space="preserve" font-family="FiraSans-Light,Fira Sans" font-size="26.0" fill="#000000" transform="matrix(1.00, 0.00, -0.00, -1.00, 292.0, 113.1)">u</text><text xml:space="preserve" font-family="FiraSans-Light,Fira Sans" font-size="26.0" fill="#000000" transform="matrix(1.00, 0.00, -0.00, -1.00, 307.0, 113.1)">e</text><text xml:space="preserve" font-family="FiraSans-Light,Fira Sans" font-size="26.0" fill="#000000" transform="matrix(1.00, 0.00, -0.00, -1.00, 321.0, 113.1)"> </text><text xml:space="preserve" font-family="CharterBT-BlackItalic,Charter BT" font-style="italic" font-weight="bold" font-size="26.0" fill="#54A800" transform="matrix(1.00, 0.00, -0.00, -1.00, 328.3, 113.1)">x</text><text xml:space="preserve" font-family="FiraSans-Light,Fira Sans" font-size="26.0" fill="#000000" transform="matrix(1.00, 0.00, -0.00, -1.00, 343.0, 113.1)"> </text><text xml:space="preserve" font-family="FiraMono-Regular,Fira Mono" font-size="26.0" fill="#000000" transform="matrix(1.00, 0.00, -0.00, -1.00, 10.0, 73.1)"> </text><text xml:space="preserve" font-family="FiraMono-Regular,Fira Mono" font-size="26.0" fill="#000000" transform="matrix(1.00, 0.00, -0.00, -1.00, 20.0, 73.1)">2</text><text xml:space="preserve" font-family="FiraMono-Regular,Fira Mono" font-size="26.0" fill="#000000" transform="matrix(1.00, 0.00, -0.00, -1.00, 35.6, 73.1)"> </text><text xml:space="preserve" font-family="FiraMono-Bold,Fira Mono" font-weight="bold" font-size="26.0" fill="#B30002" transform="matrix(1.00, 0.00, -0.00, -1.00, 51.2, 73.1)">o</text><text xml:space="preserve" font-family="FiraMono-Bold,Fira Mono" font-weight="bold" font-size="26.0" fill="#B30002" transform="matrix(1.00, 0.00, -0.00, -1.00, 66.8, 73.1)">b</text><text xml:space="preserve" font-family="FiraMono-Bold,Fira Mono" font-weight="bold" font-size="26.0" fill="#B30002" transform="matrix(1.00, 0.00, -0.00, -1.00, 82.4, 73.1)">s</text><text xml:space="preserve" font-family="FiraMono-Bold,Fira Mono" font-weight="bold" font-size="26.0" fill="#B30002" transform="matrix(1.00, 0.00, -0.00, -1.00, 98.0, 73.1)">e</text><text xml:space="preserve" font-family="FiraMono-Bold,Fira Mono" font-weight="bold" font-size="26.0" fill="#B30002" transform="matrix(1.00, 0.00, -0.00, -1.00, 113.6, 73.1)">r</text><text xml:space="preserve" font-family="FiraMono-Bold,Fira Mono" font-weight="bold" font-size="26.0" fill="#B30002" transform="matrix(1.00, 0.00, -0.00, -1.00, 129.2, 73.1)">v</text><text xml:space="preserve" font-family="FiraMono-Bold,Fira Mono" font-weight="bold" font-size="26.0" fill="#B30002" transform="matrix(1.00, 0.00, -0.00, -1.00, 144.8, 73.1)">e</text><text xml:space="preserve" font-family="FiraMono-Bold,Fira Mono" font-weight="bold" font-size="26.0" fill="#000000" transform="matrix(1.00, 0.00, -0.00, -1.00, 160.4, 73.1)"> </text><text xml:space="preserve" font-family="FiraSans-LightItalic,Fira Sans" font-style="italic" font-size="26.0" fill="#000000" transform="matrix(1.00, 0.00, -0.00, -1.00, 176.0, 73.1)">c</text><text xml:space="preserve" font-family="FiraSans-LightItalic,Fira Sans" font-style="italic" font-size="26.0" fill="#000000" transform="matrix(1.00, 0.00, -0.00, -1.00, 187.9, 73.1)">o</text><text xml:space="preserve" font-family="FiraSans-LightItalic,Fira Sans" font-style="italic" font-size="26.0" fill="#000000" transform="matrix(1.00, 0.00, -0.00, -1.00, 202.6, 73.1)">n</text><text xml:space="preserve" font-family="FiraSans-LightItalic,Fira Sans" font-style="italic" font-size="26.0" fill="#000000" transform="matrix(1.00, 0.00, -0.00, -1.00, 217.8, 73.1)">d</text><text xml:space="preserve" font-family="FiraSans-LightItalic,Fira Sans" font-style="italic" font-size="26.0" fill="#000000" transform="matrix(1.00, 0.00, -0.00, -1.00, 232.9, 73.1)">i</text><text xml:space="preserve" font-family="FiraSans-LightItalic,Fira Sans" font-style="italic" font-size="26.0" fill="#000000" transform="matrix(1.00, 0.00, -0.00, -1.00, 239.9, 73.1)">t</text><text xml:space="preserve" font-family="FiraSans-LightItalic,Fira Sans" font-style="italic" font-size="26.0" fill="#000000" transform="matrix(1.00, 0.00, -0.00, -1.00, 248.7, 73.1)">i</text><text xml:space="preserve" font-family="FiraSans-LightItalic,Fira Sans" font-style="italic" font-size="26.0" fill="#000000" transform="matrix(1.00, 0.00, -0.00, -1.00, 255.7, 73.1)">o</text><text xml:space="preserve" font-family="FiraSans-LightItalic,Fira Sans" font-style="italic" font-size="26.0" fill="#000000" transform="matrix(1.00, 0.00, -0.00, -1.00, 270.5, 73.1)">n</text><text xml:space="preserve" font-family="FiraSans-LightItalic,Fira Sans" font-style="italic" font-size="26.0" fill="#000000" transform="matrix(1.00, 0.00, -0.00, -1.00, 285.6, 73.1)"> </text><text xml:space="preserve" font-family="FiraSans-Light,Fira Sans" font-size="26.0" fill="#000000" transform="matrix(1.00, 0.00, -0.00, -1.00, 292.8, 73.1)">o</text><text xml:space="preserve" font-family="FiraSans-Light,Fira Sans" font-size="26.0" fill="#000000" transform="matrix(1.00, 0.00, -0.00, -1.00, 307.6, 73.1)">n</text><text xml:space="preserve" font-family="FiraSans-Light,Fira Sans" font-size="26.0" fill="#000000" transform="matrix(1.00, 0.00, -0.00, -1.00, 322.8, 73.1)"> </text><text xml:space="preserve" font-family="FiraSans-Light,Fira Sans" font-size="26.0" fill="#000000" transform="matrix(1.00, 0.00, -0.00, -1.00, 330.1, 73.1)">v</text><text xml:space="preserve" font-family="FiraSans-Light,Fira Sans" font-size="26.0" fill="#000000" transform="matrix(1.00, 0.00, -0.00, -1.00, 342.3, 73.1)">a</text><text xml:space="preserve" font-family="FiraSans-Light,Fira Sans" font-size="26.0" fill="#000000" transform="matrix(1.00, 0.00, -0.00, -1.00, 356.2, 73.1)">l</text><text xml:space="preserve" font-family="FiraSans-Light,Fira Sans" font-size="26.0" fill="#000000" transform="matrix(1.00, 0.00, -0.00, -1.00, 363.6, 73.1)">u</text><text xml:space="preserve" font-family="FiraSans-Light,Fira Sans" font-size="26.0" fill="#000000" transform="matrix(1.00, 0.00, -0.00, -1.00, 378.7, 73.1)">e</text><text xml:space="preserve" font-family="FiraSans-Light,Fira Sans" font-size="26.0" fill="#000000" transform="matrix(1.00, 0.00, -0.00, -1.00, 392.7, 73.1)"> </text><text xml:space="preserve" font-family="CharterBT-BlackItalic,Charter BT" font-style="italic" font-weight="bold" font-size="26.0" fill="#B30002" transform="matrix(1.00, 0.00, -0.00, -1.00, 399.9, 73.1)">y</text><text xml:space="preserve" font-family="FiraSans-Light,Fira Sans" font-size="26.0" fill="#000000" transform="matrix(1.00, 0.00, -0.00, -1.00, 413.8, 73.1)"> </text><text xml:space="preserve" font-family="FiraMono-Regular,Fira Mono" font-size="26.0" fill="#000000" transform="matrix(1.00, 0.00, -0.00, -1.00, 10.0, 33.1)"> </text><text xml:space="preserve" font-family="FiraMono-Regular,Fira Mono" font-size="26.0" fill="#000000" transform="matrix(1.00, 0.00, -0.00, -1.00, 20.0, 33.1)">3</text><text xml:space="preserve" font-family="FiraMono-Regular,Fira Mono" font-size="26.0" fill="#000000" transform="matrix(1.00, 0.00, -0.00, -1.00, 35.6, 33.1)"> </text><text xml:space="preserve" font-family="FiraMono-Bold,Fira Mono" font-weight="bold" font-size="26.0" fill="#003F7F" transform="matrix(1.00, 0.00, -0.00, -1.00, 51.2, 33.1)">p</text><text xml:space="preserve" font-family="FiraMono-Bold,Fira Mono" font-weight="bold" font-size="26.0" fill="#003F7F" transform="matrix(1.00, 0.00, -0.00, -1.00, 66.8, 33.1)">r</text><text xml:space="preserve" font-family="FiraMono-Bold,Fira Mono" font-weight="bold" font-size="26.0" fill="#003F7F" transform="matrix(1.00, 0.00, -0.00, -1.00, 82.4, 33.1)">e</text><text xml:space="preserve" font-family="FiraMono-Bold,Fira Mono" font-weight="bold" font-size="26.0" fill="#003F7F" transform="matrix(1.00, 0.00, -0.00, -1.00, 98.0, 33.1)">d</text><text xml:space="preserve" font-family="FiraMono-Bold,Fira Mono" font-weight="bold" font-size="26.0" fill="#003F7F" transform="matrix(1.00, 0.00, -0.00, -1.00, 113.6, 33.1)">i</text><text xml:space="preserve" font-family="FiraMono-Bold,Fira Mono" font-weight="bold" font-size="26.0" fill="#003F7F" transform="matrix(1.00, 0.00, -0.00, -1.00, 129.2, 33.1)">c</text><text xml:space="preserve" font-family="FiraMono-Bold,Fira Mono" font-weight="bold" font-size="26.0" fill="#003F7F" transform="matrix(1.00, 0.00, -0.00, -1.00, 144.8, 33.1)">t</text><text xml:space="preserve" font-family="FiraMono-Bold,Fira Mono" font-weight="bold" font-size="26.0" fill="#000000" transform="matrix(1.00, 0.00, -0.00, -1.00, 160.4, 33.1)"> </text><text xml:space="preserve" font-family="FiraSans-LightItalic,Fira Sans" font-style="italic" font-size="26.0" fill="#000000" transform="matrix(1.00, 0.00, -0.00, -1.00, 176.0, 33.1)">o</text><text xml:space="preserve" font-family="FiraSans-LightItalic,Fira Sans" font-style="italic" font-size="26.0" fill="#000000" transform="matrix(1.00, 0.00, -0.00, -1.00, 190.8, 33.1)">u</text><text xml:space="preserve" font-family="FiraSans-LightItalic,Fira Sans" font-style="italic" font-size="26.0" fill="#000000" transform="matrix(1.00, 0.00, -0.00, -1.00, 205.8, 33.1)">t</text><text xml:space="preserve" font-family="FiraSans-LightItalic,Fira Sans" font-style="italic" font-size="26.0" fill="#000000" transform="matrix(1.00, 0.00, -0.00, -1.00, 214.6, 33.1)">p</text><text xml:space="preserve" font-family="FiraSans-LightItalic,Fira Sans" font-style="italic" font-size="26.0" fill="#000000" transform="matrix(1.00, 0.00, -0.00, -1.00, 229.6, 33.1)">u</text><text xml:space="preserve" font-family="FiraSans-LightItalic,Fira Sans" font-style="italic" font-size="26.0" fill="#000000" transform="matrix(1.00, 0.00, -0.00, -1.00, 244.6, 33.1)">t</text><text xml:space="preserve" font-family="FiraSans-Light,Fira Sans" font-size="26.0" fill="#000000" transform="matrix(1.00, 0.00, -0.00, -1.00, 253.4, 33.1)"> </text><text xml:space="preserve" font-family="FiraSans-Light,Fira Sans" font-size="26.0" fill="#000000" transform="matrix(1.00, 0.00, -0.00, -1.00, 260.7, 33.1)">v</text><text xml:space="preserve" font-family="FiraSans-Light,Fira Sans" font-size="26.0" fill="#000000" transform="matrix(1.00, 0.00, -0.00, -1.00, 272.9, 33.1)">a</text><text xml:space="preserve" font-family="FiraSans-Light,Fira Sans" font-size="26.0" fill="#000000" transform="matrix(1.00, 0.00, -0.00, -1.00, 286.8, 33.1)">l</text><text xml:space="preserve" font-family="FiraSans-Light,Fira Sans" font-size="26.0" fill="#000000" transform="matrix(1.00, 0.00, -0.00, -1.00, 294.2, 33.1)">u</text><text xml:space="preserve" font-family="FiraSans-Light,Fira Sans" font-size="26.0" fill="#000000" transform="matrix(1.00, 0.00, -0.00, -1.00, 309.3, 33.1)">e</text><text xml:space="preserve" font-family="FiraSans-Light,Fira Sans" font-size="26.0" fill="#000000" transform="matrix(1.00, 0.00, -0.00, -1.00, 323.3, 33.1)"> </text><text xml:space="preserve" font-family="CharterBT-BlackItalic,Charter BT" font-style="italic" font-weight="bold" font-size="26.0" fill="#003F7F" transform="matrix(1.00, 0.00, -0.00, -1.00, 330.5, 33.1)">f</text><text xml:space="preserve" font-family="FiraSans-Light,Fira Sans" font-size="26.0" fill="#000000" transform="matrix(1.00, 0.00, -0.00, -1.00, 340.2, 33.1)">(</text><text xml:space="preserve" font-family="CharterBT-BlackItalic,Charter BT" font-style="italic" font-weight="bold" font-size="26.0" fill="#54A800" transform="matrix(1.00, 0.00, -0.00, -1.00, 348.6, 33.1)">x</text><text xml:space="preserve" font-family="FiraSans-Light,Fira Sans" font-size="26.0" fill="#000000" transform="matrix(1.00, 0.00, -0.00, -1.00, 363.3, 33.1)">)</text></g></g></g></svg>