<?xml version="1.0" encoding="UTF-8" standalone="no"?><svg xmlns="http://www.w3.org/2000/svg" xmlns:xlink="http://www.w3.org/1999/xlink" clip-rule="evenodd" stroke-miterlimit="10" viewBox="0 0 139 29"><desc>SVG generated by Keynote</desc><defs></defs><g transform="matrix(1.00, 0.00, -0.00, -1.00, 0.0, 29.0)"><text xml:space="preserve" font-family="FiraSans-Medium,Fira Sans" font-size="32.0" fill="#2A4054" transform="matrix(1.00, 0.00, -0.00, -1.00, -0.0, 2.7)">I</text><text xml:space="preserve" font-family="FiraSans-Medium,Fira Sans" font-size="32.0" fill="#2A4054" transform="matrix(1.00, 0.00, -0.00, -1.00, 9.4, 2.7)">n</text><text xml:space="preserve" font-family="FiraSans-Medium,Fira Sans" font-size="32.0" fill="#2A4054" transform="matrix(1.00, 0.00, -0.00, -1.00, 28.0, 2.7)">f</text><text xml:space="preserve" font-family="FiraSans-Medium,Fira Sans" font-size="32.0" fill="#2A4054" transform="matrix(1.00, 0.00, -0.00, -1.00, 38.8, 2.7)">e</text><text xml:space="preserve" font-family="FiraSans-Medium,Fira Sans" font-size="32.0" fill="#2A4054" transform="matrix(1.00, 0.00, -0.00, -1.00, 56.5, 2.7)">r</text><text xml:space="preserve" font-family="FiraSans-Medium,Fira Sans" font-size="32.0" fill="#2A4054" transform="matrix(1.00, 0.00, -0.00, -1.00, 68.7, 2.7)">e</text><text xml:space="preserve" font-family="FiraSans-Medium,Fira Sans" font-size="32.0" fill="#2A4054" transform="matrix(1.00, 0.00, -0.00, -1.00, 86.4, 2.7)">n</text><text xml:space="preserve" font-family="FiraSans-Medium,Fira Sans" font-size="32.0" fill="#2A4054" transform="matrix(1.00, 0.00, -0.00, -1.00, 105.0, 2.7)">c</text><text xml:space="preserve" font-family="FiraSans-Medium,Fira Sans" font-size="32.0" fill="#2A4054" transform="matrix(1.00, 0.00, -0.00, -1.00, 120.0, 2.7)">e</text></g></svg>