<?xml version="1.0" encoding="UTF-8" standalone="no"?><svg xmlns="http://www.w3.org/2000/svg" xmlns:xlink="http://www.w3.org/1999/xlink" clip-rule="evenodd" stroke-miterlimit="10" viewBox="0 0 900 54"><desc>SVG generated by Keynote</desc><defs></defs><g transform="matrix(1.00, 0.00, -0.00, -1.00, 0.0, 54.0)"><text xml:space="preserve" font-family="FiraSans-Light,Fira Sans" font-size="53.4" fill="#20313F" transform="matrix(1.00, 0.00, -0.00, -1.00, -4.7, 12.7)">P</text><text xml:space="preserve" font-family="FiraSans-Light,Fira Sans" font-size="53.4" fill="#20313F" transform="matrix(1.00, 0.00, -0.00, -1.00, 25.8, 12.7)">r</text><text xml:space="preserve" font-family="FiraSans-Light,Fira Sans" font-size="53.4" fill="#20313F" transform="matrix(1.00, 0.00, -0.00, -1.00, 45.1, 12.7)">o</text><text xml:space="preserve" font-family="FiraSans-Light,Fira Sans" font-size="53.4" fill="#20313F" transform="matrix(1.00, 0.00, -0.00, -1.00, 75.6, 12.7)">b</text><text xml:space="preserve" font-family="FiraSans-Light,Fira Sans" font-size="53.4" fill="#20313F" transform="matrix(1.00, 0.00, -0.00, -1.00, 106.7, 12.7)">a</text><text xml:space="preserve" font-family="FiraSans-Light,Fira Sans" font-size="53.4" fill="#20313F" transform="matrix(1.00, 0.00, -0.00, -1.00, 135.3, 12.7)">b</text><text xml:space="preserve" font-family="FiraSans-Light,Fira Sans" font-size="53.4" fill="#20313F" transform="matrix(1.00, 0.00, -0.00, -1.00, 166.3, 12.7)">i</text><text xml:space="preserve" font-family="FiraSans-Light,Fira Sans" font-size="53.4" fill="#20313F" transform="matrix(1.00, 0.00, -0.00, -1.00, 180.7, 12.7)">l</text><text xml:space="preserve" font-family="FiraSans-Light,Fira Sans" font-size="53.4" fill="#20313F" transform="matrix(1.00, 0.00, -0.00, -1.00, 195.9, 12.7)">i</text><text xml:space="preserve" font-family="FiraSans-Light,Fira Sans" font-size="53.4" fill="#20313F" transform="matrix(1.00, 0.00, -0.00, -1.00, 210.3, 12.7)">s</text><text xml:space="preserve" font-family="FiraSans-Light,Fira Sans" font-size="53.4" fill="#20313F" transform="matrix(1.00, 0.00, -0.00, -1.00, 235.1, 12.7)">t</text><text xml:space="preserve" font-family="FiraSans-Light,Fira Sans" font-size="53.4" fill="#20313F" transform="matrix(1.00, 0.00, -0.00, -1.00, 253.3, 12.7)">i</text><text xml:space="preserve" font-family="FiraSans-Light,Fira Sans" font-size="53.4" fill="#20313F" transform="matrix(1.00, 0.00, -0.00, -1.00, 267.7, 12.7)">c</text><text xml:space="preserve" font-family="FiraSans-Light,Fira Sans" font-size="53.4" fill="#20313F" transform="matrix(1.00, 0.00, -0.00, -1.00, 292.8, 12.7)"> </text><text xml:space="preserve" font-family="FiraSans-Light,Fira Sans" font-size="53.4" fill="#20313F" transform="matrix(1.00, 0.00, -0.00, -1.00, 307.7, 12.7)">P</text><text xml:space="preserve" font-family="FiraSans-Light,Fira Sans" font-size="53.4" fill="#20313F" transform="matrix(1.00, 0.00, -0.00, -1.00, 338.1, 12.7)">r</text><text xml:space="preserve" font-family="FiraSans-Light,Fira Sans" font-size="53.4" fill="#20313F" transform="matrix(1.00, 0.00, -0.00, -1.00, 357.5, 12.7)">o</text><text xml:space="preserve" font-family="FiraSans-Light,Fira Sans" font-size="53.4" fill="#20313F" transform="matrix(1.00, 0.00, -0.00, -1.00, 388.0, 12.7)">g</text><text xml:space="preserve" font-family="FiraSans-Light,Fira Sans" font-size="53.4" fill="#20313F" transform="matrix(1.00, 0.00, -0.00, -1.00, 414.8, 12.7)">r</text><text xml:space="preserve" font-family="FiraSans-Light,Fira Sans" font-size="53.4" fill="#20313F" transform="matrix(1.00, 0.00, -0.00, -1.00, 433.7, 12.7)">a</text><text xml:space="preserve" font-family="FiraSans-Light,Fira Sans" font-size="53.4" fill="#20313F" transform="matrix(1.00, 0.00, -0.00, -1.00, 462.3, 12.7)">m</text><text xml:space="preserve" font-family="FiraSans-Light,Fira Sans" font-size="53.4" fill="#20313F" transform="matrix(1.00, 0.00, -0.00, -1.00, 507.9, 12.7)">m</text><text xml:space="preserve" font-family="FiraSans-Light,Fira Sans" font-size="53.4" fill="#20313F" transform="matrix(1.00, 0.00, -0.00, -1.00, 553.4, 12.7)">i</text><text xml:space="preserve" font-family="FiraSans-Light,Fira Sans" font-size="53.4" fill="#20313F" transform="matrix(1.00, 0.00, -0.00, -1.00, 567.8, 12.7)">n</text><text xml:space="preserve" font-family="FiraSans-Light,Fira Sans" font-size="53.4" fill="#20313F" transform="matrix(1.00, 0.00, -0.00, -1.00, 599.0, 12.7)">g</text><text xml:space="preserve" font-family="FiraSans-Light,Fira Sans" font-size="53.4" fill="#20313F" transform="matrix(1.00, 0.00, -0.00, -1.00, 625.9, 12.7)"> </text><text xml:space="preserve" font-family="FiraSans-Light,Fira Sans" font-size="53.4" fill="#20313F" transform="matrix(1.00, 0.00, -0.00, -1.00, 640.8, 12.7)">i</text><text xml:space="preserve" font-family="FiraSans-Light,Fira Sans" font-size="53.4" fill="#20313F" transform="matrix(1.00, 0.00, -0.00, -1.00, 655.2, 12.7)">n</text><text xml:space="preserve" font-family="FiraSans-Light,Fira Sans" font-size="53.4" fill="#20313F" transform="matrix(1.00, 0.00, -0.00, -1.00, 686.4, 12.7)"> </text><text xml:space="preserve" font-family="FiraSans-Light,Fira Sans" font-size="53.4" fill="#20313F" transform="matrix(1.00, 0.00, -0.00, -1.00, 701.3, 12.7)">A</text><text xml:space="preserve" font-family="FiraSans-Light,Fira Sans" font-size="53.4" fill="#20313F" transform="matrix(1.00, 0.00, -0.00, -1.00, 731.4, 12.7)">n</text><text xml:space="preserve" font-family="FiraSans-Light,Fira Sans" font-size="53.4" fill="#20313F" transform="matrix(1.00, 0.00, -0.00, -1.00, 762.6, 12.7)">g</text><text xml:space="preserve" font-family="FiraSans-Light,Fira Sans" font-size="53.4" fill="#20313F" transform="matrix(1.00, 0.00, -0.00, -1.00, 789.5, 12.7)">l</text><text xml:space="preserve" font-family="FiraSans-Light,Fira Sans" font-size="53.4" fill="#20313F" transform="matrix(1.00, 0.00, -0.00, -1.00, 804.7, 12.7)">i</text><text xml:space="preserve" font-family="FiraSans-Light,Fira Sans" font-size="53.4" fill="#20313F" transform="matrix(1.00, 0.00, -0.00, -1.00, 819.1, 12.7)">c</text><text xml:space="preserve" font-family="FiraSans-Light,Fira Sans" font-size="53.4" fill="#20313F" transform="matrix(1.00, 0.00, -0.00, -1.00, 844.1, 12.7)">a</text><text xml:space="preserve" font-family="FiraSans-Light,Fira Sans" font-size="53.4" fill="#20313F" transform="matrix(1.00, 0.00, -0.00, -1.00, 872.7, 12.7)">n</text></g></svg>