<?xml version="1.0" encoding="UTF-8" standalone="no"?><svg xmlns="http://www.w3.org/2000/svg" xmlns:xlink="http://www.w3.org/1999/xlink" clip-rule="evenodd" stroke-miterlimit="10" viewBox="0 0 445 325"><desc>SVG generated by Keynote</desc><defs></defs><g transform="matrix(1.00, 0.00, -0.00, -1.00, 0.0, 325.0)"><image xlink:href="../../ACDFC217-1253-4982-A167-47D212B486E1/assets/564A5F90138E48DCC1B1236AAE7FE6C9.png" width="441.00" height="318.00" transform="matrix(1.00, 0.00, -0.00, -1.00, 2.0, 319.8)" opacity="0.50"></image><path d="M 5.0 319.0 L 440.0 319.0 L 440.0 6.0 L 5.0 6.0 Z M 5.0 318.8 " fill="#FEFFFE"></path><g><clipPath id="clip0x6180066b7340"><path d="M -1.2 5.6 L 446.5 5.6 L 446.5 318.9 L -1.2 318.9 Z M -1.2 5.6 "></path></clipPath><g clip-path="url(#clip0x6180066b7340)"><text xml:space="preserve" font-family="FiraMono-Regular,Fira Mono" font-size="21.0" fill="#323232" transform="matrix(1.00, 0.00, -0.00, -1.00, 7.0, 288.3)">(</text><text xml:space="preserve" font-family="FiraMono-Regular,Fira Mono" font-size="21.0" fill="#0085B3" transform="matrix(1.00, 0.00, -0.00, -1.00, 19.6, 288.3)">d</text><text xml:space="preserve" font-family="FiraMono-Regular,Fira Mono" font-size="21.0" fill="#0085B3" transform="matrix(1.00, 0.00, -0.00, -1.00, 32.2, 288.3)">e</text><text xml:space="preserve" font-family="FiraMono-Regular,Fira Mono" font-size="21.0" fill="#0085B3" transform="matrix(1.00, 0.00, -0.00, -1.00, 44.8, 288.3)">f</text><text xml:space="preserve" font-family="FiraMono-Regular,Fira Mono" font-size="21.0" fill="#0085B3" transform="matrix(1.00, 0.00, -0.00, -1.00, 57.4, 288.3)">q</text><text xml:space="preserve" font-family="FiraMono-Regular,Fira Mono" font-size="21.0" fill="#0085B3" transform="matrix(1.00, 0.00, -0.00, -1.00, 70.0, 288.3)">u</text><text xml:space="preserve" font-family="FiraMono-Regular,Fira Mono" font-size="21.0" fill="#0085B3" transform="matrix(1.00, 0.00, -0.00, -1.00, 82.6, 288.3)">e</text><text xml:space="preserve" font-family="FiraMono-Regular,Fira Mono" font-size="21.0" fill="#0085B3" transform="matrix(1.00, 0.00, -0.00, -1.00, 95.2, 288.3)">r</text><text xml:space="preserve" font-family="FiraMono-Regular,Fira Mono" font-size="21.0" fill="#0085B3" transform="matrix(1.00, 0.00, -0.00, -1.00, 107.8, 288.3)">y</text><text xml:space="preserve" font-family="FiraMono-Regular,Fira Mono" font-size="21.0" fill="#0085B3" transform="matrix(1.00, 0.00, -0.00, -1.00, 120.4, 288.3)"> </text><text xml:space="preserve" font-family="FiraMono-Regular,Fira Mono" font-size="21.0" fill="#323232" transform="matrix(1.00, 0.00, -0.00, -1.00, 133.0, 288.3)">l</text><text xml:space="preserve" font-family="FiraMono-Regular,Fira Mono" font-size="21.0" fill="#323232" transform="matrix(1.00, 0.00, -0.00, -1.00, 145.6, 288.3)">i</text><text xml:space="preserve" font-family="FiraMono-Regular,Fira Mono" font-size="21.0" fill="#323232" transform="matrix(1.00, 0.00, -0.00, -1.00, 158.2, 288.3)">n</text><text xml:space="preserve" font-family="FiraMono-Regular,Fira Mono" font-size="21.0" fill="#323232" transform="matrix(1.00, 0.00, -0.00, -1.00, 170.8, 288.3)">-</text><text xml:space="preserve" font-family="FiraMono-Regular,Fira Mono" font-size="21.0" fill="#323232" transform="matrix(1.00, 0.00, -0.00, -1.00, 183.4, 288.3)">r</text><text xml:space="preserve" font-family="FiraMono-Regular,Fira Mono" font-size="21.0" fill="#323232" transform="matrix(1.00, 0.00, -0.00, -1.00, 196.0, 288.3)">e</text><text xml:space="preserve" font-family="FiraMono-Regular,Fira Mono" font-size="21.0" fill="#323232" transform="matrix(1.00, 0.00, -0.00, -1.00, 208.6, 288.3)">g</text><text xml:space="preserve" font-family="FiraMono-Regular,Fira Mono" font-size="21.0" fill="#323232" transform="matrix(1.00, 0.00, -0.00, -1.00, 221.2, 288.3)"> </text><text xml:space="preserve" font-family="FiraMono-Regular,Fira Mono" font-size="21.0" fill="#323232" transform="matrix(1.00, 0.00, -0.00, -1.00, 233.8, 288.3)">[</text><text xml:space="preserve" font-family="FiraMono-Regular,Fira Mono" font-size="21.0" fill="#333333" transform="matrix(1.00, 0.00, -0.00, -1.00, 246.4, 288.3)">x</text><text xml:space="preserve" font-family="FiraMono-Regular,Fira Mono" font-size="21.0" fill="#333333" transform="matrix(1.00, 0.00, -0.00, -1.00, 259.0, 288.3)">-</text><text xml:space="preserve" font-family="FiraMono-Regular,Fira Mono" font-size="21.0" fill="#333333" transform="matrix(1.00, 0.00, -0.00, -1.00, 271.6, 288.3)">v</text><text xml:space="preserve" font-family="FiraMono-Regular,Fira Mono" font-size="21.0" fill="#333333" transform="matrix(1.00, 0.00, -0.00, -1.00, 284.2, 288.3)">a</text><text xml:space="preserve" font-family="FiraMono-Regular,Fira Mono" font-size="21.0" fill="#333333" transform="matrix(1.00, 0.00, -0.00, -1.00, 296.8, 288.3)">l</text><text xml:space="preserve" font-family="FiraMono-Regular,Fira Mono" font-size="21.0" fill="#333333" transform="matrix(1.00, 0.00, -0.00, -1.00, 309.4, 288.3)">s</text><text xml:space="preserve" font-family="FiraMono-Regular,Fira Mono" font-size="21.0" fill="#333333" transform="matrix(1.00, 0.00, -0.00, -1.00, 322.0, 288.3)"> </text><text xml:space="preserve" font-family="FiraMono-Regular,Fira Mono" font-size="21.0" fill="#333333" transform="matrix(1.00, 0.00, -0.00, -1.00, 334.6, 288.3)">y</text><text xml:space="preserve" font-family="FiraMono-Regular,Fira Mono" font-size="21.0" fill="#333333" transform="matrix(1.00, 0.00, -0.00, -1.00, 347.2, 288.3)">-</text><text xml:space="preserve" font-family="FiraMono-Regular,Fira Mono" font-size="21.0" fill="#333333" transform="matrix(1.00, 0.00, -0.00, -1.00, 359.8, 288.3)">v</text><text xml:space="preserve" font-family="FiraMono-Regular,Fira Mono" font-size="21.0" fill="#333333" transform="matrix(1.00, 0.00, -0.00, -1.00, 372.4, 288.3)">a</text><text xml:space="preserve" font-family="FiraMono-Regular,Fira Mono" font-size="21.0" fill="#333333" transform="matrix(1.00, 0.00, -0.00, -1.00, 385.0, 288.3)">l</text><text xml:space="preserve" font-family="FiraMono-Regular,Fira Mono" font-size="21.0" fill="#333333" transform="matrix(1.00, 0.00, -0.00, -1.00, 397.6, 288.3)">s</text><text xml:space="preserve" font-family="FiraMono-Regular,Fira Mono" font-size="21.0" fill="#323232" transform="matrix(1.00, 0.00, -0.00, -1.00, 410.2, 288.3)">]</text><text xml:space="preserve" font-family="FiraMono-Regular,Fira Mono" font-size="21.0" fill="#0085B3" transform="matrix(1.00, 0.00, -0.00, -1.00, 422.8, 288.3)"> </text><text xml:space="preserve" font-family="FiraMono-Regular,Fira Mono" font-size="21.0" fill="#0085B3" transform="matrix(1.00, 0.00, -0.00, -1.00, 7.0, 255.3)"> </text><text xml:space="preserve" font-family="FiraMono-Regular,Fira Mono" font-size="21.0" fill="#323232" transform="matrix(1.00, 0.00, -0.00, -1.00, 19.6, 255.3)">(</text><text xml:space="preserve" font-family="FiraMono-Regular,Fira Mono" font-size="21.0" fill="#0085B3" transform="matrix(1.00, 0.00, -0.00, -1.00, 32.2, 255.3)">l</text><text xml:space="preserve" font-family="FiraMono-Regular,Fira Mono" font-size="21.0" fill="#0085B3" transform="matrix(1.00, 0.00, -0.00, -1.00, 44.8, 255.3)">e</text><text xml:space="preserve" font-family="FiraMono-Regular,Fira Mono" font-size="21.0" fill="#0085B3" transform="matrix(1.00, 0.00, -0.00, -1.00, 57.4, 255.3)">t</text><text xml:space="preserve" font-family="FiraMono-Regular,Fira Mono" font-size="21.0" fill="#323232" transform="matrix(1.00, 0.00, -0.00, -1.00, 70.0, 255.3)"> </text><text xml:space="preserve" font-family="FiraMono-Regular,Fira Mono" font-size="21.0" fill="#323232" transform="matrix(1.00, 0.00, -0.00, -1.00, 82.6, 255.3)">[</text><text xml:space="preserve" font-family="FiraMono-Regular,Fira Mono" font-size="21.0" fill="#333333" transform="matrix(1.00, 0.00, -0.00, -1.00, 95.2, 255.3)">a</text><text xml:space="preserve" font-family="FiraMono-Regular,Fira Mono" font-size="21.0" fill="#323232" transform="matrix(1.00, 0.00, -0.00, -1.00, 107.8, 255.3)"> </text><text xml:space="preserve" font-family="FiraMono-Regular,Fira Mono" font-size="21.0" fill="#323232" transform="matrix(1.00, 0.00, -0.00, -1.00, 120.4, 255.3)">(</text><text xml:space="preserve" font-family="FiraMono-Bold,Fira Mono" font-weight="bold" font-size="21.0" fill="#54A800" transform="matrix(1.00, 0.00, -0.00, -1.00, 133.0, 255.3)">s</text><text xml:space="preserve" font-family="FiraMono-Bold,Fira Mono" font-weight="bold" font-size="21.0" fill="#54A800" transform="matrix(1.00, 0.00, -0.00, -1.00, 145.6, 255.3)">a</text><text xml:space="preserve" font-family="FiraMono-Bold,Fira Mono" font-weight="bold" font-size="21.0" fill="#54A800" transform="matrix(1.00, 0.00, -0.00, -1.00, 158.2, 255.3)">m</text><text xml:space="preserve" font-family="FiraMono-Bold,Fira Mono" font-weight="bold" font-size="21.0" fill="#54A800" transform="matrix(1.00, 0.00, -0.00, -1.00, 170.8, 255.3)">p</text><text xml:space="preserve" font-family="FiraMono-Bold,Fira Mono" font-weight="bold" font-size="21.0" fill="#54A800" transform="matrix(1.00, 0.00, -0.00, -1.00, 183.4, 255.3)">l</text><text xml:space="preserve" font-family="FiraMono-Bold,Fira Mono" font-weight="bold" font-size="21.0" fill="#54A800" transform="matrix(1.00, 0.00, -0.00, -1.00, 196.0, 255.3)">e</text><text xml:space="preserve" font-family="FiraMono-Regular,Fira Mono" font-size="21.0" fill="#323232" transform="matrix(1.00, 0.00, -0.00, -1.00, 208.6, 255.3)"> </text><text xml:space="preserve" font-family="FiraMono-Regular,Fira Mono" font-size="21.0" fill="#323232" transform="matrix(1.00, 0.00, -0.00, -1.00, 221.2, 255.3)">(</text><text xml:space="preserve" font-family="FiraMono-Regular,Fira Mono" font-size="21.0" fill="#0085B3" transform="matrix(1.00, 0.00, -0.00, -1.00, 233.8, 255.3)">n</text><text xml:space="preserve" font-family="FiraMono-Regular,Fira Mono" font-size="21.0" fill="#0085B3" transform="matrix(1.00, 0.00, -0.00, -1.00, 246.4, 255.3)">o</text><text xml:space="preserve" font-family="FiraMono-Regular,Fira Mono" font-size="21.0" fill="#0085B3" transform="matrix(1.00, 0.00, -0.00, -1.00, 259.0, 255.3)">r</text><text xml:space="preserve" font-family="FiraMono-Regular,Fira Mono" font-size="21.0" fill="#0085B3" transform="matrix(1.00, 0.00, -0.00, -1.00, 271.6, 255.3)">m</text><text xml:space="preserve" font-family="FiraMono-Regular,Fira Mono" font-size="21.0" fill="#0085B3" transform="matrix(1.00, 0.00, -0.00, -1.00, 284.2, 255.3)">a</text><text xml:space="preserve" font-family="FiraMono-Regular,Fira Mono" font-size="21.0" fill="#0085B3" transform="matrix(1.00, 0.00, -0.00, -1.00, 296.8, 255.3)">l</text><text xml:space="preserve" font-family="FiraMono-Regular,Fira Mono" font-size="21.0" fill="#0085B3" transform="matrix(1.00, 0.00, -0.00, -1.00, 309.4, 255.3)"> </text><text xml:space="preserve" font-family="FiraMono-Regular,Fira Mono" font-size="21.0" fill="#0085B3" transform="matrix(1.00, 0.00, -0.00, -1.00, 322.0, 255.3)">0</text><text xml:space="preserve" font-family="FiraMono-Regular,Fira Mono" font-size="21.0" fill="#0085B3" transform="matrix(1.00, 0.00, -0.00, -1.00, 334.6, 255.3)"> </text><text xml:space="preserve" font-family="FiraMono-Regular,Fira Mono" font-size="21.0" fill="#0085B3" transform="matrix(1.00, 0.00, -0.00, -1.00, 347.2, 255.3)">1</text><text xml:space="preserve" font-family="FiraMono-Regular,Fira Mono" font-size="21.0" fill="#323232" transform="matrix(1.00, 0.00, -0.00, -1.00, 359.8, 255.3)">)</text><text xml:space="preserve" font-family="FiraMono-Regular,Fira Mono" font-size="21.0" fill="#323232" transform="matrix(1.00, 0.00, -0.00, -1.00, 372.4, 255.3)">)</text><text xml:space="preserve" font-family="Monaco,Monaco" font-size="21.0" fill="#323232" transform="matrix(1.00, 0.00, -0.00, -1.00, 385.0, 255.3)"> </text><text xml:space="preserve" font-family="FiraMono-Regular,Fira Mono" font-size="21.0" fill="#323232" transform="matrix(1.00, 0.00, -0.00, -1.00, 7.0, 222.3)"> </text><text xml:space="preserve" font-family="FiraMono-Regular,Fira Mono" font-size="21.0" fill="#323232" transform="matrix(1.00, 0.00, -0.00, -1.00, 19.6, 222.3)"> </text><text xml:space="preserve" font-family="FiraMono-Regular,Fira Mono" font-size="21.0" fill="#323232" transform="matrix(1.00, 0.00, -0.00, -1.00, 32.2, 222.3)"> </text><text xml:space="preserve" font-family="FiraMono-Regular,Fira Mono" font-size="21.0" fill="#323232" transform="matrix(1.00, 0.00, -0.00, -1.00, 44.8, 222.3)"> </text><text xml:space="preserve" font-family="FiraMono-Regular,Fira Mono" font-size="21.0" fill="#323232" transform="matrix(1.00, 0.00, -0.00, -1.00, 57.4, 222.3)"> </text><text xml:space="preserve" font-family="FiraMono-Regular,Fira Mono" font-size="21.0" fill="#323232" transform="matrix(1.00, 0.00, -0.00, -1.00, 70.0, 222.3)"> </text><text xml:space="preserve" font-family="FiraMono-Regular,Fira Mono" font-size="21.0" fill="#323232" transform="matrix(1.00, 0.00, -0.00, -1.00, 82.6, 222.3)"> </text><text xml:space="preserve" font-family="FiraMono-Regular,Fira Mono" font-size="21.0" fill="#333333" transform="matrix(1.00, 0.00, -0.00, -1.00, 95.2, 222.3)">b</text><text xml:space="preserve" font-family="FiraMono-Regular,Fira Mono" font-size="21.0" fill="#323232" transform="matrix(1.00, 0.00, -0.00, -1.00, 107.8, 222.3)"> </text><text xml:space="preserve" font-family="FiraMono-Regular,Fira Mono" font-size="21.0" fill="#323232" transform="matrix(1.00, 0.00, -0.00, -1.00, 120.4, 222.3)">(</text><text xml:space="preserve" font-family="FiraMono-Bold,Fira Mono" font-weight="bold" font-size="21.0" fill="#54A800" transform="matrix(1.00, 0.00, -0.00, -1.00, 133.0, 222.3)">s</text><text xml:space="preserve" font-family="FiraMono-Bold,Fira Mono" font-weight="bold" font-size="21.0" fill="#54A800" transform="matrix(1.00, 0.00, -0.00, -1.00, 145.6, 222.3)">a</text><text xml:space="preserve" font-family="FiraMono-Bold,Fira Mono" font-weight="bold" font-size="21.0" fill="#54A800" transform="matrix(1.00, 0.00, -0.00, -1.00, 158.2, 222.3)">m</text><text xml:space="preserve" font-family="FiraMono-Bold,Fira Mono" font-weight="bold" font-size="21.0" fill="#54A800" transform="matrix(1.00, 0.00, -0.00, -1.00, 170.8, 222.3)">p</text><text xml:space="preserve" font-family="FiraMono-Bold,Fira Mono" font-weight="bold" font-size="21.0" fill="#54A800" transform="matrix(1.00, 0.00, -0.00, -1.00, 183.4, 222.3)">l</text><text xml:space="preserve" font-family="FiraMono-Bold,Fira Mono" font-weight="bold" font-size="21.0" fill="#54A800" transform="matrix(1.00, 0.00, -0.00, -1.00, 196.0, 222.3)">e</text><text xml:space="preserve" font-family="FiraMono-Regular,Fira Mono" font-size="21.0" fill="#323232" transform="matrix(1.00, 0.00, -0.00, -1.00, 208.6, 222.3)"> </text><text xml:space="preserve" font-family="FiraMono-Regular,Fira Mono" font-size="21.0" fill="#323232" transform="matrix(1.00, 0.00, -0.00, -1.00, 221.2, 222.3)">(</text><text xml:space="preserve" font-family="FiraMono-Regular,Fira Mono" font-size="21.0" fill="#0085B3" transform="matrix(1.00, 0.00, -0.00, -1.00, 233.8, 222.3)">n</text><text xml:space="preserve" font-family="FiraMono-Regular,Fira Mono" font-size="21.0" fill="#0085B3" transform="matrix(1.00, 0.00, -0.00, -1.00, 246.4, 222.3)">o</text><text xml:space="preserve" font-family="FiraMono-Regular,Fira Mono" font-size="21.0" fill="#0085B3" transform="matrix(1.00, 0.00, -0.00, -1.00, 259.0, 222.3)">r</text><text xml:space="preserve" font-family="FiraMono-Regular,Fira Mono" font-size="21.0" fill="#0085B3" transform="matrix(1.00, 0.00, -0.00, -1.00, 271.6, 222.3)">m</text><text xml:space="preserve" font-family="FiraMono-Regular,Fira Mono" font-size="21.0" fill="#0085B3" transform="matrix(1.00, 0.00, -0.00, -1.00, 284.2, 222.3)">a</text><text xml:space="preserve" font-family="FiraMono-Regular,Fira Mono" font-size="21.0" fill="#0085B3" transform="matrix(1.00, 0.00, -0.00, -1.00, 296.8, 222.3)">l</text><text xml:space="preserve" font-family="FiraMono-Regular,Fira Mono" font-size="21.0" fill="#0085B3" transform="matrix(1.00, 0.00, -0.00, -1.00, 309.4, 222.3)"> </text><text xml:space="preserve" font-family="FiraMono-Regular,Fira Mono" font-size="21.0" fill="#0085B3" transform="matrix(1.00, 0.00, -0.00, -1.00, 322.0, 222.3)">0</text><text xml:space="preserve" font-family="FiraMono-Regular,Fira Mono" font-size="21.0" fill="#0085B3" transform="matrix(1.00, 0.00, -0.00, -1.00, 334.6, 222.3)"> </text><text xml:space="preserve" font-family="FiraMono-Regular,Fira Mono" font-size="21.0" fill="#0085B3" transform="matrix(1.00, 0.00, -0.00, -1.00, 347.2, 222.3)">1</text><text xml:space="preserve" font-family="FiraMono-Regular,Fira Mono" font-size="21.0" fill="#323232" transform="matrix(1.00, 0.00, -0.00, -1.00, 359.8, 222.3)">)</text><text xml:space="preserve" font-family="FiraMono-Regular,Fira Mono" font-size="21.0" fill="#323232" transform="matrix(1.00, 0.00, -0.00, -1.00, 372.4, 222.3)">)</text><text xml:space="preserve" font-family="FiraMono-Regular,Fira Mono" font-size="21.0" fill="#323232" transform="matrix(1.00, 0.00, -0.00, -1.00, 385.0, 222.3)"> </text><text xml:space="preserve" font-family="FiraMono-Regular,Fira Mono" font-size="21.0" fill="#323232" transform="matrix(1.00, 0.00, -0.00, -1.00, 7.0, 189.3)"> </text><text xml:space="preserve" font-family="FiraMono-Regular,Fira Mono" font-size="21.0" fill="#323232" transform="matrix(1.00, 0.00, -0.00, -1.00, 19.6, 189.3)"> </text><text xml:space="preserve" font-family="FiraMono-Regular,Fira Mono" font-size="21.0" fill="#323232" transform="matrix(1.00, 0.00, -0.00, -1.00, 32.2, 189.3)"> </text><text xml:space="preserve" font-family="FiraMono-Regular,Fira Mono" font-size="21.0" fill="#323232" transform="matrix(1.00, 0.00, -0.00, -1.00, 44.8, 189.3)"> </text><text xml:space="preserve" font-family="FiraMono-Regular,Fira Mono" font-size="21.0" fill="#323232" transform="matrix(1.00, 0.00, -0.00, -1.00, 57.4, 189.3)"> </text><text xml:space="preserve" font-family="FiraMono-Regular,Fira Mono" font-size="21.0" fill="#323232" transform="matrix(1.00, 0.00, -0.00, -1.00, 70.0, 189.3)"> </text><text xml:space="preserve" font-family="FiraMono-Regular,Fira Mono" font-size="21.0" fill="#323232" transform="matrix(1.00, 0.00, -0.00, -1.00, 82.6, 189.3)"> </text><text xml:space="preserve" font-family="FiraMono-Regular,Fira Mono" font-size="21.0" fill="#333333" transform="matrix(1.00, 0.00, -0.00, -1.00, 95.2, 189.3)">f</text><text xml:space="preserve" font-family="FiraMono-Regular,Fira Mono" font-size="21.0" fill="#323232" transform="matrix(1.00, 0.00, -0.00, -1.00, 107.8, 189.3)"> </text><text xml:space="preserve" font-family="FiraMono-Regular,Fira Mono" font-size="21.0" fill="#323232" transform="matrix(1.00, 0.00, -0.00, -1.00, 120.4, 189.3)">(</text><text xml:space="preserve" font-family="FiraMono-Regular,Fira Mono" font-size="21.0" fill="#0085B3" transform="matrix(1.00, 0.00, -0.00, -1.00, 133.0, 189.3)">f</text><text xml:space="preserve" font-family="FiraMono-Regular,Fira Mono" font-size="21.0" fill="#0085B3" transform="matrix(1.00, 0.00, -0.00, -1.00, 145.6, 189.3)">n</text><text xml:space="preserve" font-family="FiraMono-Regular,Fira Mono" font-size="21.0" fill="#323232" transform="matrix(1.00, 0.00, -0.00, -1.00, 158.2, 189.3)"> </text><text xml:space="preserve" font-family="FiraMono-Regular,Fira Mono" font-size="21.0" fill="#323232" transform="matrix(1.00, 0.00, -0.00, -1.00, 170.8, 189.3)">[</text><text xml:space="preserve" font-family="FiraMono-Regular,Fira Mono" font-size="21.0" fill="#333333" transform="matrix(1.00, 0.00, -0.00, -1.00, 183.4, 189.3)">x</text><text xml:space="preserve" font-family="FiraMono-Regular,Fira Mono" font-size="21.0" fill="#323232" transform="matrix(1.00, 0.00, -0.00, -1.00, 196.0, 189.3)">]</text><text xml:space="preserve" font-family="FiraMono-Regular,Fira Mono" font-size="21.0" fill="#323232" transform="matrix(1.00, 0.00, -0.00, -1.00, 208.6, 189.3)"> </text><text xml:space="preserve" font-family="FiraMono-Regular,Fira Mono" font-size="21.0" fill="#323232" transform="matrix(1.00, 0.00, -0.00, -1.00, 221.2, 189.3)">(</text><text xml:space="preserve" font-family="FiraMono-Regular,Fira Mono" font-size="21.0" fill="#0085B3" transform="matrix(1.00, 0.00, -0.00, -1.00, 233.8, 189.3)">+</text><text xml:space="preserve" font-family="FiraMono-Regular,Fira Mono" font-size="21.0" fill="#323232" transform="matrix(1.00, 0.00, -0.00, -1.00, 246.4, 189.3)"> </text><text xml:space="preserve" font-family="FiraMono-Regular,Fira Mono" font-size="21.0" fill="#323232" transform="matrix(1.00, 0.00, -0.00, -1.00, 259.0, 189.3)">(</text><text xml:space="preserve" font-family="FiraMono-Regular,Fira Mono" font-size="21.0" fill="#0085B3" transform="matrix(1.00, 0.00, -0.00, -1.00, 271.6, 189.3)">*</text><text xml:space="preserve" font-family="FiraMono-Regular,Fira Mono" font-size="21.0" fill="#323232" transform="matrix(1.00, 0.00, -0.00, -1.00, 284.2, 189.3)"> </text><text xml:space="preserve" font-family="FiraMono-Regular,Fira Mono" font-size="21.0" fill="#333333" transform="matrix(1.00, 0.00, -0.00, -1.00, 296.8, 189.3)">a</text><text xml:space="preserve" font-family="FiraMono-Regular,Fira Mono" font-size="21.0" fill="#333333" transform="matrix(1.00, 0.00, -0.00, -1.00, 309.4, 189.3)"> </text><text xml:space="preserve" font-family="FiraMono-Regular,Fira Mono" font-size="21.0" fill="#333333" transform="matrix(1.00, 0.00, -0.00, -1.00, 322.0, 189.3)">x</text><text xml:space="preserve" font-family="FiraMono-Regular,Fira Mono" font-size="21.0" fill="#323232" transform="matrix(1.00, 0.00, -0.00, -1.00, 334.6, 189.3)">)</text><text xml:space="preserve" font-family="FiraMono-Regular,Fira Mono" font-size="21.0" fill="#323232" transform="matrix(1.00, 0.00, -0.00, -1.00, 347.2, 189.3)"> </text><text xml:space="preserve" font-family="FiraMono-Regular,Fira Mono" font-size="21.0" fill="#333333" transform="matrix(1.00, 0.00, -0.00, -1.00, 359.8, 189.3)">b</text><text xml:space="preserve" font-family="FiraMono-Regular,Fira Mono" font-size="21.0" fill="#323232" transform="matrix(1.00, 0.00, -0.00, -1.00, 372.4, 189.3)">)</text><text xml:space="preserve" font-family="FiraMono-Regular,Fira Mono" font-size="21.0" fill="#323232" transform="matrix(1.00, 0.00, -0.00, -1.00, 385.0, 189.3)">)</text><text xml:space="preserve" font-family="FiraMono-Regular,Fira Mono" font-size="21.0" fill="#323232" transform="matrix(1.00, 0.00, -0.00, -1.00, 397.6, 189.3)">]</text><text xml:space="preserve" font-family="FiraMono-Regular,Fira Mono" font-size="21.0" fill="#323232" transform="matrix(1.00, 0.00, -0.00, -1.00, 410.2, 189.3)"> </text><text xml:space="preserve" font-family="FiraMono-Regular,Fira Mono" font-size="21.0" fill="#323232" transform="matrix(1.00, 0.00, -0.00, -1.00, 7.0, 156.3)"> </text><text xml:space="preserve" font-family="FiraMono-Regular,Fira Mono" font-size="21.0" fill="#323232" transform="matrix(1.00, 0.00, -0.00, -1.00, 19.6, 156.3)"> </text><text xml:space="preserve" font-family="FiraMono-Regular,Fira Mono" font-size="21.0" fill="#323232" transform="matrix(1.00, 0.00, -0.00, -1.00, 32.2, 156.3)">(</text><text xml:space="preserve" font-family="FiraMono-Regular,Fira Mono" font-size="21.0" fill="#0085B3" transform="matrix(1.00, 0.00, -0.00, -1.00, 44.8, 156.3)">m</text><text xml:space="preserve" font-family="FiraMono-Regular,Fira Mono" font-size="21.0" fill="#0085B3" transform="matrix(1.00, 0.00, -0.00, -1.00, 57.4, 156.3)">a</text><text xml:space="preserve" font-family="FiraMono-Regular,Fira Mono" font-size="21.0" fill="#0085B3" transform="matrix(1.00, 0.00, -0.00, -1.00, 70.0, 156.3)">p</text><text xml:space="preserve" font-family="FiraMono-Regular,Fira Mono" font-size="21.0" fill="#0085B3" transform="matrix(1.00, 0.00, -0.00, -1.00, 82.6, 156.3)"> </text><text xml:space="preserve" font-family="FiraMono-Regular,Fira Mono" font-size="21.0" fill="#323232" transform="matrix(1.00, 0.00, -0.00, -1.00, 95.2, 156.3)">(</text><text xml:space="preserve" font-family="FiraMono-Regular,Fira Mono" font-size="21.0" fill="#0085B3" transform="matrix(1.00, 0.00, -0.00, -1.00, 107.8, 156.3)">f</text><text xml:space="preserve" font-family="FiraMono-Regular,Fira Mono" font-size="21.0" fill="#0085B3" transform="matrix(1.00, 0.00, -0.00, -1.00, 120.4, 156.3)">n</text><text xml:space="preserve" font-family="FiraMono-Regular,Fira Mono" font-size="21.0" fill="#323232" transform="matrix(1.00, 0.00, -0.00, -1.00, 133.0, 156.3)"> </text><text xml:space="preserve" font-family="FiraMono-Regular,Fira Mono" font-size="21.0" fill="#323232" transform="matrix(1.00, 0.00, -0.00, -1.00, 145.6, 156.3)">[</text><text xml:space="preserve" font-family="FiraMono-Regular,Fira Mono" font-size="21.0" fill="#333333" transform="matrix(1.00, 0.00, -0.00, -1.00, 158.2, 156.3)">x</text><text xml:space="preserve" font-family="FiraMono-Regular,Fira Mono" font-size="21.0" fill="#333333" transform="matrix(1.00, 0.00, -0.00, -1.00, 170.8, 156.3)"> </text><text xml:space="preserve" font-family="FiraMono-Regular,Fira Mono" font-size="21.0" fill="#333333" transform="matrix(1.00, 0.00, -0.00, -1.00, 183.4, 156.3)">y</text><text xml:space="preserve" font-family="FiraMono-Regular,Fira Mono" font-size="21.0" fill="#323232" transform="matrix(1.00, 0.00, -0.00, -1.00, 196.0, 156.3)">]</text><text xml:space="preserve" font-family="FiraMono-Regular,Fira Mono" font-size="21.0" fill="#0085B3" transform="matrix(1.00, 0.00, -0.00, -1.00, 208.6, 156.3)"> </text><text xml:space="preserve" font-family="FiraMono-Regular,Fira Mono" font-size="21.0" fill="#0085B3" transform="matrix(1.00, 0.00, -0.00, -1.00, 7.0, 123.3)"> </text><text xml:space="preserve" font-family="FiraMono-Regular,Fira Mono" font-size="21.0" fill="#0085B3" transform="matrix(1.00, 0.00, -0.00, -1.00, 43.0, 123.3)"> </text><text xml:space="preserve" font-family="FiraMono-Regular,Fira Mono" font-size="21.0" fill="#0085B3" transform="matrix(1.00, 0.00, -0.00, -1.00, 55.6, 123.3)"> </text><text xml:space="preserve" font-family="FiraMono-Regular,Fira Mono" font-size="21.0" fill="#0085B3" transform="matrix(1.00, 0.00, -0.00, -1.00, 68.2, 123.3)"> </text><text xml:space="preserve" font-family="FiraMono-Regular,Fira Mono" font-size="21.0" fill="#0085B3" transform="matrix(1.00, 0.00, -0.00, -1.00, 80.8, 123.3)"> </text><text xml:space="preserve" font-family="FiraMono-Regular,Fira Mono" font-size="21.0" fill="#0085B3" transform="matrix(1.00, 0.00, -0.00, -1.00, 93.4, 123.3)"> </text><text xml:space="preserve" font-family="FiraMono-Regular,Fira Mono" font-size="21.0" fill="#323232" transform="matrix(1.00, 0.00, -0.00, -1.00, 106.0, 123.3)">(</text><text xml:space="preserve" font-family="FiraMono-Bold,Fira Mono" font-weight="bold" font-size="21.0" fill="#B30002" transform="matrix(1.00, 0.00, -0.00, -1.00, 118.6, 123.3)">o</text><text xml:space="preserve" font-family="FiraMono-Bold,Fira Mono" font-weight="bold" font-size="21.0" fill="#B30002" transform="matrix(1.00, 0.00, -0.00, -1.00, 131.2, 123.3)">b</text><text xml:space="preserve" font-family="FiraMono-Bold,Fira Mono" font-weight="bold" font-size="21.0" fill="#B30002" transform="matrix(1.00, 0.00, -0.00, -1.00, 143.8, 123.3)">s</text><text xml:space="preserve" font-family="FiraMono-Bold,Fira Mono" font-weight="bold" font-size="21.0" fill="#B30002" transform="matrix(1.00, 0.00, -0.00, -1.00, 156.4, 123.3)">e</text><text xml:space="preserve" font-family="FiraMono-Bold,Fira Mono" font-weight="bold" font-size="21.0" fill="#B30002" transform="matrix(1.00, 0.00, -0.00, -1.00, 169.0, 123.3)">r</text><text xml:space="preserve" font-family="FiraMono-Bold,Fira Mono" font-weight="bold" font-size="21.0" fill="#B30002" transform="matrix(1.00, 0.00, -0.00, -1.00, 181.6, 123.3)">v</text><text xml:space="preserve" font-family="FiraMono-Bold,Fira Mono" font-weight="bold" font-size="21.0" fill="#B30002" transform="matrix(1.00, 0.00, -0.00, -1.00, 194.2, 123.3)">e</text><text xml:space="preserve" font-family="FiraMono-Bold,Fira Mono" font-weight="bold" font-size="21.0" fill="#B30002" transform="matrix(1.00, 0.00, -0.00, -1.00, 206.8, 123.3)"> </text><text xml:space="preserve" font-family="FiraMono-Bold,Fira Mono" font-weight="bold" font-size="21.0" fill="#B30002" transform="matrix(1.00, 0.00, -0.00, -1.00, 219.4, 123.3)"> </text><text xml:space="preserve" font-family="FiraMono-Bold,Fira Mono" font-weight="bold" font-size="21.0" fill="#B30002" transform="matrix(1.00, 0.00, -0.00, -1.00, 7.0, 90.3)"> </text><text xml:space="preserve" font-family="FiraMono-Bold,Fira Mono" font-weight="bold" font-size="21.0" fill="#B30002" transform="matrix(1.00, 0.00, -0.00, -1.00, 19.6, 90.3)"> </text><text xml:space="preserve" font-family="FiraMono-Bold,Fira Mono" font-weight="bold" font-size="21.0" fill="#B30002" transform="matrix(1.00, 0.00, -0.00, -1.00, 32.2, 90.3)"> </text><text xml:space="preserve" font-family="FiraMono-Bold,Fira Mono" font-weight="bold" font-size="21.0" fill="#B30002" transform="matrix(1.00, 0.00, -0.00, -1.00, 44.8, 90.3)"> </text><text xml:space="preserve" font-family="FiraMono-Bold,Fira Mono" font-weight="bold" font-size="21.0" fill="#B30002" transform="matrix(1.00, 0.00, -0.00, -1.00, 57.4, 90.3)"> </text><text xml:space="preserve" font-family="FiraMono-Bold,Fira Mono" font-weight="bold" font-size="21.0" fill="#B30002" transform="matrix(1.00, 0.00, -0.00, -1.00, 70.0, 90.3)"> </text><text xml:space="preserve" font-family="FiraMono-Bold,Fira Mono" font-weight="bold" font-size="21.0" fill="#B30002" transform="matrix(1.00, 0.00, -0.00, -1.00, 82.6, 90.3)"> </text><text xml:space="preserve" font-family="FiraMono-Bold,Fira Mono" font-weight="bold" font-size="21.0" fill="#B30002" transform="matrix(1.00, 0.00, -0.00, -1.00, 95.2, 90.3)"> </text><text xml:space="preserve" font-family="FiraMono-Bold,Fira Mono" font-weight="bold" font-size="21.0" fill="#B30002" transform="matrix(1.00, 0.00, -0.00, -1.00, 107.8, 90.3)"> </text><text xml:space="preserve" font-family="FiraMono-Regular,Fira Mono" font-size="21.0" fill="#323232" transform="matrix(1.00, 0.00, -0.00, -1.00, 120.4, 90.3)">(</text><text xml:space="preserve" font-family="FiraMono-Regular,Fira Mono" font-size="21.0" fill="#0085B3" transform="matrix(1.00, 0.00, -0.00, -1.00, 133.0, 90.3)">n</text><text xml:space="preserve" font-family="FiraMono-Regular,Fira Mono" font-size="21.0" fill="#0085B3" transform="matrix(1.00, 0.00, -0.00, -1.00, 145.6, 90.3)">o</text><text xml:space="preserve" font-family="FiraMono-Regular,Fira Mono" font-size="21.0" fill="#0085B3" transform="matrix(1.00, 0.00, -0.00, -1.00, 158.2, 90.3)">r</text><text xml:space="preserve" font-family="FiraMono-Regular,Fira Mono" font-size="21.0" fill="#0085B3" transform="matrix(1.00, 0.00, -0.00, -1.00, 170.8, 90.3)">m</text><text xml:space="preserve" font-family="FiraMono-Regular,Fira Mono" font-size="21.0" fill="#0085B3" transform="matrix(1.00, 0.00, -0.00, -1.00, 183.4, 90.3)">a</text><text xml:space="preserve" font-family="FiraMono-Regular,Fira Mono" font-size="21.0" fill="#0085B3" transform="matrix(1.00, 0.00, -0.00, -1.00, 196.0, 90.3)">l</text><text xml:space="preserve" font-family="FiraMono-Regular,Fira Mono" font-size="21.0" fill="#0085B3" transform="matrix(1.00, 0.00, -0.00, -1.00, 208.6, 90.3)"> </text><text xml:space="preserve" font-family="FiraMono-Regular,Fira Mono" font-size="21.0" fill="#333333" transform="matrix(1.00, 0.00, -0.00, -1.00, 221.2, 90.3)">(</text><text xml:space="preserve" font-family="FiraMono-Regular,Fira Mono" font-size="21.0" fill="#333333" transform="matrix(1.00, 0.00, -0.00, -1.00, 233.8, 90.3)">f</text><text xml:space="preserve" font-family="FiraMono-Regular,Fira Mono" font-size="21.0" fill="#333333" transform="matrix(1.00, 0.00, -0.00, -1.00, 246.4, 90.3)"> </text><text xml:space="preserve" font-family="FiraMono-Regular,Fira Mono" font-size="21.0" fill="#333333" transform="matrix(1.00, 0.00, -0.00, -1.00, 259.0, 90.3)">x</text><text xml:space="preserve" font-family="FiraMono-Regular,Fira Mono" font-size="21.0" fill="#333333" transform="matrix(1.00, 0.00, -0.00, -1.00, 271.6, 90.3)">)</text><text xml:space="preserve" font-family="FiraMono-Regular,Fira Mono" font-size="21.0" fill="#0085B3" transform="matrix(1.00, 0.00, -0.00, -1.00, 284.2, 90.3)"> </text><text xml:space="preserve" font-family="FiraMono-Regular,Fira Mono" font-size="21.0" fill="#0085B3" transform="matrix(1.00, 0.00, -0.00, -1.00, 296.8, 90.3)">0</text><text xml:space="preserve" font-family="FiraMono-Regular,Fira Mono" font-size="21.0" fill="#0085B3" transform="matrix(1.00, 0.00, -0.00, -1.00, 309.4, 90.3)">.</text><text xml:space="preserve" font-family="FiraMono-Regular,Fira Mono" font-size="21.0" fill="#0085B3" transform="matrix(1.00, 0.00, -0.00, -1.00, 322.0, 90.3)">1</text><text xml:space="preserve" font-family="FiraMono-Regular,Fira Mono" font-size="21.0" fill="#323232" transform="matrix(1.00, 0.00, -0.00, -1.00, 334.6, 90.3)">)</text><text xml:space="preserve" font-family="FiraMono-Regular,Fira Mono" font-size="21.0" fill="#323232" transform="matrix(1.00, 0.00, -0.00, -1.00, 347.2, 90.3)"> </text><text xml:space="preserve" font-family="FiraMono-Regular,Fira Mono" font-size="21.0" fill="#323232" transform="matrix(1.00, 0.00, -0.00, -1.00, 359.8, 90.3)">y</text><text xml:space="preserve" font-family="FiraMono-Regular,Fira Mono" font-size="21.0" fill="#323232" transform="matrix(1.00, 0.00, -0.00, -1.00, 372.4, 90.3)">)</text><text xml:space="preserve" font-family="FiraMono-Regular,Fira Mono" font-size="21.0" fill="#323232" transform="matrix(1.00, 0.00, -0.00, -1.00, 385.0, 90.3)">)</text><text xml:space="preserve" font-family="FiraMono-Regular,Fira Mono" font-size="21.0" fill="#323232" transform="matrix(1.00, 0.00, -0.00, -1.00, 397.6, 90.3)"> </text><text xml:space="preserve" font-family="FiraMono-Regular,Fira Mono" font-size="21.0" fill="#323232" transform="matrix(1.00, 0.00, -0.00, -1.00, 7.0, 57.3)"> </text><text xml:space="preserve" font-family="FiraMono-Regular,Fira Mono" font-size="21.0" fill="#323232" transform="matrix(1.00, 0.00, -0.00, -1.00, 43.0, 57.3)"> </text><text xml:space="preserve" font-family="FiraMono-Regular,Fira Mono" font-size="21.0" fill="#323232" transform="matrix(1.00, 0.00, -0.00, -1.00, 55.6, 57.3)"> </text><text xml:space="preserve" font-family="FiraMono-Regular,Fira Mono" font-size="21.0" fill="#323232" transform="matrix(1.00, 0.00, -0.00, -1.00, 68.2, 57.3)"> </text><text xml:space="preserve" font-family="FiraMono-Regular,Fira Mono" font-size="21.0" fill="#323232" transform="matrix(1.00, 0.00, -0.00, -1.00, 80.8, 57.3)"> </text><text xml:space="preserve" font-family="FiraMono-Regular,Fira Mono" font-size="21.0" fill="#333333" transform="matrix(1.00, 0.00, -0.00, -1.00, 93.4, 57.3)">x</text><text xml:space="preserve" font-family="FiraMono-Regular,Fira Mono" font-size="21.0" fill="#333333" transform="matrix(1.00, 0.00, -0.00, -1.00, 106.0, 57.3)">-</text><text xml:space="preserve" font-family="FiraMono-Regular,Fira Mono" font-size="21.0" fill="#333333" transform="matrix(1.00, 0.00, -0.00, -1.00, 118.6, 57.3)">v</text><text xml:space="preserve" font-family="FiraMono-Regular,Fira Mono" font-size="21.0" fill="#333333" transform="matrix(1.00, 0.00, -0.00, -1.00, 131.2, 57.3)">a</text><text xml:space="preserve" font-family="FiraMono-Regular,Fira Mono" font-size="21.0" fill="#333333" transform="matrix(1.00, 0.00, -0.00, -1.00, 143.8, 57.3)">l</text><text xml:space="preserve" font-family="FiraMono-Regular,Fira Mono" font-size="21.0" fill="#333333" transform="matrix(1.00, 0.00, -0.00, -1.00, 156.4, 57.3)">u</text><text xml:space="preserve" font-family="FiraMono-Regular,Fira Mono" font-size="21.0" fill="#333333" transform="matrix(1.00, 0.00, -0.00, -1.00, 169.0, 57.3)">e</text><text xml:space="preserve" font-family="FiraMono-Regular,Fira Mono" font-size="21.0" fill="#333333" transform="matrix(1.00, 0.00, -0.00, -1.00, 181.6, 57.3)">s</text><text xml:space="preserve" font-family="FiraMono-Regular,Fira Mono" font-size="21.0" fill="#333333" transform="matrix(1.00, 0.00, -0.00, -1.00, 194.2, 57.3)"> </text><text xml:space="preserve" font-family="FiraMono-Regular,Fira Mono" font-size="21.0" fill="#333333" transform="matrix(1.00, 0.00, -0.00, -1.00, 206.8, 57.3)">y</text><text xml:space="preserve" font-family="FiraMono-Regular,Fira Mono" font-size="21.0" fill="#333333" transform="matrix(1.00, 0.00, -0.00, -1.00, 219.4, 57.3)">-</text><text xml:space="preserve" font-family="FiraMono-Regular,Fira Mono" font-size="21.0" fill="#333333" transform="matrix(1.00, 0.00, -0.00, -1.00, 232.0, 57.3)">v</text><text xml:space="preserve" font-family="FiraMono-Regular,Fira Mono" font-size="21.0" fill="#333333" transform="matrix(1.00, 0.00, -0.00, -1.00, 244.6, 57.3)">a</text><text xml:space="preserve" font-family="FiraMono-Regular,Fira Mono" font-size="21.0" fill="#333333" transform="matrix(1.00, 0.00, -0.00, -1.00, 257.2, 57.3)">l</text><text xml:space="preserve" font-family="FiraMono-Regular,Fira Mono" font-size="21.0" fill="#333333" transform="matrix(1.00, 0.00, -0.00, -1.00, 269.8, 57.3)">u</text><text xml:space="preserve" font-family="FiraMono-Regular,Fira Mono" font-size="21.0" fill="#333333" transform="matrix(1.00, 0.00, -0.00, -1.00, 282.4, 57.3)">e</text><text xml:space="preserve" font-family="FiraMono-Regular,Fira Mono" font-size="21.0" fill="#333333" transform="matrix(1.00, 0.00, -0.00, -1.00, 295.0, 57.3)">s</text><text xml:space="preserve" font-family="FiraMono-Regular,Fira Mono" font-size="21.0" fill="#323232" transform="matrix(1.00, 0.00, -0.00, -1.00, 307.6, 57.3)">)</text><text xml:space="preserve" font-family="FiraMono-Regular,Fira Mono" font-size="21.0" fill="#323232" transform="matrix(1.00, 0.00, -0.00, -1.00, 320.2, 57.3)"> </text><text xml:space="preserve" font-family="FiraMono-Regular,Fira Mono" font-size="21.0" fill="#323232" transform="matrix(1.00, 0.00, -0.00, -1.00, 7.0, 24.3)"> </text><text xml:space="preserve" font-family="FiraMono-Regular,Fira Mono" font-size="21.0" fill="#323232" transform="matrix(1.00, 0.00, -0.00, -1.00, 19.6, 24.3)"> </text><text xml:space="preserve" font-family="FiraMono-Regular,Fira Mono" font-size="21.0" fill="#323232" transform="matrix(1.00, 0.00, -0.00, -1.00, 32.2, 24.3)">(</text><text xml:space="preserve" font-family="FiraMono-Bold,Fira Mono" font-weight="bold" font-size="21.0" fill="#003F7F" transform="matrix(1.00, 0.00, -0.00, -1.00, 44.8, 24.3)">p</text><text xml:space="preserve" font-family="FiraMono-Bold,Fira Mono" font-weight="bold" font-size="21.0" fill="#003F7F" transform="matrix(1.00, 0.00, -0.00, -1.00, 57.4, 24.3)">r</text><text xml:space="preserve" font-family="FiraMono-Bold,Fira Mono" font-weight="bold" font-size="21.0" fill="#003F7F" transform="matrix(1.00, 0.00, -0.00, -1.00, 70.0, 24.3)">e</text><text xml:space="preserve" font-family="FiraMono-Bold,Fira Mono" font-weight="bold" font-size="21.0" fill="#003F7F" transform="matrix(1.00, 0.00, -0.00, -1.00, 82.6, 24.3)">d</text><text xml:space="preserve" font-family="FiraMono-Bold,Fira Mono" font-weight="bold" font-size="21.0" fill="#003F7F" transform="matrix(1.00, 0.00, -0.00, -1.00, 95.2, 24.3)">i</text><text xml:space="preserve" font-family="FiraMono-Bold,Fira Mono" font-weight="bold" font-size="21.0" fill="#003F7F" transform="matrix(1.00, 0.00, -0.00, -1.00, 107.8, 24.3)">c</text><text xml:space="preserve" font-family="FiraMono-Bold,Fira Mono" font-weight="bold" font-size="21.0" fill="#003F7F" transform="matrix(1.00, 0.00, -0.00, -1.00, 120.4, 24.3)">t</text><text xml:space="preserve" font-family="FiraMono-Regular,Fira Mono" font-size="21.0" fill="#323232" transform="matrix(1.00, 0.00, -0.00, -1.00, 133.0, 24.3)"> </text><text xml:space="preserve" font-family="FiraMono-Regular,Fira Mono" font-size="21.0" fill="#323232" transform="matrix(1.00, 0.00, -0.00, -1.00, 145.6, 24.3)">[</text><text xml:space="preserve" font-family="FiraMono-Regular,Fira Mono" font-size="21.0" fill="#323232" transform="matrix(1.00, 0.00, -0.00, -1.00, 158.2, 24.3)">a</text><text xml:space="preserve" font-family="FiraMono-Regular,Fira Mono" font-size="21.0" fill="#323232" transform="matrix(1.00, 0.00, -0.00, -1.00, 170.8, 24.3)"> </text><text xml:space="preserve" font-family="FiraMono-Regular,Fira Mono" font-size="21.0" fill="#323232" transform="matrix(1.00, 0.00, -0.00, -1.00, 183.4, 24.3)">b</text><text xml:space="preserve" font-family="FiraMono-Regular,Fira Mono" font-size="21.0" fill="#323232" transform="matrix(1.00, 0.00, -0.00, -1.00, 196.0, 24.3)">]</text><text xml:space="preserve" font-family="FiraMono-Regular,Fira Mono" font-size="21.0" fill="#323232" transform="matrix(1.00, 0.00, -0.00, -1.00, 208.6, 24.3)">)</text><text xml:space="preserve" font-family="FiraMono-Regular,Fira Mono" font-size="21.0" fill="#323232" transform="matrix(1.00, 0.00, -0.00, -1.00, 221.2, 24.3)">)</text></g></g></g></svg>