<?xml version="1.0" encoding="UTF-8" standalone="no"?><svg xmlns="http://www.w3.org/2000/svg" xmlns:xlink="http://www.w3.org/1999/xlink" clip-rule="evenodd" stroke-miterlimit="10" viewBox="0 0 1024 768"><desc>SVG generated by Keynote</desc><defs><linearGradient id="gradSh1.106" x1="0.0" y1="0.0" x2="100.0" y2="0.0" gradientUnits="userSpaceOnUse" gradientTransform="matrix(0.00, -7.70, -10.26, 0.00, 512.0, 769.0)"><stop offset="0.00000" stop-color="#FFFFFF"></stop><stop offset="0.01906" stop-color="#FEFFFF"></stop><stop offset="1.00000" stop-color="#E5F3FF"></stop></linearGradient></defs><g transform="matrix(1.00, 0.00, -0.00, -1.00, 0.0, 768.0)"><g><clipPath id="clip0x61000d2b9980"><path d="M 0.0 768.0 L 1024.0 768.0 L 1024.0 0.0 L 0.0 0.0 Z M 0.0 768.0 "></path></clipPath><g clip-path="url(#clip0x61000d2b9980)"><path d="M 0.0 768.0 L 1024.0 768.0 L 1024.0 0.0 L 0.0 0.0 Z M 0.0 768.0 " fill="url(#gradSh1.106)"></path></g></g><image xlink:href="../../426CB332-40E7-458B-8CE9-D6870A3F26FD/assets/3515DABEC1480E5EC2F3295DE91ADDD0.png" width="441.00" height="230.00" transform="matrix(1.00, 0.00, -0.00, -1.00, 47.0, 547.8)" opacity="0.50"></image><path d="M 50.0 547.0 L 485.0 547.0 L 485.0 323.0 L 50.0 323.0 Z M 50.0 546.8 " fill="#FEFFFE"></path><g><clipPath id="clip0x61000d4b9da0"><path d="M 50.0 322.2 L 486.9 322.2 L 486.9 546.8 L 50.0 546.8 Z M 50.0 322.2 "></path></clipPath><g clip-path="url(#clip0x61000d4b9da0)"><text xml:space="preserve" font-family="FiraMono-Regular,Fira Mono" font-size="22.0" fill="#323232" transform="matrix(1.00, 0.00, -0.00, -1.00, 62.0, 511.8)">(</text><text xml:space="preserve" font-family="FiraMono-Regular,Fira Mono" font-size="22.0" fill="#0085B3" transform="matrix(1.00, 0.00, -0.00, -1.00, 75.2, 511.8)">d</text><text xml:space="preserve" font-family="FiraMono-Regular,Fira Mono" font-size="22.0" fill="#0085B3" transform="matrix(1.00, 0.00, -0.00, -1.00, 88.4, 511.8)">e</text><text xml:space="preserve" font-family="FiraMono-Regular,Fira Mono" font-size="22.0" fill="#0085B3" transform="matrix(1.00, 0.00, -0.00, -1.00, 101.6, 511.8)">f</text><text xml:space="preserve" font-family="FiraMono-Regular,Fira Mono" font-size="22.0" fill="#0085B3" transform="matrix(1.00, 0.00, -0.00, -1.00, 114.8, 511.8)">q</text><text xml:space="preserve" font-family="FiraMono-Regular,Fira Mono" font-size="22.0" fill="#0085B3" transform="matrix(1.00, 0.00, -0.00, -1.00, 128.0, 511.8)">u</text><text xml:space="preserve" font-family="FiraMono-Regular,Fira Mono" font-size="22.0" fill="#0085B3" transform="matrix(1.00, 0.00, -0.00, -1.00, 141.2, 511.8)">e</text><text xml:space="preserve" font-family="FiraMono-Regular,Fira Mono" font-size="22.0" fill="#0085B3" transform="matrix(1.00, 0.00, -0.00, -1.00, 154.4, 511.8)">r</text><text xml:space="preserve" font-family="FiraMono-Regular,Fira Mono" font-size="22.0" fill="#0085B3" transform="matrix(1.00, 0.00, -0.00, -1.00, 167.6, 511.8)">y</text><text xml:space="preserve" font-family="FiraMono-Regular,Fira Mono" font-size="22.0" fill="#323232" transform="matrix(1.00, 0.00, -0.00, -1.00, 180.8, 511.8)"> </text><text xml:space="preserve" font-family="FiraMono-Regular,Fira Mono" font-size="22.0" fill="#323232" transform="matrix(1.00, 0.00, -0.00, -1.00, 194.0, 511.8)">b</text><text xml:space="preserve" font-family="FiraMono-Regular,Fira Mono" font-size="22.0" fill="#323232" transform="matrix(1.00, 0.00, -0.00, -1.00, 207.2, 511.8)">i</text><text xml:space="preserve" font-family="FiraMono-Regular,Fira Mono" font-size="22.0" fill="#323232" transform="matrix(1.00, 0.00, -0.00, -1.00, 220.4, 511.8)">a</text><text xml:space="preserve" font-family="FiraMono-Regular,Fira Mono" font-size="22.0" fill="#323232" transform="matrix(1.00, 0.00, -0.00, -1.00, 233.6, 511.8)">s</text><text xml:space="preserve" font-family="FiraMono-Regular,Fira Mono" font-size="22.0" fill="#323232" transform="matrix(1.00, 0.00, -0.00, -1.00, 246.8, 511.8)">e</text><text xml:space="preserve" font-family="FiraMono-Regular,Fira Mono" font-size="22.0" fill="#323232" transform="matrix(1.00, 0.00, -0.00, -1.00, 260.0, 511.8)">d</text><text xml:space="preserve" font-family="FiraMono-Regular,Fira Mono" font-size="22.0" fill="#323232" transform="matrix(1.00, 0.00, -0.00, -1.00, 273.2, 511.8)">-</text><text xml:space="preserve" font-family="FiraMono-Regular,Fira Mono" font-size="22.0" fill="#323232" transform="matrix(1.00, 0.00, -0.00, -1.00, 286.4, 511.8)">c</text><text xml:space="preserve" font-family="FiraMono-Regular,Fira Mono" font-size="22.0" fill="#323232" transform="matrix(1.00, 0.00, -0.00, -1.00, 299.6, 511.8)">o</text><text xml:space="preserve" font-family="FiraMono-Regular,Fira Mono" font-size="22.0" fill="#323232" transform="matrix(1.00, 0.00, -0.00, -1.00, 312.8, 511.8)">i</text><text xml:space="preserve" font-family="FiraMono-Regular,Fira Mono" font-size="22.0" fill="#323232" transform="matrix(1.00, 0.00, -0.00, -1.00, 326.0, 511.8)">n</text><text xml:space="preserve" font-family="FiraMono-Regular,Fira Mono" font-size="22.0" fill="#323232" transform="matrix(1.00, 0.00, -0.00, -1.00, 339.2, 511.8)"> </text><text xml:space="preserve" font-family="FiraMono-Regular,Fira Mono" font-size="22.0" fill="#323232" transform="matrix(1.00, 0.00, -0.00, -1.00, 352.4, 511.8)">[</text><text xml:space="preserve" font-family="FiraMono-Regular,Fira Mono" font-size="22.0" fill="#323232" transform="matrix(1.00, 0.00, -0.00, -1.00, 365.6, 511.8)">]</text><text xml:space="preserve" font-family="FiraMono-Regular,Fira Mono" font-size="22.0" fill="#0085B3" transform="matrix(1.00, 0.00, -0.00, -1.00, 378.8, 511.8)"> </text><text xml:space="preserve" font-family="FiraMono-Regular,Fira Mono" font-size="22.0" fill="#0085B3" transform="matrix(1.00, 0.00, -0.00, -1.00, 62.0, 477.8)"> </text><text xml:space="preserve" font-family="FiraMono-Regular,Fira Mono" font-size="22.0" fill="#323232" transform="matrix(1.00, 0.00, -0.00, -1.00, 75.2, 477.8)">(</text><text xml:space="preserve" font-family="FiraMono-Regular,Fira Mono" font-size="22.0" fill="#0085B3" transform="matrix(1.00, 0.00, -0.00, -1.00, 88.4, 477.8)">l</text><text xml:space="preserve" font-family="FiraMono-Regular,Fira Mono" font-size="22.0" fill="#0085B3" transform="matrix(1.00, 0.00, -0.00, -1.00, 101.6, 477.8)">e</text><text xml:space="preserve" font-family="FiraMono-Regular,Fira Mono" font-size="22.0" fill="#0085B3" transform="matrix(1.00, 0.00, -0.00, -1.00, 114.8, 477.8)">t</text><text xml:space="preserve" font-family="FiraMono-Regular,Fira Mono" font-size="22.0" fill="#323232" transform="matrix(1.00, 0.00, -0.00, -1.00, 128.0, 477.8)"> </text><text xml:space="preserve" font-family="FiraMono-Regular,Fira Mono" font-size="22.0" fill="#323232" transform="matrix(1.00, 0.00, -0.00, -1.00, 141.2, 477.8)">[</text><text xml:space="preserve" font-family="FiraMono-Regular,Fira Mono" font-size="22.0" fill="#323232" transform="matrix(1.00, 0.00, -0.00, -1.00, 154.4, 477.8)">b</text><text xml:space="preserve" font-family="FiraMono-Regular,Fira Mono" font-size="22.0" fill="#323232" transform="matrix(1.00, 0.00, -0.00, -1.00, 167.6, 477.8)">i</text><text xml:space="preserve" font-family="FiraMono-Regular,Fira Mono" font-size="22.0" fill="#323232" transform="matrix(1.00, 0.00, -0.00, -1.00, 180.8, 477.8)">a</text><text xml:space="preserve" font-family="FiraMono-Regular,Fira Mono" font-size="22.0" fill="#323232" transform="matrix(1.00, 0.00, -0.00, -1.00, 194.0, 477.8)">s</text><text xml:space="preserve" font-family="FiraMono-Regular,Fira Mono" font-size="22.0" fill="#323232" transform="matrix(1.00, 0.00, -0.00, -1.00, 207.2, 477.8)"> </text><text xml:space="preserve" font-family="FiraMono-Regular,Fira Mono" font-size="22.0" fill="#323232" transform="matrix(1.00, 0.00, -0.00, -1.00, 220.4, 477.8)">(</text><text xml:space="preserve" font-family="FiraMono-Bold,Fira Mono" font-weight="bold" font-size="22.0" fill="#54A800" transform="matrix(1.00, 0.00, -0.00, -1.00, 233.6, 477.8)">s</text><text xml:space="preserve" font-family="FiraMono-Bold,Fira Mono" font-weight="bold" font-size="22.0" fill="#54A800" transform="matrix(1.00, 0.00, -0.00, -1.00, 246.8, 477.8)">a</text><text xml:space="preserve" font-family="FiraMono-Bold,Fira Mono" font-weight="bold" font-size="22.0" fill="#54A800" transform="matrix(1.00, 0.00, -0.00, -1.00, 260.0, 477.8)">m</text><text xml:space="preserve" font-family="FiraMono-Bold,Fira Mono" font-weight="bold" font-size="22.0" fill="#54A800" transform="matrix(1.00, 0.00, -0.00, -1.00, 273.2, 477.8)">p</text><text xml:space="preserve" font-family="FiraMono-Bold,Fira Mono" font-weight="bold" font-size="22.0" fill="#54A800" transform="matrix(1.00, 0.00, -0.00, -1.00, 286.4, 477.8)">l</text><text xml:space="preserve" font-family="FiraMono-Bold,Fira Mono" font-weight="bold" font-size="22.0" fill="#54A800" transform="matrix(1.00, 0.00, -0.00, -1.00, 299.6, 477.8)">e</text><text xml:space="preserve" font-family="FiraMono-Regular,Fira Mono" font-size="22.0" fill="#323232" transform="matrix(1.00, 0.00, -0.00, -1.00, 312.8, 477.8)"> </text><text xml:space="preserve" font-family="FiraMono-Regular,Fira Mono" font-size="22.0" fill="#323232" transform="matrix(1.00, 0.00, -0.00, -1.00, 326.0, 477.8)">(</text><text xml:space="preserve" font-family="FiraMono-Regular,Fira Mono" font-size="22.0" fill="#0085B3" transform="matrix(1.00, 0.00, -0.00, -1.00, 339.2, 477.8)">b</text><text xml:space="preserve" font-family="FiraMono-Regular,Fira Mono" font-size="22.0" fill="#0085B3" transform="matrix(1.00, 0.00, -0.00, -1.00, 352.4, 477.8)">e</text><text xml:space="preserve" font-family="FiraMono-Regular,Fira Mono" font-size="22.0" fill="#0085B3" transform="matrix(1.00, 0.00, -0.00, -1.00, 365.6, 477.8)">t</text><text xml:space="preserve" font-family="FiraMono-Regular,Fira Mono" font-size="22.0" fill="#0085B3" transform="matrix(1.00, 0.00, -0.00, -1.00, 378.8, 477.8)">a</text><text xml:space="preserve" font-family="FiraMono-Regular,Fira Mono" font-size="22.0" fill="#0085B3" transform="matrix(1.00, 0.00, -0.00, -1.00, 392.0, 477.8)"> </text><text xml:space="preserve" font-family="FiraMono-Regular,Fira Mono" font-size="22.0" fill="#0085B3" transform="matrix(1.00, 0.00, -0.00, -1.00, 405.2, 477.8)">1</text><text xml:space="preserve" font-family="FiraMono-Regular,Fira Mono" font-size="22.0" fill="#0085B3" transform="matrix(1.00, 0.00, -0.00, -1.00, 418.4, 477.8)"> </text><text xml:space="preserve" font-family="FiraMono-Regular,Fira Mono" font-size="22.0" fill="#0085B3" transform="matrix(1.00, 0.00, -0.00, -1.00, 431.6, 477.8)">1</text><text xml:space="preserve" font-family="FiraMono-Regular,Fira Mono" font-size="22.0" fill="#323232" transform="matrix(1.00, 0.00, -0.00, -1.00, 444.8, 477.8)">)</text><text xml:space="preserve" font-family="FiraMono-Regular,Fira Mono" font-size="22.0" fill="#323232" transform="matrix(1.00, 0.00, -0.00, -1.00, 458.0, 477.8)">)</text><text xml:space="preserve" font-family="FiraMono-Regular,Fira Mono" font-size="22.0" fill="#323232" transform="matrix(1.00, 0.00, -0.00, -1.00, 471.2, 477.8)"> </text><text xml:space="preserve" font-family="FiraMono-Regular,Fira Mono" font-size="22.0" fill="#323232" transform="matrix(1.00, 0.00, -0.00, -1.00, 62.0, 443.8)"> </text><text xml:space="preserve" font-family="FiraMono-Regular,Fira Mono" font-size="22.0" fill="#323232" transform="matrix(1.00, 0.00, -0.00, -1.00, 75.2, 443.8)"> </text><text xml:space="preserve" font-family="FiraMono-Regular,Fira Mono" font-size="22.0" fill="#323232" transform="matrix(1.00, 0.00, -0.00, -1.00, 88.4, 443.8)"> </text><text xml:space="preserve" font-family="FiraMono-Regular,Fira Mono" font-size="22.0" fill="#323232" transform="matrix(1.00, 0.00, -0.00, -1.00, 101.6, 443.8)"> </text><text xml:space="preserve" font-family="FiraMono-Regular,Fira Mono" font-size="22.0" fill="#323232" transform="matrix(1.00, 0.00, -0.00, -1.00, 114.8, 443.8)"> </text><text xml:space="preserve" font-family="FiraMono-Regular,Fira Mono" font-size="22.0" fill="#323232" transform="matrix(1.00, 0.00, -0.00, -1.00, 128.0, 443.8)"> </text><text xml:space="preserve" font-family="FiraMono-Regular,Fira Mono" font-size="22.0" fill="#323232" transform="matrix(1.00, 0.00, -0.00, -1.00, 141.2, 443.8)"> </text><text xml:space="preserve" font-family="FiraMono-Regular,Fira Mono" font-size="22.0" fill="#323232" transform="matrix(1.00, 0.00, -0.00, -1.00, 154.4, 443.8)">l</text><text xml:space="preserve" font-family="FiraMono-Regular,Fira Mono" font-size="22.0" fill="#323232" transform="matrix(1.00, 0.00, -0.00, -1.00, 167.6, 443.8)">i</text><text xml:space="preserve" font-family="FiraMono-Regular,Fira Mono" font-size="22.0" fill="#323232" transform="matrix(1.00, 0.00, -0.00, -1.00, 180.8, 443.8)">k</text><text xml:space="preserve" font-family="FiraMono-Regular,Fira Mono" font-size="22.0" fill="#323232" transform="matrix(1.00, 0.00, -0.00, -1.00, 194.0, 443.8)">e</text><text xml:space="preserve" font-family="FiraMono-Regular,Fira Mono" font-size="22.0" fill="#323232" transform="matrix(1.00, 0.00, -0.00, -1.00, 207.2, 443.8)">l</text><text xml:space="preserve" font-family="FiraMono-Regular,Fira Mono" font-size="22.0" fill="#323232" transform="matrix(1.00, 0.00, -0.00, -1.00, 220.4, 443.8)">i</text><text xml:space="preserve" font-family="FiraMono-Regular,Fira Mono" font-size="22.0" fill="#323232" transform="matrix(1.00, 0.00, -0.00, -1.00, 233.6, 443.8)">h</text><text xml:space="preserve" font-family="FiraMono-Regular,Fira Mono" font-size="22.0" fill="#323232" transform="matrix(1.00, 0.00, -0.00, -1.00, 246.8, 443.8)">o</text><text xml:space="preserve" font-family="FiraMono-Regular,Fira Mono" font-size="22.0" fill="#323232" transform="matrix(1.00, 0.00, -0.00, -1.00, 260.0, 443.8)">o</text><text xml:space="preserve" font-family="FiraMono-Regular,Fira Mono" font-size="22.0" fill="#323232" transform="matrix(1.00, 0.00, -0.00, -1.00, 273.2, 443.8)">d</text><text xml:space="preserve" font-family="FiraMono-Regular,Fira Mono" font-size="22.0" fill="#323232" transform="matrix(1.00, 0.00, -0.00, -1.00, 286.4, 443.8)"> </text><text xml:space="preserve" font-family="FiraMono-Regular,Fira Mono" font-size="22.0" fill="#323232" transform="matrix(1.00, 0.00, -0.00, -1.00, 299.6, 443.8)">(</text><text xml:space="preserve" font-family="FiraMono-Regular,Fira Mono" font-size="22.0" fill="#0085B3" transform="matrix(1.00, 0.00, -0.00, -1.00, 312.8, 443.8)">f</text><text xml:space="preserve" font-family="FiraMono-Regular,Fira Mono" font-size="22.0" fill="#0085B3" transform="matrix(1.00, 0.00, -0.00, -1.00, 326.0, 443.8)">l</text><text xml:space="preserve" font-family="FiraMono-Regular,Fira Mono" font-size="22.0" fill="#0085B3" transform="matrix(1.00, 0.00, -0.00, -1.00, 339.2, 443.8)">i</text><text xml:space="preserve" font-family="FiraMono-Regular,Fira Mono" font-size="22.0" fill="#0085B3" transform="matrix(1.00, 0.00, -0.00, -1.00, 352.4, 443.8)">p</text><text xml:space="preserve" font-family="FiraMono-Regular,Fira Mono" font-size="22.0" fill="#323232" transform="matrix(1.00, 0.00, -0.00, -1.00, 365.6, 443.8)"> </text><text xml:space="preserve" font-family="FiraMono-Regular,Fira Mono" font-size="22.0" fill="#323232" transform="matrix(1.00, 0.00, -0.00, -1.00, 378.8, 443.8)">b</text><text xml:space="preserve" font-family="FiraMono-Regular,Fira Mono" font-size="22.0" fill="#323232" transform="matrix(1.00, 0.00, -0.00, -1.00, 392.0, 443.8)">i</text><text xml:space="preserve" font-family="FiraMono-Regular,Fira Mono" font-size="22.0" fill="#323232" transform="matrix(1.00, 0.00, -0.00, -1.00, 405.2, 443.8)">a</text><text xml:space="preserve" font-family="FiraMono-Regular,Fira Mono" font-size="22.0" fill="#323232" transform="matrix(1.00, 0.00, -0.00, -1.00, 418.4, 443.8)">s</text><text xml:space="preserve" font-family="FiraMono-Regular,Fira Mono" font-size="22.0" fill="#323232" transform="matrix(1.00, 0.00, -0.00, -1.00, 431.6, 443.8)">)</text><text xml:space="preserve" font-family="FiraMono-Regular,Fira Mono" font-size="22.0" fill="#323232" transform="matrix(1.00, 0.00, -0.00, -1.00, 444.8, 443.8)">]</text><text xml:space="preserve" font-family="FiraMono-Regular,Fira Mono" font-size="22.0" fill="#323232" transform="matrix(1.00, 0.00, -0.00, -1.00, 458.0, 443.8)"> </text><text xml:space="preserve" font-family="FiraMono-Regular,Fira Mono" font-size="22.0" fill="#323232" transform="matrix(1.00, 0.00, -0.00, -1.00, 62.0, 409.8)"> </text><text xml:space="preserve" font-family="FiraMono-Regular,Fira Mono" font-size="22.0" fill="#323232" transform="matrix(1.00, 0.00, -0.00, -1.00, 75.2, 409.8)"> </text><text xml:space="preserve" font-family="FiraMono-Regular,Fira Mono" font-size="22.0" fill="#323232" transform="matrix(1.00, 0.00, -0.00, -1.00, 88.4, 409.8)">(</text><text xml:space="preserve" font-family="FiraMono-Bold,Fira Mono" font-weight="bold" font-size="22.0" fill="#B30002" transform="matrix(1.00, 0.00, -0.00, -1.00, 101.6, 409.8)">o</text><text xml:space="preserve" font-family="FiraMono-Bold,Fira Mono" font-weight="bold" font-size="22.0" fill="#B30002" transform="matrix(1.00, 0.00, -0.00, -1.00, 114.8, 409.8)">b</text><text xml:space="preserve" font-family="FiraMono-Bold,Fira Mono" font-weight="bold" font-size="22.0" fill="#B30002" transform="matrix(1.00, 0.00, -0.00, -1.00, 128.0, 409.8)">s</text><text xml:space="preserve" font-family="FiraMono-Bold,Fira Mono" font-weight="bold" font-size="22.0" fill="#B30002" transform="matrix(1.00, 0.00, -0.00, -1.00, 141.2, 409.8)">e</text><text xml:space="preserve" font-family="FiraMono-Bold,Fira Mono" font-weight="bold" font-size="22.0" fill="#B30002" transform="matrix(1.00, 0.00, -0.00, -1.00, 154.4, 409.8)">r</text><text xml:space="preserve" font-family="FiraMono-Bold,Fira Mono" font-weight="bold" font-size="22.0" fill="#B30002" transform="matrix(1.00, 0.00, -0.00, -1.00, 167.6, 409.8)">v</text><text xml:space="preserve" font-family="FiraMono-Bold,Fira Mono" font-weight="bold" font-size="22.0" fill="#B30002" transform="matrix(1.00, 0.00, -0.00, -1.00, 180.8, 409.8)">e</text><text xml:space="preserve" font-family="FiraMono-Regular,Fira Mono" font-size="22.0" fill="#323232" transform="matrix(1.00, 0.00, -0.00, -1.00, 194.0, 409.8)"> </text><text xml:space="preserve" font-family="FiraMono-Regular,Fira Mono" font-size="22.0" fill="#323232" transform="matrix(1.00, 0.00, -0.00, -1.00, 207.2, 409.8)">l</text><text xml:space="preserve" font-family="FiraMono-Regular,Fira Mono" font-size="22.0" fill="#323232" transform="matrix(1.00, 0.00, -0.00, -1.00, 220.4, 409.8)">i</text><text xml:space="preserve" font-family="FiraMono-Regular,Fira Mono" font-size="22.0" fill="#323232" transform="matrix(1.00, 0.00, -0.00, -1.00, 233.6, 409.8)">k</text><text xml:space="preserve" font-family="FiraMono-Regular,Fira Mono" font-size="22.0" fill="#323232" transform="matrix(1.00, 0.00, -0.00, -1.00, 246.8, 409.8)">e</text><text xml:space="preserve" font-family="FiraMono-Regular,Fira Mono" font-size="22.0" fill="#323232" transform="matrix(1.00, 0.00, -0.00, -1.00, 260.0, 409.8)">l</text><text xml:space="preserve" font-family="FiraMono-Regular,Fira Mono" font-size="22.0" fill="#323232" transform="matrix(1.00, 0.00, -0.00, -1.00, 273.2, 409.8)">i</text><text xml:space="preserve" font-family="FiraMono-Regular,Fira Mono" font-size="22.0" fill="#323232" transform="matrix(1.00, 0.00, -0.00, -1.00, 286.4, 409.8)">h</text><text xml:space="preserve" font-family="FiraMono-Regular,Fira Mono" font-size="22.0" fill="#323232" transform="matrix(1.00, 0.00, -0.00, -1.00, 299.6, 409.8)">o</text><text xml:space="preserve" font-family="FiraMono-Regular,Fira Mono" font-size="22.0" fill="#323232" transform="matrix(1.00, 0.00, -0.00, -1.00, 312.8, 409.8)">o</text><text xml:space="preserve" font-family="FiraMono-Regular,Fira Mono" font-size="22.0" fill="#323232" transform="matrix(1.00, 0.00, -0.00, -1.00, 326.0, 409.8)">d</text><text xml:space="preserve" font-family="FiraMono-Regular,Fira Mono" font-size="22.0" fill="#323232" transform="matrix(1.00, 0.00, -0.00, -1.00, 339.2, 409.8)"> </text><text xml:space="preserve" font-family="FiraMono-Regular,Fira Mono" font-size="22.0" fill="#0085B3" transform="matrix(1.00, 0.00, -0.00, -1.00, 352.4, 409.8)">t</text><text xml:space="preserve" font-family="FiraMono-Regular,Fira Mono" font-size="22.0" fill="#0085B3" transform="matrix(1.00, 0.00, -0.00, -1.00, 365.6, 409.8)">r</text><text xml:space="preserve" font-family="FiraMono-Regular,Fira Mono" font-size="22.0" fill="#0085B3" transform="matrix(1.00, 0.00, -0.00, -1.00, 378.8, 409.8)">u</text><text xml:space="preserve" font-family="FiraMono-Regular,Fira Mono" font-size="22.0" fill="#0085B3" transform="matrix(1.00, 0.00, -0.00, -1.00, 392.0, 409.8)">e</text><text xml:space="preserve" font-family="FiraMono-Regular,Fira Mono" font-size="22.0" fill="#323232" transform="matrix(1.00, 0.00, -0.00, -1.00, 405.2, 409.8)">)</text><text xml:space="preserve" font-family="FiraMono-Regular,Fira Mono" font-size="22.0" fill="#323232" transform="matrix(1.00, 0.00, -0.00, -1.00, 418.4, 409.8)"> </text><text xml:space="preserve" font-family="FiraMono-Regular,Fira Mono" font-size="22.0" fill="#323232" transform="matrix(1.00, 0.00, -0.00, -1.00, 62.0, 375.8)"> </text><text xml:space="preserve" font-family="FiraMono-Regular,Fira Mono" font-size="22.0" fill="#323232" transform="matrix(1.00, 0.00, -0.00, -1.00, 75.2, 375.8)"> </text><text xml:space="preserve" font-family="FiraMono-Regular,Fira Mono" font-size="22.0" fill="#323232" transform="matrix(1.00, 0.00, -0.00, -1.00, 88.4, 375.8)">(</text><text xml:space="preserve" font-family="FiraMono-Bold,Fira Mono" font-weight="bold" font-size="22.0" fill="#B30002" transform="matrix(1.00, 0.00, -0.00, -1.00, 101.6, 375.8)">o</text><text xml:space="preserve" font-family="FiraMono-Bold,Fira Mono" font-weight="bold" font-size="22.0" fill="#B30002" transform="matrix(1.00, 0.00, -0.00, -1.00, 114.8, 375.8)">b</text><text xml:space="preserve" font-family="FiraMono-Bold,Fira Mono" font-weight="bold" font-size="22.0" fill="#B30002" transform="matrix(1.00, 0.00, -0.00, -1.00, 128.0, 375.8)">s</text><text xml:space="preserve" font-family="FiraMono-Bold,Fira Mono" font-weight="bold" font-size="22.0" fill="#B30002" transform="matrix(1.00, 0.00, -0.00, -1.00, 141.2, 375.8)">e</text><text xml:space="preserve" font-family="FiraMono-Bold,Fira Mono" font-weight="bold" font-size="22.0" fill="#B30002" transform="matrix(1.00, 0.00, -0.00, -1.00, 154.4, 375.8)">r</text><text xml:space="preserve" font-family="FiraMono-Bold,Fira Mono" font-weight="bold" font-size="22.0" fill="#B30002" transform="matrix(1.00, 0.00, -0.00, -1.00, 167.6, 375.8)">v</text><text xml:space="preserve" font-family="FiraMono-Bold,Fira Mono" font-weight="bold" font-size="22.0" fill="#B30002" transform="matrix(1.00, 0.00, -0.00, -1.00, 180.8, 375.8)">e</text><text xml:space="preserve" font-family="FiraMono-Regular,Fira Mono" font-size="22.0" fill="#323232" transform="matrix(1.00, 0.00, -0.00, -1.00, 194.0, 375.8)"> </text><text xml:space="preserve" font-family="FiraMono-Regular,Fira Mono" font-size="22.0" fill="#323232" transform="matrix(1.00, 0.00, -0.00, -1.00, 207.2, 375.8)">l</text><text xml:space="preserve" font-family="FiraMono-Regular,Fira Mono" font-size="22.0" fill="#323232" transform="matrix(1.00, 0.00, -0.00, -1.00, 220.4, 375.8)">i</text><text xml:space="preserve" font-family="FiraMono-Regular,Fira Mono" font-size="22.0" fill="#323232" transform="matrix(1.00, 0.00, -0.00, -1.00, 233.6, 375.8)">k</text><text xml:space="preserve" font-family="FiraMono-Regular,Fira Mono" font-size="22.0" fill="#323232" transform="matrix(1.00, 0.00, -0.00, -1.00, 246.8, 375.8)">e</text><text xml:space="preserve" font-family="FiraMono-Regular,Fira Mono" font-size="22.0" fill="#323232" transform="matrix(1.00, 0.00, -0.00, -1.00, 260.0, 375.8)">l</text><text xml:space="preserve" font-family="FiraMono-Regular,Fira Mono" font-size="22.0" fill="#323232" transform="matrix(1.00, 0.00, -0.00, -1.00, 273.2, 375.8)">i</text><text xml:space="preserve" font-family="FiraMono-Regular,Fira Mono" font-size="22.0" fill="#323232" transform="matrix(1.00, 0.00, -0.00, -1.00, 286.4, 375.8)">h</text><text xml:space="preserve" font-family="FiraMono-Regular,Fira Mono" font-size="22.0" fill="#323232" transform="matrix(1.00, 0.00, -0.00, -1.00, 299.6, 375.8)">o</text><text xml:space="preserve" font-family="FiraMono-Regular,Fira Mono" font-size="22.0" fill="#323232" transform="matrix(1.00, 0.00, -0.00, -1.00, 312.8, 375.8)">o</text><text xml:space="preserve" font-family="FiraMono-Regular,Fira Mono" font-size="22.0" fill="#323232" transform="matrix(1.00, 0.00, -0.00, -1.00, 326.0, 375.8)">d</text><text xml:space="preserve" font-family="FiraMono-Regular,Fira Mono" font-size="22.0" fill="#323232" transform="matrix(1.00, 0.00, -0.00, -1.00, 339.2, 375.8)"> </text><text xml:space="preserve" font-family="FiraMono-Regular,Fira Mono" font-size="22.0" fill="#0085B3" transform="matrix(1.00, 0.00, -0.00, -1.00, 352.4, 375.8)">t</text><text xml:space="preserve" font-family="FiraMono-Regular,Fira Mono" font-size="22.0" fill="#0085B3" transform="matrix(1.00, 0.00, -0.00, -1.00, 365.6, 375.8)">r</text><text xml:space="preserve" font-family="FiraMono-Regular,Fira Mono" font-size="22.0" fill="#0085B3" transform="matrix(1.00, 0.00, -0.00, -1.00, 378.8, 375.8)">u</text><text xml:space="preserve" font-family="FiraMono-Regular,Fira Mono" font-size="22.0" fill="#0085B3" transform="matrix(1.00, 0.00, -0.00, -1.00, 392.0, 375.8)">e</text><text xml:space="preserve" font-family="FiraMono-Regular,Fira Mono" font-size="22.0" fill="#323232" transform="matrix(1.00, 0.00, -0.00, -1.00, 405.2, 375.8)">)</text><text xml:space="preserve" font-family="FiraMono-Regular,Fira Mono" font-size="22.0" fill="#323232" transform="matrix(1.00, 0.00, -0.00, -1.00, 418.4, 375.8)"> </text><text xml:space="preserve" font-family="FiraMono-Regular,Fira Mono" font-size="22.0" fill="#323232" transform="matrix(1.00, 0.00, -0.00, -1.00, 431.6, 375.8)"> </text></g></g><g><clipPath id="clip0x61000d4bdd60"><path d="M 53.4 334.8 L 486.9 334.8 L 486.9 534.8 L 53.4 534.8 Z M 53.4 334.8 "></path></clipPath><g clip-path="url(#clip0x61000d4bdd60)"><text xml:space="preserve" font-family="FiraMono-Regular,Fira Mono" font-size="22.0" fill="#323232" transform="matrix(1.00, 0.00, -0.00, -1.00, 62.0, 341.8)"> </text><text xml:space="preserve" font-family="FiraMono-Regular,Fira Mono" font-size="22.0" fill="#323232" transform="matrix(1.00, 0.00, -0.00, -1.00, 75.2, 341.8)"> </text><text xml:space="preserve" font-family="FiraMono-Regular,Fira Mono" font-size="22.0" fill="#323232" transform="matrix(1.00, 0.00, -0.00, -1.00, 88.4, 341.8)">(</text><text xml:space="preserve" font-family="FiraMono-Bold,Fira Mono" font-weight="bold" font-size="22.0" fill="#003F7F" transform="matrix(1.00, 0.00, -0.00, -1.00, 101.6, 341.8)">p</text><text xml:space="preserve" font-family="FiraMono-Bold,Fira Mono" font-weight="bold" font-size="22.0" fill="#003F7F" transform="matrix(1.00, 0.00, -0.00, -1.00, 114.8, 341.8)">r</text><text xml:space="preserve" font-family="FiraMono-Bold,Fira Mono" font-weight="bold" font-size="22.0" fill="#003F7F" transform="matrix(1.00, 0.00, -0.00, -1.00, 128.0, 341.8)">e</text><text xml:space="preserve" font-family="FiraMono-Bold,Fira Mono" font-weight="bold" font-size="22.0" fill="#003F7F" transform="matrix(1.00, 0.00, -0.00, -1.00, 141.2, 341.8)">d</text><text xml:space="preserve" font-family="FiraMono-Bold,Fira Mono" font-weight="bold" font-size="22.0" fill="#003F7F" transform="matrix(1.00, 0.00, -0.00, -1.00, 154.4, 341.8)">i</text><text xml:space="preserve" font-family="FiraMono-Bold,Fira Mono" font-weight="bold" font-size="22.0" fill="#003F7F" transform="matrix(1.00, 0.00, -0.00, -1.00, 167.6, 341.8)">c</text><text xml:space="preserve" font-family="FiraMono-Bold,Fira Mono" font-weight="bold" font-size="22.0" fill="#003F7F" transform="matrix(1.00, 0.00, -0.00, -1.00, 180.8, 341.8)">t</text><text xml:space="preserve" font-family="FiraMono-Regular,Fira Mono" font-size="22.0" fill="#323232" transform="matrix(1.00, 0.00, -0.00, -1.00, 194.0, 341.8)"> </text><text xml:space="preserve" font-family="FiraMono-Regular,Fira Mono" font-size="22.0" fill="#323232" transform="matrix(1.00, 0.00, -0.00, -1.00, 207.2, 341.8)">b</text><text xml:space="preserve" font-family="FiraMono-Regular,Fira Mono" font-size="22.0" fill="#323232" transform="matrix(1.00, 0.00, -0.00, -1.00, 220.4, 341.8)">i</text><text xml:space="preserve" font-family="FiraMono-Regular,Fira Mono" font-size="22.0" fill="#323232" transform="matrix(1.00, 0.00, -0.00, -1.00, 233.6, 341.8)">a</text><text xml:space="preserve" font-family="FiraMono-Regular,Fira Mono" font-size="22.0" fill="#323232" transform="matrix(1.00, 0.00, -0.00, -1.00, 246.8, 341.8)">s</text><text xml:space="preserve" font-family="FiraMono-Regular,Fira Mono" font-size="22.0" fill="#323232" transform="matrix(1.00, 0.00, -0.00, -1.00, 260.0, 341.8)">)</text><text xml:space="preserve" font-family="FiraMono-Regular,Fira Mono" font-size="22.0" fill="#323232" transform="matrix(1.00, 0.00, -0.00, -1.00, 273.2, 341.8)">)</text></g></g><text xml:space="preserve" font-family="FiraSans-Light,Fira Sans" font-size="60.0" fill="#20313F" transform="matrix(1.00, 0.00, -0.00, -1.00, 225.5, 665.0)">I</text><text xml:space="preserve" font-family="FiraSans-Light,Fira Sans" font-size="60.0" fill="#20313F" transform="matrix(1.00, 0.00, -0.00, -1.00, 242.4, 665.0)">m</text><text xml:space="preserve" font-family="FiraSans-Light,Fira Sans" font-size="60.0" fill="#20313F" transform="matrix(1.00, 0.00, -0.00, -1.00, 293.6, 665.0)">p</text><text xml:space="preserve" font-family="FiraSans-Light,Fira Sans" font-size="60.0" fill="#20313F" transform="matrix(1.00, 0.00, -0.00, -1.00, 328.4, 665.0)">o</text><text xml:space="preserve" font-family="FiraSans-Light,Fira Sans" font-size="60.0" fill="#20313F" transform="matrix(1.00, 0.00, -0.00, -1.00, 362.7, 665.0)">r</text><text xml:space="preserve" font-family="FiraSans-Light,Fira Sans" font-size="60.0" fill="#20313F" transform="matrix(1.00, 0.00, -0.00, -1.00, 385.7, 665.0)">t</text><text xml:space="preserve" font-family="FiraSans-Light,Fira Sans" font-size="60.0" fill="#20313F" transform="matrix(1.00, 0.00, -0.00, -1.00, 406.1, 665.0)">a</text><text xml:space="preserve" font-family="FiraSans-Light,Fira Sans" font-size="60.0" fill="#20313F" transform="matrix(1.00, 0.00, -0.00, -1.00, 438.3, 665.0)">n</text><text xml:space="preserve" font-family="FiraSans-Light,Fira Sans" font-size="60.0" fill="#20313F" transform="matrix(1.00, 0.00, -0.00, -1.00, 473.3, 665.0)">c</text><text xml:space="preserve" font-family="FiraSans-Light,Fira Sans" font-size="60.0" fill="#20313F" transform="matrix(1.00, 0.00, -0.00, -1.00, 500.9, 665.0)">e</text><text xml:space="preserve" font-family="FiraSans-Light,Fira Sans" font-size="60.0" fill="#20313F" transform="matrix(1.00, 0.00, -0.00, -1.00, 533.1, 665.0)"> </text><text xml:space="preserve" font-family="FiraSans-Light,Fira Sans" font-size="60.0" fill="#20313F" transform="matrix(1.00, 0.00, -0.00, -1.00, 549.9, 665.0)">S</text><text xml:space="preserve" font-family="FiraSans-Light,Fira Sans" font-size="60.0" fill="#20313F" transform="matrix(1.00, 0.00, -0.00, -1.00, 582.2, 665.0)">a</text><text xml:space="preserve" font-family="FiraSans-Light,Fira Sans" font-size="60.0" fill="#20313F" transform="matrix(1.00, 0.00, -0.00, -1.00, 614.4, 665.0)">m</text><text xml:space="preserve" font-family="FiraSans-Light,Fira Sans" font-size="60.0" fill="#20313F" transform="matrix(1.00, 0.00, -0.00, -1.00, 665.6, 665.0)">p</text><text xml:space="preserve" font-family="FiraSans-Light,Fira Sans" font-size="60.0" fill="#20313F" transform="matrix(1.00, 0.00, -0.00, -1.00, 700.4, 665.0)">l</text><text xml:space="preserve" font-family="FiraSans-Light,Fira Sans" font-size="60.0" fill="#20313F" transform="matrix(1.00, 0.00, -0.00, -1.00, 717.5, 665.0)">i</text><text xml:space="preserve" font-family="FiraSans-Light,Fira Sans" font-size="60.0" fill="#20313F" transform="matrix(1.00, 0.00, -0.00, -1.00, 733.7, 665.0)">n</text><text xml:space="preserve" font-family="FiraSans-Light,Fira Sans" font-size="60.0" fill="#20313F" transform="matrix(1.00, 0.00, -0.00, -1.00, 768.7, 665.0)">g</text><text xml:space="preserve" font-family="FiraSans-Medium,Fira Sans" font-size="32.0" fill="#2A4054" transform="matrix(1.00, 0.00, -0.00, -1.00, 54.0, 579.7)">P</text><text xml:space="preserve" font-family="FiraSans-Medium,Fira Sans" font-size="32.0" fill="#2A4054" transform="matrix(1.00, 0.00, -0.00, -1.00, 72.9, 579.7)">r</text><text xml:space="preserve" font-family="FiraSans-Medium,Fira Sans" font-size="32.0" fill="#2A4054" transform="matrix(1.00, 0.00, -0.00, -1.00, 85.2, 579.7)">o</text><text xml:space="preserve" font-family="FiraSans-Medium,Fira Sans" font-size="32.0" fill="#2A4054" transform="matrix(1.00, 0.00, -0.00, -1.00, 103.9, 579.7)">g</text><text xml:space="preserve" font-family="FiraSans-Medium,Fira Sans" font-size="32.0" fill="#2A4054" transform="matrix(1.00, 0.00, -0.00, -1.00, 121.0, 579.7)">r</text><text xml:space="preserve" font-family="FiraSans-Medium,Fira Sans" font-size="32.0" fill="#2A4054" transform="matrix(1.00, 0.00, -0.00, -1.00, 133.0, 579.7)">a</text><text xml:space="preserve" font-family="FiraSans-Medium,Fira Sans" font-size="32.0" fill="#2A4054" transform="matrix(1.00, 0.00, -0.00, -1.00, 150.5, 579.7)">m</text><text xml:space="preserve" font-family="FiraSans-Medium,Fira Sans" font-size="32.0" fill="#2A4054" transform="matrix(1.00, 0.00, -0.00, -1.00, 53.0, 249.7)">P</text><text xml:space="preserve" font-family="FiraSans-Medium,Fira Sans" font-size="32.0" fill="#2A4054" transform="matrix(1.00, 0.00, -0.00, -1.00, 71.2, 249.7)">o</text><text xml:space="preserve" font-family="FiraSans-Medium,Fira Sans" font-size="32.0" fill="#2A4054" transform="matrix(1.00, 0.00, -0.00, -1.00, 89.9, 249.7)">s</text><text xml:space="preserve" font-family="FiraSans-Medium,Fira Sans" font-size="32.0" fill="#2A4054" transform="matrix(1.00, 0.00, -0.00, -1.00, 105.2, 249.7)">t</text><text xml:space="preserve" font-family="FiraSans-Medium,Fira Sans" font-size="32.0" fill="#2A4054" transform="matrix(1.00, 0.00, -0.00, -1.00, 116.8, 249.7)">e</text><text xml:space="preserve" font-family="FiraSans-Medium,Fira Sans" font-size="32.0" fill="#2A4054" transform="matrix(1.00, 0.00, -0.00, -1.00, 134.5, 249.7)">r</text><text xml:space="preserve" font-family="FiraSans-Medium,Fira Sans" font-size="32.0" fill="#2A4054" transform="matrix(1.00, 0.00, -0.00, -1.00, 147.1, 249.7)">i</text><text xml:space="preserve" font-family="FiraSans-Medium,Fira Sans" font-size="32.0" fill="#2A4054" transform="matrix(1.00, 0.00, -0.00, -1.00, 156.1, 249.7)">o</text><text xml:space="preserve" font-family="FiraSans-Medium,Fira Sans" font-size="32.0" fill="#2A4054" transform="matrix(1.00, 0.00, -0.00, -1.00, 174.8, 249.7)">r</text><path d="M 51.0 218.0 L 480.0 218.0 L 480.0 142.0 L 51.0 142.0 Z M 51.0 217.6 " fill="#FEFFFE"></path><image xlink:href="../../426CB332-40E7-458B-8CE9-D6870A3F26FD/assets/8F735135DBBDF55E36D618616EBB9BCF.png" width="435.00" height="85.00" transform="matrix(1.00, 0.00, -0.00, 1.00, 48.0, 134.4)"></image><text xml:space="preserve" font-family="FiraSans-MediumItalic,Fira Sans" font-style="italic" font-size="28.0" fill="#2A4054" transform="matrix(1.00, 0.00, -0.00, -1.00, 543.0, 576.2)">S</text><text xml:space="preserve" font-family="FiraSans-MediumItalic,Fira Sans" font-style="italic" font-size="28.0" fill="#2A4054" transform="matrix(1.00, 0.00, -0.00, -1.00, 558.4, 576.2)">a</text><text xml:space="preserve" font-family="FiraSans-MediumItalic,Fira Sans" font-style="italic" font-size="28.0" fill="#2A4054" transform="matrix(1.00, 0.00, -0.00, -1.00, 574.4, 576.2)">m</text><text xml:space="preserve" font-family="FiraSans-MediumItalic,Fira Sans" font-style="italic" font-size="28.0" fill="#2A4054" transform="matrix(1.00, 0.00, -0.00, -1.00, 597.9, 576.2)">p</text><text xml:space="preserve" font-family="FiraSans-MediumItalic,Fira Sans" font-style="italic" font-size="28.0" fill="#2A4054" transform="matrix(1.00, 0.00, -0.00, -1.00, 614.4, 576.2)">l</text><text xml:space="preserve" font-family="FiraSans-MediumItalic,Fira Sans" font-style="italic" font-size="28.0" fill="#2A4054" transform="matrix(1.00, 0.00, -0.00, -1.00, 622.2, 576.2)">e</text><text xml:space="preserve" font-family="FiraSans-MediumItalic,Fira Sans" font-style="italic" font-size="28.0" fill="#2A4054" transform="matrix(1.00, 0.00, -0.00, -1.00, 637.1, 576.2)"> </text><text xml:space="preserve" font-family="FiraSans-MediumItalic,Fira Sans" font-style="italic" font-size="28.0" fill="#2A4054" transform="matrix(1.00, 0.00, -0.00, -1.00, 643.8, 576.2)">f</text><text xml:space="preserve" font-family="FiraSans-MediumItalic,Fira Sans" font-style="italic" font-size="28.0" fill="#2A4054" transform="matrix(1.00, 0.00, -0.00, -1.00, 653.3, 576.2)">r</text><text xml:space="preserve" font-family="FiraSans-MediumItalic,Fira Sans" font-style="italic" font-size="28.0" fill="#2A4054" transform="matrix(1.00, 0.00, -0.00, -1.00, 663.9, 576.2)">o</text><text xml:space="preserve" font-family="FiraSans-MediumItalic,Fira Sans" font-style="italic" font-size="28.0" fill="#2A4054" transform="matrix(1.00, 0.00, -0.00, -1.00, 680.0, 576.2)">m</text><text xml:space="preserve" font-family="FiraSans-MediumItalic,Fira Sans" font-style="italic" font-size="28.0" fill="#2A4054" transform="matrix(1.00, 0.00, -0.00, -1.00, 703.5, 576.2)"> </text><text xml:space="preserve" font-family="FiraSans-MediumItalic,Fira Sans" font-style="italic" font-size="28.0" fill="#2A4054" transform="matrix(1.00, 0.00, -0.00, -1.00, 710.3, 576.2)">P</text><text xml:space="preserve" font-family="FiraSans-MediumItalic,Fira Sans" font-style="italic" font-size="28.0" fill="#2A4054" transform="matrix(1.00, 0.00, -0.00, -1.00, 726.6, 576.2)">r</text><text xml:space="preserve" font-family="FiraSans-MediumItalic,Fira Sans" font-style="italic" font-size="28.0" fill="#2A4054" transform="matrix(1.00, 0.00, -0.00, -1.00, 737.4, 576.2)">i</text><text xml:space="preserve" font-family="FiraSans-MediumItalic,Fira Sans" font-style="italic" font-size="28.0" fill="#2A4054" transform="matrix(1.00, 0.00, -0.00, -1.00, 745.2, 576.2)">o</text><text xml:space="preserve" font-family="FiraSans-MediumItalic,Fira Sans" font-style="italic" font-size="28.0" fill="#2A4054" transform="matrix(1.00, 0.00, -0.00, -1.00, 761.4, 576.2)">r</text><text xml:space="preserve" font-family="FiraSans-MediumItalic,Fira Sans" font-style="italic" font-size="28.0" fill="#2A4054" transform="matrix(1.00, 0.00, -0.00, -1.00, 543.0, 371.2)">E</text><text xml:space="preserve" font-family="FiraSans-MediumItalic,Fira Sans" font-style="italic" font-size="28.0" fill="#2A4054" transform="matrix(1.00, 0.00, -0.00, -1.00, 557.6, 371.2)">v</text><text xml:space="preserve" font-family="FiraSans-MediumItalic,Fira Sans" font-style="italic" font-size="28.0" fill="#2A4054" transform="matrix(1.00, 0.00, -0.00, -1.00, 571.2, 371.2)">a</text><text xml:space="preserve" font-family="FiraSans-MediumItalic,Fira Sans" font-style="italic" font-size="28.0" fill="#2A4054" transform="matrix(1.00, 0.00, -0.00, -1.00, 587.2, 371.2)">l</text><text xml:space="preserve" font-family="FiraSans-MediumItalic,Fira Sans" font-style="italic" font-size="28.0" fill="#2A4054" transform="matrix(1.00, 0.00, -0.00, -1.00, 595.3, 371.2)">u</text><text xml:space="preserve" font-family="FiraSans-MediumItalic,Fira Sans" font-style="italic" font-size="28.0" fill="#2A4054" transform="matrix(1.00, 0.00, -0.00, -1.00, 611.2, 371.2)">a</text><text xml:space="preserve" font-family="FiraSans-MediumItalic,Fira Sans" font-style="italic" font-size="28.0" fill="#2A4054" transform="matrix(1.00, 0.00, -0.00, -1.00, 627.2, 371.2)">t</text><text xml:space="preserve" font-family="FiraSans-MediumItalic,Fira Sans" font-style="italic" font-size="28.0" fill="#2A4054" transform="matrix(1.00, 0.00, -0.00, -1.00, 637.2, 371.2)">e</text><text xml:space="preserve" font-family="FiraSans-MediumItalic,Fira Sans" font-style="italic" font-size="28.0" fill="#2A4054" transform="matrix(1.00, 0.00, -0.00, -1.00, 652.0, 371.2)"> </text><text xml:space="preserve" font-family="FiraSans-MediumItalic,Fira Sans" font-style="italic" font-size="28.0" fill="#2A4054" transform="matrix(1.00, 0.00, -0.00, -1.00, 658.8, 371.2)">L</text><text xml:space="preserve" font-family="FiraSans-MediumItalic,Fira Sans" font-style="italic" font-size="28.0" fill="#2A4054" transform="matrix(1.00, 0.00, -0.00, -1.00, 672.8, 371.2)">i</text><text xml:space="preserve" font-family="FiraSans-MediumItalic,Fira Sans" font-style="italic" font-size="28.0" fill="#2A4054" transform="matrix(1.00, 0.00, -0.00, -1.00, 680.6, 371.2)">k</text><text xml:space="preserve" font-family="FiraSans-MediumItalic,Fira Sans" font-style="italic" font-size="28.0" fill="#2A4054" transform="matrix(1.00, 0.00, -0.00, -1.00, 695.9, 371.2)">e</text><text xml:space="preserve" font-family="FiraSans-MediumItalic,Fira Sans" font-style="italic" font-size="28.0" fill="#2A4054" transform="matrix(1.00, 0.00, -0.00, -1.00, 710.7, 371.2)">l</text><text xml:space="preserve" font-family="FiraSans-MediumItalic,Fira Sans" font-style="italic" font-size="28.0" fill="#2A4054" transform="matrix(1.00, 0.00, -0.00, -1.00, 718.8, 371.2)">i</text><text xml:space="preserve" font-family="FiraSans-MediumItalic,Fira Sans" font-style="italic" font-size="28.0" fill="#2A4054" transform="matrix(1.00, 0.00, -0.00, -1.00, 726.6, 371.2)">h</text><text xml:space="preserve" font-family="FiraSans-MediumItalic,Fira Sans" font-style="italic" font-size="28.0" fill="#2A4054" transform="matrix(1.00, 0.00, -0.00, -1.00, 742.6, 371.2)">o</text><text xml:space="preserve" font-family="FiraSans-MediumItalic,Fira Sans" font-style="italic" font-size="28.0" fill="#2A4054" transform="matrix(1.00, 0.00, -0.00, -1.00, 758.8, 371.2)">o</text><text xml:space="preserve" font-family="FiraSans-MediumItalic,Fira Sans" font-style="italic" font-size="28.0" fill="#2A4054" transform="matrix(1.00, 0.00, -0.00, -1.00, 774.9, 371.2)">d</text><text xml:space="preserve" font-family="FiraSans-Light,Fira Sans" font-size="28.0" fill="#2A4054" transform="matrix(1.00, 0.00, -0.00, -1.00, 560.0, 480.7)">R</text><text xml:space="preserve" font-family="FiraSans-Light,Fira Sans" font-size="28.0" fill="#2A4054" transform="matrix(1.00, 0.00, -0.00, -1.00, 576.5, 480.7)">u</text><text xml:space="preserve" font-family="FiraSans-Light,Fira Sans" font-size="28.0" fill="#2A4054" transform="matrix(1.00, 0.00, -0.00, -1.00, 592.7, 480.7)">n</text><text xml:space="preserve" font-family="FiraSans-Light,Fira Sans" font-size="28.0" fill="#2A4054" transform="matrix(1.00, 0.00, -0.00, -1.00, 609.1, 480.7)"> </text><text xml:space="preserve" font-family="FiraSans-Light,Fira Sans" font-size="28.0" fill="#2A4054" transform="matrix(1.00, 0.00, -0.00, -1.00, 616.9, 480.7)">t</text><text xml:space="preserve" font-family="FiraSans-Light,Fira Sans" font-size="28.0" fill="#2A4054" transform="matrix(1.00, 0.00, -0.00, -1.00, 626.4, 480.7)">h</text><text xml:space="preserve" font-family="FiraSans-Light,Fira Sans" font-size="28.0" fill="#2A4054" transform="matrix(1.00, 0.00, -0.00, -1.00, 642.8, 480.7)">e</text><text xml:space="preserve" font-family="FiraSans-Light,Fira Sans" font-size="28.0" fill="#2A4054" transform="matrix(1.00, 0.00, -0.00, -1.00, 657.8, 480.7)"> </text><text xml:space="preserve" font-family="FiraSans-Light,Fira Sans" font-size="28.0" fill="#2A4054" transform="matrix(1.00, 0.00, -0.00, -1.00, 665.6, 480.7)">p</text><text xml:space="preserve" font-family="FiraSans-Light,Fira Sans" font-size="28.0" fill="#2A4054" transform="matrix(1.00, 0.00, -0.00, -1.00, 681.9, 480.7)">r</text><text xml:space="preserve" font-family="FiraSans-Light,Fira Sans" font-size="28.0" fill="#2A4054" transform="matrix(1.00, 0.00, -0.00, -1.00, 692.1, 480.7)">o</text><text xml:space="preserve" font-family="FiraSans-Light,Fira Sans" font-size="28.0" fill="#2A4054" transform="matrix(1.00, 0.00, -0.00, -1.00, 708.1, 480.7)">g</text><text xml:space="preserve" font-family="FiraSans-Light,Fira Sans" font-size="28.0" fill="#2A4054" transform="matrix(1.00, 0.00, -0.00, -1.00, 722.1, 480.7)">r</text><text xml:space="preserve" font-family="FiraSans-Light,Fira Sans" font-size="28.0" fill="#2A4054" transform="matrix(1.00, 0.00, -0.00, -1.00, 732.0, 480.7)">a</text><text xml:space="preserve" font-family="FiraSans-Light,Fira Sans" font-size="28.0" fill="#2A4054" transform="matrix(1.00, 0.00, -0.00, -1.00, 747.0, 480.7)">m</text><text xml:space="preserve" font-family="FiraSans-Light,Fira Sans" font-size="28.0" fill="#2A4054" transform="matrix(1.00, 0.00, -0.00, -1.00, 770.9, 480.7)"> </text><text xml:space="preserve" font-family="FiraSans-Light,Fira Sans" font-size="28.0" fill="#2A4054" transform="matrix(1.00, 0.00, -0.00, -1.00, 778.7, 480.7)">t</text><text xml:space="preserve" font-family="FiraSans-Light,Fira Sans" font-size="28.0" fill="#2A4054" transform="matrix(1.00, 0.00, -0.00, -1.00, 788.0, 480.7)">o</text><text xml:space="preserve" font-family="FiraSans-Light,Fira Sans" font-size="28.0" fill="#2A4054" transform="matrix(1.00, 0.00, -0.00, -1.00, 804.0, 480.7)"> </text><text xml:space="preserve" font-family="FiraSans-Light,Fira Sans" font-size="28.0" fill="#2A4054" transform="matrix(1.00, 0.00, -0.00, -1.00, 811.8, 480.7)">g</text><text xml:space="preserve" font-family="FiraSans-Light,Fira Sans" font-size="28.0" fill="#2A4054" transform="matrix(1.00, 0.00, -0.00, -1.00, 825.5, 480.7)">e</text><text xml:space="preserve" font-family="FiraSans-Light,Fira Sans" font-size="28.0" fill="#2A4054" transform="matrix(1.00, 0.00, -0.00, -1.00, 840.5, 480.7)">n</text><text xml:space="preserve" font-family="FiraSans-Light,Fira Sans" font-size="28.0" fill="#2A4054" transform="matrix(1.00, 0.00, -0.00, -1.00, 856.9, 480.7)">e</text><text xml:space="preserve" font-family="FiraSans-Light,Fira Sans" font-size="28.0" fill="#2A4054" transform="matrix(1.00, 0.00, -0.00, -1.00, 871.9, 480.7)">r</text><text xml:space="preserve" font-family="FiraSans-Light,Fira Sans" font-size="28.0" fill="#2A4054" transform="matrix(1.00, 0.00, -0.00, -1.00, 881.8, 480.7)">a</text><text xml:space="preserve" font-family="FiraSans-Light,Fira Sans" font-size="28.0" fill="#2A4054" transform="matrix(1.00, 0.00, -0.00, -1.00, 896.8, 480.7)">t</text><text xml:space="preserve" font-family="FiraSans-Light,Fira Sans" font-size="28.0" fill="#2A4054" transform="matrix(1.00, 0.00, -0.00, -1.00, 906.1, 480.7)">e</text><text xml:space="preserve" font-family="FiraSans-Light,Fira Sans" font-size="28.0" fill="#2A4054" transform="matrix(1.00, 0.00, -0.00, -1.00, 921.2, 480.7)"> </text><text xml:space="preserve" font-family="LucidaGrande,Lucida Grande" font-size="28.0" fill="#2A4054" transform="matrix(1.00, 0.00, -0.00, -1.00, 929.0, 480.7)"> </text><text xml:space="preserve" font-family="FiraSans-Light,Fira Sans" font-size="28.0" fill="#2A4054" transform="matrix(1.00, 0.00, -0.00, -1.00, 560.0, 437.7)">a</text><text xml:space="preserve" font-family="FiraSans-Light,Fira Sans" font-size="28.0" fill="#2A4054" transform="matrix(1.00, 0.00, -0.00, -1.00, 575.0, 437.7)"> </text><text xml:space="preserve" font-family="FiraSans-Light,Fira Sans" font-size="28.0" fill="#2A4054" transform="matrix(1.00, 0.00, -0.00, -1.00, 582.8, 437.7)">v</text><text xml:space="preserve" font-family="FiraSans-Light,Fira Sans" font-size="28.0" fill="#2A4054" transform="matrix(1.00, 0.00, -0.00, -1.00, 596.0, 437.7)">a</text><text xml:space="preserve" font-family="FiraSans-Light,Fira Sans" font-size="28.0" fill="#2A4054" transform="matrix(1.00, 0.00, -0.00, -1.00, 611.0, 437.7)">l</text><text xml:space="preserve" font-family="FiraSans-Light,Fira Sans" font-size="28.0" fill="#2A4054" transform="matrix(1.00, 0.00, -0.00, -1.00, 618.9, 437.7)">u</text><text xml:space="preserve" font-family="FiraSans-Light,Fira Sans" font-size="28.0" fill="#2A4054" transform="matrix(1.00, 0.00, -0.00, -1.00, 635.1, 437.7)">e</text><text xml:space="preserve" font-family="FiraSans-Light,Fira Sans" font-size="28.0" fill="#2A4054" transform="matrix(1.00, 0.00, -0.00, -1.00, 650.2, 437.7)"> </text><text xml:space="preserve" font-family="FiraSans-Light,Fira Sans" font-size="28.0" fill="#2A4054" transform="matrix(1.00, 0.00, -0.00, -1.00, 658.0, 437.7)">f</text><text xml:space="preserve" font-family="FiraSans-Light,Fira Sans" font-size="28.0" fill="#2A4054" transform="matrix(1.00, 0.00, -0.00, -1.00, 666.7, 437.7)">o</text><text xml:space="preserve" font-family="FiraSans-Light,Fira Sans" font-size="28.0" fill="#2A4054" transform="matrix(1.00, 0.00, -0.00, -1.00, 682.7, 437.7)">r</text><text xml:space="preserve" font-family="FiraSans-Light,Fira Sans" font-size="28.0" fill="#2A4054" transform="matrix(1.00, 0.00, -0.00, -1.00, 693.1, 437.7)"> </text><text xml:space="preserve" font-family="FiraSans-Light,Fira Sans" font-size="28.0" fill="#2A4054" transform="matrix(1.00, 0.00, -0.00, -1.00, 701.0, 437.7)">e</text><text xml:space="preserve" font-family="FiraSans-Light,Fira Sans" font-size="28.0" fill="#2A4054" transform="matrix(1.00, 0.00, -0.00, -1.00, 716.0, 437.7)">a</text><text xml:space="preserve" font-family="FiraSans-Light,Fira Sans" font-size="28.0" fill="#2A4054" transform="matrix(1.00, 0.00, -0.00, -1.00, 731.0, 437.7)">c</text><text xml:space="preserve" font-family="FiraSans-Light,Fira Sans" font-size="28.0" fill="#2A4054" transform="matrix(1.00, 0.00, -0.00, -1.00, 744.2, 437.7)">h</text><text xml:space="preserve" font-family="FiraSans-Light,Fira Sans" font-size="28.0" fill="#2A4054" transform="matrix(1.00, 0.00, -0.00, -1.00, 760.5, 437.7)"> </text><text xml:space="preserve" font-family="FiraSans-SemiBold,Fira Sans" font-weight="bold" font-size="28.0" fill="#54A800" transform="matrix(1.00, 0.00, -0.00, -1.00, 768.3, 437.7)">s</text><text xml:space="preserve" font-family="FiraSans-SemiBold,Fira Sans" font-weight="bold" font-size="28.0" fill="#54A800" transform="matrix(1.00, 0.00, -0.00, -1.00, 781.7, 437.7)">a</text><text xml:space="preserve" font-family="FiraSans-SemiBold,Fira Sans" font-weight="bold" font-size="28.0" fill="#54A800" transform="matrix(1.00, 0.00, -0.00, -1.00, 797.0, 437.7)">m</text><text xml:space="preserve" font-family="FiraSans-SemiBold,Fira Sans" font-weight="bold" font-size="28.0" fill="#54A800" transform="matrix(1.00, 0.00, -0.00, -1.00, 820.8, 437.7)">p</text><text xml:space="preserve" font-family="FiraSans-SemiBold,Fira Sans" font-weight="bold" font-size="28.0" fill="#54A800" transform="matrix(1.00, 0.00, -0.00, -1.00, 837.5, 437.7)">l</text><text xml:space="preserve" font-family="FiraSans-SemiBold,Fira Sans" font-weight="bold" font-size="28.0" fill="#54A800" transform="matrix(1.00, 0.00, -0.00, -1.00, 845.5, 437.7)">e</text><text xml:space="preserve" font-family="FiraSans-Light,Fira Sans" font-size="28.0" fill="#2A4054" transform="matrix(1.00, 0.00, -0.00, -1.00, 563.0, 267.7)">A</text><text xml:space="preserve" font-family="FiraSans-Light,Fira Sans" font-size="28.0" fill="#2A4054" transform="matrix(1.00, 0.00, -0.00, -1.00, 578.7, 267.7)">c</text><text xml:space="preserve" font-family="FiraSans-Light,Fira Sans" font-size="28.0" fill="#2A4054" transform="matrix(1.00, 0.00, -0.00, -1.00, 591.5, 267.7)">c</text><text xml:space="preserve" font-family="FiraSans-Light,Fira Sans" font-size="28.0" fill="#2A4054" transform="matrix(1.00, 0.00, -0.00, -1.00, 604.6, 267.7)">u</text><text xml:space="preserve" font-family="FiraSans-Light,Fira Sans" font-size="28.0" fill="#2A4054" transform="matrix(1.00, 0.00, -0.00, -1.00, 620.8, 267.7)">m</text><text xml:space="preserve" font-family="FiraSans-Light,Fira Sans" font-size="28.0" fill="#2A4054" transform="matrix(1.00, 0.00, -0.00, -1.00, 644.7, 267.7)">u</text><text xml:space="preserve" font-family="FiraSans-Light,Fira Sans" font-size="28.0" fill="#2A4054" transform="matrix(1.00, 0.00, -0.00, -1.00, 660.9, 267.7)">l</text><text xml:space="preserve" font-family="FiraSans-Light,Fira Sans" font-size="28.0" fill="#2A4054" transform="matrix(1.00, 0.00, -0.00, -1.00, 668.9, 267.7)">a</text><text xml:space="preserve" font-family="FiraSans-Light,Fira Sans" font-size="28.0" fill="#2A4054" transform="matrix(1.00, 0.00, -0.00, -1.00, 683.9, 267.7)">t</text><text xml:space="preserve" font-family="FiraSans-Light,Fira Sans" font-size="28.0" fill="#2A4054" transform="matrix(1.00, 0.00, -0.00, -1.00, 693.2, 267.7)">e</text><text xml:space="preserve" font-family="FiraSans-Light,Fira Sans" font-size="28.0" fill="#2A4054" transform="matrix(1.00, 0.00, -0.00, -1.00, 708.2, 267.7)"> </text><text xml:space="preserve" font-family="FiraSans-Light,Fira Sans" font-size="28.0" fill="#2A4054" transform="matrix(1.00, 0.00, -0.00, -1.00, 716.0, 267.7)">p</text><text xml:space="preserve" font-family="FiraSans-Light,Fira Sans" font-size="28.0" fill="#2A4054" transform="matrix(1.00, 0.00, -0.00, -1.00, 732.3, 267.7)">r</text><text xml:space="preserve" font-family="FiraSans-Light,Fira Sans" font-size="28.0" fill="#2A4054" transform="matrix(1.00, 0.00, -0.00, -1.00, 742.5, 267.7)">o</text><text xml:space="preserve" font-family="FiraSans-Light,Fira Sans" font-size="28.0" fill="#2A4054" transform="matrix(1.00, 0.00, -0.00, -1.00, 758.5, 267.7)">b</text><text xml:space="preserve" font-family="FiraSans-Light,Fira Sans" font-size="28.0" fill="#2A4054" transform="matrix(1.00, 0.00, -0.00, -1.00, 774.7, 267.7)">a</text><text xml:space="preserve" font-family="FiraSans-Light,Fira Sans" font-size="28.0" fill="#2A4054" transform="matrix(1.00, 0.00, -0.00, -1.00, 789.7, 267.7)">b</text><text xml:space="preserve" font-family="FiraSans-Light,Fira Sans" font-size="28.0" fill="#2A4054" transform="matrix(1.00, 0.00, -0.00, -1.00, 806.0, 267.7)">i</text><text xml:space="preserve" font-family="FiraSans-Light,Fira Sans" font-size="28.0" fill="#2A4054" transform="matrix(1.00, 0.00, -0.00, -1.00, 813.6, 267.7)">l</text><text xml:space="preserve" font-family="FiraSans-Light,Fira Sans" font-size="28.0" fill="#2A4054" transform="matrix(1.00, 0.00, -0.00, -1.00, 821.5, 267.7)">i</text><text xml:space="preserve" font-family="FiraSans-Light,Fira Sans" font-size="28.0" fill="#2A4054" transform="matrix(1.00, 0.00, -0.00, -1.00, 829.1, 267.7)">t</text><text xml:space="preserve" font-family="FiraSans-Light,Fira Sans" font-size="28.0" fill="#2A4054" transform="matrix(1.00, 0.00, -0.00, -1.00, 838.6, 267.7)">y</text><text xml:space="preserve" font-family="FiraSans-Light,Fira Sans" font-size="28.0" fill="#2A4054" transform="matrix(1.00, 0.00, -0.00, -1.00, 851.7, 267.7)"> </text><text xml:space="preserve" font-family="FiraSans-Light,Fira Sans" font-size="28.0" fill="#2A4054" transform="matrix(1.00, 0.00, -0.00, -1.00, 859.5, 267.7)">a</text><text xml:space="preserve" font-family="FiraSans-Light,Fira Sans" font-size="28.0" fill="#2A4054" transform="matrix(1.00, 0.00, -0.00, -1.00, 874.6, 267.7)">t</text><text xml:space="preserve" font-family="FiraSans-Light,Fira Sans" font-size="28.0" fill="#2A4054" transform="matrix(1.00, 0.00, -0.00, -1.00, 884.1, 267.7)"> </text><text xml:space="preserve" font-family="FiraSans-Light,Fira Sans" font-size="28.0" fill="#2A4054" transform="matrix(1.00, 0.00, -0.00, -1.00, 891.9, 267.7)">e</text><text xml:space="preserve" font-family="FiraSans-Light,Fira Sans" font-size="28.0" fill="#2A4054" transform="matrix(1.00, 0.00, -0.00, -1.00, 907.0, 267.7)">a</text><text xml:space="preserve" font-family="FiraSans-Light,Fira Sans" font-size="28.0" fill="#2A4054" transform="matrix(1.00, 0.00, -0.00, -1.00, 922.0, 267.7)">c</text><text xml:space="preserve" font-family="FiraSans-Light,Fira Sans" font-size="28.0" fill="#2A4054" transform="matrix(1.00, 0.00, -0.00, -1.00, 935.1, 267.7)">h</text><text xml:space="preserve" font-family="FiraSans-Light,Fira Sans" font-size="28.0" fill="#2A4054" transform="matrix(1.00, 0.00, -0.00, -1.00, 951.5, 267.7)"> </text><text xml:space="preserve" font-family="LucidaGrande,Lucida Grande" font-size="28.0" fill="#2A4054" transform="matrix(1.00, 0.00, -0.00, -1.00, 959.3, 267.7)"> </text><text xml:space="preserve" font-family="FiraSans-SemiBold,Fira Sans" font-weight="bold" font-size="28.0" fill="#B30002" transform="matrix(1.00, 0.00, -0.00, -1.00, 563.0, 224.7)">o</text><text xml:space="preserve" font-family="FiraSans-SemiBold,Fira Sans" font-weight="bold" font-size="28.0" fill="#B30002" transform="matrix(1.00, 0.00, -0.00, -1.00, 579.3, 224.7)">b</text><text xml:space="preserve" font-family="FiraSans-SemiBold,Fira Sans" font-weight="bold" font-size="28.0" fill="#B30002" transform="matrix(1.00, 0.00, -0.00, -1.00, 596.0, 224.7)">s</text><text xml:space="preserve" font-family="FiraSans-SemiBold,Fira Sans" font-weight="bold" font-size="28.0" fill="#B30002" transform="matrix(1.00, 0.00, -0.00, -1.00, 609.4, 224.7)">e</text><text xml:space="preserve" font-family="FiraSans-SemiBold,Fira Sans" font-weight="bold" font-size="28.0" fill="#B30002" transform="matrix(1.00, 0.00, -0.00, -1.00, 624.9, 224.7)">r</text><text xml:space="preserve" font-family="FiraSans-SemiBold,Fira Sans" font-weight="bold" font-size="28.0" fill="#B30002" transform="matrix(1.00, 0.00, -0.00, -1.00, 636.6, 224.7)">v</text><text xml:space="preserve" font-family="FiraSans-SemiBold,Fira Sans" font-weight="bold" font-size="28.0" fill="#B30002" transform="matrix(1.00, 0.00, -0.00, -1.00, 650.5, 224.7)">e</text><text xml:space="preserve" font-family="FiraSans-SemiBold,Fira Sans" font-weight="bold" font-size="28.0" fill="#B30002" transform="matrix(1.00, 0.00, -0.00, -1.00, 666.0, 224.7)"> </text><text xml:space="preserve" font-family="FiraSans-Light,Fira Sans" font-size="28.0" fill="#2A4054" transform="matrix(1.00, 0.00, -0.00, -1.00, 672.8, 224.7)">d</text><text xml:space="preserve" font-family="FiraSans-Light,Fira Sans" font-size="28.0" fill="#2A4054" transform="matrix(1.00, 0.00, -0.00, -1.00, 689.2, 224.7)">u</text><text xml:space="preserve" font-family="FiraSans-Light,Fira Sans" font-size="28.0" fill="#2A4054" transform="matrix(1.00, 0.00, -0.00, -1.00, 705.4, 224.7)">r</text><text xml:space="preserve" font-family="FiraSans-Light,Fira Sans" font-size="28.0" fill="#2A4054" transform="matrix(1.00, 0.00, -0.00, -1.00, 715.9, 224.7)">i</text><text xml:space="preserve" font-family="FiraSans-Light,Fira Sans" font-size="28.0" fill="#2A4054" transform="matrix(1.00, 0.00, -0.00, -1.00, 723.4, 224.7)">n</text><text xml:space="preserve" font-family="FiraSans-Light,Fira Sans" font-size="28.0" fill="#2A4054" transform="matrix(1.00, 0.00, -0.00, -1.00, 739.8, 224.7)">g</text><text xml:space="preserve" font-family="FiraSans-Light,Fira Sans" font-size="28.0" fill="#2A4054" transform="matrix(1.00, 0.00, -0.00, -1.00, 753.8, 224.7)"> </text><text xml:space="preserve" font-family="FiraSans-Light,Fira Sans" font-size="28.0" fill="#2A4054" transform="matrix(1.00, 0.00, -0.00, -1.00, 761.7, 224.7)">e</text><text xml:space="preserve" font-family="FiraSans-Light,Fira Sans" font-size="28.0" fill="#2A4054" transform="matrix(1.00, 0.00, -0.00, -1.00, 776.4, 224.7)">x</text><text xml:space="preserve" font-family="FiraSans-Light,Fira Sans" font-size="28.0" fill="#2A4054" transform="matrix(1.00, 0.00, -0.00, -1.00, 788.7, 224.7)">e</text><text xml:space="preserve" font-family="FiraSans-Light,Fira Sans" font-size="28.0" fill="#2A4054" transform="matrix(1.00, 0.00, -0.00, -1.00, 803.8, 224.7)">c</text><text xml:space="preserve" font-family="FiraSans-Light,Fira Sans" font-size="28.0" fill="#2A4054" transform="matrix(1.00, 0.00, -0.00, -1.00, 816.9, 224.7)">u</text><text xml:space="preserve" font-family="FiraSans-Light,Fira Sans" font-size="28.0" fill="#2A4054" transform="matrix(1.00, 0.00, -0.00, -1.00, 833.1, 224.7)">t</text><text xml:space="preserve" font-family="FiraSans-Light,Fira Sans" font-size="28.0" fill="#2A4054" transform="matrix(1.00, 0.00, -0.00, -1.00, 842.7, 224.7)">i</text><text xml:space="preserve" font-family="FiraSans-Light,Fira Sans" font-size="28.0" fill="#2A4054" transform="matrix(1.00, 0.00, -0.00, -1.00, 850.3, 224.7)">o</text><text xml:space="preserve" font-family="FiraSans-Light,Fira Sans" font-size="28.0" fill="#2A4054" transform="matrix(1.00, 0.00, -0.00, -1.00, 866.2, 224.7)">n</text><g><clipPath id="clip0x6000100b12e0"><path d="M 69.0 166.3 L 466.4 166.3 L 466.4 197.2 L 69.0 197.2 Z M 69.0 166.3 "></path></clipPath><g clip-path="url(#clip0x6000100b12e0)"><path d="M 76.9 187.7 L 72.5 186.8 L 72.5 186.0 L 74.9 185.7 L 71.7 167.9 L 71.4 167.6 L 69.6 167.2 L 69.6 166.3 L 77.0 166.3 L 77.0 167.2 L 74.0 167.7 L 75.1 173.4 C 75.8 173.0 76.6 172.8 77.4 172.8 C 79.5 172.8 81.6 173.8 83.2 175.5 C 84.9 177.5 85.8 179.7 85.8 182.4 C 85.8 185.8 84.3 187.7 81.9 187.7 C 80.6 187.7 79.1 187.1 77.3 185.8 L 77.7 187.7 L 76.9 187.7 Z M 75.4 175.0 L 77.1 184.5 C 78.5 185.6 79.6 186.1 80.5 186.1 C 82.2 186.1 83.3 184.7 83.3 182.3 C 83.3 179.9 82.4 177.4 81.4 176.1 C 80.5 174.8 79.3 174.2 78.0 174.2 C 77.1 174.2 76.3 174.5 75.4 175.0 " fill="#000000"></path><path d="M 92.6 181.8 C 92.6 190.1 95.1 194.3 98.6 194.9 L 98.6 196.3 C 93.5 195.7 90.0 191.0 90.0 181.8 C 90.0 172.5 93.5 167.8 98.6 167.2 L 98.6 168.6 C 95.1 169.2 92.6 173.4 92.6 181.8 " fill="#000000"></path><path d="M 106.8 188.1 L 102.6 186.7 L 102.6 185.7 L 105.4 185.5 C 105.9 184.6 106.6 182.8 107.5 180.0 C 106.4 177.8 105.2 176.3 103.9 175.5 L 102.6 177.1 C 101.4 176.8 100.6 175.9 100.6 174.9 C 100.6 173.8 101.6 172.9 102.8 172.9 C 104.6 172.9 106.2 174.7 108.2 178.4 C 109.0 174.5 109.9 172.8 112.3 172.8 C 113.2 172.8 114.5 173.1 116.3 173.6 L 116.3 174.8 C 115.7 174.7 115.2 174.6 114.7 174.6 C 112.6 174.6 112.2 176.6 110.9 181.1 C 112.0 183.3 113.1 184.7 114.3 185.2 L 115.5 183.6 C 116.7 183.9 117.4 184.8 117.4 185.9 C 117.4 187.0 116.7 187.8 115.5 187.8 C 113.8 187.8 112.0 186.1 110.2 182.6 C 109.3 186.3 108.7 188.1 107.0 188.1 C 106.9 188.1 106.8 188.1 106.8 188.1 " fill="#52A700"></path><path d="M 129.0 167.2 L 130.8 167.2 L 130.8 196.3 L 129.0 196.3 Z M 129.0 167.2 " fill="#000000"></path><path d="M 145.1 188.1 L 140.4 187.0 L 140.4 186.0 L 143.0 185.7 C 143.4 185.1 143.7 184.3 143.8 183.4 L 145.7 173.7 L 146.8 173.7 C 145.1 170.6 143.6 168.9 142.2 168.8 L 140.2 170.8 C 139.1 170.5 138.4 169.7 138.4 168.7 C 138.4 167.5 139.5 166.4 141.0 166.4 C 143.5 166.4 146.0 168.8 148.7 173.6 C 151.1 177.8 152.3 182.2 154.7 185.4 L 156.5 186.4 L 156.5 187.2 L 154.1 188.0 L 153.1 188.0 C 151.2 183.6 149.7 179.8 148.4 176.7 L 147.4 183.3 C 147.0 186.3 146.4 187.8 145.1 188.1 " fill="#B30000"></path><path d="M 166.4 181.8 C 166.4 173.4 163.9 169.2 160.4 168.6 L 160.4 167.2 C 165.5 167.8 169.0 172.5 169.0 181.8 C 169.0 191.0 165.5 195.7 160.4 196.3 L 160.4 194.9 C 163.9 194.3 166.4 190.1 166.4 181.8 " fill="#000000"></path><path d="M 179.6 184.1 L 200.2 184.1 L 200.2 186.0 L 179.6 186.0 L 179.6 184.1 Z M 179.6 177.5 L 200.2 177.5 L 200.2 179.4 L 179.6 179.4 L 179.6 177.5 " fill="#000000"></path><path d="M 215.8 187.7 L 211.4 186.8 L 211.4 186.0 L 213.8 185.7 L 210.6 167.9 L 210.3 167.6 L 208.5 167.2 L 208.5 166.3 L 215.8 166.3 L 215.8 167.2 L 212.9 167.7 L 213.9 173.4 C 214.7 173.0 215.5 172.8 216.3 172.8 C 218.4 172.8 220.6 173.8 222.1 175.5 C 223.9 177.5 224.7 179.7 224.7 182.4 C 224.7 185.8 223.2 187.7 220.8 187.7 C 219.5 187.7 218.0 187.1 216.2 185.8 L 216.6 187.7 L 215.8 187.7 Z M 214.2 175.0 L 216.0 184.5 C 217.4 185.6 218.5 186.1 219.4 186.1 C 221.1 186.1 222.2 184.7 222.2 182.3 C 222.2 179.9 221.3 177.4 220.3 176.1 C 219.4 174.8 218.2 174.2 216.9 174.2 C 216.0 174.2 215.2 174.5 214.2 175.0 " fill="#000000"></path><path d="M 231.5 181.8 C 231.5 190.1 234.0 194.3 237.5 194.9 L 237.5 196.3 C 232.4 195.7 228.9 191.0 228.9 181.8 C 228.9 172.5 232.4 167.8 237.5 167.2 L 237.5 168.6 C 234.0 169.2 231.5 173.4 231.5 181.8 " fill="#000000"></path><path d="M 245.8 188.1 L 241.1 187.0 L 241.1 186.0 L 243.7 185.7 C 244.1 185.1 244.4 184.3 244.5 183.4 L 246.4 173.7 L 247.5 173.7 C 245.8 170.6 244.3 168.9 242.9 168.8 L 240.9 170.8 C 239.8 170.5 239.1 169.7 239.1 168.7 C 239.1 167.5 240.2 166.4 241.7 166.4 C 244.2 166.4 246.8 168.8 249.4 173.6 C 251.8 177.8 253.0 182.2 255.4 185.4 L 257.2 186.4 L 257.2 187.2 L 254.8 188.0 L 253.8 188.0 C 251.9 183.6 250.4 179.8 249.2 176.7 L 248.1 183.3 C 247.7 186.3 247.1 187.8 245.8 188.1 " fill="#B30000"></path><path d="M 267.2 167.2 L 269.0 167.2 L 269.0 196.3 L 267.2 196.3 Z M 267.2 167.2 " fill="#000000"></path><path d="M 283.2 188.1 L 279.0 186.7 L 279.0 185.7 L 281.8 185.5 C 282.4 184.6 283.0 182.8 283.9 180.0 C 282.8 177.8 281.6 176.3 280.3 175.5 L 279.0 177.1 C 277.8 176.8 277.1 175.9 277.1 174.9 C 277.1 173.8 278.0 172.9 279.2 172.9 C 281.0 172.9 282.6 174.7 284.6 178.4 C 285.4 174.5 286.3 172.8 288.7 172.8 C 289.7 172.8 291.0 173.1 292.7 173.6 L 292.7 174.8 C 292.1 174.7 291.6 174.6 291.1 174.6 C 289.0 174.6 288.6 176.6 287.3 181.1 C 288.4 183.3 289.5 184.7 290.7 185.2 L 291.9 183.6 C 293.1 183.9 293.8 184.8 293.8 185.9 C 293.8 187.0 293.0 187.8 291.9 187.8 C 290.2 187.8 288.5 186.1 286.6 182.6 C 285.7 186.3 285.1 188.1 283.4 188.1 C 283.3 188.1 283.2 188.1 283.2 188.1 " fill="#52A700"></path><path d="M 305.3 181.8 C 305.3 173.4 302.8 169.2 299.3 168.6 L 299.3 167.2 C 304.4 167.8 307.9 172.5 307.9 181.8 C 307.9 191.0 304.4 195.7 299.3 196.3 L 299.3 194.9 C 302.8 194.3 305.3 190.1 305.3 181.8 " fill="#000000"></path><path d="M 322.1 187.7 L 317.7 186.8 L 317.7 186.0 L 320.1 185.7 L 316.9 167.9 L 316.6 167.6 L 314.8 167.2 L 314.8 166.3 L 322.1 166.3 L 322.1 167.2 L 319.2 167.7 L 320.2 173.4 C 321.0 173.0 321.8 172.8 322.6 172.8 C 324.7 172.8 326.8 173.8 328.4 175.5 C 330.2 177.5 331.0 179.7 331.0 182.4 C 331.0 185.8 329.5 187.7 327.1 187.7 C 325.8 187.7 324.3 187.1 322.5 185.8 L 322.9 187.7 L 322.1 187.7 Z M 320.6 175.0 L 322.3 184.5 C 323.7 185.6 324.8 186.1 325.7 186.1 C 327.4 186.1 328.5 184.7 328.5 182.3 C 328.5 179.9 327.6 177.4 326.6 176.1 C 325.7 174.8 324.5 174.2 323.2 174.2 C 322.3 174.2 321.5 174.5 320.6 175.0 " fill="#000000"></path><path d="M 337.7 181.8 C 337.7 190.1 340.2 194.3 343.7 194.9 L 343.7 196.3 C 338.6 195.7 335.1 191.0 335.1 181.8 C 335.1 172.5 338.6 167.8 343.7 167.2 L 343.7 168.6 C 340.2 169.2 337.7 173.4 337.7 181.8 " fill="#000000"></path><path d="M 352.0 188.1 L 347.8 186.7 L 347.8 185.7 L 350.5 185.5 C 351.1 184.6 351.8 182.8 352.7 180.0 C 351.6 177.8 350.4 176.3 349.1 175.5 L 347.8 177.1 C 346.6 176.8 345.9 175.9 345.9 174.9 C 345.9 173.8 346.8 172.9 348.0 172.9 C 349.8 172.9 351.4 174.7 353.4 178.4 C 354.2 174.5 355.2 172.8 357.5 172.8 C 358.5 172.8 359.8 173.1 361.5 173.6 L 361.5 174.8 C 360.9 174.7 360.4 174.6 359.8 174.6 C 357.8 174.6 357.4 176.6 356.1 181.1 C 357.2 183.3 358.3 184.7 359.5 185.2 L 360.7 183.6 C 361.9 183.9 362.6 184.8 362.6 185.9 C 362.6 187.0 361.8 187.8 360.7 187.8 C 359.0 187.8 357.3 186.1 355.4 182.6 C 354.4 186.3 353.9 188.1 352.2 188.1 C 352.1 188.1 352.0 188.1 352.0 188.1 " fill="#52A700"></path><path d="M 374.2 181.8 C 374.2 173.4 371.7 169.2 368.2 168.6 L 368.2 167.2 C 373.3 167.8 376.8 172.5 376.8 181.8 C 376.8 191.0 373.3 195.7 368.2 196.3 L 368.2 194.9 C 371.7 194.3 374.2 190.1 374.2 181.8 " fill="#000000"></path><path d="M 397.9 196.3 L 396.0 196.3 L 385.9 167.2 L 387.9 167.2 L 397.9 196.3 " fill="#000000"></path><path d="M 412.1 187.7 L 407.7 186.8 L 407.7 186.0 L 410.1 185.7 L 406.9 167.9 L 406.6 167.6 L 404.8 167.2 L 404.8 166.3 L 412.1 166.3 L 412.1 167.2 L 409.2 167.7 L 410.2 173.4 C 411.0 173.0 411.8 172.8 412.6 172.8 C 414.7 172.8 416.9 173.8 418.4 175.5 C 420.2 177.5 421.0 179.7 421.0 182.4 C 421.0 185.8 419.5 187.7 417.1 187.7 C 415.8 187.7 414.3 187.1 412.5 185.8 L 412.9 187.7 L 412.1 187.7 Z M 410.6 175.0 L 412.3 184.5 C 413.7 185.6 414.8 186.1 415.7 186.1 C 417.4 186.1 418.5 184.7 418.5 182.3 C 418.5 179.9 417.6 177.4 416.6 176.1 C 415.7 174.8 414.5 174.2 413.2 174.2 C 412.3 174.2 411.5 174.5 410.6 175.0 " fill="#000000"></path><path d="M 427.7 181.8 C 427.7 190.1 430.2 194.3 433.7 194.9 L 433.7 196.3 C 428.6 195.7 425.1 191.0 425.1 181.8 C 425.1 172.5 428.6 167.8 433.7 167.2 L 433.7 168.6 C 430.2 169.2 427.7 173.4 427.7 181.8 " fill="#000000"></path><path d="M 442.1 188.1 L 437.4 187.0 L 437.4 186.0 L 440.0 185.7 C 440.4 185.1 440.7 184.3 440.8 183.4 L 442.7 173.7 L 443.8 173.7 C 442.1 170.6 440.6 168.9 439.2 168.8 L 437.2 170.8 C 436.1 170.5 435.4 169.7 435.4 168.7 C 435.4 167.5 436.5 166.4 438.0 166.4 C 440.5 166.4 443.1 168.8 445.7 173.6 C 448.1 177.8 449.3 182.2 451.7 185.4 L 453.5 186.4 L 453.5 187.2 L 451.1 188.0 L 450.1 188.0 C 448.2 183.6 446.7 179.8 445.4 176.7 L 444.4 183.3 C 444.0 186.3 443.4 187.8 442.1 188.1 " fill="#B30000"></path><path d="M 463.5 181.8 C 463.5 173.4 461.1 169.2 457.5 168.6 L 457.5 167.2 C 462.6 167.8 466.1 172.5 466.1 181.8 C 466.1 191.0 462.6 195.7 457.5 196.3 L 457.5 194.9 C 461.1 194.3 463.5 190.1 463.5 181.8 " fill="#000000"></path></g></g><g><clipPath id="clip0x6000100b1ee0"><path d="M 560.6 522.6 L 691.0 522.6 L 691.0 559.0 L 560.6 559.0 Z M 560.6 522.6 "></path></clipPath><g clip-path="url(#clip0x6000100b1ee0)"><path d="M 567.3 545.0 L 563.1 543.7 L 563.1 542.6 L 565.8 542.4 C 566.4 541.6 567.1 539.7 568.0 536.9 C 566.9 534.8 565.7 533.3 564.4 532.4 L 563.1 534.0 C 561.9 533.7 561.1 532.8 561.1 531.9 C 561.1 530.8 562.1 529.9 563.3 529.9 C 565.0 529.9 566.7 531.7 568.7 535.3 C 569.5 531.4 570.4 529.7 572.8 529.7 C 573.7 529.7 575.0 530.0 576.8 530.6 L 576.8 531.8 C 576.2 531.6 575.6 531.5 575.1 531.5 C 573.1 531.5 572.7 533.6 571.4 538.0 C 572.4 540.2 573.6 541.6 574.8 542.1 L 576.0 540.5 C 577.2 540.9 577.9 541.8 577.9 542.8 C 577.9 544.0 577.1 544.8 576.0 544.8 C 574.3 544.8 572.5 543.0 570.7 539.5 C 569.7 543.3 569.2 545.0 567.5 545.0 C 567.4 545.0 567.3 545.0 567.3 545.0 " fill="#52A700"></path><path d="M 586.8 558.7 L 583.6 558.0 L 583.6 557.5 L 585.5 557.2 L 583.4 546.8 C 583.2 545.4 583.0 544.6 583.0 544.3 C 583.0 543.2 583.5 542.7 584.6 542.7 C 585.3 542.7 586.2 542.9 587.5 543.4 L 587.5 544.1 C 586.8 543.9 586.3 543.8 585.9 543.8 C 585.2 543.8 584.7 544.1 584.7 544.8 C 584.7 545.1 584.8 545.6 585.0 546.5 L 587.1 557.3 C 587.2 557.4 587.2 557.9 587.4 558.7 L 586.8 558.7 " fill="#000000"></path><path d="M 601.6 536.0 C 601.6 537.6 602.9 540.1 605.4 540.1 C 609.2 540.1 611.3 534.7 615.7 534.7 C 618.5 534.7 620.9 537.4 620.9 541.4 L 619.6 541.4 C 619.6 539.8 618.3 537.3 615.7 537.3 C 612.0 537.3 609.9 542.7 605.4 542.7 C 602.7 542.7 600.3 540.0 600.3 536.0 L 601.6 536.0 " fill="#000000"></path><path d="M 636.5 544.6 L 632.1 543.7 L 632.1 542.9 L 634.5 542.7 L 631.3 524.9 L 631.0 524.5 L 629.2 524.1 L 629.2 523.2 L 636.5 523.2 L 636.5 524.1 L 633.6 524.7 L 634.6 530.3 C 635.4 530.0 636.2 529.8 637.0 529.8 C 639.1 529.8 641.2 530.8 642.8 532.5 C 644.5 534.4 645.4 536.7 645.4 539.3 C 645.4 542.8 643.9 544.6 641.5 544.6 C 640.2 544.6 638.7 544.0 636.9 542.8 L 637.3 544.6 L 636.5 544.6 Z M 634.9 531.9 L 636.7 541.4 C 638.1 542.5 639.2 543.1 640.1 543.1 C 641.8 543.1 642.8 541.7 642.8 539.2 C 642.8 536.8 642.0 534.3 641.0 533.0 C 640.0 531.7 638.9 531.1 637.5 531.1 C 636.7 531.1 635.8 531.4 634.9 531.9 " fill="#000000"></path><path d="M 652.1 538.7 C 652.1 547.1 654.5 551.2 658.1 551.8 L 658.1 553.2 C 653.0 552.6 649.5 547.9 649.5 538.7 C 649.5 529.5 653.0 524.8 658.1 524.1 L 658.1 525.6 C 654.5 526.2 652.1 530.3 652.1 538.7 " fill="#000000"></path><path d="M 666.4 545.0 L 662.2 543.7 L 662.2 542.6 L 664.9 542.4 C 665.5 541.6 666.2 539.7 667.1 536.9 C 666.0 534.8 664.8 533.3 663.5 532.4 L 662.2 534.0 C 661.0 533.7 660.2 532.8 660.2 531.9 C 660.2 530.8 661.2 529.9 662.4 529.9 C 664.1 529.9 665.8 531.7 667.7 535.3 C 668.6 531.4 669.5 529.7 671.9 529.7 C 672.8 529.7 674.1 530.0 675.9 530.6 L 675.9 531.8 C 675.3 531.6 674.7 531.5 674.2 531.5 C 672.2 531.5 671.8 533.6 670.5 538.0 C 671.6 540.2 672.7 541.6 673.9 542.1 L 675.1 540.5 C 676.3 540.9 677.0 541.8 677.0 542.8 C 677.0 544.0 676.2 544.8 675.1 544.8 C 673.3 544.8 671.6 543.0 669.8 539.5 C 668.8 543.3 668.3 545.0 666.6 545.0 C 666.5 545.0 666.4 545.0 666.4 545.0 " fill="#52A700"></path><path d="M 688.6 538.7 C 688.6 530.3 686.1 526.2 682.6 525.6 L 682.6 524.1 C 687.7 524.8 691.2 529.5 691.2 538.7 C 691.2 547.9 687.7 552.6 682.6 553.2 L 682.6 551.8 C 686.1 551.2 688.6 547.1 688.6 538.7 " fill="#000000"></path></g></g><g><clipPath id="clip0x6000100b23c0"><path d="M 567.6 311.9 L 755.6 311.9 L 755.6 348.3 L 567.6 348.3 Z M 567.6 311.9 "></path></clipPath><g clip-path="url(#clip0x6000100b23c0)"><path d="M 571.1 334.0 L 567.6 333.0 L 567.6 332.2 L 569.9 332.0 L 570.7 319.9 L 570.4 319.2 L 572.4 319.2 C 575.5 324.5 577.5 328.1 578.3 329.9 L 579.0 319.2 L 580.8 319.2 C 585.8 325.8 588.6 329.9 588.6 332.2 C 588.6 333.4 588.0 334.0 587.0 334.0 C 586.4 334.0 585.9 333.8 585.5 333.3 L 586.1 329.7 C 585.4 327.6 583.7 324.9 581.1 321.5 C 580.7 326.6 580.4 330.7 580.3 333.5 L 578.5 333.2 C 576.8 329.5 574.9 325.7 572.9 321.9 L 572.2 334.0 L 571.1 334.0 " fill="#000000"></path><path d="M 594.4 347.9 L 591.2 347.3 L 591.2 346.7 L 593.1 346.5 L 591.0 336.0 C 590.8 334.7 590.6 333.9 590.6 333.6 C 590.6 332.5 591.1 332.0 592.2 332.0 C 592.9 332.0 593.8 332.2 595.1 332.7 L 595.1 333.4 C 594.4 333.2 593.9 333.1 593.5 333.1 C 592.8 333.1 592.3 333.4 592.3 334.0 C 592.3 334.4 592.4 334.9 592.6 335.8 L 594.7 346.6 C 594.8 346.7 594.8 347.1 595.0 347.9 L 594.4 347.9 " fill="#000000"></path><path d="M 611.0 333.9 C 609.9 333.9 609.0 333.1 609.0 332.0 C 609.0 330.9 609.9 330.0 611.0 330.0 C 612.0 330.0 612.9 330.9 612.9 332.0 C 612.9 333.1 612.0 333.9 611.0 333.9 Z M 611.0 322.8 C 609.9 322.8 609.0 321.9 609.0 320.8 C 609.0 319.7 609.9 318.9 611.0 318.9 C 612.0 318.9 612.9 319.8 612.9 320.8 C 612.9 321.9 612.0 322.8 611.0 322.8 " fill="#000000"></path><path d="M 617.6 330.4 L 638.1 330.4 L 638.1 332.2 L 617.6 332.2 L 617.6 330.4 Z M 617.6 323.8 L 638.1 323.8 L 638.1 325.6 L 617.6 325.6 L 617.6 323.8 " fill="#000000"></path><path d="M 653.8 333.9 L 649.4 333.0 L 649.4 332.2 L 651.8 331.9 L 648.6 314.2 L 648.3 313.8 L 646.5 313.4 L 646.5 312.5 L 653.8 312.5 L 653.8 313.4 L 650.9 314.0 L 651.9 319.6 C 652.7 319.3 653.5 319.1 654.3 319.1 C 656.4 319.1 658.5 320.1 660.1 321.8 C 661.8 323.7 662.7 325.9 662.7 328.6 C 662.7 332.0 661.2 333.9 658.8 333.9 C 657.5 333.9 656.0 333.3 654.2 332.0 L 654.5 333.9 L 653.8 333.9 Z M 652.2 321.2 L 654.0 330.7 C 655.3 331.8 656.5 332.3 657.4 332.3 C 659.0 332.3 660.1 331.0 660.1 328.5 C 660.1 326.1 659.3 323.6 658.3 322.3 C 657.3 321.0 656.2 320.4 654.9 320.4 C 654.0 320.4 653.2 320.7 652.2 321.2 " fill="#000000"></path><path d="M 669.5 328.0 C 669.5 336.4 672.0 340.5 675.5 341.1 L 675.5 342.5 C 670.4 341.9 666.9 337.2 666.9 328.0 C 666.9 318.8 670.4 314.0 675.5 313.4 L 675.5 314.8 C 672.0 315.5 669.5 319.6 669.5 328.0 " fill="#000000"></path><path d="M 683.8 334.3 L 679.1 333.2 L 679.1 332.2 L 681.7 332.0 C 682.0 331.3 682.3 330.5 682.5 329.7 L 684.3 320.0 L 685.5 320.0 C 683.8 316.8 682.3 315.2 680.9 315.1 L 678.9 317.0 C 677.8 316.8 677.1 316.0 677.1 315.0 C 677.1 313.7 678.2 312.6 679.7 312.6 C 682.2 312.6 684.7 315.0 687.4 319.8 C 689.8 324.1 691.0 328.5 693.4 331.6 L 695.2 332.6 L 695.2 333.5 L 692.8 334.3 L 691.8 334.3 C 689.9 329.9 688.4 326.1 687.1 322.9 L 686.1 329.6 C 685.6 332.5 685.1 334.0 683.8 334.3 " fill="#B30000"></path><path d="M 705.2 313.4 L 707.0 313.4 L 707.0 342.5 L 705.2 342.5 Z M 705.2 313.4 " fill="#000000"></path><path d="M 721.1 334.3 L 717.0 333.0 L 717.0 331.9 L 719.7 331.7 C 720.3 330.9 721.0 329.0 721.9 326.2 C 720.8 324.1 719.6 322.5 718.3 321.7 L 717.0 323.3 C 715.8 323.0 715.0 322.1 715.0 321.2 C 715.0 320.1 716.0 319.2 717.2 319.2 C 719.0 319.2 720.6 321.0 722.6 324.6 C 723.4 320.7 724.3 319.0 726.7 319.0 C 727.6 319.0 728.9 319.3 730.7 319.9 L 730.7 321.0 C 730.1 320.9 729.6 320.8 729.0 320.8 C 727.0 320.8 726.5 322.9 725.3 327.3 C 726.3 329.5 727.5 330.9 728.7 331.4 L 729.8 329.8 C 731.1 330.2 731.8 331.1 731.8 332.1 C 731.8 333.2 731.0 334.1 729.9 334.1 C 728.1 334.1 726.4 332.3 724.6 328.8 C 723.6 332.6 723.1 334.3 721.4 334.3 C 721.3 334.3 721.2 334.3 721.1 334.3 " fill="#52A700"></path><path d="M 740.7 347.9 L 737.5 347.3 L 737.5 346.7 L 739.4 346.5 L 737.3 336.0 C 737.1 334.7 736.9 333.9 736.9 333.6 C 736.9 332.5 737.5 332.0 738.5 332.0 C 739.2 332.0 740.1 332.2 741.3 332.7 L 741.3 333.4 C 740.7 333.2 740.2 333.1 739.8 333.1 C 739.1 333.1 738.7 333.4 738.7 334.0 C 738.7 334.4 738.7 334.9 738.9 335.8 L 741.1 346.6 C 741.1 346.7 741.2 347.1 741.3 347.9 L 740.7 347.9 " fill="#000000"></path><path d="M 753.0 328.0 C 753.0 319.6 750.5 315.5 747.0 314.8 L 747.0 313.4 C 752.1 314.0 755.6 318.8 755.6 328.0 C 755.6 337.2 752.1 341.9 747.0 342.5 L 747.0 341.1 C 750.5 340.5 753.0 336.4 753.0 328.0 " fill="#000000"></path></g></g></g></svg>