<?xml version="1.0" encoding="UTF-8" standalone="no"?><svg xmlns="http://www.w3.org/2000/svg" xmlns:xlink="http://www.w3.org/1999/xlink" clip-rule="evenodd" stroke-miterlimit="10" viewBox="0 0 1024 768"><desc>SVG generated by Keynote</desc><defs><linearGradient id="gradSh1.92" x1="0.0" y1="0.0" x2="100.0" y2="0.0" gradientUnits="userSpaceOnUse" gradientTransform="matrix(0.00, -7.70, -10.26, 0.00, 512.0, 769.0)"><stop offset="0.00000" stop-color="#FFFFFF"></stop><stop offset="0.01906" stop-color="#FEFFFF"></stop><stop offset="1.00000" stop-color="#E5F3FF"></stop></linearGradient></defs><g transform="matrix(1.00, 0.00, -0.00, -1.00, 0.0, 768.0)"><g><clipPath id="clip0x60000e6b7ee0"><path d="M 0.0 768.0 L 1024.0 768.0 L 1024.0 0.0 L 0.0 0.0 Z M 0.0 768.0 "></path></clipPath><g clip-path="url(#clip0x60000e6b7ee0)"><path d="M 0.0 768.0 L 1024.0 768.0 L 1024.0 0.0 L 0.0 0.0 Z M 0.0 768.0 " fill="url(#gradSh1.92)"></path></g></g><path d="M 321.0 159.0 L 869.0 159.0 L 869.0 66.0 L 321.0 66.0 Z M 321.0 158.9 " fill="#FEFFFE"></path><image xlink:href="../../E036354C-45F9-49EF-A44E-38E45C76C8A9/assets/130A9D94B616694B21479ECE9D9D8BD4.png" width="554.00" height="102.00" transform="matrix(1.00, 0.00, -0.00, 1.00, 318.0, 58.4)"></image><path d="M 321.0 291.0 L 869.0 291.0 L 869.0 198.0 L 321.0 198.0 Z M 321.0 290.9 " fill="#FEFFFE"></path><image xlink:href="../../E036354C-45F9-49EF-A44E-38E45C76C8A9/assets/130A9D94B616694B21479ECE9D9D8BD4.png" width="554.00" height="102.00" transform="matrix(1.00, 0.00, -0.00, 1.00, 318.0, 190.4)"></image><text xml:space="preserve" font-family="FiraSans-Light,Fira Sans" font-size="60.0" fill="#20313F" transform="matrix(1.00, 0.00, -0.00, -1.00, 258.8, 665.0)">B</text><text xml:space="preserve" font-family="FiraSans-Light,Fira Sans" font-size="60.0" fill="#20313F" transform="matrix(1.00, 0.00, -0.00, -1.00, 294.7, 665.0)">a</text><text xml:space="preserve" font-family="FiraSans-Light,Fira Sans" font-size="60.0" fill="#20313F" transform="matrix(1.00, 0.00, -0.00, -1.00, 326.3, 665.0)">y</text><text xml:space="preserve" font-family="FiraSans-Light,Fira Sans" font-size="60.0" fill="#20313F" transform="matrix(1.00, 0.00, -0.00, -1.00, 353.4, 665.0)">e</text><text xml:space="preserve" font-family="FiraSans-Light,Fira Sans" font-size="60.0" fill="#20313F" transform="matrix(1.00, 0.00, -0.00, -1.00, 385.7, 665.0)">s</text><text xml:space="preserve" font-family="FiraSans-Light,Fira Sans" font-size="60.0" fill="#20313F" transform="matrix(1.00, 0.00, -0.00, -1.00, 413.6, 665.0)">i</text><text xml:space="preserve" font-family="FiraSans-Light,Fira Sans" font-size="60.0" fill="#20313F" transform="matrix(1.00, 0.00, -0.00, -1.00, 429.8, 665.0)">a</text><text xml:space="preserve" font-family="FiraSans-Light,Fira Sans" font-size="60.0" fill="#20313F" transform="matrix(1.00, 0.00, -0.00, -1.00, 461.9, 665.0)">n</text><text xml:space="preserve" font-family="FiraSans-Light,Fira Sans" font-size="60.0" fill="#20313F" transform="matrix(1.00, 0.00, -0.00, -1.00, 497.0, 665.0)"> </text><text xml:space="preserve" font-family="FiraSans-Light,Fira Sans" font-size="60.0" fill="#20313F" transform="matrix(1.00, 0.00, -0.00, -1.00, 513.7, 665.0)">I</text><text xml:space="preserve" font-family="FiraSans-Light,Fira Sans" font-size="60.0" fill="#20313F" transform="matrix(1.00, 0.00, -0.00, -1.00, 530.6, 665.0)">n</text><text xml:space="preserve" font-family="FiraSans-Light,Fira Sans" font-size="60.0" fill="#20313F" transform="matrix(1.00, 0.00, -0.00, -1.00, 565.7, 665.0)">f</text><text xml:space="preserve" font-family="FiraSans-Light,Fira Sans" font-size="60.0" fill="#20313F" transform="matrix(1.00, 0.00, -0.00, -1.00, 584.3, 665.0)">e</text><text xml:space="preserve" font-family="FiraSans-Light,Fira Sans" font-size="60.0" fill="#20313F" transform="matrix(1.00, 0.00, -0.00, -1.00, 616.6, 665.0)">r</text><text xml:space="preserve" font-family="FiraSans-Light,Fira Sans" font-size="60.0" fill="#20313F" transform="matrix(1.00, 0.00, -0.00, -1.00, 638.4, 665.0)">e</text><text xml:space="preserve" font-family="FiraSans-Light,Fira Sans" font-size="60.0" fill="#20313F" transform="matrix(1.00, 0.00, -0.00, -1.00, 670.7, 665.0)">n</text><text xml:space="preserve" font-family="FiraSans-Light,Fira Sans" font-size="60.0" fill="#20313F" transform="matrix(1.00, 0.00, -0.00, -1.00, 705.7, 665.0)">c</text><text xml:space="preserve" font-family="FiraSans-Light,Fira Sans" font-size="60.0" fill="#20313F" transform="matrix(1.00, 0.00, -0.00, -1.00, 733.2, 665.0)">e</text><g><clipPath id="clip0x60000ecb8b40"><path d="M 167.0 530.0 L 260.0 530.0 L 260.0 430.0 L 167.0 430.0 Z M 167.2 529.7 "></path></clipPath><g clip-path="url(#clip0x60000ecb8b40)"><image xlink:href="../../E036354C-45F9-49EF-A44E-38E45C76C8A9/assets/A7824EB60E7B37FF1FA79F367EC85489.png" width="304.00" height="326.00" transform="matrix(0.48, 0.00, -0.00, -0.48, 138.6, 530.6)"></image></g></g><image xlink:href="../../E036354C-45F9-49EF-A44E-38E45C76C8A9/assets/12F5562B95BE4D448F9A73BF306637F2.png" width="103.00" height="113.00" transform="matrix(1.00, 0.00, -0.00, 1.00, 162.2, 420.0)"></image><image xlink:href="../../E036354C-45F9-49EF-A44E-38E45C76C8A9/assets/A2206BBA809CF0994CD01C04E0871326.png" width="612.00" height="108.00" transform="matrix(1.00, 0.00, -0.00, -1.00, 260.3, 531.4)" opacity="0.50"></image><path d="M 333.0 528.5 C 322.0 529.0 313.5 520.0 313.5 509.0 L 313.5 496.4 L 262.0 485.8 L 313.5 475.1 L 313.5 452.0 C 313.5 441.0 322.0 431.5 333.0 431.5 L 844.0 431.5 C 855.0 431.5 864.5 441.0 864.5 452.0 L 864.5 509.0 C 864.5 520.0 855.0 528.5 844.0 528.5 L 333.0 528.5 Z M 333.0 529.0 " fill="#FFFFFF"></path><path d="M 20.0 0.5 C 9.0 0.0 0.5 9.0 0.5 20.0 L 0.5 32.6 L -51.0 43.2 L 0.5 53.9 L 0.5 77.0 C 0.5 88.0 9.0 97.5 20.0 97.5 L 531.0 97.5 C 542.0 97.5 551.5 88.0 551.5 77.0 L 551.5 20.0 C 551.5 9.0 542.0 0.5 531.0 0.5 L 20.0 0.5 Z M 20.0 0.0 " fill="none" stroke="#2B3E56" stroke-width="3.00" transform="matrix(1.00, 0.00, 0.00, -1.00, 313.0, 529.0)"></path><g><clipPath id="clip0x60000ecb8f00"><path d="M 347.1 463.9 L 822.2 463.9 L 822.2 502.3 L 347.1 502.3 Z M 347.1 463.9 "></path></clipPath><g clip-path="url(#clip0x60000ecb8f00)"><path d="M 357.1 491.1 L 351.7 489.9 L 351.7 489.0 L 354.6 488.6 L 350.6 466.4 L 350.2 465.9 L 348.0 465.5 L 348.0 464.3 L 357.2 464.3 L 357.2 465.5 L 353.5 466.1 L 354.8 473.2 C 355.8 472.8 356.7 472.5 357.7 472.5 C 360.3 472.5 363.1 473.8 365.0 475.9 C 367.2 478.3 368.2 481.1 368.2 484.4 C 368.2 488.8 366.4 491.1 363.4 491.1 C 361.7 491.1 359.8 490.3 357.6 488.8 L 358.1 491.1 L 357.1 491.1 Z M 355.2 475.2 L 357.4 487.1 C 359.1 488.4 360.5 489.1 361.6 489.1 C 363.7 489.1 365.1 487.4 365.1 484.4 C 365.1 481.3 364.0 478.2 362.7 476.5 C 361.6 475.0 360.1 474.2 358.5 474.2 C 357.4 474.2 356.3 474.5 355.2 475.2 " fill="#000000"></path><path d="M 376.7 483.7 C 376.7 494.1 379.8 499.3 384.2 500.1 L 384.2 501.9 C 377.8 501.1 373.5 495.2 373.5 483.7 C 373.5 472.1 377.8 466.2 384.2 465.5 L 384.2 467.2 C 379.8 468.0 376.7 473.2 376.7 483.7 " fill="#000000"></path><path d="M 394.5 491.5 L 389.3 489.8 L 389.3 488.5 L 392.8 488.3 C 393.5 487.3 394.3 485.0 395.4 481.5 C 394.1 478.8 392.5 476.9 391.0 475.8 L 389.3 477.8 C 387.8 477.4 386.9 476.3 386.9 475.1 C 386.9 473.8 388.1 472.6 389.6 472.6 C 391.8 472.6 393.8 474.9 396.3 479.5 C 397.3 474.6 398.5 472.4 401.4 472.4 C 402.6 472.4 404.3 472.8 406.5 473.5 L 406.5 475.0 C 405.7 474.8 405.0 474.7 404.4 474.7 C 401.8 474.7 401.3 477.3 399.7 482.8 C 401.0 485.6 402.5 487.3 403.9 487.9 L 405.4 485.9 C 407.0 486.4 407.8 487.5 407.8 488.8 C 407.8 490.2 406.9 491.3 405.4 491.3 C 403.3 491.3 401.1 489.0 398.8 484.7 C 397.6 489.4 396.9 491.5 394.8 491.5 C 394.7 491.5 394.6 491.5 394.5 491.5 " fill="#52A700"></path><path d="M 422.1 465.5 L 424.4 465.5 L 424.4 501.9 L 422.1 501.9 Z M 422.1 465.5 " fill="#000000"></path><path d="M 442.3 491.5 L 436.4 490.2 L 436.4 488.9 L 439.7 488.6 C 440.1 487.8 440.5 486.8 440.7 485.8 L 443.0 473.7 L 444.4 473.7 C 442.3 469.7 440.4 467.7 438.7 467.5 L 436.2 469.9 C 434.8 469.6 434.0 468.7 434.0 467.3 C 434.0 465.8 435.3 464.4 437.2 464.4 C 440.3 464.4 443.5 467.4 446.8 473.5 C 449.8 478.7 451.3 484.2 454.3 488.2 L 456.5 489.5 L 456.5 490.5 L 453.5 491.5 L 452.3 491.5 C 450.0 486.0 448.0 481.2 446.5 477.3 L 445.2 485.6 C 444.6 489.3 443.9 491.2 442.3 491.5 " fill="#B30000"></path><path d="M 469.0 483.7 C 469.0 473.2 466.0 468.0 461.6 467.2 L 461.6 465.5 C 467.9 466.2 472.3 472.1 472.3 483.7 C 472.3 495.2 467.9 501.1 461.6 501.9 L 461.6 500.1 C 466.0 499.3 469.0 494.1 469.0 483.7 " fill="#000000"></path><path d="M 485.5 486.7 L 511.2 486.7 L 511.2 488.9 L 485.5 488.9 L 485.5 486.7 Z M 485.5 478.4 L 511.2 478.4 L 511.2 480.7 L 485.5 480.7 L 485.5 478.4 " fill="#000000"></path><path d="M 530.7 491.1 L 525.3 489.9 L 525.3 489.0 L 528.2 488.6 L 524.2 466.4 L 523.9 465.9 L 521.6 465.5 L 521.6 464.3 L 530.8 464.3 L 530.8 465.5 L 527.1 466.1 L 528.4 473.2 C 529.3 472.8 530.4 472.5 531.3 472.5 C 533.9 472.5 536.6 473.8 538.6 475.9 C 540.8 478.3 541.8 481.1 541.8 484.4 C 541.8 488.8 540.0 491.1 537.0 491.1 C 535.4 491.1 533.4 490.3 531.2 488.8 L 531.7 491.1 L 530.7 491.1 Z M 528.8 475.2 L 531.0 487.1 C 532.7 488.4 534.1 489.1 535.2 489.1 C 537.3 489.1 538.7 487.4 538.7 484.4 C 538.7 481.3 537.6 478.2 536.3 476.5 C 535.1 475.0 533.7 474.2 532.1 474.2 C 531.0 474.2 529.9 474.5 528.8 475.2 " fill="#000000"></path><path d="M 550.3 483.7 C 550.3 494.1 553.4 499.3 557.8 500.1 L 557.8 501.9 C 551.4 501.1 547.1 495.2 547.1 483.7 C 547.1 472.1 551.4 466.2 557.8 465.5 L 557.8 467.2 C 553.4 468.0 550.3 473.2 550.3 483.7 " fill="#000000"></path><path d="M 568.2 491.5 L 562.3 490.2 L 562.3 488.9 L 565.6 488.6 C 566.0 487.8 566.4 486.8 566.6 485.8 L 568.9 473.7 L 570.3 473.7 C 568.2 469.7 566.4 467.7 564.6 467.5 L 562.1 469.9 C 560.7 469.6 559.9 468.7 559.9 467.3 C 559.9 465.8 561.2 464.4 563.0 464.4 C 566.2 464.4 569.4 467.4 572.7 473.5 C 575.7 478.7 577.2 484.2 580.2 488.2 L 582.4 489.5 L 582.4 490.5 L 579.4 491.5 L 578.2 491.5 C 575.9 486.0 573.9 481.2 572.4 477.3 L 571.1 485.6 C 570.5 489.3 569.8 491.2 568.2 491.5 " fill="#B30000"></path><path d="M 594.9 465.5 L 597.2 465.5 L 597.2 501.9 L 594.9 501.9 Z M 594.9 465.5 " fill="#000000"></path><path d="M 614.9 491.5 L 609.7 489.8 L 609.7 488.5 L 613.2 488.3 C 613.9 487.3 614.7 485.0 615.8 481.5 C 614.5 478.8 612.9 476.9 611.4 475.8 L 609.7 477.8 C 608.2 477.4 607.3 476.3 607.3 475.1 C 607.3 473.8 608.5 472.6 610.0 472.6 C 612.2 472.6 614.2 474.9 616.7 479.5 C 617.7 474.6 618.9 472.4 621.8 472.4 C 623.0 472.4 624.7 472.8 626.9 473.5 L 626.9 475.0 C 626.1 474.8 625.4 474.7 624.8 474.7 C 622.2 474.7 621.7 477.3 620.1 482.8 C 621.4 485.6 622.9 487.3 624.3 487.9 L 625.8 485.9 C 627.4 486.4 628.3 487.5 628.3 488.8 C 628.3 490.2 627.2 491.3 625.8 491.3 C 623.7 491.3 621.5 489.0 619.2 484.7 C 618.0 489.4 617.3 491.5 615.2 491.5 C 615.1 491.5 615.0 491.5 614.9 491.5 " fill="#52A700"></path><path d="M 642.6 483.7 C 642.6 473.2 639.5 468.0 635.2 467.2 L 635.2 465.5 C 641.5 466.2 645.9 472.1 645.9 483.7 C 645.9 495.2 641.5 501.1 635.2 501.9 L 635.2 500.1 C 639.5 499.3 642.6 494.1 642.6 483.7 " fill="#000000"></path><path d="M 656.5 491.1 L 651.1 489.9 L 651.1 489.0 L 654.0 488.6 L 650.0 466.4 L 649.6 465.9 L 647.4 465.5 L 647.4 464.3 L 656.6 464.3 L 656.6 465.5 L 652.9 466.1 L 654.2 473.2 C 655.2 472.8 656.1 472.5 657.1 472.5 C 659.7 472.5 662.4 473.8 664.4 475.9 C 666.6 478.3 667.6 481.1 667.6 484.4 C 667.6 488.8 665.8 491.1 662.8 491.1 C 661.1 491.1 659.2 490.3 657.0 488.8 L 657.5 491.1 L 656.5 491.1 Z M 654.6 475.2 L 656.8 487.1 C 658.5 488.4 659.9 489.1 661.0 489.1 C 663.1 489.1 664.5 487.4 664.5 484.4 C 664.5 481.3 663.4 478.2 662.1 476.5 C 661.0 475.0 659.5 474.2 657.9 474.2 C 656.8 474.2 655.7 474.5 654.6 475.2 " fill="#000000"></path><path d="M 676.0 483.7 C 676.0 494.1 679.1 499.3 683.5 500.1 L 683.5 501.9 C 677.1 501.1 672.8 495.2 672.8 483.7 C 672.8 472.1 677.1 466.2 683.5 465.5 L 683.5 467.2 C 679.1 468.0 676.0 473.2 676.0 483.7 " fill="#000000"></path><path d="M 693.8 491.5 L 688.6 489.8 L 688.6 488.5 L 692.1 488.3 C 692.8 487.3 693.6 485.0 694.7 481.5 C 693.4 478.8 691.8 476.9 690.3 475.8 L 688.6 477.8 C 687.1 477.4 686.2 476.3 686.2 475.1 C 686.2 473.8 687.4 472.6 688.9 472.6 C 691.1 472.6 693.1 474.9 695.6 479.5 C 696.6 474.6 697.8 472.4 700.7 472.4 C 701.9 472.4 703.6 472.8 705.8 473.5 L 705.8 475.0 C 705.0 474.8 704.3 474.7 703.7 474.7 C 701.1 474.7 700.6 477.3 699.0 482.8 C 700.3 485.6 701.8 487.3 703.2 487.9 L 704.7 485.9 C 706.3 486.4 707.2 487.5 707.2 488.8 C 707.2 490.2 706.1 491.3 704.7 491.3 C 702.6 491.3 700.4 489.0 698.1 484.7 C 696.9 489.4 696.2 491.5 694.1 491.5 C 694.0 491.5 693.9 491.5 693.8 491.5 " fill="#52A700"></path><path d="M 721.5 483.7 C 721.5 473.2 718.4 468.0 714.1 467.2 L 714.1 465.5 C 720.4 466.2 724.8 472.1 724.8 483.7 C 724.8 495.2 720.4 501.1 714.1 501.9 L 714.1 500.1 C 718.4 499.3 721.5 494.1 721.5 483.7 " fill="#000000"></path><path d="M 744.1 501.9 L 741.7 501.9 L 729.2 465.5 L 731.6 465.5 L 744.1 501.9 " fill="#000000"></path><path d="M 754.7 491.1 L 749.3 489.9 L 749.3 489.0 L 752.2 488.6 L 748.2 466.4 L 747.8 465.9 L 745.6 465.5 L 745.6 464.3 L 754.8 464.3 L 754.8 465.5 L 751.1 466.1 L 752.4 473.2 C 753.4 472.8 754.3 472.5 755.3 472.5 C 757.9 472.5 760.7 473.8 762.6 475.9 C 764.8 478.3 765.8 481.1 765.8 484.4 C 765.8 488.8 764.0 491.1 761.0 491.1 C 759.3 491.1 757.4 490.3 755.2 488.8 L 755.7 491.1 L 754.7 491.1 Z M 752.8 475.2 L 755.0 487.1 C 756.7 488.4 758.1 489.1 759.2 489.1 C 761.3 489.1 762.7 487.4 762.7 484.4 C 762.7 481.3 761.6 478.2 760.3 476.5 C 759.2 475.0 757.7 474.2 756.1 474.2 C 755.0 474.2 753.9 474.5 752.8 475.2 " fill="#000000"></path><path d="M 774.3 483.7 C 774.3 494.1 777.4 499.3 781.8 500.1 L 781.8 501.9 C 775.4 501.1 771.1 495.2 771.1 483.7 C 771.1 472.1 775.4 466.2 781.8 465.5 L 781.8 467.2 C 777.4 468.0 774.3 473.2 774.3 483.7 " fill="#000000"></path><path d="M 792.2 491.5 L 786.3 490.2 L 786.3 488.9 L 789.6 488.6 C 790.0 487.8 790.4 486.8 790.6 485.8 L 792.9 473.7 L 794.3 473.7 C 792.3 469.7 790.3 467.7 788.6 467.5 L 786.1 469.9 C 784.7 469.6 783.8 468.7 783.8 467.3 C 783.8 465.8 785.2 464.4 787.1 464.4 C 790.2 464.4 793.4 467.4 796.7 473.5 C 799.7 478.7 801.2 484.2 804.2 488.2 L 806.4 489.5 L 806.4 490.5 L 803.4 491.5 L 802.2 491.5 C 799.8 486.0 798.0 481.2 796.4 477.3 L 795.1 485.6 C 794.5 489.3 793.8 491.2 792.2 491.5 " fill="#B30000"></path><path d="M 818.9 483.7 C 818.9 473.2 815.9 468.0 811.5 467.2 L 811.5 465.5 C 817.8 466.2 822.2 472.1 822.2 483.7 C 822.2 495.2 817.8 501.1 811.5 501.9 L 811.5 500.1 C 815.9 499.3 818.9 494.1 818.9 483.7 " fill="#000000"></path></g></g><g><clipPath id="clip0x60000ecb9b00"><path d="M 327.0 274.0 L 571.0 274.0 L 571.0 205.0 L 327.0 205.0 Z M 326.6 274.1 "></path></clipPath><g clip-path="url(#clip0x60000ecb9b00)"><g><clipPath id="clip0x60000ecb9c80"><path d="M 327.5 205.9 L 570.6 205.9 L 570.6 274.1 L 327.5 274.1 Z M 327.5 205.9 "></path></clipPath><g clip-path="url(#clip0x60000ecb9c80)"><path d="M 335.7 256.0 L 331.3 255.1 L 331.3 254.3 L 333.7 254.0 L 330.5 236.2 L 330.2 235.9 L 328.4 235.5 L 328.4 234.6 L 335.7 234.6 L 335.7 235.5 L 332.8 236.0 L 333.8 241.7 C 334.6 241.3 335.4 241.1 336.2 241.1 C 338.2 241.1 340.4 242.1 342.0 243.8 C 343.7 245.8 344.6 248.0 344.6 250.6 C 344.6 254.1 343.1 256.0 340.7 256.0 C 339.4 256.0 337.8 255.4 336.1 254.1 L 336.5 256.0 L 335.7 256.0 Z M 334.1 243.3 L 335.9 252.8 C 337.2 253.8 338.4 254.4 339.3 254.4 C 340.9 254.4 342.0 253.0 342.0 250.6 C 342.0 248.1 341.2 245.7 340.2 244.3 C 339.2 243.1 338.1 242.5 336.7 242.5 C 335.9 242.5 335.0 242.7 334.1 243.3 " fill="#000000"></path><path d="M 351.3 250.0 C 351.3 258.4 353.7 262.6 357.2 263.2 L 357.2 264.6 C 352.2 264.0 348.7 259.3 348.7 250.0 C 348.7 240.8 352.2 236.1 357.2 235.5 L 357.2 236.9 C 353.7 237.5 351.3 241.7 351.3 250.0 " fill="#000000"></path><path d="M 365.7 256.3 L 360.9 255.3 L 360.9 254.3 L 363.6 254.0 C 364.0 253.4 364.2 252.6 364.4 251.7 L 366.2 242.0 L 367.4 242.0 C 365.7 238.9 364.2 237.2 362.8 237.1 L 360.8 239.0 C 359.7 238.8 359.0 238.0 359.0 237.0 C 359.0 235.8 360.1 234.6 361.6 234.6 C 364.1 234.6 366.6 237.0 369.3 241.9 C 371.7 246.1 372.9 250.5 375.2 253.7 L 377.1 254.7 L 377.1 255.5 L 374.6 256.3 L 373.7 256.3 C 371.8 251.9 370.3 248.1 369.0 245.0 L 368.0 251.6 C 367.5 254.6 367.0 256.1 365.7 256.3 " fill="#B30000"></path><path d="M 387.0 250.0 C 387.0 241.7 384.6 237.5 381.1 236.9 L 381.1 235.5 C 386.2 236.1 389.7 240.8 389.7 250.0 C 389.7 259.3 386.2 264.0 381.1 264.6 L 381.1 263.2 C 384.6 262.6 387.0 258.4 387.0 250.0 " fill="#000000"></path><path d="M 400.2 252.4 L 420.7 252.4 L 420.7 254.3 L 400.2 254.3 L 400.2 252.4 Z M 400.2 245.8 L 420.7 245.8 L 420.7 247.7 L 400.2 247.7 L 400.2 245.8 " fill="#000000"></path><path d="M 431.4 274.9 L 431.4 272.7 L 450.8 250.5 L 430.0 226.3 L 470.7 226.3 L 470.7 239.0 L 468.7 239.0 L 467.6 232.5 L 465.4 230.3 L 436.1 230.3 L 454.9 252.0 L 436.9 272.7 L 465.4 272.7 L 467.6 270.5 L 468.7 264.0 L 470.7 264.0 L 470.7 274.9 L 431.4 274.9 " fill="#000000"></path><path d="M 448.3 217.4 L 445.4 216.5 L 445.4 215.7 L 447.4 215.6 C 447.8 215.0 448.2 213.7 448.8 211.8 C 448.1 210.3 447.2 209.2 446.3 208.6 L 445.4 209.7 C 444.6 209.5 444.1 208.9 444.1 208.2 C 444.1 207.5 444.7 206.8 445.6 206.8 C 446.8 206.8 447.9 208.1 449.3 210.7 C 449.9 207.9 450.6 206.7 452.2 206.7 C 452.9 206.7 453.8 206.9 455.0 207.3 L 455.0 208.1 C 454.6 208.0 454.2 208.0 453.9 208.0 C 452.4 208.0 452.1 209.4 451.2 212.5 C 452.0 214.1 452.8 215.0 453.6 215.4 L 454.4 214.3 C 455.3 214.5 455.8 215.2 455.8 215.9 C 455.8 216.7 455.3 217.3 454.5 217.3 C 453.2 217.3 452.0 216.0 450.7 213.6 C 450.1 216.2 449.7 217.4 448.5 217.4 C 448.4 217.4 448.4 217.4 448.3 217.4 " fill="#52A700"></path><path d="M 483.6 256.0 L 479.3 255.1 L 479.3 254.3 L 481.7 254.0 L 478.5 236.2 L 478.2 235.9 L 476.4 235.5 L 476.4 234.6 L 483.7 234.6 L 483.7 235.5 L 480.8 236.0 L 481.8 241.7 C 482.6 241.3 483.4 241.1 484.2 241.1 C 486.2 241.1 488.4 242.1 490.0 243.8 C 491.7 245.8 492.6 248.0 492.6 250.6 C 492.6 254.1 491.1 256.0 488.7 256.0 C 487.4 256.0 485.8 255.4 484.1 254.1 L 484.4 256.0 L 483.6 256.0 Z M 482.1 243.3 L 483.9 252.8 C 485.2 253.8 486.4 254.4 487.3 254.4 C 488.9 254.4 490.0 253.0 490.0 250.6 C 490.0 248.1 489.2 245.7 488.2 244.3 C 487.2 243.1 486.1 242.5 484.7 242.5 C 483.9 242.5 483.0 242.7 482.1 243.3 " fill="#000000"></path><path d="M 499.3 250.0 C 499.3 258.4 501.7 262.6 505.2 263.2 L 505.2 264.6 C 500.2 264.0 496.7 259.3 496.7 250.0 C 496.7 240.8 500.2 236.1 505.2 235.5 L 505.2 236.9 C 501.7 237.5 499.3 241.7 499.3 250.0 " fill="#000000"></path><path d="M 513.6 256.3 L 508.8 255.3 L 508.8 254.3 L 511.5 254.0 C 511.8 253.4 512.1 252.6 512.3 251.7 L 514.1 242.0 L 515.3 242.0 C 513.6 238.9 512.1 237.2 510.7 237.1 L 508.7 239.0 C 507.6 238.8 506.9 238.0 506.9 237.0 C 506.9 235.8 508.0 234.6 509.4 234.6 C 512.0 234.6 514.5 237.0 517.2 241.9 C 519.5 246.1 520.8 250.5 523.2 253.7 L 524.9 254.7 L 524.9 255.5 L 522.6 256.3 L 521.6 256.3 C 519.7 251.9 518.2 248.1 516.9 245.0 L 515.9 251.6 C 515.4 254.6 514.9 256.1 513.6 256.3 " fill="#B30000"></path><path d="M 528.5 236.1 C 531.6 236.4 533.6 238.8 533.6 241.4 C 533.6 243.4 532.7 244.5 531.2 244.5 C 530.1 244.5 529.4 243.8 529.4 242.8 C 529.4 242.3 529.6 241.8 529.9 241.5 L 531.8 241.5 C 531.8 241.3 531.8 241.2 531.8 241.1 C 531.8 238.9 530.7 237.5 528.5 237.1 L 528.5 236.1 " fill="#000000"></path><path d="M 546.5 256.3 L 542.3 255.0 L 542.3 253.9 L 545.1 253.7 C 545.7 252.9 546.4 251.1 547.3 248.3 C 546.2 246.1 544.9 244.6 543.7 243.8 L 542.4 245.4 C 541.1 245.1 540.4 244.2 540.4 243.2 C 540.4 242.1 541.4 241.2 542.6 241.2 C 544.3 241.2 546.0 243.0 547.9 246.7 C 548.8 242.8 549.7 241.1 552.1 241.1 C 553.0 241.1 554.3 241.4 556.1 241.9 L 556.1 243.1 C 555.5 243.0 554.9 242.9 554.4 242.9 C 552.4 242.9 551.9 244.9 550.6 249.3 C 551.7 251.6 552.9 252.9 554.1 253.5 L 555.2 251.8 C 556.5 252.2 557.2 253.1 557.2 254.2 C 557.2 255.3 556.4 256.1 555.3 256.1 C 553.5 256.1 551.8 254.3 550.0 250.9 C 549.0 254.6 548.5 256.3 546.8 256.3 C 546.7 256.3 546.6 256.3 546.5 256.3 " fill="#52A700"></path><path d="M 568.7 250.0 C 568.7 241.7 566.3 237.5 562.8 236.9 L 562.8 235.5 C 567.9 236.1 571.4 240.8 571.4 250.0 C 571.4 259.3 567.9 264.0 562.8 264.6 L 562.8 263.2 C 566.3 262.6 568.7 258.4 568.7 250.0 " fill="#000000"></path></g></g></g></g><g><clipPath id="clip0x60000ecba460"><path d="M 608.5 203.4 L 853.0 203.4 L 853.0 276.1 L 608.5 276.1 Z M 608.5 203.4 "></path></clipPath><g clip-path="url(#clip0x60000ecba460)"><path d="M 616.3 257.5 L 612.0 256.6 L 612.0 255.8 L 614.3 255.5 L 611.1 237.7 L 610.8 237.4 L 609.0 237.0 L 609.0 236.1 L 616.4 236.1 L 616.4 237.0 L 613.5 237.5 L 614.5 243.2 C 615.2 242.8 616.0 242.6 616.8 242.6 C 618.9 242.6 621.1 243.6 622.6 245.3 C 624.4 247.3 625.2 249.5 625.2 252.1 C 625.2 255.6 623.8 257.5 621.3 257.5 C 620.0 257.5 618.5 256.8 616.7 255.6 L 617.1 257.5 L 616.3 257.5 Z M 614.8 244.8 L 616.5 254.3 C 617.9 255.3 619.0 255.9 619.9 255.9 C 621.6 255.9 622.7 254.5 622.7 252.1 C 622.7 249.6 621.8 247.2 620.8 245.8 C 619.9 244.6 618.7 244.0 617.4 244.0 C 616.5 244.0 615.7 244.2 614.8 244.8 " fill="#000000"></path><path d="M 632.0 251.6 C 632.0 259.9 634.5 264.1 638.0 264.7 L 638.0 266.1 C 632.9 265.5 629.4 260.8 629.4 251.6 C 629.4 242.3 632.9 237.6 638.0 237.0 L 638.0 238.4 C 634.5 239.0 632.0 243.2 632.0 251.6 " fill="#000000"></path><path d="M 646.2 257.8 L 642.0 256.5 L 642.0 255.4 L 644.8 255.2 C 645.4 254.4 646.0 252.6 646.9 249.8 C 645.8 247.6 644.6 246.1 643.3 245.2 L 642.0 246.9 C 640.8 246.5 640.1 245.7 640.1 244.7 C 640.1 243.6 641.0 242.7 642.2 242.7 C 644.0 242.7 645.6 244.5 647.6 248.2 C 648.4 244.3 649.4 242.6 651.7 242.6 C 652.7 242.6 654.0 242.8 655.7 243.4 L 655.7 244.6 C 655.1 244.4 654.6 244.4 654.1 244.4 C 652.0 244.4 651.6 246.4 650.3 250.8 C 651.4 253.1 652.5 254.5 653.7 255.0 L 654.9 253.3 C 656.1 253.7 656.9 254.6 656.9 255.7 C 656.9 256.8 656.1 257.6 654.9 257.6 C 653.2 257.6 651.5 255.8 649.6 252.4 C 648.7 256.1 648.1 257.8 646.4 257.8 C 646.3 257.8 646.2 257.8 646.2 257.8 " fill="#52A700"></path><path d="M 668.4 251.6 C 668.4 243.2 666.0 239.0 662.5 238.4 L 662.5 237.0 C 667.5 237.6 671.0 242.3 671.0 251.6 C 671.0 260.8 667.5 265.5 662.5 266.1 L 662.5 264.7 C 666.0 264.1 668.4 259.9 668.4 251.6 " fill="#000000"></path><path d="M 681.5 253.9 L 702.1 253.9 L 702.1 255.8 L 681.5 255.8 L 681.5 253.9 Z M 681.5 247.3 L 702.1 247.3 L 702.1 249.2 L 681.5 249.2 L 681.5 247.3 " fill="#000000"></path><path d="M 712.8 276.3 L 712.8 274.2 L 732.2 252.0 L 711.5 227.8 L 752.2 227.8 L 752.2 240.5 L 750.2 240.5 L 749.1 234.0 L 746.8 231.8 L 717.6 231.8 L 736.3 253.5 L 718.3 274.2 L 746.9 274.2 L 749.1 272.0 L 750.2 265.5 L 752.2 265.5 L 752.2 276.3 L 712.8 276.3 " fill="#000000"></path><path d="M 730.0 218.9 L 726.7 218.2 L 726.7 217.4 L 728.6 217.3 C 728.8 216.8 729.0 216.3 729.1 215.7 L 730.4 208.9 L 731.2 208.9 C 730.1 206.7 729.0 205.5 728.0 205.5 L 726.6 206.8 C 725.8 206.7 725.4 206.1 725.4 205.4 C 725.4 204.5 726.1 203.7 727.2 203.7 C 728.9 203.7 730.7 205.4 732.6 208.8 C 734.2 211.7 735.1 214.8 736.7 217.0 L 738.0 217.8 L 738.0 218.3 L 736.3 218.9 L 735.7 218.9 C 734.3 215.8 733.3 213.2 732.4 210.9 L 731.7 215.6 C 731.3 217.7 730.9 218.7 730.0 218.9 " fill="#B30000"></path><path d="M 765.0 257.5 L 760.7 256.6 L 760.7 255.8 L 763.1 255.5 L 759.8 237.7 L 759.5 237.4 L 757.7 237.0 L 757.7 236.1 L 765.0 236.1 L 765.0 237.0 L 762.1 237.5 L 763.2 243.2 C 763.9 242.8 764.7 242.6 765.5 242.6 C 767.6 242.6 769.8 243.6 771.3 245.3 C 773.1 247.3 773.9 249.5 773.9 252.1 C 773.9 255.6 772.5 257.5 770.1 257.5 C 768.7 257.5 767.2 256.8 765.4 255.6 L 765.8 257.5 L 765.0 257.5 Z M 763.5 244.8 L 765.2 254.3 C 766.6 255.3 767.7 255.9 768.6 255.9 C 770.3 255.9 771.4 254.5 771.4 252.1 C 771.4 249.6 770.5 247.2 769.5 245.8 C 768.6 244.6 767.4 244.0 766.1 244.0 C 765.2 244.0 764.4 244.2 763.5 244.8 " fill="#000000"></path><path d="M 780.7 251.6 C 780.7 259.9 783.2 264.1 786.7 264.7 L 786.7 266.1 C 781.6 265.5 778.1 260.8 778.1 251.6 C 778.1 242.3 781.6 237.6 786.7 237.0 L 786.7 238.4 C 783.2 239.0 780.7 243.2 780.7 251.6 " fill="#000000"></path><path d="M 795.0 257.8 L 790.3 256.8 L 790.3 255.8 L 793.0 255.5 C 793.3 254.9 793.6 254.1 793.7 253.2 L 795.6 243.5 L 796.7 243.5 C 795.1 240.4 793.5 238.7 792.2 238.6 L 790.1 240.5 C 789.0 240.3 788.3 239.5 788.3 238.5 C 788.3 237.3 789.4 236.1 790.9 236.1 C 793.4 236.1 796.0 238.6 798.7 243.4 C 801.0 247.6 802.2 252.0 804.6 255.2 L 806.4 256.2 L 806.4 257.0 L 804.0 257.8 L 803.0 257.8 C 801.2 253.4 799.6 249.6 798.4 246.5 L 797.3 253.1 C 796.9 256.1 796.3 257.6 795.0 257.8 " fill="#B30000"></path><path d="M 809.9 237.6 C 813.0 237.9 815.1 240.3 815.1 242.9 C 815.1 244.9 814.2 246.0 812.7 246.0 C 811.6 246.0 810.8 245.3 810.8 244.3 C 810.8 243.7 811.0 243.3 811.3 243.0 L 813.3 243.0 C 813.3 242.8 813.3 242.7 813.3 242.6 C 813.3 240.4 812.2 239.0 809.9 238.6 L 809.9 237.6 " fill="#000000"></path><path d="M 828.0 257.8 L 823.8 256.5 L 823.8 255.4 L 826.6 255.2 C 827.2 254.4 827.8 252.6 828.7 249.8 C 827.6 247.6 826.4 246.1 825.1 245.2 L 823.8 246.9 C 822.6 246.5 821.9 245.7 821.9 244.7 C 821.9 243.6 822.9 242.7 824.0 242.7 C 825.8 242.7 827.4 244.5 829.4 248.2 C 830.3 244.3 831.2 242.6 833.5 242.6 C 834.5 242.6 835.8 242.8 837.6 243.4 L 837.6 244.6 C 836.9 244.4 836.4 244.4 835.9 244.4 C 833.8 244.4 833.4 246.4 832.1 250.8 C 833.2 253.1 834.3 254.5 835.5 255.0 L 836.7 253.3 C 838.0 253.7 838.6 254.6 838.6 255.7 C 838.6 256.8 837.8 257.6 836.7 257.6 C 835.0 257.6 833.3 255.8 831.4 252.4 C 830.5 256.1 829.9 257.8 828.2 257.8 C 828.1 257.8 828.0 257.8 828.0 257.8 " fill="#52A700"></path><path d="M 850.2 251.6 C 850.2 243.2 847.8 239.0 844.2 238.4 L 844.2 237.0 C 849.3 237.6 852.8 242.3 852.8 251.6 C 852.8 260.8 849.3 265.5 844.2 266.1 L 844.2 264.7 C 847.8 264.1 850.2 259.9 850.2 251.6 " fill="#000000"></path></g></g><g><clipPath id="clip0x60000ecbac40"><path d="M 341.1 99.3 L 839.9 99.3 L 839.9 130.1 L 341.1 130.1 Z M 341.1 99.3 "></path></clipPath><g clip-path="url(#clip0x60000ecbac40)"><path d="M 348.5 121.0 L 344.2 120.1 L 344.2 119.3 L 346.6 119.0 L 343.3 101.2 L 343.1 100.9 L 341.2 100.5 L 341.2 99.6 L 348.6 99.6 L 348.6 100.5 L 345.7 101.0 L 346.7 106.7 C 347.4 106.3 348.2 106.1 349.0 106.1 C 351.1 106.1 353.3 107.1 354.9 108.8 C 356.6 110.8 357.5 113.0 357.5 115.7 C 357.5 119.1 356.0 121.0 353.6 121.0 C 352.2 121.0 350.7 120.4 348.9 119.1 L 349.3 121.0 L 348.5 121.0 Z M 347.0 108.3 L 348.7 117.8 C 350.1 118.8 351.3 119.4 352.2 119.4 C 353.8 119.4 354.9 118.0 354.9 115.6 C 354.9 113.2 354.1 110.7 353.0 109.3 C 352.1 108.1 351.0 107.5 349.6 107.5 C 348.8 107.5 347.9 107.7 347.0 108.3 " fill="#000000"></path><path d="M 364.3 115.1 C 364.3 123.4 366.7 127.6 370.2 128.2 L 370.2 129.6 C 365.2 129.0 361.7 124.3 361.7 115.1 C 361.7 105.8 365.2 101.1 370.2 100.5 L 370.2 101.9 C 366.7 102.5 364.3 106.7 364.3 115.1 " fill="#000000"></path><path d="M 378.6 121.3 L 373.8 120.3 L 373.8 119.3 L 376.5 119.0 C 376.8 118.4 377.1 117.6 377.2 116.7 L 379.1 107.0 L 380.3 107.0 C 378.6 103.9 377.1 102.2 375.7 102.1 L 373.7 104.1 C 372.6 103.8 371.9 103.0 371.9 102.0 C 371.9 100.8 373.0 99.6 374.5 99.6 C 377.0 99.6 379.5 102.1 382.2 106.9 C 384.5 111.1 385.7 115.5 388.1 118.7 L 389.9 119.7 L 389.9 120.5 L 387.5 121.3 L 386.6 121.3 C 384.7 116.9 383.2 113.1 381.9 110.0 L 380.9 116.6 C 380.4 119.6 379.9 121.1 378.6 121.3 " fill="#B30000"></path><path d="M 393.5 101.1 C 396.6 101.4 398.6 103.8 398.6 106.4 C 398.6 108.4 397.7 109.5 396.2 109.5 C 395.1 109.5 394.4 108.8 394.4 107.8 C 394.4 107.3 394.5 106.8 394.8 106.5 L 396.8 106.5 C 396.8 106.3 396.8 106.2 396.8 106.1 C 396.8 103.9 395.7 102.5 393.5 102.1 L 393.5 101.1 " fill="#000000"></path><path d="M 411.5 121.3 L 407.3 120.0 L 407.3 119.0 L 410.1 118.8 C 410.7 117.9 411.4 116.1 412.2 113.3 C 411.2 111.1 409.9 109.6 408.7 108.7 L 407.4 110.4 C 406.1 110.1 405.4 109.2 405.4 108.2 C 405.4 107.1 406.4 106.2 407.6 106.2 C 409.3 106.2 410.9 108.1 412.9 111.7 C 413.8 107.8 414.7 106.1 417.1 106.1 C 418.0 106.1 419.3 106.4 421.1 106.9 L 421.1 108.1 C 420.5 107.9 419.9 107.9 419.4 107.9 C 417.3 107.9 416.9 109.9 415.6 114.3 C 416.7 116.6 417.9 118.0 419.0 118.5 L 420.2 116.8 C 421.5 117.2 422.2 118.1 422.2 119.2 C 422.2 120.3 421.4 121.1 420.2 121.1 C 418.5 121.1 416.8 119.4 414.9 115.9 C 414.0 119.6 413.4 121.3 411.7 121.3 C 411.7 121.3 411.6 121.3 411.5 121.3 " fill="#52A700"></path><path d="M 433.6 115.1 C 433.6 106.7 431.2 102.5 427.7 101.9 L 427.7 100.5 C 432.7 101.1 436.2 105.8 436.2 115.1 C 436.2 124.3 432.7 129.0 427.7 129.6 L 427.7 128.2 C 431.2 127.6 433.6 123.4 433.6 115.1 " fill="#000000"></path><path d="M 446.9 117.4 L 467.4 117.4 L 467.4 119.3 L 446.9 119.3 L 446.9 117.4 Z M 446.9 110.8 L 467.4 110.8 L 467.4 112.7 L 446.9 112.7 L 446.9 110.8 " fill="#000000"></path><path d="M 483.0 121.0 L 478.7 120.1 L 478.7 119.3 L 481.1 119.0 L 477.9 101.2 L 477.6 100.9 L 475.7 100.5 L 475.7 99.6 L 483.1 99.6 L 483.1 100.5 L 480.2 101.0 L 481.2 106.7 C 481.9 106.3 482.7 106.1 483.5 106.1 C 485.6 106.1 487.8 107.1 489.3 108.8 C 491.1 110.8 492.0 113.0 492.0 115.7 C 492.0 119.1 490.5 121.0 488.1 121.0 C 486.8 121.0 485.2 120.4 483.5 119.1 L 483.8 121.0 L 483.0 121.0 Z M 481.5 108.3 L 483.3 117.8 C 484.6 118.8 485.8 119.4 486.7 119.4 C 488.3 119.4 489.4 118.0 489.4 115.6 C 489.4 113.2 488.5 110.7 487.5 109.3 C 486.6 108.1 485.5 107.5 484.1 107.5 C 483.3 107.5 482.4 107.7 481.5 108.3 " fill="#000000"></path><path d="M 498.8 115.1 C 498.8 123.4 501.2 127.6 504.7 128.2 L 504.7 129.6 C 499.7 129.0 496.2 124.3 496.2 115.1 C 496.2 105.8 499.7 101.1 504.7 100.5 L 504.7 101.9 C 501.2 102.5 498.8 106.7 498.8 115.1 " fill="#000000"></path><path d="M 513.0 121.3 L 508.3 120.3 L 508.3 119.3 L 511.0 119.0 C 511.3 118.4 511.6 117.6 511.7 116.7 L 513.6 107.0 L 514.8 107.0 C 513.1 103.9 511.6 102.2 510.2 102.1 L 508.1 104.1 C 507.1 103.8 506.4 103.0 506.4 102.0 C 506.4 100.8 507.5 99.6 508.9 99.6 C 511.4 99.6 514.0 102.1 516.7 106.9 C 519.0 111.1 520.3 115.5 522.6 118.7 L 524.4 119.7 L 524.4 120.5 L 522.0 121.3 L 521.1 121.3 C 519.2 116.9 517.7 113.1 516.4 110.0 L 515.4 116.6 C 514.9 119.6 514.4 121.1 513.0 121.3 " fill="#B30000"></path><path d="M 534.4 100.5 L 536.3 100.5 L 536.3 129.6 L 534.4 129.6 Z M 534.4 100.5 " fill="#000000"></path><path d="M 550.4 121.3 L 546.2 120.0 L 546.2 119.0 L 549.0 118.8 C 549.6 117.9 550.2 116.1 551.1 113.3 C 550.1 111.1 548.8 109.6 547.6 108.7 L 546.3 110.4 C 545.0 110.1 544.3 109.2 544.3 108.2 C 544.3 107.1 545.3 106.2 546.5 106.2 C 548.2 106.2 549.8 108.1 551.8 111.7 C 552.7 107.8 553.6 106.1 555.9 106.1 C 556.9 106.1 558.2 106.4 560.0 106.9 L 560.0 108.1 C 559.4 107.9 558.8 107.9 558.3 107.9 C 556.2 107.9 555.8 109.9 554.5 114.3 C 555.6 116.6 556.8 118.0 557.9 118.5 L 559.1 116.8 C 560.4 117.2 561.1 118.1 561.1 119.2 C 561.1 120.3 560.3 121.1 559.2 121.1 C 557.4 121.1 555.7 119.4 553.8 115.9 C 552.9 119.6 552.3 121.3 550.6 121.3 C 550.6 121.3 550.5 121.3 550.4 121.3 " fill="#52A700"></path><path d="M 572.5 115.1 C 572.5 106.7 570.1 102.5 566.6 101.9 L 566.6 100.5 C 571.7 101.1 575.1 105.8 575.1 115.1 C 575.1 124.3 571.7 129.0 566.6 129.6 L 566.6 128.2 C 570.1 127.6 572.5 123.4 572.5 115.1 " fill="#000000"></path><path d="M 583.6 121.0 L 579.3 120.1 L 579.3 119.3 L 581.7 119.0 L 578.5 101.2 L 578.2 100.9 L 576.3 100.5 L 576.3 99.6 L 583.7 99.6 L 583.7 100.5 L 580.8 101.0 L 581.8 106.7 C 582.5 106.3 583.3 106.1 584.1 106.1 C 586.2 106.1 588.4 107.1 589.9 108.8 C 591.7 110.8 592.6 113.0 592.6 115.7 C 592.6 119.1 591.1 121.0 588.7 121.0 C 587.4 121.0 585.8 120.4 584.1 119.1 L 584.4 121.0 L 583.6 121.0 Z M 582.1 108.3 L 583.8 117.8 C 585.2 118.8 586.4 119.4 587.3 119.4 C 588.9 119.4 590.0 118.0 590.0 115.6 C 590.0 113.2 589.1 110.7 588.1 109.3 C 587.2 108.1 586.1 107.5 584.7 107.5 C 583.9 107.5 583.0 107.7 582.1 108.3 " fill="#000000"></path><path d="M 599.4 115.1 C 599.4 123.4 601.8 127.6 605.3 128.2 L 605.3 129.6 C 600.3 129.0 596.8 124.3 596.8 115.1 C 596.8 105.8 600.3 101.1 605.3 100.5 L 605.3 101.9 C 601.8 102.5 599.4 106.7 599.4 115.1 " fill="#000000"></path><path d="M 613.5 121.3 L 609.3 120.0 L 609.3 119.0 L 612.1 118.8 C 612.7 117.9 613.4 116.1 614.2 113.3 C 613.2 111.1 611.9 109.6 610.7 108.7 L 609.4 110.4 C 608.1 110.1 607.4 109.2 607.4 108.2 C 607.4 107.1 608.4 106.2 609.6 106.2 C 611.3 106.2 612.9 108.1 614.9 111.7 C 615.8 107.8 616.7 106.1 619.1 106.1 C 620.0 106.1 621.3 106.4 623.1 106.9 L 623.1 108.1 C 622.5 107.9 621.9 107.9 621.4 107.9 C 619.3 107.9 618.9 109.9 617.6 114.3 C 618.7 116.6 619.9 118.0 621.0 118.5 L 622.2 116.8 C 623.5 117.2 624.2 118.1 624.2 119.2 C 624.2 120.3 623.4 121.1 622.2 121.1 C 620.5 121.1 618.8 119.4 616.9 115.9 C 616.0 119.6 615.4 121.3 613.7 121.3 C 613.7 121.3 613.6 121.3 613.5 121.3 " fill="#52A700"></path><path d="M 635.7 115.1 C 635.7 106.7 633.3 102.5 629.8 101.9 L 629.8 100.5 C 634.8 101.1 638.3 105.8 638.3 115.1 C 638.3 124.3 634.8 129.0 629.8 129.6 L 629.8 128.2 C 633.3 127.6 635.7 123.4 635.7 115.1 " fill="#000000"></path><path d="M 648.9 117.4 L 669.4 117.4 L 669.4 119.3 L 648.9 119.3 L 648.9 117.4 Z M 648.9 110.8 L 669.4 110.8 L 669.4 112.7 L 648.9 112.7 L 648.9 110.8 " fill="#000000"></path><path d="M 685.1 121.0 L 680.8 120.1 L 680.8 119.3 L 683.2 119.0 L 679.9 101.2 L 679.7 100.9 L 677.8 100.5 L 677.8 99.6 L 685.2 99.6 L 685.2 100.5 L 682.3 101.0 L 683.3 106.7 C 684.0 106.3 684.8 106.1 685.6 106.1 C 687.7 106.1 689.9 107.1 691.4 108.8 C 693.2 110.8 694.1 113.0 694.1 115.7 C 694.1 119.1 692.6 121.0 690.2 121.0 C 688.8 121.0 687.3 120.4 685.6 119.1 L 685.9 121.0 L 685.1 121.0 Z M 683.6 108.3 L 685.4 117.8 C 686.7 118.8 687.9 119.4 688.8 119.4 C 690.4 119.4 691.5 118.0 691.5 115.6 C 691.5 113.2 690.7 110.7 689.6 109.3 C 688.7 108.1 687.6 107.5 686.2 107.5 C 685.4 107.5 684.5 107.7 683.6 108.3 " fill="#000000"></path><path d="M 700.8 115.1 C 700.8 123.4 703.2 127.6 706.7 128.2 L 706.7 129.6 C 701.6 129.0 698.2 124.3 698.2 115.1 C 698.2 105.8 701.6 101.1 706.7 100.5 L 706.7 101.9 C 703.2 102.5 700.8 106.7 700.8 115.1 " fill="#000000"></path><path d="M 715.0 121.3 L 710.8 120.0 L 710.8 119.0 L 713.6 118.8 C 714.2 117.9 714.9 116.1 715.7 113.3 C 714.7 111.1 713.4 109.6 712.2 108.7 L 710.9 110.4 C 709.6 110.1 708.9 109.2 708.9 108.2 C 708.9 107.1 709.9 106.2 711.1 106.2 C 712.8 106.2 714.4 108.1 716.4 111.7 C 717.3 107.8 718.2 106.1 720.6 106.1 C 721.5 106.1 722.8 106.4 724.6 106.9 L 724.6 108.1 C 724.0 107.9 723.4 107.9 722.9 107.9 C 720.8 107.9 720.4 109.9 719.1 114.3 C 720.2 116.6 721.4 118.0 722.5 118.5 L 723.7 116.8 C 725.0 117.2 725.7 118.1 725.7 119.2 C 725.7 120.3 724.9 121.1 723.7 121.1 C 722.0 121.1 720.3 119.4 718.4 115.9 C 717.5 119.6 716.9 121.3 715.2 121.3 C 715.2 121.3 715.1 121.3 715.0 121.3 " fill="#52A700"></path><path d="M 737.1 100.5 L 739.0 100.5 L 739.0 129.6 L 737.1 129.6 Z M 737.1 100.5 " fill="#000000"></path><path d="M 753.3 121.3 L 748.5 120.3 L 748.5 119.3 L 751.2 119.0 C 751.5 118.4 751.8 117.6 751.9 116.7 L 753.8 107.0 L 755.0 107.0 C 753.3 103.9 751.8 102.2 750.4 102.1 L 748.4 104.1 C 747.3 103.8 746.6 103.0 746.6 102.0 C 746.6 100.8 747.7 99.6 749.2 99.6 C 751.7 99.6 754.2 102.1 756.9 106.9 C 759.2 111.1 760.4 115.5 762.8 118.7 L 764.6 119.7 L 764.6 120.5 L 762.2 121.3 L 761.3 121.3 C 759.4 116.9 757.9 113.1 756.6 110.0 L 755.6 116.6 C 755.1 119.6 754.6 121.1 753.3 121.3 " fill="#B30000"></path><path d="M 774.6 115.1 C 774.6 106.7 772.2 102.5 768.7 101.9 L 768.7 100.5 C 773.8 101.1 777.2 105.8 777.2 115.1 C 777.2 124.3 773.8 129.0 768.7 129.6 L 768.7 128.2 C 772.2 127.6 774.6 123.4 774.6 115.1 " fill="#000000"></path><path d="M 785.6 121.0 L 781.3 120.1 L 781.3 119.3 L 783.7 119.0 L 780.5 101.2 L 780.1 100.9 L 778.4 100.5 L 778.4 99.6 L 785.7 99.6 L 785.7 100.5 L 782.8 101.0 L 783.8 106.7 C 784.6 106.3 785.3 106.1 786.1 106.1 C 788.2 106.1 790.4 107.1 791.9 108.8 C 793.7 110.8 794.6 113.0 794.6 115.7 C 794.6 119.1 793.1 121.0 790.7 121.0 C 789.4 121.0 787.8 120.4 786.1 119.1 L 786.4 121.0 L 785.6 121.0 Z M 784.1 108.3 L 785.8 117.8 C 787.2 118.8 788.3 119.4 789.3 119.4 C 790.9 119.4 792.0 118.0 792.0 115.6 C 792.0 113.2 791.2 110.7 790.2 109.3 C 789.2 108.1 788.1 107.5 786.7 107.5 C 785.9 107.5 785.0 107.7 784.1 108.3 " fill="#000000"></path><path d="M 801.4 115.1 C 801.4 123.4 803.8 127.6 807.3 128.2 L 807.3 129.6 C 802.2 129.0 798.8 124.3 798.8 115.1 C 798.8 105.8 802.2 101.1 807.3 100.5 L 807.3 101.9 C 803.8 102.5 801.4 106.7 801.4 115.1 " fill="#000000"></path><path d="M 815.6 121.3 L 810.9 120.3 L 810.9 119.3 L 813.6 119.0 C 813.9 118.4 814.2 117.6 814.4 116.7 L 816.2 107.0 L 817.3 107.0 C 815.7 103.9 814.2 102.2 812.8 102.1 L 810.7 104.1 C 809.6 103.8 809.0 103.0 809.0 102.0 C 809.0 100.8 810.1 99.6 811.5 99.6 C 814.0 99.6 816.6 102.1 819.3 106.9 C 821.6 111.1 822.9 115.5 825.2 118.7 L 827.0 119.7 L 827.0 120.5 L 824.6 121.3 L 823.7 121.3 C 821.8 116.9 820.2 113.1 819.0 110.0 L 818.0 116.6 C 817.5 119.6 816.9 121.1 815.6 121.3 " fill="#B30000"></path><path d="M 837.0 115.1 C 837.0 106.7 834.6 102.5 831.1 101.9 L 831.1 100.5 C 836.1 101.1 839.6 105.8 839.6 115.1 C 839.6 124.3 836.1 129.0 831.1 129.6 L 831.1 128.2 C 834.6 127.6 837.0 123.4 837.0 115.1 " fill="#000000"></path></g></g><text xml:space="preserve" font-family="FiraSans-SemiBold,Fira Sans" font-weight="bold" font-size="32.0" fill="#20313F" transform="matrix(1.00, 0.00, -0.00, -1.00, 146.0, 235.8)">S</text><text xml:space="preserve" font-family="FiraSans-SemiBold,Fira Sans" font-weight="bold" font-size="32.0" fill="#20313F" transform="matrix(1.00, 0.00, -0.00, -1.00, 164.1, 235.8)">u</text><text xml:space="preserve" font-family="FiraSans-SemiBold,Fira Sans" font-weight="bold" font-size="32.0" fill="#20313F" transform="matrix(1.00, 0.00, -0.00, -1.00, 182.4, 235.8)">m</text><text xml:space="preserve" font-family="FiraSans-SemiBold,Fira Sans" font-weight="bold" font-size="32.0" fill="#20313F" transform="matrix(1.00, 0.00, -0.00, -1.00, 209.6, 235.8)"> </text><text xml:space="preserve" font-family="FiraSans-SemiBold,Fira Sans" font-weight="bold" font-size="32.0" fill="#20313F" transform="matrix(1.00, 0.00, -0.00, -1.00, 217.4, 235.8)">R</text><text xml:space="preserve" font-family="FiraSans-SemiBold,Fira Sans" font-weight="bold" font-size="32.0" fill="#20313F" transform="matrix(1.00, 0.00, -0.00, -1.00, 237.0, 235.8)">u</text><text xml:space="preserve" font-family="FiraSans-SemiBold,Fira Sans" font-weight="bold" font-size="32.0" fill="#20313F" transform="matrix(1.00, 0.00, -0.00, -1.00, 255.4, 235.8)">l</text><text xml:space="preserve" font-family="FiraSans-SemiBold,Fira Sans" font-weight="bold" font-size="32.0" fill="#20313F" transform="matrix(1.00, 0.00, -0.00, -1.00, 264.6, 235.8)">e</text><text xml:space="preserve" font-family="FiraSans-SemiBold,Fira Sans" font-weight="bold" font-size="32.0" fill="#20313F" transform="matrix(1.00, 0.00, -0.00, -1.00, 105.9, 100.8)">P</text><text xml:space="preserve" font-family="FiraSans-SemiBold,Fira Sans" font-weight="bold" font-size="32.0" fill="#20313F" transform="matrix(1.00, 0.00, -0.00, -1.00, 124.9, 100.8)">r</text><text xml:space="preserve" font-family="FiraSans-SemiBold,Fira Sans" font-weight="bold" font-size="32.0" fill="#20313F" transform="matrix(1.00, 0.00, -0.00, -1.00, 137.3, 100.8)">o</text><text xml:space="preserve" font-family="FiraSans-SemiBold,Fira Sans" font-weight="bold" font-size="32.0" fill="#20313F" transform="matrix(1.00, 0.00, -0.00, -1.00, 156.0, 100.8)">d</text><text xml:space="preserve" font-family="FiraSans-SemiBold,Fira Sans" font-weight="bold" font-size="32.0" fill="#20313F" transform="matrix(1.00, 0.00, -0.00, -1.00, 175.2, 100.8)">u</text><text xml:space="preserve" font-family="FiraSans-SemiBold,Fira Sans" font-weight="bold" font-size="32.0" fill="#20313F" transform="matrix(1.00, 0.00, -0.00, -1.00, 193.5, 100.8)">c</text><text xml:space="preserve" font-family="FiraSans-SemiBold,Fira Sans" font-weight="bold" font-size="32.0" fill="#20313F" transform="matrix(1.00, 0.00, -0.00, -1.00, 208.8, 100.8)">t</text><text xml:space="preserve" font-family="FiraSans-SemiBold,Fira Sans" font-weight="bold" font-size="32.0" fill="#20313F" transform="matrix(1.00, 0.00, -0.00, -1.00, 221.0, 100.8)"> </text><text xml:space="preserve" font-family="FiraSans-SemiBold,Fira Sans" font-weight="bold" font-size="32.0" fill="#20313F" transform="matrix(1.00, 0.00, -0.00, -1.00, 228.8, 100.8)">R</text><text xml:space="preserve" font-family="FiraSans-SemiBold,Fira Sans" font-weight="bold" font-size="32.0" fill="#20313F" transform="matrix(1.00, 0.00, -0.00, -1.00, 248.5, 100.8)">u</text><text xml:space="preserve" font-family="FiraSans-SemiBold,Fira Sans" font-weight="bold" font-size="32.0" fill="#20313F" transform="matrix(1.00, 0.00, -0.00, -1.00, 266.8, 100.8)">l</text><text xml:space="preserve" font-family="FiraSans-SemiBold,Fira Sans" font-weight="bold" font-size="32.0" fill="#20313F" transform="matrix(1.00, 0.00, -0.00, -1.00, 276.0, 100.8)">e</text><text xml:space="preserve" font-family="FiraSans-Book,Fira Sans" font-size="28.0" fill="#20313F" transform="matrix(1.00, 0.00, -0.00, -1.00, 373.0, 391.8)">P</text><text xml:space="preserve" font-family="FiraSans-Book,Fira Sans" font-size="28.0" fill="#20313F" transform="matrix(1.00, 0.00, -0.00, -1.00, 388.6, 391.8)">o</text><text xml:space="preserve" font-family="FiraSans-Book,Fira Sans" font-size="28.0" fill="#20313F" transform="matrix(1.00, 0.00, -0.00, -1.00, 404.9, 391.8)">s</text><text xml:space="preserve" font-family="FiraSans-Book,Fira Sans" font-size="28.0" fill="#20313F" transform="matrix(1.00, 0.00, -0.00, -1.00, 417.9, 391.8)">t</text><text xml:space="preserve" font-family="FiraSans-Book,Fira Sans" font-size="28.0" fill="#20313F" transform="matrix(1.00, 0.00, -0.00, -1.00, 427.6, 391.8)">e</text><text xml:space="preserve" font-family="FiraSans-Book,Fira Sans" font-size="28.0" fill="#20313F" transform="matrix(1.00, 0.00, -0.00, -1.00, 442.9, 391.8)">r</text><text xml:space="preserve" font-family="FiraSans-Book,Fira Sans" font-size="28.0" fill="#20313F" transform="matrix(1.00, 0.00, -0.00, -1.00, 453.7, 391.8)">i</text><text xml:space="preserve" font-family="FiraSans-Book,Fira Sans" font-size="28.0" fill="#20313F" transform="matrix(1.00, 0.00, -0.00, -1.00, 461.5, 391.8)">o</text><text xml:space="preserve" font-family="FiraSans-Book,Fira Sans" font-size="28.0" fill="#20313F" transform="matrix(1.00, 0.00, -0.00, -1.00, 477.7, 391.8)">r</text><text xml:space="preserve" font-family="FiraSans-Book,Fira Sans" font-size="28.0" fill="#20313F" transform="matrix(1.00, 0.00, -0.00, -1.00, 552.8, 391.1)">L</text><text xml:space="preserve" font-family="FiraSans-Book,Fira Sans" font-size="28.0" fill="#20313F" transform="matrix(1.00, 0.00, -0.00, -1.00, 566.6, 391.1)">i</text><text xml:space="preserve" font-family="FiraSans-Book,Fira Sans" font-size="28.0" fill="#20313F" transform="matrix(1.00, 0.00, -0.00, -1.00, 574.4, 391.1)">k</text><text xml:space="preserve" font-family="FiraSans-Book,Fira Sans" font-size="28.0" fill="#20313F" transform="matrix(1.00, 0.00, -0.00, -1.00, 588.3, 391.1)">e</text><text xml:space="preserve" font-family="FiraSans-Book,Fira Sans" font-size="28.0" fill="#20313F" transform="matrix(1.00, 0.00, -0.00, -1.00, 603.6, 391.1)">l</text><text xml:space="preserve" font-family="FiraSans-Book,Fira Sans" font-size="28.0" fill="#20313F" transform="matrix(1.00, 0.00, -0.00, -1.00, 611.7, 391.1)">i</text><text xml:space="preserve" font-family="FiraSans-Book,Fira Sans" font-size="28.0" fill="#20313F" transform="matrix(1.00, 0.00, -0.00, -1.00, 619.6, 391.1)">h</text><text xml:space="preserve" font-family="FiraSans-Book,Fira Sans" font-size="28.0" fill="#20313F" transform="matrix(1.00, 0.00, -0.00, -1.00, 635.9, 391.1)">o</text><text xml:space="preserve" font-family="FiraSans-Book,Fira Sans" font-size="28.0" fill="#20313F" transform="matrix(1.00, 0.00, -0.00, -1.00, 652.2, 391.1)">o</text><text xml:space="preserve" font-family="FiraSans-Book,Fira Sans" font-size="28.0" fill="#20313F" transform="matrix(1.00, 0.00, -0.00, -1.00, 668.5, 391.1)">d</text><text xml:space="preserve" font-family="FiraSans-Book,Fira Sans" font-size="28.0" fill="#20313F" transform="matrix(1.00, 0.00, -0.00, -1.00, 731.7, 390.3)">P</text><text xml:space="preserve" font-family="FiraSans-Book,Fira Sans" font-size="28.0" fill="#20313F" transform="matrix(1.00, 0.00, -0.00, -1.00, 747.9, 390.3)">r</text><text xml:space="preserve" font-family="FiraSans-Book,Fira Sans" font-size="28.0" fill="#20313F" transform="matrix(1.00, 0.00, -0.00, -1.00, 758.6, 390.3)">i</text><text xml:space="preserve" font-family="FiraSans-Book,Fira Sans" font-size="28.0" fill="#20313F" transform="matrix(1.00, 0.00, -0.00, -1.00, 766.4, 390.3)">o</text><text xml:space="preserve" font-family="FiraSans-Book,Fira Sans" font-size="28.0" fill="#20313F" transform="matrix(1.00, 0.00, -0.00, -1.00, 782.7, 390.3)">r</text><path d="M 14.2 50.8 L 0.2 50.8 L 0.2 -0.2 " fill="none" stroke="#000000" stroke-width="2.00" transform="matrix(1.00, 0.00, 0.00, -1.00, 352.8, 453.8)"></path><path d="M 14.2 51.8 L 0.2 51.8 L 0.2 -0.2 " fill="none" stroke="#000000" stroke-width="2.00" transform="matrix(1.00, 0.00, 0.00, -1.00, 527.8, 453.8)"></path><path d="M 14.8 45.1 L -0.2 45.1 L -0.2 0.1 " fill="none" stroke="#000000" stroke-width="2.00" transform="matrix(1.00, 0.00, 0.00, -1.00, 711.2, 445.1)"></path></g></svg>