<?xml version="1.0" encoding="UTF-8" standalone="no"?><svg xmlns="http://www.w3.org/2000/svg" xmlns:xlink="http://www.w3.org/1999/xlink" clip-rule="evenodd" stroke-miterlimit="10" viewBox="0 0 1024 768"><desc>SVG generated by Keynote</desc><defs><linearGradient id="gradSh1.95" x1="0.0" y1="0.0" x2="100.0" y2="0.0" gradientUnits="userSpaceOnUse" gradientTransform="matrix(0.00, -7.70, -10.26, 0.00, 512.0, 769.0)"><stop offset="0.00000" stop-color="#FFFFFF"></stop><stop offset="0.01906" stop-color="#FEFFFF"></stop><stop offset="1.00000" stop-color="#E5F3FF"></stop></linearGradient></defs><g transform="matrix(1.00, 0.00, -0.00, -1.00, 0.0, 768.0)"><g><clipPath id="clip0x60800aca4680"><path d="M 0.0 768.0 L 1024.0 768.0 L 1024.0 0.0 L 0.0 0.0 Z M 0.0 768.0 "></path></clipPath><g clip-path="url(#clip0x60800aca4680)"><path d="M 0.0 768.0 L 1024.0 768.0 L 1024.0 0.0 L 0.0 0.0 Z M 0.0 768.0 " fill="url(#gradSh1.95)"></path></g></g><g><clipPath id="clip0x60800b2a48c0"><path d="M 361.8 162.2 L 424.0 162.2 L 424.0 193.0 L 361.8 193.0 Z M 361.8 162.2 "></path></clipPath><g clip-path="url(#clip0x60800b2a48c0)"><path d="M 369.8 183.8 L 365.5 182.9 L 365.5 182.1 L 367.9 181.8 L 364.7 164.0 L 364.3 163.7 L 362.6 163.3 L 362.6 162.4 L 369.9 162.4 L 369.9 163.3 L 367.0 163.8 L 368.0 169.5 C 368.8 169.2 369.6 169.0 370.3 169.0 C 372.4 169.0 374.6 169.9 376.2 171.7 C 377.9 173.6 378.7 175.8 378.7 178.5 C 378.7 181.9 377.3 183.8 374.9 183.8 C 373.6 183.8 372.0 183.2 370.2 181.9 L 370.6 183.8 L 369.8 183.8 Z M 368.3 171.1 L 370.0 180.6 C 371.4 181.7 372.5 182.2 373.5 182.2 C 375.1 182.2 376.2 180.8 376.2 178.4 C 376.2 176.0 375.4 173.5 374.4 172.2 C 373.4 170.9 372.3 170.3 370.9 170.3 C 370.1 170.3 369.2 170.6 368.3 171.1 " fill="#000000"></path><path d="M 385.6 177.9 C 385.6 186.2 388.0 190.4 391.5 191.0 L 391.5 192.4 C 386.4 191.8 383.0 187.1 383.0 177.9 C 383.0 168.6 386.4 163.9 391.5 163.3 L 391.5 164.7 C 388.0 165.3 385.6 169.5 385.6 177.9 " fill="#000000"></path><path d="M 399.7 184.2 L 395.5 182.8 L 395.5 181.8 L 398.3 181.6 C 398.9 180.8 399.6 178.9 400.4 176.1 C 399.4 174.0 398.1 172.4 396.9 171.6 L 395.5 173.2 C 394.3 172.9 393.6 172.0 393.6 171.0 C 393.6 169.9 394.6 169.0 395.8 169.0 C 397.5 169.0 399.1 170.9 401.1 174.5 C 402.0 170.6 402.9 168.9 405.2 168.9 C 406.2 168.9 407.5 169.2 409.3 169.7 L 409.3 170.9 C 408.7 170.8 408.1 170.7 407.6 170.7 C 405.6 170.7 405.1 172.7 403.8 177.2 C 404.9 179.4 406.1 180.8 407.2 181.3 L 408.4 179.7 C 409.7 180.0 410.4 180.9 410.4 182.0 C 410.4 183.1 409.6 184.0 408.5 184.0 C 406.7 184.0 405.0 182.2 403.1 178.7 C 402.2 182.4 401.6 184.2 399.9 184.2 C 399.9 184.2 399.8 184.2 399.7 184.2 " fill="#52A700"></path><path d="M 421.9 177.9 C 421.9 169.5 419.5 165.3 416.0 164.7 L 416.0 163.3 C 421.0 163.9 424.5 168.6 424.5 177.9 C 424.5 187.1 421.0 191.8 416.0 192.4 L 416.0 191.0 C 419.5 190.4 421.9 186.2 421.9 177.9 " fill="#000000"></path></g></g><g><clipPath id="clip0x60800b2a4c20"><path d="M 361.4 215.1 L 461.1 215.1 L 461.1 245.9 L 361.4 245.9 Z M 361.4 215.1 "></path></clipPath><g clip-path="url(#clip0x60800b2a4c20)"><path d="M 368.9 236.8 L 364.6 235.8 L 364.6 235.1 L 367.0 234.8 L 363.8 217.0 L 363.5 216.6 L 361.6 216.3 L 361.6 215.4 L 369.0 215.4 L 369.0 216.3 L 366.1 216.8 L 367.1 222.5 C 367.9 222.1 368.7 221.9 369.5 221.9 C 371.5 221.9 373.7 222.9 375.3 224.6 C 377.0 226.6 377.8 228.8 377.8 231.5 C 377.8 234.9 376.4 236.8 374.0 236.8 C 372.6 236.8 371.1 236.1 369.3 234.9 L 369.7 236.8 L 368.9 236.8 Z M 367.4 224.1 L 369.1 233.6 C 370.5 234.6 371.6 235.2 372.6 235.2 C 374.2 235.2 375.3 233.8 375.3 231.4 C 375.3 228.9 374.5 226.5 373.4 225.1 C 372.5 223.9 371.4 223.3 370.0 223.3 C 369.2 223.3 368.3 223.5 367.4 224.1 " fill="#000000"></path><path d="M 384.6 230.8 C 384.6 239.2 387.0 243.4 390.5 244.0 L 390.5 245.4 C 385.5 244.8 382.0 240.1 382.0 230.8 C 382.0 221.6 385.5 216.9 390.5 216.3 L 390.5 217.7 C 387.0 218.3 384.6 222.5 384.6 230.8 " fill="#000000"></path><path d="M 398.9 237.1 L 394.2 236.1 L 394.2 235.0 L 396.9 234.8 C 397.2 234.2 397.5 233.4 397.6 232.5 L 399.5 222.8 L 400.7 222.8 C 399.0 219.7 397.5 218.0 396.1 217.9 L 394.1 219.8 C 392.9 219.6 392.3 218.8 392.3 217.8 C 392.3 216.6 393.4 215.4 394.8 215.4 C 397.4 215.4 399.9 217.8 402.6 222.7 C 404.9 226.9 406.1 231.3 408.5 234.5 L 410.3 235.5 L 410.3 236.3 L 407.9 237.1 L 407.0 237.1 C 405.1 232.7 403.6 228.9 402.3 225.8 L 401.3 232.4 C 400.8 235.4 400.3 236.9 398.9 237.1 " fill="#B30000"></path><path d="M 420.2 216.3 L 422.0 216.3 L 422.0 245.4 L 420.2 245.4 Z M 420.2 216.3 " fill="#000000"></path><path d="M 436.2 237.1 L 432.0 235.8 L 432.0 234.8 L 434.8 234.5 C 435.4 233.7 436.0 231.9 437.0 229.1 C 435.9 226.9 434.6 225.4 433.4 224.5 L 432.1 226.2 C 430.8 225.9 430.1 225.0 430.1 224.0 C 430.1 222.9 431.1 222.0 432.3 222.0 C 434.0 222.0 435.6 223.8 437.6 227.5 C 438.5 223.6 439.4 221.8 441.7 221.8 C 442.7 221.8 444.0 222.2 445.8 222.7 L 445.8 223.9 C 445.2 223.7 444.6 223.7 444.1 223.7 C 442.0 223.7 441.6 225.7 440.3 230.1 C 441.4 232.4 442.6 233.7 443.7 234.2 L 444.9 232.6 C 446.2 233.0 446.9 233.9 446.9 235.0 C 446.9 236.1 446.1 236.9 444.9 236.9 C 443.2 236.9 441.5 235.2 439.6 231.7 C 438.7 235.4 438.1 237.1 436.4 237.1 C 436.4 237.1 436.3 237.1 436.2 237.1 " fill="#52A700"></path><path d="M 458.4 230.8 C 458.4 222.5 456.0 218.3 452.5 217.7 L 452.5 216.3 C 457.5 216.9 461.0 221.6 461.0 230.8 C 461.0 240.1 457.5 244.8 452.5 245.4 L 452.5 244.0 C 456.0 243.4 458.4 239.2 458.4 230.8 " fill="#000000"></path></g></g><text xml:space="preserve" font-family="FiraSans-Light,Fira Sans" font-size="60.0" fill="#20313F" transform="matrix(1.00, 0.00, -0.00, -1.00, 258.8, 665.0)">B</text><text xml:space="preserve" font-family="FiraSans-Light,Fira Sans" font-size="60.0" fill="#20313F" transform="matrix(1.00, 0.00, -0.00, -1.00, 294.7, 665.0)">a</text><text xml:space="preserve" font-family="FiraSans-Light,Fira Sans" font-size="60.0" fill="#20313F" transform="matrix(1.00, 0.00, -0.00, -1.00, 326.3, 665.0)">y</text><text xml:space="preserve" font-family="FiraSans-Light,Fira Sans" font-size="60.0" fill="#20313F" transform="matrix(1.00, 0.00, -0.00, -1.00, 353.4, 665.0)">e</text><text xml:space="preserve" font-family="FiraSans-Light,Fira Sans" font-size="60.0" fill="#20313F" transform="matrix(1.00, 0.00, -0.00, -1.00, 385.7, 665.0)">s</text><text xml:space="preserve" font-family="FiraSans-Light,Fira Sans" font-size="60.0" fill="#20313F" transform="matrix(1.00, 0.00, -0.00, -1.00, 413.6, 665.0)">i</text><text xml:space="preserve" font-family="FiraSans-Light,Fira Sans" font-size="60.0" fill="#20313F" transform="matrix(1.00, 0.00, -0.00, -1.00, 429.8, 665.0)">a</text><text xml:space="preserve" font-family="FiraSans-Light,Fira Sans" font-size="60.0" fill="#20313F" transform="matrix(1.00, 0.00, -0.00, -1.00, 461.9, 665.0)">n</text><text xml:space="preserve" font-family="FiraSans-Light,Fira Sans" font-size="60.0" fill="#20313F" transform="matrix(1.00, 0.00, -0.00, -1.00, 497.0, 665.0)"> </text><text xml:space="preserve" font-family="FiraSans-Light,Fira Sans" font-size="60.0" fill="#20313F" transform="matrix(1.00, 0.00, -0.00, -1.00, 513.7, 665.0)">I</text><text xml:space="preserve" font-family="FiraSans-Light,Fira Sans" font-size="60.0" fill="#20313F" transform="matrix(1.00, 0.00, -0.00, -1.00, 530.6, 665.0)">n</text><text xml:space="preserve" font-family="FiraSans-Light,Fira Sans" font-size="60.0" fill="#20313F" transform="matrix(1.00, 0.00, -0.00, -1.00, 565.7, 665.0)">f</text><text xml:space="preserve" font-family="FiraSans-Light,Fira Sans" font-size="60.0" fill="#20313F" transform="matrix(1.00, 0.00, -0.00, -1.00, 584.3, 665.0)">e</text><text xml:space="preserve" font-family="FiraSans-Light,Fira Sans" font-size="60.0" fill="#20313F" transform="matrix(1.00, 0.00, -0.00, -1.00, 616.6, 665.0)">r</text><text xml:space="preserve" font-family="FiraSans-Light,Fira Sans" font-size="60.0" fill="#20313F" transform="matrix(1.00, 0.00, -0.00, -1.00, 638.4, 665.0)">e</text><text xml:space="preserve" font-family="FiraSans-Light,Fira Sans" font-size="60.0" fill="#20313F" transform="matrix(1.00, 0.00, -0.00, -1.00, 670.7, 665.0)">n</text><text xml:space="preserve" font-family="FiraSans-Light,Fira Sans" font-size="60.0" fill="#20313F" transform="matrix(1.00, 0.00, -0.00, -1.00, 705.7, 665.0)">c</text><text xml:space="preserve" font-family="FiraSans-Light,Fira Sans" font-size="60.0" fill="#20313F" transform="matrix(1.00, 0.00, -0.00, -1.00, 733.2, 665.0)">e</text><g><clipPath id="clip0x60800b2a57c0"><path d="M 167.0 530.0 L 260.0 530.0 L 260.0 430.0 L 167.0 430.0 Z M 167.2 529.7 "></path></clipPath><g clip-path="url(#clip0x60800b2a57c0)"><image xlink:href="../../E036354C-45F9-49EF-A44E-38E45C76C8A9/assets/A7824EB60E7B37FF1FA79F367EC85489.png" width="304.00" height="326.00" transform="matrix(0.48, 0.00, -0.00, -0.48, 138.6, 530.6)"></image></g></g><image xlink:href="../../E036354C-45F9-49EF-A44E-38E45C76C8A9/assets/12F5562B95BE4D448F9A73BF306637F2.png" width="103.00" height="113.00" transform="matrix(1.00, 0.00, -0.00, 1.00, 162.2, 420.0)"></image><image xlink:href="../../E036354C-45F9-49EF-A44E-38E45C76C8A9/assets/A2206BBA809CF0994CD01C04E0871326.png" width="612.00" height="108.00" transform="matrix(1.00, 0.00, -0.00, -1.00, 260.3, 531.4)" opacity="0.50"></image><path d="M 333.0 528.5 C 322.0 529.0 313.5 520.0 313.5 509.0 L 313.5 496.4 L 262.0 485.8 L 313.5 475.1 L 313.5 452.0 C 313.5 441.0 322.0 431.5 333.0 431.5 L 844.0 431.5 C 855.0 431.5 864.5 441.0 864.5 452.0 L 864.5 509.0 C 864.5 520.0 855.0 528.5 844.0 528.5 L 333.0 528.5 Z M 333.0 529.0 " fill="#FFFFFF"></path><path d="M 20.0 0.5 C 9.0 0.0 0.5 9.0 0.5 20.0 L 0.5 32.6 L -51.0 43.2 L 0.5 53.9 L 0.5 77.0 C 0.5 88.0 9.0 97.5 20.0 97.5 L 531.0 97.5 C 542.0 97.5 551.5 88.0 551.5 77.0 L 551.5 20.0 C 551.5 9.0 542.0 0.5 531.0 0.5 L 20.0 0.5 Z M 20.0 0.0 " fill="none" stroke="#2B3E56" stroke-width="3.00" transform="matrix(1.00, 0.00, 0.00, -1.00, 313.0, 529.0)"></path><g><clipPath id="clip0x60000ecbd820"><path d="M 347.1 463.9 L 822.2 463.9 L 822.2 502.3 L 347.1 502.3 Z M 347.1 463.9 "></path></clipPath><g clip-path="url(#clip0x60000ecbd820)"><path d="M 357.1 491.1 L 351.7 489.9 L 351.7 489.0 L 354.6 488.6 L 350.6 466.4 L 350.2 465.9 L 348.0 465.5 L 348.0 464.3 L 357.2 464.3 L 357.2 465.5 L 353.5 466.1 L 354.8 473.2 C 355.8 472.8 356.7 472.5 357.7 472.5 C 360.3 472.5 363.1 473.8 365.0 475.9 C 367.2 478.3 368.2 481.1 368.2 484.4 C 368.2 488.8 366.4 491.1 363.4 491.1 C 361.7 491.1 359.8 490.3 357.6 488.8 L 358.1 491.1 L 357.1 491.1 Z M 355.2 475.2 L 357.4 487.1 C 359.1 488.4 360.5 489.1 361.6 489.1 C 363.7 489.1 365.1 487.4 365.1 484.4 C 365.1 481.3 364.0 478.2 362.7 476.5 C 361.6 475.0 360.1 474.2 358.5 474.2 C 357.4 474.2 356.3 474.5 355.2 475.2 " fill="#000000"></path><path d="M 376.7 483.7 C 376.7 494.1 379.8 499.3 384.2 500.1 L 384.2 501.9 C 377.8 501.1 373.5 495.2 373.5 483.7 C 373.5 472.1 377.8 466.2 384.2 465.5 L 384.2 467.2 C 379.8 468.0 376.7 473.2 376.7 483.7 " fill="#000000"></path><path d="M 394.5 491.5 L 389.3 489.8 L 389.3 488.5 L 392.8 488.3 C 393.5 487.3 394.3 485.0 395.4 481.5 C 394.1 478.8 392.5 476.9 391.0 475.8 L 389.3 477.8 C 387.8 477.4 386.9 476.3 386.9 475.1 C 386.9 473.8 388.1 472.6 389.6 472.6 C 391.8 472.6 393.8 474.9 396.3 479.5 C 397.3 474.6 398.5 472.4 401.4 472.4 C 402.6 472.4 404.3 472.8 406.5 473.5 L 406.5 475.0 C 405.7 474.8 405.0 474.7 404.4 474.7 C 401.8 474.7 401.3 477.3 399.7 482.8 C 401.0 485.6 402.5 487.3 403.9 487.9 L 405.4 485.9 C 407.0 486.4 407.8 487.5 407.8 488.8 C 407.8 490.2 406.9 491.3 405.4 491.3 C 403.3 491.3 401.1 489.0 398.8 484.7 C 397.6 489.4 396.9 491.5 394.8 491.5 C 394.7 491.5 394.6 491.5 394.5 491.5 " fill="#52A700"></path><path d="M 422.1 465.5 L 424.4 465.5 L 424.4 501.9 L 422.1 501.9 Z M 422.1 465.5 " fill="#000000"></path><path d="M 442.3 491.5 L 436.4 490.2 L 436.4 488.9 L 439.7 488.6 C 440.1 487.8 440.5 486.8 440.7 485.8 L 443.0 473.7 L 444.4 473.7 C 442.3 469.7 440.4 467.7 438.7 467.5 L 436.2 469.9 C 434.8 469.6 434.0 468.7 434.0 467.3 C 434.0 465.8 435.3 464.4 437.2 464.4 C 440.3 464.4 443.5 467.4 446.8 473.5 C 449.8 478.7 451.3 484.2 454.3 488.2 L 456.5 489.5 L 456.5 490.5 L 453.5 491.5 L 452.3 491.5 C 450.0 486.0 448.0 481.2 446.5 477.3 L 445.2 485.6 C 444.6 489.3 443.9 491.2 442.3 491.5 " fill="#B30000"></path><path d="M 469.0 483.7 C 469.0 473.2 466.0 468.0 461.6 467.2 L 461.6 465.5 C 467.9 466.2 472.3 472.1 472.3 483.7 C 472.3 495.2 467.9 501.1 461.6 501.9 L 461.6 500.1 C 466.0 499.3 469.0 494.1 469.0 483.7 " fill="#000000"></path><path d="M 485.5 486.7 L 511.2 486.7 L 511.2 488.9 L 485.5 488.9 L 485.5 486.7 Z M 485.5 478.4 L 511.2 478.4 L 511.2 480.7 L 485.5 480.7 L 485.5 478.4 " fill="#000000"></path><path d="M 530.7 491.1 L 525.3 489.9 L 525.3 489.0 L 528.2 488.6 L 524.2 466.4 L 523.9 465.9 L 521.6 465.5 L 521.6 464.3 L 530.8 464.3 L 530.8 465.5 L 527.1 466.1 L 528.4 473.2 C 529.3 472.8 530.4 472.5 531.3 472.5 C 533.9 472.5 536.6 473.8 538.6 475.9 C 540.8 478.3 541.8 481.1 541.8 484.4 C 541.8 488.8 540.0 491.1 537.0 491.1 C 535.4 491.1 533.4 490.3 531.2 488.8 L 531.7 491.1 L 530.7 491.1 Z M 528.8 475.2 L 531.0 487.1 C 532.7 488.4 534.1 489.1 535.2 489.1 C 537.3 489.1 538.7 487.4 538.7 484.4 C 538.7 481.3 537.6 478.2 536.3 476.5 C 535.1 475.0 533.7 474.2 532.1 474.2 C 531.0 474.2 529.9 474.5 528.8 475.2 " fill="#000000"></path><path d="M 550.3 483.7 C 550.3 494.1 553.4 499.3 557.8 500.1 L 557.8 501.9 C 551.4 501.1 547.1 495.2 547.1 483.7 C 547.1 472.1 551.4 466.2 557.8 465.5 L 557.8 467.2 C 553.4 468.0 550.3 473.2 550.3 483.7 " fill="#000000"></path><path d="M 568.2 491.5 L 562.3 490.2 L 562.3 488.9 L 565.6 488.6 C 566.0 487.8 566.4 486.8 566.6 485.8 L 568.9 473.7 L 570.3 473.7 C 568.2 469.7 566.4 467.7 564.6 467.5 L 562.1 469.9 C 560.7 469.6 559.9 468.7 559.9 467.3 C 559.9 465.8 561.2 464.4 563.0 464.4 C 566.2 464.4 569.4 467.4 572.7 473.5 C 575.7 478.7 577.2 484.2 580.2 488.2 L 582.4 489.5 L 582.4 490.5 L 579.4 491.5 L 578.2 491.5 C 575.9 486.0 573.9 481.2 572.4 477.3 L 571.1 485.6 C 570.5 489.3 569.8 491.2 568.2 491.5 " fill="#B30000"></path><path d="M 594.9 465.5 L 597.2 465.5 L 597.2 501.9 L 594.9 501.9 Z M 594.9 465.5 " fill="#000000"></path><path d="M 614.9 491.5 L 609.7 489.8 L 609.7 488.5 L 613.2 488.3 C 613.9 487.3 614.7 485.0 615.8 481.5 C 614.5 478.8 612.9 476.9 611.4 475.8 L 609.7 477.8 C 608.2 477.4 607.3 476.3 607.3 475.1 C 607.3 473.8 608.5 472.6 610.0 472.6 C 612.2 472.6 614.2 474.9 616.7 479.5 C 617.7 474.6 618.9 472.4 621.8 472.4 C 623.0 472.4 624.7 472.8 626.9 473.5 L 626.9 475.0 C 626.1 474.8 625.4 474.7 624.8 474.7 C 622.2 474.7 621.7 477.3 620.1 482.8 C 621.4 485.6 622.9 487.3 624.3 487.9 L 625.8 485.9 C 627.4 486.4 628.3 487.5 628.3 488.8 C 628.3 490.2 627.2 491.3 625.8 491.3 C 623.7 491.3 621.5 489.0 619.2 484.7 C 618.0 489.4 617.3 491.5 615.2 491.5 C 615.1 491.5 615.0 491.5 614.9 491.5 " fill="#52A700"></path><path d="M 642.6 483.7 C 642.6 473.2 639.5 468.0 635.2 467.2 L 635.2 465.5 C 641.5 466.2 645.9 472.1 645.9 483.7 C 645.9 495.2 641.5 501.1 635.2 501.9 L 635.2 500.1 C 639.5 499.3 642.6 494.1 642.6 483.7 " fill="#000000"></path><path d="M 656.5 491.1 L 651.1 489.9 L 651.1 489.0 L 654.0 488.6 L 650.0 466.4 L 649.6 465.9 L 647.4 465.5 L 647.4 464.3 L 656.6 464.3 L 656.6 465.5 L 652.9 466.1 L 654.2 473.2 C 655.2 472.8 656.1 472.5 657.1 472.5 C 659.7 472.5 662.4 473.8 664.4 475.9 C 666.6 478.3 667.6 481.1 667.6 484.4 C 667.6 488.8 665.8 491.1 662.8 491.1 C 661.1 491.1 659.2 490.3 657.0 488.8 L 657.5 491.1 L 656.5 491.1 Z M 654.6 475.2 L 656.8 487.1 C 658.5 488.4 659.9 489.1 661.0 489.1 C 663.1 489.1 664.5 487.4 664.5 484.4 C 664.5 481.3 663.4 478.2 662.1 476.5 C 661.0 475.0 659.5 474.2 657.9 474.2 C 656.8 474.2 655.7 474.5 654.6 475.2 " fill="#000000"></path><path d="M 676.0 483.7 C 676.0 494.1 679.1 499.3 683.5 500.1 L 683.5 501.9 C 677.1 501.1 672.8 495.2 672.8 483.7 C 672.8 472.1 677.1 466.2 683.5 465.5 L 683.5 467.2 C 679.1 468.0 676.0 473.2 676.0 483.7 " fill="#000000"></path><path d="M 693.8 491.5 L 688.6 489.8 L 688.6 488.5 L 692.1 488.3 C 692.8 487.3 693.6 485.0 694.7 481.5 C 693.4 478.8 691.8 476.9 690.3 475.8 L 688.6 477.8 C 687.1 477.4 686.2 476.3 686.2 475.1 C 686.2 473.8 687.4 472.6 688.9 472.6 C 691.1 472.6 693.1 474.9 695.6 479.5 C 696.6 474.6 697.8 472.4 700.7 472.4 C 701.9 472.4 703.6 472.8 705.8 473.5 L 705.8 475.0 C 705.0 474.8 704.3 474.7 703.7 474.7 C 701.1 474.7 700.6 477.3 699.0 482.8 C 700.3 485.6 701.8 487.3 703.2 487.9 L 704.7 485.9 C 706.3 486.4 707.2 487.5 707.2 488.8 C 707.2 490.2 706.1 491.3 704.7 491.3 C 702.6 491.3 700.4 489.0 698.1 484.7 C 696.9 489.4 696.2 491.5 694.1 491.5 C 694.0 491.5 693.9 491.5 693.8 491.5 " fill="#52A700"></path><path d="M 721.5 483.7 C 721.5 473.2 718.4 468.0 714.1 467.2 L 714.1 465.5 C 720.4 466.2 724.8 472.1 724.8 483.7 C 724.8 495.2 720.4 501.1 714.1 501.9 L 714.1 500.1 C 718.4 499.3 721.5 494.1 721.5 483.7 " fill="#000000"></path><path d="M 744.1 501.9 L 741.7 501.9 L 729.2 465.5 L 731.6 465.5 L 744.1 501.9 " fill="#000000"></path><path d="M 754.7 491.1 L 749.3 489.9 L 749.3 489.0 L 752.2 488.6 L 748.2 466.4 L 747.8 465.9 L 745.6 465.5 L 745.6 464.3 L 754.8 464.3 L 754.8 465.5 L 751.1 466.1 L 752.4 473.2 C 753.4 472.8 754.3 472.5 755.3 472.5 C 757.9 472.5 760.7 473.8 762.6 475.9 C 764.8 478.3 765.8 481.1 765.8 484.4 C 765.8 488.8 764.0 491.1 761.0 491.1 C 759.3 491.1 757.4 490.3 755.2 488.8 L 755.7 491.1 L 754.7 491.1 Z M 752.8 475.2 L 755.0 487.1 C 756.7 488.4 758.1 489.1 759.2 489.1 C 761.3 489.1 762.7 487.4 762.7 484.4 C 762.7 481.3 761.6 478.2 760.3 476.5 C 759.2 475.0 757.7 474.2 756.1 474.2 C 755.0 474.2 753.9 474.5 752.8 475.2 " fill="#000000"></path><path d="M 774.3 483.7 C 774.3 494.1 777.4 499.3 781.8 500.1 L 781.8 501.9 C 775.4 501.1 771.1 495.2 771.1 483.7 C 771.1 472.1 775.4 466.2 781.8 465.5 L 781.8 467.2 C 777.4 468.0 774.3 473.2 774.3 483.7 " fill="#000000"></path><path d="M 792.2 491.5 L 786.3 490.2 L 786.3 488.9 L 789.6 488.6 C 790.0 487.8 790.4 486.8 790.6 485.8 L 792.9 473.7 L 794.3 473.7 C 792.3 469.7 790.3 467.7 788.6 467.5 L 786.1 469.9 C 784.7 469.6 783.8 468.7 783.8 467.3 C 783.8 465.8 785.2 464.4 787.1 464.4 C 790.2 464.4 793.4 467.4 796.7 473.5 C 799.7 478.7 801.2 484.2 804.2 488.2 L 806.4 489.5 L 806.4 490.5 L 803.4 491.5 L 802.2 491.5 C 799.8 486.0 798.0 481.2 796.4 477.3 L 795.1 485.6 C 794.5 489.3 793.8 491.2 792.2 491.5 " fill="#B30000"></path><path d="M 818.9 483.7 C 818.9 473.2 815.9 468.0 811.5 467.2 L 811.5 465.5 C 817.8 466.2 822.2 472.1 822.2 483.7 C 822.2 495.2 817.8 501.1 811.5 501.9 L 811.5 500.1 C 815.9 499.3 818.9 494.1 818.9 483.7 " fill="#000000"></path></g></g><text xml:space="preserve" font-family="FiraSans-Book,Fira Sans" font-size="28.0" fill="#20313F" transform="matrix(1.00, 0.00, -0.00, -1.00, 373.0, 391.8)">P</text><text xml:space="preserve" font-family="FiraSans-Book,Fira Sans" font-size="28.0" fill="#20313F" transform="matrix(1.00, 0.00, -0.00, -1.00, 388.6, 391.8)">o</text><text xml:space="preserve" font-family="FiraSans-Book,Fira Sans" font-size="28.0" fill="#20313F" transform="matrix(1.00, 0.00, -0.00, -1.00, 404.9, 391.8)">s</text><text xml:space="preserve" font-family="FiraSans-Book,Fira Sans" font-size="28.0" fill="#20313F" transform="matrix(1.00, 0.00, -0.00, -1.00, 417.9, 391.8)">t</text><text xml:space="preserve" font-family="FiraSans-Book,Fira Sans" font-size="28.0" fill="#20313F" transform="matrix(1.00, 0.00, -0.00, -1.00, 427.6, 391.8)">e</text><text xml:space="preserve" font-family="FiraSans-Book,Fira Sans" font-size="28.0" fill="#20313F" transform="matrix(1.00, 0.00, -0.00, -1.00, 442.9, 391.8)">r</text><text xml:space="preserve" font-family="FiraSans-Book,Fira Sans" font-size="28.0" fill="#20313F" transform="matrix(1.00, 0.00, -0.00, -1.00, 453.7, 391.8)">i</text><text xml:space="preserve" font-family="FiraSans-Book,Fira Sans" font-size="28.0" fill="#20313F" transform="matrix(1.00, 0.00, -0.00, -1.00, 461.5, 391.8)">o</text><text xml:space="preserve" font-family="FiraSans-Book,Fira Sans" font-size="28.0" fill="#20313F" transform="matrix(1.00, 0.00, -0.00, -1.00, 477.7, 391.8)">r</text><text xml:space="preserve" font-family="FiraSans-Book,Fira Sans" font-size="28.0" fill="#20313F" transform="matrix(1.00, 0.00, -0.00, -1.00, 552.8, 391.1)">L</text><text xml:space="preserve" font-family="FiraSans-Book,Fira Sans" font-size="28.0" fill="#20313F" transform="matrix(1.00, 0.00, -0.00, -1.00, 566.6, 391.1)">i</text><text xml:space="preserve" font-family="FiraSans-Book,Fira Sans" font-size="28.0" fill="#20313F" transform="matrix(1.00, 0.00, -0.00, -1.00, 574.4, 391.1)">k</text><text xml:space="preserve" font-family="FiraSans-Book,Fira Sans" font-size="28.0" fill="#20313F" transform="matrix(1.00, 0.00, -0.00, -1.00, 588.3, 391.1)">e</text><text xml:space="preserve" font-family="FiraSans-Book,Fira Sans" font-size="28.0" fill="#20313F" transform="matrix(1.00, 0.00, -0.00, -1.00, 603.6, 391.1)">l</text><text xml:space="preserve" font-family="FiraSans-Book,Fira Sans" font-size="28.0" fill="#20313F" transform="matrix(1.00, 0.00, -0.00, -1.00, 611.7, 391.1)">i</text><text xml:space="preserve" font-family="FiraSans-Book,Fira Sans" font-size="28.0" fill="#20313F" transform="matrix(1.00, 0.00, -0.00, -1.00, 619.6, 391.1)">h</text><text xml:space="preserve" font-family="FiraSans-Book,Fira Sans" font-size="28.0" fill="#20313F" transform="matrix(1.00, 0.00, -0.00, -1.00, 635.9, 391.1)">o</text><text xml:space="preserve" font-family="FiraSans-Book,Fira Sans" font-size="28.0" fill="#20313F" transform="matrix(1.00, 0.00, -0.00, -1.00, 652.2, 391.1)">o</text><text xml:space="preserve" font-family="FiraSans-Book,Fira Sans" font-size="28.0" fill="#20313F" transform="matrix(1.00, 0.00, -0.00, -1.00, 668.5, 391.1)">d</text><text xml:space="preserve" font-family="FiraSans-Book,Fira Sans" font-size="28.0" fill="#20313F" transform="matrix(1.00, 0.00, -0.00, -1.00, 731.7, 390.3)">P</text><text xml:space="preserve" font-family="FiraSans-Book,Fira Sans" font-size="28.0" fill="#20313F" transform="matrix(1.00, 0.00, -0.00, -1.00, 747.9, 390.3)">r</text><text xml:space="preserve" font-family="FiraSans-Book,Fira Sans" font-size="28.0" fill="#20313F" transform="matrix(1.00, 0.00, -0.00, -1.00, 758.6, 390.3)">i</text><text xml:space="preserve" font-family="FiraSans-Book,Fira Sans" font-size="28.0" fill="#20313F" transform="matrix(1.00, 0.00, -0.00, -1.00, 766.4, 390.3)">o</text><text xml:space="preserve" font-family="FiraSans-Book,Fira Sans" font-size="28.0" fill="#20313F" transform="matrix(1.00, 0.00, -0.00, -1.00, 782.7, 390.3)">r</text><path d="M 14.2 50.8 L 0.2 50.8 L 0.2 -0.2 " fill="none" stroke="#000000" stroke-width="2.00" transform="matrix(1.00, 0.00, 0.00, -1.00, 352.8, 453.8)"></path><path d="M 14.2 51.8 L 0.2 51.8 L 0.2 -0.2 " fill="none" stroke="#000000" stroke-width="2.00" transform="matrix(1.00, 0.00, 0.00, -1.00, 527.8, 453.8)"></path><path d="M 14.8 45.1 L -0.2 45.1 L -0.2 0.1 " fill="none" stroke="#000000" stroke-width="2.00" transform="matrix(1.00, 0.00, 0.00, -1.00, 711.2, 445.1)"></path><image xlink:href="../../259CD4A6-BB19-4B3D-86C7-0971C42D71A5/assets/640C432AE54A3286D24AF68DCAAFC99D.png" width="640.00" height="430.00" transform="matrix(0.26, 0.00, -0.00, -0.26, 130.0, 242.0)"></image><text xml:space="preserve" font-family="FiraSans-Book,Fira Sans" font-size="28.0" fill="#20313F" transform="matrix(1.00, 0.00, -0.00, -1.00, 489.8, 222.1)">L</text><text xml:space="preserve" font-family="FiraSans-Book,Fira Sans" font-size="28.0" fill="#20313F" transform="matrix(1.00, 0.00, -0.00, -1.00, 503.6, 222.1)">i</text><text xml:space="preserve" font-family="FiraSans-Book,Fira Sans" font-size="28.0" fill="#20313F" transform="matrix(1.00, 0.00, -0.00, -1.00, 511.4, 222.1)">k</text><text xml:space="preserve" font-family="FiraSans-Book,Fira Sans" font-size="28.0" fill="#20313F" transform="matrix(1.00, 0.00, -0.00, -1.00, 525.3, 222.1)">e</text><text xml:space="preserve" font-family="FiraSans-Book,Fira Sans" font-size="28.0" fill="#20313F" transform="matrix(1.00, 0.00, -0.00, -1.00, 540.6, 222.1)">l</text><text xml:space="preserve" font-family="FiraSans-Book,Fira Sans" font-size="28.0" fill="#20313F" transform="matrix(1.00, 0.00, -0.00, -1.00, 548.7, 222.1)">i</text><text xml:space="preserve" font-family="FiraSans-Book,Fira Sans" font-size="28.0" fill="#20313F" transform="matrix(1.00, 0.00, -0.00, -1.00, 556.6, 222.1)">h</text><text xml:space="preserve" font-family="FiraSans-Book,Fira Sans" font-size="28.0" fill="#20313F" transform="matrix(1.00, 0.00, -0.00, -1.00, 572.9, 222.1)">o</text><text xml:space="preserve" font-family="FiraSans-Book,Fira Sans" font-size="28.0" fill="#20313F" transform="matrix(1.00, 0.00, -0.00, -1.00, 589.2, 222.1)">o</text><text xml:space="preserve" font-family="FiraSans-Book,Fira Sans" font-size="28.0" fill="#20313F" transform="matrix(1.00, 0.00, -0.00, -1.00, 605.5, 222.1)">d</text><text xml:space="preserve" font-family="FiraSans-Book,Fira Sans" font-size="28.0" fill="#20313F" transform="matrix(1.00, 0.00, -0.00, -1.00, 622.1, 222.1)"> </text><text xml:space="preserve" font-family="FiraSans-Book,Fira Sans" font-size="28.0" fill="#20313F" transform="matrix(1.00, 0.00, -0.00, -1.00, 629.6, 222.1)">o</text><text xml:space="preserve" font-family="FiraSans-Book,Fira Sans" font-size="28.0" fill="#20313F" transform="matrix(1.00, 0.00, -0.00, -1.00, 645.9, 222.1)">f</text><text xml:space="preserve" font-family="FiraSans-Book,Fira Sans" font-size="28.0" fill="#20313F" transform="matrix(1.00, 0.00, -0.00, -1.00, 655.2, 222.1)"> </text><text xml:space="preserve" font-family="FiraSans-Book,Fira Sans" font-size="28.0" fill="#20313F" transform="matrix(1.00, 0.00, -0.00, -1.00, 662.7, 222.1)">o</text><text xml:space="preserve" font-family="FiraSans-Book,Fira Sans" font-size="28.0" fill="#20313F" transform="matrix(1.00, 0.00, -0.00, -1.00, 679.0, 222.1)">u</text><text xml:space="preserve" font-family="FiraSans-Book,Fira Sans" font-size="28.0" fill="#20313F" transform="matrix(1.00, 0.00, -0.00, -1.00, 695.2, 222.1)">t</text><text xml:space="preserve" font-family="FiraSans-Book,Fira Sans" font-size="28.0" fill="#20313F" transform="matrix(1.00, 0.00, -0.00, -1.00, 704.9, 222.1)">c</text><text xml:space="preserve" font-family="FiraSans-Book,Fira Sans" font-size="28.0" fill="#20313F" transform="matrix(1.00, 0.00, -0.00, -1.00, 718.0, 222.1)">o</text><text xml:space="preserve" font-family="FiraSans-Book,Fira Sans" font-size="28.0" fill="#20313F" transform="matrix(1.00, 0.00, -0.00, -1.00, 734.2, 222.1)">m</text><text xml:space="preserve" font-family="FiraSans-Book,Fira Sans" font-size="28.0" fill="#20313F" transform="matrix(1.00, 0.00, -0.00, -1.00, 758.2, 222.1)">e</text><text xml:space="preserve" font-family="FiraSans-Book,Fira Sans" font-size="28.0" fill="#20313F" transform="matrix(1.00, 0.00, -0.00, -1.00, 773.5, 222.1)"> </text><text xml:space="preserve" font-family="FiraSans-Book,Fira Sans" font-size="28.0" fill="#20313F" transform="matrix(1.00, 0.00, -0.00, -1.00, 781.0, 222.1)">g</text><text xml:space="preserve" font-family="FiraSans-Book,Fira Sans" font-size="28.0" fill="#20313F" transform="matrix(1.00, 0.00, -0.00, -1.00, 795.5, 222.1)">i</text><text xml:space="preserve" font-family="FiraSans-Book,Fira Sans" font-size="28.0" fill="#20313F" transform="matrix(1.00, 0.00, -0.00, -1.00, 803.3, 222.1)">v</text><text xml:space="preserve" font-family="FiraSans-Book,Fira Sans" font-size="28.0" fill="#20313F" transform="matrix(1.00, 0.00, -0.00, -1.00, 816.6, 222.1)">e</text><text xml:space="preserve" font-family="FiraSans-Book,Fira Sans" font-size="28.0" fill="#20313F" transform="matrix(1.00, 0.00, -0.00, -1.00, 832.0, 222.1)">n</text><text xml:space="preserve" font-family="FiraSans-Book,Fira Sans" font-size="28.0" fill="#20313F" transform="matrix(1.00, 0.00, -0.00, -1.00, 848.3, 222.1)"> </text><text xml:space="preserve" font-family="FiraSans-Book,Fira Sans" font-size="28.0" fill="#20313F" transform="matrix(1.00, 0.00, -0.00, -1.00, 855.8, 222.1)">b</text><text xml:space="preserve" font-family="FiraSans-Book,Fira Sans" font-size="28.0" fill="#20313F" transform="matrix(1.00, 0.00, -0.00, -1.00, 872.4, 222.1)">i</text><text xml:space="preserve" font-family="FiraSans-Book,Fira Sans" font-size="28.0" fill="#20313F" transform="matrix(1.00, 0.00, -0.00, -1.00, 880.2, 222.1)">a</text><text xml:space="preserve" font-family="FiraSans-Book,Fira Sans" font-size="28.0" fill="#20313F" transform="matrix(1.00, 0.00, -0.00, -1.00, 895.4, 222.1)">s</text><text xml:space="preserve" font-family="FiraSans-Book,Fira Sans" font-size="28.0" fill="#20313F" transform="matrix(1.00, 0.00, -0.00, -1.00, 489.8, 169.1)">P</text><text xml:space="preserve" font-family="FiraSans-Book,Fira Sans" font-size="28.0" fill="#20313F" transform="matrix(1.00, 0.00, -0.00, -1.00, 506.0, 169.1)">r</text><text xml:space="preserve" font-family="FiraSans-Book,Fira Sans" font-size="28.0" fill="#20313F" transform="matrix(1.00, 0.00, -0.00, -1.00, 516.7, 169.1)">i</text><text xml:space="preserve" font-family="FiraSans-Book,Fira Sans" font-size="28.0" fill="#20313F" transform="matrix(1.00, 0.00, -0.00, -1.00, 524.5, 169.1)">o</text><text xml:space="preserve" font-family="FiraSans-Book,Fira Sans" font-size="28.0" fill="#20313F" transform="matrix(1.00, 0.00, -0.00, -1.00, 540.8, 169.1)">r</text><text xml:space="preserve" font-family="FiraSans-Book,Fira Sans" font-size="28.0" fill="#20313F" transform="matrix(1.00, 0.00, -0.00, -1.00, 551.5, 169.1)"> </text><text xml:space="preserve" font-family="FiraSans-Book,Fira Sans" font-size="28.0" fill="#20313F" transform="matrix(1.00, 0.00, -0.00, -1.00, 559.0, 169.1)">b</text><text xml:space="preserve" font-family="FiraSans-Book,Fira Sans" font-size="28.0" fill="#20313F" transform="matrix(1.00, 0.00, -0.00, -1.00, 575.6, 169.1)">e</text><text xml:space="preserve" font-family="FiraSans-Book,Fira Sans" font-size="28.0" fill="#20313F" transform="matrix(1.00, 0.00, -0.00, -1.00, 590.9, 169.1)">l</text><text xml:space="preserve" font-family="FiraSans-Book,Fira Sans" font-size="28.0" fill="#20313F" transform="matrix(1.00, 0.00, -0.00, -1.00, 599.0, 169.1)">i</text><text xml:space="preserve" font-family="FiraSans-Book,Fira Sans" font-size="28.0" fill="#20313F" transform="matrix(1.00, 0.00, -0.00, -1.00, 606.8, 169.1)">e</text><text xml:space="preserve" font-family="FiraSans-Book,Fira Sans" font-size="28.0" fill="#20313F" transform="matrix(1.00, 0.00, -0.00, -1.00, 622.2, 169.1)">f</text><text xml:space="preserve" font-family="FiraSans-Book,Fira Sans" font-size="28.0" fill="#20313F" transform="matrix(1.00, 0.00, -0.00, -1.00, 631.5, 169.1)"> </text><text xml:space="preserve" font-family="FiraSans-Book,Fira Sans" font-size="28.0" fill="#20313F" transform="matrix(1.00, 0.00, -0.00, -1.00, 639.0, 169.1)">a</text><text xml:space="preserve" font-family="FiraSans-Book,Fira Sans" font-size="28.0" fill="#20313F" transform="matrix(1.00, 0.00, -0.00, -1.00, 654.1, 169.1)">b</text><text xml:space="preserve" font-family="FiraSans-Book,Fira Sans" font-size="28.0" fill="#20313F" transform="matrix(1.00, 0.00, -0.00, -1.00, 670.7, 169.1)">o</text><text xml:space="preserve" font-family="FiraSans-Book,Fira Sans" font-size="28.0" fill="#20313F" transform="matrix(1.00, 0.00, -0.00, -1.00, 686.9, 169.1)">u</text><text xml:space="preserve" font-family="FiraSans-Book,Fira Sans" font-size="28.0" fill="#20313F" transform="matrix(1.00, 0.00, -0.00, -1.00, 703.2, 169.1)">t</text><text xml:space="preserve" font-family="FiraSans-Book,Fira Sans" font-size="28.0" fill="#20313F" transform="matrix(1.00, 0.00, -0.00, -1.00, 713.2, 169.1)"> </text><text xml:space="preserve" font-family="FiraSans-Book,Fira Sans" font-size="28.0" fill="#20313F" transform="matrix(1.00, 0.00, -0.00, -1.00, 720.7, 169.1)">b</text><text xml:space="preserve" font-family="FiraSans-Book,Fira Sans" font-size="28.0" fill="#20313F" transform="matrix(1.00, 0.00, -0.00, -1.00, 737.2, 169.1)">i</text><text xml:space="preserve" font-family="FiraSans-Book,Fira Sans" font-size="28.0" fill="#20313F" transform="matrix(1.00, 0.00, -0.00, -1.00, 745.0, 169.1)">a</text><text xml:space="preserve" font-family="FiraSans-Book,Fira Sans" font-size="28.0" fill="#20313F" transform="matrix(1.00, 0.00, -0.00, -1.00, 760.2, 169.1)">s</text><text xml:space="preserve" font-family="FiraSans-MediumItalic,Fira Sans" font-style="italic" font-size="28.0" fill="#2A4054" transform="matrix(1.00, 0.00, -0.00, -1.00, 493.0, 286.2)">E</text><text xml:space="preserve" font-family="FiraSans-MediumItalic,Fira Sans" font-style="italic" font-size="28.0" fill="#2A4054" transform="matrix(1.00, 0.00, -0.00, -1.00, 507.6, 286.2)">x</text><text xml:space="preserve" font-family="FiraSans-MediumItalic,Fira Sans" font-style="italic" font-size="28.0" fill="#2A4054" transform="matrix(1.00, 0.00, -0.00, -1.00, 520.8, 286.2)">a</text><text xml:space="preserve" font-family="FiraSans-MediumItalic,Fira Sans" font-style="italic" font-size="28.0" fill="#2A4054" transform="matrix(1.00, 0.00, -0.00, -1.00, 536.8, 286.2)">m</text><text xml:space="preserve" font-family="FiraSans-MediumItalic,Fira Sans" font-style="italic" font-size="28.0" fill="#2A4054" transform="matrix(1.00, 0.00, -0.00, -1.00, 560.3, 286.2)">p</text><text xml:space="preserve" font-family="FiraSans-MediumItalic,Fira Sans" font-style="italic" font-size="28.0" fill="#2A4054" transform="matrix(1.00, 0.00, -0.00, -1.00, 576.8, 286.2)">l</text><text xml:space="preserve" font-family="FiraSans-MediumItalic,Fira Sans" font-style="italic" font-size="28.0" fill="#2A4054" transform="matrix(1.00, 0.00, -0.00, -1.00, 584.6, 286.2)">e</text><text xml:space="preserve" font-family="FiraSans-MediumItalic,Fira Sans" font-style="italic" font-size="28.0" fill="#2A4054" transform="matrix(1.00, 0.00, -0.00, -1.00, 599.5, 286.2)">:</text><text xml:space="preserve" font-family="FiraSans-MediumItalic,Fira Sans" font-style="italic" font-size="28.0" fill="#2A4054" transform="matrix(1.00, 0.00, -0.00, -1.00, 606.2, 286.2)"> </text><text xml:space="preserve" font-family="FiraSans-MediumItalic,Fira Sans" font-style="italic" font-size="28.0" fill="#2A4054" transform="matrix(1.00, 0.00, -0.00, -1.00, 613.0, 286.2)">B</text><text xml:space="preserve" font-family="FiraSans-MediumItalic,Fira Sans" font-style="italic" font-size="28.0" fill="#2A4054" transform="matrix(1.00, 0.00, -0.00, -1.00, 629.9, 286.2)">i</text><text xml:space="preserve" font-family="FiraSans-MediumItalic,Fira Sans" font-style="italic" font-size="28.0" fill="#2A4054" transform="matrix(1.00, 0.00, -0.00, -1.00, 637.7, 286.2)">a</text><text xml:space="preserve" font-family="FiraSans-MediumItalic,Fira Sans" font-style="italic" font-size="28.0" fill="#2A4054" transform="matrix(1.00, 0.00, -0.00, -1.00, 653.7, 286.2)">s</text><text xml:space="preserve" font-family="FiraSans-MediumItalic,Fira Sans" font-style="italic" font-size="28.0" fill="#2A4054" transform="matrix(1.00, 0.00, -0.00, -1.00, 666.8, 286.2)">e</text><text xml:space="preserve" font-family="FiraSans-MediumItalic,Fira Sans" font-style="italic" font-size="28.0" fill="#2A4054" transform="matrix(1.00, 0.00, -0.00, -1.00, 681.6, 286.2)">d</text><text xml:space="preserve" font-family="FiraSans-MediumItalic,Fira Sans" font-style="italic" font-size="28.0" fill="#2A4054" transform="matrix(1.00, 0.00, -0.00, -1.00, 698.2, 286.2)"> </text><text xml:space="preserve" font-family="FiraSans-MediumItalic,Fira Sans" font-style="italic" font-size="28.0" fill="#2A4054" transform="matrix(1.00, 0.00, -0.00, -1.00, 705.0, 286.2)">C</text><text xml:space="preserve" font-family="FiraSans-MediumItalic,Fira Sans" font-style="italic" font-size="28.0" fill="#2A4054" transform="matrix(1.00, 0.00, -0.00, -1.00, 720.4, 286.2)">o</text><text xml:space="preserve" font-family="FiraSans-MediumItalic,Fira Sans" font-style="italic" font-size="28.0" fill="#2A4054" transform="matrix(1.00, 0.00, -0.00, -1.00, 736.5, 286.2)">i</text><text xml:space="preserve" font-family="FiraSans-MediumItalic,Fira Sans" font-style="italic" font-size="28.0" fill="#2A4054" transform="matrix(1.00, 0.00, -0.00, -1.00, 744.4, 286.2)">n</text><g><clipPath id="clip0x60800b2a5820"><path d="M 361.1 104.4 L 460.8 104.4 L 460.8 135.2 L 361.1 135.2 Z M 361.1 104.4 "></path></clipPath><g clip-path="url(#clip0x60800b2a5820)"><path d="M 368.7 126.0 L 364.3 125.1 L 364.3 124.3 L 366.7 124.0 L 363.5 106.2 L 363.2 105.9 L 361.4 105.5 L 361.4 104.6 L 368.7 104.6 L 368.7 105.5 L 365.8 106.0 L 366.8 111.7 C 367.6 111.4 368.4 111.2 369.2 111.2 C 371.3 111.2 373.4 112.1 375.0 113.9 C 376.7 115.8 377.6 118.0 377.6 120.7 C 377.6 124.1 376.1 126.0 373.7 126.0 C 372.4 126.0 370.9 125.4 369.1 124.1 L 369.5 126.0 L 368.7 126.0 Z M 367.1 113.3 L 368.9 122.8 C 370.3 123.9 371.4 124.4 372.3 124.4 C 374.0 124.4 375.1 123.0 375.1 120.6 C 375.1 118.2 374.2 115.7 373.2 114.4 C 372.2 113.1 371.1 112.5 369.8 112.5 C 368.9 112.5 368.1 112.8 367.1 113.3 " fill="#000000"></path><path d="M 384.3 120.1 C 384.3 128.4 386.7 132.6 390.3 133.2 L 390.3 134.6 C 385.2 134.0 381.7 129.3 381.7 120.1 C 381.7 110.8 385.2 106.1 390.3 105.5 L 390.3 106.9 C 386.7 107.5 384.3 111.7 384.3 120.1 " fill="#000000"></path><path d="M 398.6 126.4 L 394.4 125.0 L 394.4 124.0 L 397.2 123.8 C 397.7 123.0 398.4 121.1 399.3 118.3 C 398.2 116.2 397.0 114.6 395.7 113.8 L 394.4 115.4 C 393.2 115.1 392.4 114.2 392.4 113.2 C 392.4 112.1 393.4 111.2 394.6 111.2 C 396.4 111.2 398.0 113.1 400.0 116.7 C 400.8 112.8 401.7 111.1 404.1 111.1 C 405.0 111.1 406.3 111.4 408.1 111.9 L 408.1 113.1 C 407.5 113.0 407.0 112.9 406.5 112.9 C 404.4 112.9 404.0 114.9 402.7 119.4 C 403.8 121.6 404.9 123.0 406.1 123.5 L 407.3 121.9 C 408.5 122.2 409.2 123.1 409.2 124.2 C 409.2 125.3 408.4 126.1 407.3 126.1 C 405.5 126.1 403.8 124.4 402.0 120.9 C 401.0 124.6 400.5 126.4 398.8 126.4 C 398.7 126.4 398.6 126.4 398.6 126.4 " fill="#52A700"></path><path d="M 420.8 105.5 L 422.6 105.5 L 422.6 134.6 L 420.8 134.6 Z M 420.8 105.5 " fill="#000000"></path><path d="M 436.8 126.4 L 432.1 125.3 L 432.1 124.3 L 434.7 124.0 C 435.1 123.4 435.3 122.6 435.5 121.8 L 437.3 112.1 L 438.5 112.1 C 436.8 108.9 435.3 107.3 433.9 107.1 L 431.9 109.1 C 430.8 108.8 430.1 108.1 430.1 107.0 C 430.1 105.8 431.2 104.7 432.7 104.7 C 435.2 104.7 437.7 107.1 440.4 111.9 C 442.8 116.1 444.0 120.5 446.4 123.7 L 448.2 124.7 L 448.2 125.5 L 445.8 126.3 L 444.8 126.3 C 442.9 121.9 441.4 118.1 440.1 115.0 L 439.1 121.6 C 438.6 124.6 438.1 126.1 436.8 126.4 " fill="#B30000"></path><path d="M 458.2 120.1 C 458.2 111.7 455.7 107.5 452.2 106.9 L 452.2 105.5 C 457.3 106.1 460.8 110.8 460.8 120.1 C 460.8 129.3 457.3 134.0 452.2 134.6 L 452.2 133.2 C 455.7 132.6 458.2 128.4 458.2 120.1 " fill="#000000"></path></g></g><text xml:space="preserve" font-family="FiraSans-Book,Fira Sans" font-size="28.0" fill="#20313F" transform="matrix(1.00, 0.00, -0.00, -1.00, 489.8, 110.1)">P</text><text xml:space="preserve" font-family="FiraSans-Book,Fira Sans" font-size="28.0" fill="#20313F" transform="matrix(1.00, 0.00, -0.00, -1.00, 505.4, 110.1)">o</text><text xml:space="preserve" font-family="FiraSans-Book,Fira Sans" font-size="28.0" fill="#20313F" transform="matrix(1.00, 0.00, -0.00, -1.00, 521.7, 110.1)">s</text><text xml:space="preserve" font-family="FiraSans-Book,Fira Sans" font-size="28.0" fill="#20313F" transform="matrix(1.00, 0.00, -0.00, -1.00, 534.7, 110.1)">t</text><text xml:space="preserve" font-family="FiraSans-Book,Fira Sans" font-size="28.0" fill="#20313F" transform="matrix(1.00, 0.00, -0.00, -1.00, 544.4, 110.1)">e</text><text xml:space="preserve" font-family="FiraSans-Book,Fira Sans" font-size="28.0" fill="#20313F" transform="matrix(1.00, 0.00, -0.00, -1.00, 559.7, 110.1)">r</text><text xml:space="preserve" font-family="FiraSans-Book,Fira Sans" font-size="28.0" fill="#20313F" transform="matrix(1.00, 0.00, -0.00, -1.00, 570.5, 110.1)">i</text><text xml:space="preserve" font-family="FiraSans-Book,Fira Sans" font-size="28.0" fill="#20313F" transform="matrix(1.00, 0.00, -0.00, -1.00, 578.3, 110.1)">o</text><text xml:space="preserve" font-family="FiraSans-Book,Fira Sans" font-size="28.0" fill="#20313F" transform="matrix(1.00, 0.00, -0.00, -1.00, 594.5, 110.1)">r</text><text xml:space="preserve" font-family="FiraSans-Book,Fira Sans" font-size="28.0" fill="#20313F" transform="matrix(1.00, 0.00, -0.00, -1.00, 605.3, 110.1)"> </text><text xml:space="preserve" font-family="FiraSans-Book,Fira Sans" font-size="28.0" fill="#20313F" transform="matrix(1.00, 0.00, -0.00, -1.00, 612.8, 110.1)">b</text><text xml:space="preserve" font-family="FiraSans-Book,Fira Sans" font-size="28.0" fill="#20313F" transform="matrix(1.00, 0.00, -0.00, -1.00, 629.3, 110.1)">e</text><text xml:space="preserve" font-family="FiraSans-Book,Fira Sans" font-size="28.0" fill="#20313F" transform="matrix(1.00, 0.00, -0.00, -1.00, 644.6, 110.1)">l</text><text xml:space="preserve" font-family="FiraSans-Book,Fira Sans" font-size="28.0" fill="#20313F" transform="matrix(1.00, 0.00, -0.00, -1.00, 652.8, 110.1)">i</text><text xml:space="preserve" font-family="FiraSans-Book,Fira Sans" font-size="28.0" fill="#20313F" transform="matrix(1.00, 0.00, -0.00, -1.00, 660.6, 110.1)">e</text><text xml:space="preserve" font-family="FiraSans-Book,Fira Sans" font-size="28.0" fill="#20313F" transform="matrix(1.00, 0.00, -0.00, -1.00, 675.9, 110.1)">f</text><text xml:space="preserve" font-family="FiraSans-Book,Fira Sans" font-size="28.0" fill="#20313F" transform="matrix(1.00, 0.00, -0.00, -1.00, 685.2, 110.1)"> </text><text xml:space="preserve" font-family="FiraSans-Book,Fira Sans" font-size="28.0" fill="#20313F" transform="matrix(1.00, 0.00, -0.00, -1.00, 692.7, 110.1)">a</text><text xml:space="preserve" font-family="FiraSans-Book,Fira Sans" font-size="28.0" fill="#20313F" transform="matrix(1.00, 0.00, -0.00, -1.00, 707.9, 110.1)">f</text><text xml:space="preserve" font-family="FiraSans-Book,Fira Sans" font-size="28.0" fill="#20313F" transform="matrix(1.00, 0.00, -0.00, -1.00, 717.2, 110.1)">t</text><text xml:space="preserve" font-family="FiraSans-Book,Fira Sans" font-size="28.0" fill="#20313F" transform="matrix(1.00, 0.00, -0.00, -1.00, 726.9, 110.1)">e</text><text xml:space="preserve" font-family="FiraSans-Book,Fira Sans" font-size="28.0" fill="#20313F" transform="matrix(1.00, 0.00, -0.00, -1.00, 742.2, 110.1)">r</text><text xml:space="preserve" font-family="FiraSans-Book,Fira Sans" font-size="28.0" fill="#20313F" transform="matrix(1.00, 0.00, -0.00, -1.00, 752.9, 110.1)"> </text><text xml:space="preserve" font-family="FiraSans-Book,Fira Sans" font-size="28.0" fill="#20313F" transform="matrix(1.00, 0.00, -0.00, -1.00, 760.4, 110.1)">t</text><text xml:space="preserve" font-family="FiraSans-Book,Fira Sans" font-size="28.0" fill="#20313F" transform="matrix(1.00, 0.00, -0.00, -1.00, 770.4, 110.1)">r</text><text xml:space="preserve" font-family="FiraSans-Book,Fira Sans" font-size="28.0" fill="#20313F" transform="matrix(1.00, 0.00, -0.00, -1.00, 781.1, 110.1)">i</text><text xml:space="preserve" font-family="FiraSans-Book,Fira Sans" font-size="28.0" fill="#20313F" transform="matrix(1.00, 0.00, -0.00, -1.00, 788.9, 110.1)">a</text><text xml:space="preserve" font-family="FiraSans-Book,Fira Sans" font-size="28.0" fill="#20313F" transform="matrix(1.00, 0.00, -0.00, -1.00, 804.1, 110.1)">l</text><text xml:space="preserve" font-family="FiraSans-Book,Fira Sans" font-size="28.0" fill="#20313F" transform="matrix(1.00, 0.00, -0.00, -1.00, 812.2, 110.1)">s</text></g></svg>