<?xml version="1.0" encoding="UTF-8" standalone="no"?><svg xmlns="http://www.w3.org/2000/svg" xmlns:xlink="http://www.w3.org/1999/xlink" clip-rule="evenodd" stroke-miterlimit="10" viewBox="0 0 1024 768"><desc>SVG generated by Keynote</desc><defs><linearGradient id="gradSh1.121" x1="0.0" y1="0.0" x2="100.0" y2="0.0" gradientUnits="userSpaceOnUse" gradientTransform="matrix(0.00, -7.70, -10.26, 0.00, 512.0, 769.0)"><stop offset="0.00000" stop-color="#FFFFFF"></stop><stop offset="0.01906" stop-color="#FEFFFF"></stop><stop offset="1.00000" stop-color="#E5F3FF"></stop></linearGradient></defs><g transform="matrix(1.00, 0.00, -0.00, -1.00, 0.0, 768.0)"><g><clipPath id="clip0x61000e8b0c80"><path d="M 0.0 768.0 L 1024.0 768.0 L 1024.0 0.0 L 0.0 0.0 Z M 0.0 768.0 "></path></clipPath><g clip-path="url(#clip0x61000e8b0c80)"><path d="M 0.0 768.0 L 1024.0 768.0 L 1024.0 0.0 L 0.0 0.0 Z M 0.0 768.0 " fill="url(#gradSh1.121)"></path></g></g><g><clipPath id="clip0x61000eeb1040"><path d="M 52.0 631.0 L 973.0 631.0 L 973.0 143.0 L 52.0 143.0 Z M 52.0 630.7 "></path></clipPath><g clip-path="url(#clip0x61000eeb1040)"><image xlink:href="71B3305A4C134E4C2E23381FD4C9A696.png" width="1700.00" height="900.00" transform="matrix(0.54, 0.00, -0.00, -0.54, 52.0, 630.7)"></image></g></g><image xlink:href="../../D6489DBF-8732-4CD3-A46A-3E6047F13E16/assets/5A033879404E1D73527B527EF27D220A.png" width="927.00" height="497.00" transform="matrix(1.00, 0.00, -0.00, 1.00, 49.0, 135.3)"></image><text xml:space="preserve" font-family="FiraSans-Light,Fira Sans" font-size="60.0" fill="#20313F" transform="matrix(1.00, 0.00, -0.00, -1.00, 327.7, 665.0)">P</text><text xml:space="preserve" font-family="FiraSans-Light,Fira Sans" font-size="60.0" fill="#20313F" transform="matrix(1.00, 0.00, -0.00, -1.00, 360.1, 665.0)">a</text><text xml:space="preserve" font-family="FiraSans-Light,Fira Sans" font-size="60.0" fill="#20313F" transform="matrix(1.00, 0.00, -0.00, -1.00, 392.2, 665.0)">r</text><text xml:space="preserve" font-family="FiraSans-Light,Fira Sans" font-size="60.0" fill="#20313F" transform="matrix(1.00, 0.00, -0.00, -1.00, 415.2, 665.0)">t</text><text xml:space="preserve" font-family="FiraSans-Light,Fira Sans" font-size="60.0" fill="#20313F" transform="matrix(1.00, 0.00, -0.00, -1.00, 435.7, 665.0)">i</text><text xml:space="preserve" font-family="FiraSans-Light,Fira Sans" font-size="60.0" fill="#20313F" transform="matrix(1.00, 0.00, -0.00, -1.00, 451.9, 665.0)">c</text><text xml:space="preserve" font-family="FiraSans-Light,Fira Sans" font-size="60.0" fill="#20313F" transform="matrix(1.00, 0.00, -0.00, -1.00, 480.0, 665.0)">l</text><text xml:space="preserve" font-family="FiraSans-Light,Fira Sans" font-size="60.0" fill="#20313F" transform="matrix(1.00, 0.00, -0.00, -1.00, 496.5, 665.0)">e</text><text xml:space="preserve" font-family="FiraSans-Light,Fira Sans" font-size="60.0" fill="#20313F" transform="matrix(1.00, 0.00, -0.00, -1.00, 528.7, 665.0)"> </text><text xml:space="preserve" font-family="FiraSans-Light,Fira Sans" font-size="60.0" fill="#20313F" transform="matrix(1.00, 0.00, -0.00, -1.00, 545.5, 665.0)">G</text><text xml:space="preserve" font-family="FiraSans-Light,Fira Sans" font-size="60.0" fill="#20313F" transform="matrix(1.00, 0.00, -0.00, -1.00, 582.6, 665.0)">i</text><text xml:space="preserve" font-family="FiraSans-Light,Fira Sans" font-size="60.0" fill="#20313F" transform="matrix(1.00, 0.00, -0.00, -1.00, 598.8, 665.0)">b</text><text xml:space="preserve" font-family="FiraSans-Light,Fira Sans" font-size="60.0" fill="#20313F" transform="matrix(1.00, 0.00, -0.00, -1.00, 633.6, 665.0)">b</text><text xml:space="preserve" font-family="FiraSans-Light,Fira Sans" font-size="60.0" fill="#20313F" transform="matrix(1.00, 0.00, -0.00, -1.00, 668.5, 665.0)">s</text><text xml:space="preserve" font-family="FiraSans-Light,Fira Sans" font-size="22.0" fill="#000000" transform="matrix(1.00, 0.00, -0.00, -1.00, 124.0, 71.3)">W</text><text xml:space="preserve" font-family="FiraSans-Light,Fira Sans" font-size="22.0" fill="#000000" transform="matrix(1.00, 0.00, -0.00, -1.00, 141.1, 71.3)">o</text><text xml:space="preserve" font-family="FiraSans-Light,Fira Sans" font-size="22.0" fill="#000000" transform="matrix(1.00, 0.00, -0.00, -1.00, 153.7, 71.3)">o</text><text xml:space="preserve" font-family="FiraSans-Light,Fira Sans" font-size="22.0" fill="#000000" transform="matrix(1.00, 0.00, -0.00, -1.00, 166.2, 71.3)">d</text><text xml:space="preserve" font-family="FiraSans-Light,Fira Sans" font-size="22.0" fill="#000000" transform="matrix(1.00, 0.00, -0.00, -1.00, 179.1, 71.3)">,</text><text xml:space="preserve" font-family="FiraSans-Light,Fira Sans" font-size="22.0" fill="#000000" transform="matrix(1.00, 0.00, -0.00, -1.00, 183.7, 71.3)"> </text><text xml:space="preserve" font-family="FiraSans-Light,Fira Sans" font-size="22.0" fill="#000000" transform="matrix(1.00, 0.00, -0.00, -1.00, 189.8, 71.3)">F</text><text xml:space="preserve" font-family="FiraSans-Light,Fira Sans" font-size="22.0" fill="#000000" transform="matrix(1.00, 0.00, -0.00, -1.00, 198.6, 71.3)">.</text><text xml:space="preserve" font-family="FiraSans-Light,Fira Sans" font-size="22.0" fill="#000000" transform="matrix(1.00, 0.00, -0.00, -1.00, 203.2, 71.3)">,</text><text xml:space="preserve" font-family="FiraSans-Light,Fira Sans" font-size="22.0" fill="#000000" transform="matrix(1.00, 0.00, -0.00, -1.00, 207.7, 71.3)"> </text><text xml:space="preserve" font-family="FiraSans-SemiBold,Fira Sans" font-weight="bold" font-size="22.0" fill="#000000" transform="matrix(1.00, 0.00, -0.00, -1.00, 213.9, 71.3)">v</text><text xml:space="preserve" font-family="FiraSans-SemiBold,Fira Sans" font-weight="bold" font-size="22.0" fill="#000000" transform="matrix(1.00, 0.00, -0.00, -1.00, 225.1, 71.3)">a</text><text xml:space="preserve" font-family="FiraSans-SemiBold,Fira Sans" font-weight="bold" font-size="22.0" fill="#000000" transform="matrix(1.00, 0.00, -0.00, -1.00, 237.1, 71.3)">n</text><text xml:space="preserve" font-family="FiraSans-SemiBold,Fira Sans" font-weight="bold" font-size="22.0" fill="#000000" transform="matrix(1.00, 0.00, -0.00, -1.00, 249.8, 71.3)"> </text><text xml:space="preserve" font-family="FiraSans-SemiBold,Fira Sans" font-weight="bold" font-size="22.0" fill="#000000" transform="matrix(1.00, 0.00, -0.00, -1.00, 255.2, 71.3)">d</text><text xml:space="preserve" font-family="FiraSans-SemiBold,Fira Sans" font-weight="bold" font-size="22.0" fill="#000000" transform="matrix(1.00, 0.00, -0.00, -1.00, 268.2, 71.3)">e</text><text xml:space="preserve" font-family="FiraSans-SemiBold,Fira Sans" font-weight="bold" font-size="22.0" fill="#000000" transform="matrix(1.00, 0.00, -0.00, -1.00, 280.3, 71.3)"> </text><text xml:space="preserve" font-family="FiraSans-SemiBold,Fira Sans" font-weight="bold" font-size="22.0" fill="#000000" transform="matrix(1.00, 0.00, -0.00, -1.00, 285.7, 71.3)">M</text><text xml:space="preserve" font-family="FiraSans-SemiBold,Fira Sans" font-weight="bold" font-size="22.0" fill="#000000" transform="matrix(1.00, 0.00, -0.00, -1.00, 303.0, 71.3)">e</text><text xml:space="preserve" font-family="FiraSans-SemiBold,Fira Sans" font-weight="bold" font-size="22.0" fill="#000000" transform="matrix(1.00, 0.00, -0.00, -1.00, 315.2, 71.3)">e</text><text xml:space="preserve" font-family="FiraSans-SemiBold,Fira Sans" font-weight="bold" font-size="22.0" fill="#000000" transform="matrix(1.00, 0.00, -0.00, -1.00, 327.4, 71.3)">n</text><text xml:space="preserve" font-family="FiraSans-SemiBold,Fira Sans" font-weight="bold" font-size="22.0" fill="#000000" transform="matrix(1.00, 0.00, -0.00, -1.00, 340.1, 71.3)">t</text><text xml:space="preserve" font-family="FiraSans-SemiBold,Fira Sans" font-weight="bold" font-size="22.0" fill="#000000" transform="matrix(1.00, 0.00, -0.00, -1.00, 348.5, 71.3)">,</text><text xml:space="preserve" font-family="FiraSans-SemiBold,Fira Sans" font-weight="bold" font-size="22.0" fill="#000000" transform="matrix(1.00, 0.00, -0.00, -1.00, 353.8, 71.3)"> </text><text xml:space="preserve" font-family="FiraSans-SemiBold,Fira Sans" font-weight="bold" font-size="22.0" fill="#000000" transform="matrix(1.00, 0.00, -0.00, -1.00, 359.1, 71.3)">J</text><text xml:space="preserve" font-family="FiraSans-SemiBold,Fira Sans" font-weight="bold" font-size="22.0" fill="#000000" transform="matrix(1.00, 0.00, -0.00, -1.00, 366.0, 71.3)">.</text><text xml:space="preserve" font-family="FiraSans-SemiBold,Fira Sans" font-weight="bold" font-size="22.0" fill="#000000" transform="matrix(1.00, 0.00, -0.00, -1.00, 371.3, 71.3)">-</text><text xml:space="preserve" font-family="FiraSans-SemiBold,Fira Sans" font-weight="bold" font-size="22.0" fill="#000000" transform="matrix(1.00, 0.00, -0.00, -1.00, 379.8, 71.3)">W</text><text xml:space="preserve" font-family="FiraSans-SemiBold,Fira Sans" font-weight="bold" font-size="22.0" fill="#000000" transform="matrix(1.00, 0.00, -0.00, -1.00, 397.9, 71.3)">.</text><text xml:space="preserve" font-family="FiraSans-Light,Fira Sans" font-size="22.0" fill="#000000" transform="matrix(1.00, 0.00, -0.00, -1.00, 403.2, 71.3)">,</text><text xml:space="preserve" font-family="FiraSans-Light,Fira Sans" font-size="22.0" fill="#000000" transform="matrix(1.00, 0.00, -0.00, -1.00, 407.7, 71.3)"> </text><text xml:space="preserve" font-family="FiraSans-Light,Fira Sans" font-size="22.0" fill="#000000" transform="matrix(1.00, 0.00, -0.00, -1.00, 413.9, 71.3)">&amp;</text><text xml:space="preserve" font-family="FiraSans-Light,Fira Sans" font-size="22.0" fill="#000000" transform="matrix(1.00, 0.00, -0.00, -1.00, 430.2, 71.3)"> </text><text xml:space="preserve" font-family="FiraSans-Light,Fira Sans" font-size="22.0" fill="#000000" transform="matrix(1.00, 0.00, -0.00, -1.00, 436.3, 71.3)">M</text><text xml:space="preserve" font-family="FiraSans-Light,Fira Sans" font-size="22.0" fill="#000000" transform="matrix(1.00, 0.00, -0.00, -1.00, 453.5, 71.3)">a</text><text xml:space="preserve" font-family="FiraSans-Light,Fira Sans" font-size="22.0" fill="#000000" transform="matrix(1.00, 0.00, -0.00, -1.00, 465.3, 71.3)">n</text><text xml:space="preserve" font-family="FiraSans-Light,Fira Sans" font-size="22.0" fill="#000000" transform="matrix(1.00, 0.00, -0.00, -1.00, 478.1, 71.3)">s</text><text xml:space="preserve" font-family="FiraSans-Light,Fira Sans" font-size="22.0" fill="#000000" transform="matrix(1.00, 0.00, -0.00, -1.00, 488.3, 71.3)">i</text><text xml:space="preserve" font-family="FiraSans-Light,Fira Sans" font-size="22.0" fill="#000000" transform="matrix(1.00, 0.00, -0.00, -1.00, 494.2, 71.3)">n</text><text xml:space="preserve" font-family="FiraSans-Light,Fira Sans" font-size="22.0" fill="#000000" transform="matrix(1.00, 0.00, -0.00, -1.00, 507.1, 71.3)">g</text><text xml:space="preserve" font-family="FiraSans-Light,Fira Sans" font-size="22.0" fill="#000000" transform="matrix(1.00, 0.00, -0.00, -1.00, 518.2, 71.3)">h</text><text xml:space="preserve" font-family="FiraSans-Light,Fira Sans" font-size="22.0" fill="#000000" transform="matrix(1.00, 0.00, -0.00, -1.00, 531.0, 71.3)">k</text><text xml:space="preserve" font-family="FiraSans-Light,Fira Sans" font-size="22.0" fill="#000000" transform="matrix(1.00, 0.00, -0.00, -1.00, 541.6, 71.3)">a</text><text xml:space="preserve" font-family="FiraSans-Light,Fira Sans" font-size="22.0" fill="#000000" transform="matrix(1.00, 0.00, -0.00, -1.00, 553.4, 71.3)">,</text><text xml:space="preserve" font-family="FiraSans-Light,Fira Sans" font-size="22.0" fill="#000000" transform="matrix(1.00, 0.00, -0.00, -1.00, 558.0, 71.3)"> </text><text xml:space="preserve" font-family="FiraSans-Light,Fira Sans" font-size="22.0" fill="#000000" transform="matrix(1.00, 0.00, -0.00, -1.00, 564.1, 71.3)">V</text><text xml:space="preserve" font-family="FiraSans-Light,Fira Sans" font-size="22.0" fill="#000000" transform="matrix(1.00, 0.00, -0.00, -1.00, 574.8, 71.3)">.</text><text xml:space="preserve" font-family="FiraSans-Light,Fira Sans" font-size="22.0" fill="#000000" transform="matrix(1.00, 0.00, -0.00, -1.00, 579.4, 71.3)"> </text><text xml:space="preserve" font-family="FiraSans-Light,Fira Sans" font-size="22.0" fill="#000000" transform="matrix(1.00, 0.00, -0.00, -1.00, 585.5, 71.3)">(</text><text xml:space="preserve" font-family="FiraSans-Light,Fira Sans" font-size="22.0" fill="#000000" transform="matrix(1.00, 0.00, -0.00, -1.00, 592.6, 71.3)">2</text><text xml:space="preserve" font-family="FiraSans-Light,Fira Sans" font-size="22.0" fill="#000000" transform="matrix(1.00, 0.00, -0.00, -1.00, 603.2, 71.3)">0</text><text xml:space="preserve" font-family="FiraSans-Light,Fira Sans" font-size="22.0" fill="#000000" transform="matrix(1.00, 0.00, -0.00, -1.00, 615.0, 71.3)">1</text><text xml:space="preserve" font-family="FiraSans-Light,Fira Sans" font-size="22.0" fill="#000000" transform="matrix(1.00, 0.00, -0.00, -1.00, 624.1, 71.3)">4</text><text xml:space="preserve" font-family="FiraSans-Light,Fira Sans" font-size="22.0" fill="#000000" transform="matrix(1.00, 0.00, -0.00, -1.00, 635.5, 71.3)">)</text><text xml:space="preserve" font-family="FiraSans-Light,Fira Sans" font-size="22.0" fill="#000000" transform="matrix(1.00, 0.00, -0.00, -1.00, 642.7, 71.3)">.</text><text xml:space="preserve" font-family="FiraSans-Light,Fira Sans" font-size="22.0" fill="#000000" transform="matrix(1.00, 0.00, -0.00, -1.00, 647.2, 71.3)"> </text><text xml:space="preserve" font-family="FiraSans-LightItalic,Fira Sans" font-style="italic" font-size="22.0" fill="#000000" transform="matrix(1.00, 0.00, -0.00, -1.00, 653.4, 71.3)">A</text><text xml:space="preserve" font-family="FiraSans-LightItalic,Fira Sans" font-style="italic" font-size="22.0" fill="#000000" transform="matrix(1.00, 0.00, -0.00, -1.00, 665.7, 71.3)"> </text><text xml:space="preserve" font-family="FiraSans-LightItalic,Fira Sans" font-style="italic" font-size="22.0" fill="#000000" transform="matrix(1.00, 0.00, -0.00, -1.00, 671.8, 71.3)">n</text><text xml:space="preserve" font-family="FiraSans-LightItalic,Fira Sans" font-style="italic" font-size="22.0" fill="#000000" transform="matrix(1.00, 0.00, -0.00, -1.00, 684.6, 71.3)">e</text><text xml:space="preserve" font-family="FiraSans-LightItalic,Fira Sans" font-style="italic" font-size="22.0" fill="#000000" transform="matrix(1.00, 0.00, -0.00, -1.00, 696.0, 71.3)">w</text><text xml:space="preserve" font-family="FiraSans-LightItalic,Fira Sans" font-style="italic" font-size="22.0" fill="#000000" transform="matrix(1.00, 0.00, -0.00, -1.00, 711.3, 71.3)"> </text><text xml:space="preserve" font-family="FiraSans-LightItalic,Fira Sans" font-style="italic" font-size="22.0" fill="#000000" transform="matrix(1.00, 0.00, -0.00, -1.00, 717.4, 71.3)">a</text><text xml:space="preserve" font-family="FiraSans-LightItalic,Fira Sans" font-style="italic" font-size="22.0" fill="#000000" transform="matrix(1.00, 0.00, -0.00, -1.00, 729.7, 71.3)">p</text><text xml:space="preserve" font-family="FiraSans-LightItalic,Fira Sans" font-style="italic" font-size="22.0" fill="#000000" transform="matrix(1.00, 0.00, -0.00, -1.00, 742.4, 71.3)">p</text><text xml:space="preserve" font-family="FiraSans-LightItalic,Fira Sans" font-style="italic" font-size="22.0" fill="#000000" transform="matrix(1.00, 0.00, -0.00, -1.00, 755.1, 71.3)">r</text><text xml:space="preserve" font-family="FiraSans-LightItalic,Fira Sans" font-style="italic" font-size="22.0" fill="#000000" transform="matrix(1.00, 0.00, -0.00, -1.00, 763.1, 71.3)">o</text><text xml:space="preserve" font-family="FiraSans-LightItalic,Fira Sans" font-style="italic" font-size="22.0" fill="#000000" transform="matrix(1.00, 0.00, -0.00, -1.00, 775.6, 71.3)">a</text><text xml:space="preserve" font-family="FiraSans-LightItalic,Fira Sans" font-style="italic" font-size="22.0" fill="#000000" transform="matrix(1.00, 0.00, -0.00, -1.00, 787.9, 71.3)">c</text><text xml:space="preserve" font-family="FiraSans-LightItalic,Fira Sans" font-style="italic" font-size="22.0" fill="#000000" transform="matrix(1.00, 0.00, -0.00, -1.00, 798.2, 71.3)">h</text><text xml:space="preserve" font-family="FiraSans-LightItalic,Fira Sans" font-style="italic" font-size="22.0" fill="#000000" transform="matrix(1.00, 0.00, -0.00, -1.00, 811.0, 71.3)"> </text><text xml:space="preserve" font-family="FiraSans-LightItalic,Fira Sans" font-style="italic" font-size="22.0" fill="#000000" transform="matrix(1.00, 0.00, -0.00, -1.00, 817.1, 71.3)">t</text><text xml:space="preserve" font-family="FiraSans-LightItalic,Fira Sans" font-style="italic" font-size="22.0" fill="#000000" transform="matrix(1.00, 0.00, -0.00, -1.00, 824.3, 71.3)">o</text><text xml:space="preserve" font-family="FiraSans-LightItalic,Fira Sans" font-style="italic" font-size="22.0" fill="#000000" transform="matrix(1.00, 0.00, -0.00, -1.00, 836.8, 71.3)"> </text><text xml:space="preserve" font-family="FiraSans-LightItalic,Fira Sans" font-style="italic" font-size="22.0" fill="#000000" transform="matrix(1.00, 0.00, -0.00, -1.00, 124.0, 37.3)">p</text><text xml:space="preserve" font-family="FiraSans-LightItalic,Fira Sans" font-style="italic" font-size="22.0" fill="#000000" transform="matrix(1.00, 0.00, -0.00, -1.00, 136.7, 37.3)">r</text><text xml:space="preserve" font-family="FiraSans-LightItalic,Fira Sans" font-style="italic" font-size="22.0" fill="#000000" transform="matrix(1.00, 0.00, -0.00, -1.00, 144.6, 37.3)">o</text><text xml:space="preserve" font-family="FiraSans-LightItalic,Fira Sans" font-style="italic" font-size="22.0" fill="#000000" transform="matrix(1.00, 0.00, -0.00, -1.00, 157.1, 37.3)">b</text><text xml:space="preserve" font-family="FiraSans-LightItalic,Fira Sans" font-style="italic" font-size="22.0" fill="#000000" transform="matrix(1.00, 0.00, -0.00, -1.00, 169.7, 37.3)">a</text><text xml:space="preserve" font-family="FiraSans-LightItalic,Fira Sans" font-style="italic" font-size="22.0" fill="#000000" transform="matrix(1.00, 0.00, -0.00, -1.00, 182.0, 37.3)">b</text><text xml:space="preserve" font-family="FiraSans-LightItalic,Fira Sans" font-style="italic" font-size="22.0" fill="#000000" transform="matrix(1.00, 0.00, -0.00, -1.00, 194.6, 37.3)">i</text><text xml:space="preserve" font-family="FiraSans-LightItalic,Fira Sans" font-style="italic" font-size="22.0" fill="#000000" transform="matrix(1.00, 0.00, -0.00, -1.00, 200.5, 37.3)">l</text><text xml:space="preserve" font-family="FiraSans-LightItalic,Fira Sans" font-style="italic" font-size="22.0" fill="#000000" transform="matrix(1.00, 0.00, -0.00, -1.00, 206.7, 37.3)">i</text><text xml:space="preserve" font-family="FiraSans-LightItalic,Fira Sans" font-style="italic" font-size="22.0" fill="#000000" transform="matrix(1.00, 0.00, -0.00, -1.00, 212.6, 37.3)">s</text><text xml:space="preserve" font-family="FiraSans-LightItalic,Fira Sans" font-style="italic" font-size="22.0" fill="#000000" transform="matrix(1.00, 0.00, -0.00, -1.00, 222.7, 37.3)">t</text><text xml:space="preserve" font-family="FiraSans-LightItalic,Fira Sans" font-style="italic" font-size="22.0" fill="#000000" transform="matrix(1.00, 0.00, -0.00, -1.00, 230.2, 37.3)">i</text><text xml:space="preserve" font-family="FiraSans-LightItalic,Fira Sans" font-style="italic" font-size="22.0" fill="#000000" transform="matrix(1.00, 0.00, -0.00, -1.00, 236.1, 37.3)">c</text><text xml:space="preserve" font-family="FiraSans-LightItalic,Fira Sans" font-style="italic" font-size="22.0" fill="#000000" transform="matrix(1.00, 0.00, -0.00, -1.00, 246.4, 37.3)"> </text><text xml:space="preserve" font-family="FiraSans-LightItalic,Fira Sans" font-style="italic" font-size="22.0" fill="#000000" transform="matrix(1.00, 0.00, -0.00, -1.00, 252.5, 37.3)">p</text><text xml:space="preserve" font-family="FiraSans-LightItalic,Fira Sans" font-style="italic" font-size="22.0" fill="#000000" transform="matrix(1.00, 0.00, -0.00, -1.00, 265.2, 37.3)">r</text><text xml:space="preserve" font-family="FiraSans-LightItalic,Fira Sans" font-style="italic" font-size="22.0" fill="#000000" transform="matrix(1.00, 0.00, -0.00, -1.00, 273.1, 37.3)">o</text><text xml:space="preserve" font-family="FiraSans-LightItalic,Fira Sans" font-style="italic" font-size="22.0" fill="#000000" transform="matrix(1.00, 0.00, -0.00, -1.00, 285.6, 37.3)">g</text><text xml:space="preserve" font-family="FiraSans-LightItalic,Fira Sans" font-style="italic" font-size="22.0" fill="#000000" transform="matrix(1.00, 0.00, -0.00, -1.00, 298.1, 37.3)">r</text><text xml:space="preserve" font-family="FiraSans-LightItalic,Fira Sans" font-style="italic" font-size="22.0" fill="#000000" transform="matrix(1.00, 0.00, -0.00, -1.00, 306.0, 37.3)">a</text><text xml:space="preserve" font-family="FiraSans-LightItalic,Fira Sans" font-style="italic" font-size="22.0" fill="#000000" transform="matrix(1.00, 0.00, -0.00, -1.00, 318.3, 37.3)">m</text><text xml:space="preserve" font-family="FiraSans-LightItalic,Fira Sans" font-style="italic" font-size="22.0" fill="#000000" transform="matrix(1.00, 0.00, -0.00, -1.00, 337.0, 37.3)">m</text><text xml:space="preserve" font-family="FiraSans-LightItalic,Fira Sans" font-style="italic" font-size="22.0" fill="#000000" transform="matrix(1.00, 0.00, -0.00, -1.00, 355.7, 37.3)">i</text><text xml:space="preserve" font-family="FiraSans-LightItalic,Fira Sans" font-style="italic" font-size="22.0" fill="#000000" transform="matrix(1.00, 0.00, -0.00, -1.00, 361.6, 37.3)">n</text><text xml:space="preserve" font-family="FiraSans-LightItalic,Fira Sans" font-style="italic" font-size="22.0" fill="#000000" transform="matrix(1.00, 0.00, -0.00, -1.00, 374.4, 37.3)">g</text><text xml:space="preserve" font-family="FiraSans-LightItalic,Fira Sans" font-style="italic" font-size="22.0" fill="#000000" transform="matrix(1.00, 0.00, -0.00, -1.00, 386.8, 37.3)"> </text><text xml:space="preserve" font-family="FiraSans-LightItalic,Fira Sans" font-style="italic" font-size="22.0" fill="#000000" transform="matrix(1.00, 0.00, -0.00, -1.00, 392.9, 37.3)">i</text><text xml:space="preserve" font-family="FiraSans-LightItalic,Fira Sans" font-style="italic" font-size="22.0" fill="#000000" transform="matrix(1.00, 0.00, -0.00, -1.00, 398.8, 37.3)">n</text><text xml:space="preserve" font-family="FiraSans-LightItalic,Fira Sans" font-style="italic" font-size="22.0" fill="#000000" transform="matrix(1.00, 0.00, -0.00, -1.00, 411.6, 37.3)">f</text><text xml:space="preserve" font-family="FiraSans-LightItalic,Fira Sans" font-style="italic" font-size="22.0" fill="#000000" transform="matrix(1.00, 0.00, -0.00, -1.00, 418.4, 37.3)">e</text><text xml:space="preserve" font-family="FiraSans-LightItalic,Fira Sans" font-style="italic" font-size="22.0" fill="#000000" transform="matrix(1.00, 0.00, -0.00, -1.00, 429.8, 37.3)">r</text><text xml:space="preserve" font-family="FiraSans-LightItalic,Fira Sans" font-style="italic" font-size="22.0" fill="#000000" transform="matrix(1.00, 0.00, -0.00, -1.00, 437.8, 37.3)">e</text><text xml:space="preserve" font-family="FiraSans-LightItalic,Fira Sans" font-style="italic" font-size="22.0" fill="#000000" transform="matrix(1.00, 0.00, -0.00, -1.00, 449.2, 37.3)">n</text><text xml:space="preserve" font-family="FiraSans-LightItalic,Fira Sans" font-style="italic" font-size="22.0" fill="#000000" transform="matrix(1.00, 0.00, -0.00, -1.00, 462.0, 37.3)">c</text><text xml:space="preserve" font-family="FiraSans-LightItalic,Fira Sans" font-style="italic" font-size="22.0" fill="#000000" transform="matrix(1.00, 0.00, -0.00, -1.00, 472.0, 37.3)">e</text><text xml:space="preserve" font-family="FiraSans-Light,Fira Sans" font-size="22.0" fill="#000000" transform="matrix(1.00, 0.00, -0.00, -1.00, 483.5, 37.3)">.</text><text xml:space="preserve" font-family="FiraSans-Light,Fira Sans" font-size="22.0" fill="#000000" transform="matrix(1.00, 0.00, -0.00, -1.00, 488.0, 37.3)"> </text><text xml:space="preserve" font-family="FiraSans-Light,Fira Sans" font-size="22.0" fill="#000000" transform="matrix(1.00, 0.00, -0.00, -1.00, 494.2, 37.3)">I</text><text xml:space="preserve" font-family="FiraSans-Light,Fira Sans" font-size="22.0" fill="#000000" transform="matrix(1.00, 0.00, -0.00, -1.00, 500.4, 37.3)">n</text><text xml:space="preserve" font-family="FiraSans-Light,Fira Sans" font-size="22.0" fill="#000000" transform="matrix(1.00, 0.00, -0.00, -1.00, 513.2, 37.3)"> </text><text xml:space="preserve" font-family="FiraSans-Light,Fira Sans" font-size="22.0" fill="#000000" transform="matrix(1.00, 0.00, -0.00, -1.00, 519.4, 37.3)">A</text><text xml:space="preserve" font-family="FiraSans-Light,Fira Sans" font-size="22.0" fill="#000000" transform="matrix(1.00, 0.00, -0.00, -1.00, 531.8, 37.3)">r</text><text xml:space="preserve" font-family="FiraSans-Light,Fira Sans" font-size="22.0" fill="#000000" transform="matrix(1.00, 0.00, -0.00, -1.00, 540.2, 37.3)">t</text><text xml:space="preserve" font-family="FiraSans-Light,Fira Sans" font-size="22.0" fill="#000000" transform="matrix(1.00, 0.00, -0.00, -1.00, 547.7, 37.3)">i</text><text xml:space="preserve" font-family="FiraSans-Light,Fira Sans" font-size="22.0" fill="#000000" transform="matrix(1.00, 0.00, -0.00, -1.00, 553.7, 37.3)">ﬁ</text><text xml:space="preserve" font-family="FiraSans-Light,Fira Sans" font-size="22.0" fill="#000000" transform="matrix(1.00, 0.00, -0.00, -1.00, 566.1, 37.3)">c</text><text xml:space="preserve" font-family="FiraSans-Light,Fira Sans" font-size="22.0" fill="#000000" transform="matrix(1.00, 0.00, -0.00, -1.00, 576.5, 37.3)">i</text><text xml:space="preserve" font-family="FiraSans-Light,Fira Sans" font-size="22.0" fill="#000000" transform="matrix(1.00, 0.00, -0.00, -1.00, 582.4, 37.3)">a</text><text xml:space="preserve" font-family="FiraSans-Light,Fira Sans" font-size="22.0" fill="#000000" transform="matrix(1.00, 0.00, -0.00, -1.00, 594.2, 37.3)">l</text><text xml:space="preserve" font-family="FiraSans-Light,Fira Sans" font-size="22.0" fill="#000000" transform="matrix(1.00, 0.00, -0.00, -1.00, 600.4, 37.3)"> </text><text xml:space="preserve" font-family="FiraSans-Light,Fira Sans" font-size="22.0" fill="#000000" transform="matrix(1.00, 0.00, -0.00, -1.00, 606.6, 37.3)">I</text><text xml:space="preserve" font-family="FiraSans-Light,Fira Sans" font-size="22.0" fill="#000000" transform="matrix(1.00, 0.00, -0.00, -1.00, 612.8, 37.3)">n</text><text xml:space="preserve" font-family="FiraSans-Light,Fira Sans" font-size="22.0" fill="#000000" transform="matrix(1.00, 0.00, -0.00, -1.00, 625.6, 37.3)">t</text><text xml:space="preserve" font-family="FiraSans-Light,Fira Sans" font-size="22.0" fill="#000000" transform="matrix(1.00, 0.00, -0.00, -1.00, 632.9, 37.3)">e</text><text xml:space="preserve" font-family="FiraSans-Light,Fira Sans" font-size="22.0" fill="#000000" transform="matrix(1.00, 0.00, -0.00, -1.00, 644.7, 37.3)">l</text><text xml:space="preserve" font-family="FiraSans-Light,Fira Sans" font-size="22.0" fill="#000000" transform="matrix(1.00, 0.00, -0.00, -1.00, 651.0, 37.3)">l</text><text xml:space="preserve" font-family="FiraSans-Light,Fira Sans" font-size="22.0" fill="#000000" transform="matrix(1.00, 0.00, -0.00, -1.00, 657.2, 37.3)">i</text><text xml:space="preserve" font-family="FiraSans-Light,Fira Sans" font-size="22.0" fill="#000000" transform="matrix(1.00, 0.00, -0.00, -1.00, 663.2, 37.3)">g</text><text xml:space="preserve" font-family="FiraSans-Light,Fira Sans" font-size="22.0" fill="#000000" transform="matrix(1.00, 0.00, -0.00, -1.00, 673.9, 37.3)">e</text><text xml:space="preserve" font-family="FiraSans-Light,Fira Sans" font-size="22.0" fill="#000000" transform="matrix(1.00, 0.00, -0.00, -1.00, 685.8, 37.3)">n</text><text xml:space="preserve" font-family="FiraSans-Light,Fira Sans" font-size="22.0" fill="#000000" transform="matrix(1.00, 0.00, -0.00, -1.00, 698.6, 37.3)">c</text><text xml:space="preserve" font-family="FiraSans-Light,Fira Sans" font-size="22.0" fill="#000000" transform="matrix(1.00, 0.00, -0.00, -1.00, 708.7, 37.3)">e</text><text xml:space="preserve" font-family="FiraSans-Light,Fira Sans" font-size="22.0" fill="#000000" transform="matrix(1.00, 0.00, -0.00, -1.00, 720.5, 37.3)"> </text><text xml:space="preserve" font-family="FiraSans-Light,Fira Sans" font-size="22.0" fill="#000000" transform="matrix(1.00, 0.00, -0.00, -1.00, 726.7, 37.3)">a</text><text xml:space="preserve" font-family="FiraSans-Light,Fira Sans" font-size="22.0" fill="#000000" transform="matrix(1.00, 0.00, -0.00, -1.00, 738.5, 37.3)">n</text><text xml:space="preserve" font-family="FiraSans-Light,Fira Sans" font-size="22.0" fill="#000000" transform="matrix(1.00, 0.00, -0.00, -1.00, 751.3, 37.3)">d</text><text xml:space="preserve" font-family="FiraSans-Light,Fira Sans" font-size="22.0" fill="#000000" transform="matrix(1.00, 0.00, -0.00, -1.00, 764.2, 37.3)"> </text><text xml:space="preserve" font-family="FiraSans-Light,Fira Sans" font-size="22.0" fill="#000000" transform="matrix(1.00, 0.00, -0.00, -1.00, 770.3, 37.3)">S</text><text xml:space="preserve" font-family="FiraSans-Light,Fira Sans" font-size="22.0" fill="#000000" transform="matrix(1.00, 0.00, -0.00, -1.00, 782.2, 37.3)">t</text><text xml:space="preserve" font-family="FiraSans-Light,Fira Sans" font-size="22.0" fill="#000000" transform="matrix(1.00, 0.00, -0.00, -1.00, 789.7, 37.3)">a</text><text xml:space="preserve" font-family="FiraSans-Light,Fira Sans" font-size="22.0" fill="#000000" transform="matrix(1.00, 0.00, -0.00, -1.00, 801.5, 37.3)">t</text><text xml:space="preserve" font-family="FiraSans-Light,Fira Sans" font-size="22.0" fill="#000000" transform="matrix(1.00, 0.00, -0.00, -1.00, 809.0, 37.3)">i</text><text xml:space="preserve" font-family="FiraSans-Light,Fira Sans" font-size="22.0" fill="#000000" transform="matrix(1.00, 0.00, -0.00, -1.00, 814.9, 37.3)">s</text><text xml:space="preserve" font-family="FiraSans-Light,Fira Sans" font-size="22.0" fill="#000000" transform="matrix(1.00, 0.00, -0.00, -1.00, 825.1, 37.3)">t</text><text xml:space="preserve" font-family="FiraSans-Light,Fira Sans" font-size="22.0" fill="#000000" transform="matrix(1.00, 0.00, -0.00, -1.00, 832.6, 37.3)">i</text><text xml:space="preserve" font-family="FiraSans-Light,Fira Sans" font-size="22.0" fill="#000000" transform="matrix(1.00, 0.00, -0.00, -1.00, 838.6, 37.3)">c</text><text xml:space="preserve" font-family="FiraSans-Light,Fira Sans" font-size="22.0" fill="#000000" transform="matrix(1.00, 0.00, -0.00, -1.00, 848.9, 37.3)">s</text></g></svg>