<?xml version="1.0" encoding="UTF-8" standalone="no"?><svg xmlns="http://www.w3.org/2000/svg" xmlns:xlink="http://www.w3.org/1999/xlink" clip-rule="evenodd" stroke-miterlimit="10" viewBox="0 0 234 54"><desc>SVG generated by Keynote</desc><defs></defs><g transform="matrix(1.00, 0.00, -0.00, -1.00, 0.0, 54.0)"><g><clipPath id="clip0x6000112b9560"><path d="M 2.5 2.2 L 233.0 2.2 L 233.0 52.4 L 2.5 52.4 Z M 2.5 2.2 "></path></clipPath><g clip-path="url(#clip0x6000112b9560)"><path d="M 9.2 28.9 L 5.0 27.5 L 5.0 26.5 L 7.8 26.3 C 8.4 25.5 9.0 23.6 9.9 20.8 C 8.8 18.7 7.6 17.2 6.3 16.3 L 5.0 17.9 C 3.8 17.6 3.1 16.7 3.1 15.7 C 3.1 14.7 4.0 13.7 5.2 13.7 C 7.0 13.7 8.6 15.6 10.6 19.2 C 11.4 15.3 12.3 13.6 14.7 13.6 C 15.6 13.6 17.0 13.9 18.7 14.5 L 18.7 15.7 C 18.1 15.5 17.6 15.4 17.1 15.4 C 15.0 15.4 14.6 17.4 13.3 21.9 C 14.4 24.1 15.5 25.5 16.7 26.0 L 17.9 24.4 C 19.1 24.8 19.8 25.6 19.8 26.7 C 19.8 27.9 19.1 28.7 17.9 28.7 C 16.2 28.7 14.4 26.9 12.6 23.4 C 11.7 27.1 11.1 28.9 9.4 28.9 C 9.3 28.9 9.2 28.9 9.2 28.9 " fill="#52A700"></path><path d="M 28.7 42.5 L 25.5 41.9 L 25.5 41.3 L 27.4 41.1 L 25.4 30.7 C 25.1 29.3 25.0 28.5 25.0 28.2 C 25.0 27.1 25.5 26.6 26.5 26.6 C 27.2 26.6 28.2 26.8 29.4 27.3 L 29.4 28.0 C 28.7 27.8 28.2 27.6 27.9 27.6 C 27.1 27.6 26.7 28.0 26.7 28.7 C 26.7 28.9 26.8 29.5 26.9 30.4 L 29.1 41.1 C 29.1 41.3 29.2 41.8 29.3 42.5 L 28.7 42.5 " fill="#000000"></path><path d="M 28.1 13.4 L 24.9 12.7 L 24.9 12.1 L 26.7 11.8 L 24.9 3.1 L 26.7 3.1 L 28.1 10.3 C 29.4 11.5 30.5 12.1 31.2 12.1 C 32.0 12.1 32.4 11.7 32.4 10.7 C 32.4 10.4 32.3 10.0 32.2 9.4 L 31.3 5.4 C 31.1 4.9 31.1 4.5 31.1 4.2 C 31.1 3.4 31.6 3.0 32.7 3.0 C 33.2 3.0 34.1 3.2 35.2 3.6 L 35.2 4.2 C 34.7 4.1 34.3 4.0 34.0 4.0 C 33.3 4.0 32.9 4.4 32.9 5.1 C 32.9 5.4 33.0 5.8 33.2 6.5 L 33.9 9.8 C 34.1 10.5 34.2 11.2 34.2 11.7 C 34.2 12.7 33.5 13.4 32.4 13.4 C 31.3 13.4 29.9 12.7 28.2 11.3 L 28.6 13.4 L 28.1 13.4 " fill="#000000"></path><path d="M 47.8 19.9 C 47.8 21.5 49.1 24.0 51.7 24.0 C 55.4 24.0 57.5 18.6 61.9 18.6 C 64.7 18.6 67.1 21.3 67.1 25.3 L 65.8 25.3 C 65.8 23.7 64.5 21.2 61.9 21.2 C 58.2 21.2 56.1 26.6 51.7 26.6 C 48.9 26.6 46.5 23.9 46.5 19.9 L 47.8 19.9 " fill="#000000"></path><path d="M 82.8 28.5 L 78.4 27.6 L 78.4 26.8 L 80.8 26.5 L 77.6 8.7 L 77.3 8.4 L 75.5 8.0 L 75.5 7.1 L 82.9 7.1 L 82.9 8.0 L 80.0 8.6 L 81.0 14.3 C 81.7 13.9 82.5 13.7 83.3 13.7 C 85.4 13.7 87.5 14.7 89.1 16.4 C 90.8 18.3 91.7 20.5 91.7 23.2 C 91.7 26.7 90.2 28.5 87.8 28.5 C 86.5 28.5 85.0 27.9 83.2 26.7 L 83.6 28.5 L 82.8 28.5 Z M 81.3 15.8 L 83.0 25.3 C 84.4 26.4 85.5 26.9 86.4 26.9 C 88.1 26.9 89.2 25.6 89.2 23.1 C 89.2 20.7 88.3 18.2 87.3 16.9 C 86.4 15.6 85.2 15.0 83.9 15.0 C 83.0 15.0 82.2 15.3 81.3 15.8 " fill="#000000"></path><path d="M 98.5 22.6 C 98.5 31.0 101.0 35.1 104.5 35.7 L 104.5 37.2 C 99.4 36.5 95.9 31.8 95.9 22.6 C 95.9 13.4 99.4 8.7 104.5 8.0 L 104.5 9.5 C 101.0 10.1 98.5 14.2 98.5 22.6 " fill="#000000"></path><path d="M 112.7 28.9 L 108.5 27.5 L 108.5 26.5 L 111.3 26.3 C 111.9 25.5 112.5 23.6 113.4 20.8 C 112.3 18.7 111.1 17.2 109.8 16.3 L 108.5 17.9 C 107.3 17.6 106.6 16.7 106.6 15.7 C 106.6 14.7 107.5 13.7 108.7 13.7 C 110.5 13.7 112.1 15.6 114.1 19.2 C 114.9 15.3 115.8 13.6 118.2 13.6 C 119.1 13.6 120.5 13.9 122.2 14.5 L 122.2 15.7 C 121.6 15.5 121.1 15.4 120.6 15.4 C 118.5 15.4 118.1 17.4 116.8 21.9 C 117.9 24.1 119.0 25.5 120.2 26.0 L 121.4 24.4 C 122.6 24.8 123.3 25.6 123.3 26.7 C 123.3 27.9 122.5 28.7 121.4 28.7 C 119.7 28.7 118.0 26.9 116.1 23.4 C 115.2 27.1 114.6 28.9 112.9 28.9 C 112.8 28.9 112.7 28.9 112.7 28.9 " fill="#52A700"></path><path d="M 132.2 42.5 L 129.0 41.9 L 129.0 41.3 L 130.9 41.1 L 128.8 30.7 C 128.6 29.3 128.5 28.5 128.5 28.2 C 128.5 27.1 129.0 26.6 130.0 26.6 C 130.7 26.6 131.7 26.8 132.9 27.3 L 132.9 28.0 C 132.2 27.8 131.7 27.6 131.4 27.6 C 130.6 27.6 130.2 28.0 130.2 28.7 C 130.2 28.9 130.3 29.5 130.4 30.4 L 132.6 41.1 C 132.6 41.3 132.7 41.8 132.8 42.5 L 132.2 42.5 " fill="#000000"></path><path d="M 131.6 13.4 L 128.4 12.7 L 128.4 12.1 L 130.2 11.8 L 128.4 3.1 L 130.2 3.1 L 131.6 10.3 C 132.9 11.5 134.0 12.1 134.7 12.1 C 135.5 12.1 135.9 11.7 135.9 10.7 C 135.9 10.4 135.8 10.0 135.7 9.4 L 134.8 5.4 C 134.6 4.9 134.6 4.5 134.6 4.2 C 134.6 3.4 135.1 3.0 136.2 3.0 C 136.7 3.0 137.6 3.2 138.7 3.6 L 138.7 4.2 C 138.2 4.1 137.8 4.0 137.5 4.0 C 136.8 4.0 136.4 4.4 136.4 5.1 C 136.4 5.4 136.5 5.8 136.7 6.5 L 137.4 9.8 C 137.6 10.5 137.7 11.2 137.7 11.7 C 137.7 12.7 137.0 13.4 135.9 13.4 C 134.8 13.4 133.4 12.7 131.7 11.3 L 132.1 13.4 L 131.6 13.4 " fill="#000000"></path><path d="M 148.9 8.0 L 150.7 8.0 L 150.7 37.2 L 148.9 37.2 Z M 148.9 8.0 " fill="#000000"></path><path d="M 164.9 28.9 L 160.7 27.5 L 160.7 26.5 L 163.5 26.3 C 164.0 25.5 164.7 23.6 165.6 20.8 C 164.5 18.7 163.3 17.2 162.0 16.3 L 160.7 17.9 C 159.5 17.6 158.8 16.7 158.8 15.7 C 158.8 14.7 159.7 13.7 160.9 13.7 C 162.7 13.7 164.3 15.6 166.3 19.2 C 167.1 15.3 168.1 13.6 170.4 13.6 C 171.3 13.6 172.7 13.9 174.4 14.5 L 174.4 15.7 C 173.8 15.5 173.3 15.4 172.8 15.4 C 170.7 15.4 170.3 17.4 169.0 21.9 C 170.1 24.1 171.2 25.5 172.4 26.0 L 173.6 24.4 C 174.8 24.8 175.5 25.6 175.5 26.7 C 175.5 27.9 174.7 28.7 173.6 28.7 C 171.9 28.7 170.2 26.9 168.3 23.4 C 167.3 27.1 166.8 28.9 165.1 28.9 C 165.0 28.9 164.9 28.9 164.9 28.9 " fill="#52A700"></path><path d="M 188.7 43.5 L 188.3 43.0 C 187.6 43.4 186.9 43.5 186.3 43.5 C 184.2 43.5 182.5 42.5 181.4 40.7 C 180.7 39.5 180.3 38.2 180.3 36.8 C 180.3 34.4 181.4 33.0 183.2 33.0 C 184.3 33.0 185.3 33.6 186.4 34.8 C 186.4 34.7 186.4 34.7 186.4 34.6 C 186.4 33.5 186.8 33.0 187.7 33.0 C 188.3 33.0 189.2 33.3 190.4 33.7 L 190.4 34.4 C 189.8 34.2 189.4 34.2 189.2 34.2 C 188.4 34.2 188.0 34.5 188.0 35.2 C 188.0 35.4 188.1 36.0 188.2 36.6 L 189.0 40.5 C 189.3 42.0 189.6 43.1 189.8 43.5 L 188.7 43.5 Z M 186.7 42.7 L 187.6 41.4 L 186.4 35.7 C 185.6 34.8 184.7 34.3 183.9 34.3 C 182.7 34.3 182.1 35.2 182.1 36.9 C 182.1 40.3 183.9 42.7 186.4 42.7 C 186.5 42.7 186.6 42.7 186.7 42.7 " fill="#000000"></path><path d="M 195.2 53.0 L 192.9 52.6 L 192.9 52.2 L 194.3 52.0 L 192.8 44.6 C 192.6 43.6 192.6 43.0 192.6 42.8 C 192.6 42.0 192.9 41.7 193.7 41.7 C 194.2 41.7 194.8 41.8 195.7 42.2 L 195.7 42.6 C 195.2 42.5 194.9 42.4 194.6 42.4 C 194.1 42.4 193.8 42.6 193.8 43.1 C 193.8 43.3 193.8 43.8 193.9 44.4 L 195.5 52.0 C 195.5 52.1 195.6 52.5 195.7 53.0 L 195.2 53.0 " fill="#000000"></path><path d="M 194.3 33.2 L 192.0 32.7 L 192.0 32.3 L 193.3 32.0 L 192.0 25.8 L 193.3 25.8 L 194.3 30.9 C 195.2 31.8 196.0 32.2 196.5 32.2 C 197.1 32.2 197.4 31.9 197.4 31.2 C 197.4 31.1 197.3 30.7 197.2 30.3 L 196.6 27.4 C 196.5 27.1 196.4 26.8 196.4 26.6 C 196.4 26.0 196.8 25.7 197.5 25.7 C 198.0 25.7 198.6 25.9 199.4 26.2 L 199.4 26.6 C 199.0 26.5 198.7 26.4 198.5 26.4 C 198.0 26.4 197.8 26.7 197.8 27.2 C 197.8 27.4 197.8 27.8 197.9 28.2 L 198.4 30.6 C 198.6 31.1 198.6 31.6 198.6 31.9 C 198.6 32.7 198.2 33.2 197.4 33.2 C 196.6 33.2 195.6 32.7 194.4 31.7 L 194.7 33.2 L 194.3 33.2 " fill="#000000"></path><path d="M 200.4 29.7 L 210.8 29.7 L 210.8 30.7 L 200.4 30.7 Z M 200.4 29.7 " fill="#000000"></path><path d="M 216.0 36.2 L 212.7 35.2 L 212.7 34.6 L 215.1 35.0 L 215.1 26.8 L 214.9 26.5 L 213.1 26.4 L 213.1 25.8 L 218.2 25.8 L 218.2 26.4 L 216.6 26.5 L 216.4 26.7 L 216.4 36.2 L 216.0 36.2 " fill="#000000"></path><path d="M 183.8 13.9 L 180.6 13.2 L 180.6 12.7 L 182.4 12.3 L 180.6 3.6 L 182.4 3.6 L 183.7 10.8 C 185.1 12.0 186.2 12.6 186.9 12.6 C 187.7 12.6 188.1 12.2 188.1 11.2 C 188.1 10.9 188.0 10.5 187.9 9.9 L 187.0 5.9 C 186.9 5.4 186.8 5.0 186.8 4.7 C 186.8 3.9 187.3 3.5 188.4 3.5 C 188.9 3.5 189.8 3.7 190.9 4.1 L 190.9 4.7 C 190.4 4.6 190.0 4.5 189.7 4.5 C 189.0 4.5 188.6 4.9 188.6 5.6 C 188.6 5.9 188.7 6.3 188.9 7.0 L 189.6 10.3 C 189.8 11.1 189.9 11.6 189.9 12.2 C 189.9 13.2 189.2 13.9 188.1 13.9 C 187.0 13.9 185.6 13.2 183.9 11.9 L 184.3 13.9 L 183.8 13.9 " fill="#000000"></path><path d="M 192.3 9.1 L 206.9 9.1 L 206.9 10.4 L 192.3 10.4 Z M 192.3 9.1 " fill="#000000"></path><path d="M 214.2 18.2 L 209.5 16.8 L 209.5 15.9 L 212.9 16.5 L 212.9 5.0 L 212.6 4.6 L 210.2 4.5 L 210.2 3.6 L 217.4 3.6 L 217.4 4.5 L 215.0 4.6 L 214.8 4.9 L 214.8 18.2 L 214.2 18.2 " fill="#000000"></path><path d="M 230.6 22.6 C 230.6 14.2 228.1 10.1 224.6 9.5 L 224.6 8.0 C 229.7 8.7 233.2 13.4 233.2 22.6 C 233.2 31.8 229.7 36.5 224.6 37.2 L 224.6 35.7 C 228.1 35.1 230.6 31.0 230.6 22.6 " fill="#000000"></path></g></g></g></svg>