<?xml version="1.0" encoding="UTF-8" standalone="no"?><svg xmlns="http://www.w3.org/2000/svg" xmlns:xlink="http://www.w3.org/1999/xlink" clip-rule="evenodd" stroke-miterlimit="10" viewBox="0 0 259 43"><desc>SVG generated by Keynote</desc><defs></defs><g transform="matrix(1.00, 0.00, -0.00, -1.00, 0.0, 43.0)"><g><clipPath id="clip0x6000112ba940"><path d="M 2.0 1.5 L 257.7 1.5 L 257.7 41.2 L 2.0 41.2 Z M 2.0 1.5 "></path></clipPath><g clip-path="url(#clip0x6000112ba940)"><path d="M 14.3 27.4 L 13.7 26.7 C 12.8 27.1 11.8 27.4 11.0 27.4 C 8.0 27.4 5.5 25.9 3.9 23.4 C 2.9 21.7 2.3 19.7 2.3 17.7 C 2.3 14.3 4.0 12.4 6.5 12.4 C 8.0 12.4 9.5 13.2 11.1 14.9 C 11.1 14.8 11.1 14.8 11.1 14.7 C 11.1 13.1 11.7 12.4 13.0 12.4 C 13.8 12.4 15.1 12.7 16.7 13.4 L 16.7 14.3 C 15.9 14.2 15.4 14.0 15.0 14.0 C 13.9 14.0 13.4 14.5 13.4 15.4 C 13.4 15.9 13.5 16.6 13.7 17.6 L 14.8 23.0 C 15.2 25.3 15.6 26.7 15.9 27.4 L 14.3 27.4 Z M 11.5 26.2 L 12.7 24.3 L 11.2 16.2 C 9.9 14.9 8.7 14.2 7.5 14.2 C 5.8 14.2 4.9 15.4 4.9 17.9 C 4.9 22.8 7.5 26.2 11.1 26.2 C 11.2 26.2 11.4 26.2 11.5 26.2 " fill="#000000"></path><path d="M 23.7 41.4 L 20.4 40.7 L 20.4 40.2 L 22.3 40.0 L 20.3 29.5 C 20.0 28.2 19.9 27.3 19.9 27.0 C 19.9 25.9 20.4 25.4 21.4 25.4 C 22.1 25.4 23.1 25.7 24.3 26.2 L 24.3 26.8 C 23.6 26.6 23.1 26.5 22.8 26.5 C 22.0 26.5 21.6 26.8 21.6 27.5 C 21.6 27.8 21.6 28.4 21.8 29.2 L 24.0 40.0 C 24.0 40.1 24.1 40.6 24.2 41.4 L 23.7 41.4 " fill="#000000"></path><path d="M 22.3 12.3 L 19.1 11.7 L 19.1 11.1 L 20.9 10.8 L 19.1 2.0 L 20.9 2.0 L 22.3 9.3 C 23.6 10.5 24.7 11.0 25.4 11.0 C 26.2 11.0 26.6 10.6 26.6 9.7 C 26.6 9.4 26.5 8.9 26.4 8.3 L 25.4 4.4 C 25.3 3.9 25.3 3.5 25.3 3.2 C 25.3 2.3 25.8 1.9 26.8 1.9 C 27.4 1.9 28.3 2.1 29.4 2.5 L 29.4 3.2 C 28.9 3.0 28.5 2.9 28.2 2.9 C 27.5 2.9 27.1 3.3 27.1 4.0 C 27.1 4.3 27.2 4.8 27.4 5.4 L 28.1 8.7 C 28.3 9.5 28.4 10.1 28.4 10.6 C 28.4 11.7 27.7 12.3 26.6 12.3 C 25.4 12.3 24.1 11.7 22.4 10.3 L 22.8 12.3 L 22.3 12.3 " fill="#000000"></path><path d="M 42.0 18.7 C 42.0 20.4 43.3 22.8 45.9 22.8 C 49.6 22.8 51.7 17.5 56.1 17.5 C 58.9 17.5 61.3 20.1 61.3 24.1 L 60.0 24.1 C 60.0 22.5 58.7 20.0 56.1 20.0 C 52.4 20.0 50.3 25.4 45.9 25.4 C 43.1 25.4 40.7 22.8 40.7 18.7 L 42.0 18.7 " fill="#000000"></path><path d="M 71.2 33.1 L 71.2 31.9 L 73.0 31.7 L 73.5 31.3 L 73.5 14.5 L 73.0 14.0 L 71.2 13.9 L 71.2 12.6 L 78.5 12.6 L 78.5 13.9 L 76.8 14.0 L 76.2 14.5 L 76.2 21.7 C 76.8 21.8 77.3 21.8 77.8 21.8 C 80.5 21.8 81.7 21.0 82.6 18.5 C 83.2 16.5 83.3 14.6 84.8 13.3 C 85.5 12.7 86.5 12.4 87.9 12.4 C 88.6 12.4 89.4 12.5 90.3 12.7 L 90.3 13.8 C 90.2 13.8 90.1 13.8 90.0 13.8 C 87.7 13.8 86.7 14.2 86.0 16.0 C 85.5 17.4 85.4 19.1 84.6 20.5 C 84.0 21.5 82.9 22.2 81.4 22.6 C 84.7 23.3 86.4 25.0 86.4 27.6 C 86.4 31.4 84.0 33.1 79.0 33.1 L 71.2 33.1 Z M 76.2 31.7 L 77.7 31.7 C 81.5 31.7 83.3 30.6 83.3 27.4 C 83.3 24.4 81.6 23.2 77.9 23.2 C 77.7 23.2 77.2 23.2 76.2 23.2 L 76.2 31.7 " fill="#000000"></path><path d="M 101.0 15.9 C 99.3 14.7 97.7 14.1 96.2 14.1 C 93.1 14.1 91.1 16.4 91.1 20.3 C 91.1 20.4 91.1 20.5 91.1 20.7 L 101.0 20.7 C 101.0 21.0 101.0 21.3 101.0 21.6 C 101.0 25.4 98.8 27.6 95.5 27.6 C 91.4 27.6 88.5 24.5 88.5 19.9 C 88.5 15.4 91.2 12.4 95.3 12.4 C 97.2 12.4 99.2 13.0 101.0 14.2 L 101.0 15.9 Z M 98.3 22.0 L 91.2 22.0 C 91.4 24.6 93.2 26.3 95.1 26.3 C 97.2 26.3 98.3 24.9 98.3 22.4 C 98.3 22.3 98.3 22.1 98.3 22.0 " fill="#000000"></path><path d="M 112.8 27.0 C 111.8 27.4 110.6 27.6 109.2 27.6 C 105.8 27.6 103.8 26.1 103.8 23.4 C 103.8 21.3 105.2 20.3 107.8 19.2 C 109.8 18.3 110.9 17.7 110.9 16.1 C 110.9 14.7 109.8 13.6 108.0 13.6 C 107.1 13.6 106.3 13.9 105.4 14.4 L 105.1 17.0 L 103.6 17.0 L 103.6 13.0 C 104.7 12.6 106.0 12.4 107.6 12.4 C 111.2 12.4 113.3 14.1 113.3 16.9 C 113.3 18.1 112.9 19.0 112.1 19.6 C 111.1 20.4 110.0 20.8 108.9 21.3 C 107.2 22.2 106.3 22.8 106.3 24.1 C 106.3 25.5 107.2 26.3 108.8 26.3 C 109.6 26.3 110.3 26.1 111.1 25.7 L 111.3 23.5 L 112.8 23.5 L 112.8 27.0 " fill="#000000"></path><path d="M 124.8 14.4 L 125.2 12.6 L 129.5 12.6 L 129.5 13.7 L 127.9 13.9 L 127.4 14.4 L 127.4 23.2 C 127.4 26.3 126.0 27.6 122.8 27.6 C 119.0 27.6 116.6 26.1 116.6 24.2 C 116.6 23.4 116.9 23.2 117.6 23.2 L 119.7 23.2 L 119.7 25.8 C 120.5 26.1 121.3 26.3 122.0 26.3 C 124.2 26.3 124.8 25.3 124.8 22.9 L 124.8 21.9 C 118.7 20.4 115.9 19.5 115.9 16.3 C 115.9 14.0 117.4 12.4 119.8 12.4 C 121.3 12.4 122.9 13.1 124.8 14.4 Z M 124.8 15.4 C 123.3 14.6 122.1 14.1 121.0 14.1 C 119.5 14.1 118.6 15.1 118.6 16.6 C 118.6 18.8 120.5 19.6 124.8 20.8 L 124.8 15.4 " fill="#000000"></path><path d="M 144.0 25.6 C 143.3 26.9 142.1 27.6 140.6 27.6 C 139.3 27.6 137.8 27.0 135.7 25.8 L 135.7 27.5 L 134.6 27.5 L 131.0 26.4 L 131.0 25.4 L 133.2 25.4 L 133.2 14.4 L 132.7 13.9 L 131.0 13.7 L 131.0 12.6 L 137.7 12.6 L 137.7 13.7 L 136.3 13.9 L 135.7 14.4 L 135.7 24.6 C 137.1 25.3 138.2 25.6 139.2 25.6 C 141.1 25.6 141.9 24.6 141.9 22.5 L 141.9 14.4 L 141.4 13.9 L 139.9 13.7 L 139.9 12.6 L 146.4 12.6 L 146.4 13.7 L 145.0 13.9 L 144.4 14.4 L 144.4 24.6 C 145.8 25.3 146.9 25.6 147.9 25.6 C 149.8 25.6 150.7 24.6 150.7 22.5 L 150.7 14.4 L 150.1 13.9 L 148.7 13.7 L 148.7 12.6 L 155.3 12.6 L 155.3 13.7 L 153.7 13.9 L 153.2 14.4 L 153.2 23.0 C 153.2 26.0 151.7 27.6 149.2 27.6 C 148.0 27.6 146.3 26.9 144.0 25.6 " fill="#000000"></path><path d="M 156.6 6.0 L 163.8 6.0 L 163.8 7.1 L 161.8 7.2 L 161.3 7.7 L 161.3 12.8 C 162.4 12.6 163.4 12.5 164.2 12.5 C 168.7 12.5 171.7 15.7 171.7 20.5 C 171.7 24.8 169.2 27.6 165.8 27.6 C 164.4 27.6 163.0 27.0 161.3 25.8 L 161.3 27.5 L 160.2 27.5 L 156.6 26.4 L 156.6 25.4 L 158.8 25.4 L 158.8 7.7 L 158.3 7.2 L 156.6 7.1 L 156.6 6.0 Z M 161.3 14.4 L 161.3 24.7 C 162.5 25.3 163.5 25.7 164.5 25.7 C 167.2 25.7 169.0 23.6 169.0 20.1 C 169.0 16.3 166.9 13.9 163.9 13.9 C 163.2 13.9 162.3 14.1 161.3 14.4 " fill="#000000"></path><path d="M 173.7 12.6 L 180.8 12.6 L 180.8 13.7 L 179.1 13.9 L 178.5 14.4 L 178.5 35.1 L 177.4 35.1 L 173.6 34.0 L 173.6 33.1 L 176.0 33.1 L 176.0 14.4 L 175.5 13.9 L 173.7 13.7 L 173.7 12.6 " fill="#000000"></path><path d="M 195.1 15.9 C 193.4 14.7 191.8 14.1 190.3 14.1 C 187.2 14.1 185.2 16.4 185.2 20.3 C 185.2 20.4 185.2 20.5 185.2 20.7 L 195.1 20.7 C 195.1 21.0 195.1 21.3 195.1 21.6 C 195.1 25.4 192.9 27.6 189.6 27.6 C 185.5 27.6 182.6 24.5 182.6 19.9 C 182.6 15.4 185.3 12.4 189.4 12.4 C 191.3 12.4 193.3 13.0 195.1 14.2 L 195.1 15.9 Z M 192.4 22.0 L 185.3 22.0 C 185.5 24.6 187.3 26.3 189.2 26.3 C 191.3 26.3 192.4 24.9 192.4 22.4 C 192.4 22.3 192.4 22.1 192.4 22.0 " fill="#000000"></path><path d="M 200.7 21.4 C 200.7 29.8 203.2 34.0 206.7 34.6 L 206.7 36.0 C 201.6 35.4 198.1 30.7 198.1 21.4 C 198.1 12.2 201.6 7.5 206.7 6.9 L 206.7 8.3 C 203.2 8.9 200.7 13.1 200.7 21.4 " fill="#000000"></path><path d="M 214.3 27.7 L 210.0 26.6 L 210.0 25.5 L 212.5 25.2 L 213.2 13.6 L 212.9 12.6 L 215.8 12.6 C 217.7 16.0 219.6 19.6 221.5 23.2 L 222.1 12.6 L 224.7 12.6 C 229.8 19.0 232.6 23.0 232.6 25.5 C 232.6 26.9 231.8 27.7 230.6 27.7 C 229.9 27.7 229.3 27.5 228.8 26.9 L 229.5 22.3 C 228.8 20.7 227.3 18.4 225.2 15.5 C 224.8 20.6 224.6 24.5 224.5 27.3 L 221.6 27.0 C 220.1 23.6 218.3 20.1 216.3 16.6 L 215.7 27.7 L 214.3 27.7 " fill="#000000"></path><path d="M 237.9 16.0 L 234.7 15.3 L 234.7 14.8 L 236.5 14.5 L 234.7 5.7 L 236.5 5.7 L 237.9 13.0 C 239.2 14.2 240.3 14.7 241.0 14.7 C 241.8 14.7 242.2 14.3 242.2 13.4 C 242.2 13.1 242.1 12.6 242.0 12.0 L 241.1 8.1 C 240.9 7.6 240.9 7.2 240.9 6.9 C 240.9 6.0 241.4 5.6 242.4 5.6 C 243.0 5.6 243.9 5.8 245.0 6.2 L 245.0 6.9 C 244.5 6.7 244.1 6.6 243.8 6.6 C 243.1 6.6 242.7 7.0 242.7 7.7 C 242.7 8.0 242.8 8.5 243.0 9.1 L 243.7 12.4 C 243.8 13.2 244.0 13.8 244.0 14.3 C 244.0 15.4 243.3 16.0 242.2 16.0 C 241.1 16.0 239.7 15.3 238.0 14.0 L 238.4 16.0 L 237.9 16.0 " fill="#000000"></path><path d="M 255.2 21.4 C 255.2 13.1 252.7 8.9 249.2 8.3 L 249.2 6.9 C 254.3 7.5 257.8 12.2 257.8 21.4 C 257.8 30.7 254.3 35.4 249.2 36.0 L 249.2 34.6 C 252.7 34.0 255.2 29.8 255.2 21.4 " fill="#000000"></path></g></g></g></svg>