<?xml version="1.0" encoding="UTF-8" standalone="no"?><svg xmlns="http://www.w3.org/2000/svg" xmlns:xlink="http://www.w3.org/1999/xlink" clip-rule="evenodd" stroke-miterlimit="10" viewBox="0 0 129 69"><desc>SVG generated by Keynote</desc><defs></defs><g transform="matrix(1.00, 0.00, -0.00, -1.00, 0.0, 69.0)"><text xml:space="preserve" font-family="FiraSans-Medium,Fira Sans" font-size="32.0" fill="#2A4054" transform="matrix(1.00, 0.00, -0.00, -1.00, 26.1, 44.2)">D</text><text xml:space="preserve" font-family="FiraSans-Medium,Fira Sans" font-size="32.0" fill="#2A4054" transform="matrix(1.00, 0.00, -0.00, -1.00, 46.8, 44.2)">e</text><text xml:space="preserve" font-family="FiraSans-Medium,Fira Sans" font-size="32.0" fill="#2A4054" transform="matrix(1.00, 0.00, -0.00, -1.00, 64.5, 44.2)">e</text><text xml:space="preserve" font-family="FiraSans-Medium,Fira Sans" font-size="32.0" fill="#2A4054" transform="matrix(1.00, 0.00, -0.00, -1.00, 82.2, 44.2)">p</text><text xml:space="preserve" font-family="FiraSans-Medium,Fira Sans" font-size="32.0" fill="#2A4054" transform="matrix(1.00, 0.00, -0.00, -1.00, 101.2, 44.2)"> </text><text xml:space="preserve" font-family="FiraSans-Medium,Fira Sans" font-size="32.0" fill="#2A4054" transform="matrix(1.00, 0.00, -0.00, -1.00, 109.2, 44.2)"> </text><text xml:space="preserve" font-family="FiraSans-Medium,Fira Sans" font-size="32.0" fill="#2A4054" transform="matrix(1.00, 0.00, -0.00, -1.00, 0.0, 9.2)">L</text><text xml:space="preserve" font-family="FiraSans-Medium,Fira Sans" font-size="32.0" fill="#2A4054" transform="matrix(1.00, 0.00, -0.00, -1.00, 16.2, 9.2)">e</text><text xml:space="preserve" font-family="FiraSans-Medium,Fira Sans" font-size="32.0" fill="#2A4054" transform="matrix(1.00, 0.00, -0.00, -1.00, 33.9, 9.2)">a</text><text xml:space="preserve" font-family="FiraSans-Medium,Fira Sans" font-size="32.0" fill="#2A4054" transform="matrix(1.00, 0.00, -0.00, -1.00, 51.3, 9.2)">r</text><text xml:space="preserve" font-family="FiraSans-Medium,Fira Sans" font-size="32.0" fill="#2A4054" transform="matrix(1.00, 0.00, -0.00, -1.00, 64.0, 9.2)">n</text><text xml:space="preserve" font-family="FiraSans-Medium,Fira Sans" font-size="32.0" fill="#2A4054" transform="matrix(1.00, 0.00, -0.00, -1.00, 82.5, 9.2)">i</text><text xml:space="preserve" font-family="FiraSans-Medium,Fira Sans" font-size="32.0" fill="#2A4054" transform="matrix(1.00, 0.00, -0.00, -1.00, 91.6, 9.2)">n</text><text xml:space="preserve" font-family="FiraSans-Medium,Fira Sans" font-size="32.0" fill="#2A4054" transform="matrix(1.00, 0.00, -0.00, -1.00, 110.2, 9.2)">g</text></g></svg>