<?xml version="1.0" encoding="UTF-8" standalone="no"?><svg xmlns="http://www.w3.org/2000/svg" xmlns:xlink="http://www.w3.org/1999/xlink" clip-rule="evenodd" stroke-miterlimit="10" viewBox="0 0 910 100"><desc>SVG generated by Keynote</desc><defs></defs><g transform="matrix(1.00, 0.00, -0.00, -1.00, 0.0, 100.0)"><g><clipPath id="clip0x6100196b8660"><path d="M 630.1 1.0 L 909.3 1.0 L 909.3 97.0 L 630.1 97.0 Z M 630.1 1.0 "></path></clipPath><g clip-path="url(#clip0x6100196b8660)"><image xlink:href="2123694F00F7D5E95A6E4D78B9B3CFA2.png" width="277.00" height="94.00" transform="matrix(1.00, 0.00, -0.00, -1.00, 631.1, 96.0)" opacity="0.50"></image><path d="M 639.1 31.1 L 639.0 74.9 C 639.0 84.4 646.8 92.0 656.2 92.0 L 883.1 92.0 C 892.6 92.0 900.0 84.4 900.0 74.9 L 900.0 31.1 C 900.0 21.6 892.6 14.0 883.1 14.0 L 656.2 14.0 C 646.8 14.0 639.1 21.6 639.1 31.1 Z M 639.1 31.1 " fill="#FEFFFE"></path></g></g><g><clipPath id="clip0x60001c0bba80"><path d="M 639.1 10.0 L 900.3 10.0 L 900.3 95.2 L 639.1 95.2 Z M 639.1 10.0 "></path></clipPath><g clip-path="url(#clip0x60001c0bba80)"><text xml:space="preserve" font-family="FiraSans-Regular,Fira Sans" font-size="24.0" fill="#20313F" transform="matrix(1.00, 0.00, -0.00, -1.00, 663.4, 60.9)">S</text><text xml:space="preserve" font-family="FiraSans-Regular,Fira Sans" font-size="24.0" fill="#20313F" transform="matrix(1.00, 0.00, -0.00, -1.00, 676.5, 60.9)">t</text><text xml:space="preserve" font-family="FiraSans-Regular,Fira Sans" font-size="24.0" fill="#20313F" transform="matrix(1.00, 0.00, -0.00, -1.00, 684.9, 60.9)">o</text><text xml:space="preserve" font-family="FiraSans-Regular,Fira Sans" font-size="24.0" fill="#20313F" transform="matrix(1.00, 0.00, -0.00, -1.00, 698.9, 60.9)">c</text><text xml:space="preserve" font-family="FiraSans-Regular,Fira Sans" font-size="24.0" fill="#20313F" transform="matrix(1.00, 0.00, -0.00, -1.00, 710.4, 60.9)">h</text><text xml:space="preserve" font-family="FiraSans-Regular,Fira Sans" font-size="24.0" fill="#20313F" transform="matrix(1.00, 0.00, -0.00, -1.00, 724.4, 60.9)">a</text><text xml:space="preserve" font-family="FiraSans-Regular,Fira Sans" font-size="24.0" fill="#20313F" transform="matrix(1.00, 0.00, -0.00, -1.00, 737.5, 60.9)">s</text><text xml:space="preserve" font-family="FiraSans-Regular,Fira Sans" font-size="24.0" fill="#20313F" transform="matrix(1.00, 0.00, -0.00, -1.00, 748.7, 60.9)">t</text><text xml:space="preserve" font-family="FiraSans-Regular,Fira Sans" font-size="24.0" fill="#20313F" transform="matrix(1.00, 0.00, -0.00, -1.00, 757.4, 60.9)">i</text><text xml:space="preserve" font-family="FiraSans-Regular,Fira Sans" font-size="24.0" fill="#20313F" transform="matrix(1.00, 0.00, -0.00, -1.00, 764.1, 60.9)">c</text><text xml:space="preserve" font-family="FiraSans-Regular,Fira Sans" font-size="24.0" fill="#20313F" transform="matrix(1.00, 0.00, -0.00, -1.00, 775.6, 60.9)"> </text><text xml:space="preserve" font-family="FiraSans-Regular,Fira Sans" font-size="24.0" fill="#20313F" transform="matrix(1.00, 0.00, -0.00, -1.00, 782.0, 60.9)">G</text><text xml:space="preserve" font-family="FiraSans-Regular,Fira Sans" font-size="24.0" fill="#20313F" transform="matrix(1.00, 0.00, -0.00, -1.00, 797.1, 60.9)">r</text><text xml:space="preserve" font-family="FiraSans-Regular,Fira Sans" font-size="24.0" fill="#20313F" transform="matrix(1.00, 0.00, -0.00, -1.00, 805.9, 60.9)">a</text><text xml:space="preserve" font-family="FiraSans-Regular,Fira Sans" font-size="24.0" fill="#20313F" transform="matrix(1.00, 0.00, -0.00, -1.00, 818.9, 60.9)">d</text><text xml:space="preserve" font-family="FiraSans-Regular,Fira Sans" font-size="24.0" fill="#20313F" transform="matrix(1.00, 0.00, -0.00, -1.00, 833.3, 60.9)">i</text><text xml:space="preserve" font-family="FiraSans-Regular,Fira Sans" font-size="24.0" fill="#20313F" transform="matrix(1.00, 0.00, -0.00, -1.00, 840.1, 60.9)">e</text><text xml:space="preserve" font-family="FiraSans-Regular,Fira Sans" font-size="24.0" fill="#20313F" transform="matrix(1.00, 0.00, -0.00, -1.00, 853.3, 60.9)">n</text><text xml:space="preserve" font-family="FiraSans-Regular,Fira Sans" font-size="24.0" fill="#20313F" transform="matrix(1.00, 0.00, -0.00, -1.00, 867.3, 60.9)">t</text><text xml:space="preserve" font-family="FiraSans-Regular,Fira Sans" font-size="24.0" fill="#20313F" transform="matrix(1.00, 0.00, -0.00, -1.00, 876.0, 60.9)"> </text><text xml:space="preserve" font-family="FiraSans-Regular,Fira Sans" font-size="24.0" fill="#20313F" transform="matrix(1.00, 0.00, -0.00, -1.00, 726.2, 31.3)">D</text><text xml:space="preserve" font-family="FiraSans-Regular,Fira Sans" font-size="24.0" fill="#20313F" transform="matrix(1.00, 0.00, -0.00, -1.00, 741.6, 31.3)">e</text><text xml:space="preserve" font-family="FiraSans-Regular,Fira Sans" font-size="24.0" fill="#20313F" transform="matrix(1.00, 0.00, -0.00, -1.00, 754.8, 31.3)">s</text><text xml:space="preserve" font-family="FiraSans-Regular,Fira Sans" font-size="24.0" fill="#20313F" transform="matrix(1.00, 0.00, -0.00, -1.00, 766.0, 31.3)">c</text><text xml:space="preserve" font-family="FiraSans-Regular,Fira Sans" font-size="24.0" fill="#20313F" transform="matrix(1.00, 0.00, -0.00, -1.00, 777.3, 31.3)">e</text><text xml:space="preserve" font-family="FiraSans-Regular,Fira Sans" font-size="24.0" fill="#20313F" transform="matrix(1.00, 0.00, -0.00, -1.00, 790.5, 31.3)">n</text><text xml:space="preserve" font-family="FiraSans-Regular,Fira Sans" font-size="24.0" fill="#20313F" transform="matrix(1.00, 0.00, -0.00, -1.00, 804.5, 31.3)">t</text></g></g><g><clipPath id="clip0x6100196b8cc0"><path d="M 0.1 3.7 L 279.3 3.7 L 279.3 99.8 L 0.1 99.8 Z M 0.1 3.7 "></path></clipPath><g clip-path="url(#clip0x6100196b8cc0)"><image xlink:href="7A6D98D30FE3A8237A6019EC8BD9CED0.png" width="277.00" height="94.00" transform="matrix(1.00, 0.00, -0.00, -1.00, 1.1, 98.8)" opacity="0.50"></image><path d="M 9.1 33.8 L 9.0 77.7 C 9.0 87.1 16.8 95.0 26.3 95.0 L 253.2 95.0 C 262.7 95.0 270.0 87.1 270.0 77.7 L 270.0 33.8 C 270.0 24.4 262.7 17.0 253.2 17.0 L 26.3 17.0 C 16.8 17.0 9.1 24.4 9.1 33.8 Z M 9.1 33.8 " fill="#FEFFFE"></path></g></g><g><clipPath id="clip0x60001c0bc500"><path d="M 9.1 12.7 L 270.3 12.7 L 270.3 97.9 L 9.1 97.9 Z M 9.1 12.7 "></path></clipPath><g clip-path="url(#clip0x60001c0bc500)"><text xml:space="preserve" font-family="FiraSans-Regular,Fira Sans" font-size="24.0" fill="#20313F" transform="matrix(1.00, 0.00, -0.00, -1.00, 56.2, 63.6)">M</text><text xml:space="preserve" font-family="FiraSans-Regular,Fira Sans" font-size="24.0" fill="#20313F" transform="matrix(1.00, 0.00, -0.00, -1.00, 75.3, 63.6)">a</text><text xml:space="preserve" font-family="FiraSans-Regular,Fira Sans" font-size="24.0" fill="#20313F" transform="matrix(1.00, 0.00, -0.00, -1.00, 88.4, 63.6)">n</text><text xml:space="preserve" font-family="FiraSans-Regular,Fira Sans" font-size="24.0" fill="#20313F" transform="matrix(1.00, 0.00, -0.00, -1.00, 102.2, 63.6)">y</text><text xml:space="preserve" font-family="FiraSans-Regular,Fira Sans" font-size="24.0" fill="#20313F" transform="matrix(1.00, 0.00, -0.00, -1.00, 114.0, 63.6)"> </text><text xml:space="preserve" font-family="FiraSans-Regular,Fira Sans" font-size="24.0" fill="#20313F" transform="matrix(1.00, 0.00, -0.00, -1.00, 120.4, 63.6)">I</text><text xml:space="preserve" font-family="FiraSans-Regular,Fira Sans" font-size="24.0" fill="#20313F" transform="matrix(1.00, 0.00, -0.00, -1.00, 127.5, 63.6)">n</text><text xml:space="preserve" font-family="FiraSans-Regular,Fira Sans" font-size="24.0" fill="#20313F" transform="matrix(1.00, 0.00, -0.00, -1.00, 141.5, 63.6)">f</text><text xml:space="preserve" font-family="FiraSans-Regular,Fira Sans" font-size="24.0" fill="#20313F" transform="matrix(1.00, 0.00, -0.00, -1.00, 149.3, 63.6)">e</text><text xml:space="preserve" font-family="FiraSans-Regular,Fira Sans" font-size="24.0" fill="#20313F" transform="matrix(1.00, 0.00, -0.00, -1.00, 162.5, 63.6)">r</text><text xml:space="preserve" font-family="FiraSans-Regular,Fira Sans" font-size="24.0" fill="#20313F" transform="matrix(1.00, 0.00, -0.00, -1.00, 171.6, 63.6)">e</text><text xml:space="preserve" font-family="FiraSans-Regular,Fira Sans" font-size="24.0" fill="#20313F" transform="matrix(1.00, 0.00, -0.00, -1.00, 184.8, 63.6)">n</text><text xml:space="preserve" font-family="FiraSans-Regular,Fira Sans" font-size="24.0" fill="#20313F" transform="matrix(1.00, 0.00, -0.00, -1.00, 198.8, 63.6)">c</text><text xml:space="preserve" font-family="FiraSans-Regular,Fira Sans" font-size="24.0" fill="#20313F" transform="matrix(1.00, 0.00, -0.00, -1.00, 210.1, 63.6)">e</text><text xml:space="preserve" font-family="FiraSans-Regular,Fira Sans" font-size="24.0" fill="#20313F" transform="matrix(1.00, 0.00, -0.00, -1.00, 223.3, 63.6)"> </text><text xml:space="preserve" font-family="FiraSans-Regular,Fira Sans" font-size="24.0" fill="#20313F" transform="matrix(1.00, 0.00, -0.00, -1.00, 229.6, 63.6)"> </text><text xml:space="preserve" font-family="FiraSans-Regular,Fira Sans" font-size="24.0" fill="#20313F" transform="matrix(1.00, 0.00, -0.00, -1.00, 85.3, 34.0)">S</text><text xml:space="preserve" font-family="FiraSans-Regular,Fira Sans" font-size="24.0" fill="#20313F" transform="matrix(1.00, 0.00, -0.00, -1.00, 98.4, 34.0)">t</text><text xml:space="preserve" font-family="FiraSans-Regular,Fira Sans" font-size="24.0" fill="#20313F" transform="matrix(1.00, 0.00, -0.00, -1.00, 107.1, 34.0)">r</text><text xml:space="preserve" font-family="FiraSans-Regular,Fira Sans" font-size="24.0" fill="#20313F" transform="matrix(1.00, 0.00, -0.00, -1.00, 115.8, 34.0)">a</text><text xml:space="preserve" font-family="FiraSans-Regular,Fira Sans" font-size="24.0" fill="#20313F" transform="matrix(1.00, 0.00, -0.00, -1.00, 128.9, 34.0)">t</text><text xml:space="preserve" font-family="FiraSans-Regular,Fira Sans" font-size="24.0" fill="#20313F" transform="matrix(1.00, 0.00, -0.00, -1.00, 137.3, 34.0)">e</text><text xml:space="preserve" font-family="FiraSans-Regular,Fira Sans" font-size="24.0" fill="#20313F" transform="matrix(1.00, 0.00, -0.00, -1.00, 150.5, 34.0)">g</text><text xml:space="preserve" font-family="FiraSans-Regular,Fira Sans" font-size="24.0" fill="#20313F" transform="matrix(1.00, 0.00, -0.00, -1.00, 163.0, 34.0)">i</text><text xml:space="preserve" font-family="FiraSans-Regular,Fira Sans" font-size="24.0" fill="#20313F" transform="matrix(1.00, 0.00, -0.00, -1.00, 169.8, 34.0)">e</text><text xml:space="preserve" font-family="FiraSans-Regular,Fira Sans" font-size="24.0" fill="#20313F" transform="matrix(1.00, 0.00, -0.00, -1.00, 183.0, 34.0)">s</text></g></g></g></svg>