<?xml version="1.0" encoding="UTF-8" standalone="no"?><svg xmlns="http://www.w3.org/2000/svg" xmlns:xlink="http://www.w3.org/1999/xlink" clip-rule="evenodd" stroke-miterlimit="10" viewBox="0 0 1024 768"><desc>SVG generated by Keynote</desc><defs><linearGradient id="gradSh1.236" x1="0.0" y1="0.0" x2="100.0" y2="0.0" gradientUnits="userSpaceOnUse" gradientTransform="matrix(0.00, -7.70, -10.26, 0.00, 512.0, 769.0)"><stop offset="0.00000" stop-color="#FFFFFF"></stop><stop offset="0.01906" stop-color="#FEFFFF"></stop><stop offset="1.00000" stop-color="#E5F3FF"></stop></linearGradient></defs><g transform="matrix(1.00, 0.00, -0.00, -1.00, 0.0, 768.0)"><g><clipPath id="clip0x6180156bf7a0"><path d="M 0.0 768.0 L 1024.0 768.0 L 1024.0 0.0 L 0.0 0.0 Z M 0.0 768.0 "></path></clipPath><g clip-path="url(#clip0x6180156bf7a0)"><path d="M 0.0 768.0 L 1024.0 768.0 L 1024.0 0.0 L 0.0 0.0 Z M 0.0 768.0 " fill="url(#gradSh1.236)"></path></g></g><g><clipPath id="clip0x618015cbfd40"><path d="M 542.0 534.0 L 970.0 534.0 L 970.0 446.0 L 542.0 446.0 Z M 541.5 533.5 "></path></clipPath><g clip-path="url(#clip0x618015cbfd40)"><g><clipPath id="clip0x618015cbfec0"><path d="M 541.5 445.7 L 969.5 445.7 L 969.5 577.7 L 541.5 577.7 Z M 541.5 445.7 "></path></clipPath><g clip-path="url(#clip0x618015cbfec0)"><text xml:space="preserve" font-family="Helvetica,Helvetica" font-size="9.6" fill="#000000" transform="matrix(3.20, 0.00, -0.00, -3.20, 541.1, 553.7)"></text><text xml:space="preserve" font-family="Helvetica,Helvetica" font-size="9.6" fill="#000000" transform="matrix(3.20, 0.00, -0.00, -3.20, 562.8, 553.7)">(</text><text xml:space="preserve" font-family="CharterBT-BoldItalic,Charter Bd BT" font-style="italic" font-weight="bold" font-size="9.6" fill="#53A800" transform="matrix(3.20, 0.00, -0.00, -3.20, 576.3, 553.7)">z</text><text xml:space="preserve" font-family="CharterBT-Roman,Charter BT" font-size="9.6" fill="#000000" transform="matrix(3.20, 0.00, -0.00, -3.20, 592.1, 553.7)">,</text><text xml:space="preserve" font-family="Helvetica,Helvetica" font-size="9.6" fill="#53A800" transform="matrix(3.20, 0.00, -0.00, -3.20, 604.8, 553.7)"></text><text xml:space="preserve" font-family="CharterBT-Roman,Charter BT" font-size="9.6" fill="#000000" transform="matrix(3.20, 0.00, -0.00, -3.20, 626.4, 553.7)">;</text><text xml:space="preserve" font-family="Helvetica,Helvetica" font-size="9.6" fill="#000000" transform="matrix(3.20, 0.00, -0.00, -3.20, 640.4, 553.7)"></text><text xml:space="preserve" font-family="Helvetica,Helvetica" font-size="9.6" fill="#000000" transform="matrix(3.20, 0.00, -0.00, -3.20, 660.3, 553.7)">)</text><text xml:space="preserve" font-family="Helvetica,Helvetica" font-size="9.6" fill="#000000" transform="matrix(3.20, 0.00, -0.00, -3.20, 677.6, 553.7)">=</text><text xml:space="preserve" font-family="Helvetica,Helvetica" font-size="9.6" fill="#000000" transform="matrix(3.20, 0.00, -0.00, -3.20, 710.7, 553.7)"></text><text xml:space="preserve" font-family="Helvetica,Helvetica" font-size="9.6" fill="#000000" transform="matrix(3.20, 0.00, -0.00, -3.20, 727.9, 553.7)">(</text><text xml:space="preserve" font-family="CharterBT-BoldItalic,Charter Bd BT" font-style="italic" font-weight="bold" font-size="9.6" fill="#53A800" transform="matrix(3.20, 0.00, -0.00, -3.20, 741.4, 553.7)">z</text><text xml:space="preserve" font-family="CharterBT-Roman,Charter BT" font-size="9.6" fill="#000000" transform="matrix(3.20, 0.00, -0.00, -3.20, 757.2, 553.7)">,</text><text xml:space="preserve" font-family="Helvetica,Helvetica" font-size="9.6" fill="#53A800" transform="matrix(3.20, 0.00, -0.00, -3.20, 770.0, 553.7)"></text><text xml:space="preserve" font-family="CharterBT-Roman,Charter BT" font-size="9.6" fill="#000000" transform="matrix(3.20, 0.00, -0.00, -3.20, 791.5, 553.7)">;</text><text xml:space="preserve" font-family="Helvetica,Helvetica" font-size="9.6" fill="#000000" transform="matrix(3.20, 0.00, -0.00, -3.20, 805.5, 553.7)"></text><text xml:space="preserve" font-family="Helvetica,Helvetica" font-size="9.6" fill="#000000" transform="matrix(3.20, 0.00, -0.00, -3.20, 825.4, 553.7)">)</text><text xml:space="preserve" font-family="Helvetica,Helvetica" font-size="9.6" fill="#000000" transform="matrix(3.20, 0.00, -0.00, -3.20, 837.5, 553.7)">/</text><text xml:space="preserve" font-family="CharterBT-Italic,Charter BT" font-style="italic" font-size="9.6" fill="#000000" transform="matrix(3.20, 0.00, -0.00, -3.20, 854.5, 553.7)">Z</text><text xml:space="preserve" font-family="Helvetica,Helvetica" font-size="9.6" fill="#000000" transform="matrix(3.20, 0.00, -0.00, -3.20, 541.1, 505.9)"></text><text xml:space="preserve" font-family="Helvetica,Helvetica" font-size="9.6" fill="#000000" transform="matrix(3.20, 0.00, -0.00, -3.20, 558.2, 505.9)">(</text><text xml:space="preserve" font-family="CharterBT-BoldItalic,Charter Bd BT" font-style="italic" font-weight="bold" font-size="9.6" fill="#53A800" transform="matrix(3.20, 0.00, -0.00, -3.20, 571.8, 505.9)">z</text><text xml:space="preserve" font-family="CharterBT-Roman,Charter BT" font-size="9.6" fill="#000000" transform="matrix(3.20, 0.00, -0.00, -3.20, 587.6, 505.9)">,</text><text xml:space="preserve" font-family="Helvetica,Helvetica" font-size="9.6" fill="#53A800" transform="matrix(3.20, 0.00, -0.00, -3.20, 600.4, 505.9)"></text><text xml:space="preserve" font-family="CharterBT-Roman,Charter BT" font-size="9.6" fill="#000000" transform="matrix(3.20, 0.00, -0.00, -3.20, 621.9, 505.9)">;</text><text xml:space="preserve" font-family="Helvetica,Helvetica" font-size="9.6" fill="#000000" transform="matrix(3.20, 0.00, -0.00, -3.20, 635.9, 505.9)"></text><text xml:space="preserve" font-family="Helvetica,Helvetica" font-size="9.6" fill="#000000" transform="matrix(3.20, 0.00, -0.00, -3.20, 655.8, 505.9)">)</text><text xml:space="preserve" font-family="Helvetica,Helvetica" font-size="9.6" fill="#000000" transform="matrix(3.20, 0.00, -0.00, -3.20, 673.2, 505.9)">=</text><text xml:space="preserve" font-family="CharterBT-Roman,Charter BT" font-size="9.6" fill="#000000" transform="matrix(3.20, 0.00, -0.00, -3.20, 706.2, 505.9)">e</text><text xml:space="preserve" font-family="CharterBT-Roman,Charter BT" font-size="9.6" fill="#000000" transform="matrix(3.20, 0.00, -0.00, -3.20, 721.2, 505.9)">x</text><text xml:space="preserve" font-family="CharterBT-Roman,Charter BT" font-size="9.6" fill="#000000" transform="matrix(3.20, 0.00, -0.00, -3.20, 736.6, 505.9)">p</text><text xml:space="preserve" font-family="Helvetica,Helvetica" font-size="9.6" fill="#000000" transform="matrix(3.20, 0.00, -0.00, -3.20, 753.4, 505.9)">(</text><text xml:space="preserve" font-family="CharterBT-Italic,Charter BT" font-style="italic" font-size="9.6" fill="#B40000" transform="matrix(3.20, 0.00, -0.00, -3.20, 765.5, 505.9)">R</text><text xml:space="preserve" font-family="Helvetica,Helvetica" font-size="9.6" fill="#000000" transform="matrix(3.20, 0.00, -0.00, -3.20, 783.9, 505.9)">(</text><text xml:space="preserve" font-family="CharterBT-BoldItalic,Charter Bd BT" font-style="italic" font-weight="bold" font-size="9.6" fill="#53A800" transform="matrix(3.20, 0.00, -0.00, -3.20, 797.5, 505.9)">z</text><text xml:space="preserve" font-family="Helvetica,Helvetica" font-size="9.6" fill="#000000" transform="matrix(3.20, 0.00, -0.00, -3.20, 813.2, 505.9)">)</text><text xml:space="preserve" font-family="Helvetica,Helvetica" font-size="9.6" fill="#000000" transform="matrix(3.20, 0.00, -0.00, -3.20, 823.5, 505.9)">)</text><text xml:space="preserve" font-family="CharterBT-Italic,Charter BT" font-style="italic" font-size="9.6" fill="#000000" transform="matrix(3.20, 0.00, -0.00, -3.20, 844.5, 505.9)">p</text><text xml:space="preserve" font-family="Helvetica,Helvetica" font-size="9.6" fill="#000000" transform="matrix(3.20, 0.00, -0.00, -3.20, 861.1, 505.9)">(</text><text xml:space="preserve" font-family="CharterBT-BoldItalic,Charter Bd BT" font-style="italic" font-weight="bold" font-size="9.6" fill="#53A800" transform="matrix(3.20, 0.00, -0.00, -3.20, 874.6, 505.9)">z</text><text xml:space="preserve" font-family="CharterBT-Roman,Charter BT" font-size="9.6" fill="#000000" transform="matrix(3.20, 0.00, -0.00, -3.20, 890.4, 505.9)">,</text><text xml:space="preserve" font-family="Helvetica,Helvetica" font-size="9.6" fill="#53A800" transform="matrix(3.20, 0.00, -0.00, -3.20, 903.2, 505.9)"></text><text xml:space="preserve" font-family="CharterBT-Roman,Charter BT" font-size="9.6" fill="#000000" transform="matrix(3.20, 0.00, -0.00, -3.20, 924.7, 505.9)">;</text><text xml:space="preserve" font-family="Helvetica,Helvetica" font-size="9.6" fill="#000000" transform="matrix(3.20, 0.00, -0.00, -3.20, 938.7, 505.9)"></text><text xml:space="preserve" font-family="Helvetica,Helvetica" font-size="9.6" fill="#000000" transform="matrix(3.20, 0.00, -0.00, -3.20, 958.6, 505.9)">)</text><text xml:space="preserve" font-family="CharterBT-Italic,Charter BT" font-style="italic" font-size="9.6" fill="#000000" transform="matrix(3.20, 0.00, -0.00, -3.20, 542.6, 458.1)">Z</text><text xml:space="preserve" font-family="Helvetica,Helvetica" font-size="9.6" fill="#000000" transform="matrix(3.20, 0.00, -0.00, -3.20, 569.5, 458.1)">=</text><text xml:space="preserve" font-family="CharterBT-Italic,Charter BT" font-style="italic" font-size="9.6" fill="#000000" transform="matrix(3.20, 0.00, -0.00, -3.20, 602.2, 458.1)">E</text><text xml:space="preserve" font-family="CharterBT-Italic,Charter BT" font-style="italic" font-size="6.7" fill="#000000" transform="matrix(3.20, 0.00, -0.00, -3.20, 620.0, 451.2)">p</text><text xml:space="preserve" font-family="Helvetica,Helvetica" font-size="6.7" fill="#000000" transform="matrix(3.20, 0.00, -0.00, -3.20, 631.6, 451.2)">(</text><text xml:space="preserve" font-family="CharterBT-BoldItalic,Charter Bd BT" font-style="italic" font-weight="bold" font-size="6.7" fill="#53A800" transform="matrix(3.20, 0.00, -0.00, -3.20, 641.1, 451.2)">z</text><text xml:space="preserve" font-family="CharterBT-Roman,Charter BT" font-size="6.7" fill="#000000" transform="matrix(3.20, 0.00, -0.00, -3.20, 652.1, 451.2)">,</text><text xml:space="preserve" font-family="Helvetica,Helvetica" font-size="6.7" fill="#53A800" transform="matrix(3.20, 0.00, -0.00, -3.20, 658.1, 451.2)"></text><text xml:space="preserve" font-family="CharterBT-Roman,Charter BT" font-size="6.7" fill="#000000" transform="matrix(3.20, 0.00, -0.00, -3.20, 673.2, 451.2)">;</text><text xml:space="preserve" font-family="Helvetica,Helvetica" font-size="6.7" fill="#000000" transform="matrix(3.20, 0.00, -0.00, -3.20, 680.0, 451.2)"></text><text xml:space="preserve" font-family="Helvetica,Helvetica" font-size="6.7" fill="#000000" transform="matrix(3.20, 0.00, -0.00, -3.20, 693.9, 451.2)">)</text><text xml:space="preserve" font-family="Helvetica,Helvetica" font-size="9.6" fill="#000000" transform="matrix(3.20, 0.00, -0.00, -3.20, 703.9, 458.1)">[</text><text xml:space="preserve" font-family="CharterBT-Roman,Charter BT" font-size="9.6" fill="#000000" transform="matrix(3.20, 0.00, -0.00, -3.20, 716.4, 458.1)">e</text><text xml:space="preserve" font-family="CharterBT-Roman,Charter BT" font-size="9.6" fill="#000000" transform="matrix(3.20, 0.00, -0.00, -3.20, 731.4, 458.1)">x</text><text xml:space="preserve" font-family="CharterBT-Roman,Charter BT" font-size="9.6" fill="#000000" transform="matrix(3.20, 0.00, -0.00, -3.20, 746.8, 458.1)">p</text><text xml:space="preserve" font-family="Helvetica,Helvetica" font-size="9.6" fill="#000000" transform="matrix(3.20, 0.00, -0.00, -3.20, 763.7, 458.1)">(</text><text xml:space="preserve" font-family="CharterBT-Italic,Charter BT" font-style="italic" font-size="9.6" fill="#B40000" transform="matrix(3.20, 0.00, -0.00, -3.20, 775.7, 458.1)">R</text><text xml:space="preserve" font-family="Helvetica,Helvetica" font-size="9.6" fill="#000000" transform="matrix(3.20, 0.00, -0.00, -3.20, 794.1, 458.1)">(</text><text xml:space="preserve" font-family="CharterBT-BoldItalic,Charter Bd BT" font-style="italic" font-weight="bold" font-size="9.6" fill="#53A800" transform="matrix(3.20, 0.00, -0.00, -3.20, 807.7, 458.1)">z</text><text xml:space="preserve" font-family="Helvetica,Helvetica" font-size="9.6" fill="#000000" transform="matrix(3.20, 0.00, -0.00, -3.20, 823.5, 458.1)">)</text><text xml:space="preserve" font-family="Helvetica,Helvetica" font-size="9.6" fill="#000000" transform="matrix(3.20, 0.00, -0.00, -3.20, 833.7, 458.1)">)</text><text xml:space="preserve" font-family="Helvetica,Helvetica" font-size="9.6" fill="#000000" transform="matrix(3.20, 0.00, -0.00, -3.20, 843.9, 458.1)">]</text></g></g></g></g><text xml:space="preserve" font-family="FiraSans-Medium,Fira Sans" font-size="32.0" fill="#2A4054" transform="matrix(1.00, 0.00, -0.00, -1.00, 543.0, 576.7)">U</text><text xml:space="preserve" font-family="FiraSans-Medium,Fira Sans" font-size="32.0" fill="#2A4054" transform="matrix(1.00, 0.00, -0.00, -1.00, 564.0, 576.7)">p</text><text xml:space="preserve" font-family="FiraSans-Medium,Fira Sans" font-size="32.0" fill="#2A4054" transform="matrix(1.00, 0.00, -0.00, -1.00, 583.0, 576.7)">p</text><text xml:space="preserve" font-family="FiraSans-Medium,Fira Sans" font-size="32.0" fill="#2A4054" transform="matrix(1.00, 0.00, -0.00, -1.00, 602.1, 576.7)">e</text><text xml:space="preserve" font-family="FiraSans-Medium,Fira Sans" font-size="32.0" fill="#2A4054" transform="matrix(1.00, 0.00, -0.00, -1.00, 619.8, 576.7)">r</text><text xml:space="preserve" font-family="FiraSans-Medium,Fira Sans" font-size="32.0" fill="#2A4054" transform="matrix(1.00, 0.00, -0.00, -1.00, 632.7, 576.7)">-</text><text xml:space="preserve" font-family="FiraSans-Medium,Fira Sans" font-size="32.0" fill="#2A4054" transform="matrix(1.00, 0.00, -0.00, -1.00, 645.7, 576.7)">l</text><text xml:space="preserve" font-family="FiraSans-Medium,Fira Sans" font-size="32.0" fill="#2A4054" transform="matrix(1.00, 0.00, -0.00, -1.00, 654.8, 576.7)">e</text><text xml:space="preserve" font-family="FiraSans-Medium,Fira Sans" font-size="32.0" fill="#2A4054" transform="matrix(1.00, 0.00, -0.00, -1.00, 672.1, 576.7)">v</text><text xml:space="preserve" font-family="FiraSans-Medium,Fira Sans" font-size="32.0" fill="#2A4054" transform="matrix(1.00, 0.00, -0.00, -1.00, 687.9, 576.7)">e</text><text xml:space="preserve" font-family="FiraSans-Medium,Fira Sans" font-size="32.0" fill="#2A4054" transform="matrix(1.00, 0.00, -0.00, -1.00, 705.6, 576.7)">l</text><text xml:space="preserve" font-family="FiraSans-Medium,Fira Sans" font-size="32.0" fill="#2A4054" transform="matrix(1.00, 0.00, -0.00, -1.00, 715.0, 576.7)"> </text><text xml:space="preserve" font-family="FiraSans-Medium,Fira Sans" font-size="32.0" fill="#2A4054" transform="matrix(1.00, 0.00, -0.00, -1.00, 723.0, 576.7)">P</text><text xml:space="preserve" font-family="FiraSans-Medium,Fira Sans" font-size="32.0" fill="#2A4054" transform="matrix(1.00, 0.00, -0.00, -1.00, 741.3, 576.7)">o</text><text xml:space="preserve" font-family="FiraSans-Medium,Fira Sans" font-size="32.0" fill="#2A4054" transform="matrix(1.00, 0.00, -0.00, -1.00, 760.0, 576.7)">l</text><text xml:space="preserve" font-family="FiraSans-Medium,Fira Sans" font-size="32.0" fill="#2A4054" transform="matrix(1.00, 0.00, -0.00, -1.00, 769.4, 576.7)">i</text><text xml:space="preserve" font-family="FiraSans-Medium,Fira Sans" font-size="32.0" fill="#2A4054" transform="matrix(1.00, 0.00, -0.00, -1.00, 778.5, 576.7)">c</text><text xml:space="preserve" font-family="FiraSans-Medium,Fira Sans" font-size="32.0" fill="#2A4054" transform="matrix(1.00, 0.00, -0.00, -1.00, 793.8, 576.7)">y</text><text xml:space="preserve" font-family="FiraSans-Medium,Fira Sans" font-size="32.0" fill="#2A4054" transform="matrix(1.00, 0.00, -0.00, -1.00, 809.9, 576.7)"> </text><text xml:space="preserve" font-family="FiraSans-Medium,Fira Sans" font-size="32.0" fill="#2A4054" transform="matrix(1.00, 0.00, -0.00, -1.00, 817.9, 576.7)">S</text><text xml:space="preserve" font-family="FiraSans-Medium,Fira Sans" font-size="32.0" fill="#2A4054" transform="matrix(1.00, 0.00, -0.00, -1.00, 835.9, 576.7)">e</text><text xml:space="preserve" font-family="FiraSans-Medium,Fira Sans" font-size="32.0" fill="#2A4054" transform="matrix(1.00, 0.00, -0.00, -1.00, 853.5, 576.7)">a</text><text xml:space="preserve" font-family="FiraSans-Medium,Fira Sans" font-size="32.0" fill="#2A4054" transform="matrix(1.00, 0.00, -0.00, -1.00, 871.0, 576.7)">r</text><text xml:space="preserve" font-family="FiraSans-Medium,Fira Sans" font-size="32.0" fill="#2A4054" transform="matrix(1.00, 0.00, -0.00, -1.00, 883.3, 576.7)">c</text><text xml:space="preserve" font-family="FiraSans-Medium,Fira Sans" font-size="32.0" fill="#2A4054" transform="matrix(1.00, 0.00, -0.00, -1.00, 898.6, 576.7)">h</text><text xml:space="preserve" font-family="FiraSans-Medium,Fira Sans" font-size="32.0" fill="#2A4054" transform="matrix(1.00, 0.00, -0.00, -1.00, 51.6, 577.5)">V</text><text xml:space="preserve" font-family="FiraSans-Medium,Fira Sans" font-size="32.0" fill="#2A4054" transform="matrix(1.00, 0.00, -0.00, -1.00, 68.3, 577.5)">a</text><text xml:space="preserve" font-family="FiraSans-Medium,Fira Sans" font-size="32.0" fill="#2A4054" transform="matrix(1.00, 0.00, -0.00, -1.00, 85.7, 577.5)">r</text><text xml:space="preserve" font-family="FiraSans-Medium,Fira Sans" font-size="32.0" fill="#2A4054" transform="matrix(1.00, 0.00, -0.00, -1.00, 98.3, 577.5)">i</text><text xml:space="preserve" font-family="FiraSans-Medium,Fira Sans" font-size="32.0" fill="#2A4054" transform="matrix(1.00, 0.00, -0.00, -1.00, 107.4, 577.5)">a</text><text xml:space="preserve" font-family="FiraSans-Medium,Fira Sans" font-size="32.0" fill="#2A4054" transform="matrix(1.00, 0.00, -0.00, -1.00, 124.8, 577.5)">t</text><text xml:space="preserve" font-family="FiraSans-Medium,Fira Sans" font-size="32.0" fill="#2A4054" transform="matrix(1.00, 0.00, -0.00, -1.00, 136.8, 577.5)">i</text><text xml:space="preserve" font-family="FiraSans-Medium,Fira Sans" font-size="32.0" fill="#2A4054" transform="matrix(1.00, 0.00, -0.00, -1.00, 145.9, 577.5)">o</text><text xml:space="preserve" font-family="FiraSans-Medium,Fira Sans" font-size="32.0" fill="#2A4054" transform="matrix(1.00, 0.00, -0.00, -1.00, 164.6, 577.5)">n</text><text xml:space="preserve" font-family="FiraSans-Medium,Fira Sans" font-size="32.0" fill="#2A4054" transform="matrix(1.00, 0.00, -0.00, -1.00, 183.1, 577.5)">a</text><text xml:space="preserve" font-family="FiraSans-Medium,Fira Sans" font-size="32.0" fill="#2A4054" transform="matrix(1.00, 0.00, -0.00, -1.00, 200.6, 577.5)">l</text><text xml:space="preserve" font-family="FiraSans-Medium,Fira Sans" font-size="32.0" fill="#2A4054" transform="matrix(1.00, 0.00, -0.00, -1.00, 210.1, 577.5)"> </text><text xml:space="preserve" font-family="FiraSans-Medium,Fira Sans" font-size="32.0" fill="#2A4054" transform="matrix(1.00, 0.00, -0.00, -1.00, 218.1, 577.5)">I</text><text xml:space="preserve" font-family="FiraSans-Medium,Fira Sans" font-size="32.0" fill="#2A4054" transform="matrix(1.00, 0.00, -0.00, -1.00, 227.5, 577.5)">n</text><text xml:space="preserve" font-family="FiraSans-Medium,Fira Sans" font-size="32.0" fill="#2A4054" transform="matrix(1.00, 0.00, -0.00, -1.00, 246.1, 577.5)">f</text><text xml:space="preserve" font-family="FiraSans-Medium,Fira Sans" font-size="32.0" fill="#2A4054" transform="matrix(1.00, 0.00, -0.00, -1.00, 256.9, 577.5)">e</text><text xml:space="preserve" font-family="FiraSans-Medium,Fira Sans" font-size="32.0" fill="#2A4054" transform="matrix(1.00, 0.00, -0.00, -1.00, 274.5, 577.5)">r</text><text xml:space="preserve" font-family="FiraSans-Medium,Fira Sans" font-size="32.0" fill="#2A4054" transform="matrix(1.00, 0.00, -0.00, -1.00, 286.8, 577.5)">e</text><text xml:space="preserve" font-family="FiraSans-Medium,Fira Sans" font-size="32.0" fill="#2A4054" transform="matrix(1.00, 0.00, -0.00, -1.00, 304.5, 577.5)">n</text><text xml:space="preserve" font-family="FiraSans-Medium,Fira Sans" font-size="32.0" fill="#2A4054" transform="matrix(1.00, 0.00, -0.00, -1.00, 323.1, 577.5)">c</text><text xml:space="preserve" font-family="FiraSans-Medium,Fira Sans" font-size="32.0" fill="#2A4054" transform="matrix(1.00, 0.00, -0.00, -1.00, 338.1, 577.5)">e</text><g><clipPath id="clip0x618015ea3060"><path d="M 54.3 499.8 L 316.1 499.8 L 316.1 530.9 L 54.3 530.9 Z M 54.3 499.8 "></path></clipPath><g clip-path="url(#clip0x618015ea3060)"><path d="M 59.7 510.5 C 58.7 507.8 57.8 505.0 57.3 502.1 C 57.3 502.0 57.2 501.9 57.2 501.8 C 57.2 501.1 57.8 500.8 58.4 500.8 C 59.0 500.8 59.8 501.2 59.9 502.1 C 60.5 504.9 60.8 507.8 60.9 510.5 C 63.0 515.9 65.8 520.0 67.6 520.0 C 68.5 520.0 69.1 520.7 69.2 521.3 C 69.2 521.4 69.2 521.5 69.2 521.6 C 69.2 522.1 68.9 522.6 68.1 522.6 C 66.1 522.6 63.2 518.7 60.8 513.3 C 60.6 518.6 59.4 522.5 57.6 522.5 C 55.9 522.5 54.9 520.5 54.5 518.6 L 54.5 518.5 C 54.5 518.3 54.7 518.2 54.9 518.2 C 55.1 518.2 55.4 518.3 55.6 518.6 C 56.1 519.1 56.6 519.9 57.1 519.9 C 58.7 519.9 59.7 516.0 59.7 510.9 L 59.7 510.5 " fill="#000000"></path><path d="M 74.8 516.5 C 74.8 524.9 77.3 529.1 80.8 529.7 L 80.8 531.1 C 75.7 530.5 72.2 525.8 72.2 516.5 C 72.2 507.3 75.7 502.6 80.8 502.0 L 80.8 503.4 C 77.3 504.0 74.8 508.2 74.8 516.5 " fill="#000000"></path><path d="M 89.1 522.8 L 84.9 521.5 L 84.9 520.4 L 87.6 520.2 C 88.2 519.4 88.9 517.6 89.8 514.8 C 88.7 512.6 87.5 511.1 86.2 510.2 L 84.9 511.9 C 83.7 511.5 83.0 510.7 83.0 509.7 C 83.0 508.6 83.9 507.7 85.1 507.7 C 86.8 507.7 88.5 509.5 90.5 513.2 C 91.3 509.3 92.2 507.6 94.6 507.6 C 95.5 507.6 96.9 507.8 98.6 508.4 L 98.6 509.6 C 98.0 509.4 97.5 509.4 96.9 509.4 C 94.9 509.4 94.5 511.4 93.2 515.8 C 94.2 518.1 95.4 519.4 96.6 520.0 L 97.8 518.3 C 99.0 518.7 99.7 519.6 99.7 520.7 C 99.7 521.8 98.9 522.6 97.8 522.6 C 96.1 522.6 94.4 520.8 92.5 517.4 C 91.5 521.1 91.0 522.8 89.3 522.8 C 89.2 522.8 89.1 522.8 89.1 522.8 " fill="#52A700"></path><path d="M 111.2 516.5 C 111.2 508.2 108.7 504.0 105.2 503.4 L 105.2 502.0 C 110.3 502.6 113.8 507.3 113.8 516.5 C 113.8 525.8 110.3 530.5 105.2 531.1 L 105.2 529.7 C 108.7 529.1 111.2 524.9 111.2 516.5 " fill="#000000"></path><path d="M 124.4 518.9 L 144.9 518.9 L 144.9 520.8 L 124.4 520.8 L 124.4 518.9 Z M 124.4 512.3 L 144.9 512.3 L 144.9 514.2 L 124.4 514.2 L 124.4 512.3 " fill="#000000"></path><path d="M 160.6 522.5 L 156.2 521.6 L 156.2 520.8 L 158.6 520.5 L 155.4 502.7 L 155.1 502.4 L 153.3 502.0 L 153.3 501.1 L 160.6 501.1 L 160.6 502.0 L 157.7 502.5 L 158.7 508.2 C 159.5 507.8 160.3 507.6 161.1 507.6 C 163.2 507.6 165.3 508.6 166.9 510.3 C 168.6 512.3 169.5 514.5 169.5 517.1 C 169.5 520.6 168.0 522.5 165.6 522.5 C 164.3 522.5 162.8 521.9 161.0 520.6 L 161.4 522.5 L 160.6 522.5 Z M 159.0 509.8 L 160.8 519.2 C 162.2 520.3 163.3 520.9 164.2 520.9 C 165.8 520.9 167.0 519.5 167.0 517.1 C 167.0 514.6 166.1 512.2 165.1 510.8 C 164.1 509.6 163.0 509.0 161.7 509.0 C 160.8 509.0 160.0 509.2 159.0 509.8 " fill="#000000"></path><path d="M 176.3 516.5 C 176.3 524.9 178.8 529.1 182.3 529.7 L 182.3 531.1 C 177.2 530.5 173.7 525.8 173.7 516.5 C 173.7 507.3 177.2 502.6 182.3 502.0 L 182.3 503.4 C 178.8 504.0 176.3 508.2 176.3 516.5 " fill="#000000"></path><path d="M 190.6 522.8 L 185.9 521.8 L 185.9 520.8 L 188.5 520.5 C 188.9 519.9 189.1 519.1 189.3 518.2 L 191.1 508.5 L 192.3 508.5 C 190.6 505.4 189.1 503.7 187.7 503.6 L 185.7 505.5 C 184.6 505.3 183.9 504.5 183.9 503.5 C 183.9 502.3 185.0 501.1 186.5 501.1 C 189.0 501.1 191.5 503.5 194.2 508.4 C 196.6 512.6 197.8 517.0 200.2 520.2 L 202.0 521.2 L 202.0 522.0 L 199.6 522.8 L 198.6 522.8 C 196.7 518.4 195.2 514.6 193.9 511.5 L 192.9 518.1 C 192.4 521.1 191.9 522.6 190.6 522.8 " fill="#B30000"></path><path d="M 212.0 502.0 L 213.8 502.0 L 213.8 531.1 L 212.0 531.1 Z M 212.0 502.0 " fill="#000000"></path><path d="M 228.0 522.8 L 223.8 521.5 L 223.8 520.4 L 226.6 520.2 C 227.1 519.4 227.8 517.6 228.7 514.8 C 227.6 512.6 226.4 511.1 225.1 510.2 L 223.8 511.9 C 222.6 511.5 221.8 510.7 221.8 509.7 C 221.8 508.6 222.8 507.7 224.0 507.7 C 225.8 507.7 227.4 509.5 229.4 513.2 C 230.2 509.3 231.1 507.6 233.5 507.6 C 234.4 507.6 235.7 507.8 237.5 508.4 L 237.5 509.6 C 236.9 509.4 236.4 509.4 235.9 509.4 C 233.8 509.4 233.4 511.4 232.1 515.8 C 233.2 518.1 234.3 519.4 235.5 520.0 L 236.7 518.3 C 237.9 518.7 238.6 519.6 238.6 520.7 C 238.6 521.8 237.8 522.6 236.7 522.6 C 234.9 522.6 233.2 520.8 231.4 517.4 C 230.4 521.1 229.9 522.8 228.2 522.8 C 228.1 522.8 228.0 522.8 228.0 522.8 " fill="#52A700"></path><path d="M 250.1 516.5 C 250.1 508.2 247.6 504.0 244.1 503.4 L 244.1 502.0 C 249.2 502.6 252.7 507.3 252.7 516.5 C 252.7 525.8 249.2 530.5 244.1 531.1 L 244.1 529.7 C 247.6 529.1 250.1 524.9 250.1 516.5 " fill="#000000"></path><path d="M 261.2 522.5 L 256.8 521.6 L 256.8 520.8 L 259.2 520.5 L 256.0 502.7 L 255.7 502.4 L 253.9 502.0 L 253.9 501.1 L 261.2 501.1 L 261.2 502.0 L 258.3 502.5 L 259.3 508.2 C 260.1 507.8 260.9 507.6 261.7 507.6 C 263.8 507.6 265.9 508.6 267.5 510.3 C 269.2 512.3 270.1 514.5 270.1 517.1 C 270.1 520.6 268.6 522.5 266.2 522.5 C 264.9 522.5 263.4 521.9 261.6 520.6 L 262.0 522.5 L 261.2 522.5 Z M 259.7 509.8 L 261.4 519.2 C 262.8 520.3 263.9 520.9 264.8 520.9 C 266.4 520.9 267.6 519.5 267.6 517.1 C 267.6 514.6 266.7 512.2 265.7 510.8 C 264.7 509.6 263.6 509.0 262.3 509.0 C 261.4 509.0 260.6 509.2 259.7 509.8 " fill="#000000"></path><path d="M 276.8 516.5 C 276.8 524.9 279.3 529.1 282.8 529.7 L 282.8 531.1 C 277.7 530.5 274.2 525.8 274.2 516.5 C 274.2 507.3 277.7 502.6 282.8 502.0 L 282.8 503.4 C 279.3 504.0 276.8 508.2 276.8 516.5 " fill="#000000"></path><path d="M 291.0 522.8 L 286.9 521.5 L 286.9 520.4 L 289.6 520.2 C 290.2 519.4 290.9 517.6 291.8 514.8 C 290.7 512.6 289.5 511.1 288.2 510.2 L 286.9 511.9 C 285.7 511.5 285.0 510.7 285.0 509.7 C 285.0 508.6 285.9 507.7 287.1 507.7 C 288.9 507.7 290.5 509.5 292.5 513.2 C 293.3 509.3 294.2 507.6 296.6 507.6 C 297.5 507.6 298.9 507.8 300.6 508.4 L 300.6 509.6 C 300.0 509.4 299.5 509.4 298.9 509.4 C 296.9 509.4 296.5 511.4 295.2 515.8 C 296.2 518.1 297.4 519.4 298.6 520.0 L 299.8 518.3 C 301.0 518.7 301.7 519.6 301.7 520.7 C 301.7 521.8 300.9 522.6 299.8 522.6 C 298.1 522.6 296.3 520.8 294.5 517.4 C 293.5 521.1 293.0 522.8 291.3 522.8 C 291.2 522.8 291.1 522.8 291.0 522.8 " fill="#52A700"></path><path d="M 313.3 516.5 C 313.3 508.2 310.8 504.0 307.3 503.4 L 307.3 502.0 C 312.4 502.6 315.9 507.3 315.9 516.5 C 315.9 525.8 312.4 530.5 307.3 531.1 L 307.3 529.7 C 310.8 529.1 313.3 524.9 313.3 516.5 " fill="#000000"></path></g></g><g><clipPath id="clip0x618015ea3900"><path d="M 53.2 436.6 L 341.2 436.6 L 341.2 479.4 L 53.2 479.4 Z M 53.2 436.6 "></path></clipPath><g clip-path="url(#clip0x618015ea3900)"><path d="M 58.8 470.0 L 57.8 465.3 L 59.4 465.3 L 60.5 468.1 L 61.1 468.5 L 68.7 468.5 L 54.3 450.7 L 54.1 449.5 L 68.5 449.5 L 69.5 455.0 L 68.0 455.0 L 66.8 451.4 L 66.3 451.0 L 57.6 451.0 L 72.1 468.7 L 72.3 470.0 L 58.8 470.0 " fill="#000000"></path><path d="M 83.5 460.7 L 104.0 460.7 L 104.0 462.5 L 83.5 462.5 L 83.5 460.7 Z M 83.5 454.1 L 104.0 454.1 L 104.0 455.9 L 83.5 455.9 L 83.5 454.1 " fill="#000000"></path><path d="M 129.3 478.9 C 122.1 478.9 122.1 467.4 122.1 457.8 C 122.1 449.6 122.1 438.6 118.8 438.6 L 117.1 440.7 C 116.8 440.8 116.5 440.9 116.2 440.9 C 115.4 440.9 114.7 440.2 114.7 439.3 C 114.7 437.8 116.0 436.8 117.5 436.8 C 124.6 436.8 124.7 448.2 124.7 457.8 C 124.7 466.1 124.7 477.1 128.0 477.1 L 129.7 475.0 C 129.9 474.8 130.3 474.8 130.5 474.8 C 131.3 474.8 132.1 475.4 132.1 476.4 C 132.1 477.9 130.7 478.9 129.3 478.9 " fill="#000000"></path><path d="M 146.4 452.3 C 145.3 449.6 144.5 446.7 143.9 443.9 C 143.9 443.8 143.9 443.7 143.9 443.6 C 143.9 442.9 144.4 442.5 145.0 442.5 C 145.7 442.5 146.4 443.0 146.6 443.9 C 147.2 446.7 147.4 449.6 147.5 452.2 C 149.6 457.6 152.4 461.7 154.3 461.7 C 155.1 461.7 155.7 462.4 155.8 463.0 C 155.9 463.2 155.9 463.2 155.9 463.3 C 155.9 463.8 155.5 464.3 154.8 464.3 C 152.7 464.3 149.9 460.4 147.5 455.1 C 147.3 460.3 146.1 464.2 144.2 464.2 C 142.5 464.2 141.5 462.2 141.2 460.3 L 141.2 460.3 C 141.2 460.1 141.4 459.9 141.6 459.9 C 141.8 459.9 142.1 460.1 142.3 460.3 C 142.7 460.9 143.3 461.6 143.7 461.6 C 145.4 461.6 146.4 457.8 146.4 452.7 L 146.4 452.3 " fill="#000000"></path><path d="M 161.5 458.3 C 161.5 466.7 163.9 470.8 167.4 471.4 L 167.4 472.8 C 162.4 472.2 158.9 467.5 158.9 458.3 C 158.9 449.0 162.4 444.4 167.4 443.7 L 167.4 445.1 C 163.9 445.7 161.5 449.9 161.5 458.3 " fill="#000000"></path><path d="M 175.7 464.6 L 171.5 463.2 L 171.5 462.2 L 174.3 462.0 C 174.9 461.2 175.6 459.3 176.4 456.5 C 175.4 454.4 174.1 452.9 172.9 452.0 L 171.5 453.6 C 170.3 453.3 169.6 452.4 169.6 451.4 C 169.6 450.4 170.6 449.4 171.8 449.4 C 173.5 449.4 175.1 451.3 177.1 454.9 C 178.0 451.0 178.9 449.3 181.2 449.3 C 182.2 449.3 183.5 449.6 185.3 450.2 L 185.3 451.3 C 184.7 451.2 184.1 451.1 183.6 451.1 C 181.6 451.1 181.1 453.1 179.8 457.6 C 180.9 459.8 182.1 461.2 183.2 461.7 L 184.4 460.1 C 185.7 460.5 186.4 461.3 186.4 462.4 C 186.4 463.5 185.6 464.4 184.5 464.4 C 182.7 464.4 181.0 462.6 179.1 459.1 C 178.2 462.8 177.6 464.6 175.9 464.6 C 175.9 464.6 175.8 464.6 175.7 464.6 " fill="#52A700"></path><path d="M 197.8 458.3 C 197.8 449.9 195.4 445.7 191.9 445.1 L 191.9 443.7 C 196.9 444.4 200.4 449.0 200.4 458.3 C 200.4 467.5 196.9 472.2 191.9 472.8 L 191.9 471.4 C 195.4 470.8 197.8 466.7 197.8 458.3 " fill="#000000"></path><path d="M 217.5 472.0 L 212.8 471.1 L 212.8 470.2 L 215.5 469.9 L 214.4 463.8 C 213.6 464.2 212.8 464.3 212.0 464.3 C 209.4 464.3 206.7 462.8 205.1 460.2 C 204.1 458.7 203.6 456.8 203.6 454.7 C 203.6 451.2 205.1 449.2 207.6 449.2 C 209.2 449.2 210.9 450.2 212.4 452.1 C 212.3 451.8 212.3 451.6 212.3 451.4 C 212.3 449.9 213.0 449.3 214.4 449.3 C 215.2 449.3 216.5 449.5 218.1 450.2 L 218.1 451.1 C 217.2 450.9 216.6 450.7 216.2 450.7 C 215.2 450.7 214.8 451.2 214.8 452.0 C 214.8 452.4 214.9 453.0 215.0 453.7 L 218.3 472.0 L 217.5 472.0 Z M 212.5 463.0 L 214.0 461.3 L 212.6 453.5 C 211.2 451.8 209.8 451.0 208.7 451.0 C 207.1 451.0 206.1 452.3 206.1 454.7 C 206.1 459.8 209.0 463.2 211.8 463.2 C 212.0 463.2 212.3 463.1 212.5 463.0 " fill="#000000"></path><path d="M 227.7 464.6 L 223.5 463.2 L 223.5 462.2 L 226.3 462.0 C 226.9 461.2 227.6 459.3 228.4 456.5 C 227.4 454.4 226.1 452.9 224.9 452.0 L 223.5 453.6 C 222.3 453.3 221.6 452.4 221.6 451.4 C 221.6 450.4 222.6 449.4 223.8 449.4 C 225.5 449.4 227.1 451.3 229.1 454.9 C 230.0 451.0 230.9 449.3 233.2 449.3 C 234.2 449.3 235.5 449.6 237.3 450.2 L 237.3 451.3 C 236.7 451.2 236.1 451.1 235.6 451.1 C 233.6 451.1 233.1 453.1 231.8 457.6 C 232.9 459.8 234.1 461.2 235.2 461.7 L 236.4 460.1 C 237.7 460.5 238.4 461.3 238.4 462.4 C 238.4 463.5 237.6 464.4 236.5 464.4 C 234.7 464.4 233.0 462.6 231.1 459.1 C 230.2 462.8 229.6 464.6 227.9 464.6 C 227.9 464.6 227.8 464.6 227.7 464.6 " fill="#52A700"></path><path d="M 251.1 460.7 L 271.6 460.7 L 271.6 462.5 L 251.1 462.5 L 251.1 460.7 Z M 251.1 454.1 L 271.6 454.1 L 271.6 455.9 L 251.1 455.9 L 251.1 454.1 " fill="#000000"></path><path d="M 287.3 464.2 L 283.0 463.3 L 283.0 462.5 L 285.4 462.2 L 282.2 444.4 L 281.9 444.1 L 280.0 443.7 L 280.0 442.8 L 287.4 442.8 L 287.4 443.7 L 284.5 444.3 L 285.5 449.9 C 286.3 449.6 287.1 449.4 287.9 449.4 C 289.9 449.4 292.1 450.4 293.7 452.1 C 295.4 454.0 296.2 456.2 296.2 458.9 C 296.2 462.4 294.8 464.2 292.4 464.2 C 291.0 464.2 289.5 463.6 287.7 462.4 L 288.1 464.2 L 287.3 464.2 Z M 285.8 451.5 L 287.5 461.0 C 288.9 462.1 290.0 462.6 291.0 462.6 C 292.6 462.6 293.7 461.2 293.7 458.8 C 293.7 456.4 292.9 453.9 291.8 452.6 C 290.9 451.3 289.8 450.7 288.4 450.7 C 287.6 450.7 286.7 451.0 285.8 451.5 " fill="#000000"></path><path d="M 303.0 458.3 C 303.0 466.7 305.4 470.8 308.9 471.4 L 308.9 472.8 C 303.9 472.2 300.4 467.5 300.4 458.3 C 300.4 449.0 303.9 444.4 308.9 443.7 L 308.9 445.1 C 305.4 445.7 303.0 449.9 303.0 458.3 " fill="#000000"></path><path d="M 317.2 464.6 L 312.5 463.5 L 312.5 462.5 L 315.2 462.3 C 315.5 461.6 315.8 460.8 315.9 460.0 L 317.8 450.3 L 319.0 450.3 C 317.3 447.1 315.8 445.5 314.4 445.3 L 312.3 447.3 C 311.3 447.1 310.6 446.3 310.6 445.2 C 310.6 444.0 311.7 442.9 313.1 442.9 C 315.6 442.9 318.2 445.3 320.9 450.1 C 323.2 454.3 324.4 458.7 326.8 461.9 L 328.6 462.9 L 328.6 463.8 L 326.2 464.5 L 325.3 464.5 C 323.4 460.1 321.9 456.4 320.6 453.2 L 319.6 459.9 C 319.1 462.8 318.6 464.3 317.2 464.6 " fill="#B30000"></path><path d="M 338.6 458.3 C 338.6 449.9 336.2 445.7 332.7 445.1 L 332.7 443.7 C 337.8 444.4 341.2 449.0 341.2 458.3 C 341.2 467.5 337.8 472.2 332.7 472.8 L 332.7 471.4 C 336.2 470.8 338.6 466.7 338.6 458.3 " fill="#000000"></path></g></g><g><clipPath id="clip0x618015ea40e0"><path d="M 49.1 357.9 L 360.2 357.9 L 360.2 394.3 L 49.1 394.3 Z M 49.1 357.9 "></path></clipPath><g clip-path="url(#clip0x618015ea40e0)"><path d="M 62.0 383.1 L 61.2 382.3 C 60.1 382.8 59.2 383.1 58.3 383.1 C 56.1 383.1 53.8 381.8 52.1 379.7 C 50.8 378.0 50.1 375.9 50.1 373.5 C 50.1 370.0 51.7 368.0 54.2 368.0 C 55.6 368.0 57.1 368.8 58.8 370.3 L 57.5 363.3 L 57.2 362.9 L 55.4 362.5 L 55.4 361.6 L 62.9 361.6 L 62.9 362.5 L 59.9 363.0 L 63.1 381.6 C 63.2 382.0 63.3 382.5 63.4 383.1 L 62.0 383.1 Z M 58.9 381.8 L 60.4 379.9 L 59.0 371.6 C 57.7 370.4 56.6 369.8 55.4 369.8 C 53.7 369.8 52.6 371.1 52.6 373.3 C 52.6 375.9 53.5 378.5 54.6 379.8 C 55.7 381.2 56.9 381.8 58.3 381.8 C 58.5 381.8 58.7 381.8 58.9 381.8 " fill="#000000"></path><path d="M 70.0 377.0 C 70.0 385.4 72.5 389.5 76.0 390.2 L 76.0 391.6 C 70.9 391.0 67.4 386.2 67.4 377.0 C 67.4 367.8 70.9 363.1 76.0 362.5 L 76.0 363.9 C 72.5 364.5 70.0 368.6 70.0 377.0 " fill="#000000"></path><path d="M 84.3 383.3 L 80.1 382.0 L 80.1 380.9 L 82.9 380.7 C 83.4 379.9 84.1 378.0 85.0 375.2 C 84.0 373.1 82.7 371.6 81.4 370.7 L 80.1 372.3 C 78.9 372.0 78.2 371.1 78.2 370.2 C 78.2 369.1 79.1 368.2 80.3 368.2 C 82.1 368.2 83.7 370.0 85.7 373.6 C 86.5 369.7 87.4 368.0 89.8 368.0 C 90.7 368.0 92.1 368.3 93.8 368.9 L 93.8 370.1 C 93.2 369.9 92.7 369.9 92.2 369.9 C 90.1 369.9 89.7 371.9 88.4 376.3 C 89.5 378.5 90.6 379.9 91.8 380.4 L 93.0 378.8 C 94.2 379.2 94.9 380.1 94.9 381.1 C 94.9 382.3 94.1 383.1 93.0 383.1 C 91.3 383.1 89.6 381.3 87.7 377.8 C 86.7 381.6 86.2 383.3 84.5 383.3 C 84.4 383.3 84.3 383.3 84.3 383.3 " fill="#52A700"></path><path d="M 103.7 382.9 C 102.6 382.9 101.8 382.1 101.8 381.0 C 101.8 379.9 102.6 379.0 103.7 379.0 C 104.7 379.0 105.6 379.9 105.6 381.0 C 105.6 382.1 104.7 382.9 103.7 382.9 Z M 100.8 363.0 C 103.9 363.4 105.9 365.8 105.9 368.4 C 105.9 370.3 105.0 371.5 103.5 371.5 C 102.5 371.5 101.7 370.8 101.7 369.8 C 101.7 369.2 101.8 368.8 102.2 368.4 L 104.2 368.4 C 104.2 368.3 104.2 368.2 104.2 368.1 C 104.2 365.8 103.0 364.5 100.8 364.1 L 100.8 363.0 " fill="#000000"></path><path d="M 117.0 384.7 L 118.6 384.7 C 119.2 385.9 119.8 387.3 120.8 387.4 C 121.0 387.4 121.1 387.4 121.2 387.4 C 122.9 387.4 123.7 385.8 123.9 383.9 L 113.8 368.2 L 118.0 368.2 L 124.2 377.7 C 124.4 372.7 125.0 367.9 127.3 367.9 C 129.9 367.9 131.4 370.9 132.0 373.9 L 130.4 373.9 C 129.9 372.7 129.1 371.4 127.9 371.2 L 127.9 371.2 C 126.3 371.2 126.2 377.9 126.2 382.7 C 126.1 386.6 125.6 390.7 122.4 390.7 C 122.3 390.7 122.1 390.7 121.9 390.7 C 119.3 390.4 117.6 387.5 117.0 384.7 " fill="#000000"></path><path d="M 140.4 377.0 C 140.4 368.6 138.0 364.5 134.4 363.9 L 134.4 362.5 C 139.5 363.1 143.0 367.8 143.0 377.0 C 143.0 386.2 139.5 391.0 134.4 391.6 L 134.4 390.2 C 138.0 389.5 140.4 385.4 140.4 377.0 " fill="#000000"></path><path d="M 153.5 379.4 L 174.1 379.4 L 174.1 381.2 L 153.5 381.2 L 153.5 379.4 Z M 153.5 372.8 L 174.1 372.8 L 174.1 374.6 L 153.5 374.6 L 153.5 372.8 " fill="#000000"></path><path d="M 187.5 361.9 L 187.0 361.5 L 184.7 361.3 L 184.7 359.8 L 194.2 359.8 L 194.2 361.3 L 191.9 361.5 L 191.4 361.9 L 191.4 392.8 L 208.8 392.8 L 208.8 361.9 L 208.3 361.5 L 206.1 361.3 L 206.1 359.8 L 215.5 359.8 L 215.5 361.3 L 213.2 361.5 L 212.8 361.9 L 212.8 392.2 L 213.2 392.7 L 215.5 392.9 L 215.5 394.4 L 184.7 394.4 L 184.7 392.9 L 187.0 392.7 L 187.5 392.2 L 187.5 361.9 " fill="#000000"></path><path d="M 228.1 374.4 L 224.8 373.8 L 224.8 373.2 L 226.7 373.0 L 226.0 368.7 C 225.4 369.0 224.8 369.1 224.2 369.1 C 222.5 369.1 220.6 368.0 219.4 366.2 C 218.7 365.1 218.4 363.8 218.4 362.4 C 218.4 359.9 219.5 358.5 221.2 358.5 C 222.3 358.5 223.5 359.2 224.5 360.5 C 224.5 360.4 224.5 360.2 224.5 360.1 C 224.5 359.0 224.9 358.5 225.9 358.5 C 226.5 358.5 227.4 358.8 228.6 359.2 L 228.6 359.8 C 227.9 359.7 227.4 359.6 227.2 359.6 C 226.5 359.6 226.2 359.9 226.2 360.5 C 226.2 360.8 226.3 361.2 226.4 361.6 L 228.6 374.4 L 228.1 374.4 Z M 224.6 368.2 L 225.6 367.0 L 224.7 361.6 C 223.7 360.3 222.7 359.7 221.9 359.7 C 220.8 359.7 220.1 360.7 220.1 362.4 C 220.1 365.9 222.2 368.3 224.1 368.3 C 224.3 368.3 224.4 368.2 224.6 368.2 " fill="#000000"></path><path d="M 249.3 383.1 L 248.5 382.3 C 247.4 382.8 246.5 383.1 245.6 383.1 C 243.4 383.1 241.1 381.8 239.4 379.7 C 238.1 378.0 237.4 375.9 237.4 373.5 C 237.4 370.0 239.0 368.0 241.5 368.0 C 242.9 368.0 244.4 368.8 246.1 370.3 L 244.8 363.3 L 244.5 362.9 L 242.7 362.5 L 242.7 361.6 L 250.2 361.6 L 250.2 362.5 L 247.2 363.0 L 250.4 381.6 C 250.5 382.0 250.6 382.5 250.7 383.1 L 249.3 383.1 Z M 246.2 381.8 L 247.7 379.9 L 246.3 371.6 C 245.0 370.4 243.9 369.8 242.7 369.8 C 241.0 369.8 239.9 371.1 239.9 373.3 C 239.9 375.9 240.8 378.5 241.9 379.8 C 243.0 381.2 244.2 381.8 245.6 381.8 C 245.8 381.8 246.0 381.8 246.2 381.8 " fill="#000000"></path><path d="M 257.3 377.0 C 257.3 385.4 259.8 389.5 263.3 390.2 L 263.3 391.6 C 258.2 391.0 254.7 386.2 254.7 377.0 C 254.7 367.8 258.2 363.1 263.3 362.5 L 263.3 363.9 C 259.8 364.5 257.3 368.6 257.3 377.0 " fill="#000000"></path><path d="M 271.6 383.3 L 267.4 382.0 L 267.4 380.9 L 270.2 380.7 C 270.7 379.9 271.4 378.0 272.3 375.2 C 271.2 373.1 270.0 371.6 268.7 370.7 L 267.4 372.3 C 266.2 372.0 265.5 371.1 265.5 370.2 C 265.5 369.1 266.4 368.2 267.6 368.2 C 269.4 368.2 271.0 370.0 273.0 373.6 C 273.8 369.7 274.8 368.0 277.1 368.0 C 278.1 368.0 279.4 368.3 281.2 368.9 L 281.2 370.1 C 280.5 369.9 280.0 369.9 279.4 369.9 C 277.4 369.9 277.0 371.9 275.7 376.3 C 276.8 378.5 277.9 379.9 279.1 380.4 L 280.3 378.8 C 281.5 379.2 282.2 380.1 282.2 381.1 C 282.2 382.3 281.4 383.1 280.3 383.1 C 278.6 383.1 276.9 381.3 275.0 377.8 C 274.0 381.6 273.5 383.3 271.8 383.3 C 271.7 383.3 271.6 383.3 271.6 383.3 " fill="#52A700"></path><path d="M 296.8 377.1 L 293.5 376.4 L 293.5 375.8 L 295.4 375.6 L 294.7 371.4 C 294.1 371.6 293.5 371.7 292.9 371.7 C 291.2 371.7 289.3 370.6 288.1 368.8 C 287.4 367.7 287.1 366.4 287.1 364.9 C 287.1 362.5 288.2 361.1 289.9 361.1 C 291.0 361.1 292.2 361.8 293.2 363.1 C 293.2 363.0 293.2 362.8 293.2 362.7 C 293.2 361.6 293.6 361.2 294.6 361.2 C 295.2 361.2 296.1 361.3 297.3 361.8 L 297.3 362.4 C 296.6 362.3 296.1 362.2 295.9 362.2 C 295.2 362.2 294.9 362.5 294.9 363.1 C 294.9 363.4 295.0 363.8 295.1 364.2 L 297.3 377.1 L 296.8 377.1 Z M 293.3 370.8 L 294.3 369.6 L 293.4 364.2 C 292.4 362.9 291.4 362.3 290.6 362.3 C 289.5 362.3 288.8 363.3 288.8 365.0 C 288.8 368.5 290.9 370.9 292.8 370.9 C 292.9 370.9 293.1 370.8 293.3 370.8 " fill="#000000"></path><path d="M 305.9 382.9 C 304.8 382.9 303.9 382.1 303.9 381.0 C 303.9 379.9 304.8 379.0 305.9 379.0 C 307.0 379.0 307.8 379.9 307.8 381.0 C 307.8 382.1 307.0 382.9 305.9 382.9 Z M 303.0 363.0 C 306.1 363.4 308.2 365.8 308.2 368.4 C 308.2 370.3 307.2 371.5 305.7 371.5 C 304.7 371.5 303.9 370.8 303.9 369.8 C 303.9 369.2 304.1 368.8 304.4 368.4 L 306.4 368.4 C 306.4 368.3 306.4 368.2 306.4 368.1 C 306.4 365.8 305.3 364.5 303.0 364.1 L 303.0 363.0 " fill="#000000"></path><path d="M 319.3 384.7 L 320.9 384.7 C 321.4 385.9 322.1 387.3 323.1 387.4 C 323.3 387.4 323.4 387.4 323.5 387.4 C 325.2 387.4 326.0 385.8 326.2 383.9 L 316.1 368.2 L 320.3 368.2 L 326.5 377.7 C 326.7 372.7 327.3 367.9 329.6 367.9 C 332.2 367.9 333.7 370.9 334.3 373.9 L 332.7 373.9 C 332.1 372.7 331.5 371.4 330.3 371.2 L 330.2 371.2 C 328.6 371.2 328.6 377.9 328.5 382.7 C 328.4 386.6 328.0 390.7 324.7 390.7 C 324.6 390.7 324.4 390.7 324.2 390.7 C 321.6 390.4 319.9 387.5 319.3 384.7 " fill="#000000"></path><path d="M 345.7 377.1 L 342.4 376.4 L 342.4 375.8 L 344.3 375.6 L 343.5 371.4 C 343.0 371.6 342.4 371.7 341.8 371.7 C 340.1 371.7 338.2 370.6 337.0 368.8 C 336.3 367.7 336.0 366.4 336.0 364.9 C 336.0 362.5 337.1 361.1 338.8 361.1 C 339.9 361.1 341.1 361.8 342.1 363.1 C 342.1 363.0 342.1 362.8 342.1 362.7 C 342.1 361.6 342.5 361.2 343.5 361.2 C 344.1 361.2 345.0 361.3 346.2 361.8 L 346.2 362.4 C 345.5 362.3 345.0 362.2 344.8 362.2 C 344.1 362.2 343.8 362.5 343.8 363.1 C 343.8 363.4 343.9 363.8 343.9 364.2 L 346.2 377.1 L 345.7 377.1 Z M 342.2 370.8 L 343.2 369.6 L 342.3 364.2 C 341.3 362.9 340.3 362.3 339.5 362.3 C 338.4 362.3 337.7 363.3 337.7 365.0 C 337.7 368.5 339.8 370.9 341.7 370.9 C 341.9 370.9 342.0 370.8 342.2 370.8 " fill="#000000"></path><path d="M 357.6 377.0 C 357.6 368.6 355.2 364.5 351.6 363.9 L 351.6 362.5 C 356.7 363.1 360.2 367.8 360.2 377.0 C 360.2 386.2 356.7 391.0 351.6 391.6 L 351.6 390.2 C 355.2 389.5 357.6 385.4 357.6 377.0 " fill="#000000"></path></g></g><g><clipPath id="clip0x618015ea4980"><path d="M 540.5 360.5 L 830.8 360.5 L 830.8 391.3 L 540.5 391.3 Z M 540.5 360.5 "></path></clipPath><g clip-path="url(#clip0x618015ea4980)"><path d="M 553.0 382.3 L 552.3 381.5 C 551.2 382.0 550.2 382.3 549.4 382.3 C 547.2 382.3 544.8 381.1 543.2 378.9 C 541.9 377.2 541.2 375.1 541.2 372.7 C 541.2 369.3 542.8 367.2 545.3 367.2 C 546.7 367.2 548.2 368.0 549.8 369.5 L 548.6 362.5 L 548.3 362.1 L 546.4 361.8 L 546.4 360.8 L 553.9 360.8 L 553.9 361.8 L 551.0 362.3 L 554.2 380.8 C 554.2 381.2 554.4 381.7 554.5 382.3 L 553.0 382.3 Z M 550.0 381.0 L 551.5 379.1 L 550.1 370.9 C 548.8 369.6 547.6 369.0 546.5 369.0 C 544.7 369.0 543.6 370.3 543.6 372.5 C 543.6 375.2 544.5 377.7 545.7 379.1 C 546.8 380.4 548.0 381.0 549.4 381.0 C 549.6 381.0 549.8 381.0 550.0 381.0 " fill="#000000"></path><path d="M 561.2 376.2 C 561.2 384.6 563.7 388.8 567.2 389.4 L 567.2 390.8 C 562.1 390.2 558.6 385.5 558.6 376.2 C 558.6 367.0 562.1 362.3 567.2 361.7 L 567.2 363.1 C 563.7 363.7 561.2 367.8 561.2 376.2 " fill="#000000"></path><path d="M 582.2 382.8 L 581.5 381.0 C 581.4 381.0 581.2 381.0 581.1 381.0 C 580.5 381.0 580.0 381.1 579.5 381.4 C 578.5 381.7 577.4 382.5 575.9 382.5 C 574.5 382.5 573.0 381.6 572.0 380.0 C 571.5 379.1 571.2 378.2 571.2 377.5 C 571.2 376.3 571.8 375.6 572.7 375.6 C 573.5 375.6 574.1 376.0 574.6 376.9 L 572.8 378.9 C 573.2 379.4 573.8 379.6 574.4 379.6 C 575.1 379.6 576.0 379.2 577.1 378.5 L 579.8 379.0 L 569.8 368.2 L 571.9 367.0 L 572.7 368.5 C 572.9 368.6 573.1 368.6 573.4 368.6 C 574.8 368.6 576.6 367.4 578.5 367.4 C 579.9 367.4 581.0 367.9 582.0 369.0 C 582.9 370.1 583.4 371.3 583.4 372.4 C 583.4 373.6 582.6 374.5 581.6 374.5 C 580.8 374.5 580.3 374.0 579.8 373.1 L 581.8 370.9 C 581.2 370.5 580.6 370.2 580.0 370.2 C 579.1 370.2 578.2 370.6 577.0 371.5 L 574.4 370.7 L 584.5 381.4 L 582.2 382.8 " fill="#52A700"></path><path d="M 587.4 362.3 C 590.5 362.6 592.6 365.0 592.6 367.6 C 592.6 369.6 591.6 370.7 590.1 370.7 C 589.1 370.7 588.3 370.0 588.3 369.0 C 588.3 368.4 588.5 368.0 588.8 367.6 L 590.7 367.6 C 590.7 367.5 590.7 367.4 590.7 367.3 C 590.7 365.1 589.6 363.7 587.4 363.3 L 587.4 362.3 " fill="#000000"></path><path d="M 611.2 390.3 C 607.1 390.3 603.4 385.6 602.1 378.7 C 601.8 377.1 601.6 375.7 601.6 374.5 C 601.6 369.9 603.4 367.1 606.7 367.1 C 610.8 367.1 614.4 371.7 615.8 378.7 C 616.0 380.2 616.2 381.6 616.2 382.9 C 616.2 387.4 614.4 390.3 611.2 390.3 Z M 606.2 379.6 C 607.4 385.4 609.0 388.7 610.8 388.7 C 612.0 388.7 612.6 387.4 612.6 385.0 C 612.6 383.6 612.4 381.7 611.9 379.6 L 606.2 379.6 Z M 605.9 377.8 L 611.6 377.8 C 610.4 372.0 608.8 368.7 607.0 368.7 C 605.8 368.7 605.3 370.0 605.3 372.3 C 605.3 373.8 605.4 375.6 605.9 377.8 " fill="#52A700"></path><path d="M 625.4 382.1 C 624.3 382.1 623.4 381.3 623.4 380.2 C 623.4 379.1 624.3 378.2 625.4 378.2 C 626.4 378.2 627.3 379.1 627.3 380.2 C 627.3 381.3 626.4 382.1 625.4 382.1 Z M 622.5 362.3 C 625.6 362.6 627.6 365.0 627.6 367.6 C 627.6 369.6 626.7 370.7 625.2 370.7 C 624.1 370.7 623.4 370.0 623.4 369.0 C 623.4 368.4 623.5 368.0 623.9 367.6 L 625.8 367.6 C 625.8 367.5 625.8 367.4 625.8 367.3 C 625.8 365.1 624.7 363.7 622.5 363.3 L 622.5 362.3 " fill="#000000"></path><path d="M 638.7 384.0 L 640.3 384.0 C 640.8 385.1 641.5 386.5 642.5 386.6 C 642.7 386.6 642.8 386.6 642.9 386.6 C 644.6 386.6 645.4 385.0 645.6 383.1 L 635.5 367.4 L 639.7 367.4 L 645.8 376.9 C 646.0 372.0 646.7 367.1 649.0 367.1 C 651.6 367.1 653.1 370.1 653.7 373.1 L 652.1 373.1 C 651.5 371.9 650.8 370.6 649.6 370.4 L 649.6 370.4 C 648.0 370.4 647.9 377.1 647.9 381.9 C 647.8 385.8 647.3 389.9 644.1 389.9 C 643.9 389.9 643.8 389.9 643.6 389.9 C 641.0 389.6 639.2 386.8 638.7 384.0 " fill="#000000"></path><path d="M 662.1 376.2 C 662.1 367.8 659.6 363.7 656.1 363.1 L 656.1 361.7 C 661.2 362.3 664.7 367.0 664.7 376.2 C 664.7 385.5 661.2 390.2 656.1 390.8 L 656.1 389.4 C 659.6 388.8 662.1 384.6 662.1 376.2 " fill="#000000"></path><path d="M 675.3 378.6 L 695.8 378.6 L 695.8 380.4 L 675.3 380.4 L 675.3 378.6 Z M 675.3 372.0 L 695.8 372.0 L 695.8 373.8 L 675.3 373.8 L 675.3 372.0 " fill="#000000"></path><path d="M 711.5 382.1 L 707.1 381.2 L 707.1 380.5 L 709.5 380.2 L 706.3 362.4 L 706.0 362.0 L 704.2 361.7 L 704.2 360.8 L 711.5 360.8 L 711.5 361.7 L 708.6 362.2 L 709.6 367.9 C 710.4 367.5 711.2 367.3 712.0 367.3 C 714.1 367.3 716.2 368.3 717.8 370.0 C 719.5 372.0 720.4 374.2 720.4 376.8 C 720.4 380.3 718.9 382.1 716.5 382.1 C 715.2 382.1 713.7 381.5 711.9 380.3 L 712.3 382.1 L 711.5 382.1 Z M 709.9 369.5 L 711.7 379.0 C 713.0 380.0 714.2 380.6 715.1 380.6 C 716.7 380.6 717.9 379.2 717.9 376.8 C 717.9 374.3 717.0 371.9 716.0 370.5 C 715.0 369.3 713.9 368.6 712.6 368.6 C 711.7 368.6 710.9 368.9 709.9 369.5 " fill="#000000"></path><path d="M 727.2 376.2 C 727.2 384.6 729.7 388.8 733.2 389.4 L 733.2 390.8 C 728.1 390.2 724.6 385.5 724.6 376.2 C 724.6 367.0 728.1 362.3 733.2 361.7 L 733.2 363.1 C 729.7 363.7 727.2 367.8 727.2 376.2 " fill="#000000"></path><path d="M 748.2 382.8 L 747.5 381.0 C 747.4 381.0 747.2 381.0 747.1 381.0 C 746.5 381.0 746.0 381.1 745.4 381.4 C 744.5 381.7 743.4 382.5 741.9 382.5 C 740.5 382.5 739.0 381.6 738.0 380.0 C 737.5 379.1 737.2 378.2 737.2 377.5 C 737.2 376.3 737.8 375.6 738.7 375.6 C 739.5 375.6 740.1 376.0 740.6 376.9 L 738.8 378.9 C 739.2 379.4 739.7 379.6 740.4 379.6 C 741.1 379.6 742.0 379.2 743.1 378.5 L 745.8 379.0 L 735.8 368.2 L 737.9 367.0 L 738.7 368.5 C 738.9 368.6 739.1 368.6 739.3 368.6 C 740.9 368.6 742.6 367.4 744.5 367.4 C 745.9 367.4 747.0 367.9 748.0 369.0 C 748.9 370.1 749.4 371.3 749.4 372.4 C 749.4 373.6 748.6 374.5 747.6 374.5 C 746.9 374.5 746.2 374.0 745.8 373.1 L 747.8 370.9 C 747.3 370.5 746.6 370.2 746.0 370.2 C 745.1 370.2 744.2 370.6 743.0 371.5 L 740.4 370.7 L 750.5 381.4 L 748.2 382.8 " fill="#52A700"></path><path d="M 753.4 362.3 C 756.5 362.6 758.5 365.0 758.5 367.6 C 758.5 369.6 757.6 370.7 756.1 370.7 C 755.1 370.7 754.3 370.0 754.3 369.0 C 754.3 368.4 754.4 368.0 754.8 367.6 L 756.7 367.6 C 756.7 367.5 756.7 367.4 756.7 367.3 C 756.7 365.1 755.6 363.7 753.4 363.3 L 753.4 362.3 " fill="#000000"></path><path d="M 777.2 390.3 C 773.2 390.3 769.5 385.6 768.2 378.7 C 767.9 377.1 767.7 375.7 767.7 374.5 C 767.7 369.9 769.5 367.1 772.8 367.1 C 776.9 367.1 780.5 371.7 781.9 378.7 C 782.1 380.2 782.3 381.6 782.3 382.9 C 782.3 387.4 780.5 390.3 777.2 390.3 Z M 772.3 379.6 C 773.5 385.4 775.1 388.7 776.9 388.7 C 778.1 388.7 778.7 387.4 778.7 385.0 C 778.7 383.6 778.5 381.7 778.0 379.6 L 772.3 379.6 Z M 772.0 377.8 L 777.7 377.8 C 776.5 372.0 774.9 368.7 773.1 368.7 C 771.9 368.7 771.4 370.0 771.4 372.3 C 771.4 373.8 771.5 375.6 772.0 377.8 " fill="#52A700"></path><path d="M 791.4 382.1 C 790.3 382.1 789.4 381.3 789.4 380.2 C 789.4 379.1 790.3 378.2 791.4 378.2 C 792.4 378.2 793.3 379.1 793.3 380.2 C 793.3 381.3 792.4 382.1 791.4 382.1 Z M 788.5 362.3 C 791.6 362.6 793.6 365.0 793.6 367.6 C 793.6 369.6 792.7 370.7 791.2 370.7 C 790.1 370.7 789.4 370.0 789.4 369.0 C 789.4 368.4 789.5 368.0 789.9 367.6 L 791.8 367.6 C 791.8 367.5 791.8 367.4 791.8 367.3 C 791.8 365.1 790.7 363.7 788.5 363.3 L 788.5 362.3 " fill="#000000"></path><path d="M 804.7 384.0 L 806.3 384.0 C 806.8 385.1 807.5 386.5 808.5 386.6 C 808.7 386.6 808.8 386.6 808.9 386.6 C 810.6 386.6 811.4 385.0 811.6 383.1 L 801.5 367.4 L 805.7 367.4 L 811.8 376.9 C 812.0 372.0 812.7 367.1 815.0 367.1 C 817.6 367.1 819.1 370.1 819.7 373.1 L 818.1 373.1 C 817.5 371.9 816.8 370.6 815.6 370.4 L 815.6 370.4 C 814.0 370.4 813.9 377.1 813.9 381.9 C 813.8 385.8 813.3 389.9 810.1 389.9 C 809.9 389.9 809.8 389.9 809.6 389.9 C 807.0 389.6 805.2 386.8 804.7 384.0 " fill="#000000"></path><path d="M 828.1 376.2 C 828.1 367.8 825.6 363.7 822.1 363.1 L 822.1 361.7 C 827.2 362.3 830.7 367.0 830.7 376.2 C 830.7 385.5 827.2 390.2 822.1 390.8 L 822.1 389.4 C 825.6 388.8 828.1 384.6 828.1 376.2 " fill="#000000"></path></g></g><text xml:space="preserve" font-family="FiraSans-Light,Fira Sans" font-size="52.2" fill="#20313F" transform="matrix(1.00, 0.00, -0.00, -1.00, 54.0, 667.1)">B</text><text xml:space="preserve" font-family="FiraSans-Light,Fira Sans" font-size="52.2" fill="#20313F" transform="matrix(1.00, 0.00, -0.00, -1.00, 85.2, 667.1)">l</text><text xml:space="preserve" font-family="FiraSans-Light,Fira Sans" font-size="52.2" fill="#20313F" transform="matrix(1.00, 0.00, -0.00, -1.00, 100.0, 667.1)">a</text><text xml:space="preserve" font-family="FiraSans-Light,Fira Sans" font-size="52.2" fill="#20313F" transform="matrix(1.00, 0.00, -0.00, -1.00, 128.0, 667.1)">c</text><text xml:space="preserve" font-family="FiraSans-Light,Fira Sans" font-size="52.2" fill="#20313F" transform="matrix(1.00, 0.00, -0.00, -1.00, 152.5, 667.1)">k</text><text xml:space="preserve" font-family="FiraSans-Light,Fira Sans" font-size="52.2" fill="#20313F" transform="matrix(1.00, 0.00, -0.00, -1.00, 178.0, 667.1)"> </text><text xml:space="preserve" font-family="FiraSans-Light,Fira Sans" font-size="52.2" fill="#20313F" transform="matrix(1.00, 0.00, -0.00, -1.00, 192.5, 667.1)">B</text><text xml:space="preserve" font-family="FiraSans-Light,Fira Sans" font-size="52.2" fill="#20313F" transform="matrix(1.00, 0.00, -0.00, -1.00, 223.8, 667.1)">o</text><text xml:space="preserve" font-family="FiraSans-Light,Fira Sans" font-size="52.2" fill="#20313F" transform="matrix(1.00, 0.00, -0.00, -1.00, 252.5, 667.1)">x</text><text xml:space="preserve" font-family="FiraSans-Light,Fira Sans" font-size="52.2" fill="#20313F" transform="matrix(1.00, 0.00, -0.00, -1.00, 276.5, 667.1)"> </text><text xml:space="preserve" font-family="FiraSans-Light,Fira Sans" font-size="52.2" fill="#20313F" transform="matrix(1.00, 0.00, -0.00, -1.00, 291.0, 667.1)">S</text><text xml:space="preserve" font-family="FiraSans-Light,Fira Sans" font-size="52.2" fill="#20313F" transform="matrix(1.00, 0.00, -0.00, -1.00, 319.2, 667.1)">t</text><text xml:space="preserve" font-family="FiraSans-Light,Fira Sans" font-size="52.2" fill="#20313F" transform="matrix(1.00, 0.00, -0.00, -1.00, 336.5, 667.1)">o</text><text xml:space="preserve" font-family="FiraSans-Light,Fira Sans" font-size="52.2" fill="#20313F" transform="matrix(1.00, 0.00, -0.00, -1.00, 366.3, 667.1)">c</text><text xml:space="preserve" font-family="FiraSans-Light,Fira Sans" font-size="52.2" fill="#20313F" transform="matrix(1.00, 0.00, -0.00, -1.00, 390.7, 667.1)">h</text><text xml:space="preserve" font-family="FiraSans-Light,Fira Sans" font-size="52.2" fill="#20313F" transform="matrix(1.00, 0.00, -0.00, -1.00, 421.2, 667.1)">a</text><text xml:space="preserve" font-family="FiraSans-Light,Fira Sans" font-size="52.2" fill="#20313F" transform="matrix(1.00, 0.00, -0.00, -1.00, 449.2, 667.1)">s</text><text xml:space="preserve" font-family="FiraSans-Light,Fira Sans" font-size="52.2" fill="#20313F" transform="matrix(1.00, 0.00, -0.00, -1.00, 473.4, 667.1)">t</text><text xml:space="preserve" font-family="FiraSans-Light,Fira Sans" font-size="52.2" fill="#20313F" transform="matrix(1.00, 0.00, -0.00, -1.00, 491.2, 667.1)">i</text><text xml:space="preserve" font-family="FiraSans-Light,Fira Sans" font-size="52.2" fill="#20313F" transform="matrix(1.00, 0.00, -0.00, -1.00, 505.3, 667.1)">c</text><text xml:space="preserve" font-family="FiraSans-Light,Fira Sans" font-size="52.2" fill="#20313F" transform="matrix(1.00, 0.00, -0.00, -1.00, 529.8, 667.1)"> </text><text xml:space="preserve" font-family="FiraSans-Light,Fira Sans" font-size="52.2" fill="#20313F" transform="matrix(1.00, 0.00, -0.00, -1.00, 544.4, 667.1)">G</text><text xml:space="preserve" font-family="FiraSans-Light,Fira Sans" font-size="52.2" fill="#20313F" transform="matrix(1.00, 0.00, -0.00, -1.00, 576.6, 667.1)">r</text><text xml:space="preserve" font-family="FiraSans-Light,Fira Sans" font-size="52.2" fill="#20313F" transform="matrix(1.00, 0.00, -0.00, -1.00, 595.1, 667.1)">a</text><text xml:space="preserve" font-family="FiraSans-Light,Fira Sans" font-size="52.2" fill="#20313F" transform="matrix(1.00, 0.00, -0.00, -1.00, 623.0, 667.1)">d</text><text xml:space="preserve" font-family="FiraSans-Light,Fira Sans" font-size="52.2" fill="#20313F" transform="matrix(1.00, 0.00, -0.00, -1.00, 653.6, 667.1)">i</text><text xml:space="preserve" font-family="FiraSans-Light,Fira Sans" font-size="52.2" fill="#20313F" transform="matrix(1.00, 0.00, -0.00, -1.00, 667.7, 667.1)">e</text><text xml:space="preserve" font-family="FiraSans-Light,Fira Sans" font-size="52.2" fill="#20313F" transform="matrix(1.00, 0.00, -0.00, -1.00, 695.7, 667.1)">n</text><text xml:space="preserve" font-family="FiraSans-Light,Fira Sans" font-size="52.2" fill="#20313F" transform="matrix(1.00, 0.00, -0.00, -1.00, 726.2, 667.1)">t</text><text xml:space="preserve" font-family="FiraSans-Light,Fira Sans" font-size="52.2" fill="#20313F" transform="matrix(1.00, 0.00, -0.00, -1.00, 744.0, 667.1)"> </text><text xml:space="preserve" font-family="FiraSans-Light,Fira Sans" font-size="52.2" fill="#20313F" transform="matrix(1.00, 0.00, -0.00, -1.00, 758.6, 667.1)">M</text><text xml:space="preserve" font-family="FiraSans-Light,Fira Sans" font-size="52.2" fill="#20313F" transform="matrix(1.00, 0.00, -0.00, -1.00, 798.9, 667.1)">e</text><text xml:space="preserve" font-family="FiraSans-Light,Fira Sans" font-size="52.2" fill="#20313F" transform="matrix(1.00, 0.00, -0.00, -1.00, 827.0, 667.1)">t</text><text xml:space="preserve" font-family="FiraSans-Light,Fira Sans" font-size="52.2" fill="#20313F" transform="matrix(1.00, 0.00, -0.00, -1.00, 844.8, 667.1)">h</text><text xml:space="preserve" font-family="FiraSans-Light,Fira Sans" font-size="52.2" fill="#20313F" transform="matrix(1.00, 0.00, -0.00, -1.00, 875.3, 667.1)">o</text><text xml:space="preserve" font-family="FiraSans-Light,Fira Sans" font-size="52.2" fill="#20313F" transform="matrix(1.00, 0.00, -0.00, -1.00, 905.1, 667.1)">d</text><text xml:space="preserve" font-family="FiraSans-Light,Fira Sans" font-size="52.2" fill="#20313F" transform="matrix(1.00, 0.00, -0.00, -1.00, 935.7, 667.1)">s</text></g></svg>