<?xml version="1.0" encoding="UTF-8" standalone="no"?><svg xmlns="http://www.w3.org/2000/svg" xmlns:xlink="http://www.w3.org/1999/xlink" clip-rule="evenodd" stroke-miterlimit="10" viewBox="0 0 1024 768"><desc>SVG generated by Keynote</desc><defs><linearGradient id="gradSh1.178" x1="0.0" y1="0.0" x2="100.0" y2="0.0" gradientUnits="userSpaceOnUse" gradientTransform="matrix(0.00, -7.70, -10.26, 0.00, 512.0, 769.0)"><stop offset="0.00000" stop-color="#FFFFFF"></stop><stop offset="0.01979" stop-color="#FEFFFF"></stop><stop offset="1.00000" stop-color="#E5F3FF"></stop></linearGradient></defs><g transform="matrix(1.00, 0.00, -0.00, -1.00, 0.0, 768.0)"><g><clipPath id="clip0x6100178a7680"><path d="M 0.0 768.0 L 1024.0 768.0 L 1024.0 0.0 L 0.0 0.0 Z M 0.0 768.0 "></path></clipPath><g clip-path="url(#clip0x6100178a7680)"><path d="M 0.0 768.0 L 1024.0 768.0 L 1024.0 0.0 L 0.0 0.0 Z M 0.0 768.0 " fill="url(#gradSh1.178)"></path></g></g><text xml:space="preserve" font-family="FiraSans-Light,Fira Sans" font-size="80.0" fill="#20313F" transform="matrix(1.00, 0.00, -0.00, -1.00, 261.8, 362.0)">D</text><text xml:space="preserve" font-family="FiraSans-Light,Fira Sans" font-size="80.0" fill="#20313F" transform="matrix(1.00, 0.00, -0.00, -1.00, 311.6, 362.0)">A</text><text xml:space="preserve" font-family="FiraSans-Light,Fira Sans" font-size="80.0" fill="#20313F" transform="matrix(1.00, 0.00, -0.00, -1.00, 354.4, 362.0)">T</text><text xml:space="preserve" font-family="FiraSans-Light,Fira Sans" font-size="80.0" fill="#20313F" transform="matrix(1.00, 0.00, -0.00, -1.00, 390.8, 362.0)">A</text><text xml:space="preserve" font-family="FiraSans-Light,Fira Sans" font-size="80.0" fill="#20313F" transform="matrix(1.00, 0.00, -0.00, -1.00, 437.6, 362.0)"> </text><text xml:space="preserve" font-family="FiraSans-Light,Fira Sans" font-size="80.0" fill="#20313F" transform="matrix(1.00, 0.00, -0.00, -1.00, 461.5, 362.0)">S</text><text xml:space="preserve" font-family="FiraSans-Light,Fira Sans" font-size="80.0" fill="#20313F" transform="matrix(1.00, 0.00, -0.00, -1.00, 506.2, 362.0)">C</text><text xml:space="preserve" font-family="FiraSans-Light,Fira Sans" font-size="80.0" fill="#20313F" transform="matrix(1.00, 0.00, -0.00, -1.00, 551.8, 362.0)">I</text><text xml:space="preserve" font-family="FiraSans-Light,Fira Sans" font-size="80.0" fill="#20313F" transform="matrix(1.00, 0.00, -0.00, -1.00, 576.0, 362.0)">E</text><text xml:space="preserve" font-family="FiraSans-Light,Fira Sans" font-size="80.0" fill="#20313F" transform="matrix(1.00, 0.00, -0.00, -1.00, 618.6, 362.0)">N</text><text xml:space="preserve" font-family="FiraSans-Light,Fira Sans" font-size="80.0" fill="#20313F" transform="matrix(1.00, 0.00, -0.00, -1.00, 674.0, 362.0)">C</text><text xml:space="preserve" font-family="FiraSans-Light,Fira Sans" font-size="80.0" fill="#20313F" transform="matrix(1.00, 0.00, -0.00, -1.00, 719.6, 362.0)">E</text></g></svg>