<?xml version="1.0" encoding="UTF-8" standalone="no"?><svg xmlns="http://www.w3.org/2000/svg" xmlns:xlink="http://www.w3.org/1999/xlink" clip-rule="evenodd" stroke-miterlimit="10" viewBox="0 0 1024 768"><desc>SVG generated by Keynote</desc><defs><linearGradient id="gradSh1.10" x1="0.0" y1="0.0" x2="100.0" y2="0.0" gradientUnits="userSpaceOnUse" gradientTransform="matrix(0.00, -7.70, -10.26, 0.00, 512.0, 769.0)"><stop offset="0.00000" stop-color="#FFFFFF"></stop><stop offset="0.01906" stop-color="#FEFFFF"></stop><stop offset="1.00000" stop-color="#E5F3FF"></stop></linearGradient></defs><g transform="matrix(1.00, 0.00, -0.00, -1.00, 0.0, 768.0)"><g><clipPath id="clip0x600004ebd2e0"><path d="M 0.0 768.0 L 1024.0 768.0 L 1024.0 0.0 L 0.0 0.0 Z M 0.0 768.0 "></path></clipPath><g clip-path="url(#clip0x600004ebd2e0)"><path d="M 0.0 768.0 L 1024.0 768.0 L 1024.0 0.0 L 0.0 0.0 Z M 0.0 768.0 " fill="url(#gradSh1.10)"></path></g></g><image xlink:href="../../642125CA-93EC-4DDA-A29D-60A09668452F/assets/976550CCCFDA4AD8E69159162C37C99E.png" width="1264.00" height="820.00" transform="matrix(0.23, 0.00, -0.00, -0.23, 722.3, 484.9)"></image><image xlink:href="../../642125CA-93EC-4DDA-A29D-60A09668452F/assets/CD5A6E07007E4CA9E2C528A38333D1EA.png" width="296.00" height="198.00" transform="matrix(1.00, 0.00, -0.00, 1.00, 719.3, 288.7)"></image><g><clipPath id="clip0x6100024b5420"><path d="M 18.0 484.0 L 308.0 484.0 L 308.0 298.0 L 18.0 298.0 Z M 17.8 483.7 "></path></clipPath><g clip-path="url(#clip0x6100024b5420)"><image xlink:href="../../642125CA-93EC-4DDA-A29D-60A09668452F/assets/613F17CF48587FA4C2735A7C3CE8B104.png" width="1242.00" height="826.00" transform="matrix(0.23, 0.00, -0.00, -0.23, 17.8, 490.8)"></image></g></g><image xlink:href="../../642125CA-93EC-4DDA-A29D-60A09668452F/assets/3C7E6A090590938978B6A7A8B7D293A3.png" width="296.00" height="196.00" transform="matrix(1.00, 0.00, -0.00, 1.00, 14.8, 289.9)"></image><image xlink:href="../../642125CA-93EC-4DDA-A29D-60A09668452F/assets/D08A4077831FCBAB2AB57FCFA79C130F.png" width="1252.00" height="794.00" transform="matrix(0.23, 0.00, -0.00, -0.23, 367.0, 482.7)"></image><image xlink:href="../../642125CA-93EC-4DDA-A29D-60A09668452F/assets/F91FDD21409FF031F8756CFC3FD7CE9F.png" width="296.00" height="194.00" transform="matrix(1.00, 0.00, -0.00, 1.00, 364.0, 290.8)"></image><path d="M 59.5 5.2 C 73.1 12.2 73.1 23.5 59.5 30.4 C 45.9 37.4 23.8 37.4 10.2 30.4 C -3.4 23.5 -3.4 12.2 10.2 5.2 C 23.8 -1.7 45.9 -1.7 59.5 5.2 Z M 59.5 5.2 " fill="none" stroke="#54A800" stroke-width="2.00" transform="matrix(0.69, -0.72, -0.72, -0.69, 775.0, 466.0)"></path><path d="M 64.6 5.7 C 79.4 13.2 79.4 25.5 64.6 33.1 C 49.8 40.6 25.9 40.6 11.1 33.1 C -3.7 25.5 -3.7 13.2 11.1 5.7 C 25.9 -1.9 49.8 -1.9 64.6 5.7 Z M 64.6 5.7 " fill="none" stroke="#7F007D" stroke-width="2.00" transform="matrix(-0.91, 0.42, 0.42, 0.91, 862.4, 359.7)"></path><path d="M 64.6 3.3 C 79.4 7.6 79.4 14.7 64.6 19.0 C 49.8 23.4 25.9 23.4 11.1 19.0 C -3.7 14.7 -3.7 7.6 11.1 3.3 C 25.9 -1.1 49.8 -1.1 64.6 3.3 Z M 64.6 3.3 " fill="none" stroke="#0F6DD5" stroke-width="2.00" transform="matrix(0.90, 0.43, 0.43, -0.90, 928.3, 347.7)"></path><path d="M 127.2 3.3 C 156.3 7.7 156.3 14.8 127.2 19.2 C 98.1 23.6 50.9 23.6 21.8 19.2 C -7.3 14.8 -7.3 7.7 21.8 3.3 C 50.9 -1.1 98.1 -1.1 127.2 3.3 Z M 127.2 3.3 " fill="none" stroke="#54A800" stroke-width="2.00" transform="matrix(0.55, 0.83, 0.83, -0.55, 432.4, 334.2)"></path><path d="M 97.0 8.5 C 119.2 19.9 119.2 38.3 97.0 49.6 C 74.8 61.0 38.8 61.0 16.6 49.6 C -5.5 38.3 -5.5 19.9 16.6 8.5 C 38.8 -2.8 74.8 -2.8 97.0 8.5 Z M 97.0 8.5 " fill="none" stroke="#7F007D" stroke-width="2.00" transform="matrix(0.83, 0.55, 0.55, -0.83, 379.3, 382.7)"></path><path d="M 189.9 4.6 C 233.3 10.8 233.3 20.7 189.9 26.9 C 146.4 33.0 76.0 33.0 32.6 26.9 C -10.9 20.7 -10.9 10.8 32.6 4.6 C 76.0 -1.5 146.4 -1.5 189.9 4.6 Z M 189.9 4.6 " fill="none" stroke="#0F6DD5" stroke-width="2.00" transform="matrix(0.99, 0.11, 0.11, -0.99, 426.1, 377.7)"></path><image xlink:href="6BFE0B35B13DE1B881DE0A22B90E7BEF.png" width="197.00" height="94.00" transform="matrix(1.00, 0.00, -0.00, -1.00, 413.4, 180.0)" opacity="0.50"></image><path d="M 421.4 115.1 L 421.0 158.9 C 421.0 168.4 429.1 176.0 438.5 176.0 L 585.5 176.0 C 594.9 176.0 603.0 168.4 603.0 158.9 L 603.0 115.1 C 603.0 105.6 594.9 98.0 585.5 98.0 L 438.5 98.0 C 429.1 98.0 421.4 105.6 421.4 115.1 Z M 421.4 115.1 " fill="#FEFFFE"></path><g><clipPath id="clip0x6000054bd4c0"><path d="M 421.4 94.0 L 602.6 94.0 L 602.6 179.2 L 421.4 179.2 Z M 421.4 94.0 "></path></clipPath><g clip-path="url(#clip0x6000054bd4c0)"><text xml:space="preserve" font-family="FiraSans-Regular,Fira Sans" font-size="24.0" fill="#20313F" transform="matrix(1.00, 0.00, -0.00, -1.00, 461.7, 144.9)">M</text><text xml:space="preserve" font-family="FiraSans-Regular,Fira Sans" font-size="24.0" fill="#20313F" transform="matrix(1.00, 0.00, -0.00, -1.00, 480.7, 144.9)">o</text><text xml:space="preserve" font-family="FiraSans-Regular,Fira Sans" font-size="24.0" fill="#20313F" transform="matrix(1.00, 0.00, -0.00, -1.00, 494.7, 144.9)">d</text><text xml:space="preserve" font-family="FiraSans-Regular,Fira Sans" font-size="24.0" fill="#20313F" transform="matrix(1.00, 0.00, -0.00, -1.00, 508.8, 144.9)">e</text><text xml:space="preserve" font-family="FiraSans-Regular,Fira Sans" font-size="24.0" fill="#20313F" transform="matrix(1.00, 0.00, -0.00, -1.00, 522.0, 144.9)">l</text><text xml:space="preserve" font-family="FiraSans-Regular,Fira Sans" font-size="24.0" fill="#20313F" transform="matrix(1.00, 0.00, -0.00, -1.00, 529.0, 144.9)">i</text><text xml:space="preserve" font-family="FiraSans-Regular,Fira Sans" font-size="24.0" fill="#20313F" transform="matrix(1.00, 0.00, -0.00, -1.00, 535.8, 144.9)">n</text><text xml:space="preserve" font-family="FiraSans-Regular,Fira Sans" font-size="24.0" fill="#20313F" transform="matrix(1.00, 0.00, -0.00, -1.00, 549.8, 144.9)">g</text><text xml:space="preserve" font-family="FiraSans-Regular,Fira Sans" font-size="24.0" fill="#20313F" transform="matrix(1.00, 0.00, -0.00, -1.00, 562.3, 144.9)"> </text><text xml:space="preserve" font-family="FiraSans-Regular,Fira Sans" font-size="24.0" fill="#20313F" transform="matrix(1.00, 0.00, -0.00, -1.00, 460.1, 115.3)">L</text><text xml:space="preserve" font-family="FiraSans-Regular,Fira Sans" font-size="24.0" fill="#20313F" transform="matrix(1.00, 0.00, -0.00, -1.00, 472.0, 115.3)">a</text><text xml:space="preserve" font-family="FiraSans-Regular,Fira Sans" font-size="24.0" fill="#20313F" transform="matrix(1.00, 0.00, -0.00, -1.00, 485.1, 115.3)">n</text><text xml:space="preserve" font-family="FiraSans-Regular,Fira Sans" font-size="24.0" fill="#20313F" transform="matrix(1.00, 0.00, -0.00, -1.00, 499.1, 115.3)">g</text><text xml:space="preserve" font-family="FiraSans-Regular,Fira Sans" font-size="24.0" fill="#20313F" transform="matrix(1.00, 0.00, -0.00, -1.00, 511.6, 115.3)">u</text><text xml:space="preserve" font-family="FiraSans-Regular,Fira Sans" font-size="24.0" fill="#20313F" transform="matrix(1.00, 0.00, -0.00, -1.00, 525.6, 115.3)">a</text><text xml:space="preserve" font-family="FiraSans-Regular,Fira Sans" font-size="24.0" fill="#20313F" transform="matrix(1.00, 0.00, -0.00, -1.00, 538.6, 115.3)">g</text><text xml:space="preserve" font-family="FiraSans-Regular,Fira Sans" font-size="24.0" fill="#20313F" transform="matrix(1.00, 0.00, -0.00, -1.00, 550.7, 115.3)">e</text></g></g><image xlink:href="ED94D2189CD16FB304F4F36F6DA9A08E.png" width="197.00" height="94.00" transform="matrix(1.00, 0.00, -0.00, -1.00, 768.7, 180.0)" opacity="0.50"></image><path d="M 776.7 115.1 L 777.0 158.9 C 777.0 168.4 784.4 176.0 793.9 176.0 L 940.8 176.0 C 950.2 176.0 958.0 168.4 958.0 158.9 L 958.0 115.1 C 958.0 105.6 950.2 98.0 940.8 98.0 L 793.9 98.0 C 784.4 98.0 776.7 105.6 776.7 115.1 Z M 776.7 115.1 " fill="#FEFFFE"></path><g><clipPath id="clip0x6100026b27e0"><path d="M 776.7 94.0 L 957.9 94.0 L 957.9 179.2 L 776.7 179.2 Z M 776.7 94.0 "></path></clipPath><g clip-path="url(#clip0x6100026b27e0)"><text xml:space="preserve" font-family="FiraSans-Regular,Fira Sans" font-size="24.0" fill="#20313F" transform="matrix(1.00, 0.00, -0.00, -1.00, 815.9, 144.9)">I</text><text xml:space="preserve" font-family="FiraSans-Regular,Fira Sans" font-size="24.0" fill="#20313F" transform="matrix(1.00, 0.00, -0.00, -1.00, 823.0, 144.9)">n</text><text xml:space="preserve" font-family="FiraSans-Regular,Fira Sans" font-size="24.0" fill="#20313F" transform="matrix(1.00, 0.00, -0.00, -1.00, 837.0, 144.9)">f</text><text xml:space="preserve" font-family="FiraSans-Regular,Fira Sans" font-size="24.0" fill="#20313F" transform="matrix(1.00, 0.00, -0.00, -1.00, 844.8, 144.9)">e</text><text xml:space="preserve" font-family="FiraSans-Regular,Fira Sans" font-size="24.0" fill="#20313F" transform="matrix(1.00, 0.00, -0.00, -1.00, 858.0, 144.9)">r</text><text xml:space="preserve" font-family="FiraSans-Regular,Fira Sans" font-size="24.0" fill="#20313F" transform="matrix(1.00, 0.00, -0.00, -1.00, 867.1, 144.9)">e</text><text xml:space="preserve" font-family="FiraSans-Regular,Fira Sans" font-size="24.0" fill="#20313F" transform="matrix(1.00, 0.00, -0.00, -1.00, 880.3, 144.9)">n</text><text xml:space="preserve" font-family="FiraSans-Regular,Fira Sans" font-size="24.0" fill="#20313F" transform="matrix(1.00, 0.00, -0.00, -1.00, 894.3, 144.9)">c</text><text xml:space="preserve" font-family="FiraSans-Regular,Fira Sans" font-size="24.0" fill="#20313F" transform="matrix(1.00, 0.00, -0.00, -1.00, 905.6, 144.9)">e</text><text xml:space="preserve" font-family="FiraSans-Regular,Fira Sans" font-size="24.0" fill="#20313F" transform="matrix(1.00, 0.00, -0.00, -1.00, 918.8, 144.9)"> </text><text xml:space="preserve" font-family="FiraSans-Regular,Fira Sans" font-size="24.0" fill="#20313F" transform="matrix(1.00, 0.00, -0.00, -1.00, 817.8, 115.3)">B</text><text xml:space="preserve" font-family="FiraSans-Regular,Fira Sans" font-size="24.0" fill="#20313F" transform="matrix(1.00, 0.00, -0.00, -1.00, 832.4, 115.3)">a</text><text xml:space="preserve" font-family="FiraSans-Regular,Fira Sans" font-size="24.0" fill="#20313F" transform="matrix(1.00, 0.00, -0.00, -1.00, 845.4, 115.3)">c</text><text xml:space="preserve" font-family="FiraSans-Regular,Fira Sans" font-size="24.0" fill="#20313F" transform="matrix(1.00, 0.00, -0.00, -1.00, 856.9, 115.3)">k</text><text xml:space="preserve" font-family="FiraSans-Regular,Fira Sans" font-size="24.0" fill="#20313F" transform="matrix(1.00, 0.00, -0.00, -1.00, 869.2, 115.3)"> </text><text xml:space="preserve" font-family="FiraSans-Regular,Fira Sans" font-size="24.0" fill="#20313F" transform="matrix(1.00, 0.00, -0.00, -1.00, 875.6, 115.3)">E</text><text xml:space="preserve" font-family="FiraSans-Regular,Fira Sans" font-size="24.0" fill="#20313F" transform="matrix(1.00, 0.00, -0.00, -1.00, 888.4, 115.3)">n</text><text xml:space="preserve" font-family="FiraSans-Regular,Fira Sans" font-size="24.0" fill="#20313F" transform="matrix(1.00, 0.00, -0.00, -1.00, 902.5, 115.3)">d</text></g></g><path d="M 0.0 0.0 C 57.5 15.6 113.1 17.5 166.8 6.0 L 169.4 6.0 " fill="none" stroke="#54A800" stroke-width="6.00" transform="matrix(1.00, 0.00, 0.00, -1.00, 598.6, 104.0)"></path><path d="M 762.1 84.2 L 782.6 101.5 L 756.4 107.6 L 765.1 97.3 Z M 762.1 84.2 " fill="#54A800"></path><path d="M 190.6 14.3 C 133.8 -3.3 76.0 -4.7 17.3 10.3 L 14.0 11.3 " fill="none" stroke="#7D0000" stroke-width="6.00" transform="matrix(1.00, 0.00, 0.00, -1.00, 595.0, 188.3)"></path><path d="M 614.4 191.0 L 594.6 172.9 L 620.9 167.9 L 611.9 177.8 Z M 614.4 191.0 " fill="#7D0000"></path><image xlink:href="../../F2828908-9554-4CCB-A2B3-E48A727B0C6E/assets/6BFE0B35B13DE1B881DE0A22B90E7BEF.png" width="197.00" height="94.00" transform="matrix(1.00, 0.00, -0.00, -1.00, 63.4, 180.0)" opacity="0.50"></image><path d="M 71.4 115.1 L 71.0 158.9 C 71.0 168.4 79.1 176.0 88.5 176.0 L 235.5 176.0 C 244.9 176.0 253.0 168.4 253.0 158.9 L 253.0 115.1 C 253.0 105.6 244.9 98.0 235.5 98.0 L 88.5 98.0 C 79.1 98.0 71.4 105.6 71.4 115.1 Z M 71.4 115.1 " fill="#FEFFFE"></path><g><clipPath id="clip0x6100026accc0"><path d="M 71.4 94.0 L 252.6 94.0 L 252.6 179.2 L 71.4 179.2 Z M 71.4 94.0 "></path></clipPath><g clip-path="url(#clip0x6100026accc0)"><text xml:space="preserve" font-family="FiraSans-Regular,Fira Sans" font-size="24.0" fill="#20313F" transform="matrix(1.00, 0.00, -0.00, -1.00, 105.9, 144.9)">P</text><text xml:space="preserve" font-family="FiraSans-Regular,Fira Sans" font-size="24.0" fill="#20313F" transform="matrix(1.00, 0.00, -0.00, -1.00, 119.8, 144.9)">r</text><text xml:space="preserve" font-family="FiraSans-Regular,Fira Sans" font-size="24.0" fill="#20313F" transform="matrix(1.00, 0.00, -0.00, -1.00, 128.8, 144.9)">e</text><text xml:space="preserve" font-family="FiraSans-Regular,Fira Sans" font-size="24.0" fill="#20313F" transform="matrix(1.00, 0.00, -0.00, -1.00, 142.0, 144.9)">d</text><text xml:space="preserve" font-family="FiraSans-Regular,Fira Sans" font-size="24.0" fill="#20313F" transform="matrix(1.00, 0.00, -0.00, -1.00, 156.4, 144.9)">i</text><text xml:space="preserve" font-family="FiraSans-Regular,Fira Sans" font-size="24.0" fill="#20313F" transform="matrix(1.00, 0.00, -0.00, -1.00, 163.2, 144.9)">c</text><text xml:space="preserve" font-family="FiraSans-Regular,Fira Sans" font-size="24.0" fill="#20313F" transform="matrix(1.00, 0.00, -0.00, -1.00, 174.6, 144.9)">t</text><text xml:space="preserve" font-family="FiraSans-Regular,Fira Sans" font-size="24.0" fill="#20313F" transform="matrix(1.00, 0.00, -0.00, -1.00, 183.3, 144.9)">i</text><text xml:space="preserve" font-family="FiraSans-Regular,Fira Sans" font-size="24.0" fill="#20313F" transform="matrix(1.00, 0.00, -0.00, -1.00, 190.1, 144.9)">o</text><text xml:space="preserve" font-family="FiraSans-Regular,Fira Sans" font-size="24.0" fill="#20313F" transform="matrix(1.00, 0.00, -0.00, -1.00, 204.1, 144.9)">n</text><text xml:space="preserve" font-family="FiraSans-Regular,Fira Sans" font-size="24.0" fill="#20313F" transform="matrix(1.00, 0.00, -0.00, -1.00, 218.1, 144.9)"> </text><text xml:space="preserve" font-family="FiraSans-Regular,Fira Sans" font-size="24.0" fill="#20313F" transform="matrix(1.00, 0.00, -0.00, -1.00, 138.5, 115.3)">T</text><text xml:space="preserve" font-family="FiraSans-Regular,Fira Sans" font-size="24.0" fill="#20313F" transform="matrix(1.00, 0.00, -0.00, -1.00, 149.0, 115.3)">a</text><text xml:space="preserve" font-family="FiraSans-Regular,Fira Sans" font-size="24.0" fill="#20313F" transform="matrix(1.00, 0.00, -0.00, -1.00, 162.0, 115.3)">s</text><text xml:space="preserve" font-family="FiraSans-Regular,Fira Sans" font-size="24.0" fill="#20313F" transform="matrix(1.00, 0.00, -0.00, -1.00, 173.2, 115.3)">k</text></g></g><path d="M 0.0 0.0 C 55.9 15.2 109.9 17.8 162.0 6.8 L 164.7 5.8 " fill="none" stroke="#54A800" stroke-width="6.00" transform="matrix(1.00, 0.00, 0.00, -1.00, 248.3, 103.8)"></path><path d="M 407.1 84.2 L 427.6 101.5 L 401.4 107.6 L 410.1 97.3 Z M 407.1 84.2 " fill="#54A800"></path><path d="M 186.2 14.1 C 130.7 -3.2 74.5 -4.3 17.3 10.3 L 14.4 11.3 " fill="none" stroke="#7D0000" stroke-width="6.00" transform="matrix(1.00, 0.00, 0.00, -1.00, 244.6, 188.3)"></path><path d="M 264.4 191.0 L 244.6 172.9 L 270.9 167.9 L 261.9 177.8 Z M 264.4 191.0 " fill="#7D0000"></path><path d="M -0.1 -0.1 L 195.9 -0.1 " fill="none" stroke="#003F7F" stroke-width="4.00" stroke-dasharray="4.0, 4.0" transform="matrix(0.00, 1.00, 1.00, 0.00, 693.1, 20.1)"></path><text xml:space="preserve" font-family="FiraSans-Light,Fira Sans" font-size="60.0" fill="#20313F" transform="matrix(1.00, 0.00, -0.00, -1.00, 136.5, 665.0)">M</text><text xml:space="preserve" font-family="FiraSans-Light,Fira Sans" font-size="60.0" fill="#20313F" transform="matrix(1.00, 0.00, -0.00, -1.00, 182.9, 665.0)">o</text><text xml:space="preserve" font-family="FiraSans-Light,Fira Sans" font-size="60.0" fill="#20313F" transform="matrix(1.00, 0.00, -0.00, -1.00, 217.1, 665.0)">d</text><text xml:space="preserve" font-family="FiraSans-Light,Fira Sans" font-size="60.0" fill="#20313F" transform="matrix(1.00, 0.00, -0.00, -1.00, 251.6, 665.0)">e</text><text xml:space="preserve" font-family="FiraSans-Light,Fira Sans" font-size="60.0" fill="#20313F" transform="matrix(1.00, 0.00, -0.00, -1.00, 283.9, 665.0)">l</text><text xml:space="preserve" font-family="FiraSans-Light,Fira Sans" font-size="60.0" fill="#20313F" transform="matrix(1.00, 0.00, -0.00, -1.00, 301.0, 665.0)">s</text><text xml:space="preserve" font-family="FiraSans-Light,Fira Sans" font-size="60.0" fill="#20313F" transform="matrix(1.00, 0.00, -0.00, -1.00, 328.8, 665.0)"> </text><text xml:space="preserve" font-family="FiraSans-Light,Fira Sans" font-size="60.0" fill="#20313F" transform="matrix(1.00, 0.00, -0.00, -1.00, 345.5, 665.0)">i</text><text xml:space="preserve" font-family="FiraSans-Light,Fira Sans" font-size="60.0" fill="#20313F" transform="matrix(1.00, 0.00, -0.00, -1.00, 361.7, 665.0)">n</text><text xml:space="preserve" font-family="FiraSans-Light,Fira Sans" font-size="60.0" fill="#20313F" transform="matrix(1.00, 0.00, -0.00, -1.00, 396.8, 665.0)"> </text><text xml:space="preserve" font-family="FiraSans-Light,Fira Sans" font-size="60.0" fill="#20313F" transform="matrix(1.00, 0.00, -0.00, -1.00, 413.5, 665.0)">M</text><text xml:space="preserve" font-family="FiraSans-Light,Fira Sans" font-size="60.0" fill="#20313F" transform="matrix(1.00, 0.00, -0.00, -1.00, 460.2, 665.0)">a</text><text xml:space="preserve" font-family="FiraSans-Light,Fira Sans" font-size="60.0" fill="#20313F" transform="matrix(1.00, 0.00, -0.00, -1.00, 492.4, 665.0)">c</text><text xml:space="preserve" font-family="FiraSans-Light,Fira Sans" font-size="60.0" fill="#20313F" transform="matrix(1.00, 0.00, -0.00, -1.00, 520.5, 665.0)">h</text><text xml:space="preserve" font-family="FiraSans-Light,Fira Sans" font-size="60.0" fill="#20313F" transform="matrix(1.00, 0.00, -0.00, -1.00, 555.5, 665.0)">i</text><text xml:space="preserve" font-family="FiraSans-Light,Fira Sans" font-size="60.0" fill="#20313F" transform="matrix(1.00, 0.00, -0.00, -1.00, 571.7, 665.0)">n</text><text xml:space="preserve" font-family="FiraSans-Light,Fira Sans" font-size="60.0" fill="#20313F" transform="matrix(1.00, 0.00, -0.00, -1.00, 606.8, 665.0)">e</text><text xml:space="preserve" font-family="FiraSans-Light,Fira Sans" font-size="60.0" fill="#20313F" transform="matrix(1.00, 0.00, -0.00, -1.00, 639.1, 665.0)"> </text><text xml:space="preserve" font-family="FiraSans-Light,Fira Sans" font-size="60.0" fill="#20313F" transform="matrix(1.00, 0.00, -0.00, -1.00, 655.8, 665.0)">L</text><text xml:space="preserve" font-family="FiraSans-Light,Fira Sans" font-size="60.0" fill="#20313F" transform="matrix(1.00, 0.00, -0.00, -1.00, 684.2, 665.0)">e</text><text xml:space="preserve" font-family="FiraSans-Light,Fira Sans" font-size="60.0" fill="#20313F" transform="matrix(1.00, 0.00, -0.00, -1.00, 716.5, 665.0)">a</text><text xml:space="preserve" font-family="FiraSans-Light,Fira Sans" font-size="60.0" fill="#20313F" transform="matrix(1.00, 0.00, -0.00, -1.00, 748.7, 665.0)">r</text><text xml:space="preserve" font-family="FiraSans-Light,Fira Sans" font-size="60.0" fill="#20313F" transform="matrix(1.00, 0.00, -0.00, -1.00, 771.0, 665.0)">n</text><text xml:space="preserve" font-family="FiraSans-Light,Fira Sans" font-size="60.0" fill="#20313F" transform="matrix(1.00, 0.00, -0.00, -1.00, 806.1, 665.0)">i</text><text xml:space="preserve" font-family="FiraSans-Light,Fira Sans" font-size="60.0" fill="#20313F" transform="matrix(1.00, 0.00, -0.00, -1.00, 822.3, 665.0)">n</text><text xml:space="preserve" font-family="FiraSans-Light,Fira Sans" font-size="60.0" fill="#20313F" transform="matrix(1.00, 0.00, -0.00, -1.00, 857.3, 665.0)">g</text><text xml:space="preserve" font-family="FiraSans-Medium,Fira Sans" font-size="32.0" fill="#2A4054" transform="matrix(1.00, 0.00, -0.00, -1.00, 129.1, 579.7)">D</text><text xml:space="preserve" font-family="FiraSans-Medium,Fira Sans" font-size="32.0" fill="#2A4054" transform="matrix(1.00, 0.00, -0.00, -1.00, 149.6, 579.7)">a</text><text xml:space="preserve" font-family="FiraSans-Medium,Fira Sans" font-size="32.0" fill="#2A4054" transform="matrix(1.00, 0.00, -0.00, -1.00, 167.0, 579.7)">t</text><text xml:space="preserve" font-family="FiraSans-Medium,Fira Sans" font-size="32.0" fill="#2A4054" transform="matrix(1.00, 0.00, -0.00, -1.00, 179.0, 579.7)">a</text><text xml:space="preserve" font-family="FiraSans-Medium,Fira Sans" font-size="32.0" fill="#2A4054" transform="matrix(1.00, 0.00, -0.00, -1.00, 383.9, 579.7)">G</text><text xml:space="preserve" font-family="FiraSans-Medium,Fira Sans" font-size="32.0" fill="#2A4054" transform="matrix(1.00, 0.00, -0.00, -1.00, 404.3, 579.7)">e</text><text xml:space="preserve" font-family="FiraSans-Medium,Fira Sans" font-size="32.0" fill="#2A4054" transform="matrix(1.00, 0.00, -0.00, -1.00, 422.0, 579.7)">n</text><text xml:space="preserve" font-family="FiraSans-Medium,Fira Sans" font-size="32.0" fill="#2A4054" transform="matrix(1.00, 0.00, -0.00, -1.00, 440.6, 579.7)">e</text><text xml:space="preserve" font-family="FiraSans-Medium,Fira Sans" font-size="32.0" fill="#2A4054" transform="matrix(1.00, 0.00, -0.00, -1.00, 458.3, 579.7)">r</text><text xml:space="preserve" font-family="FiraSans-Medium,Fira Sans" font-size="32.0" fill="#2A4054" transform="matrix(1.00, 0.00, -0.00, -1.00, 470.2, 579.7)">a</text><text xml:space="preserve" font-family="FiraSans-Medium,Fira Sans" font-size="32.0" fill="#2A4054" transform="matrix(1.00, 0.00, -0.00, -1.00, 487.7, 579.7)">t</text><text xml:space="preserve" font-family="FiraSans-Medium,Fira Sans" font-size="32.0" fill="#2A4054" transform="matrix(1.00, 0.00, -0.00, -1.00, 499.7, 579.7)">i</text><text xml:space="preserve" font-family="FiraSans-Medium,Fira Sans" font-size="32.0" fill="#2A4054" transform="matrix(1.00, 0.00, -0.00, -1.00, 508.7, 579.7)">v</text><text xml:space="preserve" font-family="FiraSans-Medium,Fira Sans" font-size="32.0" fill="#2A4054" transform="matrix(1.00, 0.00, -0.00, -1.00, 524.5, 579.7)">e</text><text xml:space="preserve" font-family="FiraSans-Medium,Fira Sans" font-size="32.0" fill="#2A4054" transform="matrix(1.00, 0.00, -0.00, -1.00, 542.2, 579.7)"> </text><text xml:space="preserve" font-family="FiraSans-Medium,Fira Sans" font-size="32.0" fill="#2A4054" transform="matrix(1.00, 0.00, -0.00, -1.00, 550.2, 579.7)">M</text><text xml:space="preserve" font-family="FiraSans-Medium,Fira Sans" font-size="32.0" fill="#2A4054" transform="matrix(1.00, 0.00, -0.00, -1.00, 575.4, 579.7)">o</text><text xml:space="preserve" font-family="FiraSans-Medium,Fira Sans" font-size="32.0" fill="#2A4054" transform="matrix(1.00, 0.00, -0.00, -1.00, 594.1, 579.7)">d</text><text xml:space="preserve" font-family="FiraSans-Medium,Fira Sans" font-size="32.0" fill="#2A4054" transform="matrix(1.00, 0.00, -0.00, -1.00, 613.0, 579.7)">e</text><text xml:space="preserve" font-family="FiraSans-Medium,Fira Sans" font-size="32.0" fill="#2A4054" transform="matrix(1.00, 0.00, -0.00, -1.00, 630.6, 579.7)">l</text><text xml:space="preserve" font-family="FiraSans-Medium,Fira Sans" font-size="32.0" fill="#2A4054" transform="matrix(1.00, 0.00, -0.00, -1.00, 798.5, 579.7)">I</text><text xml:space="preserve" font-family="FiraSans-Medium,Fira Sans" font-size="32.0" fill="#2A4054" transform="matrix(1.00, 0.00, -0.00, -1.00, 807.9, 579.7)">n</text><text xml:space="preserve" font-family="FiraSans-Medium,Fira Sans" font-size="32.0" fill="#2A4054" transform="matrix(1.00, 0.00, -0.00, -1.00, 826.5, 579.7)">f</text><text xml:space="preserve" font-family="FiraSans-Medium,Fira Sans" font-size="32.0" fill="#2A4054" transform="matrix(1.00, 0.00, -0.00, -1.00, 837.3, 579.7)">e</text><text xml:space="preserve" font-family="FiraSans-Medium,Fira Sans" font-size="32.0" fill="#2A4054" transform="matrix(1.00, 0.00, -0.00, -1.00, 855.0, 579.7)">r</text><text xml:space="preserve" font-family="FiraSans-Medium,Fira Sans" font-size="32.0" fill="#2A4054" transform="matrix(1.00, 0.00, -0.00, -1.00, 867.2, 579.7)">e</text><text xml:space="preserve" font-family="FiraSans-Medium,Fira Sans" font-size="32.0" fill="#2A4054" transform="matrix(1.00, 0.00, -0.00, -1.00, 884.9, 579.7)">n</text><text xml:space="preserve" font-family="FiraSans-Medium,Fira Sans" font-size="32.0" fill="#2A4054" transform="matrix(1.00, 0.00, -0.00, -1.00, 903.5, 579.7)">c</text><text xml:space="preserve" font-family="FiraSans-Medium,Fira Sans" font-size="32.0" fill="#2A4054" transform="matrix(1.00, 0.00, -0.00, -1.00, 918.5, 579.7)">e</text><text xml:space="preserve" font-family="FiraSans-Light,Fira Sans" font-size="28.0" fill="#2A4054" transform="matrix(1.00, 0.00, -0.00, -1.00, 423.0, 541.2)">(</text><text xml:space="preserve" font-family="FiraSans-Light,Fira Sans" font-size="28.0" fill="#2A4054" transform="matrix(1.00, 0.00, -0.00, -1.00, 432.1, 541.2)">a</text><text xml:space="preserve" font-family="FiraSans-Light,Fira Sans" font-size="28.0" fill="#2A4054" transform="matrix(1.00, 0.00, -0.00, -1.00, 447.1, 541.2)">s</text><text xml:space="preserve" font-family="FiraSans-Light,Fira Sans" font-size="28.0" fill="#2A4054" transform="matrix(1.00, 0.00, -0.00, -1.00, 460.1, 541.2)">s</text><text xml:space="preserve" font-family="FiraSans-Light,Fira Sans" font-size="28.0" fill="#2A4054" transform="matrix(1.00, 0.00, -0.00, -1.00, 473.1, 541.2)">u</text><text xml:space="preserve" font-family="FiraSans-Light,Fira Sans" font-size="28.0" fill="#2A4054" transform="matrix(1.00, 0.00, -0.00, -1.00, 489.3, 541.2)">m</text><text xml:space="preserve" font-family="FiraSans-Light,Fira Sans" font-size="28.0" fill="#2A4054" transform="matrix(1.00, 0.00, -0.00, -1.00, 513.2, 541.2)">p</text><text xml:space="preserve" font-family="FiraSans-Light,Fira Sans" font-size="28.0" fill="#2A4054" transform="matrix(1.00, 0.00, -0.00, -1.00, 529.5, 541.2)">t</text><text xml:space="preserve" font-family="FiraSans-Light,Fira Sans" font-size="28.0" fill="#2A4054" transform="matrix(1.00, 0.00, -0.00, -1.00, 539.0, 541.2)">i</text><text xml:space="preserve" font-family="FiraSans-Light,Fira Sans" font-size="28.0" fill="#2A4054" transform="matrix(1.00, 0.00, -0.00, -1.00, 546.6, 541.2)">o</text><text xml:space="preserve" font-family="FiraSans-Light,Fira Sans" font-size="28.0" fill="#2A4054" transform="matrix(1.00, 0.00, -0.00, -1.00, 562.6, 541.2)">n</text><text xml:space="preserve" font-family="FiraSans-Light,Fira Sans" font-size="28.0" fill="#2A4054" transform="matrix(1.00, 0.00, -0.00, -1.00, 578.9, 541.2)">s</text><text xml:space="preserve" font-family="FiraSans-Light,Fira Sans" font-size="28.0" fill="#2A4054" transform="matrix(1.00, 0.00, -0.00, -1.00, 591.9, 541.2)">)</text><text xml:space="preserve" font-family="FiraSans-Light,Fira Sans" font-size="28.0" fill="#2A4054" transform="matrix(1.00, 0.00, -0.00, -1.00, 120.0, 541.2)">(</text><text xml:space="preserve" font-family="FiraSans-Light,Fira Sans" font-size="28.0" fill="#2A4054" transform="matrix(1.00, 0.00, -0.00, -1.00, 129.0, 541.2)">i</text><text xml:space="preserve" font-family="FiraSans-Light,Fira Sans" font-size="28.0" fill="#2A4054" transform="matrix(1.00, 0.00, -0.00, -1.00, 136.6, 541.2)">n</text><text xml:space="preserve" font-family="FiraSans-Light,Fira Sans" font-size="28.0" fill="#2A4054" transform="matrix(1.00, 0.00, -0.00, -1.00, 152.9, 541.2)">p</text><text xml:space="preserve" font-family="FiraSans-Light,Fira Sans" font-size="28.0" fill="#2A4054" transform="matrix(1.00, 0.00, -0.00, -1.00, 169.2, 541.2)">u</text><text xml:space="preserve" font-family="FiraSans-Light,Fira Sans" font-size="28.0" fill="#2A4054" transform="matrix(1.00, 0.00, -0.00, -1.00, 185.4, 541.2)">t</text><text xml:space="preserve" font-family="FiraSans-Light,Fira Sans" font-size="28.0" fill="#2A4054" transform="matrix(1.00, 0.00, -0.00, -1.00, 195.0, 541.2)">)</text><text xml:space="preserve" font-family="FiraSans-Light,Fira Sans" font-size="28.0" fill="#2A4054" transform="matrix(1.00, 0.00, -0.00, -1.00, 815.0, 541.2)">(</text><text xml:space="preserve" font-family="FiraSans-Light,Fira Sans" font-size="28.0" fill="#2A4054" transform="matrix(1.00, 0.00, -0.00, -1.00, 824.1, 541.2)">o</text><text xml:space="preserve" font-family="FiraSans-Light,Fira Sans" font-size="28.0" fill="#2A4054" transform="matrix(1.00, 0.00, -0.00, -1.00, 840.1, 541.2)">u</text><text xml:space="preserve" font-family="FiraSans-Light,Fira Sans" font-size="28.0" fill="#2A4054" transform="matrix(1.00, 0.00, -0.00, -1.00, 856.3, 541.2)">t</text><text xml:space="preserve" font-family="FiraSans-Light,Fira Sans" font-size="28.0" fill="#2A4054" transform="matrix(1.00, 0.00, -0.00, -1.00, 865.9, 541.2)">p</text><text xml:space="preserve" font-family="FiraSans-Light,Fira Sans" font-size="28.0" fill="#2A4054" transform="matrix(1.00, 0.00, -0.00, -1.00, 882.1, 541.2)">u</text><text xml:space="preserve" font-family="FiraSans-Light,Fira Sans" font-size="28.0" fill="#2A4054" transform="matrix(1.00, 0.00, -0.00, -1.00, 898.3, 541.2)">t</text><text xml:space="preserve" font-family="FiraSans-Light,Fira Sans" font-size="28.0" fill="#2A4054" transform="matrix(1.00, 0.00, -0.00, -1.00, 907.9, 541.2)">)</text><text xml:space="preserve" font-family="FiraSans-Italic,Fira Sans" font-style="italic" font-size="26.0" fill="#20313F" transform="matrix(1.00, 0.00, -0.00, -1.00, 502.2, 241.4)">P</text><text xml:space="preserve" font-family="FiraSans-Italic,Fira Sans" font-style="italic" font-size="26.0" fill="#20313F" transform="matrix(1.00, 0.00, -0.00, -1.00, 517.1, 241.4)">r</text><text xml:space="preserve" font-family="FiraSans-Italic,Fira Sans" font-style="italic" font-size="26.0" fill="#20313F" transform="matrix(1.00, 0.00, -0.00, -1.00, 526.8, 241.4)">o</text><text xml:space="preserve" font-family="FiraSans-Italic,Fira Sans" font-style="italic" font-size="26.0" fill="#20313F" transform="matrix(1.00, 0.00, -0.00, -1.00, 541.8, 241.4)">b</text><text xml:space="preserve" font-family="FiraSans-Italic,Fira Sans" font-style="italic" font-size="26.0" fill="#20313F" transform="matrix(1.00, 0.00, -0.00, -1.00, 556.8, 241.4)">a</text><text xml:space="preserve" font-family="FiraSans-Italic,Fira Sans" font-style="italic" font-size="26.0" fill="#20313F" transform="matrix(1.00, 0.00, -0.00, -1.00, 571.6, 241.4)">b</text><text xml:space="preserve" font-family="FiraSans-Italic,Fira Sans" font-style="italic" font-size="26.0" fill="#20313F" transform="matrix(1.00, 0.00, -0.00, -1.00, 586.7, 241.4)">i</text><text xml:space="preserve" font-family="FiraSans-Italic,Fira Sans" font-style="italic" font-size="26.0" fill="#20313F" transform="matrix(1.00, 0.00, -0.00, -1.00, 594.0, 241.4)">l</text><text xml:space="preserve" font-family="FiraSans-Italic,Fira Sans" font-style="italic" font-size="26.0" fill="#20313F" transform="matrix(1.00, 0.00, -0.00, -1.00, 601.4, 241.4)">i</text><text xml:space="preserve" font-family="FiraSans-Italic,Fira Sans" font-style="italic" font-size="26.0" fill="#20313F" transform="matrix(1.00, 0.00, -0.00, -1.00, 608.7, 241.4)">s</text><text xml:space="preserve" font-family="FiraSans-Italic,Fira Sans" font-style="italic" font-size="26.0" fill="#20313F" transform="matrix(1.00, 0.00, -0.00, -1.00, 620.7, 241.4)">t</text><text xml:space="preserve" font-family="FiraSans-Italic,Fira Sans" font-style="italic" font-size="26.0" fill="#20313F" transform="matrix(1.00, 0.00, -0.00, -1.00, 629.9, 241.4)">i</text><text xml:space="preserve" font-family="FiraSans-Italic,Fira Sans" font-style="italic" font-size="26.0" fill="#20313F" transform="matrix(1.00, 0.00, -0.00, -1.00, 637.2, 241.4)">c</text><text xml:space="preserve" font-family="FiraSans-Italic,Fira Sans" font-style="italic" font-size="26.0" fill="#20313F" transform="matrix(1.00, 0.00, -0.00, -1.00, 649.5, 241.4)"> </text><text xml:space="preserve" font-family="FiraSans-Italic,Fira Sans" font-style="italic" font-size="26.0" fill="#20313F" transform="matrix(1.00, 0.00, -0.00, -1.00, 656.2, 241.4)">P</text><text xml:space="preserve" font-family="FiraSans-Italic,Fira Sans" font-style="italic" font-size="26.0" fill="#20313F" transform="matrix(1.00, 0.00, -0.00, -1.00, 671.2, 241.4)">r</text><text xml:space="preserve" font-family="FiraSans-Italic,Fira Sans" font-style="italic" font-size="26.0" fill="#20313F" transform="matrix(1.00, 0.00, -0.00, -1.00, 680.8, 241.4)">o</text><text xml:space="preserve" font-family="FiraSans-Italic,Fira Sans" font-style="italic" font-size="26.0" fill="#20313F" transform="matrix(1.00, 0.00, -0.00, -1.00, 695.9, 241.4)">g</text><text xml:space="preserve" font-family="FiraSans-Italic,Fira Sans" font-style="italic" font-size="26.0" fill="#20313F" transform="matrix(1.00, 0.00, -0.00, -1.00, 710.8, 241.4)">r</text><text xml:space="preserve" font-family="FiraSans-Italic,Fira Sans" font-style="italic" font-size="26.0" fill="#20313F" transform="matrix(1.00, 0.00, -0.00, -1.00, 720.5, 241.4)">a</text><text xml:space="preserve" font-family="FiraSans-Italic,Fira Sans" font-style="italic" font-size="26.0" fill="#20313F" transform="matrix(1.00, 0.00, -0.00, -1.00, 735.3, 241.4)">m</text><text xml:space="preserve" font-family="FiraSans-Italic,Fira Sans" font-style="italic" font-size="26.0" fill="#20313F" transform="matrix(1.00, 0.00, -0.00, -1.00, 757.3, 241.4)">m</text><text xml:space="preserve" font-family="FiraSans-Italic,Fira Sans" font-style="italic" font-size="26.0" fill="#20313F" transform="matrix(1.00, 0.00, -0.00, -1.00, 779.4, 241.4)">i</text><text xml:space="preserve" font-family="FiraSans-Italic,Fira Sans" font-style="italic" font-size="26.0" fill="#20313F" transform="matrix(1.00, 0.00, -0.00, -1.00, 786.6, 241.4)">n</text><text xml:space="preserve" font-family="FiraSans-Italic,Fira Sans" font-style="italic" font-size="26.0" fill="#20313F" transform="matrix(1.00, 0.00, -0.00, -1.00, 801.7, 241.4)">g</text><text xml:space="preserve" font-family="FiraSans-Italic,Fira Sans" font-style="italic" font-size="26.0" fill="#20313F" transform="matrix(1.00, 0.00, -0.00, -1.00, 816.7, 241.4)"> </text><text xml:space="preserve" font-family="FiraSans-Italic,Fira Sans" font-style="italic" font-size="26.0" fill="#20313F" transform="matrix(1.00, 0.00, -0.00, -1.00, 823.4, 241.4)">S</text><text xml:space="preserve" font-family="FiraSans-Italic,Fira Sans" font-style="italic" font-size="26.0" fill="#20313F" transform="matrix(1.00, 0.00, -0.00, -1.00, 836.9, 241.4)">y</text><text xml:space="preserve" font-family="FiraSans-Italic,Fira Sans" font-style="italic" font-size="26.0" fill="#20313F" transform="matrix(1.00, 0.00, -0.00, -1.00, 849.6, 241.4)">s</text><text xml:space="preserve" font-family="FiraSans-Italic,Fira Sans" font-style="italic" font-size="26.0" fill="#20313F" transform="matrix(1.00, 0.00, -0.00, -1.00, 861.6, 241.4)">t</text><text xml:space="preserve" font-family="FiraSans-Italic,Fira Sans" font-style="italic" font-size="26.0" fill="#20313F" transform="matrix(1.00, 0.00, -0.00, -1.00, 870.5, 241.4)">e</text><text xml:space="preserve" font-family="FiraSans-Italic,Fira Sans" font-style="italic" font-size="26.0" fill="#20313F" transform="matrix(1.00, 0.00, -0.00, -1.00, 884.1, 241.4)">m</text><path d="M 0.0 187.0 L 0.1 15.0 C 0.1 6.7 6.7 -0.4 15.0 -0.4 L 637.2 -0.4 C 645.5 -0.4 652.1 6.7 652.1 15.0 L 652.1 187.0 C 652.1 195.3 645.5 201.6 637.2 201.6 L 15.0 201.6 C 6.7 201.6 0.0 195.3 0.0 187.0 Z M 0.0 187.0 " fill="none" stroke="#003F7F" stroke-width="4.00" stroke-dasharray="4.0, 4.0" transform="matrix(1.00, 0.00, 0.00, -1.00, 347.9, 221.6)"></path><text xml:space="preserve" font-family="FiraSans-Regular,Fira Sans" font-size="24.0" fill="#20313F" transform="matrix(1.00, 0.00, -0.00, -1.00, 775.1, 37.9)">(</text><text xml:space="preserve" font-family="FiraSans-Regular,Fira Sans" font-size="24.0" fill="#20313F" transform="matrix(1.00, 0.00, -0.00, -1.00, 782.8, 37.9)">M</text><text xml:space="preserve" font-family="FiraSans-Regular,Fira Sans" font-size="24.0" fill="#20313F" transform="matrix(1.00, 0.00, -0.00, -1.00, 801.8, 37.9)">o</text><text xml:space="preserve" font-family="FiraSans-Regular,Fira Sans" font-size="24.0" fill="#20313F" transform="matrix(1.00, 0.00, -0.00, -1.00, 815.8, 37.9)">d</text><text xml:space="preserve" font-family="FiraSans-Regular,Fira Sans" font-size="24.0" fill="#20313F" transform="matrix(1.00, 0.00, -0.00, -1.00, 829.9, 37.9)">e</text><text xml:space="preserve" font-family="FiraSans-Regular,Fira Sans" font-size="24.0" fill="#20313F" transform="matrix(1.00, 0.00, -0.00, -1.00, 843.1, 37.9)">l</text><text xml:space="preserve" font-family="FiraSans-Regular,Fira Sans" font-size="24.0" fill="#20313F" transform="matrix(1.00, 0.00, -0.00, -1.00, 850.2, 37.9)">-</text><text xml:space="preserve" font-family="FiraSans-Regular,Fira Sans" font-size="24.0" fill="#20313F" transform="matrix(1.00, 0.00, -0.00, -1.00, 859.6, 37.9)">A</text><text xml:space="preserve" font-family="FiraSans-Regular,Fira Sans" font-size="24.0" fill="#20313F" transform="matrix(1.00, 0.00, -0.00, -1.00, 873.1, 37.9)">g</text><text xml:space="preserve" font-family="FiraSans-Regular,Fira Sans" font-size="24.0" fill="#20313F" transform="matrix(1.00, 0.00, -0.00, -1.00, 885.6, 37.9)">n</text><text xml:space="preserve" font-family="FiraSans-Regular,Fira Sans" font-size="24.0" fill="#20313F" transform="matrix(1.00, 0.00, -0.00, -1.00, 899.7, 37.9)">o</text><text xml:space="preserve" font-family="FiraSans-Regular,Fira Sans" font-size="24.0" fill="#20313F" transform="matrix(1.00, 0.00, -0.00, -1.00, 913.7, 37.9)">s</text><text xml:space="preserve" font-family="FiraSans-Regular,Fira Sans" font-size="24.0" fill="#20313F" transform="matrix(1.00, 0.00, -0.00, -1.00, 924.9, 37.9)">t</text><text xml:space="preserve" font-family="FiraSans-Regular,Fira Sans" font-size="24.0" fill="#20313F" transform="matrix(1.00, 0.00, -0.00, -1.00, 933.6, 37.9)">i</text><text xml:space="preserve" font-family="FiraSans-Regular,Fira Sans" font-size="24.0" fill="#20313F" transform="matrix(1.00, 0.00, -0.00, -1.00, 940.3, 37.9)">c</text><text xml:space="preserve" font-family="FiraSans-Regular,Fira Sans" font-size="24.0" fill="#20313F" transform="matrix(1.00, 0.00, -0.00, -1.00, 951.8, 37.9)">)</text><text xml:space="preserve" font-family="FiraSans-Regular,Fira Sans" font-size="24.0" fill="#20313F" transform="matrix(1.00, 0.00, -0.00, -1.00, 458.3, 37.9)">(</text><text xml:space="preserve" font-family="FiraSans-Regular,Fira Sans" font-size="24.0" fill="#20313F" transform="matrix(1.00, 0.00, -0.00, -1.00, 466.1, 37.9)">P</text><text xml:space="preserve" font-family="FiraSans-Regular,Fira Sans" font-size="24.0" fill="#20313F" transform="matrix(1.00, 0.00, -0.00, -1.00, 480.0, 37.9)">r</text><text xml:space="preserve" font-family="FiraSans-Regular,Fira Sans" font-size="24.0" fill="#20313F" transform="matrix(1.00, 0.00, -0.00, -1.00, 489.0, 37.9)">o</text><text xml:space="preserve" font-family="FiraSans-Regular,Fira Sans" font-size="24.0" fill="#20313F" transform="matrix(1.00, 0.00, -0.00, -1.00, 503.0, 37.9)">g</text><text xml:space="preserve" font-family="FiraSans-Regular,Fira Sans" font-size="24.0" fill="#20313F" transform="matrix(1.00, 0.00, -0.00, -1.00, 515.5, 37.9)">r</text><text xml:space="preserve" font-family="FiraSans-Regular,Fira Sans" font-size="24.0" fill="#20313F" transform="matrix(1.00, 0.00, -0.00, -1.00, 524.3, 37.9)">a</text><text xml:space="preserve" font-family="FiraSans-Regular,Fira Sans" font-size="24.0" fill="#20313F" transform="matrix(1.00, 0.00, -0.00, -1.00, 537.4, 37.9)">m</text><text xml:space="preserve" font-family="FiraSans-Regular,Fira Sans" font-size="24.0" fill="#20313F" transform="matrix(1.00, 0.00, -0.00, -1.00, 557.9, 37.9)">)</text></g></svg>