<?xml version="1.0" encoding="UTF-8" standalone="no"?><svg xmlns="http://www.w3.org/2000/svg" xmlns:xlink="http://www.w3.org/1999/xlink" clip-rule="evenodd" stroke-miterlimit="10" viewBox="0 0 1024 768"><desc>SVG generated by Keynote</desc><defs><linearGradient id="gradSh1.12" x1="0.0" y1="0.0" x2="100.0" y2="0.0" gradientUnits="userSpaceOnUse" gradientTransform="matrix(0.00, -7.70, -10.26, 0.00, 512.0, 769.0)"><stop offset="0.00000" stop-color="#FFFFFF"></stop><stop offset="0.01906" stop-color="#FEFFFF"></stop><stop offset="1.00000" stop-color="#E5F3FF"></stop></linearGradient><linearGradient id="gradSh2.13" x1="0.0" y1="0.0" x2="100.0" y2="0.0" gradientUnits="userSpaceOnUse" gradientTransform="matrix(0.00, -1.06, -2.51, 0.00, 180.0, 552.5)"><stop offset="0.00000" stop-color="#FBFBFB"></stop><stop offset="0.00953" stop-color="#FBFAFA"></stop><stop offset="1.00000" stop-color="#E59A9B"></stop></linearGradient><linearGradient id="gradSh3.14" x1="0.0" y1="0.0" x2="100.0" y2="0.0" gradientUnits="userSpaceOnUse" gradientTransform="matrix(0.00, -1.08, -2.53, 0.00, 180.0, 399.5)"><stop offset="0.00000" stop-color="#FBFBFB"></stop><stop offset="0.00953" stop-color="#FAFBFB"></stop><stop offset="1.00000" stop-color="#9AC0E5"></stop></linearGradient><linearGradient id="gradSh4.15" x1="0.0" y1="0.0" x2="100.0" y2="0.0" gradientUnits="userSpaceOnUse" gradientTransform="matrix(0.00, -1.08, -2.53, 0.00, 180.0, 244.5)"><stop offset="0.00000" stop-color="#FFFFFF"></stop><stop offset="0.00513" stop-color="#FFFFFE"></stop><stop offset="1.00000" stop-color="#C0E59A"></stop></linearGradient></defs><g transform="matrix(1.00, 0.00, -0.00, -1.00, 0.0, 768.0)"><g><clipPath id="clip0x6180014af540"><path d="M 0.0 768.0 L 1024.0 768.0 L 1024.0 0.0 L 0.0 0.0 Z M 0.0 768.0 "></path></clipPath><g clip-path="url(#clip0x6180014af540)"><path d="M 0.0 768.0 L 1024.0 768.0 L 1024.0 0.0 L 0.0 0.0 Z M 0.0 768.0 " fill="url(#gradSh1.12)"></path></g></g><g><clipPath id="clip0x6180036a9240"><path d="M 193.0 447.8 L 193.0 394.8 L 167.0 394.8 L 167.0 447.8 Z M 193.0 447.8 "></path></clipPath><g clip-path="url(#clip0x6180036a9240)"><path d="M -0.2 0.0 L 27.0 0.0 L 29.8 0.0 " fill="none" stroke="#003F7F" stroke-width="6.00" transform="matrix(0.00, -1.00, -1.00, 0.00, 180.0, 446.8)"></path><path d="M 168.0 420.0 L 180.0 396.0 L 192.0 420.0 Z M 168.0 420.0 " fill="#003F7F"></path></g></g><g><clipPath id="clip0x6180036a9540"><path d="M 193.0 296.2 L 193.0 242.3 L 167.0 242.3 L 167.0 296.2 Z M 193.0 296.2 "></path></clipPath><g clip-path="url(#clip0x6180036a9540)"><path d="M 0.2 0.0 L 27.9 0.0 L 31.2 0.0 " fill="none" stroke="#003F7F" stroke-width="6.00" transform="matrix(0.00, -1.00, -1.00, 0.00, 180.0, 295.2)"></path><path d="M 168.0 267.0 L 180.0 243.0 L 192.0 267.0 Z M 168.0 267.0 " fill="#003F7F"></path></g></g><g><clipPath id="clip0x6180036a9840"><path d="M 44.8 432.6 L 315.3 432.6 L 315.3 557.7 L 44.8 557.7 Z M 44.8 432.6 "></path></clipPath><g clip-path="url(#clip0x6180036a9840)"><image xlink:href="B2AFF4F1755325A141F9FF713CF1038A.png" width="269.00" height="123.00" transform="matrix(1.00, 0.00, -0.00, -1.00, 45.8, 556.7)" opacity="0.50"></image></g></g><g><clipPath id="clip0x6000056a0180"><path d="M 55.5 462.0 L 55.5 536.2 C 55.5 544.4 62.0 551.5 70.3 551.5 L 289.8 551.5 C 298.1 551.5 304.5 544.4 304.5 536.2 L 304.5 462.1 C 304.5 453.8 298.1 447.5 289.8 447.5 L 70.3 447.5 C 62.0 447.5 55.5 453.7 55.5 462.0 Z M 55.3 462.1 "></path></clipPath><g clip-path="url(#clip0x6000056a0180)"><g><clipPath id="clip0x6000056a0420"><path d="M 44.8 432.6 L 315.3 432.6 L 315.3 557.7 L 44.8 557.7 Z M 44.8 432.6 "></path></clipPath><g clip-path="url(#clip0x6000056a0420)"><path d="M 44.8 432.6 L 315.3 432.6 L 315.3 557.7 L 44.8 557.7 Z M 44.8 432.6 " fill="url(#gradSh2.13)"></path></g></g></g></g><g><clipPath id="clip0x6000058a0720"><path d="M 44.8 432.6 L 315.3 432.6 L 315.3 557.7 L 44.8 557.7 Z M 44.8 432.6 "></path></clipPath><g clip-path="url(#clip0x6000058a0720)"><path d="M 0.2 89.2 L 0.2 15.0 C 0.2 6.7 6.7 -0.3 15.0 -0.3 L 234.5 -0.3 C 242.8 -0.3 249.2 6.7 249.2 15.0 L 249.2 89.0 C 249.2 97.3 242.8 103.7 234.5 103.7 L 15.0 103.7 C 6.7 103.7 0.2 97.4 0.2 89.2 Z M 0.0 89.0 " fill="none" stroke="#7F3F40" stroke-width="3.00" transform="matrix(1.00, 0.00, 0.00, -1.00, 55.3, 551.2)"></path></g></g><g><clipPath id="clip0x6000058a0960"><path d="M 48.4 447.1 L 311.7 447.1 L 311.7 551.2 L 48.4 551.2 Z M 48.4 447.1 "></path></clipPath><g clip-path="url(#clip0x6000058a0960)"><text xml:space="preserve" font-family="FiraSans-Regular,Fira Sans" font-size="32.0" fill="#000000" transform="matrix(1.00, 0.00, -0.00, -1.00, 97.5, 490.6)">P</text><text xml:space="preserve" font-family="FiraSans-Regular,Fira Sans" font-size="32.0" fill="#000000" transform="matrix(1.00, 0.00, -0.00, -1.00, 115.2, 490.6)">a</text><text xml:space="preserve" font-family="FiraSans-Regular,Fira Sans" font-size="32.0" fill="#000000" transform="matrix(1.00, 0.00, -0.00, -1.00, 132.6, 490.6)">r</text><text xml:space="preserve" font-family="FiraSans-Regular,Fira Sans" font-size="32.0" fill="#000000" transform="matrix(1.00, 0.00, -0.00, -1.00, 144.3, 490.6)">a</text><text xml:space="preserve" font-family="FiraSans-Regular,Fira Sans" font-size="32.0" fill="#000000" transform="matrix(1.00, 0.00, -0.00, -1.00, 161.7, 490.6)">m</text><text xml:space="preserve" font-family="FiraSans-Regular,Fira Sans" font-size="32.0" fill="#000000" transform="matrix(1.00, 0.00, -0.00, -1.00, 189.1, 490.6)">e</text><text xml:space="preserve" font-family="FiraSans-Regular,Fira Sans" font-size="32.0" fill="#000000" transform="matrix(1.00, 0.00, -0.00, -1.00, 206.7, 490.6)">t</text><text xml:space="preserve" font-family="FiraSans-Regular,Fira Sans" font-size="32.0" fill="#000000" transform="matrix(1.00, 0.00, -0.00, -1.00, 217.9, 490.6)">e</text><text xml:space="preserve" font-family="FiraSans-Regular,Fira Sans" font-size="32.0" fill="#000000" transform="matrix(1.00, 0.00, -0.00, -1.00, 235.5, 490.6)">r</text><text xml:space="preserve" font-family="FiraSans-Regular,Fira Sans" font-size="32.0" fill="#000000" transform="matrix(1.00, 0.00, -0.00, -1.00, 247.6, 490.6)">s</text></g></g><g><clipPath id="clip0x6000058a0f00"><path d="M 43.8 278.0 L 316.3 278.0 L 316.3 405.1 L 43.8 405.1 Z M 43.8 278.0 "></path></clipPath><g clip-path="url(#clip0x6000058a0f00)"><image xlink:href="6955CB76A4411F2E9EA6E0980E070EF6.png" width="271.00" height="125.00" transform="matrix(1.00, 0.00, -0.00, -1.00, 44.8, 404.1)" opacity="0.50"></image></g></g><g><clipPath id="clip0x6000058a0f60"><path d="M 54.5 398.5 L 305.5 398.5 L 305.5 292.5 L 54.5 292.5 Z M 54.3 398.6 "></path></clipPath><g clip-path="url(#clip0x6000058a0f60)"><g><clipPath id="clip0x6000058a12c0"><path d="M 43.8 278.0 L 316.3 278.0 L 316.3 405.1 L 43.8 405.1 Z M 43.8 278.0 "></path></clipPath><g clip-path="url(#clip0x6000058a12c0)"><path d="M 43.8 278.0 L 316.3 278.0 L 316.3 405.1 L 43.8 405.1 Z M 43.8 278.0 " fill="url(#gradSh3.14)"></path></g></g></g></g><g><clipPath id="clip0x600005aa15c0"><path d="M 43.8 278.0 L 316.3 278.0 L 316.3 405.1 L 43.8 405.1 Z M 43.8 278.0 "></path></clipPath><g clip-path="url(#clip0x600005aa15c0)"><path d="M 0.2 0.1 L 251.2 0.1 L 251.2 106.1 L 0.2 106.1 Z M 0.0 0.0 " fill="none" stroke="#3F5F7F" stroke-width="3.00" transform="matrix(1.00, 0.00, 0.00, -1.00, 54.3, 398.6)"></path></g></g><g><clipPath id="clip0x600005aa1800"><path d="M 47.9 294.5 L 312.2 294.5 L 312.2 396.6 L 47.9 396.6 Z M 47.9 294.5 "></path></clipPath><g clip-path="url(#clip0x600005aa1800)"><text xml:space="preserve" font-family="FiraSans-Regular,Fira Sans" font-size="32.0" fill="#000000" transform="matrix(1.00, 0.00, -0.00, -1.00, 118.8, 336.6)">P</text><text xml:space="preserve" font-family="FiraSans-Regular,Fira Sans" font-size="32.0" fill="#000000" transform="matrix(1.00, 0.00, -0.00, -1.00, 137.4, 336.6)">r</text><text xml:space="preserve" font-family="FiraSans-Regular,Fira Sans" font-size="32.0" fill="#000000" transform="matrix(1.00, 0.00, -0.00, -1.00, 149.4, 336.6)">o</text><text xml:space="preserve" font-family="FiraSans-Regular,Fira Sans" font-size="32.0" fill="#000000" transform="matrix(1.00, 0.00, -0.00, -1.00, 168.1, 336.6)">g</text><text xml:space="preserve" font-family="FiraSans-Regular,Fira Sans" font-size="32.0" fill="#000000" transform="matrix(1.00, 0.00, -0.00, -1.00, 184.7, 336.6)">r</text><text xml:space="preserve" font-family="FiraSans-Regular,Fira Sans" font-size="32.0" fill="#000000" transform="matrix(1.00, 0.00, -0.00, -1.00, 196.4, 336.6)">a</text><text xml:space="preserve" font-family="FiraSans-Regular,Fira Sans" font-size="32.0" fill="#000000" transform="matrix(1.00, 0.00, -0.00, -1.00, 213.9, 336.6)">m</text></g></g><g><clipPath id="clip0x600005aa1c80"><path d="M 43.8 123.4 L 316.3 123.4 L 316.3 250.5 L 43.8 250.5 Z M 43.8 123.4 "></path></clipPath><g clip-path="url(#clip0x600005aa1c80)"><image xlink:href="4CDBFCCC1CFA11F93F216843D13CADFA.png" width="271.00" height="125.00" transform="matrix(1.00, 0.00, -0.00, -1.00, 44.8, 249.5)" opacity="0.50"></image></g></g><g><clipPath id="clip0x600005aa1d40"><path d="M 54.5 243.5 L 305.5 243.5 L 305.5 137.5 L 54.5 137.5 Z M 54.3 244.0 "></path></clipPath><g clip-path="url(#clip0x600005aa1d40)"><g><clipPath id="clip0x600005aa1fe0"><path d="M 43.8 123.4 L 316.3 123.4 L 316.3 250.5 L 43.8 250.5 Z M 43.8 123.4 "></path></clipPath><g clip-path="url(#clip0x600005aa1fe0)"><path d="M 43.8 123.4 L 316.3 123.4 L 316.3 250.5 L 43.8 250.5 Z M 43.8 123.4 " fill="url(#gradSh4.15)"></path></g></g></g></g><g><clipPath id="clip0x600005ca22e0"><path d="M 43.8 123.4 L 316.3 123.4 L 316.3 250.5 L 43.8 250.5 Z M 43.8 123.4 "></path></clipPath><g clip-path="url(#clip0x600005ca22e0)"><path d="M 0.2 0.5 L 251.2 0.5 L 251.2 106.5 L 0.2 106.5 Z M 0.0 0.0 " fill="none" stroke="#5F7F3F" stroke-width="3.00" transform="matrix(1.00, 0.00, 0.00, -1.00, 54.3, 244.0)"></path></g></g><g><clipPath id="clip0x600005ca2520"><path d="M 47.9 139.9 L 312.2 139.9 L 312.2 242.0 L 47.9 242.0 Z M 47.9 139.9 "></path></clipPath><g clip-path="url(#clip0x600005ca2520)"><text xml:space="preserve" font-family="FiraSans-Regular,Fira Sans" font-size="32.0" fill="#000000" transform="matrix(1.00, 0.00, -0.00, -1.00, 129.3, 182.0)">O</text><text xml:space="preserve" font-family="FiraSans-Regular,Fira Sans" font-size="32.0" fill="#000000" transform="matrix(1.00, 0.00, -0.00, -1.00, 151.4, 182.0)">u</text><text xml:space="preserve" font-family="FiraSans-Regular,Fira Sans" font-size="32.0" fill="#000000" transform="matrix(1.00, 0.00, -0.00, -1.00, 170.0, 182.0)">t</text><text xml:space="preserve" font-family="FiraSans-Regular,Fira Sans" font-size="32.0" fill="#000000" transform="matrix(1.00, 0.00, -0.00, -1.00, 181.6, 182.0)">p</text><text xml:space="preserve" font-family="FiraSans-Regular,Fira Sans" font-size="32.0" fill="#000000" transform="matrix(1.00, 0.00, -0.00, -1.00, 200.6, 182.0)">u</text><text xml:space="preserve" font-family="FiraSans-Regular,Fira Sans" font-size="32.0" fill="#000000" transform="matrix(1.00, 0.00, -0.00, -1.00, 219.2, 182.0)">t</text></g></g><g><clipPath id="clip0x600005ca2940"><path d="M 149.4 43.9 L 210.6 43.9 L 210.6 118.7 L 149.4 118.7 Z M 149.4 43.9 "></path></clipPath><g clip-path="url(#clip0x600005ca2940)"><text xml:space="preserve" font-family="FiraSans-Regular,Fira Sans" font-size="32.0" fill="#20313F" transform="matrix(1.00, 0.00, -0.00, -1.00, 162.3, 72.3)">C</text><text xml:space="preserve" font-family="FiraSans-Regular,Fira Sans" font-size="32.0" fill="#20313F" transform="matrix(1.00, 0.00, -0.00, -1.00, 180.3, 72.3)">S</text></g></g><text xml:space="preserve" font-family="FiraSans-Light,Fira Sans" font-size="60.0" fill="#20313F" transform="matrix(1.00, 0.00, -0.00, -1.00, 205.3, 665.0)">I</text><text xml:space="preserve" font-family="FiraSans-Light,Fira Sans" font-size="60.0" fill="#20313F" transform="matrix(1.00, 0.00, -0.00, -1.00, 222.2, 665.0)">n</text><text xml:space="preserve" font-family="FiraSans-Light,Fira Sans" font-size="60.0" fill="#20313F" transform="matrix(1.00, 0.00, -0.00, -1.00, 257.3, 665.0)">f</text><text xml:space="preserve" font-family="FiraSans-Light,Fira Sans" font-size="60.0" fill="#20313F" transform="matrix(1.00, 0.00, -0.00, -1.00, 275.9, 665.0)">e</text><text xml:space="preserve" font-family="FiraSans-Light,Fira Sans" font-size="60.0" fill="#20313F" transform="matrix(1.00, 0.00, -0.00, -1.00, 308.2, 665.0)">r</text><text xml:space="preserve" font-family="FiraSans-Light,Fira Sans" font-size="60.0" fill="#20313F" transform="matrix(1.00, 0.00, -0.00, -1.00, 330.0, 665.0)">e</text><text xml:space="preserve" font-family="FiraSans-Light,Fira Sans" font-size="60.0" fill="#20313F" transform="matrix(1.00, 0.00, -0.00, -1.00, 362.3, 665.0)">n</text><text xml:space="preserve" font-family="FiraSans-Light,Fira Sans" font-size="60.0" fill="#20313F" transform="matrix(1.00, 0.00, -0.00, -1.00, 397.3, 665.0)">c</text><text xml:space="preserve" font-family="FiraSans-Light,Fira Sans" font-size="60.0" fill="#20313F" transform="matrix(1.00, 0.00, -0.00, -1.00, 424.9, 665.0)">e</text><text xml:space="preserve" font-family="FiraSans-Light,Fira Sans" font-size="60.0" fill="#20313F" transform="matrix(1.00, 0.00, -0.00, -1.00, 457.1, 665.0)"> </text><text xml:space="preserve" font-family="FiraSans-Light,Fira Sans" font-size="60.0" fill="#20313F" transform="matrix(1.00, 0.00, -0.00, -1.00, 473.9, 665.0)">f</text><text xml:space="preserve" font-family="FiraSans-Light,Fira Sans" font-size="60.0" fill="#20313F" transform="matrix(1.00, 0.00, -0.00, -1.00, 492.5, 665.0)">o</text><text xml:space="preserve" font-family="FiraSans-Light,Fira Sans" font-size="60.0" fill="#20313F" transform="matrix(1.00, 0.00, -0.00, -1.00, 526.8, 665.0)">r</text><text xml:space="preserve" font-family="FiraSans-Light,Fira Sans" font-size="60.0" fill="#20313F" transform="matrix(1.00, 0.00, -0.00, -1.00, 549.2, 665.0)"> </text><text xml:space="preserve" font-family="FiraSans-Light,Fira Sans" font-size="60.0" fill="#20313F" transform="matrix(1.00, 0.00, -0.00, -1.00, 565.9, 665.0)">P</text><text xml:space="preserve" font-family="FiraSans-Light,Fira Sans" font-size="60.0" fill="#20313F" transform="matrix(1.00, 0.00, -0.00, -1.00, 600.1, 665.0)">r</text><text xml:space="preserve" font-family="FiraSans-Light,Fira Sans" font-size="60.0" fill="#20313F" transform="matrix(1.00, 0.00, -0.00, -1.00, 621.9, 665.0)">o</text><text xml:space="preserve" font-family="FiraSans-Light,Fira Sans" font-size="60.0" fill="#20313F" transform="matrix(1.00, 0.00, -0.00, -1.00, 656.1, 665.0)">g</text><text xml:space="preserve" font-family="FiraSans-Light,Fira Sans" font-size="60.0" fill="#20313F" transform="matrix(1.00, 0.00, -0.00, -1.00, 686.3, 665.0)">r</text><text xml:space="preserve" font-family="FiraSans-Light,Fira Sans" font-size="60.0" fill="#20313F" transform="matrix(1.00, 0.00, -0.00, -1.00, 707.5, 665.0)">a</text><text xml:space="preserve" font-family="FiraSans-Light,Fira Sans" font-size="60.0" fill="#20313F" transform="matrix(1.00, 0.00, -0.00, -1.00, 739.7, 665.0)">m</text><text xml:space="preserve" font-family="FiraSans-Light,Fira Sans" font-size="60.0" fill="#20313F" transform="matrix(1.00, 0.00, -0.00, -1.00, 790.8, 665.0)">s</text></g></svg>