<?xml version="1.0" encoding="UTF-8" standalone="no"?><svg xmlns="http://www.w3.org/2000/svg" xmlns:xlink="http://www.w3.org/1999/xlink" clip-rule="evenodd" stroke-miterlimit="10" viewBox="0 0 1024 768"><desc>SVG generated by Keynote</desc><defs><linearGradient id="gradSh1.114" x1="0.0" y1="0.0" x2="100.0" y2="0.0" gradientUnits="userSpaceOnUse" gradientTransform="matrix(0.00, -7.70, -10.26, 0.00, 512.0, 769.0)"><stop offset="0.00000" stop-color="#FFFFFF"></stop><stop offset="0.01906" stop-color="#FEFFFF"></stop><stop offset="1.00000" stop-color="#E5F3FF"></stop></linearGradient></defs><g transform="matrix(1.00, 0.00, -0.00, -1.00, 0.0, 768.0)"><g><clipPath id="clip0x60800c6a4200"><path d="M 0.0 768.0 L 1024.0 768.0 L 1024.0 0.0 L 0.0 0.0 Z M 0.0 768.0 "></path></clipPath><g clip-path="url(#clip0x60800c6a4200)"><path d="M 0.0 768.0 L 1024.0 768.0 L 1024.0 0.0 L 0.0 0.0 Z M 0.0 768.0 " fill="url(#gradSh1.114)"></path></g></g><g><clipPath id="clip0x60800cca4620"><path d="M 52.0 633.0 L 972.0 633.0 L 972.0 146.0 L 52.0 146.0 Z M 51.6 633.4 "></path></clipPath><g clip-path="url(#clip0x60800cca4620)"><image xlink:href="../../B464B475-D6C4-4F23-A1DD-AA22EE924BD5/assets/BD7A1B4F7AF28008AE170D704DF362D0.png" width="1700.00" height="900.00" transform="matrix(0.54, 0.00, -0.00, -0.54, 51.6, 633.4)"></image></g></g><image xlink:href="../../D6489DBF-8732-4CD3-A46A-3E6047F13E16/assets/5A033879404E1D73527B527EF27D220A.png" width="927.00" height="497.00" transform="matrix(1.00, 0.00, -0.00, 1.00, 48.6, 137.9)"></image><g><clipPath id="clip0x61800b0abc40"><path d="M 60.5 82.2 L 291.0 82.2 L 291.0 132.4 L 60.5 132.4 Z M 60.5 82.2 "></path></clipPath><g clip-path="url(#clip0x61800b0abc40)"><path d="M 67.2 108.9 L 63.0 107.5 L 63.0 106.5 L 65.8 106.3 C 66.4 105.5 67.0 103.6 67.9 100.8 C 66.8 98.7 65.6 97.2 64.3 96.3 L 63.0 97.9 C 61.8 97.6 61.1 96.7 61.1 95.7 C 61.1 94.7 62.0 93.7 63.2 93.7 C 65.0 93.7 66.6 95.6 68.6 99.2 C 69.4 95.3 70.3 93.6 72.7 93.6 C 73.6 93.6 75.0 93.9 76.7 94.5 L 76.7 95.7 C 76.1 95.5 75.6 95.4 75.1 95.4 C 73.0 95.4 72.6 97.4 71.3 101.9 C 72.4 104.1 73.5 105.5 74.7 106.0 L 75.9 104.4 C 77.1 104.8 77.8 105.6 77.8 106.7 C 77.8 107.9 77.1 108.7 75.9 108.7 C 74.2 108.7 72.4 106.9 70.6 103.4 C 69.7 107.1 69.1 108.9 67.4 108.9 C 67.3 108.9 67.2 108.9 67.2 108.9 " fill="#52A700"></path><path d="M 86.7 122.5 L 83.5 121.9 L 83.5 121.3 L 85.4 121.1 L 83.4 110.7 C 83.1 109.3 83.0 108.5 83.0 108.2 C 83.0 107.1 83.5 106.6 84.5 106.6 C 85.2 106.6 86.2 106.8 87.4 107.3 L 87.4 108.0 C 86.7 107.8 86.2 107.6 85.9 107.6 C 85.1 107.6 84.7 108.0 84.7 108.7 C 84.7 108.9 84.8 109.5 84.9 110.4 L 87.1 121.1 C 87.1 121.3 87.2 121.8 87.3 122.5 L 86.7 122.5 " fill="#000000"></path><path d="M 86.1 93.4 L 82.9 92.7 L 82.9 92.1 L 84.7 91.8 L 82.9 83.1 L 84.7 83.1 L 86.1 90.3 C 87.4 91.5 88.5 92.1 89.2 92.1 C 90.0 92.1 90.4 91.7 90.4 90.7 C 90.4 90.4 90.3 90.0 90.2 89.4 L 89.3 85.4 C 89.1 84.9 89.1 84.5 89.1 84.2 C 89.1 83.4 89.6 83.0 90.7 83.0 C 91.2 83.0 92.1 83.2 93.2 83.6 L 93.2 84.2 C 92.7 84.1 92.3 84.0 92.0 84.0 C 91.3 84.0 90.9 84.4 90.9 85.1 C 90.9 85.4 91.0 85.8 91.2 86.5 L 91.9 89.8 C 92.1 90.5 92.2 91.2 92.2 91.7 C 92.2 92.7 91.5 93.4 90.4 93.4 C 89.3 93.4 87.9 92.7 86.2 91.3 L 86.6 93.4 L 86.1 93.4 " fill="#000000"></path><path d="M 105.8 99.9 C 105.8 101.5 107.1 104.0 109.7 104.0 C 113.4 104.0 115.5 98.6 119.9 98.6 C 122.7 98.6 125.1 101.3 125.1 105.3 L 123.8 105.3 C 123.8 103.7 122.5 101.2 119.9 101.2 C 116.2 101.2 114.1 106.6 109.7 106.6 C 106.9 106.6 104.5 103.9 104.5 99.9 L 105.8 99.9 " fill="#000000"></path><path d="M 140.8 108.5 L 136.4 107.6 L 136.4 106.8 L 138.8 106.5 L 135.6 88.7 L 135.3 88.4 L 133.5 88.0 L 133.5 87.1 L 140.9 87.1 L 140.9 88.0 L 138.0 88.6 L 139.0 94.3 C 139.7 93.9 140.5 93.7 141.3 93.7 C 143.4 93.7 145.5 94.7 147.1 96.4 C 148.8 98.3 149.7 100.5 149.7 103.2 C 149.7 106.7 148.2 108.5 145.8 108.5 C 144.5 108.5 143.0 107.9 141.2 106.7 L 141.6 108.5 L 140.8 108.5 Z M 139.3 95.8 L 141.0 105.3 C 142.4 106.4 143.5 106.9 144.4 106.9 C 146.1 106.9 147.2 105.6 147.2 103.1 C 147.2 100.7 146.3 98.2 145.3 96.9 C 144.4 95.6 143.2 95.0 141.9 95.0 C 141.0 95.0 140.2 95.3 139.3 95.8 " fill="#000000"></path><path d="M 156.5 102.6 C 156.5 111.0 159.0 115.1 162.5 115.7 L 162.5 117.2 C 157.4 116.5 153.9 111.8 153.9 102.6 C 153.9 93.4 157.4 88.7 162.5 88.0 L 162.5 89.5 C 159.0 90.1 156.5 94.2 156.5 102.6 " fill="#000000"></path><path d="M 170.7 108.9 L 166.5 107.5 L 166.5 106.5 L 169.3 106.3 C 169.9 105.5 170.5 103.6 171.4 100.8 C 170.3 98.7 169.1 97.2 167.8 96.3 L 166.5 97.9 C 165.3 97.6 164.6 96.7 164.6 95.7 C 164.6 94.7 165.5 93.7 166.7 93.7 C 168.5 93.7 170.1 95.6 172.1 99.2 C 172.9 95.3 173.8 93.6 176.2 93.6 C 177.1 93.6 178.5 93.9 180.2 94.5 L 180.2 95.7 C 179.6 95.5 179.1 95.4 178.6 95.4 C 176.5 95.4 176.1 97.4 174.8 101.9 C 175.9 104.1 177.0 105.5 178.2 106.0 L 179.4 104.4 C 180.6 104.8 181.3 105.6 181.3 106.7 C 181.3 107.9 180.5 108.7 179.4 108.7 C 177.7 108.7 176.0 106.9 174.1 103.4 C 173.2 107.1 172.6 108.9 170.9 108.9 C 170.8 108.9 170.7 108.9 170.7 108.9 " fill="#52A700"></path><path d="M 190.2 122.5 L 187.0 121.9 L 187.0 121.3 L 188.9 121.1 L 186.8 110.7 C 186.6 109.3 186.5 108.5 186.5 108.2 C 186.5 107.1 187.0 106.6 188.0 106.6 C 188.7 106.6 189.7 106.8 190.9 107.3 L 190.9 108.0 C 190.2 107.8 189.7 107.6 189.4 107.6 C 188.6 107.6 188.2 108.0 188.2 108.7 C 188.2 108.9 188.3 109.5 188.4 110.4 L 190.6 121.1 C 190.6 121.3 190.7 121.8 190.8 122.5 L 190.2 122.5 " fill="#000000"></path><path d="M 189.6 93.4 L 186.4 92.7 L 186.4 92.1 L 188.2 91.8 L 186.4 83.1 L 188.2 83.1 L 189.6 90.3 C 190.9 91.5 192.0 92.1 192.7 92.1 C 193.5 92.1 193.9 91.7 193.9 90.7 C 193.9 90.4 193.8 90.0 193.7 89.4 L 192.8 85.4 C 192.6 84.9 192.6 84.5 192.6 84.2 C 192.6 83.4 193.1 83.0 194.2 83.0 C 194.7 83.0 195.6 83.2 196.7 83.6 L 196.7 84.2 C 196.2 84.1 195.8 84.0 195.5 84.0 C 194.8 84.0 194.4 84.4 194.4 85.1 C 194.4 85.4 194.5 85.8 194.7 86.5 L 195.4 89.8 C 195.6 90.5 195.7 91.2 195.7 91.7 C 195.7 92.7 195.0 93.4 193.9 93.4 C 192.8 93.4 191.4 92.7 189.7 91.3 L 190.1 93.4 L 189.6 93.4 " fill="#000000"></path><path d="M 206.9 88.0 L 208.7 88.0 L 208.7 117.2 L 206.9 117.2 Z M 206.9 88.0 " fill="#000000"></path><path d="M 222.9 108.9 L 218.7 107.5 L 218.7 106.5 L 221.5 106.3 C 222.0 105.5 222.7 103.6 223.6 100.8 C 222.5 98.7 221.3 97.2 220.0 96.3 L 218.7 97.9 C 217.5 97.6 216.8 96.7 216.8 95.7 C 216.8 94.7 217.7 93.7 218.9 93.7 C 220.7 93.7 222.3 95.6 224.3 99.2 C 225.1 95.3 226.1 93.6 228.4 93.6 C 229.3 93.6 230.7 93.9 232.4 94.5 L 232.4 95.7 C 231.8 95.5 231.3 95.4 230.8 95.4 C 228.7 95.4 228.3 97.4 227.0 101.9 C 228.1 104.1 229.2 105.5 230.4 106.0 L 231.6 104.4 C 232.8 104.8 233.5 105.6 233.5 106.7 C 233.5 107.9 232.7 108.7 231.6 108.7 C 229.9 108.7 228.2 106.9 226.3 103.4 C 225.3 107.1 224.8 108.9 223.1 108.9 C 223.0 108.9 222.9 108.9 222.9 108.9 " fill="#52A700"></path><path d="M 246.7 123.5 L 246.3 123.0 C 245.6 123.4 244.9 123.5 244.3 123.5 C 242.2 123.5 240.5 122.5 239.4 120.7 C 238.7 119.5 238.3 118.2 238.3 116.8 C 238.3 114.4 239.4 113.0 241.2 113.0 C 242.3 113.0 243.3 113.6 244.4 114.8 C 244.4 114.7 244.4 114.7 244.4 114.6 C 244.4 113.5 244.8 113.0 245.7 113.0 C 246.3 113.0 247.2 113.3 248.4 113.7 L 248.4 114.4 C 247.8 114.2 247.4 114.2 247.2 114.2 C 246.4 114.2 246.0 114.5 246.0 115.2 C 246.0 115.4 246.1 116.0 246.2 116.6 L 247.0 120.5 C 247.3 122.0 247.6 123.1 247.8 123.5 L 246.7 123.5 Z M 244.7 122.7 L 245.6 121.4 L 244.4 115.7 C 243.6 114.8 242.7 114.3 241.9 114.3 C 240.7 114.3 240.1 115.2 240.1 116.9 C 240.1 120.3 241.9 122.7 244.4 122.7 C 244.5 122.7 244.6 122.7 244.7 122.7 " fill="#000000"></path><path d="M 253.2 133.0 L 250.9 132.6 L 250.9 132.2 L 252.3 132.0 L 250.8 124.6 C 250.6 123.6 250.6 123.0 250.6 122.8 C 250.6 122.0 250.9 121.7 251.7 121.7 C 252.2 121.7 252.8 121.8 253.7 122.2 L 253.7 122.6 C 253.2 122.5 252.9 122.4 252.6 122.4 C 252.1 122.4 251.8 122.6 251.8 123.1 C 251.8 123.3 251.8 123.8 251.9 124.4 L 253.5 132.0 C 253.5 132.1 253.6 132.5 253.7 133.0 L 253.2 133.0 " fill="#000000"></path><path d="M 252.3 113.2 L 250.0 112.7 L 250.0 112.3 L 251.3 112.0 L 250.0 105.8 L 251.3 105.8 L 252.3 110.9 C 253.2 111.8 254.0 112.2 254.5 112.2 C 255.1 112.2 255.4 111.9 255.4 111.2 C 255.4 111.1 255.3 110.7 255.2 110.3 L 254.6 107.4 C 254.5 107.1 254.4 106.8 254.4 106.6 C 254.4 106.0 254.8 105.7 255.5 105.7 C 256.0 105.7 256.6 105.9 257.4 106.2 L 257.4 106.6 C 257.0 106.5 256.7 106.4 256.5 106.4 C 256.0 106.4 255.8 106.7 255.8 107.2 C 255.8 107.4 255.8 107.8 255.9 108.2 L 256.4 110.6 C 256.6 111.1 256.6 111.6 256.6 111.9 C 256.6 112.7 256.2 113.2 255.4 113.2 C 254.6 113.2 253.6 112.7 252.4 111.7 L 252.7 113.2 L 252.3 113.2 " fill="#000000"></path><path d="M 258.4 109.7 L 268.8 109.7 L 268.8 110.7 L 258.4 110.7 Z M 258.4 109.7 " fill="#000000"></path><path d="M 274.0 116.2 L 270.7 115.2 L 270.7 114.6 L 273.1 115.0 L 273.1 106.8 L 272.9 106.5 L 271.1 106.4 L 271.1 105.8 L 276.2 105.8 L 276.2 106.4 L 274.6 106.5 L 274.4 106.7 L 274.4 116.2 L 274.0 116.2 " fill="#000000"></path><path d="M 241.8 93.9 L 238.6 93.2 L 238.6 92.7 L 240.4 92.3 L 238.6 83.6 L 240.4 83.6 L 241.7 90.8 C 243.1 92.0 244.2 92.6 244.9 92.6 C 245.7 92.6 246.1 92.2 246.1 91.2 C 246.1 90.9 246.0 90.5 245.9 89.9 L 245.0 85.9 C 244.9 85.4 244.8 85.0 244.8 84.7 C 244.8 83.9 245.3 83.5 246.4 83.5 C 246.9 83.5 247.8 83.7 248.9 84.1 L 248.9 84.7 C 248.4 84.6 248.0 84.5 247.7 84.5 C 247.0 84.5 246.6 84.9 246.6 85.6 C 246.6 85.9 246.7 86.3 246.9 87.0 L 247.6 90.3 C 247.8 91.1 247.9 91.6 247.9 92.2 C 247.9 93.2 247.2 93.9 246.1 93.9 C 245.0 93.9 243.6 93.2 241.9 91.9 L 242.3 93.9 L 241.8 93.9 " fill="#000000"></path><path d="M 250.3 89.1 L 264.9 89.1 L 264.9 90.4 L 250.3 90.4 Z M 250.3 89.1 " fill="#000000"></path><path d="M 272.2 98.2 L 267.5 96.8 L 267.5 95.9 L 270.9 96.5 L 270.9 85.0 L 270.6 84.6 L 268.2 84.5 L 268.2 83.6 L 275.4 83.6 L 275.4 84.5 L 273.0 84.6 L 272.8 84.9 L 272.8 98.2 L 272.2 98.2 " fill="#000000"></path><path d="M 288.6 102.6 C 288.6 94.2 286.1 90.1 282.6 89.5 L 282.6 88.0 C 287.7 88.7 291.2 93.4 291.2 102.6 C 291.2 111.8 287.7 116.5 282.6 117.2 L 282.6 115.7 C 286.1 115.1 288.6 111.0 288.6 102.6 " fill="#000000"></path></g></g><g><clipPath id="clip0x61800b0ac6c0"><path d="M 56.9 30.7 L 265.9 30.7 L 265.9 70.3 L 56.9 70.3 Z M 56.9 30.7 "></path></clipPath><g clip-path="url(#clip0x61800b0ac6c0)"><path d="M 60.4 56.6 L 56.9 55.6 L 56.9 54.8 L 59.2 54.6 L 60.0 42.4 L 59.7 41.8 L 61.7 41.8 C 64.9 47.1 66.8 50.7 67.6 52.4 L 68.3 41.8 L 70.1 41.8 C 75.1 48.4 77.9 52.5 77.9 54.8 C 77.9 55.9 77.3 56.6 76.4 56.6 C 75.7 56.6 75.2 56.3 74.8 55.9 L 75.4 52.3 C 74.7 50.1 73.0 47.4 70.4 44.1 C 70.0 49.2 69.8 53.2 69.6 56.0 L 67.8 55.8 C 66.2 52.1 64.2 48.3 62.2 44.5 L 61.5 56.5 L 60.4 56.6 " fill="#000000"></path><path d="M 83.7 70.5 L 80.5 69.9 L 80.5 69.3 L 82.4 69.1 L 80.3 58.6 C 80.1 57.3 80.0 56.5 80.0 56.2 C 80.0 55.1 80.5 54.6 81.5 54.6 C 82.2 54.6 83.1 54.8 84.4 55.3 L 84.4 56.0 C 83.7 55.8 83.2 55.6 82.9 55.6 C 82.1 55.6 81.7 56.0 81.7 56.6 C 81.7 56.9 81.7 57.5 81.9 58.4 L 84.1 69.1 C 84.1 69.3 84.2 69.7 84.3 70.5 L 83.7 70.5 " fill="#000000"></path><path d="M 83.9 41.5 L 80.7 40.8 L 80.7 40.2 L 82.5 39.9 L 80.7 31.2 L 82.5 31.2 L 83.8 38.4 C 85.1 39.6 86.3 40.2 87.0 40.2 C 87.8 40.2 88.2 39.8 88.2 38.8 C 88.2 38.5 88.1 38.0 88.0 37.4 L 87.0 33.5 C 86.9 33.0 86.9 32.6 86.9 32.3 C 86.9 31.5 87.4 31.0 88.4 31.0 C 89.0 31.0 89.9 31.3 91.0 31.7 L 91.0 32.3 C 90.5 32.2 90.1 32.1 89.8 32.1 C 89.1 32.1 88.7 32.5 88.7 33.1 C 88.7 33.5 88.8 33.9 89.0 34.6 L 89.7 37.9 C 89.9 38.6 90.0 39.2 90.0 39.8 C 90.0 40.8 89.3 41.5 88.2 41.5 C 87.0 41.5 85.7 40.8 84.0 39.4 L 84.4 41.5 L 83.9 41.5 " fill="#000000"></path><path d="M 129.7 51.5 L 106.0 51.5 L 109.7 55.3 L 108.4 56.7 L 102.3 50.8 L 102.3 50.4 L 108.4 44.5 L 109.7 45.8 L 106.0 49.7 L 129.7 49.7 L 129.7 51.5 " fill="#000000"></path><path d="M 145.4 56.5 L 141.0 55.6 L 141.0 54.8 L 143.4 54.5 L 140.2 36.7 L 139.9 36.4 L 138.1 36.0 L 138.1 35.1 L 145.4 35.1 L 145.4 36.0 L 142.5 36.6 L 143.5 42.2 C 144.3 41.9 145.1 41.6 145.9 41.6 C 148.0 41.6 150.1 42.7 151.7 44.4 C 153.4 46.3 154.3 48.5 154.3 51.2 C 154.3 54.6 152.8 56.5 150.4 56.5 C 149.1 56.5 147.6 55.9 145.8 54.6 L 146.2 56.5 L 145.4 56.5 Z M 143.9 43.8 L 145.6 53.3 C 147.0 54.4 148.1 54.9 149.0 54.9 C 150.6 54.9 151.8 53.5 151.8 51.1 C 151.8 48.7 150.9 46.2 149.9 44.9 C 148.9 43.6 147.8 43.0 146.5 43.0 C 145.6 43.0 144.8 43.3 143.9 43.8 " fill="#000000"></path><path d="M 161.1 50.6 C 161.1 59.0 163.6 63.1 167.1 63.7 L 167.1 65.1 C 162.0 64.5 158.5 59.8 158.5 50.6 C 158.5 41.4 162.0 36.6 167.1 36.0 L 167.1 37.4 C 163.6 38.0 161.1 42.2 161.1 50.6 " fill="#000000"></path><path d="M 175.4 56.9 L 170.7 55.8 L 170.7 54.8 L 173.3 54.6 C 173.7 53.9 173.9 53.1 174.1 52.3 L 175.9 42.6 L 177.1 42.6 C 175.4 39.4 173.9 37.8 172.5 37.6 L 170.5 39.6 C 169.4 39.4 168.7 38.6 168.7 37.5 C 168.7 36.3 169.8 35.2 171.3 35.2 C 173.8 35.2 176.3 37.6 179.0 42.4 C 181.4 46.6 182.6 51.0 185.0 54.2 L 186.8 55.2 L 186.8 56.0 L 184.4 56.8 L 183.4 56.8 C 181.5 52.4 180.0 48.6 178.7 45.5 L 177.7 52.2 C 177.2 55.1 176.7 56.6 175.4 56.9 " fill="#B30000"></path><path d="M 193.5 45.2 L 190.3 44.5 L 190.3 43.9 L 192.1 43.6 L 190.3 34.9 L 192.1 34.9 L 193.4 42.1 C 194.7 43.3 195.9 43.9 196.6 43.9 C 197.4 43.9 197.8 43.5 197.8 42.5 C 197.8 42.2 197.7 41.7 197.6 41.1 L 196.6 37.2 C 196.6 36.7 196.5 36.3 196.5 36.0 C 196.5 35.2 197.0 34.7 198.0 34.7 C 198.6 34.7 199.5 35.0 200.6 35.4 L 200.6 36.0 C 200.1 35.9 199.7 35.8 199.4 35.8 C 198.7 35.8 198.3 36.2 198.3 36.9 C 198.3 37.2 198.4 37.6 198.5 38.3 L 199.3 41.6 C 199.5 42.3 199.6 42.9 199.6 43.5 C 199.6 44.5 198.9 45.2 197.8 45.2 C 196.6 45.2 195.3 44.5 193.6 43.1 L 194.0 45.2 L 193.5 45.2 " fill="#000000"></path><path d="M 210.8 36.0 L 212.6 36.0 L 212.6 65.1 L 210.8 65.1 Z M 210.8 36.0 " fill="#000000"></path><path d="M 226.7 56.9 L 222.6 55.5 L 222.6 54.5 L 225.4 54.3 C 225.9 53.4 226.6 51.6 227.5 48.8 C 226.4 46.7 225.2 45.1 223.9 44.3 L 222.6 45.9 C 221.4 45.6 220.6 44.7 220.6 43.7 C 220.6 42.7 221.6 41.7 222.8 41.7 C 224.6 41.7 226.2 43.6 228.2 47.2 C 229.0 43.3 229.9 41.6 232.3 41.6 C 233.2 41.6 234.5 41.9 236.3 42.4 L 236.3 43.6 C 235.7 43.5 235.2 43.4 234.7 43.4 C 232.6 43.4 232.2 45.5 230.9 49.9 C 232.0 52.1 233.1 53.5 234.3 54.0 L 235.5 52.4 C 236.7 52.7 237.4 53.6 237.4 54.7 C 237.4 55.8 236.6 56.7 235.5 56.7 C 233.8 56.7 232.0 54.9 230.2 51.4 C 229.2 55.1 228.7 56.9 227.0 56.9 C 226.9 56.9 226.8 56.9 226.7 56.9 " fill="#52A700"></path><path d="M 245.7 45.2 L 242.5 44.5 L 242.5 43.9 L 244.3 43.6 L 242.5 34.9 L 244.3 34.9 L 245.6 42.1 C 246.9 43.3 248.1 43.9 248.8 43.9 C 249.6 43.9 250.0 43.5 250.0 42.5 C 250.0 42.2 249.9 41.7 249.8 41.1 L 248.8 37.2 C 248.7 36.7 248.7 36.3 248.7 36.0 C 248.7 35.2 249.2 34.7 250.2 34.7 C 250.8 34.7 251.7 35.0 252.8 35.4 L 252.8 36.0 C 252.3 35.9 251.9 35.8 251.6 35.8 C 250.9 35.8 250.5 36.2 250.5 36.9 C 250.5 37.2 250.6 37.6 250.7 38.3 L 251.5 41.6 C 251.6 42.3 251.8 42.9 251.8 43.5 C 251.8 44.5 251.1 45.2 250.0 45.2 C 248.8 45.2 247.5 44.5 245.8 43.1 L 246.2 45.2 L 245.7 45.2 " fill="#000000"></path><path d="M 263.0 50.6 C 263.0 42.2 260.5 38.0 257.0 37.4 L 257.0 36.0 C 262.1 36.6 265.6 41.4 265.6 50.6 C 265.6 59.8 262.1 64.5 257.0 65.1 L 257.0 63.7 C 260.5 63.1 263.0 59.0 263.0 50.6 " fill="#000000"></path></g></g><g><clipPath id="clip0x61800b0acd80"><path d="M 330.0 85.5 L 585.7 85.5 L 585.7 125.2 L 330.0 125.2 Z M 330.0 85.5 "></path></clipPath><g clip-path="url(#clip0x61800b0acd80)"><path d="M 342.3 111.4 L 341.7 110.7 C 340.8 111.1 339.8 111.4 339.0 111.4 C 336.0 111.4 333.5 109.9 331.9 107.4 C 330.9 105.7 330.3 103.7 330.3 101.7 C 330.3 98.3 332.0 96.4 334.5 96.4 C 336.0 96.4 337.5 97.2 339.1 98.9 C 339.1 98.8 339.1 98.8 339.1 98.7 C 339.1 97.1 339.7 96.4 341.0 96.4 C 341.8 96.4 343.1 96.7 344.7 97.4 L 344.7 98.3 C 343.9 98.2 343.4 98.0 343.0 98.0 C 341.9 98.0 341.4 98.5 341.4 99.4 C 341.4 99.9 341.5 100.6 341.7 101.6 L 342.8 107.0 C 343.2 109.3 343.6 110.7 343.9 111.4 L 342.3 111.4 Z M 339.5 110.2 L 340.7 108.3 L 339.2 100.2 C 337.9 98.9 336.7 98.2 335.5 98.2 C 333.8 98.2 332.9 99.4 332.9 101.9 C 332.9 106.8 335.5 110.2 339.1 110.2 C 339.2 110.2 339.4 110.2 339.5 110.2 " fill="#000000"></path><path d="M 351.7 125.4 L 348.4 124.7 L 348.4 124.2 L 350.3 124.0 L 348.3 113.5 C 348.0 112.2 347.9 111.3 347.9 111.0 C 347.9 109.9 348.4 109.4 349.4 109.4 C 350.1 109.4 351.1 109.7 352.3 110.2 L 352.3 110.8 C 351.6 110.6 351.1 110.5 350.8 110.5 C 350.0 110.5 349.6 110.8 349.6 111.5 C 349.6 111.8 349.6 112.4 349.8 113.2 L 352.0 124.0 C 352.0 124.1 352.1 124.6 352.2 125.4 L 351.7 125.4 " fill="#000000"></path><path d="M 350.3 96.3 L 347.1 95.7 L 347.1 95.1 L 348.9 94.8 L 347.1 86.0 L 348.9 86.0 L 350.3 93.3 C 351.6 94.5 352.7 95.0 353.4 95.0 C 354.2 95.0 354.6 94.6 354.6 93.7 C 354.6 93.4 354.5 92.9 354.4 92.3 L 353.4 88.4 C 353.3 87.9 353.3 87.5 353.3 87.2 C 353.3 86.3 353.8 85.9 354.8 85.9 C 355.4 85.9 356.3 86.1 357.4 86.5 L 357.4 87.2 C 356.9 87.0 356.5 86.9 356.2 86.9 C 355.5 86.9 355.1 87.3 355.1 88.0 C 355.1 88.3 355.2 88.8 355.4 89.4 L 356.1 92.7 C 356.3 93.5 356.4 94.1 356.4 94.6 C 356.4 95.7 355.7 96.3 354.6 96.3 C 353.4 96.3 352.1 95.7 350.4 94.3 L 350.8 96.3 L 350.3 96.3 " fill="#000000"></path><path d="M 370.0 102.7 C 370.0 104.4 371.3 106.8 373.9 106.8 C 377.6 106.8 379.7 101.5 384.1 101.5 C 386.9 101.5 389.3 104.1 389.3 108.1 L 388.0 108.1 C 388.0 106.5 386.7 104.0 384.1 104.0 C 380.4 104.0 378.3 109.4 373.9 109.4 C 371.1 109.4 368.7 106.8 368.7 102.7 L 370.0 102.7 " fill="#000000"></path><path d="M 399.2 117.1 L 399.2 115.9 L 401.0 115.7 L 401.5 115.3 L 401.5 98.5 L 401.0 98.0 L 399.2 97.9 L 399.2 96.6 L 406.5 96.6 L 406.5 97.9 L 404.8 98.0 L 404.2 98.5 L 404.2 105.7 C 404.8 105.8 405.3 105.8 405.8 105.8 C 408.5 105.8 409.7 105.0 410.6 102.5 C 411.2 100.5 411.3 98.6 412.8 97.3 C 413.5 96.7 414.5 96.4 415.9 96.4 C 416.6 96.4 417.4 96.5 418.3 96.7 L 418.3 97.8 C 418.2 97.8 418.1 97.8 418.0 97.8 C 415.7 97.8 414.7 98.2 414.0 100.0 C 413.5 101.4 413.4 103.1 412.6 104.5 C 412.0 105.5 410.9 106.2 409.4 106.6 C 412.7 107.3 414.4 109.0 414.4 111.6 C 414.4 115.4 412.0 117.1 407.0 117.1 L 399.2 117.1 Z M 404.2 115.7 L 405.7 115.7 C 409.5 115.7 411.3 114.6 411.3 111.4 C 411.3 108.4 409.6 107.2 405.9 107.2 C 405.7 107.2 405.2 107.2 404.2 107.2 L 404.2 115.7 " fill="#000000"></path><path d="M 429.0 99.9 C 427.3 98.7 425.7 98.1 424.2 98.1 C 421.1 98.1 419.1 100.4 419.1 104.3 C 419.1 104.4 419.1 104.5 419.1 104.7 L 429.0 104.7 C 429.0 105.0 429.0 105.3 429.0 105.6 C 429.0 109.4 426.8 111.6 423.5 111.6 C 419.4 111.6 416.5 108.5 416.5 103.9 C 416.5 99.4 419.2 96.4 423.3 96.4 C 425.2 96.4 427.2 97.0 429.0 98.2 L 429.0 99.9 Z M 426.3 106.0 L 419.2 106.0 C 419.4 108.6 421.2 110.3 423.1 110.3 C 425.2 110.3 426.3 108.9 426.3 106.4 C 426.3 106.3 426.3 106.1 426.3 106.0 " fill="#000000"></path><path d="M 440.8 111.0 C 439.8 111.4 438.6 111.6 437.2 111.6 C 433.8 111.6 431.8 110.1 431.8 107.4 C 431.8 105.3 433.2 104.3 435.8 103.2 C 437.8 102.3 438.9 101.7 438.9 100.1 C 438.9 98.7 437.8 97.6 436.0 97.6 C 435.1 97.6 434.3 97.9 433.4 98.4 L 433.1 101.0 L 431.6 101.0 L 431.6 97.0 C 432.7 96.6 434.0 96.4 435.6 96.4 C 439.2 96.4 441.3 98.1 441.3 100.9 C 441.3 102.1 440.9 103.0 440.1 103.6 C 439.1 104.4 438.0 104.8 436.9 105.3 C 435.2 106.2 434.3 106.8 434.3 108.1 C 434.3 109.5 435.2 110.3 436.8 110.3 C 437.6 110.3 438.3 110.1 439.1 109.7 L 439.3 107.5 L 440.8 107.5 L 440.8 111.0 " fill="#000000"></path><path d="M 452.8 98.4 L 453.2 96.6 L 457.5 96.6 L 457.5 97.7 L 455.9 97.9 L 455.4 98.4 L 455.4 107.2 C 455.4 110.3 454.0 111.6 450.8 111.6 C 447.0 111.6 444.6 110.1 444.6 108.2 C 444.6 107.4 444.9 107.2 445.6 107.2 L 447.7 107.2 L 447.7 109.8 C 448.5 110.1 449.3 110.3 450.0 110.3 C 452.2 110.3 452.8 109.3 452.8 106.9 L 452.8 105.9 C 446.7 104.4 443.9 103.5 443.9 100.3 C 443.9 98.0 445.4 96.4 447.8 96.4 C 449.3 96.4 450.9 97.1 452.8 98.4 Z M 452.8 99.4 C 451.3 98.6 450.1 98.1 449.0 98.1 C 447.5 98.1 446.6 99.1 446.6 100.6 C 446.6 102.8 448.5 103.6 452.8 104.8 L 452.8 99.4 " fill="#000000"></path><path d="M 472.0 109.6 C 471.3 110.9 470.1 111.6 468.6 111.6 C 467.3 111.6 465.8 111.0 463.7 109.8 L 463.7 111.5 L 462.6 111.5 L 459.0 110.4 L 459.0 109.4 L 461.2 109.4 L 461.2 98.4 L 460.7 97.9 L 459.0 97.7 L 459.0 96.6 L 465.7 96.6 L 465.7 97.7 L 464.3 97.9 L 463.7 98.4 L 463.7 108.6 C 465.1 109.3 466.2 109.6 467.2 109.6 C 469.1 109.6 469.9 108.6 469.9 106.5 L 469.9 98.4 L 469.4 97.9 L 467.9 97.7 L 467.9 96.6 L 474.4 96.6 L 474.4 97.7 L 473.0 97.9 L 472.4 98.4 L 472.4 108.6 C 473.8 109.3 474.9 109.6 475.9 109.6 C 477.8 109.6 478.7 108.6 478.7 106.5 L 478.7 98.4 L 478.1 97.9 L 476.7 97.7 L 476.7 96.6 L 483.3 96.6 L 483.3 97.7 L 481.7 97.9 L 481.2 98.4 L 481.2 107.0 C 481.2 110.0 479.7 111.6 477.2 111.6 C 476.0 111.6 474.3 110.9 472.0 109.6 " fill="#000000"></path><path d="M 484.6 90.0 L 491.8 90.0 L 491.8 91.1 L 489.8 91.2 L 489.3 91.7 L 489.3 96.8 C 490.4 96.6 491.4 96.5 492.2 96.5 C 496.7 96.5 499.7 99.7 499.7 104.5 C 499.7 108.8 497.2 111.6 493.8 111.6 C 492.4 111.6 491.0 111.0 489.3 109.8 L 489.3 111.5 L 488.2 111.5 L 484.6 110.4 L 484.6 109.4 L 486.8 109.4 L 486.8 91.7 L 486.3 91.2 L 484.6 91.1 L 484.6 90.0 Z M 489.3 98.4 L 489.3 108.7 C 490.5 109.3 491.5 109.7 492.5 109.7 C 495.2 109.7 497.0 107.6 497.0 104.1 C 497.0 100.3 494.9 97.9 491.9 97.9 C 491.2 97.9 490.3 98.1 489.3 98.4 " fill="#000000"></path><path d="M 501.7 96.6 L 508.8 96.6 L 508.8 97.7 L 507.1 97.9 L 506.5 98.4 L 506.5 119.1 L 505.4 119.1 L 501.6 118.0 L 501.6 117.1 L 504.0 117.1 L 504.0 98.4 L 503.5 97.9 L 501.7 97.7 L 501.7 96.6 " fill="#000000"></path><path d="M 523.1 99.9 C 521.4 98.7 519.8 98.1 518.3 98.1 C 515.2 98.1 513.2 100.4 513.2 104.3 C 513.2 104.4 513.2 104.5 513.2 104.7 L 523.1 104.7 C 523.1 105.0 523.1 105.3 523.1 105.6 C 523.1 109.4 520.9 111.6 517.6 111.6 C 513.5 111.6 510.6 108.5 510.6 103.9 C 510.6 99.4 513.3 96.4 517.4 96.4 C 519.3 96.4 521.3 97.0 523.1 98.2 L 523.1 99.9 Z M 520.4 106.0 L 513.3 106.0 C 513.5 108.6 515.3 110.3 517.2 110.3 C 519.3 110.3 520.4 108.9 520.4 106.4 C 520.4 106.3 520.4 106.1 520.4 106.0 " fill="#000000"></path><path d="M 528.7 105.4 C 528.7 113.8 531.2 118.0 534.7 118.6 L 534.7 120.0 C 529.6 119.4 526.1 114.7 526.1 105.4 C 526.1 96.2 529.6 91.5 534.7 90.9 L 534.7 92.3 C 531.2 92.9 528.7 97.1 528.7 105.4 " fill="#000000"></path><path d="M 542.3 111.7 L 538.0 110.6 L 538.0 109.5 L 540.5 109.2 L 541.2 97.6 L 540.9 96.6 L 543.8 96.6 C 545.7 100.0 547.6 103.6 549.5 107.2 L 550.1 96.6 L 552.7 96.6 C 557.8 103.0 560.6 107.0 560.6 109.5 C 560.6 110.9 559.8 111.7 558.6 111.7 C 557.9 111.7 557.3 111.5 556.8 110.9 L 557.5 106.3 C 556.8 104.7 555.3 102.4 553.2 99.5 C 552.8 104.6 552.6 108.5 552.5 111.3 L 549.6 111.0 C 548.1 107.6 546.3 104.1 544.3 100.6 L 543.7 111.7 L 542.3 111.7 " fill="#000000"></path><path d="M 565.9 100.0 L 562.7 99.3 L 562.7 98.8 L 564.5 98.5 L 562.7 89.7 L 564.5 89.7 L 565.9 97.0 C 567.2 98.2 568.3 98.7 569.0 98.7 C 569.8 98.7 570.2 98.3 570.2 97.4 C 570.2 97.1 570.1 96.6 570.0 96.0 L 569.1 92.1 C 568.9 91.6 568.9 91.2 568.9 90.9 C 568.9 90.0 569.4 89.6 570.4 89.6 C 571.0 89.6 571.9 89.8 573.0 90.2 L 573.0 90.9 C 572.5 90.7 572.1 90.6 571.8 90.6 C 571.1 90.6 570.7 91.0 570.7 91.7 C 570.7 92.0 570.8 92.5 571.0 93.1 L 571.7 96.4 C 571.8 97.2 572.0 97.8 572.0 98.3 C 572.0 99.4 571.3 100.0 570.2 100.0 C 569.1 100.0 567.7 99.3 566.0 98.0 L 566.4 100.0 L 565.9 100.0 " fill="#000000"></path><path d="M 583.2 105.4 C 583.2 97.1 580.7 92.9 577.2 92.3 L 577.2 90.9 C 582.3 91.5 585.8 96.2 585.8 105.4 C 585.8 114.7 582.3 119.4 577.2 120.0 L 577.2 118.6 C 580.7 118.0 583.2 113.8 583.2 105.4 " fill="#000000"></path></g></g><text xml:space="preserve" font-family="FiraSans-Light,Fira Sans" font-size="60.0" fill="#20313F" transform="matrix(1.00, 0.00, -0.00, -1.00, 198.6, 665.0)">S</text><text xml:space="preserve" font-family="FiraSans-Light,Fira Sans" font-size="60.0" fill="#20313F" transform="matrix(1.00, 0.00, -0.00, -1.00, 230.9, 665.0)">e</text><text xml:space="preserve" font-family="FiraSans-Light,Fira Sans" font-size="60.0" fill="#20313F" transform="matrix(1.00, 0.00, -0.00, -1.00, 263.2, 665.0)">q</text><text xml:space="preserve" font-family="FiraSans-Light,Fira Sans" font-size="60.0" fill="#20313F" transform="matrix(1.00, 0.00, -0.00, -1.00, 298.0, 665.0)">u</text><text xml:space="preserve" font-family="FiraSans-Light,Fira Sans" font-size="60.0" fill="#20313F" transform="matrix(1.00, 0.00, -0.00, -1.00, 332.7, 665.0)">e</text><text xml:space="preserve" font-family="FiraSans-Light,Fira Sans" font-size="60.0" fill="#20313F" transform="matrix(1.00, 0.00, -0.00, -1.00, 365.0, 665.0)">n</text><text xml:space="preserve" font-family="FiraSans-Light,Fira Sans" font-size="60.0" fill="#20313F" transform="matrix(1.00, 0.00, -0.00, -1.00, 400.0, 665.0)">t</text><text xml:space="preserve" font-family="FiraSans-Light,Fira Sans" font-size="60.0" fill="#20313F" transform="matrix(1.00, 0.00, -0.00, -1.00, 420.5, 665.0)">i</text><text xml:space="preserve" font-family="FiraSans-Light,Fira Sans" font-size="60.0" fill="#20313F" transform="matrix(1.00, 0.00, -0.00, -1.00, 436.7, 665.0)">a</text><text xml:space="preserve" font-family="FiraSans-Light,Fira Sans" font-size="60.0" fill="#20313F" transform="matrix(1.00, 0.00, -0.00, -1.00, 468.9, 665.0)">l</text><text xml:space="preserve" font-family="FiraSans-Light,Fira Sans" font-size="60.0" fill="#20313F" transform="matrix(1.00, 0.00, -0.00, -1.00, 485.9, 665.0)"> </text><text xml:space="preserve" font-family="FiraSans-Light,Fira Sans" font-size="60.0" fill="#20313F" transform="matrix(1.00, 0.00, -0.00, -1.00, 502.6, 665.0)">M</text><text xml:space="preserve" font-family="FiraSans-Light,Fira Sans" font-size="60.0" fill="#20313F" transform="matrix(1.00, 0.00, -0.00, -1.00, 549.0, 665.0)">o</text><text xml:space="preserve" font-family="FiraSans-Light,Fira Sans" font-size="60.0" fill="#20313F" transform="matrix(1.00, 0.00, -0.00, -1.00, 583.3, 665.0)">n</text><text xml:space="preserve" font-family="FiraSans-Light,Fira Sans" font-size="60.0" fill="#20313F" transform="matrix(1.00, 0.00, -0.00, -1.00, 618.3, 665.0)">t</text><text xml:space="preserve" font-family="FiraSans-Light,Fira Sans" font-size="60.0" fill="#20313F" transform="matrix(1.00, 0.00, -0.00, -1.00, 638.2, 665.0)">e</text><text xml:space="preserve" font-family="FiraSans-Light,Fira Sans" font-size="60.0" fill="#20313F" transform="matrix(1.00, 0.00, -0.00, -1.00, 670.5, 665.0)"> </text><text xml:space="preserve" font-family="FiraSans-Light,Fira Sans" font-size="60.0" fill="#20313F" transform="matrix(1.00, 0.00, -0.00, -1.00, 687.2, 665.0)">C</text><text xml:space="preserve" font-family="FiraSans-Light,Fira Sans" font-size="60.0" fill="#20313F" transform="matrix(1.00, 0.00, -0.00, -1.00, 720.2, 665.0)">a</text><text xml:space="preserve" font-family="FiraSans-Light,Fira Sans" font-size="60.0" fill="#20313F" transform="matrix(1.00, 0.00, -0.00, -1.00, 752.4, 665.0)">r</text><text xml:space="preserve" font-family="FiraSans-Light,Fira Sans" font-size="60.0" fill="#20313F" transform="matrix(1.00, 0.00, -0.00, -1.00, 774.7, 665.0)">l</text><text xml:space="preserve" font-family="FiraSans-Light,Fira Sans" font-size="60.0" fill="#20313F" transform="matrix(1.00, 0.00, -0.00, -1.00, 791.2, 665.0)">o</text></g></svg>